<svg width="51" height="28" viewBox="0 0 51 28" fill="none" xmlns="http://www.w3.org/2000/svg">
<path d="M50.1785 0.0244141H0.882812V27.0244H50.1785V0.0244141Z" fill="#306FC5"/>
<path d="M9.90625 10.9401H11.2231L10.5661 9.26367L9.90625 10.9401Z" fill="white"/>
<path d="M16.918 16.5654V17.343H19.1348V18.1812H16.918V19.0774H19.375L20.5124 17.82L19.433 16.5654H16.918Z" fill="white"/>
<path d="M34.2295 9.26367L33.5117 10.9401H34.8893L34.2295 9.26367Z" fill="white"/>
<path d="M23.3266 19.5573V16.1465L21.7695 17.8202L23.3266 19.5573Z" fill="white"/>
<path d="M26.2625 17.1031C26.2017 16.7447 25.9615 16.5654 25.6026 16.5654H24.3438V17.6436H25.6606C26.0195 17.6436 26.2597 17.4643 26.2597 17.1059L26.2625 17.1031Z" fill="white"/>
<path d="M30.457 17.5219C30.5757 17.4613 30.6365 17.2821 30.6365 17.1028C30.6972 16.8629 30.5757 16.7444 30.457 16.6837C30.3383 16.623 30.1589 16.623 29.9794 16.623H28.7812V17.5798H29.9794C30.1589 17.5798 30.3383 17.5798 30.4598 17.5192L30.457 17.5219Z" fill="white"/>
<path d="M39.0832 7.70898V8.4259L38.7243 7.70898H35.9083V8.4259L35.5494 7.70898H31.7148C31.055 7.70898 30.5166 7.82755 30.0363 8.06744V7.70898H27.3418V8.06744C27.0436 7.82755 26.682 7.70898 26.2043 7.70898H16.5583L15.8985 9.20623L15.2387 7.70898H12.1826V8.4259L11.8816 7.70898H9.24515L8.04699 10.5215L6.66939 13.5739L6.64453 13.6345H9.76417L9.78625 13.5739L10.1452 12.6777H10.9237L11.2826 13.6345H14.7556V12.9176L15.0565 13.6345H16.793L17.0912 12.9176V13.6345H25.4175V12.0794H25.539C25.6182 12.0794 25.6577 12.1391 25.6577 12.2586V13.5739H29.97V13.2154C30.3289 13.3946 30.8672 13.5739 31.5878 13.5739H33.385L33.7439 12.6171H34.5832L34.9421 13.5739H38.4179V12.6777L38.9562 13.5739H41.7721V7.70898H39.0749H39.0832ZM18.7725 12.7356H17.8145V9.44336L17.7537 9.58123L16.3596 12.7356H15.4761L14.0378 9.44336V12.7356H12.0004L11.5807 11.8395H9.5433L9.12368 12.7356H8.07184L9.84423 8.54722H11.3405L13.0191 12.5564V8.54722H14.6065L14.6341 8.60788L15.3906 10.2513L15.9344 11.481L15.9537 11.4176L17.1519 8.54446H18.7697V12.7329L18.7725 12.7356ZM22.908 9.44336H20.5724V10.2209H22.8501V11.0592H20.5724V11.8974H22.908V12.7935H19.5537V8.54446H22.908V9.4406V9.44336ZM27.1817 10.9875C27.1817 10.9875 27.1844 10.9875 27.1872 10.9902C27.2093 11.0151 27.2286 11.0371 27.2452 11.0619C27.3611 11.2108 27.4522 11.4369 27.4577 11.7623C27.4577 11.7678 27.4577 11.7733 27.4577 11.7788C27.4577 11.7816 27.4577 11.7844 27.4577 11.7871C27.4577 11.7871 27.4577 11.7899 27.4577 11.7926C27.4577 11.8257 27.4577 11.8588 27.4577 11.8946V12.7329H26.5605V12.2531C26.5605 12.0132 26.5605 11.6548 26.381 11.4149C26.3231 11.357 26.2678 11.3211 26.2043 11.2935C26.1132 11.2356 25.9448 11.2356 25.6632 11.2356H24.5838V12.7329H23.5651V8.54446H25.8427C26.381 8.54446 26.7399 8.54446 27.0409 8.72369C27.3335 8.90016 27.5129 9.19244 27.5185 9.65292C27.5047 10.2899 27.0961 10.64 26.8007 10.7559C26.8007 10.7559 26.9994 10.7972 27.1789 10.982L27.1817 10.9875ZM29.197 12.7356H28.1783V8.54722H29.197V12.7356ZM40.8804 12.7356H39.5635L37.6476 9.56468V12.198L37.6421 12.1924V12.7412H36.6289H35.6102L35.2513 11.845H33.1531L32.7942 12.8018H31.6568C31.1792 12.8018 30.5774 12.6832 30.2185 12.322C29.8596 11.9636 29.6801 11.4838 29.6801 10.7062C29.6801 10.1079 29.7988 9.50954 30.2185 9.02976C30.5166 8.6713 31.0577 8.54998 31.7148 8.54998H32.6728V9.44612H31.7148C31.3559 9.44612 31.1764 9.50678 30.9362 9.68601C30.7568 9.86523 30.6381 10.2237 30.6381 10.6428C30.6381 11.1226 30.6988 11.4204 30.9362 11.6603C31.1157 11.8395 31.3559 11.9002 31.654 11.9002H32.0737L33.4513 8.61064H34.9504L36.6289 12.6198V8.61064H38.1252L39.8617 11.5417V8.61064H40.8804V12.7384V12.7356Z" fill="white"/>
<path d="M26.3252 10.2926C26.3418 10.2733 26.3583 10.254 26.3721 10.2292C26.4273 10.1437 26.4881 9.98931 26.455 9.777C26.455 9.7577 26.4494 9.7384 26.4467 9.72185C26.4467 9.71634 26.4467 9.71358 26.4467 9.70807C26.4163 9.60604 26.3418 9.54262 26.2645 9.50402C26.143 9.44336 25.9635 9.44336 25.7841 9.44336H24.5859V10.4002H25.7841C25.9635 10.4002 26.143 10.4002 26.2645 10.3395C26.2838 10.3312 26.2976 10.3174 26.3142 10.3037C26.3142 10.3037 26.3197 10.2981 26.328 10.2899L26.3252 10.2926Z" fill="white"/>
<path d="M44.414 18.7193C44.414 18.3002 44.2953 17.8811 44.1159 17.5833V14.8921V14.7129H41.2309C40.8582 14.7129 40.4027 15.0713 40.4027 15.0713V14.7129H37.6475C37.2278 14.7129 36.6895 14.8315 36.4493 15.0713V14.7129H31.538V15.0713C31.1791 14.7736 30.5192 14.7129 30.2211 14.7129H26.9855V15.0713C26.6873 14.7736 25.9668 14.7129 25.6079 14.7129H22.0134L21.1741 15.6118L20.3956 14.7129H15.0039V20.757H20.2769L21.1438 19.8912L21.8947 20.757H25.249V19.3811H25.5499C25.9695 19.3811 26.5079 19.3811 26.9275 19.2019V20.8177H29.6248V19.2625H29.7435C29.8631 19.2625 29.9229 19.3223 29.9229 19.4418V20.8177H38.0699C38.6082 20.8177 39.1493 20.6963 39.4475 20.4592V20.8177H42.0232C42.5616 20.8177 43.1027 20.757 43.4616 20.5171C44.0137 20.1862 44.3616 19.6017 44.4113 18.9041C44.4113 18.8848 44.4168 18.8627 44.4195 18.8406H44.4168C44.4168 18.7993 44.4195 18.7607 44.4195 18.7221L44.414 18.7193ZM25.5444 18.3609H24.3462V19.916H22.3778L21.2321 18.6008V18.6063L21.1714 18.5429L19.8545 19.9188H16.0199V15.7304H19.9153L20.9781 16.894L21.2018 17.1366L21.2321 17.1063L22.491 15.7304H25.6659C26.2815 15.7304 26.9717 15.882 27.234 16.5079C27.2643 16.632 27.2837 16.7699 27.2837 16.927C27.2837 18.1237 26.4444 18.3636 25.5472 18.3636L25.5444 18.3609ZM31.5352 18.3002C31.6539 18.4794 31.7146 18.7193 31.7146 19.0778V19.916H30.6959V19.3783C30.6959 19.1384 30.6959 18.7193 30.5165 18.5401C30.3978 18.3609 30.1576 18.3609 29.7987 18.3609H28.7192V19.916H27.7005V15.6669H29.9781C30.4557 15.6669 30.8754 15.6669 31.1763 15.8462C31.4744 16.0254 31.7146 16.3259 31.7146 16.803C31.7146 17.462 31.295 17.8204 30.9969 17.939C31.2978 18.0576 31.4772 18.1789 31.5352 18.2974V18.3002ZM35.668 16.5658H33.3324V17.3434H35.61V18.1816H33.3324V19.0199H35.668V19.916H32.3137V15.6669H35.668V16.5631V16.5658ZM38.183 19.916H36.2671V19.0199H38.183C38.3625 19.0199 38.4812 19.0199 38.6027 18.9013C38.6634 18.8406 38.7214 18.7221 38.7214 18.6008C38.7214 18.4794 38.6607 18.3609 38.6027 18.303C38.5419 18.2423 38.4232 18.1844 38.2438 18.1844C37.2858 18.1237 36.1456 18.1844 36.1456 16.8691C36.1456 16.2708 36.5045 15.6118 37.584 15.6118H39.5607V16.6293H37.7027C37.5232 16.6293 37.4018 16.6293 37.2831 16.6899C37.1643 16.7506 37.1643 16.8691 37.1643 16.9905C37.1643 17.1697 37.2831 17.2304 37.4045 17.2883C37.526 17.3489 37.6447 17.3489 37.7634 17.3489H38.3018C38.8401 17.3489 39.199 17.4675 39.4392 17.7074C39.6186 17.8866 39.7401 18.1872 39.7401 18.6035C39.7401 19.4997 39.2017 19.9188 38.183 19.9188V19.916ZM43.3373 19.4969C43.0972 19.7368 42.6775 19.916 42.0784 19.916H40.1625V19.0199H42.0784C42.2579 19.0199 42.3794 19.0199 42.4981 18.9013C42.5588 18.8406 42.6168 18.7221 42.6168 18.6008C42.6168 18.4794 42.556 18.3609 42.4981 18.303C42.4373 18.2423 42.3186 18.1844 42.1392 18.1844C41.1812 18.1237 40.041 18.1844 40.041 16.8691C40.041 16.3011 40.3668 15.7855 41.1702 15.6338C41.2668 15.6201 41.3689 15.6118 41.4794 15.6118H43.4561V16.6293H41.5981C41.4186 16.6293 41.2999 16.6293 41.1784 16.6899C41.1177 16.7506 41.057 16.8691 41.057 16.9905C41.057 17.1697 41.1177 17.2304 41.2972 17.2883C41.4159 17.3489 41.5373 17.3489 41.656 17.3489H42.1944C42.4567 17.3489 42.6554 17.382 42.8349 17.4454C43.0005 17.5061 43.5499 17.7515 43.6741 18.3912C43.6852 18.4574 43.6935 18.5291 43.6935 18.6063C43.6935 18.9647 43.5748 19.2653 43.3346 19.5024L43.3373 19.4969Z" fill="white"/>
</svg>
