<svg width="18" height="18" viewBox="0 0 18 18" fill="none" xmlns="http://www.w3.org/2000/svg">
<circle cx="9" cy="9" r="9" fill="#00AFE3"/>
<path d="M12.5 5H11.5V4.5C11.5 4.36739 11.4473 4.24021 11.3536 4.14645C11.2598 4.05268 11.1326 4 11 4C10.8674 4 10.7402 4.05268 10.6464 4.14645C10.5527 4.24021 10.5 4.36739 10.5 4.5V5H7.5V4.5C7.5 4.36739 7.44732 4.24021 7.35355 4.14645C7.25979 4.05268 7.13261 4 7 4C6.86739 4 6.74021 4.05268 6.64645 4.14645C6.55268 4.24021 6.5 4.36739 6.5 4.5V5H5.5C5.10218 5 4.72064 5.15804 4.43934 5.43934C4.15804 5.72064 4 6.10218 4 6.5V12.5C4 12.8978 4.15804 13.2794 4.43934 13.5607C4.72064 13.842 5.10218 14 5.5 14H12.5C12.8978 14 13.2794 13.842 13.5607 13.5607C13.842 13.2794 14 12.8978 14 12.5V6.5C14 6.10218 13.842 5.72064 13.5607 5.43934C13.2794 5.15804 12.8978 5 12.5 5ZM13 12.5C13 12.6326 12.9473 12.7598 12.8536 12.8536C12.7598 12.9473 12.6326 13 12.5 13H5.5C5.36739 13 5.24021 12.9473 5.14645 12.8536C5.05268 12.7598 5 12.6326 5 12.5V9H13V12.5ZM13 8H5V6.5C5 6.36739 5.05268 6.24021 5.14645 6.14645C5.24021 6.05268 5.36739 6 5.5 6H6.5V6.5C6.5 6.63261 6.55268 6.75979 6.64645 6.85355C6.74021 6.94732 6.86739 7 7 7C7.13261 7 7.25979 6.94732 7.35355 6.85355C7.44732 6.75979 7.5 6.63261 7.5 6.5V6H10.5V6.5C10.5 6.63261 10.5527 6.75979 10.6464 6.85355C10.7402 6.94732 10.8674 7 11 7C11.1326 7 11.2598 6.94732 11.3536 6.85355C11.4473 6.75979 11.5 6.63261 11.5 6.5V6H12.5C12.6326 6 12.7598 6.05268 12.8536 6.14645C12.9473 6.24021 13 6.36739 13 6.5V8Z" fill="white"/>
</svg>
