<svg width="18" height="18" viewBox="0 0 18 18" fill="none" xmlns="http://www.w3.org/2000/svg">
<circle cx="9" cy="9" r="9" fill="#00AFE3"/>
<path d="M13.25 8.58333C13.25 11.1271 11.49 13.5058 9.125 14.0833C6.76 13.5058 5 11.1271 5 8.58333V5.83333L9.125 4L13.25 5.83333V8.58333ZM9.125 13.1667C10.8438 12.7083 12.3333 10.6642 12.3333 8.68417V6.42917L9.125 4.99917L5.91667 6.42917V8.68417C5.91667 10.6642 7.40625 12.7083 9.125 13.1667ZM10.5229 10.875L9.11125 10.0271L7.70417 10.875L8.07542 9.27083L6.83333 8.19833L8.47417 8.05625L9.11125 6.54375L9.75292 8.05167L11.3938 8.19375L10.1471 9.27083L10.5229 10.875Z" fill="white"/>
</svg>
