<svg width="138" height="126" viewBox="0 0 138 126" fill="none" xmlns="http://www.w3.org/2000/svg">
<path d="M117.973 71.8244C114.215 92.4185 97.9366 109.366 76.3048 112.771C54.6678 116.181 34.0505 105.046 24.2466 86.5859L22.6917 86.8328C32.6689 106.126 54.0765 117.801 76.5342 114.263C98.992 110.724 115.852 93.0203 119.528 71.5775L117.973 71.8244ZM60.5716 11.1426C38.1138 14.6812 21.2591 32.3848 17.5781 53.8225L19.1331 53.5756C22.8956 32.9917 39.1641 16.0442 60.8061 12.6341C82.438 9.22922 103.06 20.3595 112.864 38.8089L114.419 38.562C104.437 19.2794 83.0345 7.59876 60.5767 11.1374L60.5716 11.1426Z" fill="#00AFE3"/>
<path d="M121.5 32.5233C119.609 31.9524 118.426 30.0442 118.742 28.0743C119.104 25.8215 117.534 23.7332 115.286 23.4761C113.318 23.2498 111.819 21.5936 111.783 19.5928C111.742 17.3143 109.82 15.5398 107.572 15.6941C106.583 15.7558 105.65 15.4524 104.911 14.8814C104.171 14.3105 103.631 13.4773 103.437 12.5001C102.994 10.2678 100.791 8.86367 98.6042 9.4243C96.6873 9.90778 94.704 8.88425 93.9699 7.02748C93.144 4.9084 90.7223 3.92601 88.6728 4.86725C86.868 5.69534 84.737 5.04213 83.6867 3.34481C82.4938 1.41603 79.9446 0.886264 78.0889 2.17726C76.4625 3.31395 74.2499 3.05678 72.9192 1.57548C71.4 -0.111556 68.7999 -0.173277 67.199 1.43661C65.797 2.85104 63.5742 2.99506 62.009 1.77093C60.2195 0.387354 57.6449 0.793682 56.3601 2.66074C55.2283 4.30662 53.0718 4.85182 51.3078 3.9363C49.3042 2.89219 46.8417 3.75114 45.9088 5.82393C45.0828 7.64469 43.0588 8.56536 41.1623 7.98415C39.0057 7.32065 36.737 8.61165 36.1864 10.8182C35.7072 12.7572 33.8718 14.0328 31.9039 13.8013C29.6607 13.5339 27.6621 15.2209 27.5041 17.4892C27.3715 19.4796 25.7911 21.069 23.813 21.1975C21.5595 21.3364 19.8873 23.3526 20.1422 25.6106C20.3666 27.5908 19.092 29.4424 17.1751 29.9207C14.9879 30.4659 13.6981 32.7445 14.3455 34.9304C14.9063 36.8438 13.9887 38.8857 12.1737 39.7035C10.5116 40.4647 9.62455 42.2289 9.88966 43.9519C9.95084 44.3634 10.0783 44.7646 10.272 45.1452C11.1744 46.9197 10.6289 49.1005 8.99237 50.232C7.31505 51.3996 6.82052 53.6112 7.73311 55.36L15.2326 54.177C18.7912 31.4586 36.4872 12.6389 60.2246 8.89968C83.962 5.16043 106.496 17.6435 116.749 38.1862L124.248 37.0032C124.6 35.0539 123.448 33.0994 121.5 32.5079V32.5233ZM128.832 70.1164L121.867 71.2119C118.309 93.9355 100.623 112.75 76.8755 116.489C53.1279 120.229 30.5936 107.751 20.3411 87.2028L13.3514 88.3035C14.5648 88.8589 15.3805 90.0008 15.5793 91.2866C15.6609 91.8113 15.6354 92.3462 15.5028 92.8862C14.942 95.0928 16.3236 97.3198 18.5312 97.7827C20.4736 98.1788 21.8145 99.9687 21.6768 101.964C21.5137 104.238 23.2675 106.177 25.526 106.233C27.5041 106.274 29.1457 107.797 29.3548 109.782C29.365 109.844 29.365 109.911 29.3751 109.967C29.7116 112.133 31.7305 113.63 33.8973 113.285C35.855 112.976 37.7414 114.18 38.3022 116.093C38.9445 118.279 41.2592 119.472 43.3902 118.722C45.2562 118.058 47.321 118.907 48.2183 120.691C49.2277 122.718 51.7258 123.479 53.6887 122.358C54.1118 122.116 54.5656 121.962 55.0244 121.89C56.4213 121.669 57.8845 122.224 58.7818 123.423C60.1379 125.243 62.7279 125.537 64.4613 124.081C65.9805 122.8 68.2136 122.857 69.6615 124.215C71.3235 125.758 73.9185 125.583 75.3664 123.834C76.6359 122.306 78.8332 121.957 80.5054 123.027C82.4122 124.246 84.946 123.613 86.0523 121.633C87.0312 119.889 89.1317 119.154 90.967 119.904C93.0624 120.758 95.4331 119.683 96.1825 117.533C96.8402 115.651 98.7724 114.54 100.715 114.957C102.922 115.419 105.064 113.928 105.421 111.685C105.726 109.71 107.445 108.27 109.423 108.327C111.676 108.383 113.522 106.532 113.476 104.258C113.455 103.26 113.797 102.335 114.399 101.615C114.99 100.894 115.836 100.385 116.815 100.231C119.048 99.8864 120.532 97.7262 120.083 95.4991C120.073 95.4373 120.058 95.3808 120.047 95.3191C119.752 93.4263 120.848 91.5695 122.663 90.942C124.789 90.1962 125.875 87.8046 125.039 85.6906C124.299 83.8338 125.039 81.7148 126.767 80.7427C128.74 79.6214 129.372 77.0754 128.174 75.1466C127.165 73.5265 127.455 71.4177 128.821 70.1215L128.832 70.1164Z" fill="#00AFE3"/>
<path d="M96.8348 75.1566C92.7409 84.5844 84.1197 91.7749 73.3115 93.4722C62.5083 95.1747 52.113 90.9777 45.368 83.2626L43.6397 83.5352C50.6804 92.0886 61.8812 96.8051 73.546 94.9638C85.2006 93.1276 94.4437 85.1913 98.5682 74.8788L96.8399 75.1514L96.8348 75.1566ZM63.5585 30.4347C51.8937 32.2709 42.6557 40.2072 38.5312 50.5197L40.2596 50.2471C44.3534 40.8193 52.9848 33.6288 63.7879 31.9263C74.5911 30.2239 84.9762 34.4209 91.7263 42.1411L93.4546 41.8685C86.414 33.315 75.2131 28.5985 63.5585 30.4347Z" fill="#00AFE3"/>
<path d="M47.9766 82.8924C54.2474 89.3783 63.4293 92.814 72.9783 91.3122C82.5223 89.8103 90.2308 83.7154 94.2431 75.6094L47.9766 82.8976V82.8924Z" fill="#00AFE3"/>
<path d="M89.1535 42.5482L42.8359 49.8467C46.8432 41.7201 54.5568 35.6046 64.1262 34.0976C73.6905 32.5906 82.8826 36.0418 89.1535 42.5533V42.5482Z" fill="#00AFE3"/>
<path d="M132.633 37.9975L0.046875 58.8721L0.277992 60.3661L132.864 39.4916L132.633 37.9975Z" fill="#00AFE3"/>
<path d="M136.82 65.0493L4.23438 85.9238L4.46549 87.4179L137.052 66.5433L136.82 65.0493Z" fill="#00AFE3"/>
<path d="M47.3555 102.813C47.2535 102.129 47.437 101.316 47.901 100.37L49.2979 97.5206C49.772 96.5536 50.3175 95.9158 50.9344 95.5969C51.5513 95.2832 52.311 95.3501 53.2133 95.8027C54.08 96.2347 54.595 96.7593 54.753 97.3714C54.9111 97.9835 54.7938 98.6933 54.3961 99.4956L54.1514 99.9894L52.4843 99.1562L52.78 98.5544C52.9737 98.1635 53.0706 97.8497 53.0757 97.6234C53.0808 97.3971 52.9278 97.2017 52.622 97.0525C52.311 96.8982 52.056 96.9034 51.8623 97.0679C51.6686 97.2325 51.4748 97.5154 51.276 97.9166L49.4203 101.697C49.2265 102.098 49.1297 102.433 49.1348 102.7C49.1399 102.967 49.2979 103.178 49.6038 103.333C49.8995 103.482 50.1697 103.471 50.3991 103.307C50.6336 103.142 50.8478 102.854 51.0466 102.448L51.4901 101.543L50.6693 101.131L51.1842 100.082L53.56 101.27L51.4137 105.642L50.287 105.081L50.5419 104.269C49.9964 104.726 49.3897 104.793 48.7218 104.459C47.901 104.048 47.4421 103.502 47.3402 102.818L47.3555 102.813Z" fill="#00AFE3"/>
<path d="M54.5534 106.537C54.2424 106.192 54.0742 105.781 54.0436 105.303C54.0181 104.819 54.0997 104.243 54.2985 103.569L56.1339 97.3457L57.9387 97.8858L56.0268 104.372C55.8994 104.804 55.8484 105.164 55.879 105.441C55.9096 105.719 56.088 105.909 56.4143 106.007C56.7406 106.105 56.9904 106.048 57.1688 105.832C57.3473 105.616 57.5002 105.292 57.6277 104.855L59.5395 98.3692L61.3545 98.9144L59.5191 105.138C59.3203 105.812 59.0807 106.342 58.7952 106.732C58.5097 107.118 58.1426 107.37 57.6939 107.483C57.2453 107.596 56.6845 107.555 56.0166 107.355C55.3487 107.154 54.8593 106.882 54.5483 106.542L54.5534 106.537Z" fill="#00AFE3"/>
<path d="M63.3262 99.1865L65.4369 99.454L66.0691 109.103L64.3153 108.882L64.2235 106.768L62.745 106.583L62.1332 108.609L60.3438 108.383L63.3211 99.1865H63.3262ZM64.1929 105.554L64.0961 101.691L63.0713 105.415L64.1878 105.554H64.1929Z" fill="#00AFE3"/>
<path d="M67.5469 99.6697L69.9838 99.5617C70.9984 99.5154 71.7682 99.6697 72.2933 100.025C72.8185 100.38 73.104 101.012 73.1447 101.933C73.1702 102.55 73.1091 103.049 72.951 103.44C72.7981 103.826 72.5075 104.124 72.0843 104.34L73.5832 108.912L71.6204 109L70.3713 104.746L69.6728 104.777L69.8564 109.077L67.9547 109.159L67.552 99.6697H67.5469ZM70.1929 103.604C70.6415 103.584 70.9525 103.46 71.1258 103.229C71.2992 102.998 71.3757 102.643 71.3553 102.169C71.3349 101.701 71.238 101.362 71.0647 101.151C70.8913 100.94 70.5956 100.842 70.1674 100.863L69.5046 100.894L69.6219 103.635L70.1929 103.61V103.604Z" fill="#00AFE3"/>
<path d="M75 99.0371L77.0801 98.5947L80.7916 107.513L79.0633 107.879L78.2986 105.909L76.8405 106.217L76.9118 108.336L75.1478 108.712L75 99.0371ZM77.8703 104.777L76.5346 101.156L76.7691 105.014L77.8703 104.782V104.777Z" fill="#00AFE3"/>
<path d="M79.1562 98.0967L80.4053 97.6081L84.1219 101.45L82.3579 96.8468L83.8415 96.2656L87.237 105.123L86.0338 105.591L82.205 101.45L84.0812 106.352L82.5517 106.948L79.1562 98.0915V98.0967Z" fill="#00AFE3"/>
<path d="M86.0539 96.6666L84.7895 97.3918L84.0859 96.1471L88.2665 93.7451L88.9701 94.9898L87.7261 95.7048L91.6823 102.715L90.005 103.677L86.0488 96.6666H86.0539Z" fill="#00AFE3"/>
<path d="M88.5312 93.5241L91.7992 91.0244L92.5996 92.0891L90.851 93.4264L92.36 95.4375L93.7111 94.4036L94.5166 95.4786L93.1656 96.5124L94.9499 98.8887L96.719 97.536L97.5042 98.5852L94.2158 101.1L88.5312 93.5293V93.5241Z" fill="#00AFE3"/>
<path d="M92.1562 90.6795L95.0775 87.7734L96.0105 88.725L94.4454 90.2834L96.1992 92.0785L97.4074 90.8749L98.3455 91.8367L97.1372 93.0403L99.2122 95.1594L100.793 93.5855L101.705 94.5216L98.7687 97.443L92.1562 90.6846V90.6795Z" fill="#00AFE3"/>
<path d="M21.1374 79.1783C19.8832 79.8418 17.4718 80.8705 14.9634 81.2665C11.4966 81.8169 8.85065 81.3334 6.83174 79.9035C4.82813 78.5302 3.4771 76.1797 3.06414 73.3611C2.10057 66.9833 6.12309 62.6166 12.3582 61.6239C14.8105 61.233 16.7733 61.4182 17.7777 61.7268L17.4157 65.3426C16.2992 65.0545 14.9481 64.8899 12.8579 65.2191C9.2789 65.79 6.88782 68.264 7.5404 72.4199C8.15729 76.3752 10.9766 78.3142 14.4995 77.7587C15.4886 77.6044 16.2584 77.3627 16.5694 77.1364L15.9423 73.1245L13.0108 73.5926L12.4806 70.2082L19.557 69.0818L21.1323 79.1783H21.1374Z" fill="#00AFE3"/>
<path d="M34.6717 69.6274L27.682 70.7384L28.3907 75.2903L36.2012 74.0507L36.7569 77.6048L24.6333 79.5284L21.6406 60.359L33.3717 58.4971L33.9274 62.0512L26.5145 63.229L27.1365 67.21L34.1262 66.099L34.6768 69.6274H34.6717Z" fill="#00AFE3"/>
<path d="M41.0677 61.0021L35.9643 61.8147L35.3984 58.1732L50.0049 55.8535L50.5759 59.495L45.3859 60.318L47.8076 75.851L43.4944 76.5351L41.0728 61.0021H41.0677Z" fill="#00AFE3"/>
<path d="M62.2924 53.8991L63.4446 61.2644L70.521 60.138L69.3739 52.7727L73.6615 52.0938L76.6541 71.2632L72.3665 71.9421L71.1124 63.9184L64.036 65.0448L65.2902 73.0685L60.977 73.7526L57.9844 54.5832L62.2975 53.8991H62.2924Z" fill="#00AFE3"/>
<path d="M81.7115 50.8125L84.7042 69.9819L80.3911 70.666L77.3984 51.4966L81.7115 50.8125Z" fill="#00AFE3"/>
<path d="M85.4766 50.4783C86.8225 50.0308 88.8516 49.5319 91.1356 49.1719C93.9549 48.7244 95.9942 48.8376 97.5186 49.7017C98.7881 50.432 99.6191 51.6716 99.8944 53.4358C100.277 55.884 98.8187 57.8334 97.279 58.6923L97.2943 58.7798C98.7014 59.1089 99.6344 60.2713 100.389 61.9635C101.317 64.0312 102.301 66.4383 102.785 67.1224L98.3853 67.8219C97.9928 67.3332 97.2943 65.8365 96.3613 63.5683C95.4793 61.2589 94.5616 60.7343 92.8078 60.9863L91.5129 61.192L92.6906 68.7322L88.4335 69.406L85.4817 50.4886L85.4766 50.4783ZM91.0235 58.0494L92.7161 57.7819C94.8573 57.4425 95.9586 56.1566 95.6985 54.4799C95.4232 52.7157 94.1028 52.0213 92.1247 52.3094C91.0795 52.474 90.5034 52.654 90.2026 52.762L91.0285 58.0545L91.0235 58.0494Z" fill="#00AFE3"/>
<path d="M115.187 56.8354L108.198 57.9464L108.906 62.4983L116.717 61.2587L117.273 64.8128L105.149 66.7364L102.156 47.567L113.887 45.7051L114.443 49.2592L107.03 50.437L107.652 54.418L114.642 53.307L115.192 56.8354H115.187Z" fill="#00AFE3"/>
<path d="M117.258 45.433C118.797 44.9238 120.832 44.4557 123.004 44.1111C126.613 43.5402 129.055 43.8179 131.105 44.9238C133.307 46.0913 134.918 48.2515 135.448 51.6359C136.019 55.3031 135.091 58.0497 133.501 59.9013C131.762 61.897 128.841 63.1777 125.119 63.7692C122.891 64.1241 121.291 64.2321 120.194 64.2578L117.258 45.4278V45.433ZM124.013 60.39C124.39 60.4157 124.987 60.3231 125.522 60.2357C129.417 59.6442 131.62 57.0828 130.901 52.5C130.309 48.5139 127.668 46.7754 123.972 47.3617C123.014 47.516 122.407 47.6961 122.055 47.8401L124.013 60.3848V60.39Z" fill="#00AFE3"/>
<path d="M44.6439 22.5915H44.6133L42.8136 23.8362L42.1406 22.0977L44.6388 20.4055L46.6118 20.0918L48.2177 30.3734L45.9133 30.7386L44.6439 22.5915Z" fill="#00AFE3"/>
<path d="M58.2853 23.4559C58.7799 26.6345 57.852 29.021 55.2519 29.4325C52.6161 29.8491 51.0866 27.6478 50.6176 24.7417C50.1536 21.7689 51.0407 19.2126 53.6714 18.796C56.399 18.3639 57.8469 20.6424 58.2853 23.461V23.4559ZM53.0137 24.356C53.3655 26.7168 54.1048 27.7506 55.0326 27.6015C55.9554 27.4523 56.2766 26.2025 55.9095 23.8622C55.5527 21.5837 54.8797 20.4573 53.9263 20.6116C53.0494 20.7505 52.6263 21.9694 53.0188 24.356H53.0137Z" fill="#00AFE3"/>
<path d="M66.9885 22.0721C67.483 25.2507 66.5551 27.6373 63.955 28.0487C61.3192 28.4653 59.7897 26.264 59.3207 23.3579C58.8568 20.3851 59.7438 17.8288 62.3745 17.4122C65.1021 16.9801 66.55 19.2587 66.9885 22.0772V22.0721ZM61.7169 22.9773C62.0686 25.3382 62.8079 26.372 63.7358 26.2228C64.6586 26.0737 64.9797 24.8238 64.6127 22.4836C64.2558 20.205 63.5828 19.0786 62.6295 19.2329C61.7526 19.3718 61.3294 20.5908 61.7169 22.9773Z" fill="#00AFE3"/>
<path d="M73.1821 18.8213C73.5186 20.9713 72.346 22.3086 70.8726 22.5452C69.3227 22.7921 67.9156 21.8148 67.6148 19.886C67.3293 18.0498 68.2266 16.4811 69.9651 16.2085C71.7189 15.9308 72.9119 17.0674 73.1872 18.8265L73.1821 18.8213ZM69.3737 19.5363C69.5419 20.6112 70.0212 21.3313 70.7145 21.2182C71.3875 21.1102 71.6067 20.3644 71.4283 19.2071C71.2651 18.163 70.8573 17.4018 70.118 17.5201C69.4145 17.6332 69.2106 18.5076 69.3737 19.5363ZM71.6679 26.8245L75.8587 15.2673L77.1434 15.0615L72.9374 26.6187L71.6679 26.8193V26.8245ZM81.1863 21.9228C81.5228 24.0728 80.3502 25.41 78.8768 25.6466C77.3422 25.8884 75.9351 24.9163 75.619 22.9875C75.3335 21.1513 76.2308 19.5826 77.9693 19.31C79.7231 19.0322 80.9161 20.1689 81.1914 21.928L81.1863 21.9228ZM77.3932 22.6377C77.5462 23.7179 78.0254 24.4328 78.7188 24.3248C79.3917 24.2168 79.611 23.471 79.4325 22.3137C79.2694 21.2696 78.8768 20.5032 78.1427 20.6215C77.4238 20.7347 77.2352 21.6091 77.3983 22.6377H77.3932Z" fill="#00AFE3"/>
</svg>
