<svg width="124" height="128" viewBox="0 0 124 128" fill="none" xmlns="http://www.w3.org/2000/svg">
<path d="M61.68 127.957C61.46 127.957 61.25 127.897 61.05 127.787L0.62999 92.8975C0.23999 92.6775 0 92.2575 0 91.8075V22.0375C0 21.4975 0.339991 21.0275 0.849991 20.8475L61.27 0.0675C61.53 -0.0225 61.82 -0.0225 62.09 0.0675L122.51 20.8475C123.02 21.0175 123.36 21.4975 123.36 22.0375V91.8075C123.36 92.2575 123.12 92.6675 122.73 92.8975L62.31 127.787C62.12 127.897 61.9 127.957 61.68 127.957ZM2.50999 91.0875L61.68 125.247L120.85 91.0875V22.9375L61.68 2.58749L2.50999 22.9375V91.0875Z" fill="#07AEE2"/>
<path d="M61.6785 122.978C61.5685 122.978 61.4584 122.948 61.3684 122.898L4.70844 90.1876C4.51844 90.0776 4.39844 89.8676 4.39844 89.6476V24.7376C4.39844 24.4676 4.56844 24.2276 4.81844 24.1476L61.4784 4.65762C61.6084 4.60762 61.7584 4.60762 61.8884 4.65762L118.548 24.1476C118.798 24.2376 118.968 24.4676 118.968 24.7376V89.6476C118.968 89.8676 118.848 90.0776 118.658 90.1876L61.9984 122.898C61.8984 122.958 61.7984 122.978 61.6884 122.978H61.6785ZM5.64844 89.2776L61.6785 121.628L117.708 89.2776V25.1776L61.6785 5.90762L5.64844 25.1776V89.2776Z" fill="#07AEE2"/>
<path d="M91.7656 28.2568L110.906 29.4868L91.7656 30.7168V28.2568Z" fill="#07AEE2"/>
<path d="M31.5853 30.7168L12.4453 29.4868L31.5853 28.2568V30.7168Z" fill="#07AEE2"/>
<path d="M13.5625 41.9268C13.5625 41.9268 15.0625 41.8168 17.6925 41.6868C20.3225 41.5768 24.0825 41.3568 28.5925 41.2168C33.1025 41.0568 38.3625 40.9268 44.0025 40.8368C46.8225 40.8068 49.7325 40.7667 52.6925 40.7267C55.6525 40.7067 58.6625 40.6968 61.6625 40.6768C64.6725 40.6868 67.6725 40.7068 70.6325 40.7168C73.5925 40.7168 76.5025 40.7868 79.3225 40.8268C84.9625 40.9168 90.2225 41.0468 94.7325 41.2068C99.2425 41.3468 103.003 41.5768 105.633 41.6768C108.263 41.8068 109.773 41.9167 109.773 41.9167C109.773 41.9167 108.273 42.0268 105.633 42.1568C103.003 42.2668 99.2425 42.4868 94.7325 42.6268C90.2225 42.7868 84.9625 42.9268 79.3225 43.0068C76.5025 43.0368 73.5925 43.1168 70.6325 43.1168C67.6725 43.1268 64.6625 43.1468 61.6625 43.1568C58.6525 43.1468 55.6525 43.1268 52.6925 43.1168C49.7325 43.0768 46.8225 43.0468 44.0025 43.0068C38.3625 42.9168 33.1025 42.7868 28.5925 42.6268C24.0825 42.4868 20.3225 42.2568 17.6925 42.1568C15.0625 42.0268 13.5625 41.9167 13.5625 41.9167V41.9268Z" fill="#07AEE2"/>
<path d="M109.796 89.5676C109.796 89.5676 108.296 89.6776 105.656 89.8076C103.026 89.9176 99.266 90.1376 94.756 90.2776C90.2459 90.4376 84.9859 90.5776 79.3459 90.6576C76.5259 90.6876 73.6159 90.7276 70.6559 90.7676C67.6959 90.7776 64.6859 90.7976 61.6859 90.8076C58.6759 90.7976 55.6759 90.7776 52.7159 90.7676C49.7559 90.7676 46.8459 90.6976 44.0259 90.6576C38.3859 90.5676 33.1259 90.4376 28.6159 90.2776C24.1059 90.1376 20.3459 89.9076 17.7159 89.7976C15.0859 89.6676 13.5859 89.5576 13.5859 89.5576C13.5859 89.5576 15.0859 89.4476 17.7159 89.3176C20.3459 89.2076 24.1059 88.9776 28.6159 88.8376C33.1259 88.6776 38.3859 88.5376 44.0259 88.4576C46.8459 88.4276 49.7559 88.3576 52.7159 88.3476C55.6759 88.3376 58.6859 88.3176 61.6859 88.3076C64.6959 88.3176 67.6959 88.3376 70.6559 88.3476C73.6159 88.3876 76.5259 88.4176 79.3459 88.4576C84.9859 88.5476 90.2459 88.6776 94.756 88.8376C99.266 88.9776 103.026 89.2076 105.656 89.3076C108.286 89.4376 109.796 89.5476 109.796 89.5476V89.5676Z" fill="#07AEE2"/>
<path d="M28.4053 92.2676L29.2253 94.7776H31.8753L29.7353 96.3376L30.5453 98.8576L28.4053 97.2976L26.2653 98.8576L27.0853 96.3376L24.9453 94.7776H27.5853L28.4053 92.2676Z" fill="#07AEE2"/>
<path d="M41.5785 92.2676L43.2184 97.2976H48.5085L44.2285 100.408L45.8585 105.448L41.5785 102.338L37.2985 105.448L38.9285 100.408L34.6484 97.2976H39.9384L41.5785 92.2676Z" fill="#07AEE2"/>
<path d="M61.6735 92.2676L64.1234 99.8176H72.0735L65.6434 104.488L68.0934 112.038L61.6735 107.368L55.2434 112.038L57.7035 104.488L51.2734 99.8176H59.2234L61.6735 92.2676Z" fill="#07AEE2"/>
<path d="M81.7737 92.2676L83.4037 97.2976H88.7038L84.4238 100.408L86.0537 105.448L81.7737 102.338L77.4937 105.448L79.1237 100.408L74.8438 97.2976H80.1338L81.7737 92.2676Z" fill="#07AEE2"/>
<path d="M94.9466 92.2676L95.7566 94.7776H98.4066L96.2666 96.3376L97.0865 98.8576L94.9466 97.2976L92.8065 98.8576L93.6165 96.3376L91.4766 94.7776H94.1266L94.9466 92.2676Z" fill="#07AEE2"/>
<path d="M17.3585 73.8101H13.9382V71.2496H17.3585C17.8246 71.2496 18.2025 71.1709 18.4923 71.0134C18.782 70.856 18.993 70.6386 19.1253 70.3615C19.2639 70.0781 19.3332 69.76 19.3332 69.4072C19.3332 69.0293 19.2639 68.6797 19.1253 68.3585C18.993 68.0372 18.782 67.779 18.4923 67.5837C18.2025 67.3822 17.8246 67.2814 17.3585 67.2814H15.1854V78.4775H11.8691V64.7209H17.3585C18.4608 64.7209 19.4088 64.9225 20.2024 65.3256C21.0024 65.7287 21.6165 66.283 22.0448 66.9885C22.4731 67.6876 22.6873 68.4876 22.6873 69.3883C22.6873 70.2765 22.4731 71.0512 22.0448 71.7126C21.6165 72.374 21.0024 72.8905 20.2024 73.2621C19.4088 73.6274 18.4608 73.8101 17.3585 73.8101ZM24.473 64.7209H29.8869C30.9451 64.7209 31.8647 64.8784 32.6458 65.1933C33.4268 65.5083 34.0283 65.9744 34.4504 66.5917C34.8787 67.2089 35.0928 67.9711 35.0928 68.8781C35.0928 69.6655 34.97 70.3237 34.7244 70.8528C34.4787 71.3819 34.1354 71.8197 33.6945 72.1661C33.2599 72.5062 32.7528 72.7865 32.1733 73.007L31.0868 73.6211H26.5422L26.5233 71.0607H29.8869C30.3089 71.0607 30.6585 70.9851 30.9356 70.8339C31.2128 70.6827 31.4206 70.4686 31.5592 70.1914C31.7041 69.908 31.7765 69.571 31.7765 69.1805C31.7765 68.7836 31.7041 68.4435 31.5592 68.1601C31.4143 67.8766 31.2002 67.6593 30.9167 67.5081C30.6396 67.357 30.2963 67.2814 29.8869 67.2814H27.7894V78.4775H24.473V64.7209ZM32.0033 78.4775L28.9609 72.3929L32.4757 72.374L35.5558 78.3358V78.4775H32.0033ZM48.7361 71.3252V71.8827C48.7361 72.9346 48.5881 73.8794 48.292 74.7171C48.0023 75.5486 47.5897 76.2604 47.0543 76.8524C46.5189 77.4382 45.8859 77.8886 45.1552 78.2035C44.4246 78.5122 43.6183 78.6665 42.7365 78.6665C41.8483 78.6665 41.0358 78.5122 40.2988 78.2035C39.5682 77.8886 38.932 77.4382 38.3903 76.8524C37.8549 76.2604 37.4392 75.5486 37.1431 74.7171C36.8534 73.8794 36.7085 72.9346 36.7085 71.8827V71.3252C36.7085 70.2733 36.8534 69.3285 37.1431 68.4907C37.4392 67.653 37.8517 66.9412 38.3808 66.3554C38.9162 65.7634 39.5493 65.313 40.2799 65.0043C41.0169 64.6894 41.8294 64.5319 42.7176 64.5319C43.5994 64.5319 44.4057 64.6894 45.1363 65.0043C45.8733 65.313 46.5095 65.7634 47.0449 66.3554C47.5803 66.9412 47.996 67.653 48.292 68.4907C48.5881 69.3285 48.7361 70.2733 48.7361 71.3252ZM45.3725 71.8827V71.3063C45.3725 70.626 45.3127 70.0277 45.193 69.5112C45.0796 68.9884 44.9096 68.5506 44.6828 68.1979C44.4561 67.8451 44.1758 67.5806 43.8419 67.4042C43.5144 67.2215 43.1396 67.1302 42.7176 67.1302C42.2767 67.1302 41.8924 67.2215 41.5649 67.4042C41.2374 67.5806 40.9634 67.8451 40.7429 68.1979C40.5224 68.5506 40.3555 68.9884 40.2421 69.5112C40.1351 70.0277 40.0815 70.626 40.0815 71.3063V71.8827C40.0815 72.5566 40.1351 73.155 40.2421 73.6778C40.3555 74.1943 40.5224 74.6321 40.7429 74.9911C40.9697 75.3502 41.2468 75.621 41.5743 75.8037C41.9082 75.9864 42.2956 76.0777 42.7365 76.0777C43.1585 76.0777 43.5333 75.9864 43.8608 75.8037C44.1884 75.621 44.4624 75.3502 44.6828 74.9911C44.9096 74.6321 45.0796 74.1943 45.193 73.6778C45.3127 73.155 45.3725 72.5566 45.3725 71.8827ZM52.0997 64.7209H54.8019L57.8726 74.292L60.9432 64.7209H63.6454L58.9686 78.4775H56.7766L52.0997 64.7209ZM50.4557 64.7209H53.2524L53.772 75.2651V78.4775H50.4557V64.7209ZM62.4927 64.7209H65.2989V78.4775H61.9731V75.2651L62.4927 64.7209ZM70.9489 64.7209V78.4775H67.642V64.7209H70.9489ZM80.3688 74.8211C80.3688 74.6069 80.3373 74.4148 80.2743 74.2447C80.2114 74.0684 80.0948 73.9046 79.9248 73.7534C79.7547 73.6022 79.509 73.4511 79.1878 73.2999C78.8729 73.1424 78.4571 72.9787 77.9406 72.8086C77.3359 72.607 76.7533 72.3803 76.1927 72.1283C75.6321 71.8701 75.1313 71.5709 74.6904 71.2307C74.2495 70.8843 73.8999 70.4812 73.6417 70.0214C73.3834 69.5552 73.2543 69.0135 73.2543 68.3963C73.2543 67.8042 73.3866 67.2719 73.6511 66.7995C73.9157 66.3208 74.2842 65.9145 74.7566 65.5807C75.2353 65.2406 75.7959 64.9823 76.4384 64.8059C77.0808 64.6233 77.7832 64.5319 78.5453 64.5319C79.5531 64.5319 80.4413 64.7083 81.2097 65.061C81.9845 65.4075 82.5892 65.9019 83.0238 66.5444C83.4647 67.1806 83.6852 67.9333 83.6852 68.8025H80.3877C80.3877 68.4561 80.3153 68.1506 80.1704 67.8861C80.0318 67.6215 79.8208 67.4136 79.5374 67.2625C79.2539 67.1113 78.898 67.0357 78.4697 67.0357C78.054 67.0357 77.7044 67.0987 77.421 67.2247C77.1375 67.3507 76.9234 67.5207 76.7785 67.7349C76.6336 67.9427 76.5612 68.1727 76.5612 68.4246C76.5612 68.6325 76.6179 68.8214 76.7313 68.9915C76.8509 69.1553 77.0178 69.3096 77.232 69.4545C77.4525 69.5993 77.717 69.7379 78.0257 69.8702C78.3406 70.0025 78.6933 70.1316 79.0839 70.2576C79.8145 70.4906 80.4633 70.752 81.0302 71.0418C81.6034 71.3252 82.0853 71.6496 82.4758 72.0149C82.8726 72.374 83.1718 72.7834 83.3734 73.2432C83.5812 73.703 83.6852 74.2227 83.6852 74.8022C83.6852 75.4195 83.5655 75.9675 83.3261 76.4462C83.0868 76.9249 82.7435 77.3312 82.2963 77.665C81.849 77.9925 81.3136 78.2413 80.6901 78.4114C80.0665 78.5815 79.3705 78.6665 78.602 78.6665C77.8965 78.6665 77.2005 78.5783 76.5139 78.402C75.8337 78.2193 75.2164 77.9421 74.6621 77.5705C74.1078 77.1926 73.6637 76.7107 73.3299 76.1249C73.0023 75.5328 72.8386 74.8305 72.8386 74.018H76.1644C76.1644 74.4211 76.2179 74.7612 76.325 75.0384C76.4321 75.3155 76.5895 75.5391 76.7974 75.7092C77.0052 75.873 77.2604 75.9927 77.5627 76.0682C77.865 76.1375 78.2115 76.1722 78.602 76.1722C79.024 76.1722 79.3642 76.1123 79.6224 75.9927C79.8807 75.8667 80.0696 75.7029 80.1893 75.5013C80.309 75.2935 80.3688 75.0667 80.3688 74.8211ZM94.8624 75.9265V78.4775H87.5306V75.9265H94.8624ZM88.7116 64.7209V78.4775H85.3953V64.7209H88.7116ZM93.9176 70.182V72.648H87.5306V70.182H93.9176ZM94.8908 64.7209V67.2814H87.5306V64.7209H94.8908Z" fill="#07AEE2"/>
<path d="M28.1389 50.0811V58.2568H26.1736L23.2817 53.1694V58.2568H21.3108V50.0811H23.2817L26.1736 55.1685V50.0811H28.1389ZM35.012 56.7407V58.2568H30.6545V56.7407H35.012ZM31.3564 50.0811V58.2568H29.3855V50.0811H31.3564ZM34.4504 53.3267V54.7922H30.6545V53.3267H34.4504ZM35.0288 50.0811V51.6028H30.6545V50.0811H35.0288ZM37.7073 57.5156L39.3357 50.0811H40.3071L40.835 50.7156L39.0999 58.2568H38.0273L37.7073 57.5156ZM37.2749 50.0811L38.6506 57.5718L38.2969 58.2568H37.0559L35.3208 50.0811H37.2749ZM41.7278 57.5325L43.0923 50.0811H45.0408L43.3057 58.2568H42.0703L41.7278 57.5325ZM41.009 50.0811L42.6768 57.5605L42.3398 58.2568H41.2673L39.4929 50.7043L40.0432 50.0811H41.009ZM52.0149 54.781H49.9092L49.8979 53.4895H51.605C51.9119 53.4895 52.1571 53.4558 52.3406 53.3884C52.524 53.3173 52.6569 53.2144 52.7393 53.0796C52.8254 52.9448 52.8684 52.7764 52.8684 52.5742C52.8684 52.3421 52.8254 52.1549 52.7393 52.0127C52.6532 51.8704 52.5165 51.7675 52.3293 51.7039C52.1459 51.6365 51.9082 51.6028 51.6162 51.6028H50.6504V58.2568H48.6794V50.0811H51.6162C52.1216 50.0811 52.5727 50.1278 52.9695 50.2214C53.3663 50.3113 53.7032 50.4498 53.9802 50.637C54.261 50.8241 54.4744 51.06 54.6204 51.3445C54.7664 51.6252 54.8394 51.9565 54.8394 52.3384C54.8394 52.6715 54.7682 52.9841 54.626 53.2761C54.4837 53.5681 54.246 53.8058 53.9128 53.9893C53.5834 54.1689 53.1323 54.2625 52.5596 54.27L52.0149 54.781ZM51.9363 58.2568H49.4319L50.1057 56.7407H51.9363C52.2058 56.7407 52.4211 56.6995 52.582 56.6172C52.7467 56.5311 52.8647 56.4188 52.9358 56.2803C53.0107 56.138 53.0481 55.9808 53.0481 55.8086C53.0481 55.599 53.0125 55.4174 52.9414 55.2639C52.874 55.1104 52.7655 54.9925 52.6157 54.9102C52.466 54.8241 52.2657 54.781 52.0149 54.781H50.3584L50.3696 53.4895H52.3518L52.8123 54.0061C53.3588 53.9836 53.7912 54.0604 54.1094 54.2363C54.4313 54.4123 54.6615 54.6444 54.8 54.9326C54.9386 55.2209 55.0078 55.5222 55.0078 55.8367C55.0078 56.372 54.8918 56.8193 54.6597 57.1787C54.4313 57.5381 54.0888 57.8076 53.6321 57.9873C53.1754 58.167 52.6101 58.2568 51.9363 58.2568ZM60.5388 50.0811H62.5098V55.4211C62.5098 56.0575 62.3769 56.5966 62.1111 57.0383C61.8453 57.4763 61.4728 57.8076 60.9937 58.0322C60.5145 58.2568 59.9511 58.3691 59.3035 58.3691C58.6633 58.3691 58.0999 58.2568 57.6133 58.0322C57.1304 57.8076 56.7523 57.4763 56.479 57.0383C56.2095 56.5966 56.0747 56.0575 56.0747 55.4211V50.0811H58.0513V55.4211C58.0513 55.7581 58.0999 56.0332 58.1973 56.2466C58.2946 56.4562 58.4368 56.6097 58.624 56.707C58.8112 56.8044 59.0377 56.853 59.3035 56.853C59.573 56.853 59.7995 56.8044 59.9829 56.707C60.1663 56.6097 60.3049 56.4562 60.3984 56.2466C60.492 56.0332 60.5388 55.7581 60.5388 55.4211V50.0811ZM67.9622 56.0837C67.9622 55.9565 67.9434 55.8423 67.906 55.7412C67.8686 55.6364 67.7993 55.5391 67.6982 55.4492C67.5972 55.3594 67.4512 55.2695 67.2603 55.1797C67.0731 55.0861 66.826 54.9888 66.519 54.8877C66.1597 54.7679 65.8134 54.6331 65.4802 54.4834C65.1471 54.3299 64.8494 54.1521 64.5874 53.95C64.3254 53.7441 64.1176 53.5045 63.9641 53.2312C63.8106 52.9542 63.7339 52.6322 63.7339 52.2654C63.7339 51.9135 63.8125 51.5972 63.9697 51.3164C64.127 51.0319 64.3459 50.7904 64.6267 50.592C64.9112 50.3899 65.2444 50.2364 65.6262 50.1316C66.0081 50.023 66.4255 49.9688 66.8784 49.9688C67.4774 49.9688 68.0052 50.0736 68.4619 50.2832C68.9224 50.4891 69.2817 50.783 69.54 51.1648C69.8021 51.5429 69.9331 51.9902 69.9331 52.5068H67.9734C67.9734 52.3009 67.9303 52.1194 67.8442 51.9622C67.7619 51.8049 67.6365 51.6814 67.468 51.5916C67.2996 51.5017 67.0881 51.4568 66.8335 51.4568C66.5864 51.4568 66.3787 51.4942 66.2102 51.5691C66.0417 51.644 65.9145 51.745 65.8284 51.8723C65.7423 51.9958 65.6992 52.1325 65.6992 52.2822C65.6992 52.4058 65.7329 52.5181 65.8003 52.6191C65.8714 52.7165 65.9706 52.8082 66.0979 52.8943C66.2289 52.9804 66.3861 53.0627 66.5696 53.1414C66.7568 53.22 66.9664 53.2967 67.1985 53.3716C67.6327 53.5101 68.0183 53.6654 68.3552 53.8376C68.6959 54.0061 68.9823 54.1989 69.2144 54.416C69.4502 54.6294 69.628 54.8727 69.7478 55.146C69.8713 55.4193 69.9331 55.7281 69.9331 56.0725C69.9331 56.4394 69.862 56.7651 69.7197 57.0496C69.5775 57.3341 69.3735 57.5755 69.1077 57.7739C68.8419 57.9686 68.5237 58.1165 68.1531 58.2175C67.7825 58.3186 67.3688 58.3691 66.9121 58.3691C66.4928 58.3691 66.0792 58.3167 65.6711 58.2119C65.2668 58.1034 64.9 57.9386 64.5706 57.7178C64.2411 57.4932 63.9772 57.2068 63.7788 56.8586C63.5841 56.5068 63.4868 56.0894 63.4868 55.6064H65.4634C65.4634 55.846 65.4952 56.0482 65.5588 56.2129C65.6225 56.3776 65.7161 56.5105 65.8396 56.6116C65.9631 56.7089 66.1147 56.78 66.2944 56.825C66.4741 56.8661 66.68 56.8867 66.9121 56.8867C67.1629 56.8867 67.3651 56.8512 67.5186 56.78C67.672 56.7052 67.7843 56.6078 67.8555 56.488C67.9266 56.3645 67.9622 56.2297 67.9622 56.0837ZM73.0439 50.0811V58.2568H71.0786V50.0811H73.0439ZM81.259 50.0811V58.2568H79.2937L76.4019 53.1694V58.2568H74.4309V50.0811H76.4019L79.2937 55.1685V50.0811H81.259ZM88.1321 56.7407V58.2568H83.7747V56.7407H88.1321ZM84.4766 50.0811V58.2568H82.5056V50.0811H84.4766ZM87.5706 53.3267V54.7922H83.7747V53.3267H87.5706ZM88.1489 50.0811V51.6028H83.7747V50.0811H88.1489ZM93.1521 56.0837C93.1521 55.9565 93.1334 55.8423 93.0959 55.7412C93.0585 55.6364 92.9893 55.5391 92.8882 55.4492C92.7871 55.3594 92.6411 55.2695 92.4502 55.1797C92.263 55.0861 92.016 54.9888 91.709 54.8877C91.3496 54.7679 91.0033 54.6331 90.6702 54.4834C90.337 54.3299 90.0394 54.1521 89.7773 53.95C89.5153 53.7441 89.3075 53.5045 89.1541 53.2312C89.0006 52.9542 88.9238 52.6322 88.9238 52.2654C88.9238 51.9135 89.0024 51.5972 89.1597 51.3164C89.3169 51.0319 89.5359 50.7904 89.8167 50.592C90.1012 50.3899 90.4343 50.2364 90.8162 50.1316C91.198 50.023 91.6154 49.9688 92.0684 49.9688C92.6673 49.9688 93.1951 50.0736 93.6519 50.2832C94.1123 50.4891 94.4717 50.783 94.73 51.1648C94.992 51.5429 95.123 51.9902 95.123 52.5068H93.1633C93.1633 52.3009 93.1203 52.1194 93.0342 51.9622C92.9518 51.8049 92.8264 51.6814 92.658 51.5916C92.4895 51.5017 92.278 51.4568 92.0234 51.4568C91.7764 51.4568 91.5686 51.4942 91.4001 51.5691C91.2317 51.644 91.1044 51.745 91.0183 51.8723C90.9322 51.9958 90.8892 52.1325 90.8892 52.2822C90.8892 52.4058 90.9229 52.5181 90.9902 52.6191C91.0614 52.7165 91.1606 52.8082 91.2878 52.8943C91.4189 52.9804 91.5761 53.0627 91.7595 53.1414C91.9467 53.22 92.1563 53.2967 92.3884 53.3716C92.8227 53.5101 93.2083 53.6654 93.5452 53.8376C93.8858 54.0061 94.1722 54.1989 94.4043 54.416C94.6401 54.6294 94.818 54.8727 94.9377 55.146C95.0613 55.4193 95.123 55.7281 95.123 56.0725C95.123 56.4394 95.0519 56.7651 94.9097 57.0496C94.7674 57.3341 94.5634 57.5755 94.2976 57.7739C94.0318 57.9686 93.7136 58.1165 93.343 58.2175C92.9724 58.3186 92.5588 58.3691 92.1021 58.3691C91.6828 58.3691 91.2691 58.3167 90.8611 58.2119C90.4568 58.1034 90.0899 57.9386 89.7605 57.7178C89.4311 57.4932 89.1672 57.2068 88.9688 56.8586C88.7741 56.5068 88.6768 56.0894 88.6768 55.6064H90.6533C90.6533 55.846 90.6851 56.0482 90.7488 56.2129C90.8124 56.3776 90.906 56.5105 91.0295 56.6116C91.1531 56.7089 91.3047 56.78 91.4844 56.825C91.6641 56.8661 91.87 56.8867 92.1021 56.8867C92.3529 56.8867 92.555 56.8512 92.7085 56.78C92.862 56.7052 92.9743 56.6078 93.0454 56.488C93.1165 56.3645 93.1521 56.2297 93.1521 56.0837ZM100.351 56.0837C100.351 55.9565 100.332 55.8423 100.295 55.7412C100.257 55.6364 100.188 55.5391 100.087 55.4492C99.9858 55.3594 99.8398 55.2695 99.6489 55.1797C99.4618 55.0861 99.2147 54.9888 98.9077 54.8877C98.5483 54.7679 98.2021 54.6331 97.8689 54.4834C97.5357 54.3299 97.2381 54.1521 96.9761 53.95C96.714 53.7441 96.5063 53.5045 96.3528 53.2312C96.1993 52.9542 96.1226 52.6322 96.1226 52.2654C96.1226 51.9135 96.2012 51.5972 96.3584 51.3164C96.5156 51.0319 96.7346 50.7904 97.0154 50.592C97.2999 50.3899 97.6331 50.2364 98.0149 50.1316C98.3967 50.023 98.8141 49.9688 99.2671 49.9688C99.866 49.9688 100.394 50.0736 100.851 50.2832C101.311 50.4891 101.67 50.783 101.929 51.1648C102.191 51.5429 102.322 51.9902 102.322 52.5068H100.362C100.362 52.3009 100.319 52.1194 100.233 51.9622C100.151 51.8049 100.025 51.6814 99.8567 51.5916C99.6882 51.5017 99.4767 51.4568 99.2222 51.4568C98.9751 51.4568 98.7673 51.4942 98.5989 51.5691C98.4304 51.644 98.3031 51.745 98.217 51.8723C98.1309 51.9958 98.0879 52.1325 98.0879 52.2822C98.0879 52.4058 98.1216 52.5181 98.189 52.6191C98.2601 52.7165 98.3593 52.8082 98.4866 52.8943C98.6176 52.9804 98.7748 53.0627 98.9583 53.1414C99.1454 53.22 99.3551 53.2967 99.5872 53.3716C100.021 53.5101 100.407 53.6654 100.744 53.8376C101.085 54.0061 101.371 54.1989 101.603 54.416C101.839 54.6294 102.017 54.8727 102.136 55.146C102.26 55.4193 102.322 55.7281 102.322 56.0725C102.322 56.4394 102.251 56.7651 102.108 57.0496C101.966 57.3341 101.762 57.5755 101.496 57.7739C101.231 57.9686 100.912 58.1165 100.542 58.2175C100.171 58.3186 99.7575 58.3691 99.3008 58.3691C98.8815 58.3691 98.4679 58.3167 98.0598 58.2119C97.6555 58.1034 97.2887 57.9386 96.9592 57.7178C96.6298 57.4932 96.3659 57.2068 96.1675 56.8586C95.9728 56.5068 95.8755 56.0894 95.8755 55.6064H97.8521C97.8521 55.846 97.8839 56.0482 97.9475 56.2129C98.0111 56.3776 98.1047 56.5105 98.2283 56.6116C98.3518 56.7089 98.5034 56.78 98.6831 56.825C98.8628 56.8661 99.0687 56.8867 99.3008 56.8867C99.5516 56.8867 99.7537 56.8512 99.9072 56.78C100.061 56.7052 100.173 56.6078 100.244 56.488C100.315 56.3645 100.351 56.2297 100.351 56.0837Z" fill="#07AEE2"/>
<path d="M43.7387 19.2947V34.6367H40.1877V23.2988L36.6894 24.3209V21.6234L43.4121 19.2947H43.7387ZM59.0491 25.5643V28.3671C59.0491 29.47 58.9192 30.4289 58.6593 31.2438C58.4064 32.0586 58.0411 32.733 57.5634 33.2669C57.0927 33.8008 56.5308 34.1977 55.8775 34.4576C55.2242 34.7175 54.5041 34.8475 53.7174 34.8475C53.0851 34.8475 52.495 34.7667 51.9471 34.6051C51.3992 34.4365 50.9039 34.1836 50.4614 33.8464C50.0259 33.5022 49.65 33.0737 49.3339 32.5609C49.0178 32.0481 48.7754 31.444 48.6069 30.7485C48.4383 30.0461 48.354 29.2523 48.354 28.3671V25.5643C48.354 24.4544 48.4804 23.4955 48.7333 22.6876C48.9932 21.8728 49.362 21.1984 49.8397 20.6645C50.3174 20.1306 50.8829 19.7337 51.5362 19.4738C52.1895 19.2139 52.9095 19.0839 53.6963 19.0839C54.3285 19.0839 54.9151 19.1682 55.456 19.3368C56.0039 19.4984 56.4991 19.7513 56.9417 20.0955C57.3843 20.4327 57.7601 20.8577 58.0692 21.3705C58.3853 21.8833 58.6276 22.4909 58.7962 23.1934C58.9648 23.8889 59.0491 24.6792 59.0491 25.5643ZM55.4981 28.7992V25.1112C55.4981 24.6194 55.47 24.1909 55.4138 23.8256C55.3647 23.4604 55.2874 23.1513 55.182 22.8984C55.0837 22.6455 54.9607 22.4418 54.8132 22.2872C54.6657 22.1257 54.4971 22.0097 54.3074 21.9395C54.1248 21.8622 53.9211 21.8236 53.6963 21.8236C53.4153 21.8236 53.1624 21.8833 52.9376 22.0027C52.7198 22.1151 52.5337 22.2978 52.3791 22.5507C52.2246 22.8035 52.1052 23.1407 52.0209 23.5622C51.9436 23.9837 51.905 24.5 51.905 25.1112V28.7992C51.905 29.2979 51.9296 29.7335 51.9787 30.1058C52.0349 30.471 52.1122 30.7836 52.2105 31.0436C52.3159 31.2965 52.4424 31.5037 52.5899 31.6653C52.7374 31.8198 52.906 31.9322 53.0957 32.0024C53.2853 32.0727 53.4926 32.1078 53.7174 32.1078C53.9913 32.1078 54.2372 32.0516 54.455 31.9392C54.6727 31.8268 54.8589 31.6442 55.0134 31.3913C55.175 31.1314 55.2944 30.7907 55.3717 30.3692C55.456 29.9407 55.4981 29.4173 55.4981 28.7992ZM71.5672 25.5643V28.3671C71.5672 29.47 71.4373 30.4289 71.1773 31.2438C70.9245 32.0586 70.5592 32.733 70.0815 33.2669C69.6108 33.8008 69.0488 34.1977 68.3955 34.4576C67.7422 34.7175 67.0222 34.8475 66.2354 34.8475C65.6032 34.8475 65.0131 34.7667 64.4652 34.6051C63.9173 34.4365 63.422 34.1836 62.9795 33.8464C62.5439 33.5022 62.1681 33.0737 61.852 32.5609C61.5359 32.0481 61.2935 31.444 61.1249 30.7485C60.9563 30.0461 60.872 29.2523 60.872 28.3671V25.5643C60.872 24.4544 60.9985 23.4955 61.2514 22.6876C61.5113 21.8728 61.8801 21.1984 62.3578 20.6645C62.8355 20.1306 63.401 19.7337 64.0543 19.4738C64.7076 19.2139 65.4276 19.0839 66.2144 19.0839C66.8466 19.0839 67.4332 19.1682 67.9741 19.3368C68.522 19.4984 69.0172 19.7513 69.4598 20.0955C69.9024 20.4327 70.2782 20.8577 70.5873 21.3705C70.9034 21.8833 71.1457 22.4909 71.3143 23.1934C71.4829 23.8889 71.5672 24.6792 71.5672 25.5643ZM68.0162 28.7992V25.1112C68.0162 24.6194 67.9881 24.1909 67.9319 23.8256C67.8827 23.4604 67.8055 23.1513 67.7001 22.8984C67.6018 22.6455 67.4788 22.4418 67.3313 22.2872C67.1838 22.1257 67.0152 22.0097 66.8255 21.9395C66.6429 21.8622 66.4392 21.8236 66.2144 21.8236C65.9334 21.8236 65.6805 21.8833 65.4557 22.0027C65.2379 22.1151 65.0518 22.2978 64.8972 22.5507C64.7427 22.8035 64.6233 23.1407 64.539 23.5622C64.4617 23.9837 64.4231 24.5 64.4231 25.1112V28.7992C64.4231 29.2979 64.4476 29.7335 64.4968 30.1058C64.553 30.471 64.6303 30.7836 64.7286 31.0436C64.834 31.2965 64.9604 31.5037 65.108 31.6653C65.2555 31.8198 65.4241 31.9322 65.6137 32.0024C65.8034 32.0727 66.0106 32.1078 66.2354 32.1078C66.5094 32.1078 66.7553 32.0516 66.973 31.9392C67.1908 31.8268 67.377 31.6442 67.5315 31.3913C67.6931 31.1314 67.8125 30.7907 67.8898 30.3692C67.9741 29.9407 68.0162 29.4173 68.0162 28.7992ZM73.4428 23.0564V22.2451C73.4428 21.662 73.5693 21.1317 73.8222 20.654C74.075 20.1763 74.4544 19.7934 74.9602 19.5054C75.4659 19.2174 76.0947 19.0734 76.8463 19.0734C77.619 19.0734 78.2583 19.2174 78.7641 19.5054C79.2698 19.7934 79.6457 20.1763 79.8915 20.654C80.1444 21.1317 80.2709 21.662 80.2709 22.2451V23.0564C80.2709 23.6254 80.1444 24.1488 79.8915 24.6265C79.6457 25.1041 79.2698 25.487 78.7641 25.775C78.2653 26.063 77.6331 26.207 76.8674 26.207C76.1087 26.207 75.4765 26.063 74.9707 25.775C74.4649 25.487 74.0821 25.1041 73.8222 24.6265C73.5693 24.1488 73.4428 23.6254 73.4428 23.0564ZM75.7188 22.2451V23.0564C75.7188 23.2672 75.761 23.4674 75.8453 23.6571C75.9296 23.8467 76.056 24.0013 76.2246 24.1207C76.4002 24.2331 76.6145 24.2893 76.8674 24.2893C77.1273 24.2893 77.338 24.2331 77.4996 24.1207C77.6612 24.0013 77.7806 23.8467 77.8579 23.6571C77.9422 23.4674 77.9843 23.2672 77.9843 23.0564V22.2451C77.9843 22.0203 77.9422 21.8131 77.8579 21.6234C77.7806 21.4337 77.6577 21.2827 77.4891 21.1703C77.3205 21.0509 77.1062 20.9912 76.8463 20.9912C76.6004 20.9912 76.3932 21.0509 76.2246 21.1703C76.056 21.2827 75.9296 21.4337 75.8453 21.6234C75.761 21.8131 75.7188 22.0203 75.7188 22.2451ZM80.724 31.6863V30.875C80.724 30.2989 80.8504 29.7721 81.1033 29.2944C81.3632 28.8167 81.7461 28.4339 82.2518 28.1459C82.7647 27.8578 83.3969 27.7138 84.1485 27.7138C84.9212 27.7138 85.557 27.8578 86.0557 28.1459C86.5615 28.4339 86.9373 28.8167 87.1832 29.2944C87.4361 29.7721 87.5625 30.2989 87.5625 30.875V31.6863C87.5625 32.2624 87.4361 32.7892 87.1832 33.2669C86.9373 33.7446 86.565 34.1274 86.0663 34.4154C85.5675 34.7035 84.9353 34.8475 84.1696 34.8475C83.4109 34.8475 82.7752 34.7035 82.2624 34.4154C81.7496 34.1274 81.3632 33.7446 81.1033 33.2669C80.8504 32.7892 80.724 32.2624 80.724 31.6863ZM83.0105 30.875V31.6863C83.0105 31.9041 83.0632 32.1078 83.1686 32.2975C83.2739 32.4871 83.4144 32.6417 83.5901 32.7611C83.7657 32.8735 83.9589 32.9297 84.1696 32.9297C84.4927 32.9297 84.7316 32.8735 84.8861 32.7611C85.0477 32.6417 85.1531 32.4871 85.2022 32.2975C85.2584 32.1078 85.2865 31.9041 85.2865 31.6863V30.875C85.2865 30.6572 85.2444 30.4535 85.1601 30.2638C85.0758 30.0742 84.9493 29.9231 84.7808 29.8107C84.6122 29.6913 84.4014 29.6316 84.1485 29.6316C83.8956 29.6316 83.6849 29.6913 83.5163 29.8107C83.3477 29.9231 83.2213 30.0742 83.137 30.2638C83.0527 30.4535 83.0105 30.6572 83.0105 30.875ZM85.0336 21.4969L77.5418 33.4882L75.8874 32.6557L83.3793 20.6645L85.0336 21.4969Z" fill="#010101"/>
<path d="M43.7387 19.2947V34.6367H40.1877V23.2988L36.6894 24.3209V21.6234L43.4121 19.2947H43.7387ZM59.0491 25.5643V28.3671C59.0491 29.47 58.9192 30.4289 58.6593 31.2438C58.4064 32.0586 58.0411 32.733 57.5634 33.2669C57.0927 33.8008 56.5308 34.1977 55.8775 34.4576C55.2242 34.7175 54.5041 34.8475 53.7174 34.8475C53.0851 34.8475 52.495 34.7667 51.9471 34.6051C51.3992 34.4365 50.9039 34.1836 50.4614 33.8464C50.0259 33.5022 49.65 33.0737 49.3339 32.5609C49.0178 32.0481 48.7754 31.444 48.6069 30.7485C48.4383 30.0461 48.354 29.2523 48.354 28.3671V25.5643C48.354 24.4544 48.4804 23.4955 48.7333 22.6876C48.9932 21.8728 49.362 21.1984 49.8397 20.6645C50.3174 20.1306 50.8829 19.7337 51.5362 19.4738C52.1895 19.2139 52.9095 19.0839 53.6963 19.0839C54.3285 19.0839 54.9151 19.1682 55.456 19.3368C56.0039 19.4984 56.4991 19.7513 56.9417 20.0955C57.3843 20.4327 57.7601 20.8577 58.0692 21.3705C58.3853 21.8833 58.6276 22.4909 58.7962 23.1934C58.9648 23.8889 59.0491 24.6792 59.0491 25.5643ZM55.4981 28.7992V25.1112C55.4981 24.6194 55.47 24.1909 55.4138 23.8256C55.3647 23.4604 55.2874 23.1513 55.182 22.8984C55.0837 22.6455 54.9607 22.4418 54.8132 22.2872C54.6657 22.1257 54.4971 22.0097 54.3074 21.9395C54.1248 21.8622 53.9211 21.8236 53.6963 21.8236C53.4153 21.8236 53.1624 21.8833 52.9376 22.0027C52.7198 22.1151 52.5337 22.2978 52.3791 22.5507C52.2246 22.8035 52.1052 23.1407 52.0209 23.5622C51.9436 23.9837 51.905 24.5 51.905 25.1112V28.7992C51.905 29.2979 51.9296 29.7335 51.9787 30.1058C52.0349 30.471 52.1122 30.7836 52.2105 31.0436C52.3159 31.2965 52.4424 31.5037 52.5899 31.6653C52.7374 31.8198 52.906 31.9322 53.0957 32.0024C53.2853 32.0727 53.4926 32.1078 53.7174 32.1078C53.9913 32.1078 54.2372 32.0516 54.455 31.9392C54.6727 31.8268 54.8589 31.6442 55.0134 31.3913C55.175 31.1314 55.2944 30.7907 55.3717 30.3692C55.456 29.9407 55.4981 29.4173 55.4981 28.7992ZM71.5672 25.5643V28.3671C71.5672 29.47 71.4373 30.4289 71.1773 31.2438C70.9245 32.0586 70.5592 32.733 70.0815 33.2669C69.6108 33.8008 69.0488 34.1977 68.3955 34.4576C67.7422 34.7175 67.0222 34.8475 66.2354 34.8475C65.6032 34.8475 65.0131 34.7667 64.4652 34.6051C63.9173 34.4365 63.422 34.1836 62.9795 33.8464C62.5439 33.5022 62.1681 33.0737 61.852 32.5609C61.5359 32.0481 61.2935 31.444 61.1249 30.7485C60.9563 30.0461 60.872 29.2523 60.872 28.3671V25.5643C60.872 24.4544 60.9985 23.4955 61.2514 22.6876C61.5113 21.8728 61.8801 21.1984 62.3578 20.6645C62.8355 20.1306 63.401 19.7337 64.0543 19.4738C64.7076 19.2139 65.4276 19.0839 66.2144 19.0839C66.8466 19.0839 67.4332 19.1682 67.9741 19.3368C68.522 19.4984 69.0172 19.7513 69.4598 20.0955C69.9024 20.4327 70.2782 20.8577 70.5873 21.3705C70.9034 21.8833 71.1457 22.4909 71.3143 23.1934C71.4829 23.8889 71.5672 24.6792 71.5672 25.5643ZM68.0162 28.7992V25.1112C68.0162 24.6194 67.9881 24.1909 67.9319 23.8256C67.8827 23.4604 67.8055 23.1513 67.7001 22.8984C67.6018 22.6455 67.4788 22.4418 67.3313 22.2872C67.1838 22.1257 67.0152 22.0097 66.8255 21.9395C66.6429 21.8622 66.4392 21.8236 66.2144 21.8236C65.9334 21.8236 65.6805 21.8833 65.4557 22.0027C65.2379 22.1151 65.0518 22.2978 64.8972 22.5507C64.7427 22.8035 64.6233 23.1407 64.539 23.5622C64.4617 23.9837 64.4231 24.5 64.4231 25.1112V28.7992C64.4231 29.2979 64.4476 29.7335 64.4968 30.1058C64.553 30.471 64.6303 30.7836 64.7286 31.0436C64.834 31.2965 64.9604 31.5037 65.108 31.6653C65.2555 31.8198 65.4241 31.9322 65.6137 32.0024C65.8034 32.0727 66.0106 32.1078 66.2354 32.1078C66.5094 32.1078 66.7553 32.0516 66.973 31.9392C67.1908 31.8268 67.377 31.6442 67.5315 31.3913C67.6931 31.1314 67.8125 30.7907 67.8898 30.3692C67.9741 29.9407 68.0162 29.4173 68.0162 28.7992ZM73.4428 23.0564V22.2451C73.4428 21.662 73.5693 21.1317 73.8222 20.654C74.075 20.1763 74.4544 19.7934 74.9602 19.5054C75.4659 19.2174 76.0947 19.0734 76.8463 19.0734C77.619 19.0734 78.2583 19.2174 78.7641 19.5054C79.2698 19.7934 79.6457 20.1763 79.8915 20.654C80.1444 21.1317 80.2709 21.662 80.2709 22.2451V23.0564C80.2709 23.6254 80.1444 24.1488 79.8915 24.6265C79.6457 25.1041 79.2698 25.487 78.7641 25.775C78.2653 26.063 77.6331 26.207 76.8674 26.207C76.1087 26.207 75.4765 26.063 74.9707 25.775C74.4649 25.487 74.0821 25.1041 73.8222 24.6265C73.5693 24.1488 73.4428 23.6254 73.4428 23.0564ZM75.7188 22.2451V23.0564C75.7188 23.2672 75.761 23.4674 75.8453 23.6571C75.9296 23.8467 76.056 24.0013 76.2246 24.1207C76.4002 24.2331 76.6145 24.2893 76.8674 24.2893C77.1273 24.2893 77.338 24.2331 77.4996 24.1207C77.6612 24.0013 77.7806 23.8467 77.8579 23.6571C77.9422 23.4674 77.9843 23.2672 77.9843 23.0564V22.2451C77.9843 22.0203 77.9422 21.8131 77.8579 21.6234C77.7806 21.4337 77.6577 21.2827 77.4891 21.1703C77.3205 21.0509 77.1062 20.9912 76.8463 20.9912C76.6004 20.9912 76.3932 21.0509 76.2246 21.1703C76.056 21.2827 75.9296 21.4337 75.8453 21.6234C75.761 21.8131 75.7188 22.0203 75.7188 22.2451ZM80.724 31.6863V30.875C80.724 30.2989 80.8504 29.7721 81.1033 29.2944C81.3632 28.8167 81.7461 28.4339 82.2518 28.1459C82.7647 27.8578 83.3969 27.7138 84.1485 27.7138C84.9212 27.7138 85.557 27.8578 86.0557 28.1459C86.5615 28.4339 86.9373 28.8167 87.1832 29.2944C87.4361 29.7721 87.5625 30.2989 87.5625 30.875V31.6863C87.5625 32.2624 87.4361 32.7892 87.1832 33.2669C86.9373 33.7446 86.565 34.1274 86.0663 34.4154C85.5675 34.7035 84.9353 34.8475 84.1696 34.8475C83.4109 34.8475 82.7752 34.7035 82.2624 34.4154C81.7496 34.1274 81.3632 33.7446 81.1033 33.2669C80.8504 32.7892 80.724 32.2624 80.724 31.6863ZM83.0105 30.875V31.6863C83.0105 31.9041 83.0632 32.1078 83.1686 32.2975C83.2739 32.4871 83.4144 32.6417 83.5901 32.7611C83.7657 32.8735 83.9589 32.9297 84.1696 32.9297C84.4927 32.9297 84.7316 32.8735 84.8861 32.7611C85.0477 32.6417 85.1531 32.4871 85.2022 32.2975C85.2584 32.1078 85.2865 31.9041 85.2865 31.6863V30.875C85.2865 30.6572 85.2444 30.4535 85.1601 30.2638C85.0758 30.0742 84.9493 29.9231 84.7808 29.8107C84.6122 29.6913 84.4014 29.6316 84.1485 29.6316C83.8956 29.6316 83.6849 29.6913 83.5163 29.8107C83.3477 29.9231 83.2213 30.0742 83.137 30.2638C83.0527 30.4535 83.0105 30.6572 83.0105 30.875ZM85.0336 21.4969L77.5418 33.4882L75.8874 32.6557L83.3793 20.6645L85.0336 21.4969Z" fill="#07AEE2"/>
</svg>
