<svg width="50" height="28" viewBox="0 0 50 28" fill="none" xmlns="http://www.w3.org/2000/svg">
<path d="M49.827 0.0244141H0.53125V27.0244H49.827V0.0244141Z" fill="white"/>
<path d="M21.9697 13.5248C21.9697 10.8116 23.2231 8.38787 25.1804 6.80239C23.6924 5.59743 21.7958 4.875 19.7307 4.875C14.9491 4.875 11.0703 8.74632 11.0703 13.5248C11.0703 18.3033 14.9464 22.1746 19.7307 22.1746C21.7958 22.1746 23.6924 21.4522 25.1804 20.2472C23.2231 18.6618 21.9697 16.2408 21.9697 13.5248Z" fill="#EA001B"/>
<path d="M30.6294 4.875C28.5644 4.875 26.6677 5.59743 25.1797 6.80239C27.137 8.38787 28.3904 10.8088 28.3904 13.5248C28.3904 16.2408 27.1398 18.6618 25.1797 20.2472C26.6677 21.4522 28.5644 22.1746 30.6294 22.1746C35.4137 22.1746 39.2898 18.3033 39.2898 13.5248C39.2898 8.74632 35.4137 4.875 30.6294 4.875Z" fill="#F79F1A"/>
<path d="M28.3902 13.5252C28.3902 10.8119 27.1396 8.38821 25.1795 6.80273C23.2221 8.38821 21.9688 10.8092 21.9688 13.5252C21.9688 16.2412 23.2221 18.6621 25.1795 20.2476C27.1368 18.6621 28.3902 16.2412 28.3902 13.5252Z" fill="#FF5F01"/>
</svg>
