<svg width="93" height="93" viewBox="0 0 93 93" fill="none" xmlns="http://www.w3.org/2000/svg">
<path d="M16.5544 80.3206L42.116 54.7591C43.6505 53.2245 44.4178 52.4572 45.3026 52.1697C46.0808 51.9169 46.9192 51.9169 47.6974 52.1697C48.5822 52.4572 49.3495 53.2245 50.8841 54.7591L76.2752 80.1502M54.25 58.125L65.3659 47.0091C66.9005 45.4745 67.6678 44.7072 68.5526 44.4197C69.3308 44.1669 70.1692 44.1669 70.9474 44.4197C71.8322 44.7072 72.5995 45.4745 74.1341 47.0091L85.25 58.125M38.75 34.875C38.75 39.1552 35.2802 42.625 31 42.625C26.7198 42.625 23.25 39.1552 23.25 34.875C23.25 30.5948 26.7198 27.125 31 27.125C35.2802 27.125 38.75 30.5948 38.75 34.875ZM26.35 81.375H66.65C73.1606 81.375 76.4159 81.375 78.9026 80.108C81.09 78.9934 82.8684 77.215 83.983 75.0276C85.25 72.5409 85.25 69.2856 85.25 62.775V30.225C85.25 23.7144 85.25 20.4591 83.983 17.9724C82.8684 15.785 81.09 14.0066 78.9026 12.892C76.4159 11.625 73.1606 11.625 66.65 11.625H26.35C19.8394 11.625 16.5841 11.625 14.0974 12.892C11.91 14.0066 10.1316 15.785 9.01705 17.9724C7.75 20.4591 7.75 23.7144 7.75 30.225V62.775C7.75 69.2856 7.75 72.5409 9.01705 75.0276C10.1316 77.215 11.91 78.9934 14.0974 80.108C16.5841 81.375 19.8394 81.375 26.35 81.375Z" stroke="#D9D9D9" stroke-width="1.488" stroke-linecap="round" stroke-linejoin="round"/>
</svg>
