<svg width="151" height="114" viewBox="0 0 151 114" fill="none" xmlns="http://www.w3.org/2000/svg">
<g clip-path="url(#clip0_3383_76)">
<path d="M0.0625 59.8679L14.6531 42.3545V69.9234L0.0625 59.8679Z" fill="url(#paint0_linear_3383_76)"/>
<path d="M150.928 51.5907L136.328 69.0948V41.5352L150.928 51.5907Z" fill="url(#paint1_linear_3383_76)"/>
<path d="M139.846 74.4112V39.5799C139.846 29.2078 133.4 19.9251 123.67 16.2939L84.273 1.58304C78.6383 -0.521171 72.4345 -0.521171 66.7997 1.58304L27.4031 16.3032C17.6729 19.9437 11.2266 29.2171 11.2266 39.5892V74.4205C11.2266 84.7926 17.6729 94.0754 27.4031 97.7065L66.7904 112.427C72.4251 114.531 78.6289 114.531 84.2637 112.427L123.651 97.7065C133.381 94.0661 139.828 84.7926 139.828 74.4205L139.846 74.4112Z" fill="#00AFE3"/>
<path d="M75.5408 110.453C72.9754 110.453 70.4565 109.996 68.0496 109.103L28.9236 94.3824C20.6301 91.2819 15.3125 83.2561 15.3125 74.4202V39.589C15.3125 30.7438 20.6207 22.7273 28.9236 19.6269L68.1802 4.90669C70.5871 4.01286 73.0407 3.55664 75.6062 3.55664C78.1716 3.55664 80.6625 4.01286 83.0601 4.90669L122.083 19.6269C130.377 22.7273 135.592 30.7531 135.592 39.589V74.4202C135.592 83.2654 130.368 91.2819 122.074 94.3824L82.8548 109.103C80.4479 110.006 78.1063 110.453 75.5408 110.453Z" fill="#009DC1"/>
<path d="M75.5356 106.905C73.3992 106.905 71.2908 106.523 69.2944 105.778L30.2337 91.058C23.4888 88.5348 18.9922 81.8497 18.9922 74.4105V39.5792C18.9922 32.14 23.4888 25.4549 30.2244 22.9317L69.453 8.21155C71.4774 7.45739 73.4925 7.08496 75.6102 7.08496C77.7279 7.08496 79.8083 7.4667 81.814 8.21155L121.388 22.9317C128.263 25.5015 133.133 32.1959 133.133 39.5792V74.4105C133.133 81.7939 128.254 88.4789 121.369 91.058L81.8793 105.778C79.8736 106.523 77.6626 106.905 75.5356 106.905Z" fill="url(#paint2_linear_3383_76)"/>
<path d="M151 25.2969L0.0653033 59.8674L0 86.1608L150.944 51.5996L151 25.2969Z" fill="#009DC1"/>
<path d="M49.4825 42.8478L46.3106 43.453L46.5252 32.1405L43.3906 33.7605L43.4373 31.0698L49.4732 27.5969L49.7624 27.541L49.4732 42.8478H49.4825Z" fill="white"/>
<path d="M63.2071 33.9746C63.1698 36.0416 62.722 37.7175 61.8731 38.9931C61.0241 40.2687 59.8487 41.0601 58.3374 41.3487C56.8167 41.6373 55.6506 41.3021 54.839 40.3338C54.0273 39.3655 53.6449 37.8572 53.6822 35.7995L53.7381 33.0063C53.7755 30.9394 54.2233 29.2634 55.0722 27.9879C55.9211 26.703 57.1059 25.9209 58.6172 25.6323C60.1285 25.3436 61.2947 25.6788 62.1063 26.6471C62.9179 27.6154 63.3004 29.1331 63.2631 31.1907L63.2071 33.9746ZM60.1006 31.3397C60.1192 30.2411 60.0073 29.4403 59.7647 28.9469C59.5222 28.4534 59.1117 28.2579 58.5613 28.3696C58.0202 28.472 57.619 28.7979 57.3578 29.3565C57.0966 29.9059 56.9567 30.6973 56.9194 31.7215L56.8447 35.6319C56.8261 36.7772 56.938 37.5872 57.1806 38.062C57.4231 38.5462 57.8243 38.7324 58.384 38.6207C58.9251 38.5183 59.3262 38.1831 59.5875 37.6151C59.858 37.0472 59.9979 36.2185 60.0259 35.1199L60.1006 31.3397Z" fill="white"/>
<path d="M74.3243 31.8418C74.287 33.9088 73.8392 35.5847 72.9903 36.8603C72.1413 38.1452 70.9659 38.9273 69.4546 39.2159C67.9339 39.5045 66.7678 39.1693 65.9562 38.201C65.1445 37.2327 64.762 35.7244 64.7994 33.6667L64.8553 30.8735C64.8927 28.8065 65.3404 27.1306 66.1894 25.8551C67.0383 24.5702 68.2231 23.7881 69.7344 23.4995C71.2457 23.2108 72.4119 23.546 73.2235 24.5143C74.0351 25.4826 74.4176 27.0003 74.3803 29.0579L74.3243 31.8418ZM71.2271 29.1976C71.2457 28.0989 71.1338 27.2982 70.8912 26.8048C70.6487 26.3113 70.2475 26.1158 69.6878 26.2275C69.1467 26.3299 68.7456 26.6558 68.4843 27.2144C68.2231 27.7731 68.0832 28.5552 68.0459 29.5793L67.9712 33.4898C67.9526 34.635 68.0645 35.4451 68.3071 35.9199C68.5496 36.4041 68.9601 36.5903 69.5105 36.4786C70.0516 36.3761 70.4528 36.0409 70.714 35.473C70.9845 34.905 71.1245 34.0764 71.1524 32.9684L71.2271 29.1883V29.1976Z" fill="white"/>
<path d="M76.0962 25.4084C76.1149 24.4587 76.4041 23.6487 76.9638 22.9597C77.5235 22.2707 78.2699 21.8424 79.1934 21.6655C80.1264 21.4886 80.8633 21.6283 81.4044 22.1031C81.9362 22.578 82.1974 23.3042 82.1787 24.2912L82.1601 25.0453C82.1414 25.995 81.8522 26.805 81.3018 27.4847C80.7514 28.1644 80.0051 28.5927 79.0815 28.7696C78.1579 28.9465 77.4303 28.7975 76.8798 28.3413C76.3294 27.8758 76.0682 27.1495 76.0869 26.1533V25.4084H76.0962ZM79.5386 35.9295L78.0833 35.3802L84.9775 22.1311L86.4328 22.6804L79.5386 35.9295ZM78.1113 25.8274C78.1113 26.1905 78.1859 26.4699 78.3632 26.6561C78.5404 26.8516 78.7923 26.9168 79.1095 26.8516C79.7625 26.7212 80.1077 26.1905 80.117 25.2595V24.6356C80.1357 24.2725 80.0517 23.9932 79.8838 23.7977C79.7159 23.6022 79.464 23.5277 79.1468 23.5928C78.8389 23.6487 78.5964 23.807 78.4098 24.0677C78.2232 24.3284 78.1299 24.6543 78.1206 25.0453L78.1019 25.8274H78.1113ZM82.4213 32.7732C82.44 31.8235 82.7292 31.0042 83.2982 30.3245C83.8673 29.6448 84.6043 29.2165 85.5279 29.0396C86.4608 28.8627 87.1978 29.0024 87.7389 29.4679C88.2799 29.9241 88.5412 30.669 88.5225 31.6838V32.4194C88.4945 33.3691 88.2053 34.1884 87.6456 34.8681C87.0858 35.5478 86.3488 35.9761 85.4159 36.153C84.4923 36.3299 83.7647 36.1902 83.2143 35.7247C82.6638 35.2591 82.4026 34.5329 82.4213 33.5367V32.7825V32.7732ZM84.4364 33.1922C84.4364 33.518 84.5203 33.788 84.7162 33.9929C84.9122 34.1977 85.1547 34.2815 85.4439 34.2256C86.0503 34.1139 86.3861 33.7229 86.4514 33.0711L86.4794 31.9911C86.4794 31.6187 86.4048 31.3393 86.2275 31.1531C86.0503 30.9576 85.8077 30.8924 85.4906 30.9576C85.192 31.0135 84.9495 31.1717 84.7629 31.4138C84.5763 31.6652 84.4737 31.9632 84.455 32.3356L84.4364 33.1922Z" fill="white"/>
<path d="M18.0816 77.3818L14.7231 78.1546L9.58281 69.4584L9.76007 79.2998L6.38295 80.0819L6.09375 64.2724L9.47087 63.4903L14.6018 72.1864L14.4246 62.3451L17.7924 61.5723L18.0816 77.3818Z" fill="white"/>
<path d="M28.7736 68.1735L23.4654 69.4025L23.5307 73.1827L29.7998 71.7395L29.8558 74.6724L20.2189 76.8976L19.9297 61.0881L29.5946 58.8535L29.6506 61.7957L23.3628 63.2482L23.4281 66.5814L28.7363 65.3524L28.783 68.1735H28.7736Z" fill="white"/>
<path d="M41.9603 65.9483L43.3876 55.6693L46.7368 54.8965L44.05 71.3857L40.5516 72.1957L38.5179 63.6206L36.848 73.0523L33.3589 73.8623L30.0938 58.7418L33.4522 57.969L35.2341 67.5125L36.9786 57.159L39.8426 56.4979L41.979 65.9576L41.9603 65.9483Z" fill="white"/>
<path d="M53.2423 69.2624L52.9531 53.4528L57.9815 52.289C59.782 51.87 61.1627 51.9259 62.1143 52.4566C63.0658 52.9873 63.5509 53.9556 63.5789 55.3801C63.5976 56.1995 63.439 56.935 63.1125 57.5868C62.7859 58.2478 62.3102 58.7878 61.6665 59.2068C62.4035 59.2534 62.9725 59.5327 63.3737 60.0355C63.7748 60.5383 63.9801 61.2179 63.9987 62.0745C64.0267 63.6201 63.6162 64.8863 62.758 65.864C61.8997 66.8416 60.6216 67.5399 58.9237 67.9402L53.2423 69.253V69.2624ZM56.4515 59.2627L58.2147 58.853C58.9517 58.6761 59.4741 58.3968 59.782 58.0337C60.0899 57.6613 60.2391 57.1864 60.2298 56.6091C60.2205 55.9388 60.0432 55.5012 59.698 55.287C59.3529 55.0729 58.8024 55.0543 58.0468 55.2219L56.3955 55.6036L56.4608 59.2627H56.4515ZM56.4982 61.7673L56.5635 65.5567L58.7745 65.0446C59.3808 64.905 59.8473 64.635 60.1738 64.2439C60.491 63.8529 60.6496 63.3687 60.6403 62.8007C60.6123 61.4786 60.0245 60.9572 58.8677 61.2179L56.5075 61.7673H56.4982Z" fill="white"/>
<path d="M76.6285 47.9873L76.8151 58.3315C76.8337 59.5046 76.6378 60.566 76.2087 61.525C75.7796 62.484 75.1638 63.2848 74.3429 63.9272C73.5219 64.5696 72.5517 65.0165 71.4229 65.2772C69.7157 65.6683 68.363 65.4821 67.3648 64.7093C66.3665 63.9365 65.8441 62.6796 65.7881 60.9478L65.6016 50.5291L68.9973 49.747L69.1932 60.2495C69.2585 61.9719 69.9862 62.6703 71.3762 62.3537C72.0759 62.1954 72.5983 61.8509 72.9529 61.3388C73.3074 60.8174 73.466 60.0726 73.4566 59.0949L73.27 48.7694L76.6472 47.9873H76.6285Z" fill="white"/>
<path d="M86.1637 57.4382C86.1544 56.8795 85.9678 56.4885 85.6133 56.2557C85.2588 56.0229 84.6431 55.846 83.7568 55.7157C82.8705 55.5853 82.1522 55.4271 81.5831 55.2501C79.7546 54.6636 78.8217 53.4904 78.7844 51.7307C78.7658 50.8555 78.9803 50.0269 79.4188 49.2541C79.8573 48.4813 80.4916 47.8109 81.3126 47.243C82.1336 46.675 83.0571 46.2747 84.0926 46.0419C85.1002 45.8091 86.0051 45.7998 86.8074 46.0233C87.6097 46.2467 88.2441 46.675 88.7012 47.3268C89.1583 47.9785 89.3915 48.7792 89.4102 49.7382L86.0424 50.511C86.0331 49.8686 85.8465 49.403 85.492 49.133C85.1375 48.863 84.6617 48.7885 84.0647 48.9282C83.4583 49.0679 82.9918 49.3286 82.6466 49.7103C82.3015 50.092 82.1336 50.511 82.1429 50.9765C82.1429 51.3862 82.3481 51.7028 82.7399 51.9449C83.1318 52.1869 83.8128 52.3731 84.783 52.4942C85.7532 52.6152 86.5555 52.8201 87.1899 53.0808C88.7199 53.7139 89.5035 54.8963 89.5315 56.6281C89.5595 58.0154 89.1117 59.2072 88.2068 60.2034C87.3018 61.209 86.0424 61.8887 84.4285 62.2611C83.2903 62.5218 82.2642 62.5311 81.3312 62.2797C80.3983 62.0376 79.6987 61.5628 79.2229 60.8738C78.7471 60.1848 78.4952 59.3189 78.4766 58.2761L81.863 57.494C81.8817 58.3413 82.0869 58.9186 82.4787 59.2351C82.8705 59.5424 83.5049 59.6075 84.3818 59.4027C84.9416 59.2724 85.3801 59.0396 85.6972 58.6951C86.0144 58.3506 86.173 57.9316 86.1637 57.4382Z" fill="white"/>
<path d="M94.946 59.6357L91.5783 60.4085L91.2891 44.599L94.6568 43.8262L94.946 59.6357Z" fill="white"/>
<path d="M108.972 56.395L105.614 57.1677L100.473 48.4716L100.651 58.313L97.2736 59.0951L96.9844 43.2855L100.361 42.5034L105.492 51.1996L105.315 41.3675L108.683 40.5947L108.972 56.4043V56.395Z" fill="white"/>
<path d="M119.672 47.1867L114.364 48.4157L114.429 52.1958L120.698 50.7526L120.754 53.6855L111.117 55.9108L110.828 40.1012L120.493 37.876L120.549 40.8182L114.261 42.2706L114.327 45.6038L119.635 44.3748L119.681 47.196L119.672 47.1867Z" fill="white"/>
<path d="M129.273 47.4938C129.264 46.9352 129.077 46.5441 128.723 46.3114C128.368 46.0786 127.752 45.9017 126.866 45.7713C125.98 45.641 125.262 45.4827 124.693 45.3058C122.864 44.7192 121.931 43.5461 121.894 41.7864C121.875 40.9112 122.09 40.0825 122.528 39.3097C122.967 38.5369 123.601 37.8666 124.422 37.2986C125.243 36.7307 126.167 36.3303 127.202 36.0975C128.21 35.8648 129.114 35.8555 129.917 36.0789C130.719 36.3024 131.353 36.7307 131.811 37.3824C132.268 38.0342 132.501 38.8349 132.52 39.7939L129.152 40.5667C129.142 39.9242 128.956 39.4587 128.601 39.1887C128.247 38.9187 127.771 38.8442 127.174 38.9839C126.568 39.1235 126.101 39.3842 125.756 39.766C125.411 40.1477 125.243 40.5667 125.252 41.0322C125.252 41.4419 125.457 41.7584 125.849 42.0005C126.241 42.2426 126.922 42.4288 127.892 42.5499C128.863 42.6802 129.665 42.8757 130.299 43.1364C131.829 43.7696 132.613 44.952 132.641 46.6838C132.669 48.0711 132.221 49.2629 131.316 50.2591C130.411 51.2646 129.152 51.9443 127.538 52.3168C126.4 52.5775 125.374 52.5868 124.441 52.3354C123.508 52.0933 122.808 51.6185 122.332 50.9295C121.856 50.2405 121.605 49.3746 121.586 48.3318L124.972 47.5497C124.991 48.397 125.196 48.9742 125.588 49.2908C125.98 49.598 126.614 49.6632 127.491 49.4584C128.051 49.328 128.489 49.0953 128.807 48.7508C129.124 48.4063 129.282 47.9873 129.273 47.4938Z" fill="white"/>
<path d="M141.601 44.6452C141.592 44.0865 141.405 43.6955 141.051 43.4627C140.696 43.23 140.081 43.0531 139.194 42.9227C138.308 42.7924 137.59 42.6341 137.021 42.4572C135.192 41.8706 134.259 40.6975 134.222 38.9377C134.203 38.0625 134.418 37.2339 134.856 36.4611C135.295 35.6883 135.929 35.0179 136.75 34.45C137.571 33.8914 138.495 33.491 139.53 33.2489C140.538 33.0161 141.443 33.0068 142.245 33.2303C143.047 33.4537 143.682 33.882 144.139 34.5338C144.596 35.1855 144.829 35.9863 144.848 36.9453L141.48 37.718C141.471 37.0756 141.284 36.6101 140.93 36.3401C140.575 36.0701 140.099 35.9956 139.502 36.1352C138.896 36.2749 138.429 36.5356 138.084 36.9173C137.739 37.2991 137.571 37.718 137.58 38.1836C137.58 38.5932 137.786 38.9098 138.177 39.1519C138.569 39.394 139.25 39.5802 140.221 39.7012C141.191 39.8316 141.993 40.0271 142.627 40.2878C144.157 40.9209 144.941 42.1034 144.969 43.8352C144.997 45.2225 144.549 46.4142 143.644 47.4105C142.739 48.416 141.48 49.0957 139.866 49.4681C138.728 49.7288 137.702 49.7381 136.769 49.4867C135.836 49.2354 135.136 48.7698 134.66 48.0808C134.185 47.3918 133.933 46.5259 133.914 45.4832L137.301 44.7011C137.319 45.5483 137.524 46.1256 137.916 46.4422C138.308 46.7587 138.942 46.8146 139.819 46.6097C140.379 46.4794 140.818 46.2466 141.135 45.9021C141.452 45.5576 141.611 45.1387 141.601 44.6452Z" fill="white"/>
<path d="M57.6947 86.0866L57.76 89.6433L55.5303 90.1554L55.3438 79.6715L59.0287 78.8243C59.7377 78.6567 60.3628 78.666 60.9132 78.8336C61.4636 79.0012 61.8927 79.327 62.2006 79.8019C62.5085 80.2767 62.6671 80.8633 62.6857 81.5523C62.7044 82.5765 62.3965 83.461 61.7621 84.2245C61.1278 84.9879 60.2508 85.5 59.122 85.7607L57.704 86.0866H57.6947ZM57.6574 84.1407L59.1127 83.8055C59.5418 83.7031 59.8683 83.5075 60.0922 83.2096C60.3161 82.9117 60.4188 82.5392 60.4094 82.0923C60.4094 81.5988 60.2788 81.2357 60.0363 81.003C59.7937 80.7702 59.4765 80.6864 59.0754 80.7795L57.5921 81.124L57.648 84.15L57.6574 84.1407Z" fill="white"/>
<path d="M67.3591 83.703L66.1556 83.9824L66.2209 87.688L63.9913 88.2001L63.8047 77.7163L67.443 76.8783C68.5345 76.6269 69.4021 76.7014 70.0272 77.1111C70.6522 77.5208 70.9787 78.2284 70.9974 79.2339C71.0067 79.9601 70.8948 80.5933 70.6429 81.1333C70.391 81.6733 69.9898 82.1575 69.4394 82.5765L71.4452 86.3659V86.4776L69.0569 87.027L67.3591 83.6937V83.703ZM66.1183 82.0457L67.527 81.7199C67.9468 81.6268 68.264 81.4219 68.4785 81.124C68.6838 80.826 68.7864 80.4443 68.7771 79.9974C68.7677 79.5505 68.6558 79.2153 68.4319 79.0105C68.208 78.8056 67.8908 78.7498 67.471 78.8429L66.0623 79.1687L66.1183 82.0551V82.0457Z" fill="white"/>
<path d="M80.2073 79.4205C80.2259 80.4447 80.0767 81.385 79.7502 82.2509C79.433 83.1168 78.9665 83.8337 78.3601 84.4017C77.7537 84.9697 77.0541 85.3421 76.2704 85.519C75.4868 85.7052 74.7778 85.6586 74.1621 85.3886C73.5463 85.1186 73.0612 84.6438 72.7067 83.9548C72.3522 83.2658 72.1563 82.4371 72.1283 81.4502V80.8636C72.1003 79.8395 72.2496 78.8898 72.5668 78.0332C72.884 77.1766 73.3504 76.4597 73.9661 75.8824C74.5819 75.3145 75.2815 74.9327 76.0745 74.7558C76.8582 74.5789 77.5578 74.6255 78.1829 74.9048C78.8079 75.1841 79.293 75.6776 79.6475 76.3759C80.002 77.0742 80.1886 77.9308 80.2166 78.9363V79.4205H80.2073ZM77.931 79.5043C77.9123 78.4615 77.7444 77.7073 77.4272 77.2418C77.11 76.7763 76.6622 76.6087 76.0932 76.739C74.9737 76.9997 74.4046 78.0797 74.3766 79.9977V80.7705C74.4046 81.7947 74.5725 82.5489 74.8804 83.033C75.1883 83.5172 75.6454 83.6941 76.2331 83.5544C76.7928 83.4241 77.222 83.0517 77.5205 82.4371C77.819 81.8226 77.959 81.0126 77.9403 79.9884V79.5043H77.931Z" fill="white"/>
<path d="M84.1808 73.0239L86.3732 79.8393L88.2949 72.0742L91.2243 71.3945L91.4109 81.8784L89.1812 82.3904L89.1346 79.9417L89.2558 74.886L87.1568 82.856L85.6828 83.2005L83.3039 76.2547L83.6118 81.2173L83.6584 83.666L81.4288 84.1781L81.2422 73.6943L84.1715 73.0146L84.1808 73.0239Z" fill="white"/>
<path d="M95.2038 81.0034L92.9835 81.5155L92.7969 71.0316L95.0172 70.5195L95.2038 81.0034Z" fill="white"/>
<path d="M101.466 76.7571C101.466 76.3847 101.335 76.124 101.102 75.975C100.869 75.8167 100.458 75.705 99.8704 75.6119C99.292 75.5281 98.8069 75.4164 98.4337 75.2953C97.2209 74.9043 96.6052 74.1315 96.5865 72.9584C96.5772 72.3811 96.7171 71.8318 97.0063 71.3197C97.2955 70.8076 97.7154 70.3607 98.2564 69.9882C98.7975 69.6158 99.4132 69.3458 100.094 69.1968C100.757 69.0386 101.354 69.0386 101.885 69.1968C102.417 69.3551 102.837 69.6344 103.136 70.0627C103.434 70.491 103.593 71.0217 103.602 71.6642L101.382 72.1763C101.382 71.748 101.251 71.4407 101.018 71.2638C100.785 71.0776 100.467 71.0404 100.076 71.1241C99.6744 71.2173 99.3666 71.3848 99.1427 71.6362C98.9188 71.8876 98.8069 72.1669 98.8069 72.4742C98.8069 72.7442 98.9468 72.9584 99.1987 73.1166C99.4599 73.2749 99.9077 73.396 100.551 73.4797C101.195 73.5635 101.727 73.6939 102.137 73.8708C103.145 74.2898 103.667 75.0812 103.686 76.2264C103.705 77.1389 103.415 77.9303 102.809 78.6006C102.212 79.2617 101.382 79.7179 100.318 79.96C99.5718 80.1369 98.8908 80.1369 98.2751 79.9693C97.6594 79.8017 97.1929 79.4945 96.8851 79.0382C96.5679 78.582 96.4 78.0047 96.3906 77.3158L98.6203 76.8037C98.6296 77.3623 98.7695 77.7534 99.0307 77.9582C99.292 78.163 99.7118 78.2003 100.281 78.0699C100.645 77.9861 100.943 77.8278 101.148 77.5951C101.363 77.3623 101.456 77.0923 101.456 76.7571H101.466Z" fill="white"/>
<path d="M110.534 72.9958L107.035 73.8058L107.082 76.3104L111.215 75.3514L111.252 77.2973L104.89 78.7684L104.703 68.2846L111.084 66.8135L111.122 68.7594L106.97 69.7184L107.007 71.925L110.506 71.115L110.543 72.9865L110.534 72.9958Z" fill="white"/>
<path d="M46.4393 80.9004L47.7921 83.6377L50.824 84.0753L48.6317 86.2168L49.1541 89.2241L46.4393 87.7996L43.7246 89.2241L44.247 86.2168L42.0547 84.0753L45.0866 83.6377L46.4393 80.9004Z" fill="white"/>
<path d="M118.533 65.7051L119.886 68.4424L122.918 68.88L120.725 71.0215L121.248 74.0288L118.533 72.6043L115.818 74.0288L116.341 71.0215L114.148 68.88L117.18 68.4424L118.533 65.7051Z" fill="white"/>
<path d="M91.8359 26.0326L105.811 24.8408L92.3397 28.7234L91.8359 26.0326Z" fill="white"/>
<path d="M40.4285 36.4795L27.1719 41.0417L41.0628 39.1517L40.4285 36.4795Z" fill="white"/>
</g>
<defs>
<linearGradient id="paint0_linear_3383_76" x1="0.0625" y1="56.1343" x2="45.7748" y2="56.1343" gradientUnits="userSpaceOnUse">
<stop stop-color="#58595B"/>
<stop offset="1" stop-color="#231F20"/>
</linearGradient>
<linearGradient id="paint1_linear_3383_76" x1="136.328" y1="55.315" x2="211.921" y2="55.315" gradientUnits="userSpaceOnUse">
<stop stop-color="#58595B"/>
<stop offset="1" stop-color="#231F20"/>
</linearGradient>
<linearGradient id="paint2_linear_3383_76" x1="18.9829" y1="56.9995" x2="133.133" y2="56.9995" gradientUnits="userSpaceOnUse">
<stop stop-color="#58595B"/>
<stop offset="1" stop-color="#231F20"/>
</linearGradient>
<clipPath id="clip0_3383_76">
<rect width="151" height="114" fill="white"/>
</clipPath>
</defs>
</svg>
