<svg width="21" height="22" viewBox="0 0 21 22" fill="none" xmlns="http://www.w3.org/2000/svg">
<path d="M8.27884 19.9957C8.45438 20.2997 8.70685 20.5522 9.01087 20.7277C9.31489 20.9032 9.65976 20.9956 10.0108 20.9956C10.3619 20.9956 10.7067 20.9032 11.0107 20.7277C11.3148 20.5522 11.5672 20.2997 11.7428 19.9957M1.27298 14.3218C1.14235 14.465 1.05614 14.6431 1.02484 14.8343C0.993545 15.0256 1.01851 15.2219 1.09669 15.3992C1.17488 15.5766 1.30292 15.7274 1.46523 15.8333C1.62755 15.9392 1.81715 15.9957 2.01097 15.9958H18.0106C18.2044 15.9959 18.3941 15.9396 18.5565 15.8339C18.7189 15.7282 18.8471 15.5776 18.9255 15.4003C19.0039 15.2231 19.0291 15.0269 18.9981 14.8356C18.967 14.6443 18.8811 14.4662 18.7506 14.3228C17.4207 12.9519 16.0107 11.4949 16.0107 6.99597C16.0107 5.40471 15.3786 3.87861 14.2534 2.75342C13.1282 1.62822 11.6021 0.996094 10.0108 0.996094C8.41954 0.996094 6.89345 1.62822 5.76825 2.75342C4.64306 3.87861 4.01093 5.40471 4.01093 6.99597C4.01093 11.4949 2.59996 12.9519 1.27298 14.3218Z" stroke="black" stroke-width="2" stroke-linecap="round" stroke-linejoin="round"/>
</svg>
