<svg width="25" height="24" viewBox="0 0 25 24" fill="none" xmlns="http://www.w3.org/2000/svg">
<path fill-rule="evenodd" clip-rule="evenodd" d="M8.01172 7.00977C8.01172 5.9489 8.43315 4.93148 9.18329 4.18134C9.93344 3.43119 10.9509 3.00977 12.0117 3.00977C13.0726 3.00977 14.09 3.43119 14.8401 4.18134C15.5903 4.93148 16.0117 5.9489 16.0117 7.00977C16.0117 8.07063 15.5903 9.08805 14.8401 9.83819C14.09 10.5883 13.0726 11.0098 12.0117 11.0098C10.9509 11.0098 9.93344 10.5883 9.18329 9.83819C8.43315 9.08805 8.01172 8.07063 8.01172 7.00977ZM8.01172 13.0098C6.68564 13.0098 5.41387 13.5365 4.47618 14.4742C3.5385 15.4119 3.01172 16.6837 3.01172 18.0098C3.01172 18.8054 3.32779 19.5685 3.8904 20.1311C4.45301 20.6937 5.21607 21.0098 6.01172 21.0098H18.0117C18.8074 21.0098 19.5704 20.6937 20.133 20.1311C20.6956 19.5685 21.0117 18.8054 21.0117 18.0098C21.0117 16.6837 20.4849 15.4119 19.5473 14.4742C18.6096 13.5365 17.3378 13.0098 16.0117 13.0098H8.01172Z" fill="black"/>
</svg>
