<svg width="18" height="18" viewBox="0 0 18 18" fill="none" xmlns="http://www.w3.org/2000/svg">
<circle cx="9" cy="9" r="9" fill="#00AFE3"/>
<path d="M3.75 9C3.75 9.68944 3.8858 10.3721 4.14963 11.0091C4.41347 11.646 4.80018 12.2248 5.28769 12.7123C5.7752 13.1998 6.35395 13.5865 6.99091 13.8504C7.62787 14.1142 8.31056 14.25 9 14.25C9.68944 14.25 10.3721 14.1142 11.0091 13.8504C11.646 13.5865 12.2248 13.1998 12.7123 12.7123C13.1998 12.2248 13.5865 11.646 13.8504 11.0091C14.1142 10.3721 14.25 9.68944 14.25 9C14.25 7.60761 13.6969 6.27226 12.7123 5.28769C11.7277 4.30312 10.3924 3.75 9 3.75C7.60761 3.75 6.27226 4.30312 5.28769 5.28769C4.30312 6.27226 3.75 7.60761 3.75 9Z" stroke="white" stroke-width="1.16667" stroke-linecap="round" stroke-linejoin="round"/>
<path d="M9 6.08398V9.00065L10.75 10.7507" stroke="white" stroke-width="1.16667" stroke-linecap="round" stroke-linejoin="round"/>
</svg>
