<svg width="28" height="29" viewBox="0 0 28 29" fill="none" xmlns="http://www.w3.org/2000/svg">
<path d="M14.0066 7.79202C12.7679 7.79202 11.5569 8.15935 10.527 8.84756C9.497 9.53576 8.69423 10.5139 8.22019 11.6584C7.74614 12.8028 7.62211 14.0621 7.86378 15.2771C8.10544 16.492 8.70195 17.608 9.57787 18.4839C10.4538 19.3598 11.5698 19.9563 12.7847 20.198C13.9997 20.4397 15.259 20.3156 16.4034 19.8416C17.5479 19.3676 18.526 18.5648 19.2142 17.5348C19.9024 16.5048 20.2698 15.2939 20.2698 14.0552C20.2676 12.3948 19.607 10.803 18.4329 9.62885C17.2588 8.45475 15.667 7.79418 14.0066 7.79202ZM14.0066 18.6845C13.091 18.6845 12.196 18.413 11.4347 17.9043C10.6734 17.3956 10.0801 16.6726 9.72969 15.8267C9.37931 14.9809 9.28763 14.0501 9.46625 13.1521C9.64488 12.2541 10.0858 11.4292 10.7332 10.7818C11.3806 10.1344 12.2055 9.69346 13.1035 9.51484C14.0015 9.33622 14.9323 9.4279 15.7782 9.77828C16.6241 10.1287 17.3471 10.722 17.8557 11.4833C18.3644 12.2446 18.6359 13.1396 18.6359 14.0552C18.6359 15.283 18.1482 16.4604 17.28 17.3286C16.4118 18.1968 15.2344 18.6845 14.0066 18.6845ZM25.716 14.4419C25.7242 14.1845 25.7242 13.9258 25.716 13.6685L27.8033 11.0598C27.8831 10.9599 27.9383 10.8427 27.9645 10.7176C27.9908 10.5925 27.9873 10.463 27.9544 10.3395C27.6279 9.10873 27.1389 7.92694 26.5003 6.82531C26.4368 6.71351 26.3479 6.61824 26.2408 6.54726C26.1336 6.47629 26.0112 6.43161 25.8835 6.41685L22.5545 6.04786C22.3793 5.85997 22.1977 5.67843 22.0098 5.50324L21.6395 2.17287C21.6247 2.04517 21.5801 1.92276 21.5091 1.81559C21.4381 1.70842 21.3428 1.61951 21.231 1.55608C20.1307 0.919432 18.9508 0.431378 17.7223 0.104661C17.5985 0.0723072 17.4688 0.0694973 17.3437 0.0964583C17.2186 0.123419 17.1015 0.179397 17.002 0.259879L14.3878 2.35259C14.1301 2.34446 13.8722 2.34446 13.6145 2.35259L11.0112 0.258517C10.9113 0.178735 10.7941 0.123499 10.669 0.0972499C10.5439 0.0710011 10.4144 0.0744723 10.2909 0.107384C9.06014 0.433894 7.87835 0.922911 6.77673 1.56153C6.66492 1.62495 6.56965 1.71386 6.49868 1.82104C6.4277 1.92821 6.38302 2.05062 6.36826 2.17831L6.00472 5.50733C5.81683 5.68342 5.63529 5.86496 5.4601 6.05195L2.12836 6.43046C2.00067 6.44522 1.87826 6.4899 1.77109 6.56088C1.66391 6.63186 1.575 6.72712 1.51158 6.83893C0.874928 7.93927 0.386874 9.11912 0.0601574 10.3477C0.0285844 10.47 0.0258003 10.5979 0.0520237 10.7215C0.0782471 10.845 0.132764 10.9608 0.21129 11.0598L2.30401 13.674C2.29587 13.9317 2.29587 14.1896 2.30401 14.4473L0.209929 17.0574C0.130147 17.1573 0.0749102 17.2745 0.0486614 17.3996C0.0224126 17.5247 0.0258838 17.6542 0.0587958 17.7777C0.385875 19.0061 0.874877 20.1856 1.51294 21.2851C1.57636 21.3969 1.66527 21.4921 1.77245 21.5631C1.87962 21.6341 2.00203 21.6788 2.12973 21.6935L5.45874 22.0625C5.63483 22.2504 5.81637 22.432 6.00336 22.6071L6.38187 25.9334C6.39663 26.0611 6.44132 26.1835 6.51229 26.2907C6.58327 26.3979 6.67853 26.4868 6.79034 26.5502C7.89068 27.1869 9.07053 27.6749 10.2991 28.0016C10.4226 28.0345 10.5521 28.038 10.6772 28.0118C10.8023 27.9855 10.9195 27.9303 11.0193 27.8505L13.6199 25.7646C13.8773 25.7728 14.1359 25.7728 14.3933 25.7646L17.0088 27.8587C17.1538 27.9744 17.3339 28.0373 17.5194 28.037C17.5902 28.0368 17.6606 28.0276 17.7291 28.0098C18.9575 27.6827 20.137 27.1937 21.2365 26.5557C21.3483 26.4922 21.4436 26.4033 21.5145 26.2962C21.5855 26.189 21.6302 26.0666 21.6449 25.9389L22.0139 22.6099C22.2018 22.4347 22.3834 22.2531 22.5586 22.0652L25.8889 21.6949C26.0166 21.6801 26.139 21.6355 26.2462 21.5645C26.3534 21.4935 26.4423 21.3982 26.5057 21.2864C27.1427 20.1862 27.6307 19.0063 27.9571 17.7777C27.99 17.6542 27.9935 17.5247 27.9673 17.3996C27.941 17.2745 27.8858 17.1573 27.806 17.0574L25.716 14.4419ZM25.2939 20.11L22.0752 20.4681C21.8741 20.4913 21.6887 20.5884 21.5551 20.7404C21.286 21.0436 20.9991 21.3305 20.6959 21.5996C20.5439 21.7332 20.4468 21.9186 20.4236 22.1197L20.0655 25.3371C19.3119 25.7389 18.5201 26.0646 17.7019 26.3092L15.1735 24.2859C15.0285 24.1702 14.8484 24.1073 14.6629 24.1076H14.6139C14.2094 24.1307 13.8039 24.1307 13.3993 24.1076C13.1973 24.0952 12.9979 24.1583 12.8397 24.2846L10.3127 26.3092C9.49512 26.0634 8.7042 25.7363 7.95175 25.333L7.59366 22.117C7.57048 21.9159 7.47343 21.7305 7.32135 21.5969C7.01817 21.3278 6.73128 21.0409 6.46221 20.7377C6.32857 20.5856 6.14322 20.4886 5.94209 20.4654L2.72473 20.1073C2.32329 19.3559 1.99763 18.5664 1.75257 17.7505L3.77585 15.222C3.90214 15.0639 3.96521 14.8645 3.95285 14.6624C3.92969 14.2579 3.92969 13.8524 3.95285 13.4479C3.96521 13.2459 3.90214 13.0465 3.77585 12.8883L1.75257 10.3613C1.99843 9.54371 2.32547 8.75279 2.72881 8.00034L5.94481 7.64225C6.14594 7.61906 6.33129 7.52202 6.46493 7.36994C6.734 7.06676 7.02089 6.77987 7.32407 6.51079C7.47616 6.37715 7.5732 6.1918 7.59638 5.99068L7.95447 2.77332C8.7059 2.37188 9.49541 2.04622 10.3113 1.80116L12.8397 3.82444C12.9979 3.95072 13.1973 4.0138 13.3993 4.00144C13.8039 3.97827 14.2094 3.97827 14.6139 4.00144C14.8159 4.0138 15.0153 3.95072 15.1735 3.82444L17.7005 1.80116C18.5181 2.04702 19.309 2.37406 20.0615 2.7774L20.4195 5.99612C20.4427 6.19725 20.5398 6.3826 20.6919 6.51624C20.995 6.78532 21.2819 7.0722 21.551 7.37538C21.6846 7.52747 21.87 7.62451 22.0711 7.6477L25.2885 8.00579C25.6898 8.75634 26.0154 9.54493 26.2606 10.3599L24.2374 12.8883C24.1111 13.0465 24.048 13.2459 24.0604 13.4479C24.0835 13.8524 24.0835 14.2579 24.0604 14.6624C24.048 14.8645 24.1111 15.0639 24.2374 15.222L26.2606 17.7491C26.0156 18.5666 25.6895 19.3575 25.2871 20.11H25.2939Z" fill="black"/>
</svg>
