<svg width="18" height="18" viewBox="0 0 18 18" fill="none" xmlns="http://www.w3.org/2000/svg">
<circle cx="9" cy="9" r="9" fill="#00AFE3"/>
<g clip-path="url(#clip0_2944_87)">
<path d="M13.5846 13.125V12.2083C13.5846 11.3541 13.0004 10.6363 12.2096 10.4328M10.6055 5.00826C11.2773 5.28023 11.7513 5.93893 11.7513 6.70833C11.7513 7.47773 11.2773 8.13643 10.6055 8.4084M11.293 13.125C11.293 12.2708 11.293 11.8437 11.1534 11.5067C10.9673 11.0575 10.6104 10.7006 10.1612 10.5146C9.82431 10.375 9.3972 10.375 8.54297 10.375H7.16797C6.31374 10.375 5.88663 10.375 5.54972 10.5146C5.1005 10.7006 4.7436 11.0575 4.55752 11.5067C4.41797 11.8437 4.41797 12.2708 4.41797 13.125M9.6888 6.70833C9.6888 7.72086 8.86799 8.54167 7.85547 8.54167C6.84295 8.54167 6.02214 7.72086 6.02214 6.70833C6.02214 5.69581 6.84295 4.875 7.85547 4.875C8.86799 4.875 9.6888 5.69581 9.6888 6.70833Z" stroke="white" stroke-width="0.916667" stroke-linecap="round" stroke-linejoin="round"/>
</g>
<defs>
<clipPath id="clip0_2944_87">
<rect width="11" height="11" fill="white" transform="translate(3.5 3.5)"/>
</clipPath>
</defs>
</svg>
