<svg width="80" height="26" viewBox="0 0 80 26" fill="none" xmlns="http://www.w3.org/2000/svg">
<path fill-rule="evenodd" clip-rule="evenodd" d="M20.3264 25.793H13.5215L8.42044 6.35632C8.17928 5.46093 7.66551 4.67027 6.90533 4.2985C5.01799 3.36123 2.93668 2.61769 0.671875 2.24069V1.49191H11.6289C13.144 1.49191 14.2764 2.61769 14.4652 3.9215L17.1127 17.944L23.9123 1.49191H30.5285L20.3264 25.793ZM34.3084 25.793H27.881L33.1708 1.49191H39.5982L34.3084 25.793ZM47.913 8.22564C48.1017 6.91659 49.2341 6.16782 50.5605 6.16782C52.6418 5.97932 54.9066 6.35632 56.7939 7.28836L57.9263 2.05742C56.0338 1.30865 53.9577 0.931641 52.0704 0.931641C45.8369 0.931641 41.2968 4.2985 41.2968 8.96918C41.2968 12.5245 44.5105 14.3886 46.7806 15.5144C49.2341 16.6349 50.183 17.3837 49.989 18.5043C49.989 20.1851 48.0965 20.9338 46.2091 20.9338C43.9391 20.9338 41.669 20.3736 39.593 19.4363L38.4606 24.6725C40.7306 25.6045 43.1842 25.9815 45.4542 25.9815C52.4478 26.1648 56.7939 22.8032 56.7939 17.7555C56.7939 11.3988 47.913 11.027 47.913 8.22564ZM79.2795 25.793L74.1784 1.49191H68.6999C67.5675 1.49191 66.4299 2.24068 66.0524 3.36123L56.6052 25.793H63.2214L64.5425 22.2429H72.6685L73.4235 25.793H79.2795ZM69.6436 8.03713L71.5309 17.1952H66.2411L69.6436 8.03713Z" fill="#172B85"/>
</svg>
