<svg width="42" height="15" viewBox="0 0 42 15" fill="none" xmlns="http://www.w3.org/2000/svg">
<path fill-rule="evenodd" clip-rule="evenodd" d="M10.4789 14.0177H6.89547L4.20927 3.7824C4.08228 3.31089 3.81173 2.89453 3.41142 2.69876C2.41756 2.20519 1.32154 1.81365 0.128906 1.61512V1.22082H5.89884C6.6967 1.22082 7.29302 1.81365 7.3924 2.50023L8.78657 9.88442L12.3672 1.22082H15.8513L10.4789 14.0177ZM17.8418 14.0177H14.4571L17.2427 1.22082H20.6274L17.8418 14.0177ZM25.0059 4.76677C25.1053 4.07744 25.7016 3.68313 26.4001 3.68313C27.4961 3.58387 28.6887 3.7824 29.6826 4.27321L30.2789 1.51861C29.2823 1.12431 28.189 0.925781 27.1952 0.925781C23.9126 0.925781 21.5219 2.69876 21.5219 5.15832C21.5219 7.03056 23.2142 8.01218 24.4096 8.60501C25.7016 9.19508 26.2013 9.58938 26.0992 10.1795C26.0992 11.0646 25.1025 11.4589 24.1087 11.4589C22.9133 11.4589 21.7179 11.1638 20.6246 10.6703L20.0283 13.4276C21.2237 13.9184 22.5157 14.117 23.7111 14.117C27.3939 14.2135 29.6826 12.4432 29.6826 9.78516C29.6826 6.43773 25.0059 6.24196 25.0059 4.76677ZM41.5234 14.0177L38.8372 1.22082H35.9522C35.3559 1.22082 34.7568 1.61512 34.5581 2.20519L29.5832 14.0177H33.0672L33.763 12.1482H38.0421L38.4396 14.0177H41.5234ZM36.4492 4.66751L37.443 9.49012H34.6574L36.4492 4.66751Z" fill="#172B85"/>
</svg>
