<svg width="19" height="19" viewBox="0 0 19 19" fill="none" xmlns="http://www.w3.org/2000/svg">
<rect width="19" height="18.1364" rx="1.72727" fill="#00AFE3"/>
<path d="M10.2328 2.64777C12.4422 3.07948 14.2622 5.37497 13.725 7.53649C13.2571 9.41219 11.3797 12.059 10.2026 13.64C10.0185 13.8871 9.75889 14.289 9.55365 14.4944C9.53554 14.5123 9.5295 14.548 9.49026 14.5391C8.38253 13.0862 7.28386 11.5886 6.3844 9.99872C5.38835 8.23914 4.61566 6.68201 5.73546 4.73485C6.318 3.71959 7.58871 2.87702 8.7719 2.64777C9.17635 2.57036 9.8585 2.57333 10.2328 2.64777ZM9.36047 4.36269C7.56758 4.4669 6.45684 6.37832 7.32914 7.94438C8.25576 9.60869 10.77 9.59976 11.6816 7.92652C12.5931 6.25625 11.265 4.25253 9.36047 4.36269Z" fill="white"/>
<path d="M7.10969 15.1583L11.8153 15.1523C12.5397 15.2178 12.597 16.1527 11.8937 16.2956H7.10667C6.4366 16.1616 6.44867 15.2923 7.1127 15.1583H7.10969Z" fill="white"/>
</svg>
