<svg width="11" height="9" viewBox="0 0 11 9" fill="none" xmlns="http://www.w3.org/2000/svg">
<path d="M0.455104 4.35662C0.346286 4.46547 0.285156 4.61308 0.285156 4.767C0.285156 4.92091 0.346286 5.06852 0.455104 5.17737L3.73871 8.46098C3.79225 8.51642 3.8563 8.56064 3.92712 8.59106C3.99794 8.62148 4.07411 8.63749 4.15118 8.63816C4.22825 8.63883 4.30468 8.62414 4.37602 8.59496C4.44735 8.56577 4.51216 8.52267 4.56666 8.46817C4.62116 8.41367 4.66426 8.34887 4.69345 8.27753C4.72263 8.20619 4.73732 8.12976 4.73665 8.05269C4.73598 7.97562 4.71997 7.89945 4.68955 7.82863C4.65913 7.75782 4.6149 7.69377 4.55947 7.64022L2.26669 5.34745L9.95359 5.34744C10.1075 5.34744 10.2552 5.28629 10.364 5.17743C10.4729 5.06858 10.534 4.92094 10.534 4.76699C10.534 4.61305 10.4729 4.46541 10.364 4.35656C10.2552 4.2477 10.1075 4.18654 9.95359 4.18654L2.26669 4.18655L4.55947 1.89377C4.6652 1.78429 4.72371 1.63767 4.72238 1.48548C4.72106 1.33329 4.66002 1.1877 4.5524 1.08008C4.44477 0.972462 4.29919 0.911416 4.147 0.910094C3.99481 0.908771 3.84818 0.967277 3.73871 1.07301L0.455104 4.35662Z" fill="white"/>
</svg>
