<svg width="118" height="65" viewBox="0 0 118 65" fill="none" xmlns="http://www.w3.org/2000/svg">
<path d="M75.9283 54.9744L75.1248 55.5697L75.9283 54.9744ZM81.4255 36.5825L80.4489 36.7977L81.4255 36.5825ZM27.476 38.5264L28.1085 37.7518L27.476 38.5264ZM2.46912 1.35512C2.61102 0.82138 3.15874 0.50373 3.69248 0.645632L12.3903 2.95807C12.9241 3.09997 13.2417 3.64769 13.0998 4.18143C12.9579 4.71517 12.4102 5.03282 11.8765 4.89092L4.14503 2.83543L2.08954 10.5669C1.94764 11.1006 1.39992 11.4182 0.86618 11.2763C0.332436 11.1344 0.0147858 10.5867 0.156685 10.053L2.46912 1.35512ZM117.381 60.2586C116.561 60.5962 115.681 60.9293 114.751 61.2515L114.097 59.3616C114.993 59.0512 115.837 58.7315 116.619 58.4093L117.381 60.2586ZM109.363 62.8295C107.605 63.2569 105.755 63.6248 103.856 63.9034L103.565 61.9246C105.399 61.6555 107.189 61.2998 108.891 60.8861L109.363 62.8295ZM98.2575 64.4338C96.3744 64.5095 94.4796 64.4759 92.6117 64.3049L92.794 62.3132C94.5642 62.4753 96.3707 62.508 98.1772 62.4354L98.2575 64.4338ZM87.012 63.3209C85.1481 62.8152 83.3526 62.1245 81.6744 61.2139L82.6282 59.456C84.1536 60.2837 85.802 60.9203 87.5357 61.3907L87.012 63.3209ZM77.0247 57.7706C76.3484 57.0967 75.7133 56.3642 75.1248 55.5697L76.7318 54.3791C77.2606 55.0929 77.8303 55.7499 78.4364 56.354L77.0247 57.7706ZM75.1248 55.5697C74.481 54.7007 73.8878 53.8565 73.3425 53.0368L75.0076 51.929C75.5333 52.7191 76.107 53.5357 76.7318 54.3791L75.1248 55.5697ZM70.2581 47.6601C69.2067 45.4402 68.5621 43.442 68.2554 41.6592L70.2264 41.3201C70.4966 42.8904 71.076 44.7144 72.0656 46.804L70.2581 47.6601ZM68.9078 35.1259C70.0472 32.7572 72.1494 31.4465 74.3473 31.1134L74.647 33.0908C73.0373 33.3347 71.5354 34.2771 70.7101 35.9929L68.9078 35.1259ZM80.773 33.2376C81.5508 34.0692 82.1273 35.1209 82.402 36.3672L80.4489 36.7977C80.252 35.9043 79.8467 35.1751 79.3124 34.6038L80.773 33.2376ZM82.402 36.3672C82.6744 37.6025 82.7071 38.7928 82.5121 39.9254L80.5411 39.586C80.6891 38.7268 80.6695 37.7985 80.4489 36.7977L82.402 36.3672ZM78.8252 45.798C77.2311 47.089 75.2133 48.1326 72.9078 48.9253L72.2575 47.034C74.402 46.2967 76.1974 45.3526 77.5665 44.2438L78.8252 45.798ZM66.5111 50.3987C64.4541 50.6785 62.2716 50.8155 60.0089 50.8015L60.0213 48.8015C62.1963 48.815 64.2843 48.6832 66.2415 48.417L66.5111 50.3987ZM53.5296 50.3645C51.4254 50.0969 49.2878 49.7041 47.1481 49.1795L47.6244 47.237C49.6894 47.7433 51.7521 48.1223 53.782 48.3805L53.5296 50.3645ZM40.9451 47.2751C38.9319 46.5262 36.9428 45.6514 35.005 44.6446L35.9271 42.8698C37.7888 43.8371 39.7026 44.679 41.6424 45.4006L40.9451 47.2751ZM29.4419 41.2708C28.5561 40.6476 27.6889 39.9912 26.8435 39.301L28.1085 37.7518C28.9159 38.4111 29.745 39.0387 30.5927 39.6351L29.4419 41.2708ZM26.8435 39.301C26.0896 38.6853 25.3689 38.0765 24.6792 37.4738L25.9953 35.9678C26.6676 36.5554 27.3713 37.1498 28.1085 37.7518L26.8435 39.301ZM20.5679 33.5911C19.1605 32.1461 17.9201 30.7334 16.814 29.3449L18.3784 28.0988C19.4419 29.434 20.6383 30.7969 22.0006 32.1956L20.5679 33.5911ZM13.5242 24.7057C12.4709 23.0268 11.5735 21.3773 10.7664 19.7438L12.5595 18.8579C13.3422 20.4421 14.2072 22.031 15.2184 23.6428L13.5242 24.7057ZM8.43927 14.616C7.70914 12.9047 7.01405 11.2208 6.25684 9.49647L8.08805 8.6923C8.84993 10.4272 9.56169 12.1502 10.2788 13.8312L8.43927 14.616ZM3.89233 4.51873C3.47909 3.72563 3.04075 2.9246 2.5705 2.11375L4.3006 1.11037C4.78709 1.94923 5.23991 2.77679 5.66601 3.59457L3.89233 4.51873Z" fill="#00AFE3"/>
</svg>
