<svg width="63" height="63" viewBox="0 0 63 63" fill="none" xmlns="http://www.w3.org/2000/svg">
<path fill-rule="evenodd" clip-rule="evenodd" d="M31.1739 6.63098C26.8108 6.63018 22.5238 7.77375 18.7409 9.94755C14.9579 12.1213 11.8112 15.2493 9.61492 19.0193C7.41864 22.7893 6.24957 27.0693 6.22439 31.4323C6.19921 35.7953 7.31881 40.0886 9.47144 43.8837C10.9264 41.9928 12.7967 40.4618 14.9378 39.409C17.079 38.3563 19.4335 37.8101 21.8194 37.8126H40.5283C42.9142 37.8101 45.2688 38.3563 47.4099 39.409C49.551 40.4618 51.4213 41.9928 52.8763 43.8837C55.0289 40.0886 56.1485 35.7953 56.1233 31.4323C56.0981 27.0693 54.9291 22.7893 52.7328 19.0193C50.5365 15.2493 47.3898 12.1213 43.6069 9.94755C39.8239 7.77375 35.5369 6.63018 31.1739 6.63098ZM55.9414 50.5222C56.3322 50.0129 56.7064 49.4912 57.064 48.9569C60.5209 43.8204 62.3636 37.7678 62.3555 31.5763C62.3555 14.3547 48.3955 0.394653 31.1739 0.394653C13.9522 0.394653 -0.00778052 14.3547 -0.00778052 31.5763C-0.0176069 38.4261 2.23742 45.0871 6.40628 50.5222L6.39069 50.5784L7.49764 51.8662C10.4221 55.2853 14.0532 58.0296 18.1407 59.9099C22.2281 61.7903 26.6747 62.7619 31.1739 62.7579C31.8474 62.7579 32.5167 62.7371 33.182 62.6956C38.8083 62.3408 44.2317 60.4597 48.8694 57.2544C51.0874 55.7243 53.0977 53.9131 54.8501 51.8662L55.957 50.5784L55.9414 50.5222ZM31.1739 12.8673C28.6929 12.8673 26.3135 13.8529 24.5592 15.6072C22.8049 17.3615 21.8194 19.7408 21.8194 22.2218C21.8194 24.7028 22.8049 27.0821 24.5592 28.8364C26.3135 30.5907 28.6929 31.5763 31.1739 31.5763C33.6548 31.5763 36.0342 30.5907 37.7885 28.8364C39.5428 27.0821 40.5283 24.7028 40.5283 22.2218C40.5283 19.7408 39.5428 17.3615 37.7885 15.6072C36.0342 13.8529 33.6548 12.8673 31.1739 12.8673Z" fill="#00AFE3"/>
</svg>
