<svg width="20" height="21" viewBox="0 0 20 21" fill="none" xmlns="http://www.w3.org/2000/svg">
<g clip-path="url(#clip0_1971_994)">
<path d="M20 10.6563C20 5.13344 15.5228 0.65625 10 0.65625C4.47719 0.65625 0 5.13344 0 10.6563C0 15.6475 3.65687 19.7846 8.4375 20.5348V13.5469H5.89844V10.6563H8.4375V8.45313C8.4375 5.94688 9.93047 4.5625 12.2147 4.5625C13.3088 4.5625 14.4531 4.75781 14.4531 4.75781V7.21875H13.1922C11.9499 7.21875 11.5625 7.98961 11.5625 8.78047V10.6563H14.3359L13.8926 13.5469H11.5625V20.5348C16.3431 19.7846 20 15.6476 20 10.6563Z" fill="#1877F2"/>
<path d="M13.8926 13.5469L14.3359 10.6562H11.5625V8.78047C11.5625 7.98953 11.9499 7.21875 13.1922 7.21875H14.4531V4.75781C14.4531 4.75781 13.3088 4.5625 12.2146 4.5625C9.93047 4.5625 8.4375 5.94688 8.4375 8.45313V10.6562H5.89844V13.5469H8.4375V20.5348C8.95439 20.6158 9.4768 20.6564 10 20.6562C10.5232 20.6564 11.0456 20.6158 11.5625 20.5348V13.5469H13.8926Z" fill="white"/>
</g>
<defs>
<clipPath id="clip0_1971_994">
<rect width="20" height="20" fill="white" transform="translate(0 0.65625)"/>
</clipPath>
</defs>
</svg>
