<svg width="168" height="38" viewBox="0 0 168 38" fill="none" xmlns="http://www.w3.org/2000/svg">
<g clip-path="url(#clip0_265_2828)">
<path d="M36.2188 3.54622C36.2188 2.0511 37.2048 1.04633 38.7531 1.04633C40.3014 1.04633 41.2874 2.0511 41.2874 3.54622V19.1967H49.7624C51.2129 19.1967 52.3945 19.9281 52.3945 21.3027C52.3945 22.6772 51.2211 23.4087 49.7624 23.4087H39.185C37.3922 23.4087 36.2188 22.7094 36.2188 20.4828V3.54622Z" fill="#00AFE3"/>
<path d="M62.2395 7.05908C67.683 7.05908 70.5922 10.7245 70.5922 15.4188C70.5922 19.872 68.392 23.8108 62.2395 23.8108C56.087 23.8108 53.8867 19.872 53.8867 15.4188C53.8867 10.7165 56.7959 7.05908 62.2395 7.05908ZM62.2395 20.5151C64.9286 20.5151 66.0776 18.1358 66.0776 15.4188C66.0776 12.517 64.8716 10.3548 62.2395 10.3548C59.6073 10.3548 58.4013 12.5251 58.4013 15.4188C58.4013 18.1358 59.5421 20.5151 62.2395 20.5151Z" fill="#00AFE3"/>
<path d="M81.1039 7.05896C84.8769 7.05896 87.6964 9.16498 87.6964 11.2388C87.6964 12.5169 86.7348 13.16 85.594 13.16C83.4589 13.16 84.2331 10.5395 80.9816 10.5395C79.2215 10.5395 77.1435 11.7292 77.1435 15.7563C77.1435 18.5295 78.4717 20.3301 80.949 20.3301C84.1027 20.3301 83.4263 17.4604 85.8059 17.4604C86.9467 17.4604 87.6964 18.2803 87.6964 19.1726C87.6964 21.1259 85.4718 23.8106 80.8268 23.8106C75.261 23.8106 72.6289 20.4265 72.6289 15.7563C72.6289 10.6279 75.5707 7.05896 81.1039 7.05896Z" fill="#00AFE3"/>
<path d="M105.11 19.1081C105.11 20.973 105.574 21.399 105.574 22.0984C105.574 23.1031 104.613 23.8105 103.529 23.8105C101.581 23.8105 100.929 22.5887 100.872 21.2142C99.1121 23.1353 97.0667 23.8105 94.6872 23.8105C92.1203 23.8105 89.5859 22.0742 89.5859 19.2609C89.5859 15.5713 92.4299 14.5344 95.8933 14.1325L98.6476 13.827C99.7315 13.7064 100.595 13.4573 100.595 12.1792C100.595 10.9011 99.267 10.3465 97.7512 10.3465C94.4101 10.3465 94.3205 12.7901 92.5196 12.7901C91.3787 12.7901 90.6046 11.9943 90.6046 11.0779C90.6046 9.30953 93.1389 7.05078 97.7838 7.05078C102.111 7.05078 105.118 8.42532 105.118 11.6245V19.1001L105.11 19.1081ZM100.595 15.9089C100.098 16.3671 99.1692 16.5198 98.6476 16.6082L97.0097 16.8494C95.1191 17.1227 94.1005 17.7014 94.1005 19.0438C94.1005 20.0486 95.0621 20.8765 96.6022 20.8765C99.0795 20.8765 100.595 19.293 100.595 17.6452V15.9089Z" fill="#00AFE3"/>
<path d="M109.25 3.27292C109.25 1.80996 110.146 1.04633 111.507 1.04633C112.868 1.04633 113.765 1.80996 113.765 3.27292V21.584C113.765 23.047 112.868 23.8106 111.507 23.8106C110.146 23.8106 109.25 23.047 109.25 21.584V3.27292Z" fill="#00AFE3"/>
<path d="M120.113 0.925781C121.409 0.925781 122.468 1.96271 122.468 3.24883C122.468 4.53495 121.417 5.57188 120.113 5.57188C118.809 5.57188 117.758 4.53495 117.758 3.24883C117.758 1.96271 118.809 0.925781 120.113 0.925781ZM117.856 9.28555C117.856 8.09589 118.353 7.05896 120.113 7.05896C121.873 7.05896 122.37 8.09589 122.37 9.28555V21.584C122.37 22.7737 121.873 23.8106 120.113 23.8106C118.353 23.8106 117.856 22.7737 117.856 21.584V9.28555Z" fill="#00AFE3"/>
<path d="M132.272 7.05882C135.703 7.05882 139.174 8.40121 139.174 10.4429C139.174 11.4798 138.465 12.3962 137.283 12.3962C135.523 12.3962 135.458 10.3545 132.614 10.3545C131.033 10.3545 130.015 10.7805 130.015 11.729C130.015 12.766 131.033 13.0071 132.427 13.3126L134.317 13.7386C136.884 14.3173 139.948 15.3864 139.948 18.4972C139.948 22.1305 136.387 23.8105 132.989 23.8105C128.906 23.8105 125.5 22.0099 125.5 19.8155C125.5 18.8429 126.054 17.9506 127.325 17.9506C129.273 17.9506 129.46 20.6997 132.802 20.6997C134.407 20.6997 135.434 20.0004 135.434 19.084C135.434 17.9587 134.448 17.7738 132.834 17.3719L130.178 16.7288C127.545 16.0858 125.508 15.0167 125.508 12.0264C125.508 8.39317 129.159 7.05078 132.28 7.05078L132.272 7.05882Z" fill="#00AFE3"/>
<path d="M143.989 10.387H143.215C141.943 10.387 141.422 9.89668 141.422 8.92405C141.422 7.95143 141.952 7.46109 143.215 7.46109H143.989V4.74417C143.989 3.28121 144.885 2.51758 146.246 2.51758C147.607 2.51758 148.503 3.28121 148.503 4.74417V7.46109H149.864C151.193 7.46109 151.91 7.85497 151.91 8.92405C151.91 9.99314 151.201 10.387 149.864 10.387H148.503V19.3014C148.503 19.9766 148.878 20.3383 149.677 20.3383H150.329C151.315 20.3383 151.91 20.8849 151.91 21.8335C151.91 23.1115 150.793 23.8189 148.634 23.8189C145.358 23.8189 143.997 22.4765 143.997 19.848V10.387H143.989Z" fill="#00AFE3"/>
<path d="M160.328 7.05894C163.759 7.05894 167.231 8.40133 167.231 10.443C167.231 11.48 166.522 12.3963 165.34 12.3963C163.58 12.3963 163.515 10.3546 160.671 10.3546C159.09 10.3546 158.071 10.7806 158.071 11.7292C158.071 12.7661 159.09 13.0072 160.483 13.3127L162.374 13.7387C164.941 14.3175 168.005 15.3866 168.005 18.4974C168.005 22.1306 164.444 23.8106 161.046 23.8106C156.963 23.8106 153.557 22.0101 153.557 19.8156C153.557 18.843 154.111 17.9508 155.382 17.9508C157.33 17.9508 157.517 20.6998 160.858 20.6998C162.464 20.6998 163.49 20.0005 163.49 19.0841C163.49 17.9588 162.504 17.7739 160.891 17.372L158.234 16.7289C155.602 16.0859 153.565 15.0168 153.565 12.0266C153.565 8.39329 157.216 7.0509 160.337 7.0509L160.328 7.05894Z" fill="#00AFE3"/>
<path d="M36.2754 36.3342V29.4857H40.2684V30.5547H37.5385V32.492H39.8365V33.561H37.5385V36.3262H36.2754V36.3342Z" fill="white"/>
<path d="M41.2129 30.5706V29.4774H42.4515V30.5706H41.2129ZM41.2129 36.334V31.4146H42.4515V36.334H41.2129Z" fill="white"/>
<path d="M43.7812 36.3341V31.4147H44.971V31.9934L44.9547 32.3391H44.971C45.1014 32.0738 45.3133 31.8326 45.6148 31.6237C45.9163 31.4066 46.2911 31.3021 46.7393 31.3021C47.8965 31.3021 48.4832 31.9291 48.4832 33.175V36.3421H47.2446V33.4323C47.2446 33.1027 47.1875 32.8535 47.0735 32.6847C46.9594 32.5159 46.7556 32.4275 46.4623 32.4275C46.0304 32.4275 45.6881 32.5802 45.4192 32.8937C45.1584 33.1991 45.0199 33.585 45.0199 34.0432V36.3501H43.7812V36.3341Z" fill="white"/>
<path d="M49.4847 33.8745C49.4847 33.1029 49.6966 32.4839 50.1122 32.0097C50.5359 31.5354 51.0738 31.3023 51.742 31.3023C52.4102 31.3023 52.8828 31.5193 53.2007 31.9454H53.217C53.2007 31.865 53.2007 31.7685 53.2007 31.656V29.4857H54.4312V36.3342H53.2659V35.9082L53.2821 35.6028H53.2659C53.1192 35.86 52.8991 36.069 52.6221 36.2217C52.345 36.3744 52.0354 36.4548 51.6849 36.4548C51.0167 36.4548 50.487 36.2137 50.0796 35.7394C49.6721 35.2651 49.4766 34.6462 49.4766 33.8745H49.4847ZM50.7397 33.8745C50.7397 34.3408 50.8537 34.7105 51.0819 34.9918C51.3101 35.2732 51.6116 35.4179 51.9783 35.4179C52.3287 35.4179 52.6302 35.2893 52.8665 35.024C53.1029 34.7587 53.2251 34.3729 53.2251 33.8585C53.2251 33.4485 53.1192 33.0948 52.8991 32.7894C52.6791 32.4839 52.3776 32.3392 51.9783 32.3392C51.6279 32.3392 51.3264 32.4759 51.0901 32.7492C50.8537 33.0225 50.7315 33.3922 50.7315 33.8665L50.7397 33.8745Z" fill="white"/>
<path d="M58.3926 36.3343V29.4857H59.6557V35.2652H62.6545V36.3343H58.3926Z" fill="white"/>
<path d="M63.8022 35.7234C63.2725 35.2411 63.0117 34.6221 63.0117 33.8746C63.0117 33.127 63.2725 32.5161 63.8022 32.0258C64.3319 31.5435 64.9756 31.2943 65.7416 31.2943C66.5076 31.2943 67.1596 31.5355 67.6892 32.0258C68.2189 32.5081 68.4879 33.127 68.4879 33.8746C68.4879 34.6221 68.2271 35.233 67.6974 35.7234C67.1677 36.2057 66.5239 36.4549 65.7498 36.4549C64.9756 36.4549 64.3319 36.2137 63.8022 35.7234ZM64.2667 33.8746C64.2667 34.3247 64.4052 34.6945 64.6904 34.9758C64.9756 35.2652 65.326 35.4019 65.7416 35.4019C66.1572 35.4019 66.5076 35.2572 66.801 34.9758C67.0862 34.6864 67.2329 34.3247 67.2329 33.8746C67.2329 33.4244 67.0862 33.0627 66.801 32.7733C66.5076 32.484 66.1572 32.3393 65.7498 32.3393C65.3423 32.3393 64.9919 32.484 64.7067 32.7733C64.4215 33.0627 64.2748 33.4325 64.2748 33.8746H64.2667Z" fill="white"/>
<path d="M69.2051 33.8745C69.2051 33.1511 69.4577 32.5482 69.9548 32.0499C70.4519 31.5515 71.1038 31.3023 71.9187 31.3023C72.2773 31.3023 72.6277 31.3666 72.9781 31.4872C73.3203 31.6078 73.6137 31.7926 73.8419 32.0338L73.2877 32.8698C72.9292 32.5161 72.4973 32.3392 72.0002 32.3392C71.552 32.3392 71.1853 32.4839 70.9082 32.7813C70.6312 33.0707 70.4845 33.4324 70.4845 33.8665C70.4845 34.3006 70.6312 34.6623 70.9164 34.9597C71.2016 35.2571 71.5764 35.4098 72.0409 35.4098C72.5788 35.4098 73.0677 35.2009 73.5078 34.7829L73.9885 35.651C73.7522 35.8921 73.4507 36.0931 73.084 36.2378C72.7173 36.3825 72.3343 36.4548 71.935 36.4548C71.1282 36.4548 70.4763 36.2056 69.9711 35.7153C69.474 35.225 69.2214 34.6141 69.2214 33.8745H69.2051Z" fill="white"/>
<path d="M74.4863 34.9758C74.4863 34.6301 74.5841 34.3327 74.7715 34.0916C74.9671 33.8504 75.2197 33.6655 75.5375 33.553C75.8554 33.4405 76.1569 33.3601 76.4584 33.3199C76.7518 33.2717 77.0696 33.2556 77.3955 33.2556H77.6074V33.1913C77.6074 32.6125 77.2977 32.3231 76.6703 32.3231C76.2139 32.3231 75.7494 32.4839 75.2849 32.7974L74.8286 31.9212C75.0405 31.7524 75.3338 31.6077 75.7005 31.4952C76.0672 31.3746 76.4258 31.3184 76.7843 31.3184C77.4363 31.3184 77.9415 31.4872 78.3082 31.8328C78.6749 32.1785 78.8542 32.6607 78.8542 33.2717V36.3503H77.697V35.9323L77.7296 35.5786H77.7133C77.5585 35.8439 77.3385 36.0529 77.0614 36.2217C76.7843 36.3824 76.4747 36.4709 76.1406 36.4709C75.6761 36.4709 75.2849 36.3342 74.9753 36.0609C74.6575 35.7876 74.5026 35.4339 74.5026 34.9918L74.4863 34.9758ZM75.725 34.8632C75.725 35.0401 75.7902 35.1848 75.9287 35.3134C76.0591 35.442 76.2465 35.5063 76.4828 35.5063C76.8169 35.5063 77.0859 35.3696 77.3059 35.1044C77.5259 34.8391 77.6318 34.5417 77.6318 34.2202V34.0835H77.42C76.2954 34.0835 75.7413 34.3407 75.7413 34.8632H75.725Z" fill="white"/>
<path d="M80.1253 34.7989V29.4857H81.3558V34.6141C81.3558 34.8713 81.3966 35.0481 81.4781 35.1446C81.5596 35.241 81.6899 35.2893 81.8611 35.2893C81.9426 35.2893 81.9996 35.2893 82.0485 35.2812V36.3503C81.8692 36.3664 81.7388 36.3825 81.6573 36.3825C81.4536 36.3825 81.2743 36.3664 81.1195 36.3262C80.9647 36.286 80.8017 36.2217 80.6387 36.1252C80.4757 36.0288 80.3454 35.86 80.2557 35.6349C80.1661 35.4098 80.1172 35.1285 80.1172 34.7989H80.1253Z" fill="white"/>
<path d="M85.5684 36.3342V29.4857H88.2494C88.9013 29.4857 89.431 29.6947 89.8466 30.1046C90.2622 30.5146 90.4659 31.0531 90.4659 31.7122C90.4659 32.3714 90.2622 32.918 89.8466 33.336C89.4391 33.754 88.9013 33.971 88.2494 33.971H86.8315V36.3342H85.5684ZM86.8315 32.8858H88.0131C88.3798 32.8858 88.665 32.7813 88.8687 32.5643C89.0724 32.3553 89.1784 32.0659 89.1784 31.7042C89.1784 31.3425 89.0724 31.0692 88.8687 30.8602C88.665 30.6512 88.3879 30.5467 88.0294 30.5467H86.8233V32.8778L86.8315 32.8858Z" fill="white"/>
<path d="M91.3477 36.3344V31.415H92.5374V32.2831L92.5211 32.6207H92.5374C92.6515 32.259 92.8552 31.9616 93.1404 31.7124C93.4257 31.4713 93.7516 31.3427 94.1183 31.3427C94.1672 31.3427 94.2487 31.3427 94.3546 31.3587V32.5645C94.2895 32.5484 94.1917 32.5484 94.0531 32.5484C93.5723 32.5484 93.2056 32.7252 92.9612 33.0709C92.7167 33.4165 92.5863 33.8425 92.5863 34.3409V36.3264H91.3477V36.3344Z" fill="white"/>
<path d="M95.601 35.7234C95.0713 35.2411 94.8105 34.6221 94.8105 33.8746C94.8105 33.127 95.0713 32.5161 95.601 32.0258C96.1307 31.5435 96.7745 31.2943 97.5405 31.2943C98.3065 31.2943 98.9584 31.5355 99.4881 32.0258C100.018 32.5081 100.287 33.127 100.287 33.8746C100.287 34.6221 100.026 35.233 99.4962 35.7234C98.9665 36.2057 98.3228 36.4549 97.5486 36.4549C96.7745 36.4549 96.1307 36.2137 95.601 35.7234ZM96.0736 33.8746C96.0736 34.3247 96.2122 34.6945 96.4974 34.9758C96.7826 35.2652 97.133 35.4019 97.5486 35.4019C97.9642 35.4019 98.3146 35.2572 98.608 34.9758C98.8932 34.6864 99.0399 34.3247 99.0399 33.8746C99.0399 33.4244 98.8932 33.0627 98.608 32.7733C98.3146 32.484 97.9642 32.3393 97.5568 32.3393C97.1493 32.3393 96.7989 32.484 96.5137 32.7733C96.2285 33.0627 96.0818 33.4325 96.0818 33.8746H96.0736Z" fill="white"/>
<path d="M101.524 36.3342V32.4598H100.904V31.4872H101.524V31.2782C101.524 30.9727 101.573 30.6994 101.678 30.4743C101.776 30.2493 101.898 30.0724 102.045 29.9438C102.192 29.8152 102.363 29.7188 102.559 29.6384C102.754 29.558 102.933 29.5098 103.088 29.4856C103.243 29.4615 103.406 29.4535 103.569 29.4535C103.748 29.4535 103.895 29.4615 103.993 29.4856V30.5306C103.944 30.5145 103.854 30.5145 103.74 30.5145C103.096 30.5145 102.77 30.7798 102.77 31.3184V31.5032H103.846V32.4759H102.77V36.3503H101.532L101.524 36.3342Z" fill="white"/>
<path d="M104.336 33.8745C104.336 33.1189 104.572 32.5 105.045 32.0177C105.518 31.5354 106.129 31.3023 106.878 31.3023C107.571 31.3023 108.109 31.5193 108.5 31.9614C108.891 32.4035 109.087 32.9582 109.087 33.6334C109.087 33.7459 109.071 33.8987 109.046 34.1077H105.615C105.656 34.5176 105.811 34.8391 106.096 35.0642C106.373 35.2893 106.715 35.4098 107.115 35.4098C107.612 35.4098 108.084 35.233 108.541 34.8713L109.03 35.7475C108.785 35.9645 108.476 36.1413 108.117 36.2619C107.759 36.3905 107.392 36.4468 107.025 36.4468C106.227 36.4468 105.575 36.1976 105.078 35.6992C104.58 35.2009 104.336 34.5899 104.336 33.8745ZM105.648 33.2636H107.848C107.848 32.9421 107.742 32.6849 107.563 32.5C107.376 32.3151 107.139 32.2187 106.854 32.2187C106.544 32.2187 106.275 32.3151 106.064 32.5C105.852 32.6929 105.713 32.9421 105.656 33.2556L105.648 33.2636Z" fill="white"/>
<path d="M109.723 35.7231L110.277 34.9113C110.676 35.273 111.149 35.4498 111.695 35.4498C111.915 35.4498 112.086 35.4096 112.208 35.3212C112.331 35.2328 112.388 35.1122 112.388 34.9595C112.388 34.8148 112.306 34.6942 112.135 34.5897C111.964 34.4852 111.76 34.3888 111.524 34.2923C111.288 34.1959 111.043 34.0994 110.799 33.9949C110.554 33.8904 110.342 33.7377 110.171 33.5287C110 33.3197 109.919 33.0625 109.919 32.765C109.919 32.2988 110.098 31.9371 110.465 31.6799C110.823 31.4227 111.279 31.286 111.825 31.286C112.518 31.286 113.08 31.4709 113.504 31.8487L113.048 32.7088C112.901 32.5882 112.714 32.4837 112.477 32.4033C112.241 32.3229 112.013 32.2828 111.785 32.2828C111.32 32.2828 111.092 32.4355 111.092 32.7409C111.092 32.8776 111.182 32.9982 111.353 33.0946C111.524 33.1911 111.736 33.2875 111.98 33.384C112.225 33.4804 112.461 33.5689 112.706 33.6653C112.95 33.7618 113.154 33.9145 113.317 34.1396C113.48 34.3566 113.561 34.6219 113.561 34.9273C113.561 35.3614 113.39 35.7231 113.04 36.0125C112.697 36.3019 112.241 36.4385 111.671 36.4385C110.872 36.4385 110.22 36.1974 109.715 35.7151L109.723 35.7231Z" fill="white"/>
<path d="M114.188 35.7233L114.742 34.9114C115.141 35.2732 115.614 35.45 116.16 35.45C116.38 35.45 116.551 35.4098 116.673 35.3214C116.796 35.233 116.853 35.1124 116.853 34.9597C116.853 34.815 116.771 34.6944 116.6 34.5899C116.429 34.4854 116.225 34.389 115.989 34.2925C115.752 34.196 115.508 34.0996 115.264 33.9951C115.019 33.8906 114.807 33.7379 114.636 33.5289C114.465 33.3199 114.383 33.0626 114.383 32.7652C114.383 32.299 114.563 31.9373 114.929 31.6801C115.288 31.4228 115.744 31.2862 116.29 31.2862C116.983 31.2862 117.545 31.4711 117.969 31.8489L117.513 32.709C117.366 32.5884 117.179 32.4839 116.942 32.4035C116.706 32.3231 116.478 32.2829 116.25 32.2829C115.785 32.2829 115.557 32.4357 115.557 32.7411C115.557 32.8778 115.647 32.9983 115.818 33.0948C115.989 33.1913 116.201 33.2877 116.445 33.3842C116.69 33.4806 116.926 33.5691 117.17 33.6655C117.415 33.762 117.619 33.9147 117.782 34.1398C117.945 34.3568 118.026 34.6221 118.026 34.9275C118.026 35.3616 117.855 35.7233 117.504 36.0127C117.162 36.3021 116.706 36.4387 116.135 36.4387C115.337 36.4387 114.685 36.1976 114.18 35.7153L114.188 35.7233Z" fill="white"/>
<path d="M119.062 30.5706V29.4774H120.301V30.5706H119.062ZM119.062 36.334V31.4146H120.301V36.334H119.062Z" fill="white"/>
<path d="M122.124 35.7234C121.595 35.2411 121.334 34.6221 121.334 33.8746C121.334 33.127 121.595 32.5161 122.124 32.0258C122.654 31.5435 123.298 31.2943 124.064 31.2943C124.83 31.2943 125.482 31.5355 126.012 32.0258C126.541 32.5081 126.81 33.127 126.81 33.8746C126.81 34.6221 126.549 35.233 126.02 35.7234C125.49 36.2057 124.846 36.4549 124.072 36.4549C123.298 36.4549 122.654 36.2137 122.124 35.7234ZM122.589 33.8746C122.589 34.3247 122.727 34.6945 123.013 34.9758C123.298 35.2652 123.648 35.4019 124.064 35.4019C124.48 35.4019 124.83 35.2572 125.123 34.9758C125.408 34.6864 125.555 34.3247 125.555 33.8746C125.555 33.4244 125.408 33.0627 125.123 32.7733C124.83 32.484 124.48 32.3393 124.072 32.3393C123.665 32.3393 123.314 32.484 123.029 32.7733C122.744 33.0627 122.597 33.4325 122.597 33.8746H122.589Z" fill="white"/>
<path d="M127.828 36.3341V31.4147H129.018V31.9934L129.002 32.3391H129.018C129.148 32.0738 129.36 31.8326 129.662 31.6237C129.963 31.4066 130.338 31.3021 130.786 31.3021C131.943 31.3021 132.53 31.9291 132.53 33.175V36.3421H131.291V33.4323C131.291 33.1027 131.234 32.8535 131.12 32.6847C131.006 32.5159 130.803 32.4275 130.509 32.4275C130.077 32.4275 129.735 32.5802 129.466 32.8937C129.205 33.1991 129.067 33.585 129.067 34.0432V36.3501H127.828V36.3341Z" fill="white"/>
<path d="M133.438 34.9756C133.438 34.63 133.535 34.3326 133.723 34.0914C133.918 33.8503 134.171 33.6654 134.489 33.5529C134.807 33.4403 135.108 33.36 135.41 33.3198C135.703 33.2715 136.021 33.2555 136.347 33.2555H136.559V33.1911C136.559 32.6124 136.249 32.323 135.621 32.323C135.165 32.323 134.701 32.4838 134.236 32.7973L133.78 31.9211C133.992 31.7523 134.285 31.6076 134.652 31.4951C135.018 31.3745 135.377 31.3182 135.736 31.3182C136.387 31.3182 136.893 31.487 137.259 31.8327C137.626 32.1783 137.805 32.6606 137.805 33.2715V36.3502H136.648V35.9322L136.681 35.5785H136.665C136.51 35.8438 136.29 36.0528 136.013 36.2216C135.736 36.3823 135.426 36.4707 135.092 36.4707C134.627 36.4707 134.236 36.3341 133.926 36.0608C133.609 35.7875 133.454 35.4338 133.454 34.9917L133.438 34.9756ZM134.668 34.8631C134.668 35.0399 134.733 35.1846 134.872 35.3132C135.002 35.4419 135.19 35.5062 135.426 35.5062C135.76 35.5062 136.029 35.3695 136.249 35.1042C136.469 34.839 136.575 34.5416 136.575 34.22V34.0834H136.363C135.238 34.0834 134.684 34.3406 134.684 34.8631H134.668Z" fill="white"/>
<path d="M139.067 34.7989V29.4857H140.297V34.6141C140.297 34.8713 140.338 35.0481 140.419 35.1446C140.501 35.241 140.631 35.2893 140.802 35.2893C140.884 35.2893 140.941 35.2893 140.99 35.2812V36.3503C140.811 36.3664 140.68 36.3825 140.599 36.3825C140.395 36.3825 140.216 36.3664 140.061 36.3262C139.906 36.286 139.743 36.2217 139.58 36.1252C139.417 36.0288 139.287 35.86 139.197 35.6349C139.107 35.4098 139.059 35.1285 139.059 34.7989H139.067Z" fill="white"/>
<path d="M141.494 35.7231L142.049 34.9113C142.448 35.273 142.921 35.4498 143.467 35.4498C143.687 35.4498 143.858 35.4096 143.98 35.3212C144.102 35.2328 144.159 35.1122 144.159 34.9595C144.159 34.8148 144.078 34.6942 143.907 34.5897C143.735 34.4852 143.532 34.3888 143.295 34.2923C143.059 34.1959 142.815 34.0994 142.57 33.9949C142.326 33.8904 142.114 33.7377 141.943 33.5287C141.772 33.3197 141.69 33.0625 141.69 32.765C141.69 32.2988 141.869 31.9371 142.236 31.6799C142.595 31.4227 143.051 31.286 143.597 31.286C144.29 31.286 144.852 31.4709 145.276 31.8487L144.819 32.7088C144.673 32.5882 144.485 32.4837 144.249 32.4033C144.013 32.3229 143.784 32.2828 143.556 32.2828C143.092 32.2828 142.864 32.4355 142.864 32.7409C142.864 32.8776 142.953 32.9982 143.124 33.0946C143.295 33.1911 143.507 33.2875 143.752 33.384C143.996 33.4804 144.233 33.5689 144.477 33.6653C144.721 33.7618 144.925 33.9145 145.088 34.1396C145.251 34.3566 145.333 34.6219 145.333 34.9273C145.333 35.3614 145.162 35.7231 144.811 36.0125C144.469 36.3019 144.013 36.4385 143.442 36.4385C142.643 36.4385 141.992 36.1974 141.486 35.7151L141.494 35.7231Z" fill="white"/>
<path d="M146.344 34.1157V33.0466H149.277V34.1157H146.344Z" fill="white"/>
<path d="M150.762 36.3343V29.4857H154.755V30.5548H152.025V32.492H154.323V33.5611H152.025V36.3263H150.762V36.3343Z" fill="white"/>
<path d="M155.014 34.9756C155.014 34.63 155.111 34.3326 155.299 34.0914C155.494 33.8503 155.747 33.6654 156.065 33.5529C156.383 33.4403 156.684 33.36 156.986 33.3198C157.279 33.2715 157.597 33.2555 157.923 33.2555H158.135V33.1911C158.135 32.6124 157.825 32.323 157.198 32.323C156.741 32.323 156.277 32.4838 155.812 32.7973L155.356 31.9211C155.568 31.7523 155.861 31.6076 156.228 31.4951C156.595 31.3745 156.953 31.3182 157.312 31.3182C157.964 31.3182 158.469 31.487 158.836 31.8327C159.202 32.1783 159.382 32.6606 159.382 33.2715V36.3502H158.224V35.9322L158.257 35.5785H158.241C158.086 35.8438 157.866 36.0528 157.589 36.2216C157.312 36.3823 157.002 36.4707 156.668 36.4707C156.203 36.4707 155.812 36.3341 155.503 36.0608C155.185 35.7875 155.03 35.4338 155.03 34.9917L155.014 34.9756ZM156.252 34.8631C156.252 35.0399 156.318 35.1846 156.456 35.3132C156.586 35.4419 156.774 35.5062 157.01 35.5062C157.344 35.5062 157.613 35.3695 157.833 35.1042C158.053 34.839 158.159 34.5416 158.159 34.22V34.0834H157.947C156.823 34.0834 156.269 34.3406 156.269 34.8631H156.252Z" fill="white"/>
<path d="M160.246 35.7233L160.801 34.9114C161.2 35.2732 161.673 35.45 162.218 35.45C162.439 35.45 162.61 35.4098 162.732 35.3214C162.854 35.233 162.911 35.1124 162.911 34.9597C162.911 34.815 162.83 34.6944 162.659 34.5899C162.487 34.4854 162.284 34.389 162.047 34.2925C161.811 34.196 161.567 34.0996 161.322 33.9951C161.078 33.8906 160.866 33.7379 160.695 33.5289C160.523 33.3199 160.442 33.0626 160.442 32.7652C160.442 32.299 160.621 31.9373 160.988 31.6801C161.347 31.4228 161.803 31.2862 162.349 31.2862C163.042 31.2862 163.604 31.4711 164.028 31.8489L163.571 32.709C163.425 32.5884 163.237 32.4839 163.001 32.4035C162.764 32.3231 162.536 32.2829 162.308 32.2829C161.844 32.2829 161.615 32.4357 161.615 32.7411C161.615 32.8778 161.705 32.9983 161.876 33.0948C162.047 33.1913 162.259 33.2877 162.504 33.3842C162.748 33.4806 162.984 33.5691 163.229 33.6655C163.473 33.762 163.677 33.9147 163.84 34.1398C164.003 34.3568 164.085 34.6221 164.085 34.9275C164.085 35.3616 163.913 35.7233 163.563 36.0127C163.221 36.3021 162.764 36.4387 162.194 36.4387C161.395 36.4387 160.744 36.1976 160.238 35.7153L160.246 35.7233Z" fill="white"/>
<path d="M165.363 34.5258V32.4519H164.719V31.4793H165.395V30.0726H166.609V31.4793H167.742V32.4519H166.609V34.3731C166.609 34.7268 166.715 34.9679 166.919 35.1046C167.123 35.2412 167.351 35.3055 167.595 35.3055C167.677 35.3055 167.758 35.3055 167.824 35.2894V36.3585C167.628 36.3746 167.498 36.3907 167.441 36.3907C167.269 36.3907 167.106 36.3826 166.952 36.3585C166.797 36.3344 166.617 36.2862 166.414 36.2058C166.21 36.1254 166.039 36.029 165.892 35.9004C165.746 35.7717 165.623 35.5949 165.517 35.3618C165.411 35.1287 165.363 34.8554 165.363 34.5339V34.5258Z" fill="white"/>
<path d="M13.6281 0.338805C19.5931 1.50435 24.507 7.70183 23.0565 13.5376C21.7934 18.6017 16.7247 25.7477 13.5466 30.016C13.0495 30.6831 12.3487 31.7683 11.7945 32.3229C11.7456 32.3712 11.7293 32.4676 11.6234 32.4435C8.63272 28.5209 5.66648 24.4776 3.23808 20.1852C0.548902 15.4346 -1.53725 11.2306 1.48604 5.97361C3.0588 3.23257 6.48953 0.957749 9.68394 0.338805C10.7759 0.12981 12.6176 0.137849 13.6281 0.338805ZM11.273 4.96883C6.43249 5.25017 3.43365 10.4107 5.78872 14.6388C8.29046 19.1322 15.0786 19.1081 17.5396 14.5906C20.0006 10.0811 16.415 4.67141 11.273 4.96883Z" fill="#00AFE3"/>
<path d="M5.20232 34.1155L17.9066 34.0994C19.8624 34.2763 20.0172 36.8003 18.1185 37.1861H5.19417C3.38509 36.8244 3.41769 34.4772 5.21047 34.1155H5.20232Z" fill="#00AFE3"/>
</g>
<defs>
<clipPath id="clip0_265_2828">
<rect width="168" height="37" fill="white" transform="translate(0 0.185547)"/>
</clipPath>
</defs>
</svg>
