<svg width="11" height="9" viewBox="0 0 11 9" fill="none" xmlns="http://www.w3.org/2000/svg">
<path d="M10.5449 4.35662C10.6537 4.46547 10.7148 4.61308 10.7148 4.767C10.7148 4.92091 10.6537 5.06852 10.5449 5.17737L7.26129 8.46098C7.20775 8.51642 7.1437 8.56064 7.07288 8.59106C7.00206 8.62148 6.92589 8.63749 6.84882 8.63816C6.77175 8.63883 6.69532 8.62414 6.62398 8.59496C6.55265 8.56577 6.48784 8.52267 6.43334 8.46817C6.37884 8.41367 6.33574 8.34887 6.30655 8.27753C6.27737 8.20619 6.26268 8.12976 6.26335 8.05269C6.26402 7.97562 6.28003 7.89945 6.31045 7.82863C6.34087 7.75782 6.3851 7.69377 6.44053 7.64022L8.73331 5.34745L1.04641 5.34744C0.892468 5.34744 0.744827 5.28629 0.635972 5.17743C0.527117 5.06858 0.465963 4.92094 0.465963 4.76699C0.465963 4.61305 0.527117 4.46541 0.635972 4.35656C0.744827 4.2477 0.892468 4.18654 1.04641 4.18654L8.73331 4.18655L6.44053 1.89377C6.3348 1.78429 6.27629 1.63767 6.27762 1.48548C6.27894 1.33329 6.33998 1.1877 6.4476 1.08008C6.55523 0.972462 6.70081 0.911416 6.853 0.910094C7.00519 0.908771 7.15182 0.967277 7.26129 1.07301L10.5449 4.35662Z" fill="white"/>
</svg>
