<svg width="168" height="38" viewBox="0 0 168 38" fill="none" xmlns="http://www.w3.org/2000/svg">
<path d="M36.2188 3.86049C36.2188 2.36537 37.2048 1.3606 38.7531 1.3606C40.3014 1.3606 41.2874 2.36537 41.2874 3.86049V19.5109H49.7624C51.2129 19.5109 52.3945 20.2424 52.3945 21.617C52.3945 22.9915 51.2211 23.723 49.7624 23.723H39.185C37.3922 23.723 36.2188 23.0236 36.2188 20.7971V3.86049Z" fill="#00AFE3"/>
<path d="M62.2395 7.37305C67.683 7.37305 70.5922 11.0385 70.5922 15.7328C70.5922 20.186 68.392 24.1247 62.2395 24.1247C56.087 24.1247 53.8867 20.186 53.8867 15.7328C53.8867 11.0304 56.7959 7.37305 62.2395 7.37305ZM62.2395 20.8291C64.9286 20.8291 66.0776 18.4497 66.0776 15.7328C66.0776 12.831 64.8716 10.6687 62.2395 10.6687C59.6073 10.6687 58.4013 12.839 58.4013 15.7328C58.4013 18.4497 59.5421 20.8291 62.2395 20.8291Z" fill="#00AFE3"/>
<path d="M81.1039 7.37305C84.8769 7.37305 87.6964 9.47906 87.6964 11.5529C87.6964 12.831 86.7348 13.4741 85.594 13.4741C83.4589 13.4741 84.2331 10.8536 80.9816 10.8536C79.2215 10.8536 77.1435 12.0433 77.1435 16.0704C77.1435 18.8436 78.4717 20.6442 80.949 20.6442C84.1027 20.6442 83.4263 17.7745 85.8059 17.7745C86.9467 17.7745 87.6964 18.5944 87.6964 19.4867C87.6964 21.44 85.4718 24.1247 80.8268 24.1247C75.261 24.1247 72.6289 20.7406 72.6289 16.0704C72.6289 10.942 75.5707 7.37305 81.1039 7.37305Z" fill="#00AFE3"/>
<path d="M105.11 19.4226C105.11 21.2875 105.574 21.7135 105.574 22.4128C105.574 23.4176 104.613 24.125 103.529 24.125C101.581 24.125 100.929 22.9031 100.872 21.5286C99.1121 23.4497 97.0667 24.125 94.6872 24.125C92.1203 24.125 89.5859 22.3887 89.5859 19.5753C89.5859 15.8858 92.4299 14.8488 95.8933 14.4469L98.6476 14.1415C99.7315 14.0209 100.595 13.7717 100.595 12.4936C100.595 11.2155 99.267 10.6609 97.7512 10.6609C94.4101 10.6609 94.3205 13.1045 92.5196 13.1045C91.3787 13.1045 90.6046 12.3088 90.6046 11.3924C90.6046 9.62398 93.1389 7.36523 97.7838 7.36523C102.111 7.36523 105.118 8.73977 105.118 11.939V19.4146L105.11 19.4226ZM100.595 16.2234C100.098 16.6816 99.1692 16.8343 98.6476 16.9227L97.0097 17.1638C95.1191 17.4371 94.1005 18.0159 94.1005 19.3583C94.1005 20.3631 95.0621 21.191 96.6022 21.191C99.0795 21.191 100.595 19.6075 100.595 17.9596V16.2234Z" fill="#00AFE3"/>
<path d="M109.25 3.58719C109.25 2.12423 110.146 1.3606 111.507 1.3606C112.868 1.3606 113.765 2.12423 113.765 3.58719V21.8983C113.765 23.3612 112.868 24.1249 111.507 24.1249C110.146 24.1249 109.25 23.3612 109.25 21.8983V3.58719Z" fill="#00AFE3"/>
<path d="M120.113 1.23999C121.409 1.23999 122.468 2.27692 122.468 3.56304C122.468 4.84916 121.417 5.88609 120.113 5.88609C118.809 5.88609 117.758 4.84916 117.758 3.56304C117.758 2.27692 118.809 1.23999 120.113 1.23999ZM117.856 9.59976C117.856 8.4101 118.353 7.37316 120.113 7.37316C121.873 7.37316 122.37 8.4101 122.37 9.59976V21.8983C122.37 23.0879 121.873 24.1248 120.113 24.1248C118.353 24.1248 117.856 23.0879 117.856 21.8983V9.59976Z" fill="#00AFE3"/>
<path d="M132.272 7.37327C135.703 7.37327 139.174 8.71566 139.174 10.7574C139.174 11.7943 138.465 12.7107 137.283 12.7107C135.523 12.7107 135.458 10.6689 132.614 10.6689C131.033 10.6689 130.015 11.095 130.015 12.0435C130.015 13.0804 131.033 13.3216 132.427 13.627L134.317 14.053C136.884 14.6318 139.948 15.7009 139.948 18.8117C139.948 22.445 136.387 24.125 132.989 24.125C128.906 24.125 125.5 22.3244 125.5 20.13C125.5 19.1573 126.054 18.2651 127.325 18.2651C129.273 18.2651 129.46 21.0142 132.802 21.0142C134.407 21.0142 135.434 20.3148 135.434 19.3985C135.434 18.2731 134.448 18.0882 132.834 17.6863L130.178 17.0433C127.545 16.4002 125.508 15.3311 125.508 12.3409C125.508 8.70762 129.159 7.36523 132.28 7.36523L132.272 7.37327Z" fill="#00AFE3"/>
<path d="M143.989 10.701H143.215C141.943 10.701 141.422 10.2106 141.422 9.23802C141.422 8.26539 141.952 7.77506 143.215 7.77506H143.989V5.05813C143.989 3.59518 144.885 2.83154 146.246 2.83154C147.607 2.83154 148.503 3.59518 148.503 5.05813V7.77506H149.864C151.193 7.77506 151.91 8.16893 151.91 9.23802C151.91 10.3071 151.201 10.701 149.864 10.701H148.503V19.6154C148.503 20.2906 148.878 20.6523 149.677 20.6523H150.329C151.315 20.6523 151.91 21.1989 151.91 22.1474C151.91 23.4255 150.793 24.1329 148.634 24.1329C145.358 24.1329 143.997 22.7905 143.997 20.162V10.701H143.989Z" fill="#00AFE3"/>
<path d="M160.328 7.37327C163.759 7.37327 167.231 8.71566 167.231 10.7574C167.231 11.7943 166.522 12.7107 165.34 12.7107C163.58 12.7107 163.515 10.6689 160.671 10.6689C159.09 10.6689 158.071 11.095 158.071 12.0435C158.071 13.0804 159.09 13.3216 160.483 13.627L162.374 14.053C164.941 14.6318 168.005 15.7009 168.005 18.8117C168.005 22.445 164.444 24.125 161.046 24.125C156.963 24.125 153.557 22.3244 153.557 20.13C153.557 19.1573 154.111 18.2651 155.382 18.2651C157.33 18.2651 157.517 21.0142 160.858 21.0142C162.464 21.0142 163.49 20.3148 163.49 19.3985C163.49 18.2731 162.504 18.0882 160.891 17.6863L158.234 17.0433C155.602 16.4002 153.565 15.3311 153.565 12.3409C153.565 8.70762 157.216 7.36523 160.337 7.36523L160.328 7.37327Z" fill="#00AFE3"/>
<path d="M36.2754 36.6484V29.7998H40.2684V30.8689H37.5385V32.8061H39.8365V33.8752H37.5385V36.6403H36.2754V36.6484Z" fill="black"/>
<path d="M41.2129 30.8849V29.7917H42.4515V30.8849H41.2129ZM41.2129 36.6484V31.729H42.4515V36.6484H41.2129Z" fill="black"/>
<path d="M43.7812 36.6484V31.729H44.971V32.3077L44.9547 32.6534H44.971C45.1014 32.3881 45.3133 32.147 45.6148 31.938C45.9163 31.721 46.2911 31.6165 46.7393 31.6165C47.8965 31.6165 48.4832 32.2434 48.4832 33.4894V36.6564H47.2446V33.7466C47.2446 33.417 47.1875 33.1678 47.0735 32.999C46.9594 32.8302 46.7556 32.7418 46.4623 32.7418C46.0304 32.7418 45.6881 32.8945 45.4192 33.208C45.1584 33.5135 45.0199 33.8993 45.0199 34.3575V36.6645H43.7812V36.6484Z" fill="black"/>
<path d="M49.4847 34.1887C49.4847 33.417 49.6966 32.7981 50.1122 32.3238C50.5359 31.8496 51.0738 31.6164 51.742 31.6164C52.4102 31.6164 52.8828 31.8335 53.2007 32.2595H53.217C53.2007 32.1791 53.2007 32.0827 53.2007 31.9701V29.7998H54.4312V36.6484H53.2659V36.2224L53.2821 35.9169H53.2659C53.1192 36.1741 52.8991 36.3831 52.6221 36.5358C52.345 36.6886 52.0354 36.769 51.6849 36.769C51.0167 36.769 50.487 36.5278 50.0796 36.0536C49.6721 35.5793 49.4766 34.9604 49.4766 34.1887H49.4847ZM50.7397 34.1887C50.7397 34.6549 50.8537 35.0247 51.0819 35.306C51.3101 35.5873 51.6116 35.732 51.9783 35.732C52.3287 35.732 52.6302 35.6034 52.8665 35.3381C53.1029 35.0729 53.2251 34.6871 53.2251 34.1726C53.2251 33.7627 53.1192 33.409 52.8991 33.1035C52.6791 32.7981 52.3776 32.6534 51.9783 32.6534C51.6279 32.6534 51.3264 32.79 51.0901 33.0633C50.8537 33.3366 50.7315 33.7064 50.7315 34.1806L50.7397 34.1887Z" fill="black"/>
<path d="M58.3926 36.6484V29.7998H59.6557V35.5793H62.6545V36.6484H58.3926Z" fill="black"/>
<path d="M63.8022 36.0375C63.2725 35.5552 63.0117 34.9362 63.0117 34.1887C63.0117 33.4411 63.2725 32.8302 63.8022 32.3399C64.3319 31.8576 64.9756 31.6084 65.7416 31.6084C66.5076 31.6084 67.1596 31.8495 67.6892 32.3399C68.2189 32.8222 68.4879 33.4411 68.4879 34.1887C68.4879 34.9362 68.2271 35.5471 67.6974 36.0375C67.1677 36.5198 66.5239 36.7689 65.7498 36.7689C64.9756 36.7689 64.3319 36.5278 63.8022 36.0375ZM64.2667 34.1887C64.2667 34.6388 64.4052 35.0086 64.6904 35.2899C64.9756 35.5793 65.326 35.7159 65.7416 35.7159C66.1572 35.7159 66.5076 35.5712 66.801 35.2899C67.0862 35.0005 67.2329 34.6388 67.2329 34.1887C67.2329 33.7385 67.0862 33.3768 66.801 33.0874C66.5076 32.7981 66.1572 32.6534 65.7498 32.6534C65.3423 32.6534 64.9919 32.7981 64.7067 33.0874C64.4215 33.3768 64.2748 33.7466 64.2748 34.1887H64.2667Z" fill="black"/>
<path d="M69.2051 34.1887C69.2051 33.4653 69.4577 32.8624 69.9548 32.364C70.4519 31.8656 71.1038 31.6165 71.9187 31.6165C72.2773 31.6165 72.6277 31.6808 72.9781 31.8013C73.3203 31.9219 73.6137 32.1068 73.8419 32.3479L73.2877 33.1839C72.9292 32.8302 72.4973 32.6534 72.0002 32.6534C71.552 32.6534 71.1853 32.7981 70.9082 33.0955C70.6312 33.3849 70.4845 33.7466 70.4845 34.1807C70.4845 34.6147 70.6312 34.9764 70.9164 35.2739C71.2016 35.5713 71.5764 35.724 72.0409 35.724C72.5788 35.724 73.0677 35.515 73.5078 35.097L73.9885 35.9651C73.7522 36.2063 73.4507 36.4072 73.084 36.5519C72.7173 36.6966 72.3343 36.769 71.935 36.769C71.1282 36.769 70.4763 36.5198 69.9711 36.0294C69.474 35.5391 69.2214 34.9282 69.2214 34.1887H69.2051Z" fill="black"/>
<path d="M74.4863 35.29C74.4863 34.9443 74.5841 34.6469 74.7715 34.4058C74.9671 34.1646 75.2197 33.9797 75.5375 33.8672C75.8554 33.7547 76.1569 33.6743 76.4584 33.6341C76.7518 33.5859 77.0696 33.5698 77.3955 33.5698H77.6074V33.5055C77.6074 32.9267 77.2977 32.6373 76.6703 32.6373C76.2139 32.6373 75.7494 32.7981 75.2849 33.1116L74.8286 32.2354C75.0405 32.0666 75.3338 31.9219 75.7005 31.8094C76.0672 31.6888 76.4258 31.6326 76.7843 31.6326C77.4363 31.6326 77.9415 31.8014 78.3082 32.147C78.6749 32.4927 78.8542 32.975 78.8542 33.5859V36.6645H77.697V36.2465L77.7296 35.8928H77.7133C77.5585 36.1581 77.3385 36.3671 77.0614 36.5359C76.7843 36.6967 76.4747 36.7851 76.1406 36.7851C75.6761 36.7851 75.2849 36.6484 74.9753 36.3751C74.6575 36.1018 74.5026 35.7481 74.5026 35.306L74.4863 35.29ZM75.725 35.1774C75.725 35.3543 75.7902 35.499 75.9287 35.6276C76.0591 35.7562 76.2465 35.8205 76.4828 35.8205C76.8169 35.8205 77.0859 35.6838 77.3059 35.4186C77.5259 35.1533 77.6318 34.8559 77.6318 34.5344V34.3977H77.42C76.2954 34.3977 75.7413 34.6549 75.7413 35.1774H75.725Z" fill="black"/>
<path d="M80.1253 35.1131V29.7998H81.3558V34.9282C81.3558 35.1854 81.3966 35.3623 81.4781 35.4587C81.5596 35.5552 81.6899 35.6034 81.8611 35.6034C81.9426 35.6034 81.9996 35.6034 82.0485 35.5954V36.6645C81.8692 36.6805 81.7388 36.6966 81.6573 36.6966C81.4536 36.6966 81.2743 36.6805 81.1195 36.6403C80.9647 36.6002 80.8017 36.5358 80.6387 36.4394C80.4757 36.3429 80.3454 36.1741 80.2557 35.9491C80.1661 35.724 80.1172 35.4426 80.1172 35.1131H80.1253Z" fill="black"/>
<path d="M85.5684 36.6484V29.7998H88.2494C88.9013 29.7998 89.431 30.0088 89.8466 30.4187C90.2622 30.8287 90.4659 31.3673 90.4659 32.0264C90.4659 32.6855 90.2622 33.2321 89.8466 33.6501C89.4391 34.0681 88.9013 34.2851 88.2494 34.2851H86.8315V36.6484H85.5684ZM86.8315 33.2H88.0131C88.3798 33.2 88.665 33.0955 88.8687 32.8784C89.0724 32.6695 89.1784 32.3801 89.1784 32.0184C89.1784 31.6566 89.0724 31.3833 88.8687 31.1743C88.665 30.9653 88.3879 30.8609 88.0294 30.8609H86.8233V33.1919L86.8315 33.2Z" fill="black"/>
<path d="M91.3477 36.6482V31.7288H92.5374V32.597L92.5211 32.9346H92.5374C92.6515 32.5729 92.8552 32.2754 93.1404 32.0263C93.4257 31.7851 93.7516 31.6565 94.1183 31.6565C94.1672 31.6565 94.2487 31.6565 94.3546 31.6726V32.8783C94.2895 32.8622 94.1917 32.8622 94.0531 32.8622C93.5723 32.8622 93.2056 33.0391 92.9612 33.3847C92.7167 33.7304 92.5863 34.1564 92.5863 34.6548V36.6402H91.3477V36.6482Z" fill="black"/>
<path d="M95.601 36.0375C95.0713 35.5552 94.8105 34.9362 94.8105 34.1887C94.8105 33.4411 95.0713 32.8302 95.601 32.3399C96.1307 31.8576 96.7745 31.6084 97.5405 31.6084C98.3065 31.6084 98.9584 31.8495 99.4881 32.3399C100.018 32.8222 100.287 33.4411 100.287 34.1887C100.287 34.9362 100.026 35.5471 99.4962 36.0375C98.9665 36.5198 98.3228 36.7689 97.5486 36.7689C96.7745 36.7689 96.1307 36.5278 95.601 36.0375ZM96.0736 34.1887C96.0736 34.6388 96.2122 35.0086 96.4974 35.2899C96.7826 35.5793 97.133 35.7159 97.5486 35.7159C97.9642 35.7159 98.3146 35.5712 98.608 35.2899C98.8932 35.0005 99.0399 34.6388 99.0399 34.1887C99.0399 33.7385 98.8932 33.3768 98.608 33.0874C98.3146 32.7981 97.9642 32.6534 97.5568 32.6534C97.1493 32.6534 96.7989 32.7981 96.5137 33.0874C96.2285 33.3768 96.0818 33.7466 96.0818 34.1887H96.0736Z" fill="black"/>
<path d="M101.524 36.6483V32.7739H100.904V31.8013H101.524V31.5923C101.524 31.2868 101.573 31.0135 101.678 30.7884C101.776 30.5634 101.898 30.3865 102.045 30.2579C102.192 30.1293 102.363 30.0328 102.559 29.9525C102.754 29.8721 102.933 29.8238 103.088 29.7997C103.243 29.7756 103.406 29.7676 103.569 29.7676C103.748 29.7676 103.895 29.7756 103.993 29.7997V30.8447C103.944 30.8286 103.854 30.8286 103.74 30.8286C103.096 30.8286 102.77 31.0939 102.77 31.6324V31.8173H103.846V32.79H102.77V36.6644H101.532L101.524 36.6483Z" fill="black"/>
<path d="M104.336 34.1887C104.336 33.4331 104.572 32.8142 105.045 32.3319C105.518 31.8496 106.129 31.6165 106.878 31.6165C107.571 31.6165 108.109 31.8335 108.5 32.2756C108.891 32.7177 109.087 33.2723 109.087 33.9475C109.087 34.0601 109.071 34.2128 109.046 34.4218H105.615C105.656 34.8318 105.811 35.1533 106.096 35.3783C106.373 35.6034 106.715 35.724 107.115 35.724C107.612 35.724 108.084 35.5472 108.541 35.1854L109.03 36.0616C108.785 36.2786 108.476 36.4555 108.117 36.576C107.759 36.7047 107.392 36.7609 107.025 36.7609C106.227 36.7609 105.575 36.5117 105.078 36.0134C104.58 35.515 104.336 34.9041 104.336 34.1887ZM105.648 33.5778H107.848C107.848 33.2563 107.742 32.999 107.563 32.8142C107.376 32.6293 107.139 32.5328 106.854 32.5328C106.544 32.5328 106.275 32.6293 106.064 32.8142C105.852 33.0071 105.713 33.2563 105.656 33.5697L105.648 33.5778Z" fill="black"/>
<path d="M109.723 36.0374L110.277 35.2256C110.676 35.5873 111.149 35.7641 111.695 35.7641C111.915 35.7641 112.086 35.724 112.208 35.6355C112.331 35.5471 112.388 35.4265 112.388 35.2738C112.388 35.1291 112.306 35.0086 112.135 34.9041C111.964 34.7996 111.76 34.7031 111.524 34.6066C111.288 34.5102 111.043 34.4137 110.799 34.3092C110.554 34.2047 110.342 34.052 110.171 33.843C110 33.634 109.919 33.3768 109.919 33.0794C109.919 32.6132 110.098 32.2514 110.465 31.9942C110.823 31.737 111.279 31.6003 111.825 31.6003C112.518 31.6003 113.08 31.7852 113.504 32.163L113.048 33.0231C112.901 32.9025 112.714 32.798 112.477 32.7177C112.241 32.6373 112.013 32.5971 111.785 32.5971C111.32 32.5971 111.092 32.7498 111.092 33.0553C111.092 33.1919 111.182 33.3125 111.353 33.4089C111.524 33.5054 111.736 33.6019 111.98 33.6983C112.225 33.7948 112.461 33.8832 112.706 33.9797C112.95 34.0761 113.154 34.2288 113.317 34.4539C113.48 34.671 113.561 34.9362 113.561 35.2417C113.561 35.6757 113.39 36.0374 113.04 36.3268C112.697 36.6162 112.241 36.7529 111.671 36.7529C110.872 36.7529 110.22 36.5117 109.715 36.0294L109.723 36.0374Z" fill="black"/>
<path d="M114.188 36.0374L114.742 35.2256C115.141 35.5873 115.614 35.7641 116.16 35.7641C116.38 35.7641 116.551 35.724 116.673 35.6355C116.796 35.5471 116.853 35.4265 116.853 35.2738C116.853 35.1291 116.771 35.0086 116.6 34.9041C116.429 34.7996 116.225 34.7031 115.989 34.6066C115.752 34.5102 115.508 34.4137 115.264 34.3092C115.019 34.2047 114.807 34.052 114.636 33.843C114.465 33.634 114.383 33.3768 114.383 33.0794C114.383 32.6132 114.563 32.2514 114.929 31.9942C115.288 31.737 115.744 31.6003 116.29 31.6003C116.983 31.6003 117.545 31.7852 117.969 32.163L117.513 33.0231C117.366 32.9025 117.179 32.798 116.942 32.7177C116.706 32.6373 116.478 32.5971 116.25 32.5971C115.785 32.5971 115.557 32.7498 115.557 33.0553C115.557 33.1919 115.647 33.3125 115.818 33.4089C115.989 33.5054 116.201 33.6019 116.445 33.6983C116.69 33.7948 116.926 33.8832 117.17 33.9797C117.415 34.0761 117.619 34.2288 117.782 34.4539C117.945 34.671 118.026 34.9362 118.026 35.2417C118.026 35.6757 117.855 36.0374 117.504 36.3268C117.162 36.6162 116.706 36.7529 116.135 36.7529C115.337 36.7529 114.685 36.5117 114.18 36.0294L114.188 36.0374Z" fill="black"/>
<path d="M119.062 30.8849V29.7917H120.301V30.8849H119.062ZM119.062 36.6484V31.729H120.301V36.6484H119.062Z" fill="black"/>
<path d="M122.124 36.0375C121.595 35.5552 121.334 34.9362 121.334 34.1887C121.334 33.4411 121.595 32.8302 122.124 32.3399C122.654 31.8576 123.298 31.6084 124.064 31.6084C124.83 31.6084 125.482 31.8495 126.012 32.3399C126.541 32.8222 126.81 33.4411 126.81 34.1887C126.81 34.9362 126.549 35.5471 126.02 36.0375C125.49 36.5198 124.846 36.7689 124.072 36.7689C123.298 36.7689 122.654 36.5278 122.124 36.0375ZM122.589 34.1887C122.589 34.6388 122.727 35.0086 123.013 35.2899C123.298 35.5793 123.648 35.7159 124.064 35.7159C124.48 35.7159 124.83 35.5712 125.123 35.2899C125.408 35.0005 125.555 34.6388 125.555 34.1887C125.555 33.7385 125.408 33.3768 125.123 33.0874C124.83 32.7981 124.48 32.6534 124.072 32.6534C123.665 32.6534 123.314 32.7981 123.029 33.0874C122.744 33.3768 122.597 33.7466 122.597 34.1887H122.589Z" fill="black"/>
<path d="M127.828 36.6484V31.729H129.018V32.3077L129.002 32.6534H129.018C129.148 32.3881 129.36 32.147 129.662 31.938C129.963 31.721 130.338 31.6165 130.786 31.6165C131.943 31.6165 132.53 32.2434 132.53 33.4894V36.6564H131.291V33.7466C131.291 33.417 131.234 33.1678 131.12 32.999C131.006 32.8302 130.803 32.7418 130.509 32.7418C130.077 32.7418 129.735 32.8945 129.466 33.208C129.205 33.5135 129.067 33.8993 129.067 34.3575V36.6645H127.828V36.6484Z" fill="black"/>
<path d="M133.438 35.29C133.438 34.9443 133.535 34.6469 133.723 34.4058C133.918 34.1646 134.171 33.9797 134.489 33.8672C134.807 33.7547 135.108 33.6743 135.41 33.6341C135.703 33.5859 136.021 33.5698 136.347 33.5698H136.559V33.5055C136.559 32.9267 136.249 32.6373 135.621 32.6373C135.165 32.6373 134.701 32.7981 134.236 33.1116L133.78 32.2354C133.992 32.0666 134.285 31.9219 134.652 31.8094C135.018 31.6888 135.377 31.6326 135.736 31.6326C136.387 31.6326 136.893 31.8014 137.259 32.147C137.626 32.4927 137.805 32.975 137.805 33.5859V36.6645H136.648V36.2465L136.681 35.8928H136.665C136.51 36.1581 136.29 36.3671 136.013 36.5359C135.736 36.6967 135.426 36.7851 135.092 36.7851C134.627 36.7851 134.236 36.6484 133.926 36.3751C133.609 36.1018 133.454 35.7481 133.454 35.306L133.438 35.29ZM134.668 35.1774C134.668 35.3543 134.733 35.499 134.872 35.6276C135.002 35.7562 135.19 35.8205 135.426 35.8205C135.76 35.8205 136.029 35.6838 136.249 35.4186C136.469 35.1533 136.575 34.8559 136.575 34.5344V34.3977H136.363C135.238 34.3977 134.684 34.6549 134.684 35.1774H134.668Z" fill="black"/>
<path d="M139.067 35.1131V29.7998H140.297V34.9282C140.297 35.1854 140.338 35.3623 140.419 35.4587C140.501 35.5552 140.631 35.6034 140.802 35.6034C140.884 35.6034 140.941 35.6034 140.99 35.5954V36.6645C140.811 36.6805 140.68 36.6966 140.599 36.6966C140.395 36.6966 140.216 36.6805 140.061 36.6403C139.906 36.6002 139.743 36.5358 139.58 36.4394C139.417 36.3429 139.287 36.1741 139.197 35.9491C139.107 35.724 139.059 35.4426 139.059 35.1131H139.067Z" fill="black"/>
<path d="M141.494 36.0374L142.049 35.2256C142.448 35.5873 142.921 35.7641 143.467 35.7641C143.687 35.7641 143.858 35.724 143.98 35.6355C144.102 35.5471 144.159 35.4265 144.159 35.2738C144.159 35.1291 144.078 35.0086 143.907 34.9041C143.735 34.7996 143.532 34.7031 143.295 34.6066C143.059 34.5102 142.815 34.4137 142.57 34.3092C142.326 34.2047 142.114 34.052 141.943 33.843C141.772 33.634 141.69 33.3768 141.69 33.0794C141.69 32.6132 141.869 32.2514 142.236 31.9942C142.595 31.737 143.051 31.6003 143.597 31.6003C144.29 31.6003 144.852 31.7852 145.276 32.163L144.819 33.0231C144.673 32.9025 144.485 32.798 144.249 32.7177C144.013 32.6373 143.784 32.5971 143.556 32.5971C143.092 32.5971 142.864 32.7498 142.864 33.0553C142.864 33.1919 142.953 33.3125 143.124 33.4089C143.295 33.5054 143.507 33.6019 143.752 33.6983C143.996 33.7948 144.233 33.8832 144.477 33.9797C144.721 34.0761 144.925 34.2288 145.088 34.4539C145.251 34.671 145.333 34.9362 145.333 35.2417C145.333 35.6757 145.162 36.0374 144.811 36.3268C144.469 36.6162 144.013 36.7529 143.442 36.7529C142.643 36.7529 141.992 36.5117 141.486 36.0294L141.494 36.0374Z" fill="black"/>
<path d="M146.344 34.4297V33.3606H149.277V34.4297H146.344Z" fill="black"/>
<path d="M150.762 36.6484V29.7998H154.755V30.8689H152.025V32.8061H154.323V33.8752H152.025V36.6403H150.762V36.6484Z" fill="black"/>
<path d="M155.014 35.29C155.014 34.9443 155.111 34.6469 155.299 34.4058C155.494 34.1646 155.747 33.9797 156.065 33.8672C156.383 33.7547 156.684 33.6743 156.986 33.6341C157.279 33.5859 157.597 33.5698 157.923 33.5698H158.135V33.5055C158.135 32.9267 157.825 32.6373 157.198 32.6373C156.741 32.6373 156.277 32.7981 155.812 33.1116L155.356 32.2354C155.568 32.0666 155.861 31.9219 156.228 31.8094C156.595 31.6888 156.953 31.6326 157.312 31.6326C157.964 31.6326 158.469 31.8014 158.836 32.147C159.202 32.4927 159.382 32.975 159.382 33.5859V36.6645H158.224V36.2465L158.257 35.8928H158.241C158.086 36.1581 157.866 36.3671 157.589 36.5359C157.312 36.6967 157.002 36.7851 156.668 36.7851C156.203 36.7851 155.812 36.6484 155.503 36.3751C155.185 36.1018 155.03 35.7481 155.03 35.306L155.014 35.29ZM156.252 35.1774C156.252 35.3543 156.318 35.499 156.456 35.6276C156.586 35.7562 156.774 35.8205 157.01 35.8205C157.344 35.8205 157.613 35.6838 157.833 35.4186C158.053 35.1533 158.159 34.8559 158.159 34.5344V34.3977H157.947C156.823 34.3977 156.269 34.6549 156.269 35.1774H156.252Z" fill="black"/>
<path d="M160.246 36.0374L160.801 35.2256C161.2 35.5873 161.673 35.7641 162.218 35.7641C162.439 35.7641 162.61 35.724 162.732 35.6355C162.854 35.5471 162.911 35.4265 162.911 35.2738C162.911 35.1291 162.83 35.0086 162.659 34.9041C162.487 34.7996 162.284 34.7031 162.047 34.6066C161.811 34.5102 161.567 34.4137 161.322 34.3092C161.078 34.2047 160.866 34.052 160.695 33.843C160.523 33.634 160.442 33.3768 160.442 33.0794C160.442 32.6132 160.621 32.2514 160.988 31.9942C161.347 31.737 161.803 31.6003 162.349 31.6003C163.042 31.6003 163.604 31.7852 164.028 32.163L163.571 33.0231C163.425 32.9025 163.237 32.798 163.001 32.7177C162.764 32.6373 162.536 32.5971 162.308 32.5971C161.844 32.5971 161.615 32.7498 161.615 33.0553C161.615 33.1919 161.705 33.3125 161.876 33.4089C162.047 33.5054 162.259 33.6019 162.504 33.6983C162.748 33.7948 162.984 33.8832 163.229 33.9797C163.473 34.0761 163.677 34.2288 163.84 34.4539C164.003 34.671 164.085 34.9362 164.085 35.2417C164.085 35.6757 163.913 36.0374 163.563 36.3268C163.221 36.6162 162.764 36.7529 162.194 36.7529C161.395 36.7529 160.744 36.5117 160.238 36.0294L160.246 36.0374Z" fill="black"/>
<path d="M165.363 34.8397V32.7658H164.719V31.7932H165.395V30.3865H166.609V31.7932H167.742V32.7658H166.609V34.6869C166.609 35.0406 166.715 35.2818 166.919 35.4184C167.123 35.5551 167.351 35.6194 167.595 35.6194C167.677 35.6194 167.758 35.6194 167.824 35.6033V36.6724C167.628 36.6885 167.498 36.7045 167.441 36.7045C167.269 36.7045 167.106 36.6965 166.952 36.6724C166.797 36.6483 166.617 36.6 166.414 36.5196C166.21 36.4393 166.039 36.3428 165.892 36.2142C165.746 36.0856 165.623 35.9087 165.517 35.6756C165.411 35.4425 165.363 35.1692 165.363 34.8477V34.8397Z" fill="black"/>
<path d="M13.6281 0.653258C19.5931 1.8188 24.507 8.01628 23.0565 13.852C21.7934 18.9161 16.7247 26.0621 13.5466 30.3304C13.0495 30.9976 12.3487 32.0828 11.7945 32.6374C11.7456 32.6856 11.7293 32.7821 11.6234 32.758C8.63272 28.8353 5.66648 24.7921 3.23808 20.4997C0.548902 15.7491 -1.53725 11.5451 1.48604 6.28806C3.0588 3.54702 6.48953 1.2722 9.68394 0.653258C10.7759 0.444264 12.6176 0.452302 13.6281 0.653258ZM11.273 5.28328C6.43249 5.56462 3.43365 10.7252 5.78872 14.9533C8.29046 19.4467 15.0786 19.4225 17.5396 14.9051C20.0006 10.3956 16.415 4.98587 11.273 5.28328Z" fill="#00AFE3"/>
<path d="M5.20232 34.4299L17.9066 34.4138C19.8624 34.5907 20.0172 37.1147 18.1185 37.5005H5.19417C3.38509 37.1388 3.41769 34.7916 5.21047 34.4299H5.20232Z" fill="#00AFE3"/>
</svg>
