<svg width="151" height="114" viewBox="0 0 151 114" fill="none" xmlns="http://www.w3.org/2000/svg">
<g clip-path="url(#clip0_6178_303)">
<path d="M0.0664062 59.8669L14.657 42.3535V69.9224L0.0664062 59.8669Z" fill="url(#paint0_linear_6178_303)"/>
<path d="M150.924 51.5907L136.324 69.0948V41.5352L150.924 51.5907Z" fill="url(#paint1_linear_6178_303)"/>
<path d="M139.842 74.4102V39.579C139.842 29.2069 133.396 19.9241 123.666 16.2929L84.2691 1.58207C78.6344 -0.522147 72.4305 -0.522147 66.7958 1.58207L27.3992 16.3023C17.669 19.9427 11.2227 29.2162 11.2227 39.5883V74.4195C11.2227 84.7916 17.669 94.0744 27.3992 97.7056L66.7865 112.426C72.4212 114.53 78.625 114.53 84.2598 112.426L123.647 97.7056C133.377 94.0651 139.824 84.7916 139.824 74.4195L139.842 74.4102Z" fill="#00AFE3"/>
<path d="M75.5369 110.453C72.9715 110.453 70.4526 109.996 68.0457 109.103L28.9197 94.3823C20.6262 91.2819 15.3086 83.2561 15.3086 74.4202V39.589C15.3086 30.7438 20.6168 22.7273 28.9197 19.6269L68.1763 4.90669C70.5832 4.01286 73.0368 3.55664 75.6022 3.55664C78.1677 3.55664 80.6586 4.01286 83.0562 4.90669L122.08 19.6269C130.373 22.7273 135.588 30.7531 135.588 39.589V74.4202C135.588 83.2654 130.364 91.2819 122.07 94.3823L82.8509 109.103C80.444 110.006 78.1024 110.453 75.5369 110.453Z" fill="#009DC1"/>
<path d="M75.5356 106.906C73.3992 106.906 71.2908 106.524 69.2944 105.779L30.2337 91.059C23.4888 88.5358 18.9922 81.8507 18.9922 74.4115V39.5802C18.9922 32.141 23.4888 25.4559 30.2244 22.9327L69.453 8.21253C71.4774 7.45836 73.4925 7.08594 75.6102 7.08594C77.7279 7.08594 79.8083 7.46768 81.814 8.21253L121.388 22.9327C128.263 25.5025 133.133 32.1968 133.133 39.5802V74.4115C133.133 81.7949 128.254 88.4799 121.369 91.059L81.8793 105.779C79.8736 106.524 77.6626 106.906 75.5356 106.906Z" fill="url(#paint2_linear_6178_303)"/>
<path d="M151 25.2969L0.0653033 59.8674L0 86.1608L150.944 51.5996L151 25.2969Z" fill="#009DC1"/>
<path d="M49.4825 42.8478L46.3106 43.453L46.5252 32.1405L43.3906 33.7606L43.4373 31.0698L49.4732 27.5969L49.7624 27.541L49.4732 42.8478H49.4825Z" fill="white"/>
<path d="M63.2071 33.9737C63.1698 36.0406 62.722 37.7166 61.8731 38.9921C61.0241 40.2677 59.8487 41.0591 58.3374 41.3477C56.8167 41.6364 55.6506 41.3012 54.839 40.3329C54.0273 39.3646 53.6449 37.8562 53.6822 35.7986L53.7381 33.0054C53.7755 30.9384 54.2233 29.2625 55.0722 27.9869C55.9211 26.702 57.1059 25.9199 58.6172 25.6313C60.1285 25.3427 61.2947 25.6778 62.1063 26.6462C62.9179 27.6145 63.3004 29.1321 63.2631 31.1898L63.2071 33.9737ZM60.1006 31.3387C60.1192 30.2401 60.0073 29.4394 59.7647 28.9459C59.5222 28.4524 59.1117 28.2569 58.5613 28.3686C58.0202 28.4711 57.619 28.7969 57.3578 29.3556C57.0966 29.9049 56.9567 30.6963 56.9194 31.7205L56.8447 35.631C56.8261 36.7762 56.938 37.5862 57.1806 38.0611C57.4231 38.5452 57.8243 38.7314 58.384 38.6197C58.9251 38.5173 59.3262 38.1821 59.5875 37.6141C59.858 37.0462 59.9979 36.2175 60.0259 35.1189L60.1006 31.3387Z" fill="white"/>
<path d="M74.3243 31.8409C74.287 33.9078 73.8392 35.5837 72.9903 36.8593C72.1413 38.1442 70.9659 38.9263 69.4546 39.2149C67.9339 39.5035 66.7678 39.1684 65.9562 38.2C65.1445 37.2317 64.762 35.7234 64.7994 33.6657L64.8553 30.8725C64.8927 28.8056 65.3404 27.1296 66.1894 25.8541C67.0383 24.5692 68.2231 23.7871 69.7344 23.4985C71.2457 23.2099 72.4119 23.545 73.2235 24.5133C74.0351 25.4817 74.4176 26.9993 74.3803 29.057L74.3243 31.8409ZM71.2271 29.1966C71.2457 28.098 71.1338 27.2972 70.8912 26.8038C70.6487 26.3103 70.2475 26.1148 69.6878 26.2265C69.1467 26.3289 68.7456 26.6548 68.4843 27.2134C68.2231 27.7721 68.0832 28.5542 68.0459 29.5784L67.9712 33.4888C67.9526 34.6341 68.0645 35.4441 68.3071 35.9189C68.5496 36.4031 68.9601 36.5893 69.5105 36.4776C70.0516 36.3752 70.4528 36.04 70.714 35.472C70.9845 34.9041 71.1245 34.0754 71.1524 32.9674L71.2271 29.1873V29.1966Z" fill="white"/>
<path d="M76.1001 25.4084C76.1188 24.4587 76.408 23.6487 76.9677 22.9597C77.5275 22.2707 78.2738 21.8424 79.1974 21.6655C80.1303 21.4886 80.8673 21.6283 81.4083 22.1031C81.9401 22.578 82.2013 23.3042 82.1826 24.2912L82.164 25.0453C82.1453 25.995 81.8561 26.805 81.3057 27.4847C80.7553 28.1644 80.009 28.5927 79.0854 28.7696C78.1618 28.9465 77.4342 28.7975 76.8838 28.3413C76.3333 27.8758 76.0721 27.1495 76.0908 26.1533V25.4084H76.1001ZM79.5425 35.9295L78.0872 35.3802L84.9814 22.1311L86.4367 22.6804L79.5425 35.9295ZM78.1152 25.8274C78.1152 26.1905 78.1898 26.4699 78.3671 26.6561C78.5443 26.8516 78.7962 26.9168 79.1134 26.8516C79.7664 26.7212 80.1116 26.1905 80.1209 25.2595V24.6356C80.1396 24.2725 80.0556 23.9932 79.8877 23.7977C79.7198 23.6022 79.4679 23.5277 79.1507 23.5928C78.8428 23.6487 78.6003 23.807 78.4137 24.0677C78.2271 24.3284 78.1338 24.6543 78.1245 25.0453L78.1059 25.8274H78.1152ZM82.4252 32.7732C82.4439 31.8235 82.7331 31.0042 83.3021 30.3245C83.8712 29.6448 84.6082 29.2165 85.5318 29.0396C86.4647 28.8627 87.2017 29.0024 87.7428 29.4679C88.2838 29.9241 88.5451 30.669 88.5264 31.6838V32.4194C88.4984 33.3691 88.2092 34.1884 87.6495 34.8681C87.0897 35.5478 86.3527 35.9761 85.4198 36.153C84.4963 36.3299 83.7686 36.1902 83.2182 35.7247C82.6678 35.2591 82.4065 34.5329 82.4252 33.5367V32.7825V32.7732ZM84.4403 33.1922C84.4403 33.518 84.5242 33.788 84.7201 33.9929C84.9161 34.1977 85.1586 34.2815 85.4478 34.2256C86.0542 34.1139 86.39 33.7229 86.4554 33.0711L86.4833 31.9911C86.4833 31.6187 86.4087 31.3393 86.2315 31.1531C86.0542 30.9576 85.8116 30.8924 85.4945 30.9576C85.1959 31.0135 84.9534 31.1717 84.7668 31.4138C84.5802 31.6652 84.4776 31.9632 84.4589 32.3356L84.4403 33.1922Z" fill="white"/>
<path d="M18.0816 77.3818L14.7231 78.1546L9.58281 69.4584L9.76007 79.2998L6.38295 80.0819L6.09375 64.2724L9.47087 63.4903L14.6018 72.1864L14.4246 62.3451L17.7924 61.5723L18.0816 77.3818Z" fill="white"/>
<path d="M28.7736 68.1735L23.4654 69.4025L23.5307 73.1827L29.7998 71.7395L29.8558 74.6724L20.2189 76.8976L19.9297 61.0881L29.5946 58.8535L29.6506 61.7957L23.3628 63.2482L23.4281 66.5814L28.7363 65.3524L28.783 68.1735H28.7736Z" fill="white"/>
<path d="M41.9642 65.9483L43.3916 55.6693L46.7407 54.8965L44.0539 71.3857L40.5555 72.1957L38.5218 63.6206L36.8519 73.0523L33.3628 73.8623L30.0977 58.7418L33.4561 57.969L35.238 67.5125L36.9825 57.159L39.8465 56.4979L41.9829 65.9576L41.9642 65.9483Z" fill="white"/>
<path d="M53.2423 69.2624L52.9531 53.4528L57.9815 52.289C59.782 51.87 61.1627 51.9259 62.1143 52.4566C63.0658 52.9873 63.5509 53.9556 63.5789 55.3801C63.5976 56.1995 63.439 56.935 63.1125 57.5868C62.7859 58.2478 62.3102 58.7878 61.6665 59.2068C62.4035 59.2534 62.9725 59.5327 63.3737 60.0355C63.7748 60.5383 63.9801 61.2179 63.9987 62.0745C64.0267 63.6201 63.6162 64.8863 62.758 65.864C61.8997 66.8416 60.6216 67.5399 58.9237 67.9402L53.2423 69.253V69.2624ZM56.4515 59.2627L58.2147 58.853C58.9517 58.6761 59.4741 58.3968 59.782 58.0337C60.0899 57.6613 60.2391 57.1864 60.2298 56.6091C60.2205 55.9388 60.0432 55.5012 59.698 55.287C59.3529 55.0729 58.8024 55.0543 58.0468 55.2219L56.3955 55.6036L56.4608 59.2627H56.4515ZM56.4982 61.7673L56.5635 65.5567L58.7745 65.0446C59.3808 64.905 59.8473 64.635 60.1738 64.2439C60.491 63.8529 60.6496 63.3687 60.6403 62.8007C60.6123 61.4786 60.0245 60.9572 58.8677 61.2179L56.5075 61.7673H56.4982Z" fill="white"/>
<path d="M76.6285 47.9883L76.8151 58.3325C76.8337 59.5056 76.6378 60.567 76.2087 61.526C75.7796 62.485 75.1638 63.2857 74.3429 63.9282C73.5219 64.5706 72.5517 65.0175 71.4229 65.2782C69.7157 65.6693 68.363 65.4831 67.3648 64.7103C66.3665 63.9375 65.8441 62.6805 65.7881 60.9488L65.6016 50.5301L68.9973 49.748L69.1932 60.2504C69.2585 61.9729 69.9862 62.6712 71.3762 62.3547C72.0759 62.1964 72.5983 61.8519 72.9529 61.3398C73.3074 60.8184 73.466 60.0735 73.4566 59.0959L73.27 48.7704L76.6472 47.9883H76.6285Z" fill="white"/>
<path d="M86.1637 57.4382C86.1544 56.8795 85.9678 56.4885 85.6133 56.2557C85.2588 56.0229 84.6431 55.846 83.7568 55.7157C82.8705 55.5853 82.1522 55.4271 81.5831 55.2501C79.7546 54.6636 78.8217 53.4904 78.7844 51.7307C78.7658 50.8555 78.9803 50.0269 79.4188 49.2541C79.8573 48.4813 80.4916 47.8109 81.3126 47.243C82.1336 46.675 83.0571 46.2747 84.0926 46.0419C85.1002 45.8091 86.0051 45.7998 86.8074 46.0233C87.6097 46.2467 88.2441 46.675 88.7012 47.3268C89.1583 47.9785 89.3915 48.7792 89.4102 49.7382L86.0424 50.511C86.0331 49.8686 85.8465 49.403 85.492 49.133C85.1375 48.863 84.6617 48.7885 84.0647 48.9282C83.4583 49.0679 82.9918 49.3286 82.6466 49.7103C82.3015 50.092 82.1336 50.511 82.1429 50.9765C82.1429 51.3862 82.3481 51.7028 82.7399 51.9449C83.1318 52.1869 83.8128 52.3731 84.783 52.4942C85.7532 52.6152 86.5555 52.8201 87.1899 53.0808C88.7199 53.7139 89.5035 54.8963 89.5315 56.6281C89.5595 58.0154 89.1117 59.2072 88.2068 60.2034C87.3018 61.209 86.0424 61.8887 84.4285 62.2611C83.2903 62.5218 82.2642 62.5311 81.3312 62.2797C80.3983 62.0376 79.6987 61.5628 79.2229 60.8738C78.7471 60.1848 78.4952 59.3189 78.4766 58.2761L81.863 57.494C81.8817 58.3413 82.0869 58.9186 82.4787 59.2351C82.8705 59.5424 83.5049 59.6075 84.3818 59.4027C84.9416 59.2724 85.3801 59.0396 85.6972 58.6951C86.0144 58.3506 86.173 57.9316 86.1637 57.4382Z" fill="white"/>
<path d="M94.9421 59.6357L91.5744 60.4085L91.2852 44.599L94.6529 43.8262L94.9421 59.6357Z" fill="white"/>
<path d="M108.976 56.394L105.618 57.1668L100.477 48.4706L100.655 58.312L97.2775 59.0941L96.9883 43.2845L100.365 42.5024L105.496 51.1986L105.319 41.3665L108.687 40.5938L108.976 56.4033V56.394Z" fill="white"/>
<path d="M119.676 47.1857L114.368 48.4147L114.433 52.1948L120.702 50.7517L120.758 53.6845L111.121 55.9098L110.832 40.1003L120.497 37.875L120.553 40.8172L114.265 42.2696L114.33 45.6029L119.639 44.3739L119.685 47.195L119.676 47.1857Z" fill="white"/>
<path d="M129.273 47.4948C129.264 46.9362 129.077 46.5451 128.723 46.3123C128.368 46.0796 127.752 45.9027 126.866 45.7723C125.98 45.642 125.262 45.4837 124.693 45.3068C122.864 44.7202 121.931 43.5471 121.894 41.7874C121.875 40.9121 122.09 40.0835 122.528 39.3107C122.967 38.5379 123.601 37.8676 124.422 37.2996C125.243 36.7317 126.167 36.3313 127.202 36.0985C128.21 35.8658 129.114 35.8564 129.917 36.0799C130.719 36.3034 131.353 36.7317 131.811 37.3834C132.268 38.0351 132.501 38.8359 132.52 39.7949L129.152 40.5677C129.142 39.9252 128.956 39.4597 128.601 39.1897C128.247 38.9197 127.771 38.8452 127.174 38.9848C126.568 39.1245 126.101 39.3852 125.756 39.7669C125.411 40.1487 125.243 40.5677 125.252 41.0332C125.252 41.4429 125.457 41.7594 125.849 42.0015C126.241 42.2436 126.922 42.4298 127.892 42.5508C128.863 42.6812 129.665 42.8767 130.299 43.1374C131.829 43.7705 132.613 44.953 132.641 46.6848C132.669 48.0721 132.221 49.2638 131.316 50.2601C130.411 51.2656 129.152 51.9453 127.538 52.3177C126.4 52.5784 125.374 52.5877 124.441 52.3364C123.508 52.0943 122.808 51.6194 122.332 50.9304C121.856 50.2415 121.605 49.3756 121.586 48.3328L124.972 47.5507C124.991 48.3979 125.196 48.9752 125.588 49.2918C125.98 49.599 126.614 49.6642 127.491 49.4594C128.051 49.329 128.489 49.0962 128.807 48.7517C129.124 48.4072 129.282 47.9883 129.273 47.4948Z" fill="white"/>
<path d="M141.597 44.6452C141.588 44.0865 141.401 43.6955 141.047 43.4627C140.692 43.23 140.077 43.0531 139.19 42.9227C138.304 42.7924 137.586 42.6341 137.017 42.4572C135.188 41.8706 134.255 40.6975 134.218 38.9377C134.199 38.0625 134.414 37.2339 134.852 36.4611C135.291 35.6883 135.925 35.0179 136.746 34.45C137.567 33.8914 138.491 33.491 139.526 33.2489C140.534 33.0161 141.439 33.0068 142.241 33.2303C143.043 33.4537 143.678 33.882 144.135 34.5338C144.592 35.1855 144.825 35.9863 144.844 36.9453L141.476 37.718C141.467 37.0756 141.28 36.6101 140.926 36.3401C140.571 36.0701 140.095 35.9956 139.498 36.1352C138.892 36.2749 138.425 36.5356 138.08 36.9173C137.735 37.2991 137.567 37.718 137.576 38.1836C137.576 38.5932 137.782 38.9098 138.174 39.1519C138.565 39.394 139.246 39.5802 140.217 39.7012C141.187 39.8316 141.989 40.0271 142.623 40.2878C144.153 40.9209 144.937 42.1034 144.965 43.8352C144.993 45.2225 144.545 46.4142 143.64 47.4105C142.735 48.416 141.476 49.0957 139.862 49.4681C138.724 49.7288 137.698 49.7381 136.765 49.4867C135.832 49.2354 135.132 48.7698 134.656 48.0808C134.181 47.3918 133.929 46.5259 133.91 45.4832L137.297 44.7011C137.315 45.5483 137.521 46.1256 137.912 46.4422C138.304 46.7587 138.939 46.8146 139.815 46.6097C140.375 46.4794 140.814 46.2466 141.131 45.9021C141.448 45.5576 141.607 45.1387 141.597 44.6452Z" fill="white"/>
<path d="M57.6908 86.0846L57.7561 89.6413L55.5264 90.1534L55.3398 79.6696L59.0248 78.8223C59.7338 78.6547 60.3589 78.664 60.9093 78.8316C61.4597 78.9992 61.8888 79.3251 62.1967 79.7999C62.5046 80.2748 62.6632 80.8613 62.6818 81.5503C62.7005 82.5745 62.3926 83.459 61.7582 84.2225C61.1239 84.986 60.2469 85.4981 59.1181 85.7588L57.7001 86.0846H57.6908ZM57.6534 84.1387L59.1088 83.8035C59.5379 83.7011 59.8644 83.5056 60.0883 83.2076C60.3122 82.9097 60.4148 82.5373 60.4055 82.0904C60.4055 81.5969 60.2749 81.2338 60.0324 81.001C59.7898 80.7682 59.4726 80.6844 59.0715 80.7776L57.5881 81.122L57.6441 84.148L57.6534 84.1387Z" fill="white"/>
<path d="M67.3551 83.7021L66.1517 83.9814L66.217 87.687L63.9874 88.1991L63.8008 77.7153L67.4391 76.8773C68.5306 76.6259 69.3982 76.7004 70.0233 77.1101C70.6483 77.5198 70.9748 78.2274 70.9935 79.2329C71.0028 79.9592 70.8909 80.5923 70.639 81.1323C70.3871 81.6723 69.9859 82.1565 69.4355 82.5755L71.4413 86.3649V86.4767L69.053 87.026L67.3551 83.6928V83.7021ZM66.1144 82.0448L67.5231 81.7189C67.9429 81.6258 68.2601 81.4209 68.4746 81.123C68.6799 80.8251 68.7825 80.4433 68.7732 79.9964C68.7638 79.5495 68.6519 79.2143 68.428 79.0095C68.2041 78.8047 67.8869 78.7488 67.4671 78.8419L66.0584 79.1678L66.1144 82.0541V82.0448Z" fill="white"/>
<path d="M80.2034 79.4195C80.222 80.4437 80.0728 81.3841 79.7463 82.25C79.4291 83.1158 78.9626 83.8328 78.3562 84.4007C77.7498 84.9687 77.0502 85.3411 76.2665 85.518C75.4829 85.7042 74.7739 85.6577 74.1581 85.3877C73.5424 85.1176 73.0573 84.6428 72.7028 83.9538C72.3483 83.2648 72.1524 82.4362 72.1244 81.4492V80.8627C72.0964 79.8385 72.2457 78.8888 72.5629 78.0322C72.8801 77.1756 73.3465 76.4587 73.9622 75.8814C74.578 75.3135 75.2776 74.9318 76.0706 74.7549C76.8542 74.578 77.5539 74.6245 78.179 74.9038C78.804 75.1831 79.2891 75.6766 79.6436 76.3749C79.9981 77.0732 80.1847 77.9298 80.2127 78.9354V79.4195H80.2034ZM77.9271 79.5033C77.9084 78.4605 77.7405 77.7063 77.4233 77.2408C77.1061 76.7753 76.6583 76.6077 76.0893 76.738C74.9698 76.9987 74.4007 78.0788 74.3727 79.9968V80.7696C74.4007 81.7937 74.5686 82.5479 74.8765 83.0321C75.1843 83.5162 75.6415 83.6931 76.2292 83.5534C76.7889 83.4231 77.2181 83.0507 77.5166 82.4362C77.8151 81.8217 77.9551 81.0116 77.9364 79.9875V79.5033H77.9271Z" fill="white"/>
<path d="M84.1769 73.0219L86.3693 79.8374L88.291 72.0723L91.2204 71.3926L91.4069 81.8764L89.1773 82.3885L89.1307 79.9398L89.2519 74.8841L87.1529 82.854L85.6789 83.1985L83.3 76.2528L83.6079 81.2154L83.6545 83.6641L81.4249 84.1761L81.2383 73.6923L84.1676 73.0126L84.1769 73.0219Z" fill="white"/>
<path d="M95.2038 81.0034L92.9835 81.5155L92.7969 71.0316L95.0172 70.5195L95.2038 81.0034Z" fill="white"/>
<path d="M101.462 76.7571C101.462 76.3847 101.331 76.124 101.098 75.975C100.865 75.8167 100.454 75.705 99.8665 75.6119C99.2881 75.5281 98.8029 75.4164 98.4298 75.2953C97.217 74.9043 96.6013 74.1315 96.5826 72.9584C96.5733 72.3811 96.7132 71.8318 97.0024 71.3197C97.2916 70.8076 97.7114 70.3607 98.2525 69.9882C98.7936 69.6158 99.4093 69.3458 100.09 69.1968C100.753 69.0386 101.35 69.0386 101.882 69.1968C102.413 69.3551 102.833 69.6344 103.132 70.0627C103.43 70.491 103.589 71.0217 103.598 71.6642L101.378 72.1763C101.378 71.748 101.247 71.4407 101.014 71.2638C100.781 71.0776 100.464 71.0404 100.072 71.1241C99.6705 71.2173 99.3627 71.3848 99.1388 71.6362C98.9149 71.8876 98.8029 72.1669 98.8029 72.4742C98.8029 72.7442 98.9429 72.9584 99.1948 73.1166C99.456 73.2749 99.9038 73.396 100.547 73.4797C101.191 73.5635 101.723 73.6939 102.133 73.8708C103.141 74.2898 103.663 75.0812 103.682 76.2264C103.701 77.1389 103.411 77.9303 102.805 78.6006C102.208 79.2617 101.378 79.7179 100.314 79.96C99.5679 80.1369 98.8869 80.1369 98.2712 79.9693C97.6555 79.8017 97.189 79.4945 96.8812 79.0382C96.564 78.582 96.396 78.0047 96.3867 77.3158L98.6164 76.8037C98.6257 77.3623 98.7656 77.7534 99.0268 77.9582C99.2881 78.163 99.7079 78.2003 100.277 78.0699C100.641 77.9861 100.939 77.8278 101.145 77.5951C101.359 77.3623 101.452 77.0923 101.452 76.7571H101.462Z" fill="white"/>
<path d="M110.53 72.9948L107.031 73.8048L107.078 76.3094L111.211 75.3504L111.248 77.2963L104.886 78.7674L104.699 68.2836L111.08 66.8125L111.118 68.7584L106.966 69.7174L107.003 71.9241L110.502 71.114L110.539 72.9855L110.53 72.9948Z" fill="white"/>
<path d="M46.4393 80.9004L47.7921 83.6377L50.824 84.0753L48.6317 86.2168L49.1541 89.2241L46.4393 87.7996L43.7246 89.2241L44.247 86.2168L42.0547 84.0753L45.0866 83.6377L46.4393 80.9004Z" fill="white"/>
<path d="M118.533 65.7051L119.886 68.4424L122.918 68.88L120.725 71.0215L121.248 74.0288L118.533 72.6043L115.818 74.0288L116.341 71.0215L114.148 68.88L117.18 68.4424L118.533 65.7051Z" fill="white"/>
<path d="M91.8359 26.0336L105.811 24.8418L92.3397 28.7244L91.8359 26.0336Z" fill="white"/>
<path d="M40.4324 36.4785L27.1758 41.0408L41.0667 39.1507L40.4324 36.4785Z" fill="white"/>
</g>
<defs>
<linearGradient id="paint0_linear_6178_303" x1="0.0664062" y1="56.1333" x2="45.7788" y2="56.1333" gradientUnits="userSpaceOnUse">
<stop stop-color="#58595B"/>
<stop offset="1" stop-color="#231F20"/>
</linearGradient>
<linearGradient id="paint1_linear_6178_303" x1="136.324" y1="55.315" x2="211.917" y2="55.315" gradientUnits="userSpaceOnUse">
<stop stop-color="#58595B"/>
<stop offset="1" stop-color="#231F20"/>
</linearGradient>
<linearGradient id="paint2_linear_6178_303" x1="18.9829" y1="57.0005" x2="133.133" y2="57.0005" gradientUnits="userSpaceOnUse">
<stop stop-color="#58595B"/>
<stop offset="1" stop-color="#231F20"/>
</linearGradient>
<clipPath id="clip0_6178_303">
<rect width="151" height="114" fill="white"/>
</clipPath>
</defs>
</svg>
