<svg width="245" height="43" viewBox="0 0 245 43" fill="none" xmlns="http://www.w3.org/2000/svg">
<path d="M20.6637 1.77528C21.0524 1.12946 21.9887 1.12946 22.3773 1.77528L28.2852 11.5921C28.4248 11.8241 28.6525 11.9895 28.9163 12.0506L40.0782 14.6358C40.8126 14.8058 41.1019 15.6963 40.6078 16.2655L33.0971 24.9177C32.9196 25.1222 32.8326 25.3899 32.856 25.6597L33.8466 37.0742C33.9118 37.8251 33.1543 38.3754 32.4603 38.0814L21.9106 33.612C21.6613 33.5064 21.3798 33.5064 21.1304 33.612L10.5808 38.0814C9.88672 38.3754 9.12924 37.8251 9.19441 37.0742L10.185 25.6597C10.2084 25.3899 10.1215 25.1222 9.94395 24.9177L2.43326 16.2655C1.93916 15.6963 2.22849 14.8058 2.9628 14.6358L14.1247 12.0506C14.3885 11.9895 14.6163 11.8241 14.7559 11.5921L20.6637 1.77528Z" fill="#00AFE3"/>
<path d="M71.0934 1.77528C71.4821 1.12946 72.4184 1.12946 72.807 1.77528L78.7149 11.5921C78.8545 11.8241 79.0822 11.9895 79.346 12.0506L90.508 14.6358C91.2423 14.8058 91.5316 15.6963 91.0375 16.2655L83.5268 24.9177C83.3493 25.1222 83.2623 25.3899 83.2857 25.6597L84.2764 37.0742C84.3415 37.8251 83.584 38.3754 82.89 38.0814L72.3403 33.612C72.091 33.5064 71.8095 33.5064 71.5602 33.612L61.0105 38.0814C60.3164 38.3754 59.559 37.8251 59.6241 37.0742L60.6148 25.6597C60.6382 25.3899 60.5512 25.1222 60.3737 24.9177L52.863 16.2655C52.3689 15.6963 52.6582 14.8058 53.3925 14.6358L64.5544 12.0506C64.8182 11.9895 65.046 11.8241 65.1856 11.5921L71.0934 1.77528Z" fill="#00AFE3"/>
<path d="M121.523 1.77528C121.912 1.12946 122.848 1.12946 123.237 1.77528L129.145 11.5921C129.284 11.8241 129.512 11.9895 129.776 12.0506L140.938 14.6358C141.672 14.8058 141.961 15.6963 141.467 16.2655L133.957 24.9177C133.779 25.1222 133.692 25.3899 133.715 25.6597L134.706 37.0742C134.771 37.8251 134.014 38.3754 133.32 38.0814L122.77 33.612C122.521 33.5064 122.239 33.5064 121.99 33.612L111.44 38.0814C110.746 38.3754 109.989 37.8251 110.054 37.0742L111.044 25.6597C111.068 25.3899 110.981 25.1222 110.803 24.9177L103.293 16.2655C102.799 15.6963 103.088 14.8058 103.822 14.6358L114.984 12.0506C115.248 11.9895 115.476 11.8241 115.615 11.5921L121.523 1.77528Z" fill="#00AFE3"/>
<path d="M171.953 1.77528C172.342 1.12946 173.278 1.12946 173.666 1.77528L179.574 11.5921C179.714 11.8241 179.942 11.9895 180.205 12.0506L191.367 14.6358C192.102 14.8058 192.391 15.6963 191.897 16.2655L184.386 24.9177C184.209 25.1222 184.122 25.3899 184.145 25.6597L185.136 37.0742C185.201 37.8251 184.443 38.3754 183.749 38.0814L173.2 33.612C172.95 33.5064 172.669 33.5064 172.42 33.612L161.87 38.0814C161.176 38.3754 160.418 37.8251 160.484 37.0742L161.474 25.6597C161.498 25.3899 161.411 25.1222 161.233 24.9177L153.722 16.2655C153.228 15.6963 153.518 14.8058 154.252 14.6358L165.414 12.0506C165.678 11.9895 165.905 11.8241 166.045 11.5921L171.953 1.77528Z" fill="#00AFE3"/>
<path d="M222.383 1.77528C222.771 1.12946 223.708 1.12946 224.096 1.77528L230.004 11.5921C230.144 11.8241 230.371 11.9895 230.635 12.0506L241.797 14.6358C242.531 14.8058 242.821 15.6963 242.327 16.2655L234.816 24.9177C234.638 25.1222 234.551 25.3899 234.575 25.6597L235.566 37.0742C235.631 37.8251 234.873 38.3754 234.179 38.0814L223.629 33.612C223.38 33.5064 223.099 33.5064 222.849 33.612L212.3 38.0814C211.606 38.3754 210.848 37.8251 210.913 37.0742L211.904 25.6597C211.927 25.3899 211.84 25.1222 211.663 24.9177L204.152 16.2655C203.658 15.6963 203.947 14.8058 204.682 14.6358L215.844 12.0506C216.107 11.9895 216.335 11.8241 216.475 11.5921L222.383 1.77528Z" fill="#00AFE3"/>
</svg>
