<svg width="40" height="37" viewBox="0 0 40 37" fill="none" xmlns="http://www.w3.org/2000/svg">
<path fill-rule="evenodd" clip-rule="evenodd" d="M5.78055 1.63912C8.19064 -0.757105 12.1593 -0.331328 14.1772 2.36591L16.6765 5.70083C18.3201 7.89506 18.1736 10.9606 16.223 12.8994L15.7516 13.3707C15.6982 13.5686 15.6927 13.7763 15.7358 13.9767C15.8605 14.7847 16.5358 16.4957 19.3638 19.3078C22.1917 22.1199 23.9146 22.7932 24.7345 22.92C24.9411 22.9615 25.1544 22.9554 25.3583 22.9022L26.1663 22.0981C27.9011 20.3752 30.5627 20.0524 32.7094 21.2189L36.4919 23.2784C39.7337 25.037 40.5516 29.4413 37.8979 32.0811L35.0838 34.8774C34.1966 35.7586 33.0045 36.4933 31.5509 36.63C27.9664 36.9647 19.6153 36.5369 10.8364 27.8095C2.64367 19.6623 1.07127 12.5568 0.871256 9.05554C0.772239 7.28511 1.60795 5.78796 2.67338 4.73045L5.78055 1.63912ZM11.8008 4.14625C10.7968 2.80555 8.92733 2.69861 7.87378 3.74622L4.76463 6.83557C4.11111 7.48512 3.79822 8.20201 3.83782 8.88721C3.99625 11.6696 5.26368 18.08 12.9316 25.7044C20.9758 33.701 28.4041 33.9407 31.2756 33.6713C31.8618 33.6179 32.444 33.3129 32.9886 32.7723L35.8007 29.974C36.9454 28.8373 36.6939 26.7658 35.0739 25.8866L31.2915 23.829C30.2458 23.2626 29.022 23.4487 28.2615 24.2052L27.3605 25.1023L26.3109 24.0488C27.3605 25.1023 27.3585 25.1043 27.3565 25.1043L27.3545 25.1083L27.3486 25.1142L27.3347 25.1261L27.305 25.1538C27.2214 25.2314 27.1313 25.3017 27.0357 25.3637C26.8772 25.4687 26.6673 25.5855 26.4039 25.6826C25.8692 25.8826 25.1603 25.9895 24.285 25.8549C22.568 25.5915 20.2926 24.4211 17.2686 21.4149C14.2466 18.4088 13.0663 16.1472 12.8009 14.4322C12.6643 13.5569 12.7732 12.8479 12.9752 12.3132C13.0863 12.0123 13.2455 11.7315 13.4465 11.4815L13.5099 11.4122L13.5376 11.3825L13.5495 11.3706L13.5554 11.3646L13.5594 11.3607L14.1297 10.7943C14.9773 9.94868 15.0961 8.54857 14.298 7.48116L11.8008 4.14625Z" fill="#00AFE3"/>
</svg>
