<svg width="55" height="37" viewBox="0 0 55 37" fill="none" xmlns="http://www.w3.org/2000/svg">
<path d="M37.4576 18.4616L51.2134 6.51057V30.2762L37.4576 18.4616ZM19.7324 20.4855L24.5629 24.6786C25.321 25.3227 26.3095 25.7118 27.3896 25.7118H27.4276H27.4567C28.5391 25.7118 29.5276 25.3204 30.2946 24.6719L30.2879 24.6764L35.1184 20.4832L49.8022 33.094H5.05525L19.7324 20.4855ZM5.03513 3.67712H49.8291L28.3132 22.364C28.0724 22.5573 27.7722 22.6615 27.4634 22.6592H27.4321H27.403C27.0932 22.6614 26.7921 22.5563 26.551 22.3618L26.5532 22.364L5.03513 3.67712ZM3.64636 6.50833L17.3999 18.4593L3.64636 30.2672V6.50833ZM51.9514 1.04942C51.4146 0.781056 50.784 0.624512 50.1153 0.624512H4.75111C4.10321 0.627076 3.46449 0.777771 2.88377 1.06507L2.90837 1.05389C2.2148 1.39713 1.63073 1.92704 1.22184 2.58404C0.81294 3.24104 0.595426 3.99908 0.59375 4.77293L0.59375 31.9937C0.594934 33.0953 1.03308 34.1515 1.81207 34.9305C2.59105 35.7095 3.64723 36.1476 4.74888 36.1488H50.1086C51.2103 36.1476 52.2665 35.7095 53.0454 34.9305C53.8244 34.1515 54.2626 33.0953 54.2638 31.9937V4.77293C54.2638 3.14711 53.3267 1.73821 51.9626 1.0606L51.938 1.04942H51.9514Z" fill="#00AFE3"/>
</svg>
