<svg width="52" height="52" viewBox="0 0 52 52" fill="none" xmlns="http://www.w3.org/2000/svg">
<circle cx="25.8359" cy="25.8359" r="25.8359" fill="url(#paint0_linear_6126_495)"/>
<circle cx="25.8356" cy="25.8356" r="24.3161" fill="white"/>
<path d="M41.7807 26.2028C41.7807 17.6114 34.8079 10.6387 26.2165 10.6387C17.6251 10.6387 10.6523 17.6114 10.6523 26.2028C10.6523 33.7359 16.0064 40.0083 23.1037 41.4557V30.8721H19.9909V26.2028H23.1037V22.3118C23.1037 19.3079 25.5473 16.8643 28.5511 16.8643H32.4422V21.5336H29.3294C28.4733 21.5336 27.7729 22.234 27.7729 23.09V26.2028H32.4422V30.8721H27.7729V41.6892C35.6328 40.911 41.7807 34.2807 41.7807 26.2028Z" fill="#00AFE3"/>
<defs>
<linearGradient id="paint0_linear_6126_495" x1="46" y1="1.83594" x2="6.5" y2="45.3359" gradientUnits="userSpaceOnUse">
<stop stop-color="#0095C1"/>
<stop offset="1" stop-color="#42D4FF"/>
</linearGradient>
</defs>
</svg>
