<svg width="52" height="52" viewBox="0 0 52 52" fill="none" xmlns="http://www.w3.org/2000/svg">
<circle cx="25.8359" cy="25.8359" r="25.8359" fill="url(#paint0_linear_6126_499)"/>
<circle cx="25.8356" cy="25.8356" r="24.3161" fill="white"/>
<g clip-path="url(#clip0_6126_499)">
<path d="M20.9954 11.0509C17.8066 12.1571 15.0566 14.2568 13.1493 17.0415C11.242 19.8261 10.278 23.149 10.3988 26.5221C10.5196 29.8951 11.7189 33.1406 13.8205 35.7816C15.9221 38.4227 18.8153 40.3203 22.075 41.1955C24.7178 41.8775 27.4866 41.9074 30.1435 41.2828C32.5504 40.7422 34.7756 39.5857 36.6013 37.9268C38.5014 36.1474 39.8807 33.8837 40.5907 31.3792C41.3624 28.6557 41.4997 25.7914 40.9921 23.0065H26.1517V29.1626H34.7463C34.5745 30.1445 34.2064 31.0816 33.664 31.9179C33.1216 32.7541 32.4161 33.4724 31.5897 34.0296C30.5402 34.7239 29.3571 35.191 28.1164 35.401C26.8721 35.6324 25.5958 35.6324 24.3515 35.401C23.0903 35.1402 21.8973 34.6197 20.8483 33.8726C19.1632 32.6797 17.8979 30.9851 17.233 29.0305C16.5568 27.0393 16.5568 24.8806 17.233 22.8894C17.7063 21.4936 18.4887 20.2228 19.5219 19.1718C20.7042 17.9469 22.201 17.0714 23.8482 16.6412C25.4954 16.2111 27.2292 16.2429 28.8595 16.7333C30.133 17.1242 31.2976 17.8073 32.2604 18.728C33.2295 17.7639 34.1969 16.7973 35.1626 15.8282C35.6613 15.3071 36.2049 14.8109 36.6961 14.2773C35.2264 12.9097 33.5013 11.8454 31.6196 11.1457C28.193 9.90147 24.4437 9.86803 20.9954 11.0509Z" fill="white"/>
<path d="M20.9962 11.0502C24.4441 9.86648 28.1935 9.89904 31.6203 11.1424C33.5024 11.847 35.2267 12.9163 36.6943 14.289C36.1956 14.8226 35.6695 15.3213 35.1609 15.8399C34.1935 16.8057 33.2269 17.7681 32.2611 18.7272C31.2983 17.8065 30.1337 17.1235 28.8602 16.7325C27.2305 16.2404 25.4967 16.2068 23.8491 16.6351C22.2015 17.0635 20.7037 17.9375 19.5201 19.1611C18.487 20.2121 17.7045 21.4829 17.2312 22.8786L12.0625 18.8768C13.9126 15.208 17.1159 12.4016 20.9962 11.0502Z" fill="#E33629"/>
<path d="M10.6939 22.8414C10.9717 21.4645 11.433 20.1312 12.0653 18.877L17.234 22.8888C16.5578 24.88 16.5578 27.0387 17.234 29.0299C15.5119 30.3597 13.789 31.6961 12.0653 33.0392C10.4824 29.8884 9.99962 26.2984 10.6939 22.8414Z" fill="#F8BD00"/>
<path d="M26.1515 23.002H40.9919C41.4996 25.7869 41.3622 28.6511 40.5905 31.3746C39.8805 33.8791 38.5013 36.1428 36.6011 37.9222C34.9331 36.6206 33.2576 35.3291 31.5895 34.0276C32.4165 33.4697 33.1223 32.7507 33.6647 31.9135C34.2071 31.0763 34.5749 30.1383 34.7461 29.1555H26.1515C26.149 27.106 26.1515 25.054 26.1515 23.002Z" fill="#587DBD"/>
<path d="M12.0605 33.0386C13.7843 31.7088 15.5072 30.3724 17.2293 29.0293C17.8955 30.9846 19.1626 32.6793 20.8496 33.8714C21.9018 34.6151 23.0974 35.1314 24.3602 35.3873C25.6046 35.6187 26.8809 35.6187 28.1252 35.3873C29.3659 35.1773 30.5489 34.7102 31.5984 34.016C33.2665 35.3175 34.942 36.6091 36.6101 37.9106C34.7847 39.5705 32.5594 40.7278 30.1523 41.2692C27.4954 41.8938 24.7266 41.8638 22.0838 41.1819C19.9936 40.6238 18.0413 39.64 16.3491 38.2921C14.558 36.8701 13.0952 35.0781 12.0605 33.0386Z" fill="#319F43"/>
</g>
<defs>
<linearGradient id="paint0_linear_6126_499" x1="46" y1="1.83594" x2="6.5" y2="45.3359" gradientUnits="userSpaceOnUse">
<stop stop-color="#0095C1"/>
<stop offset="1" stop-color="#42D4FF"/>
</linearGradient>
<clipPath id="clip0_6126_499">
<rect width="31.9149" height="31.9149" fill="white" transform="translate(9.87891 10)"/>
</clipPath>
</defs>
</svg>
