<svg width="52" height="52" viewBox="0 0 52 52" fill="none" xmlns="http://www.w3.org/2000/svg">
<circle cx="25.8359" cy="25.8359" r="25.8359" fill="url(#paint0_linear_6126_508)"/>
<circle cx="25.8356" cy="25.8356" r="24.3161" fill="white"/>
<path d="M26.5111 41.1362C33.0197 34.6255 39.5112 28.8197 38.8825 21.4926C38.3292 15.0329 32.8988 9.97928 26.4224 10.0001C19.5588 10.0209 14 15.5979 14 22.4734C14 29.3489 20.1989 34.9184 26.4129 41.1362C26.4393 41.1626 26.4828 41.1626 26.5092 41.1362H26.5111Z" fill="url(#paint1_linear_6126_508)"/>
<path d="M26.4565 28.3295C29.6642 28.3295 32.2645 27.2016 32.2645 25.8103C32.2645 24.4189 29.6642 23.291 26.4565 23.291C23.2488 23.291 20.6484 24.4189 20.6484 25.8103C20.6484 27.2016 23.2488 28.3295 26.4565 28.3295Z" fill="white"/>
<path d="M26.5137 21.6592C28.5837 21.6592 30.2617 19.9796 30.2617 17.9077C30.2617 15.8358 28.5837 14.1562 26.5137 14.1562C24.4437 14.1562 22.7656 15.8358 22.7656 17.9077C22.7656 19.9796 24.4437 21.6592 26.5137 21.6592Z" fill="white"/>
<defs>
<linearGradient id="paint0_linear_6126_508" x1="46" y1="1.83594" x2="6.5" y2="45.3359" gradientUnits="userSpaceOnUse">
<stop stop-color="#0095C1"/>
<stop offset="1" stop-color="#42D4FF"/>
</linearGradient>
<linearGradient id="paint1_linear_6126_508" x1="16.6019" y1="30.3146" x2="38.1634" y2="17.8771" gradientUnits="userSpaceOnUse">
<stop stop-color="#2E81C4"/>
<stop offset="0.32" stop-color="#35AADE"/>
<stop offset="0.52" stop-color="#3AC0EC"/>
</linearGradient>
</defs>
</svg>
