<svg width="44" height="40" viewBox="0 0 44 40" fill="none" xmlns="http://www.w3.org/2000/svg">
<path d="M42 38V34C42 30.2723 39.4505 27.1401 36 26.252M29 2.58152C31.9318 3.76829 34 6.64262 34 10C34 13.3574 31.9318 16.2317 29 17.4185M32 38C32 34.2725 32 32.4087 31.391 30.9385C30.5791 28.9783 29.0217 27.4209 27.0615 26.609C25.5913 26 23.7275 26 20 26H14C10.2725 26 8.4087 26 6.93853 26.609C4.97831 27.4209 3.42092 28.9783 2.60896 30.9385C2 32.4087 2 34.2725 2 38M25 10C25 14.4183 21.4183 18 17 18C12.5817 18 9 14.4183 9 10C9 5.58172 12.5817 2 17 2C21.4183 2 25 5.58172 25 10Z" stroke="white" stroke-width="4" stroke-linecap="round" stroke-linejoin="round"/>
</svg>
