<svg width="17" height="21" viewBox="0 0 17 21" fill="none" xmlns="http://www.w3.org/2000/svg">
<path d="M15.773 11.8994C15.5275 11.8994 15.309 11.811 15.1175 11.6342C14.9253 11.458 14.8139 11.2395 14.7832 10.9786C14.5837 9.55145 13.9815 8.33513 12.9767 7.32966C11.9712 6.3248 10.7549 5.72262 9.32772 5.52313C9.06684 5.49243 8.84831 5.38501 8.67214 5.20086C8.49535 5.01671 8.40696 4.79419 8.40696 4.53331C8.40696 4.27243 8.49903 4.05359 8.68319 3.87681C8.86734 3.70063 9.08218 3.62789 9.32772 3.65859C11.2613 3.87343 12.911 4.66375 14.2768 6.02954C15.6426 7.39534 16.4329 9.04503 16.6478 10.9786C16.6785 11.2242 16.6054 11.439 16.4286 11.6232C16.2524 11.8073 16.0339 11.8994 15.773 11.8994ZM11.9289 11.8994C11.7294 11.8994 11.5529 11.8303 11.3994 11.6922C11.246 11.5541 11.1309 11.37 11.0541 11.1398C10.9314 10.6947 10.6975 10.2994 10.3525 9.95382C10.0069 9.60885 9.61162 9.37497 9.16659 9.2522C8.9364 9.17547 8.75224 9.06038 8.61413 8.90692C8.47602 8.75346 8.40696 8.56931 8.40696 8.35446C8.40696 8.04754 8.51438 7.79802 8.72923 7.60589C8.94407 7.41437 9.18193 7.3493 9.44281 7.41068C10.3022 7.61018 11.0428 8.02053 11.6646 8.64174C12.2858 9.26356 12.6962 10.0042 12.8957 10.8635C12.957 11.1244 12.888 11.3623 12.6885 11.5771C12.489 11.792 12.2358 11.8994 11.9289 11.8994ZM15.727 20.1862C13.7474 20.1862 11.8178 19.7449 9.93818 18.8622C8.05799 17.9801 6.39295 16.8138 4.94306 15.3633C3.49255 13.9134 2.32626 12.2484 1.44417 10.3682C0.561468 8.48859 0.120117 6.55898 0.120117 4.57935C0.120117 4.30312 0.212193 4.07293 0.396345 3.88878C0.580497 3.70462 0.810687 3.61255 1.08692 3.61255H4.81599C5.03084 3.61255 5.22266 3.68161 5.39147 3.81972C5.56028 3.95783 5.66002 4.13431 5.69072 4.34916L6.28921 7.57182C6.3199 7.78666 6.31622 7.98217 6.27816 8.15834C6.23949 8.33513 6.1511 8.49258 6.01298 8.63069L3.80316 10.8866C4.44769 11.9915 5.25336 13.0273 6.22015 13.9941C7.18695 14.9609 8.2535 15.7973 9.4198 16.5032L11.5836 14.3394C11.7217 14.2013 11.9022 14.0976 12.125 14.0282C12.3472 13.9594 12.5657 13.9404 12.7806 13.9711L15.9572 14.6156C16.172 14.6617 16.3485 14.7651 16.4866 14.9259C16.6247 15.0874 16.6938 15.2755 16.6938 15.4904V19.2194C16.6938 19.4957 16.6017 19.7259 16.4176 19.91C16.2334 20.0942 16.0032 20.1862 15.727 20.1862ZM2.92844 9.13711L4.44769 7.61786L4.03335 5.45407H2.00768C2.08441 6.08326 2.19183 6.70477 2.32994 7.31861C2.46806 7.93245 2.66755 8.53862 2.92844 9.13711ZM14.8523 18.2987V16.273L12.6885 15.8126L11.1692 17.3319C11.7677 17.5928 12.3739 17.8076 12.9877 17.9764C13.6016 18.1452 14.2231 18.2526 14.8523 18.2987Z" fill="#00AFE3"/>
</svg>
