<svg width="33" height="29" viewBox="0 0 33 29" fill="none" xmlns="http://www.w3.org/2000/svg">
<path d="M25.3789 11.4368L25.4861 12.0195L25.3789 11.4368ZM21.0726 7.45745L20.9326 8.03312L21.0726 7.45745ZM14.3562 22.5172L14.109 21.9788L14.3562 22.5172ZM0.611417 24.5984C0.364429 24.3838 0.338184 24.0096 0.552795 23.7626L4.05009 19.7377C4.2647 19.4907 4.6389 19.4644 4.88588 19.6791C5.13287 19.8937 5.15912 20.2679 4.9445 20.5149L1.8358 24.0925L5.41347 27.2012C5.66046 27.4158 5.68671 27.79 5.4721 28.037C5.25749 28.284 4.88329 28.3103 4.6363 28.0957L0.611417 24.5984ZM32.0938 0.756519L32.685 0.794923C32.6507 1.32314 32.5817 1.90961 32.4747 2.52881L31.8909 2.42791L31.3071 2.32701C31.4075 1.74632 31.4712 1.20164 31.5026 0.718115L32.0938 0.756519ZM31.0131 5.67914L31.5675 5.88798C31.1568 6.97833 30.6196 8.05787 29.9329 9.00526L29.4532 8.65756L28.9735 8.30986C29.584 7.46757 30.0756 6.48739 30.4587 5.47031L31.0131 5.67914ZM26.9675 10.8903L27.2408 11.4159C26.7022 11.6961 26.1176 11.9032 25.4861 12.0195L25.3789 11.4368L25.2716 10.8542C25.783 10.76 26.2559 10.5926 26.6941 10.3647L26.9675 10.8903ZM25.3789 11.4368L25.4861 12.0195C24.9797 12.1127 24.5046 12.181 24.0593 12.2265L23.9991 11.6371L23.9388 11.0477C24.3499 11.0057 24.7936 10.9422 25.2716 10.8542L25.3789 11.4368ZM21.2306 11.5689L21.1145 12.1499C19.7347 11.8742 18.8442 11.2191 18.4502 10.3583L18.9889 10.1117L19.5276 9.86512C19.7181 10.2813 20.2181 10.7625 21.3467 10.988L21.2306 11.5689ZM19.7371 7.67189L19.4214 7.17055C19.9238 6.85421 20.55 6.72065 21.2126 6.88178L21.0726 7.45745L20.9326 8.03312C20.5996 7.95215 20.3002 8.01739 20.0528 8.17323L19.7371 7.67189ZM21.0726 7.45745L21.2126 6.88178C21.9165 7.05295 22.4806 7.41823 22.8885 7.94085L22.4214 8.30535L21.9544 8.66984C21.7178 8.36668 21.3884 8.14396 20.9326 8.03312L21.0726 7.45745ZM23.0106 11.4146L23.5985 11.4881C23.47 12.5153 23.1402 13.6328 22.6396 14.7598L22.0982 14.5193L21.5567 14.2788C22.0199 13.236 22.3114 12.2314 22.4227 11.3411L23.0106 11.4146ZM20.482 17.3291L20.9641 17.6734C20.3305 18.5605 19.5937 19.4187 18.7635 20.2064L18.3557 19.7766L17.948 19.3469C18.7208 18.6135 19.4083 17.813 19.9999 16.9847L20.482 17.3291ZM15.7877 21.7536L16.0964 22.2592C15.618 22.5514 15.12 22.8184 14.6035 23.0556L14.3562 22.5172L14.109 21.9788C14.5814 21.7618 15.0385 21.5169 15.479 21.2479L15.7877 21.7536ZM14.3562 22.5172L14.6035 23.0556C14.0413 23.3138 13.5054 23.5372 12.9921 23.73L12.7838 23.1754L12.5754 22.6208C13.0608 22.4385 13.5708 22.226 14.109 21.9788L14.3562 22.5172ZM9.50233 24.0703L9.59758 24.655C8.3163 24.8637 7.17743 24.8853 6.08713 24.8503L6.10615 24.2581L6.12517 23.666C7.17039 23.6995 8.22704 23.6778 9.40708 23.4855L9.50233 24.0703ZM2.70317 24.107L2.695 24.6994C2.16293 24.6921 1.61607 24.7018 1.04146 24.7422L1 24.1512L0.958554 23.5602C1.57256 23.5171 2.15322 23.5069 2.71135 23.5146L2.70317 24.107Z" fill="white"/>
</svg>
