<svg width="27" height="34" viewBox="0 0 27 34" fill="none" xmlns="http://www.w3.org/2000/svg">
<path d="M13.5078 0.894531C10.1068 0.898544 6.84626 2.25136 4.4414 4.65623C2.03653 7.0611 0.683708 10.3217 0.679696 13.7227C0.676569 16.5018 1.58432 19.2054 3.26398 21.4195C3.26398 21.4195 3.61384 21.8802 3.67098 21.9466L13.5078 33.5479L23.3493 21.9408C23.4006 21.879 23.7516 21.4195 23.7516 21.4195L23.7528 21.416C25.4313 19.2027 26.3386 16.5005 26.3359 13.7227C26.3319 10.3217 24.9791 7.0611 22.5742 4.65623C20.1694 2.25136 16.9088 0.898544 13.5078 0.894531ZM13.5078 18.3874C12.5852 18.3874 11.6833 18.1138 10.9162 17.6013C10.1491 17.0887 9.55119 16.3602 9.19813 15.5078C8.84506 14.6554 8.75268 13.7175 8.93267 12.8126C9.11267 11.9077 9.55694 11.0765 10.2093 10.4242C10.8617 9.77178 11.6929 9.3275 12.5978 9.14751C13.5026 8.96752 14.4406 9.0599 15.2929 9.41296C16.1453 9.76603 16.8739 10.3639 17.3864 11.131C17.899 11.8982 18.1726 12.8 18.1726 13.7227C18.171 14.9594 17.6791 16.145 16.8046 17.0194C15.9301 17.8939 14.7445 18.3859 13.5078 18.3874Z" fill="#00AFE3"/>
</svg>
