<svg width="25" height="28" viewBox="0 0 25 28" fill="none" xmlns="http://www.w3.org/2000/svg">
<path d="M22.1711 1.92891C21.7785 1.53616 21.3125 1.22463 20.7994 1.01212C20.2864 0.799614 19.7366 0.6903 19.1813 0.69043C18.626 0.690559 18.0762 0.80013 17.5633 1.01288C17.0504 1.22562 16.5844 1.53737 16.1921 1.93031L2.92049 15.2201C2.12971 16.0127 1.68544 17.0864 1.68504 18.2061V22.6774C1.68504 23.2553 2.15409 23.7244 2.73203 23.7244H7.23128C8.35225 23.7244 9.42716 23.2777 10.2187 22.4861L23.4805 9.21594C24.2716 8.42298 24.7159 7.34862 24.7159 6.22854C24.7159 5.10845 24.2716 4.03409 23.4805 3.24114L22.1711 1.92891ZM1.33605 25.8184C1.05837 25.8184 0.792066 25.9287 0.595718 26.125C0.39937 26.3214 0.289062 26.5877 0.289062 26.8653C0.289062 27.143 0.39937 27.4093 0.595718 27.6057C0.792066 27.802 1.05837 27.9123 1.33605 27.9123H23.6718C23.9494 27.9123 24.2157 27.802 24.4121 27.6057C24.6084 27.4093 24.7188 27.143 24.7188 26.8653C24.7188 26.5877 24.6084 26.3214 24.4121 26.125C24.2157 25.9287 23.9494 25.8184 23.6718 25.8184H1.33605Z" fill="#00AFE3"/>
</svg>
