<svg width="22" height="17" viewBox="0 0 22 17" fill="none" xmlns="http://www.w3.org/2000/svg">
<path d="M2.96395 16.2785C2.39916 16.2785 1.91583 16.0901 1.51397 15.7134C1.11143 15.336 0.910156 14.8825 0.910156 14.3531V2.80044C0.910156 2.27094 1.11143 1.81782 1.51397 1.44108C1.91583 1.06369 2.39916 0.875 2.96395 0.875H19.3943C19.9591 0.875 20.4428 1.06369 20.8454 1.44108C21.2472 1.81782 21.4481 2.27094 21.4481 2.80044V14.3531C21.4481 14.8825 21.2472 15.336 20.8454 15.7134C20.4428 16.0901 19.9591 16.2785 19.3943 16.2785H2.96395ZM11.1791 9.53946L2.96395 4.72587V14.3531H19.3943V4.72587L11.1791 9.53946ZM11.1791 7.61403L19.3943 2.80044H2.96395L11.1791 7.61403ZM2.96395 4.72587V2.80044V14.3531V4.72587Z" fill="#00AFE3"/>
</svg>
