<svg width="24" height="24" viewBox="0 0 24 24" fill="none" xmlns="http://www.w3.org/2000/svg">
<circle cx="12" cy="12" r="12" fill="#00AFE3"/>
<path d="M11.5762 16.0463C11.6461 16.116 11.7016 16.1988 11.7394 16.29C11.7773 16.3811 11.7968 16.4789 11.7968 16.5776C11.7968 16.6763 11.7773 16.774 11.7394 16.8652C11.7016 16.9564 11.6461 17.0392 11.5762 17.1088L11.2562 17.4288C10.9165 17.7698 10.5126 18.04 10.0678 18.2239C9.62303 18.4078 9.14621 18.5016 8.66493 18.5001C7.94013 18.5003 7.23156 18.2856 6.62884 17.883C6.02612 17.4804 5.55635 16.9082 5.27895 16.2386C5.00156 15.5689 4.929 14.8321 5.07046 14.1213C5.21193 13.4104 5.56106 12.7575 6.07368 12.2451L8.24555 10.0732C8.70751 9.61132 9.28453 9.2813 9.91687 9.11731C10.5492 8.95332 11.2139 8.96132 11.8421 9.14049C12.4703 9.31966 13.0392 9.66348 13.4899 10.1364C13.9406 10.6092 14.2567 11.194 14.4056 11.8301C14.4302 11.9268 14.4353 12.0275 14.4205 12.1262C14.4058 12.2249 14.3715 12.3196 14.3196 12.4049C14.2678 12.4902 14.1994 12.5643 14.1186 12.6228C14.0377 12.6813 13.946 12.7231 13.8488 12.7458C13.7516 12.7684 13.6509 12.7714 13.5525 12.7546C13.4541 12.7378 13.3601 12.7015 13.2759 12.6479C13.1917 12.5943 13.1191 12.5244 13.0622 12.4423C13.0054 12.3603 12.9655 12.2677 12.9449 12.1701C12.8566 11.7946 12.6696 11.4495 12.4033 11.1705C12.137 10.8915 11.8009 10.6887 11.43 10.583C11.059 10.4774 10.6665 10.4727 10.2932 10.5696C9.91978 10.6664 9.57905 10.8612 9.30618 11.1338L7.1343 13.3057C6.83156 13.6082 6.62532 13.9937 6.54167 14.4134C6.45802 14.8331 6.50071 15.2682 6.66435 15.6637C6.82799 16.0591 7.10522 16.3972 7.46099 16.635C7.81676 16.8729 8.23508 17 8.66305 17.0001C8.94742 17.0009 9.22912 16.9453 9.49186 16.8366C9.75459 16.7278 9.99313 16.5679 10.1937 16.3663L10.5131 16.0463C10.5827 15.9763 10.6656 15.9208 10.7568 15.8829C10.848 15.8449 10.9458 15.8254 11.0446 15.8254C11.1434 15.8254 11.2412 15.8449 11.3324 15.8829C11.4237 15.9208 11.5065 15.9763 11.5762 16.0463ZM18.4293 7.07321C17.7419 6.38603 16.8097 6 15.8377 6C14.8658 6 13.9336 6.38603 13.2462 7.07321L12.9268 7.39259C12.7859 7.53348 12.7068 7.72458 12.7068 7.92384C12.7068 8.12309 12.7859 8.31419 12.9268 8.45509C13.0677 8.59598 13.2588 8.67514 13.4581 8.67514C13.6573 8.67514 13.8484 8.59598 13.9893 8.45509L14.3093 8.13509C14.7154 7.72897 15.2662 7.50082 15.8406 7.50082C16.4149 7.50082 16.9657 7.72897 17.3718 8.13509C17.7779 8.5412 18.0061 9.09201 18.0061 9.66634C18.0061 10.2407 17.7779 10.7915 17.3718 11.1976L15.1962 13.3663C14.9956 13.5679 14.7571 13.7278 14.4944 13.8366C14.2316 13.9453 13.9499 14.0009 13.6656 14.0001C13.1777 13.9997 12.7043 13.8346 12.3221 13.5315C11.9399 13.2284 11.6714 12.805 11.5599 12.3301C11.5148 12.1363 11.3946 11.9684 11.2257 11.8632C11.0568 11.7581 10.8531 11.7244 10.6593 11.7695C10.4655 11.8145 10.2976 11.9348 10.1925 12.1037C10.0873 12.2726 10.0536 12.4763 10.0987 12.6701C10.2869 13.4744 10.7412 14.1915 11.3881 14.7052C12.035 15.2189 12.8364 15.499 13.6624 15.5001H13.6656C14.1471 15.5014 14.6241 15.4072 15.0689 15.223C15.5138 15.0388 15.9178 14.7683 16.2574 14.427L18.4293 12.2551C18.7696 11.9149 19.0395 11.5109 19.2237 11.0664C19.4079 10.6218 19.5027 10.1453 19.5027 9.66415C19.5027 9.18295 19.4079 8.70647 19.2237 8.26191C19.0395 7.81736 18.7696 7.41343 18.4293 7.07321Z" fill="white"/>
</svg>
