<svg width="20" height="28" viewBox="0 0 20 28" fill="none" xmlns="http://www.w3.org/2000/svg">
<path d="M11.5454 0.178966C16.5974 1.18405 20.7591 6.52832 19.5306 11.5607C18.4608 15.9276 14.168 22.0898 11.4763 25.7704C11.0553 26.3458 10.4618 27.2815 9.99249 27.7598C9.95108 27.8014 9.93728 27.8846 9.84755 27.8638C7.31464 24.4812 4.80244 20.9946 2.74574 17.2931C0.468191 13.1965 -1.29864 9.57129 1.26188 5.03802C2.5939 2.67434 5.4995 0.7127 8.20496 0.178966C9.12978 -0.00125532 10.6896 0.00567628 11.5454 0.178966ZM9.55078 4.17157C5.45119 4.41418 2.91138 8.86427 4.90596 12.5103C7.02477 16.3851 12.7739 16.3643 14.8582 12.4687C16.9425 8.58007 13.9057 3.9151 9.55078 4.17157Z" fill="#00AFE3"/>
</svg>
