<svg width="33" height="33" viewBox="0 0 33 33" fill="none" xmlns="http://www.w3.org/2000/svg">
<path d="M2.05322 1.05886C1.85891 0.975176 1.64395 0.951727 1.43616 0.991551C1.22837 1.03137 1.03731 1.13264 0.887711 1.28224C0.738108 1.43185 0.636844 1.6229 0.597019 1.83069C0.557195 2.03848 0.580645 2.25344 0.664334 2.44775L13.3482 32.0435C13.4327 32.2406 13.575 32.4073 13.7564 32.5216C13.9378 32.6358 14.1497 32.6923 14.3639 32.6833C14.5781 32.6744 14.7845 32.6005 14.9558 32.4715C15.127 32.3425 15.255 32.1645 15.3227 31.9611L19.3837 19.7782L31.5665 15.7193C31.7706 15.652 31.9494 15.5241 32.0789 15.3526C32.2084 15.1812 32.2826 14.9743 32.2916 14.7596C32.3005 14.5449 32.2438 14.3325 32.129 14.1508C32.0142 13.9692 31.8468 13.8268 31.649 13.7428L2.05322 1.05886Z" fill="#00AFE3"/>
</svg>
