<svg width="22" height="24" viewBox="0 0 20 24" fill="none" xmlns="http://www.w3.org/2000/svg">
<path d="M17.9251 13.6613C17.6462 13.6613 17.398 13.5609 17.1804 13.3601C16.9622 13.1599 16.8356 12.9117 16.8007 12.6154C16.5741 10.9942 15.8901 9.61255 14.7487 8.47041C13.6065 7.32897 12.2249 6.64494 10.6037 6.41832C10.3073 6.38346 10.0591 6.26144 9.859 6.05225C9.65818 5.84307 9.55777 5.59031 9.55777 5.29396C9.55777 4.99762 9.66237 4.74904 9.87155 4.54822C10.0807 4.34811 10.3248 4.26548 10.6037 4.30034C12.8001 4.54439 14.674 5.44213 16.2255 6.99358C17.7769 8.54502 18.6747 10.419 18.9187 12.6154C18.9536 12.8943 18.8706 13.1383 18.6698 13.3475C18.4697 13.5567 18.2214 13.6613 17.9251 13.6613ZM13.5584 13.6613C13.3318 13.6613 13.1313 13.5828 12.957 13.426C12.7827 13.2691 12.6519 13.0599 12.5648 12.7984C12.4253 12.2929 12.1597 11.8438 11.7678 11.4513C11.3752 11.0594 10.9262 10.7937 10.4207 10.6543C10.1592 10.5671 9.94999 10.4364 9.79311 10.2621C9.63622 10.0877 9.55777 9.87856 9.55777 9.63451C9.55777 9.28587 9.6798 9.00243 9.92385 8.78418C10.1679 8.56663 10.4381 8.49272 10.7344 8.56245C11.7106 8.78907 12.5519 9.2552 13.2582 9.96084C13.9639 10.6672 14.43 11.5084 14.6566 12.4846C14.7263 12.781 14.6479 13.0512 14.4213 13.2952C14.1947 13.5393 13.907 13.6613 13.5584 13.6613ZM17.8728 23.0745C15.6241 23.0745 13.4322 22.5732 11.2971 21.5705C9.16137 20.5685 7.27001 19.2437 5.62304 17.596C3.97537 15.9491 2.65055 14.0577 1.64856 11.9219C0.645874 9.78687 0.144531 7.59498 0.144531 5.34626C0.144531 5.03248 0.249123 4.771 0.458306 4.56182C0.667489 4.35264 0.928968 4.24805 1.24274 4.24805H5.4787C5.72275 4.24805 5.94065 4.32649 6.1324 4.48338C6.32415 4.64027 6.43746 4.84073 6.47232 5.08478L7.15217 8.74549C7.18703 8.98953 7.18285 9.21162 7.13962 9.41173C7.09569 9.61255 6.99528 9.7914 6.83839 9.94829L4.3282 12.5108C5.06034 13.7659 5.97551 14.9425 7.07372 16.0407C8.17194 17.139 9.38346 18.089 10.7083 18.8909L13.1662 16.433C13.3231 16.2761 13.5281 16.1582 13.7812 16.0794C14.0336 16.0014 14.2818 15.9797 14.5259 16.0146L18.1343 16.7467C18.3783 16.799 18.5788 16.9165 18.7357 17.0992C18.8926 17.2826 18.971 17.4963 18.971 17.7404V21.9763C18.971 22.2901 18.8664 22.5516 18.6572 22.7608C18.4481 22.9699 18.1866 23.0745 17.8728 23.0745ZM3.33458 10.5235L5.06034 8.79778L4.58967 6.33988H2.28866C2.37582 7.05459 2.49784 7.76058 2.65473 8.45786C2.81162 9.15514 3.03823 9.8437 3.33458 10.5235ZM16.8792 20.9304V18.6294L14.4213 18.1064L12.6955 19.8322C13.3754 20.1285 14.0639 20.3726 14.7612 20.5643C15.4585 20.7561 16.1645 20.8781 16.8792 20.9304Z" fill="#00AFE3"/>
</svg>
