<svg width="36" height="36" viewBox="0 0 36 36" fill="none" xmlns="http://www.w3.org/2000/svg">
<circle cx="17.919" cy="17.8551" r="17.4992" fill="#282828"/>
<path d="M18.4314 9.46045C13.669 9.46045 11.1795 12.3574 11.1795 15.5647C11.1795 17.1167 12.0454 18.6686 13.4525 19.4963C13.8855 19.7033 13.7772 19.4963 14.1019 18.2548C14.1019 18.1513 14.1019 18.0479 13.9937 17.9444C12.0454 15.6682 13.669 11.2193 18.215 11.2193C24.8175 11.2193 23.5186 19.9102 19.4056 19.9102C18.5397 20.0136 17.782 19.3929 17.782 18.5652V18.1513C18.215 17.0132 18.5397 15.9786 18.6479 14.8405C18.6479 12.6678 15.2925 12.9782 15.2925 15.8751C15.2925 16.3925 15.4008 16.9098 15.6173 17.3236C15.6173 17.3236 14.5349 21.5656 14.3184 22.2898C14.1019 23.5314 14.2102 24.7729 14.4266 25.911C14.3184 26.0145 14.4266 26.0145 14.4266 26.0145H14.5349C15.2925 24.9799 15.942 23.9452 16.3749 22.8071C16.4832 22.2898 17.0244 20.4275 17.0244 20.4275C17.5655 21.1517 18.5397 21.5656 19.5138 21.5656C22.8692 21.5656 25.2504 18.7721 25.2504 15.3578C25.2504 11.9436 22.2198 9.46045 18.4314 9.46045Z" fill="white"/>
</svg>
