<svg width="25" height="25" viewBox="0 0 25 25" fill="none" xmlns="http://www.w3.org/2000/svg">
<path d="M12.7469 18.75C13.0969 18.75 13.3929 18.629 13.6349 18.387C13.8769 18.145 13.9975 17.8493 13.9969 17.5C13.9962 17.1507 13.8755 16.8547 13.6349 16.612C13.3942 16.3693 13.0982 16.2487 12.7469 16.25C12.3955 16.2513 12.0999 16.3723 11.8599 16.613C11.6199 16.8537 11.4989 17.1493 11.4969 17.5C11.4949 17.8507 11.6159 18.1467 11.8599 18.388C12.1039 18.6293 12.3995 18.75 12.7469 18.75ZM11.8469 14.9H13.6969C13.6969 14.35 13.7595 13.9167 13.8849 13.6C14.0102 13.2833 14.3642 12.85 14.9469 12.3C15.3802 11.8667 15.7219 11.454 15.9719 11.062C16.2219 10.67 16.3469 10.1993 16.3469 9.65C16.3469 8.71667 16.0052 8.00001 15.3219 7.50001C14.6385 7.00001 13.8302 6.75001 12.8969 6.75001C11.9469 6.75001 11.1762 7.00001 10.5849 7.50001C9.99354 8.00001 9.58088 8.60001 9.34688 9.30001L10.9969 9.95001C11.0802 9.65 11.2679 9.32501 11.5599 8.97501C11.8519 8.62501 12.2975 8.45001 12.8969 8.45001C13.4302 8.45001 13.8302 8.596 14.0969 8.888C14.3635 9.18 14.4969 9.50067 14.4969 9.85001C14.4969 10.1833 14.3969 10.496 14.1969 10.788C13.9969 11.08 13.7469 11.3507 13.4469 11.6C12.7135 12.25 12.2635 12.7417 12.0969 13.075C11.9302 13.4083 11.8469 14.0167 11.8469 14.9ZM12.7969 22.75C11.4135 22.75 10.1135 22.4877 8.89688 21.963C7.68021 21.4383 6.62188 20.7257 5.72188 19.825C4.82188 18.9243 4.10954 17.866 3.58488 16.65C3.06021 15.434 2.79754 14.134 2.79688 12.75C2.79621 11.366 3.05888 10.066 3.58488 8.85001C4.11088 7.63401 4.82321 6.57567 5.72188 5.67501C6.62054 4.77434 7.67888 4.06201 8.89688 3.53801C10.1149 3.01401 11.4149 2.75134 12.7969 2.75001C14.1789 2.74867 15.4789 3.01134 16.6969 3.53801C17.9149 4.06467 18.9732 4.77701 19.8719 5.67501C20.7705 6.57301 21.4832 7.63134 22.0099 8.85001C22.5365 10.0687 22.7989 11.3687 22.7969 12.75C22.7949 14.1313 22.5322 15.4313 22.0089 16.65C21.4855 17.8687 20.7732 18.927 19.8719 19.825C18.9705 20.723 17.9122 21.4357 16.6969 21.963C15.4815 22.4903 14.1815 22.7527 12.7969 22.75ZM12.7969 20.75C15.0302 20.75 16.9219 19.975 18.4719 18.425C20.0219 16.875 20.7969 14.9833 20.7969 12.75C20.7969 10.5167 20.0219 8.625 18.4719 7.07501C16.9219 5.52501 15.0302 4.75001 12.7969 4.75001C10.5635 4.75001 8.67188 5.52501 7.12188 7.07501C5.57188 8.625 4.79688 10.5167 4.79688 12.75C4.79688 14.9833 5.57188 16.875 7.12188 18.425C8.67188 19.975 10.5635 20.75 12.7969 20.75Z" fill="#00AFE3"/>
</svg>
