<svg width="25" height="25" viewBox="0 0 25 25" fill="none" xmlns="http://www.w3.org/2000/svg">
<path d="M12.8602 18.1758C13.2102 18.1758 13.5062 18.0548 13.7482 17.8128C13.9902 17.5708 14.1108 17.2751 14.1102 16.9258C14.1095 16.5765 13.9888 16.2805 13.7482 16.0378C13.5075 15.7951 13.2115 15.6745 12.8602 15.6758C12.5088 15.6771 12.2132 15.7981 11.9732 16.0388C11.7332 16.2795 11.6122 16.5751 11.6102 16.9258C11.6082 17.2765 11.7292 17.5725 11.9732 17.8138C12.2172 18.0551 12.5128 18.1758 12.8602 18.1758ZM11.9602 14.3258H13.8102C13.8102 13.7758 13.8728 13.3425 13.9982 13.0258C14.1235 12.7091 14.4775 12.2758 15.0602 11.7258C15.4935 11.2925 15.8352 10.8798 16.0852 10.4878C16.3352 10.0958 16.4602 9.62512 16.4602 9.07579C16.4602 8.14245 16.1185 7.42579 15.4352 6.92579C14.7518 6.42579 13.9435 6.17579 13.0102 6.17579C12.0602 6.17579 11.2895 6.42579 10.6982 6.92579C10.1068 7.42579 9.69416 8.02579 9.46016 8.72579L11.1102 9.37579C11.1935 9.07579 11.3812 8.75079 11.6732 8.40079C11.9652 8.05079 12.4108 7.87579 13.0102 7.87579C13.5435 7.87579 13.9435 8.02179 14.2102 8.31379C14.4768 8.60579 14.6102 8.92645 14.6102 9.27579C14.6102 9.60912 14.5102 9.92179 14.3102 10.2138C14.1102 10.5058 13.8602 10.7765 13.5602 11.0258C12.8268 11.6758 12.3768 12.1675 12.2102 12.5008C12.0435 12.8341 11.9602 13.4425 11.9602 14.3258ZM12.9102 22.1758C11.5268 22.1758 10.2268 21.9135 9.01016 21.3888C7.79349 20.8641 6.73516 20.1515 5.83516 19.2508C4.93516 18.3501 4.22282 17.2918 3.69816 16.0758C3.17349 14.8598 2.91082 13.5598 2.91016 12.1758C2.90949 10.7918 3.17216 9.49179 3.69816 8.27579C4.22416 7.05979 4.93649 6.00145 5.83516 5.10079C6.73382 4.20012 7.79216 3.48779 9.01016 2.96379C10.2282 2.43979 11.5282 2.17712 12.9102 2.17579C14.2922 2.17445 15.5922 2.43712 16.8102 2.96379C18.0282 3.49045 19.0865 4.20279 19.9852 5.10079C20.8838 5.99879 21.5965 7.05712 22.1232 8.27579C22.6498 9.49445 22.9122 10.7945 22.9102 12.1758C22.9082 13.5571 22.6455 14.8571 22.1222 16.0758C21.5988 17.2945 20.8865 18.3528 19.9852 19.2508C19.0838 20.1488 18.0255 20.8615 16.8102 21.3888C15.5948 21.9161 14.2948 22.1785 12.9102 22.1758ZM12.9102 20.1758C15.1435 20.1758 17.0352 19.4008 18.5852 17.8508C20.1352 16.3008 20.9102 14.4091 20.9102 12.1758C20.9102 9.94245 20.1352 8.05079 18.5852 6.50079C17.0352 4.95079 15.1435 4.17579 12.9102 4.17579C10.6768 4.17579 8.78516 4.95079 7.23516 6.50079C5.68516 8.05079 4.91016 9.94245 4.91016 12.1758C4.91016 14.4091 5.68516 16.3008 7.23516 17.8508C8.78516 19.4008 10.6768 20.1758 12.9102 20.1758Z" fill="black"/>
</svg>
