<svg width="18" height="19" viewBox="0 0 18 19" fill="none" xmlns="http://www.w3.org/2000/svg">
<path d="M1.01367 9.72349C1.01367 10.7609 1.21801 11.7882 1.61502 12.7467C2.01204 13.7052 2.59395 14.576 3.32753 15.3096C4.06111 16.0432 4.932 16.6251 5.89047 17.0221C6.84895 17.4191 7.87623 17.6235 8.91367 17.6235C9.95112 17.6235 10.9784 17.4191 11.9369 17.0221C12.8953 16.6251 13.7662 16.0432 14.4998 15.3096C15.2334 14.576 15.8153 13.7052 16.2123 12.7467C16.6093 11.7882 16.8137 10.7609 16.8137 9.72349C16.8137 7.62828 15.9814 5.61888 14.4998 4.13734C13.0183 2.65581 11.0089 1.82349 8.91367 1.82349C6.81846 1.82349 4.80907 2.65581 3.32753 4.13734C1.84599 5.61888 1.01367 7.62828 1.01367 9.72349Z" stroke="#00AFE3" stroke-width="1.75556" stroke-linecap="round" stroke-linejoin="round"/>
<path d="M8.91406 5.33521V9.72409L11.5474 12.3574" stroke="#00AFE3" stroke-width="1.75556" stroke-linecap="round" stroke-linejoin="round"/>
</svg>
