<svg width="28" height="29" viewBox="0 0 28 29" fill="none" xmlns="http://www.w3.org/2000/svg">
<path d="M13.9883 0.266602C12.1534 0.266602 10.3364 0.628015 8.64118 1.33021C6.94594 2.0324 5.4056 3.06162 4.10812 4.3591C1.48774 6.97948 0.015625 10.5335 0.015625 14.2393C0.015625 17.945 1.48774 21.499 4.10812 24.1194C5.4056 25.4169 6.94594 26.4461 8.64118 27.1483C10.3364 27.8505 12.1534 28.2119 13.9883 28.2119C17.6941 28.2119 21.2481 26.7398 23.8684 24.1194C26.4888 21.499 27.9609 17.945 27.9609 14.2393C27.9609 12.4043 27.5995 10.5874 26.8973 8.89215C26.1951 7.19691 25.1659 5.65658 23.8684 4.3591C22.571 3.06162 21.0306 2.0324 19.3354 1.33021C17.6401 0.628015 15.8232 0.266602 13.9883 0.266602ZM19.8568 20.1078L12.591 15.6365V7.25293H14.6869V14.5187L20.9746 18.2913L19.8568 20.1078Z" fill="#00AFE3"/>
</svg>
