<svg width="17" height="17" viewBox="0 0 17 17" fill="none" xmlns="http://www.w3.org/2000/svg">
<path d="M16 12L12.5116 15.5L10.0698 13.05L11.1163 12L12.5116 13.4L14.9535 10.95L16 12ZM8.74419 14.03C8.46512 14.1 8.25581 14.1 7.97674 14.1C4.90698 14.1 2.39535 11.58 2.39535 8.5C2.39535 5.42 4.90698 2.9 7.97674 2.9C11.0465 2.9 13.5581 5.42 13.5581 8.5C13.5581 8.78 13.5581 8.99 13.4884 9.27C13.9767 9.34 14.3953 9.48 14.814 9.69C14.8837 9.27 14.9535 8.92 14.9535 8.5C14.9535 4.65 11.814 1.5 7.97674 1.5C4.13953 1.5 1 4.65 1 8.5C1 12.35 4.13953 15.5 7.97674 15.5C8.39535 15.5 8.81395 15.43 9.16279 15.36C8.95349 15.01 8.81395 14.52 8.74419 14.03ZM10.4884 9.97L8.32558 8.71V5H7.27907V9.2L9.72093 10.67C9.93023 10.39 10.2093 10.18 10.4884 9.97Z" fill="white"/>
</svg>
