<svg width="17" height="17" viewBox="0 0 17 17" fill="none" xmlns="http://www.w3.org/2000/svg">
<path d="M15.9928 8.59836C15.7472 8.59836 15.5287 8.50997 15.3372 8.33319C15.1451 8.15701 15.0336 7.93849 15.0029 7.6776C14.8035 6.25043 14.2013 5.0341 13.1964 4.02863C12.1909 3.02378 10.9746 2.4216 9.54745 2.2221C9.28656 2.19141 9.06804 2.08399 8.89186 1.89983C8.71508 1.71568 8.62669 1.49317 8.62669 1.23228C8.62669 0.971402 8.71876 0.752567 8.90291 0.575782C9.08707 0.399609 9.30191 0.326869 9.54745 0.357561C11.481 0.572405 13.1307 1.36272 14.4965 2.72852C15.8623 4.09431 16.6526 5.74401 16.8675 7.6776C16.8982 7.92314 16.8251 8.13798 16.6483 8.32214C16.4722 8.50629 16.2536 8.59836 15.9928 8.59836ZM12.1486 8.59836C11.9491 8.59836 11.7726 8.52931 11.6192 8.39119C11.4657 8.25308 11.3506 8.06893 11.2739 7.83874C11.1511 7.3937 10.9172 6.99839 10.5723 6.6528C10.2267 6.30782 9.83135 6.07395 9.38631 5.95118C9.15612 5.87445 8.97197 5.75935 8.83386 5.60589C8.69574 5.45243 8.62669 5.26828 8.62669 5.05344C8.62669 4.74652 8.73411 4.49699 8.94895 4.30486C9.1638 4.11334 9.40166 4.04827 9.66254 4.10966C10.5219 4.30916 11.2625 4.71951 11.8843 5.34072C12.5055 5.96254 12.9159 6.70313 13.1154 7.56251C13.1768 7.82339 13.1077 8.06125 12.9082 8.2761C12.7087 8.49094 12.4555 8.59836 12.1486 8.59836ZM15.9467 16.8852C13.9671 16.8852 12.0375 16.4439 10.1579 15.5612C8.27772 14.6791 6.61268 13.5128 5.16279 12.0623C3.71228 10.6124 2.54599 8.94733 1.6639 7.06714C0.781195 5.18756 0.339844 3.25796 0.339844 1.27832C0.339844 1.00209 0.43192 0.771903 0.616072 0.587751C0.800224 0.403599 1.03041 0.311523 1.30664 0.311523H5.03572C5.25057 0.311523 5.44239 0.38058 5.6112 0.518694C5.78 0.656808 5.87975 0.833287 5.91044 1.04813L6.50894 4.27079C6.53963 4.48564 6.53595 4.68114 6.49789 4.85732C6.45922 5.0341 6.37082 5.19155 6.23271 5.32967L4.02288 7.58553C4.66742 8.69044 5.47308 9.7263 6.43988 10.6931C7.40668 11.6599 8.47323 12.4962 9.63952 13.2022L11.8033 11.0384C11.9414 10.9003 12.1219 10.7965 12.3447 10.7272C12.5669 10.6584 12.7855 10.6394 13.0003 10.6701L16.1769 11.3146C16.3918 11.3606 16.5682 11.4641 16.7064 11.6249C16.8445 11.7863 16.9135 11.9745 16.9135 12.1893V15.9184C16.9135 16.1946 16.8215 16.4248 16.6373 16.609C16.4531 16.7931 16.223 16.8852 15.9467 16.8852ZM3.14816 5.83608L4.66742 4.31683L4.25307 2.15304H2.2274C2.30413 2.78223 2.41155 3.40374 2.54967 4.01758C2.68778 4.63142 2.88728 5.23759 3.14816 5.83608ZM15.072 14.9976V12.972L12.9082 12.5116L11.389 14.0308C11.9875 14.2917 12.5936 14.5066 13.2075 14.6754C13.8213 14.8442 14.4428 14.9516 15.072 14.9976Z" fill="#00AFE3"/>
</svg>
