<svg width="19" height="15" viewBox="0 0 19 15" fill="none" xmlns="http://www.w3.org/2000/svg">
<path d="M2.72601 14.3786C2.2288 14.3786 1.8033 14.2128 1.44953 13.8812C1.09516 13.5489 0.917969 13.1497 0.917969 12.6836V2.5134C0.917969 2.04726 1.09516 1.64836 1.44953 1.3167C1.8033 0.984473 2.2288 0.818359 2.72601 0.818359H17.1903C17.6875 0.818359 18.1133 0.984473 18.4677 1.3167C18.8215 1.64836 18.9984 2.04726 18.9984 2.5134V12.6836C18.9984 13.1497 18.8215 13.5489 18.4677 13.8812C18.1133 14.2128 17.6875 14.3786 17.1903 14.3786H2.72601ZM9.95816 8.44602L2.72601 4.20843V12.6836H17.1903V4.20843L9.95816 8.44602ZM9.95816 6.75098L17.1903 2.5134H2.72601L9.95816 6.75098ZM2.72601 4.20843V2.5134V12.6836V4.20843Z" fill="#00AFE3"/>
</svg>
