<svg width="18" height="18" viewBox="0 0 18 18" fill="none" xmlns="http://www.w3.org/2000/svg">
<path fill-rule="evenodd" clip-rule="evenodd" d="M8.72656 2.38945C7.53174 2.38923 6.35776 2.7024 5.3218 3.29769C4.28584 3.89298 3.42412 4.74958 2.82267 5.78198C2.22123 6.81438 1.90108 7.98647 1.89418 9.18127C1.88729 10.3761 2.19389 11.5518 2.78338 12.5911C3.18182 12.0732 3.69401 11.654 4.28035 11.3657C4.86669 11.0774 5.51147 10.9278 6.16485 10.9285H11.2883C11.9417 10.9278 12.5864 11.0774 13.1728 11.3657C13.7591 11.654 14.2713 12.0732 14.6697 12.5911C15.2592 11.5518 15.5658 10.3761 15.5589 9.18127C15.5521 7.98647 15.2319 6.81438 14.6305 5.78198C14.029 4.74958 13.1673 3.89298 12.1313 3.29769C11.0954 2.7024 9.92138 2.38923 8.72656 2.38945ZM15.5091 14.409C15.6162 14.2696 15.7186 14.1267 15.8165 13.9804C16.7632 12.5737 17.2678 10.9162 17.2656 9.22069C17.2656 4.50458 13.4427 0.681641 8.72656 0.681641C4.01044 0.681641 0.187509 4.50458 0.187509 9.22069C0.184818 11.0965 0.802355 12.9206 1.94399 14.409L1.93972 14.4244L2.24286 14.7771C3.04372 15.7134 4.0381 16.4649 5.15744 16.9798C6.27678 17.4948 7.49446 17.7608 8.72656 17.7597C8.91101 17.7597 9.09431 17.7541 9.27648 17.7427C10.8173 17.6455 12.3024 17.1304 13.5725 16.2526C14.1799 15.8336 14.7304 15.3376 15.2103 14.7771L15.5134 14.4244L15.5091 14.409ZM8.72656 4.09726C8.04715 4.09726 7.39557 4.36716 6.91516 4.84757C6.43474 5.32799 6.16485 5.97957 6.16485 6.65898C6.16485 7.33839 6.43474 7.98997 6.91516 8.47039C7.39557 8.9508 8.04715 9.22069 8.72656 9.22069C9.40597 9.22069 10.0576 8.9508 10.538 8.47039C11.0184 7.98997 11.2883 7.33839 11.2883 6.65898C11.2883 5.97957 11.0184 5.32799 10.538 4.84757C10.0576 4.36716 9.40597 4.09726 8.72656 4.09726Z" fill="#00AFE3"/>
</svg>
