<svg width="11" height="12" viewBox="0 0 11 12" fill="none" xmlns="http://www.w3.org/2000/svg">
<path d="M9.35087 1.07057C9.19448 0.914098 9.00878 0.789979 8.8044 0.705314C8.60001 0.620649 8.38094 0.577097 8.15971 0.577148C7.93848 0.5772 7.71942 0.620854 7.51508 0.705615C7.31073 0.790376 7.12509 0.914581 6.96877 1.07113L1.6812 6.36593C1.36615 6.68171 1.18915 7.10952 1.18899 7.55559V9.33702C1.18899 9.56728 1.37586 9.75415 1.60612 9.75415H3.39868C3.84529 9.75415 4.27354 9.57618 4.58889 9.26082L9.87257 3.97381C10.1877 3.65789 10.3647 3.22985 10.3647 2.7836C10.3647 2.33734 10.1877 1.9093 9.87257 1.59338L9.35087 1.07057ZM1.04994 10.5884C0.939314 10.5884 0.833215 10.6324 0.754988 10.7106C0.67676 10.7888 0.632812 10.8949 0.632812 11.0055C0.632812 11.1162 0.67676 11.2223 0.754988 11.3005C0.833215 11.3787 0.939314 11.4227 1.04994 11.4227H9.94876C10.0594 11.4227 10.1655 11.3787 10.2437 11.3005C10.3219 11.2223 10.3659 11.1162 10.3659 11.0055C10.3659 10.8949 10.3219 10.7888 10.2437 10.7106C10.1655 10.6324 10.0594 10.5884 9.94876 10.5884H1.04994Z" fill="black"/>
</svg>
