<svg width="386" height="283" viewBox="0 0 386 283" fill="none" xmlns="http://www.w3.org/2000/svg">
<mask id="mask0_1122_3025" style="mask-type:luminance" maskUnits="userSpaceOnUse" x="0" y="0" width="386" height="283">
<path d="M385.051 0.986328H0.5625V282.707H385.051V0.986328Z" fill="white"/>
</mask>
<g mask="url(#mask0_1122_3025)">
<path d="M279.79 145.922C278.962 146.048 278.17 146.21 277.378 146.39C277.378 146.084 277.486 145.849 277.666 145.741C278.35 145.363 272.645 130.902 279.79 119.686C291.218 101.745 293.954 83.6957 293.954 83.6957C293.954 83.6957 290.589 82.8122 292.37 77.8536C294.134 72.895 304.051 61.0124 320.338 64.3843C325.81 65.5202 335.906 72.1918 338.21 81.4058C340.514 90.6197 338.75 94.3522 340.694 98.7879C342.637 103.224 347.587 105.171 350.07 113.321C352.554 121.471 347.425 127.079 345.301 129.062C343.177 131.046 342.817 139.376 346.363 144.353C347.947 146.589 349.17 149.023 348.9 151.385C345.139 149.366 340.91 147.905 335.906 146.841L279.808 145.958L279.79 145.922Z" fill="#F94926"/>
<path d="M279.341 121.11C279.52 121.11 279.682 121.002 279.736 120.822C280.204 119.379 284.344 114.601 289.473 111.445C289.671 111.319 289.743 111.067 289.617 110.868C289.491 110.67 289.221 110.616 289.023 110.724C284.02 113.808 279.521 118.748 278.927 120.569C278.855 120.786 278.981 121.038 279.197 121.11C279.233 121.11 279.287 121.128 279.323 121.128L279.341 121.11Z" fill="#122A36"/>
<path d="M279.791 145.921C279.791 145.921 281.375 157.425 284.741 162.745C288.088 168.064 295.179 177.296 304.556 178.161C313.951 179.063 321.546 173.906 327.233 166.459C332.92 159.012 335.872 146.787 335.872 146.787C335.872 146.787 320.484 145.38 318.882 143.794C317.28 142.207 315.354 135.986 316.758 131.568C318.18 127.115 325.091 118.081 325.091 118.081C330.238 117.54 336.772 114.186 337.995 106.036C339.255 97.868 333.586 99.6531 332.344 101.582C332.344 101.582 326.513 95.9207 323.849 90.6014C321.204 85.2822 319.602 79.7646 319.602 79.7646C319.602 79.7646 311.449 83.1545 305.798 84.7413C300.129 86.328 292.48 82.6316 292.48 82.6316C292.084 84.1282 288.07 95.7584 287.764 106.505C287.674 109.624 287.89 112.69 288.61 115.394C288.97 116.765 289.456 118.009 290.032 119.181C293.811 127.061 301.352 130.487 301.352 130.487C301.352 130.487 301.37 130.613 301.442 130.865C301.478 131.082 301.55 131.406 301.604 131.785C302.234 134.832 303.494 142.297 301.532 143.415C299.049 144.839 279.773 145.903 279.773 145.903L279.791 145.921Z" fill="white"/>
<path d="M226.106 233.228L227.582 229.406C234.313 231.804 253.732 247.239 253.732 247.239C253.048 249.835 247.343 262.637 239.928 266.785C232.513 270.932 216.837 263.99 207.136 257.967C194.88 250.358 173.823 234.382 173.823 234.382L169.684 213.178C169.684 213.178 224.918 233.247 226.124 233.247L226.106 233.228Z" fill="white"/>
<path d="M251.141 169.687C257.026 158.147 263.991 148.86 277.615 145.849C278.389 145.687 279.163 145.525 279.973 145.398C279.973 145.398 281.521 156.632 284.814 161.825C288.108 167.018 295.001 175.997 304.143 176.863C313.286 177.728 320.719 172.716 326.262 165.449C331.806 158.183 334.703 146.246 334.703 146.246C339.58 147.292 343.684 148.716 347.373 150.682C349.821 151.998 352.071 153.549 354.212 155.406C359.558 160.076 370.266 197.833 374.406 218.317C377.771 234.978 382.684 249.817 382.684 260.708C382.684 271.599 372.84 280.939 362.221 282.761C362.221 282.761 364.723 272.645 356.102 262.62C347.463 252.594 342.298 250.863 342.298 250.863L349.155 248.267L344.89 222.067L340.822 251.206L274.43 267.073L268.238 225.169C268.238 225.169 264.621 221.797 264.351 218.948L253.732 247.221C253.732 247.221 234.313 231.768 227.582 229.388C227.582 229.388 244.932 181.858 251.141 169.669V169.687Z" fill="#00AFE3"/>
<path d="M318.973 63.7709C324.174 65.2134 329.322 67.1067 333.047 74.6978C336.755 82.271 335.297 98.3729 333.839 103.422L330.923 102.358C330.923 102.358 332.777 87.8246 330.527 79.8007C328.278 71.7768 319.549 63.7528 308.984 64.438C308.984 64.438 314.618 62.5628 318.991 63.7709H318.973Z" fill="black"/>
<path d="M344.963 307.067C344.963 307.067 345.089 307.067 345.143 307.031C345.269 306.959 345.359 306.833 345.377 306.688C345.989 297.492 335.244 284.51 333.246 282.508C333.084 282.346 332.814 282.346 332.652 282.508C332.49 282.671 332.49 282.941 332.652 283.103C332.778 283.23 344.585 296.23 344.567 305.913C342.461 304.489 335.37 299.62 329.323 294.427C322.25 288.351 320.666 282.761 320.648 282.707C320.594 282.49 320.36 282.364 320.144 282.418C319.928 282.472 319.802 282.707 319.856 282.923C319.928 283.158 321.53 288.819 328.783 295.058C335.964 301.225 344.639 306.959 344.729 307.031C344.801 307.085 344.873 307.103 344.963 307.103V307.067Z" fill="#122A36"/>
<path d="M48.4537 160.815L67.0632 256.741C67.5311 259.212 69.9428 261.249 72.4084 261.249H220.06C222.526 261.249 224.181 259.23 223.677 256.741L205.068 160.815C204.6 158.345 202.188 156.307 199.723 156.307H52.0712C49.6056 156.307 47.9498 158.327 48.4537 160.815Z" fill="black"/>
<path d="M105.703 180.361H140.942L160.416 255.93L148.573 275.584L176.163 280.615V285.14H142.814H107.215L126.31 255.93L105.703 180.361Z" fill="#0A0702"/>
<path d="M165.309 156.307L184.782 261.249H185.7L166.262 156.307H165.309Z" fill="#0C0803"/>
<path d="M322.699 97.5976C322.843 97.5976 322.987 97.5254 323.059 97.3812C323.185 97.1828 323.113 96.9124 322.915 96.8042C320.953 95.6321 314.222 94.0454 310.947 95.8666C310.749 95.9747 310.677 96.2452 310.785 96.4436C310.893 96.6419 311.162 96.714 311.36 96.6058C314.204 95.0191 320.629 96.4436 322.483 97.5254C322.555 97.5615 322.627 97.5795 322.699 97.5795V97.5976Z" fill="#122A36"/>
<path d="M302.254 94.6587C302.254 94.6587 302.434 94.6406 302.506 94.5865C302.704 94.4423 302.74 94.1898 302.614 93.9915C301.966 93.0899 300.113 90.9622 296.657 90.5295C293.615 90.1689 291.852 91.2507 291.78 91.3048C291.582 91.4311 291.528 91.6835 291.654 91.8818C291.78 92.0802 292.032 92.1343 292.23 92.0261C292.23 92.0261 293.831 91.0344 296.549 91.377C299.663 91.7556 301.336 93.6669 301.912 94.4783C302.002 94.5865 302.128 94.6587 302.254 94.6587Z" fill="#122A36"/>
<path d="M301.03 121.111C304.881 121.111 306.825 118.37 306.843 118.334C306.969 118.135 306.933 117.883 306.735 117.739C306.537 117.612 306.285 117.649 306.141 117.847C306.015 118.027 302.974 122.265 296.603 119.073C296.387 118.965 296.135 119.055 296.027 119.271C295.919 119.488 296.009 119.74 296.207 119.848C298.042 120.768 299.662 121.111 301.012 121.111H301.03Z" fill="#F94926"/>
<path d="M301.441 130.883C301.477 131.099 301.783 132.578 301.837 132.975C302.827 133.173 309.936 132.975 314.688 129.404C314.868 129.26 314.94 129.026 314.814 128.809C314.688 128.611 314.436 128.557 314.22 128.683C310.674 130.937 305.329 131.73 301.441 130.901V130.883Z" fill="#122A36"/>
<path d="M346.111 249.835C346.111 249.835 346.219 249.835 346.255 249.799C346.489 249.709 346.741 249.619 346.993 249.511C349.495 248.519 352.59 247.293 358.566 248.681C358.782 248.735 359.016 248.591 359.07 248.375C359.124 248.158 358.98 247.924 358.764 247.87C352.536 246.427 349.153 247.762 346.687 248.735C346.435 248.844 346.183 248.934 345.949 249.024C345.733 249.114 345.625 249.349 345.715 249.565C345.769 249.727 345.931 249.835 346.111 249.835Z" fill="#6C90FE"/>
<path d="M339.165 228.631C339.165 228.631 339.327 228.613 339.399 228.559C339.525 228.468 342.603 226.395 345.213 222.302C347.102 219.327 350.198 212.349 349.55 199.15C349.55 198.915 349.316 198.771 349.118 198.753C348.884 198.753 348.722 198.951 348.722 199.186C349.37 212.168 346.364 218.966 344.511 221.851C342.009 225.782 338.967 227.855 338.931 227.873C338.733 228 338.698 228.252 338.823 228.45C338.895 228.577 339.039 228.631 339.165 228.631Z" fill="#6C90FE"/>
<path d="M272.017 228.631C272.161 228.631 272.305 228.559 272.377 228.414C272.485 228.216 272.413 227.964 272.215 227.855C269.947 226.557 267.626 224.015 264.926 219.867C262.46 216.081 259.419 198.32 267.194 185.374C267.32 185.175 267.248 184.923 267.05 184.797C266.852 184.67 266.6 184.743 266.474 184.941C258.519 198.194 261.668 216.424 264.206 220.318C266.978 224.574 269.371 227.206 271.765 228.577C271.837 228.613 271.909 228.631 271.963 228.631H272.017Z" fill="#6C90FE"/>
<path d="M279.524 268.227C279.65 268.227 279.758 268.173 279.848 268.065C285.085 261.411 297.593 235.483 305.872 218.335C306.916 216.171 307.906 214.115 308.806 212.258C314.241 201.025 323.798 180.018 326.641 165.521C328.153 157.75 328.909 143.451 329.503 131.965C329.845 125.456 330.133 119.83 330.511 116.368C330.529 116.134 330.367 115.935 330.151 115.917C329.881 115.881 329.719 116.061 329.701 116.278C329.341 119.758 329.035 125.402 328.693 131.911C328.099 143.379 327.343 157.642 325.849 165.359C323.024 179.766 313.503 200.7 308.086 211.898C307.186 213.755 306.196 215.792 305.152 217.974C296.891 235.104 284.419 260.979 279.218 267.56C279.074 267.74 279.11 267.993 279.29 268.137C279.362 268.191 279.452 268.227 279.542 268.227H279.524Z" fill="#6C90FE"/>
<path d="M279.794 119.686C283.429 121.038 281.377 130.775 276.608 129.044C271.821 127.313 275.006 117.919 279.794 119.686Z" fill="#122A36"/>
<path d="M332.345 101.6C337.762 101.492 339.238 106.216 338.176 110.995C337.114 115.773 333.569 117.937 329.951 116.765C326.334 115.611 325.794 110.292 326.675 106.92C327.557 103.548 329.609 101.655 332.345 101.6Z" fill="#122A36"/>
<path d="M237.497 285.105H260.606C260.606 285.105 285.82 284.852 302.378 285.105C318.954 285.357 359.07 283.031 362.184 282.779C362.184 282.779 364.685 272.645 356.064 262.62C347.426 252.576 342.242 250.845 342.242 250.845L340.767 251.206L274.374 267.073H274.23C274.23 267.073 271.296 265.541 265.753 264.855C260.246 264.17 255.746 265.901 251.607 269.526C247.468 273.15 237.461 285.087 237.461 285.087L237.497 285.105Z" fill="white"/>
<path d="M243.238 285.105H244.444C247.09 282.599 251.283 278.56 254.019 275.711C254.181 275.548 254.181 275.296 254.019 275.134C253.857 274.971 253.587 274.989 253.443 275.134C250.473 278.217 245.848 282.671 243.256 285.123L243.238 285.105Z" fill="#122A36"/>
<path d="M248.258 285.105H249.86C252.883 283.23 256.969 280.579 259.704 278.343C259.866 278.199 259.884 277.928 259.74 277.766C259.596 277.586 259.344 277.55 259.164 277.712C256.105 280.218 251.317 283.266 248.276 285.123L248.258 285.105Z" fill="#122A36"/>
<path d="M255.73 285.105H257.53C259.78 283.915 262.48 282.436 264.819 280.958C264.999 280.831 265.071 280.579 264.945 280.399C264.819 280.2 264.549 280.146 264.369 280.254C261.544 282.04 258.178 283.843 255.73 285.105Z" fill="#122A36"/>
<path d="M309.903 102.214C309.687 103.836 310.083 105.225 310.785 105.315C311.486 105.405 312.242 104.179 312.458 102.556C312.674 100.933 312.278 99.545 311.576 99.4549C310.875 99.3647 310.119 100.591 309.903 102.214Z" fill="#122A36"/>
<path d="M293.364 98.7517C293.148 100.375 293.544 101.763 294.246 101.853C294.947 101.943 295.703 100.717 295.919 99.0943C296.135 97.4715 295.739 96.0831 295.037 95.993C294.336 95.9028 293.58 97.1289 293.364 98.7517Z" fill="#122A36"/>
<path d="M170.963 142.503L170.817 142.36H170.613H132.36H132.306C129.504 142.36 127.234 140.064 127.234 137.278V71.0955C127.234 68.3112 129.529 66.0132 132.306 66.0132H231.635C234.437 66.0132 236.707 68.3097 236.707 71.0955V137.278C236.707 140.062 234.412 142.36 231.635 142.36H195.525H195.346L195.207 142.475L182.026 153.353L170.963 142.503Z" stroke="#00AFE3"/>
<path d="M182.855 95.3035C182.855 82.7165 193.062 72.4912 205.625 72.4912C218.189 72.4912 228.395 82.7165 228.395 95.3035C228.395 107.891 218.189 118.116 205.625 118.116C193.062 118.116 182.855 107.891 182.855 95.3035ZM183.873 95.3035C183.873 107.327 193.651 117.123 205.652 117.123C217.653 117.123 227.43 107.327 227.43 95.3035C227.43 83.2801 217.653 73.4842 205.652 73.4842C193.651 73.4842 183.873 83.2801 183.873 95.3035Z" fill="#00AFE3"/>
<path d="M141.362 118.304H173.561C176.695 118.304 179.267 115.727 179.267 112.587C179.267 109.447 176.695 106.871 173.561 106.871H141.362C138.228 106.871 135.656 109.447 135.656 112.587C135.656 115.727 138.228 118.304 141.362 118.304Z" fill="#00AFE3"/>
<path d="M148.595 73.4842H178.731C178.999 73.4842 179.24 73.2695 179.24 72.9743C179.24 72.6791 179.026 72.4644 178.731 72.4644H148.595C148.327 72.4644 148.086 72.6791 148.086 72.9743C148.086 73.2695 148.3 73.4842 148.595 73.4842Z" fill="#00AFE3"/>
<path d="M160.196 82.7435H178.734C179.001 82.7435 179.243 82.5288 179.243 82.2336C179.243 81.9383 179.028 81.7236 178.734 81.7236H160.196C159.929 81.7236 159.688 81.9383 159.688 82.2336C159.688 82.5288 159.902 82.7435 160.196 82.7435Z" fill="#00AFE3"/>
<path d="M155.103 130.139H178.756C179.024 130.139 179.265 129.924 179.265 129.629C179.265 129.334 179.051 129.119 178.756 129.119H155.103C154.835 129.119 154.594 129.334 154.594 129.629C154.594 129.924 154.808 130.139 155.103 130.139Z" fill="#00AFE3"/>
<path d="M197.535 91.3851C197.535 85.4807 201.687 80.6499 206.804 80.6499C211.92 80.6499 216.072 85.4539 216.072 91.3851C216.072 97.3163 211.92 102.093 206.804 102.093C201.687 102.093 197.535 97.2895 197.535 91.3851ZM198.526 91.3851C198.526 96.7527 202.223 101.1 206.777 101.1C211.331 101.1 215.028 96.7259 215.028 91.3851C215.028 86.0443 211.331 81.6697 206.777 81.6697C202.223 81.6697 198.526 86.0443 198.526 91.3851Z" fill="#00AFE3"/>
<path d="M220.867 112.05C220.867 112.05 220.974 112.05 221.055 112.024C221.322 111.916 221.456 111.648 221.349 111.379C221.188 110.95 217.277 100.617 213.072 98.3362C212.831 98.202 212.509 98.2825 212.402 98.5509C212.268 98.7925 212.375 99.0877 212.616 99.2219C216.527 101.315 220.412 111.621 220.438 111.728C220.519 111.943 220.706 112.05 220.894 112.05H220.867Z" fill="#00AFE3"/>
<path d="M191.562 113.097C191.803 113.097 192.018 112.909 192.044 112.668C193.464 101.449 200.268 98.5239 200.349 98.4971C200.617 98.3897 200.724 98.0945 200.617 97.853C200.509 97.5846 200.215 97.4772 199.974 97.5846C199.679 97.7188 192.553 100.725 191.053 112.56C191.027 112.829 191.214 113.097 191.482 113.124H191.536L191.562 113.097Z" fill="#00AFE3"/>
<path d="M302.701 99.8691L298.273 111.878L302.053 112.311" stroke="#122A36" stroke-width="0.5" stroke-miterlimit="10" stroke-linecap="round"/>
</g>
</svg>
