<svg width="179" height="187" viewBox="0 0 179 187" fill="none" xmlns="http://www.w3.org/2000/svg">
<path d="M92.4762 69.7496C91.7847 69.8551 91.1232 69.9906 90.4617 70.1413C90.4617 69.8852 90.5519 69.6894 90.7022 69.599C91.2735 69.2827 86.5077 57.2027 92.4762 47.8339C102.023 32.8469 104.308 17.7694 104.308 17.7694C104.308 17.7694 101.497 17.0314 102.985 12.8892C104.458 8.7471 112.742 -1.179 126.348 1.63766C130.919 2.58659 139.353 8.15966 141.277 15.8565C143.201 23.5534 141.728 26.6713 143.352 30.3766C144.976 34.082 149.11 35.7087 151.185 42.5169C153.259 49.3251 148.975 54.0095 147.201 55.6663C145.427 57.3232 145.126 64.282 148.088 68.4392C149.411 70.307 150.433 72.3404 150.207 74.3136C147.065 72.6266 143.532 71.4065 139.353 70.5178L92.4913 69.7798L92.4762 69.7496Z" fill="#F94926"/>
<path d="M92.1089 49.0234C92.2592 49.0234 92.3945 48.9331 92.4396 48.7824C92.8305 47.5775 96.2884 43.5859 100.573 40.95C100.738 40.8446 100.799 40.6337 100.693 40.468C100.588 40.3023 100.363 40.2571 100.197 40.3475C96.0177 42.9232 92.2592 47.0503 91.7631 48.5716C91.7029 48.7523 91.8082 48.9632 91.9886 49.0234C92.0187 49.0234 92.0638 49.0385 92.0938 49.0385L92.1089 49.0234Z" fill="#122A36"/>
<path d="M92.476 69.7501C92.476 69.7501 93.799 79.3599 96.6104 83.8033C99.4067 88.2467 105.33 95.9586 113.163 96.6816C121.011 97.4348 127.355 93.1269 132.106 86.9062C136.857 80.6854 139.322 70.4731 139.322 70.4731C139.322 70.4731 126.468 69.2983 125.13 67.9728C123.792 66.6473 122.183 61.4508 123.356 57.7605C124.544 54.0401 130.317 46.4939 130.317 46.4939C134.617 46.042 140.074 43.2404 141.096 36.4322C142.149 29.6089 137.413 31.1001 136.376 32.7118C136.376 32.7118 131.505 27.9822 129.28 23.5388C127.07 19.0954 125.732 14.4863 125.732 14.4863C125.732 14.4863 118.921 17.3181 114.2 18.6435C109.465 19.969 103.075 16.8812 103.075 16.8812C102.744 18.1314 99.3917 27.8466 99.1361 36.8238C99.0609 39.4296 99.2413 41.9902 99.8427 44.2496C100.143 45.3943 100.549 46.4336 101.03 47.4127C104.188 53.9949 110.487 56.8568 110.487 56.8568C110.487 56.8568 110.502 56.9622 110.562 57.1731C110.592 57.3538 110.652 57.6249 110.697 57.9412C111.224 60.4868 112.276 66.7226 110.637 67.6565C108.563 68.8464 92.4609 69.7351 92.4609 69.7351L92.476 69.7501Z" fill="white"/>
<path d="M47.6399 142.682L48.8727 139.489C54.4955 141.493 70.7173 154.386 70.7173 154.386C70.146 156.555 65.3802 167.249 59.1861 170.714C52.9921 174.178 39.8973 168.379 31.7939 163.348C21.5556 156.992 3.96566 143.646 3.96566 143.646L0.507812 125.933C0.507812 125.933 46.6477 142.698 47.6549 142.698L47.6399 142.682Z" fill="white"/>
<path d="M68.5528 89.603C73.4689 79.9631 79.2872 72.2059 90.668 69.6905C91.3145 69.555 91.9609 69.4194 92.6375 69.314C92.6375 69.314 93.9304 78.6978 96.6817 83.0358C99.4329 87.3737 105.191 94.8748 112.828 95.5978C120.466 96.3208 126.675 92.1334 131.305 86.0633C135.936 79.9932 138.356 70.0219 138.356 70.0219C142.431 70.8955 145.858 72.0854 148.94 73.7272C150.985 74.8268 152.864 76.1222 154.653 77.6736C159.119 81.5747 168.064 113.115 171.522 130.226C174.333 144.144 178.437 156.54 178.437 165.638C178.437 174.735 170.214 182.538 161.344 184.059C161.344 184.059 163.433 175.609 156.232 167.234C149.016 158.86 144.701 157.414 144.701 157.414L150.429 155.245L146.866 133.359L143.468 157.7L88.007 170.955L82.8352 135.95C82.8352 135.95 79.8134 133.133 79.5878 130.753L70.7177 154.371C70.7177 154.371 54.4958 141.463 48.873 139.474C48.873 139.474 63.366 99.7701 68.5528 89.5879V89.603Z" fill="#00AFE3"/>
<path d="M125.217 1.12597C129.562 2.33096 133.862 3.91251 136.974 10.2538C140.071 16.58 138.853 30.0306 137.635 34.2481L135.2 33.3594C135.2 33.3594 136.748 21.2192 134.869 14.5164C132.99 7.81365 125.698 1.1109 116.873 1.68327C116.873 1.68327 121.579 0.116788 125.232 1.12597H125.217Z" fill="black"/>
<path d="M128.327 29.3819C128.447 29.3819 128.567 29.3217 128.627 29.2012C128.732 29.0355 128.672 28.8096 128.507 28.7192C126.868 27.7401 121.245 26.4147 118.509 27.936C118.344 28.0263 118.284 28.2523 118.374 28.4179C118.464 28.5836 118.69 28.6439 118.855 28.5535C121.23 27.228 126.598 28.418 128.146 29.3217C128.206 29.3518 128.266 29.3669 128.327 29.3669V29.3819Z" fill="#122A36"/>
<path d="M111.248 26.9286C111.248 26.9286 111.398 26.9135 111.458 26.8683C111.624 26.7478 111.654 26.537 111.548 26.3713C111.007 25.6182 109.459 23.8408 106.572 23.4793C104.031 23.1781 102.558 24.0818 102.498 24.127C102.332 24.2324 102.287 24.4433 102.393 24.609C102.498 24.7747 102.708 24.8199 102.874 24.7295C102.874 24.7295 104.212 23.9011 106.482 24.1872C109.083 24.5036 110.481 26.1002 110.962 26.778C111.037 26.8683 111.142 26.9286 111.248 26.9286Z" fill="#122A36"/>
<path d="M110.23 49.0247C113.447 49.0247 115.071 46.7352 115.086 46.7051C115.191 46.5394 115.161 46.3285 114.996 46.208C114.83 46.1026 114.62 46.1327 114.499 46.2984C114.394 46.449 111.854 49.9886 106.531 47.3226C106.351 47.2322 106.141 47.3075 106.05 47.4883C105.96 47.669 106.035 47.8799 106.201 47.9703C107.734 48.7385 109.087 49.0247 110.215 49.0247H110.23Z" fill="#F94926"/>
<path d="M110.574 57.1873C110.604 57.368 110.86 58.6032 110.905 58.9345C111.732 59.1002 117.67 58.9345 121.639 55.9522C121.79 55.8317 121.85 55.6359 121.745 55.4551C121.639 55.2894 121.429 55.2443 121.248 55.3497C118.287 57.2325 113.822 57.8952 110.574 57.2024V57.1873Z" fill="#122A36"/>
<path d="M147.891 156.554C147.891 156.554 147.981 156.554 148.011 156.524C148.206 156.448 148.417 156.373 148.627 156.283C150.717 155.454 153.303 154.43 158.294 155.59C158.475 155.635 158.67 155.514 158.715 155.334C158.76 155.153 158.64 154.957 158.46 154.912C153.258 153.707 150.431 154.822 148.372 155.635C148.161 155.725 147.951 155.801 147.755 155.876C147.575 155.951 147.485 156.147 147.56 156.328C147.605 156.463 147.74 156.554 147.891 156.554Z" fill="#6C90FE"/>
<path d="M142.087 138.84C142.087 138.84 142.223 138.825 142.283 138.78C142.388 138.705 144.959 136.972 147.139 133.553C148.717 131.068 151.303 125.239 150.762 114.213C150.762 114.017 150.567 113.897 150.401 113.882C150.206 113.882 150.07 114.048 150.07 114.243C150.612 125.088 148.101 130.767 146.552 133.177C144.463 136.46 141.922 138.192 141.892 138.208C141.726 138.313 141.696 138.524 141.802 138.69C141.862 138.795 141.982 138.84 142.087 138.84Z" fill="#6C90FE"/>
<path d="M85.9933 138.839C86.1136 138.839 86.2338 138.779 86.294 138.659C86.3842 138.493 86.324 138.282 86.1587 138.192C84.2644 137.107 82.3249 134.983 80.0698 131.519C78.0101 128.356 75.4694 113.52 81.9641 102.705C82.0694 102.539 82.0092 102.328 81.8439 102.223C81.6785 102.117 81.468 102.178 81.3628 102.343C74.7177 113.414 77.3486 128.642 79.4685 131.896C81.7837 135.45 83.7833 137.65 85.7828 138.794C85.8429 138.824 85.9031 138.839 85.9482 138.839H85.9933Z" fill="#6C90FE"/>
<path d="M92.2634 171.918C92.3686 171.918 92.4588 171.873 92.534 171.783C96.9089 166.225 107.358 144.565 114.273 130.241C115.145 128.433 115.972 126.716 116.724 125.165C121.264 115.781 129.247 98.2332 131.623 86.123C132.886 79.6311 133.517 67.6867 134.013 58.092C134.299 52.6545 134.539 47.955 134.855 45.063C134.87 44.8672 134.735 44.7015 134.554 44.6865C134.329 44.6564 134.194 44.807 134.179 44.9877C133.878 47.8948 133.622 52.6093 133.337 58.0468C132.841 67.6264 132.209 79.5408 130.961 85.9875C128.601 98.0223 120.648 115.51 116.123 124.863C115.371 126.415 114.544 128.117 113.672 129.939C106.771 144.249 96.3527 165.863 92.0078 171.361C91.8875 171.512 91.9176 171.722 92.0679 171.843C92.1281 171.888 92.2032 171.918 92.2784 171.918H92.2634Z" fill="#6C90FE"/>
<path d="M92.4903 47.8349C95.5272 48.9645 93.8133 57.0982 89.8293 55.6522C85.8302 54.2062 88.4912 46.3587 92.4903 47.8349Z" fill="#122A36"/>
<path d="M136.383 32.7266C140.909 32.6362 142.141 36.5826 141.254 40.5741C140.367 44.5656 137.406 46.3731 134.384 45.3941C131.362 44.4301 130.911 39.9867 131.648 37.17C132.384 34.3534 134.098 32.7718 136.383 32.7266Z" fill="#122A36"/>
<path d="M57.1551 186.017H76.4589C76.4589 186.017 97.5218 185.806 111.353 186.017C125.2 186.228 158.711 184.285 161.312 184.074C161.312 184.074 163.401 175.609 156.2 167.234C148.984 158.844 144.654 157.398 144.654 157.398L143.421 157.7L87.9601 170.955H87.8398C87.8398 170.955 85.3892 169.674 80.7587 169.102C76.1582 168.53 72.3997 169.975 68.9418 173.003C65.484 176.031 57.125 186.002 57.125 186.002L57.1551 186.017Z" fill="white"/>
<path d="M61.9551 186.017H62.9624C65.1724 183.924 68.6754 180.55 70.9605 178.17C71.0959 178.034 71.0959 177.823 70.9605 177.688C70.8252 177.552 70.5997 177.567 70.4794 177.688C67.9988 180.264 64.135 183.984 61.9701 186.032L61.9551 186.017Z" fill="#122A36"/>
<path d="M66.1445 186.018H67.4826C70.0083 184.452 73.4211 182.237 75.7063 180.37C75.8416 180.249 75.8566 180.023 75.7363 179.888C75.616 179.737 75.4056 179.707 75.2552 179.842C72.6994 181.936 68.7003 184.482 66.1596 186.033L66.1445 186.018Z" fill="#122A36"/>
<path d="M72.3867 186.017H73.8901C75.7694 185.023 78.0245 183.788 79.979 182.553C80.1293 182.447 80.1894 182.236 80.0842 182.086C79.979 181.92 79.7535 181.875 79.6031 181.965C77.2428 183.456 74.4314 184.963 72.3867 186.017Z" fill="#122A36"/>
<path d="M117.653 33.2391C117.472 34.5947 117.803 35.7545 118.389 35.8298C118.976 35.9051 119.607 34.8809 119.788 33.5253C119.968 32.1697 119.637 31.0099 119.051 30.9346C118.465 30.8593 117.833 31.8835 117.653 33.2391Z" fill="#122A36"/>
<path d="M103.823 30.3475C103.642 31.7031 103.973 32.8629 104.559 32.9382C105.146 33.0135 105.777 31.9893 105.958 30.6337C106.138 29.2781 105.807 28.1183 105.221 28.043C104.635 27.9677 104.003 28.9919 103.823 30.3475Z" fill="#122A36"/>
<path d="M111.62 31.2808L107.922 41.3123L111.079 41.6738" stroke="#122A36" stroke-width="0.5" stroke-miterlimit="10" stroke-linecap="round"/>
</svg>
