<svg width="58" height="47" viewBox="0 0 58 47" fill="none" xmlns="http://www.w3.org/2000/svg">
<path d="M23.428 40.3297L23.2822 40.1867H23.0779H3.09492H3.06694C1.73625 40.1867 0.65625 39.0952 0.65625 37.7706L0.65625 3.1974C0.65625 1.87438 1.74868 0.78125 3.06694 0.78125L54.9556 0.78125C56.2863 0.78125 57.3663 1.87282 57.3663 3.1974V37.7706C57.3663 39.0936 56.2738 40.1867 54.9556 40.1867H36.0921H35.9124L35.7738 40.3011L29.054 45.847L23.428 40.3297Z" stroke="#00AFE3"/>
<path d="M29.4688 15.8427C29.4688 9.26738 34.8003 3.92578 41.3634 3.92578C47.9264 3.92578 53.258 9.26738 53.258 15.8427C53.258 22.4181 47.9264 27.7597 41.3634 27.7597C34.8003 27.7597 29.4688 22.4181 29.4688 15.8427ZM30.0005 15.8427C30.0005 22.1237 35.1082 27.241 41.3774 27.241C47.6466 27.241 52.7543 22.1237 52.7543 15.8427C52.7543 9.5618 47.6466 4.44452 41.3774 4.44452C35.1082 4.44452 30.0005 9.5618 30.0005 15.8427Z" fill="#00AFE3"/>
<path d="M7.79316 27.8602H24.6136C26.2508 27.8602 27.5942 26.5143 27.5942 24.8739C27.5942 23.2336 26.2508 21.8877 24.6136 21.8877H7.79316C6.1559 21.8877 4.8125 23.2336 4.8125 24.8739C4.8125 26.5143 6.1559 27.8602 7.79316 27.8602Z" fill="#00AFE3"/>
<path d="M11.5686 4.44585L27.3115 4.44585C27.4515 4.44585 27.5774 4.33368 27.5774 4.17946C27.5774 4.02524 27.4655 3.91309 27.3115 3.91309L11.5686 3.91309C11.4287 3.91309 11.3027 4.02524 11.3027 4.17946C11.3027 4.33368 11.4147 4.44585 11.5686 4.44585Z" fill="#00AFE3"/>
<path d="M17.6311 9.28325H27.3148C27.4547 9.28325 27.5806 9.17108 27.5806 9.01687C27.5806 8.86265 27.4687 8.75049 27.3148 8.75049H17.6311C17.4912 8.75049 17.3652 8.86265 17.3652 9.01687C17.3652 9.17108 17.4772 9.28325 17.6311 9.28325Z" fill="#00AFE3"/>
<path d="M14.969 34.043H27.3254C27.4654 34.043 27.5913 33.9309 27.5913 33.7766C27.5913 33.6224 27.4794 33.5103 27.3254 33.5103H14.969C14.8291 33.5103 14.7031 33.6224 14.7031 33.7766C14.7031 33.9309 14.8151 34.043 14.969 34.043Z" fill="#00AFE3"/>
<path d="M37.1387 13.7979C37.1387 10.7135 39.3077 8.18994 41.9805 8.18994C44.6533 8.18994 46.8223 10.6995 46.8223 13.7979C46.8223 16.8963 44.6533 19.3919 41.9805 19.3919C39.3077 19.3919 37.1387 16.8823 37.1387 13.7979ZM37.6564 13.7979C37.6564 16.6019 39.5876 18.8731 41.9665 18.8731C44.3454 18.8731 46.2766 16.5879 46.2766 13.7979C46.2766 11.008 44.3454 8.7227 41.9665 8.7227C39.5876 8.7227 37.6564 11.008 37.6564 13.7979Z" fill="#00AFE3"/>
<path d="M34.0133 25.1392C34.1393 25.1392 34.2512 25.041 34.2652 24.9149C35.0069 19.0545 38.5613 17.5263 38.6032 17.5123C38.7432 17.4562 38.7991 17.302 38.7432 17.1758C38.6872 17.0356 38.5333 16.9796 38.4073 17.0357C38.2534 17.1058 34.5311 18.676 33.7474 24.8588C33.7334 24.999 33.8314 25.1392 33.9713 25.1532H33.9993L34.0133 25.1392Z" fill="#00AFE3"/>
</svg>
