<svg width="622" height="297" viewBox="0 0 622 297" fill="none" xmlns="http://www.w3.org/2000/svg">
<rect width="622" height="296.17" fill="url(#paint0_linear_2864_105)"/>
<path d="M61.4766 46.9616V50.9166H51.2916V57.1816H59.0966V61.0666H51.2916V71.3916H46.3916V46.9616H61.4766ZM82.9761 61.2766C82.9761 61.9766 82.9295 62.6066 82.8361 63.1666H68.6611C68.7778 64.5666 69.2678 65.6633 70.1311 66.4566C70.9945 67.2499 72.0561 67.6466 73.3161 67.6466C75.1361 67.6466 76.4311 66.8649 77.2011 65.3016H82.4861C81.9261 67.1683 80.8528 68.7083 79.2661 69.9216C77.6795 71.1116 75.7311 71.7066 73.4211 71.7066C71.5545 71.7066 69.8745 71.2983 68.3811 70.4816C66.9111 69.6416 65.7561 68.4633 64.9161 66.9466C64.0995 65.4299 63.6911 63.6799 63.6911 61.6966C63.6911 59.6899 64.0995 57.9283 64.9161 56.4116C65.7328 54.8949 66.8761 53.7283 68.3461 52.9116C69.8161 52.0949 71.5078 51.6866 73.4211 51.6866C75.2645 51.6866 76.9095 52.0833 78.3561 52.8766C79.8261 53.6699 80.9578 54.8016 81.7511 56.2716C82.5678 57.7183 82.9761 59.3866 82.9761 61.2766ZM77.9011 59.8766C77.8778 58.6166 77.4228 57.6133 76.5361 56.8666C75.6495 56.0966 74.5645 55.7116 73.2811 55.7116C72.0678 55.7116 71.0411 56.0849 70.2011 56.8316C69.3845 57.5549 68.8828 58.5699 68.6961 59.8766H77.9011ZM104.578 61.2766C104.578 61.9766 104.531 62.6066 104.438 63.1666H90.2627C90.3794 64.5666 90.8694 65.6633 91.7327 66.4566C92.596 67.2499 93.6577 67.6466 94.9177 67.6466C96.7377 67.6466 98.0327 66.8649 98.8027 65.3016H104.088C103.528 67.1683 102.454 68.7083 100.868 69.9216C99.281 71.1116 97.3327 71.7066 95.0227 71.7066C93.156 71.7066 91.476 71.2983 89.9827 70.4816C88.5127 69.6416 87.3577 68.4633 86.5177 66.9466C85.701 65.4299 85.2927 63.6799 85.2927 61.6966C85.2927 59.6899 85.701 57.9283 86.5177 56.4116C87.3344 54.8949 88.4777 53.7283 89.9477 52.9116C91.4177 52.0949 93.1094 51.6866 95.0227 51.6866C96.866 51.6866 98.511 52.0833 99.9577 52.8766C101.428 53.6699 102.559 54.8016 103.353 56.2716C104.169 57.7183 104.578 59.3866 104.578 61.2766ZM99.5027 59.8766C99.4794 58.6166 99.0244 57.6133 98.1377 56.8666C97.251 56.0966 96.166 55.7116 94.8827 55.7116C93.6694 55.7116 92.6427 56.0849 91.8027 56.8316C90.986 57.5549 90.4844 58.5699 90.2977 59.8766H99.5027ZM113.054 45.4916V71.3916H108.154V45.4916H113.054ZM120.38 49.6916C119.517 49.6916 118.794 49.4233 118.21 48.8866C117.65 48.3266 117.37 47.6383 117.37 46.8216C117.37 46.0049 117.65 45.3283 118.21 44.7916C118.794 44.2316 119.517 43.9516 120.38 43.9516C121.244 43.9516 121.955 44.2316 122.515 44.7916C123.099 45.3283 123.39 46.0049 123.39 46.8216C123.39 47.6383 123.099 48.3266 122.515 48.8866C121.955 49.4233 121.244 49.6916 120.38 49.6916ZM122.795 52.0016V71.3916H117.895V52.0016H122.795ZM138.382 51.7216C140.692 51.7216 142.558 52.4566 143.982 53.9266C145.405 55.3733 146.117 57.4033 146.117 60.0166V71.3916H141.217V60.6816C141.217 59.1416 140.832 57.9633 140.062 57.1466C139.292 56.3066 138.242 55.8866 136.912 55.8866C135.558 55.8866 134.485 56.3066 133.692 57.1466C132.922 57.9633 132.537 59.1416 132.537 60.6816V71.3916H127.637V52.0016H132.537V54.4166C133.19 53.5766 134.018 52.9233 135.022 52.4566C136.048 51.9666 137.168 51.7216 138.382 51.7216ZM158.371 51.6866C159.818 51.6866 161.09 51.9783 162.186 52.5616C163.283 53.1216 164.146 53.8566 164.776 54.7666V52.0016H169.711V71.5316C169.711 73.3283 169.35 74.9266 168.626 76.3266C167.903 77.7499 166.818 78.8699 165.371 79.6866C163.925 80.5266 162.175 80.9466 160.121 80.9466C157.368 80.9466 155.105 80.3049 153.331 79.0216C151.581 77.7383 150.59 75.9883 150.356 73.7716H155.221C155.478 74.6583 156.026 75.3583 156.866 75.8716C157.73 76.4083 158.768 76.6766 159.981 76.6766C161.405 76.6766 162.56 76.2449 163.446 75.3816C164.333 74.5416 164.776 73.2583 164.776 71.5316V68.5216C164.146 69.4316 163.271 70.1899 162.151 70.7966C161.055 71.4033 159.795 71.7066 158.371 71.7066C156.738 71.7066 155.245 71.2866 153.891 70.4466C152.538 69.6066 151.465 68.4283 150.671 66.9116C149.901 65.3716 149.516 63.6099 149.516 61.6266C149.516 59.6666 149.901 57.9283 150.671 56.4116C151.465 54.8949 152.526 53.7283 153.856 52.9116C155.21 52.0949 156.715 51.6866 158.371 51.6866ZM164.776 61.6966C164.776 60.5066 164.543 59.4916 164.076 58.6516C163.61 57.7883 162.98 57.1349 162.186 56.6916C161.393 56.2249 160.541 55.9916 159.631 55.9916C158.721 55.9916 157.881 56.2133 157.111 56.6566C156.341 57.0999 155.711 57.7533 155.221 58.6166C154.755 59.4566 154.521 60.4599 154.521 61.6266C154.521 62.7933 154.755 63.8199 155.221 64.7066C155.711 65.5699 156.341 66.2349 157.111 66.7016C157.905 67.1683 158.745 67.4016 159.631 67.4016C160.541 67.4016 161.393 67.1799 162.186 66.7366C162.98 66.2699 163.61 65.6166 164.076 64.7766C164.543 63.9133 164.776 62.8866 164.776 61.6966ZM190.257 71.7066C188.67 71.7066 187.247 71.4266 185.987 70.8666C184.727 70.2833 183.724 69.5016 182.977 68.5216C182.254 67.5416 181.857 66.4566 181.787 65.2666H186.722C186.815 66.0133 187.177 66.6316 187.807 67.1216C188.46 67.6116 189.265 67.8566 190.222 67.8566C191.155 67.8566 191.879 67.6699 192.392 67.2966C192.929 66.9233 193.197 66.4449 193.197 65.8616C193.197 65.2316 192.87 64.7649 192.217 64.4616C191.587 64.1349 190.572 63.7849 189.172 63.4116C187.725 63.0616 186.535 62.6999 185.602 62.3266C184.692 61.9533 183.899 61.3816 183.222 60.6116C182.569 59.8416 182.242 58.8033 182.242 57.4966C182.242 56.4233 182.545 55.4433 183.152 54.5566C183.782 53.6699 184.669 52.9699 185.812 52.4566C186.979 51.9433 188.344 51.6866 189.907 51.6866C192.217 51.6866 194.06 52.2699 195.437 53.4366C196.814 54.5799 197.572 56.1316 197.712 58.0916H193.022C192.952 57.3216 192.625 56.7149 192.042 56.2716C191.482 55.8049 190.724 55.5716 189.767 55.5716C188.88 55.5716 188.192 55.7349 187.702 56.0616C187.235 56.3883 187.002 56.8433 187.002 57.4266C187.002 58.0799 187.329 58.5816 187.982 58.9316C188.635 59.2583 189.65 59.5966 191.027 59.9466C192.427 60.2966 193.582 60.6583 194.492 61.0316C195.402 61.4049 196.184 61.9883 196.837 62.7816C197.514 63.5516 197.864 64.5783 197.887 65.8616C197.887 66.9816 197.572 67.9849 196.942 68.8716C196.335 69.7583 195.449 70.4583 194.282 70.9716C193.139 71.4616 191.797 71.7066 190.257 71.7066ZM207.614 56.0266V65.4066C207.614 66.0599 207.766 66.5383 208.069 66.8416C208.396 67.1216 208.932 67.2616 209.679 67.2616H211.954V71.3916H208.874C204.744 71.3916 202.679 69.3849 202.679 65.3716V56.0266H200.369V52.0016H202.679V47.2066H207.614V52.0016H211.954V56.0266H207.614ZM233.783 52.0016V71.3916H228.848V68.9416C228.218 69.7816 227.39 70.4466 226.363 70.9366C225.36 71.4033 224.263 71.6366 223.073 71.6366C221.557 71.6366 220.215 71.3216 219.048 70.6916C217.882 70.0383 216.96 69.0933 216.283 67.8566C215.63 66.5966 215.303 65.1033 215.303 63.3766V52.0016H220.203V62.6766C220.203 64.2166 220.588 65.4066 221.358 66.2466C222.128 67.0633 223.178 67.4716 224.508 67.4716C225.862 67.4716 226.923 67.0633 227.693 66.2466C228.463 65.4066 228.848 64.2166 228.848 62.6766V52.0016H233.783ZM237.358 61.6966C237.358 59.6899 237.766 57.9399 238.583 56.4466C239.4 54.9299 240.531 53.7633 241.978 52.9466C243.425 52.1066 245.081 51.6866 246.948 51.6866C249.351 51.6866 251.335 52.2933 252.898 53.5066C254.485 54.6966 255.546 56.3766 256.083 58.5466H250.798C250.518 57.7066 250.04 57.0533 249.363 56.5866C248.71 56.0966 247.893 55.8516 246.913 55.8516C245.513 55.8516 244.405 56.3649 243.588 57.3916C242.771 58.3949 242.363 59.8299 242.363 61.6966C242.363 63.5399 242.771 64.9749 243.588 66.0016C244.405 67.0049 245.513 67.5066 246.913 67.5066C248.896 67.5066 250.191 66.6199 250.798 64.8466H256.083C255.546 66.9466 254.485 68.6149 252.898 69.8516C251.311 71.0883 249.328 71.7066 246.948 71.7066C245.081 71.7066 243.425 71.2983 241.978 70.4816C240.531 69.6416 239.4 68.4749 238.583 66.9816C237.766 65.4649 237.358 63.7033 237.358 61.6966ZM271.153 71.3916L264.573 63.1316V71.3916H259.673V45.4916H264.573V60.2266L271.083 52.0016H277.453L268.913 61.7316L277.523 71.3916H271.153ZM286.937 46.1216C289.364 46.1216 291.312 46.7866 292.782 48.1166C294.276 49.4233 295.022 51.2316 295.022 53.5416C295.022 55.8283 294.287 57.5783 292.817 58.7916C291.347 59.9816 289.399 60.5766 286.972 60.5766L286.832 63.2716H282.527L282.352 57.3216H283.927C285.957 57.3216 287.521 57.0533 288.617 56.5166C289.714 55.9799 290.262 54.9999 290.262 53.5766C290.262 52.5499 289.959 51.7333 289.352 51.1266C288.769 50.5199 287.964 50.2166 286.937 50.2166C285.864 50.2166 285.024 50.5083 284.417 51.0916C283.834 51.6749 283.542 52.4799 283.542 53.5066H278.922C278.899 52.0833 279.202 50.8116 279.832 49.6916C280.462 48.5716 281.384 47.6966 282.597 47.0666C283.834 46.4366 285.281 46.1216 286.937 46.1216ZM284.662 71.6366C283.776 71.6366 283.041 71.3683 282.457 70.8316C281.897 70.2716 281.617 69.5833 281.617 68.7666C281.617 67.9499 281.897 67.2733 282.457 66.7366C283.041 66.1766 283.776 65.8966 284.662 65.8966C285.526 65.8966 286.237 66.1766 286.797 66.7366C287.357 67.2733 287.637 67.9499 287.637 68.7666C287.637 69.5833 287.357 70.2716 286.797 70.8316C286.237 71.3683 285.526 71.6366 284.662 71.6366Z" fill="black"/>
<path d="M49.2686 103.983C50.6366 103.983 51.8186 104.241 52.8146 104.757C53.8226 105.261 54.5906 105.987 55.1186 106.935C55.6586 107.883 55.9286 108.999 55.9286 110.283C55.9286 111.567 55.6586 112.683 55.1186 113.631C54.5906 114.567 53.8226 115.287 52.8146 115.791C51.8186 116.283 50.6366 116.529 49.2686 116.529H45.3626V103.983H49.2686ZM49.2686 115.179C50.8886 115.179 52.1246 114.753 52.9766 113.901C53.8286 113.037 54.2546 111.831 54.2546 110.283C54.2546 108.723 53.8226 107.505 52.9586 106.629C52.1066 105.753 50.8766 105.315 49.2686 105.315H47.0006V115.179H49.2686ZM57.4771 111.561C57.4771 110.553 57.6811 109.671 58.0891 108.915C58.4971 108.147 59.0551 107.553 59.7631 107.133C60.4831 106.713 61.2811 106.503 62.1571 106.503C63.0211 106.503 63.7711 106.689 64.4071 107.061C65.0431 107.433 65.5171 107.901 65.8291 108.465V106.665H67.4851V116.529H65.8291V114.693C65.5051 115.269 65.0191 115.749 64.3711 116.133C63.7351 116.505 62.9911 116.691 62.1391 116.691C61.2631 116.691 60.4711 116.475 59.7631 116.043C59.0551 115.611 58.4971 115.005 58.0891 114.225C57.6811 113.445 57.4771 112.557 57.4771 111.561ZM65.8291 111.579C65.8291 110.835 65.6791 110.187 65.3791 109.635C65.0791 109.083 64.6711 108.663 64.1551 108.375C63.6511 108.075 63.0931 107.925 62.4811 107.925C61.8691 107.925 61.3111 108.069 60.8071 108.357C60.3031 108.645 59.9011 109.065 59.6011 109.617C59.3011 110.169 59.1511 110.817 59.1511 111.561C59.1511 112.317 59.3011 112.977 59.6011 113.541C59.9011 114.093 60.3031 114.519 60.8071 114.819C61.3111 115.107 61.8691 115.251 62.4811 115.251C63.0931 115.251 63.6511 115.107 64.1551 114.819C64.6711 114.519 65.0791 114.093 65.3791 113.541C65.6791 112.977 65.8291 112.323 65.8291 111.579ZM78.7492 106.665L72.8092 121.173H71.1172L73.0612 116.421L69.0832 106.665H70.9012L73.9972 114.657L77.0572 106.665H78.7492ZM89.4966 116.691C88.5726 116.691 87.7326 116.481 86.9766 116.061C86.2326 115.641 85.6446 115.047 85.2126 114.279C84.7926 113.499 84.5826 112.599 84.5826 111.579C84.5826 110.571 84.7986 109.683 85.2306 108.915C85.6746 108.135 86.2746 107.541 87.0306 107.133C87.7866 106.713 88.6326 106.503 89.5686 106.503C90.5046 106.503 91.3506 106.713 92.1066 107.133C92.8626 107.541 93.4566 108.129 93.8886 108.897C94.3326 109.665 94.5546 110.559 94.5546 111.579C94.5546 112.599 94.3266 113.499 93.8706 114.279C93.4266 115.047 92.8206 115.641 92.0526 116.061C91.2846 116.481 90.4326 116.691 89.4966 116.691ZM89.4966 115.251C90.0846 115.251 90.6366 115.113 91.1526 114.837C91.6686 114.561 92.0826 114.147 92.3946 113.595C92.7186 113.043 92.8806 112.371 92.8806 111.579C92.8806 110.787 92.7246 110.115 92.4126 109.563C92.1006 109.011 91.6926 108.603 91.1886 108.339C90.6846 108.063 90.1386 107.925 89.5506 107.925C88.9506 107.925 88.3986 108.063 87.8946 108.339C87.4026 108.603 87.0066 109.011 86.7066 109.563C86.4066 110.115 86.2566 110.787 86.2566 111.579C86.2566 112.383 86.4006 113.061 86.6886 113.613C86.9886 114.165 87.3846 114.579 87.8766 114.855C88.3686 115.119 88.9086 115.251 89.4966 115.251ZM98.3463 108.267C98.6343 107.703 99.0423 107.265 99.5703 106.953C100.11 106.641 100.764 106.485 101.532 106.485V108.177H101.1C99.2643 108.177 98.3463 109.173 98.3463 111.165V116.529H96.7083V106.665H98.3463V108.267ZM113.028 106.485C114.228 106.485 115.2 106.851 115.944 107.583C116.688 108.303 117.06 109.347 117.06 110.715V116.529H115.44V110.949C115.44 109.965 115.194 109.215 114.702 108.699C114.21 108.171 113.538 107.907 112.686 107.907C111.822 107.907 111.132 108.177 110.616 108.717C110.112 109.257 109.86 110.043 109.86 111.075V116.529H108.222V106.665H109.86V108.069C110.184 107.565 110.622 107.175 111.174 106.899C111.738 106.623 112.356 106.485 113.028 106.485ZM120.582 105.063C120.27 105.063 120.006 104.955 119.79 104.739C119.574 104.523 119.466 104.259 119.466 103.947C119.466 103.635 119.574 103.371 119.79 103.155C120.006 102.939 120.27 102.831 120.582 102.831C120.882 102.831 121.134 102.939 121.338 103.155C121.554 103.371 121.662 103.635 121.662 103.947C121.662 104.259 121.554 104.523 121.338 104.739C121.134 104.955 120.882 105.063 120.582 105.063ZM121.374 106.665V116.529H119.736V106.665H121.374ZM128.233 106.503C129.085 106.503 129.829 106.689 130.465 107.061C131.113 107.433 131.593 107.901 131.905 108.465V106.665H133.561V116.745C133.561 117.645 133.369 118.443 132.985 119.139C132.601 119.847 132.049 120.399 131.329 120.795C130.621 121.191 129.793 121.389 128.845 121.389C127.549 121.389 126.469 121.083 125.605 120.471C124.741 119.859 124.231 119.025 124.075 117.969H125.695C125.875 118.569 126.247 119.049 126.811 119.409C127.375 119.781 128.053 119.967 128.845 119.967C129.745 119.967 130.477 119.685 131.041 119.121C131.617 118.557 131.905 117.765 131.905 116.745V114.675C131.581 115.251 131.101 115.731 130.465 116.115C129.829 116.499 129.085 116.691 128.233 116.691C127.357 116.691 126.559 116.475 125.839 116.043C125.131 115.611 124.573 115.005 124.165 114.225C123.757 113.445 123.553 112.557 123.553 111.561C123.553 110.553 123.757 109.671 124.165 108.915C124.573 108.147 125.131 107.553 125.839 107.133C126.559 106.713 127.357 106.503 128.233 106.503ZM131.905 111.579C131.905 110.835 131.755 110.187 131.455 109.635C131.155 109.083 130.747 108.663 130.231 108.375C129.727 108.075 129.169 107.925 128.557 107.925C127.945 107.925 127.387 108.069 126.883 108.357C126.379 108.645 125.977 109.065 125.677 109.617C125.377 110.169 125.227 110.817 125.227 111.561C125.227 112.317 125.377 112.977 125.677 113.541C125.977 114.093 126.379 114.519 126.883 114.819C127.387 115.107 127.945 115.251 128.557 115.251C129.169 115.251 129.727 115.107 130.231 114.819C130.747 114.519 131.155 114.093 131.455 113.541C131.755 112.977 131.905 112.323 131.905 111.579ZM141.225 106.485C141.969 106.485 142.641 106.647 143.241 106.971C143.841 107.283 144.309 107.757 144.645 108.393C144.993 109.029 145.167 109.803 145.167 110.715V116.529H143.547V110.949C143.547 109.965 143.301 109.215 142.809 108.699C142.317 108.171 141.645 107.907 140.793 107.907C139.929 107.907 139.239 108.177 138.723 108.717C138.219 109.257 137.967 110.043 137.967 111.075V116.529H136.329V103.209H137.967V108.069C138.291 107.565 138.735 107.175 139.299 106.899C139.875 106.623 140.517 106.485 141.225 106.485ZM149.841 108.015V113.829C149.841 114.309 149.943 114.651 150.147 114.855C150.351 115.047 150.705 115.143 151.209 115.143H152.415V116.529H150.939C150.027 116.529 149.343 116.319 148.887 115.899C148.431 115.479 148.203 114.789 148.203 113.829V108.015H146.925V106.665H148.203V104.181H149.841V106.665H152.415V108.015H149.841ZM156.092 114.261L154.076 119.103H152.978L154.292 114.261H156.092ZM167.069 116.691C166.145 116.691 165.305 116.481 164.549 116.061C163.805 115.641 163.217 115.047 162.785 114.279C162.365 113.499 162.155 112.599 162.155 111.579C162.155 110.571 162.371 109.683 162.803 108.915C163.247 108.135 163.847 107.541 164.603 107.133C165.359 106.713 166.205 106.503 167.141 106.503C168.077 106.503 168.923 106.713 169.679 107.133C170.435 107.541 171.029 108.129 171.461 108.897C171.905 109.665 172.127 110.559 172.127 111.579C172.127 112.599 171.899 113.499 171.443 114.279C170.999 115.047 170.393 115.641 169.625 116.061C168.857 116.481 168.005 116.691 167.069 116.691ZM167.069 115.251C167.657 115.251 168.209 115.113 168.725 114.837C169.241 114.561 169.655 114.147 169.967 113.595C170.291 113.043 170.453 112.371 170.453 111.579C170.453 110.787 170.297 110.115 169.985 109.563C169.673 109.011 169.265 108.603 168.761 108.339C168.257 108.063 167.711 107.925 167.123 107.925C166.523 107.925 165.971 108.063 165.467 108.339C164.975 108.603 164.579 109.011 164.279 109.563C163.979 110.115 163.829 110.787 163.829 111.579C163.829 112.383 163.973 113.061 164.261 113.613C164.561 114.165 164.957 114.579 165.449 114.855C165.941 115.119 166.481 115.251 167.069 115.251ZM183.029 106.665V116.529H181.391V115.071C181.079 115.575 180.641 115.971 180.077 116.259C179.525 116.535 178.913 116.673 178.241 116.673C177.473 116.673 176.783 116.517 176.171 116.205C175.559 115.881 175.073 115.401 174.713 114.765C174.365 114.129 174.191 113.355 174.191 112.443V106.665H175.811V112.227C175.811 113.199 176.057 113.949 176.549 114.477C177.041 114.993 177.713 115.251 178.565 115.251C179.441 115.251 180.131 114.981 180.635 114.441C181.139 113.901 181.391 113.115 181.391 112.083V106.665H183.029ZM187.432 108.267C187.72 107.703 188.128 107.265 188.656 106.953C189.196 106.641 189.85 106.485 190.618 106.485V108.177H190.186C188.35 108.177 187.432 109.173 187.432 111.165V116.529H185.794V106.665H187.432V108.267ZM199.306 108.015V113.829C199.306 114.309 199.408 114.651 199.612 114.855C199.816 115.047 200.17 115.143 200.674 115.143H201.88V116.529H200.404C199.492 116.529 198.808 116.319 198.352 115.899C197.896 115.479 197.668 114.789 197.668 113.829V108.015H196.39V106.665H197.668V104.181H199.306V106.665H201.88V108.015H199.306ZM212.865 111.219C212.865 111.531 212.847 111.861 212.811 112.209H204.927C204.987 113.181 205.317 113.943 205.917 114.495C206.529 115.035 207.267 115.305 208.131 115.305C208.839 115.305 209.427 115.143 209.895 114.819C210.375 114.483 210.711 114.039 210.903 113.487H212.667C212.403 114.435 211.875 115.209 211.083 115.809C210.291 116.397 209.307 116.691 208.131 116.691C207.195 116.691 206.355 116.481 205.611 116.061C204.879 115.641 204.303 115.047 203.883 114.279C203.463 113.499 203.253 112.599 203.253 111.579C203.253 110.559 203.457 109.665 203.865 108.897C204.273 108.129 204.843 107.541 205.575 107.133C206.319 106.713 207.171 106.503 208.131 106.503C209.067 106.503 209.895 106.707 210.615 107.115C211.335 107.523 211.887 108.087 212.271 108.807C212.667 109.515 212.865 110.319 212.865 111.219ZM211.173 110.877C211.173 110.253 211.035 109.719 210.759 109.275C210.483 108.819 210.105 108.477 209.625 108.249C209.157 108.009 208.635 107.889 208.059 107.889C207.231 107.889 206.523 108.153 205.935 108.681C205.359 109.209 205.029 109.941 204.945 110.877H211.173ZM214.415 111.561C214.415 110.553 214.619 109.671 215.027 108.915C215.435 108.147 215.993 107.553 216.701 107.133C217.421 106.713 218.219 106.503 219.095 106.503C219.959 106.503 220.709 106.689 221.345 107.061C221.981 107.433 222.455 107.901 222.767 108.465V106.665H224.423V116.529H222.767V114.693C222.443 115.269 221.957 115.749 221.309 116.133C220.673 116.505 219.929 116.691 219.077 116.691C218.201 116.691 217.409 116.475 216.701 116.043C215.993 115.611 215.435 115.005 215.027 114.225C214.619 113.445 214.415 112.557 214.415 111.561ZM222.767 111.579C222.767 110.835 222.617 110.187 222.317 109.635C222.017 109.083 221.609 108.663 221.093 108.375C220.589 108.075 220.031 107.925 219.419 107.925C218.807 107.925 218.249 108.069 217.745 108.357C217.241 108.645 216.839 109.065 216.539 109.617C216.239 110.169 216.089 110.817 216.089 111.561C216.089 112.317 216.239 112.977 216.539 113.541C216.839 114.093 217.241 114.519 217.745 114.819C218.249 115.107 218.807 115.251 219.419 115.251C220.031 115.251 220.589 115.107 221.093 114.819C221.609 114.519 222.017 114.093 222.317 113.541C222.617 112.977 222.767 112.323 222.767 111.579ZM239.053 106.485C239.821 106.485 240.505 106.647 241.105 106.971C241.705 107.283 242.179 107.757 242.527 108.393C242.875 109.029 243.049 109.803 243.049 110.715V116.529H241.429V110.949C241.429 109.965 241.183 109.215 240.691 108.699C240.211 108.171 239.557 107.907 238.729 107.907C237.877 107.907 237.199 108.183 236.695 108.735C236.191 109.275 235.939 110.061 235.939 111.093V116.529H234.319V110.949C234.319 109.965 234.073 109.215 233.581 108.699C233.101 108.171 232.447 107.907 231.619 107.907C230.767 107.907 230.089 108.183 229.585 108.735C229.081 109.275 228.829 110.061 228.829 111.093V116.529H227.191V106.665H228.829V108.087C229.153 107.571 229.585 107.175 230.125 106.899C230.677 106.623 231.283 106.485 231.943 106.485C232.771 106.485 233.503 106.671 234.139 107.043C234.775 107.415 235.249 107.961 235.561 108.681C235.837 107.985 236.293 107.445 236.929 107.061C237.565 106.677 238.273 106.485 239.053 106.485ZM251.38 105.063C251.068 105.063 250.804 104.955 250.588 104.739C250.372 104.523 250.264 104.259 250.264 103.947C250.264 103.635 250.372 103.371 250.588 103.155C250.804 102.939 251.068 102.831 251.38 102.831C251.68 102.831 251.932 102.939 252.136 103.155C252.352 103.371 252.46 103.635 252.46 103.947C252.46 104.259 252.352 104.523 252.136 104.739C251.932 104.955 251.68 105.063 251.38 105.063ZM252.172 106.665V116.529H250.534V106.665H252.172ZM258.456 116.691C257.7 116.691 257.022 116.565 256.422 116.313C255.822 116.049 255.348 115.689 255 115.233C254.652 114.765 254.46 114.231 254.424 113.631H256.116C256.164 114.123 256.392 114.525 256.8 114.837C257.22 115.149 257.766 115.305 258.438 115.305C259.062 115.305 259.554 115.167 259.914 114.891C260.274 114.615 260.454 114.267 260.454 113.847C260.454 113.415 260.262 113.097 259.878 112.893C259.494 112.677 258.9 112.467 258.096 112.263C257.364 112.071 256.764 111.879 256.296 111.687C255.84 111.483 255.444 111.189 255.108 110.805C254.784 110.409 254.622 109.893 254.622 109.257C254.622 108.753 254.772 108.291 255.072 107.871C255.372 107.451 255.798 107.121 256.35 106.881C256.902 106.629 257.532 106.503 258.24 106.503C259.332 106.503 260.214 106.779 260.886 107.331C261.558 107.883 261.918 108.639 261.966 109.599H260.328C260.292 109.083 260.082 108.669 259.698 108.357C259.326 108.045 258.822 107.889 258.186 107.889C257.598 107.889 257.13 108.015 256.782 108.267C256.434 108.519 256.26 108.849 256.26 109.257C256.26 109.581 256.362 109.851 256.566 110.067C256.782 110.271 257.046 110.439 257.358 110.571C257.682 110.691 258.126 110.829 258.69 110.985C259.398 111.177 259.974 111.369 260.418 111.561C260.862 111.741 261.24 112.017 261.552 112.389C261.876 112.761 262.044 113.247 262.056 113.847C262.056 114.387 261.906 114.873 261.606 115.305C261.306 115.737 260.88 116.079 260.328 116.331C259.788 116.571 259.164 116.691 258.456 116.691ZM44.7506 152.561C44.7506 151.553 44.9546 150.671 45.3626 149.915C45.7706 149.147 46.3286 148.553 47.0366 148.133C47.7566 147.713 48.5546 147.503 49.4306 147.503C50.2946 147.503 51.0446 147.689 51.6806 148.061C52.3166 148.433 52.7906 148.901 53.1026 149.465V147.665H54.7586V157.529H53.1026V155.693C52.7786 156.269 52.2926 156.749 51.6446 157.133C51.0086 157.505 50.2646 157.691 49.4126 157.691C48.5366 157.691 47.7446 157.475 47.0366 157.043C46.3286 156.611 45.7706 156.005 45.3626 155.225C44.9546 154.445 44.7506 153.557 44.7506 152.561ZM53.1026 152.579C53.1026 151.835 52.9526 151.187 52.6526 150.635C52.3526 150.083 51.9446 149.663 51.4286 149.375C50.9246 149.075 50.3666 148.925 49.7546 148.925C49.1426 148.925 48.5846 149.069 48.0806 149.357C47.5766 149.645 47.1746 150.065 46.8746 150.617C46.5746 151.169 46.4246 151.817 46.4246 152.561C46.4246 153.317 46.5746 153.977 46.8746 154.541C47.1746 155.093 47.5766 155.519 48.0806 155.819C48.5846 156.107 49.1426 156.251 49.7546 156.251C50.3666 156.251 50.9246 156.107 51.4286 155.819C51.9446 155.519 52.3526 155.093 52.6526 154.541C52.9526 153.977 53.1026 153.323 53.1026 152.579ZM61.1986 156.017L64.2586 147.665H66.0046L62.1346 157.529H60.2266L56.3566 147.665H58.1206L61.1986 156.017ZM67.0045 152.561C67.0045 151.553 67.2085 150.671 67.6165 149.915C68.0245 149.147 68.5825 148.553 69.2905 148.133C70.0105 147.713 70.8085 147.503 71.6845 147.503C72.5485 147.503 73.2985 147.689 73.9345 148.061C74.5705 148.433 75.0445 148.901 75.3565 149.465V147.665H77.0125V157.529H75.3565V155.693C75.0325 156.269 74.5465 156.749 73.8985 157.133C73.2625 157.505 72.5185 157.691 71.6665 157.691C70.7905 157.691 69.9985 157.475 69.2905 157.043C68.5825 156.611 68.0245 156.005 67.6165 155.225C67.2085 154.445 67.0045 153.557 67.0045 152.561ZM75.3565 152.579C75.3565 151.835 75.2065 151.187 74.9065 150.635C74.6065 150.083 74.1985 149.663 73.6825 149.375C73.1785 149.075 72.6205 148.925 72.0085 148.925C71.3965 148.925 70.8385 149.069 70.3345 149.357C69.8305 149.645 69.4285 150.065 69.1285 150.617C68.8285 151.169 68.6785 151.817 68.6785 152.561C68.6785 153.317 68.8285 153.977 69.1285 154.541C69.4285 155.093 69.8305 155.519 70.3345 155.819C70.8385 156.107 71.3965 156.251 72.0085 156.251C72.6205 156.251 73.1785 156.107 73.6825 155.819C74.1985 155.519 74.6065 155.093 74.9065 154.541C75.2065 153.977 75.3565 153.323 75.3565 152.579ZM80.6265 146.063C80.3145 146.063 80.0505 145.955 79.8345 145.739C79.6185 145.523 79.5105 145.259 79.5105 144.947C79.5105 144.635 79.6185 144.371 79.8345 144.155C80.0505 143.939 80.3145 143.831 80.6265 143.831C80.9265 143.831 81.1785 143.939 81.3825 144.155C81.5985 144.371 81.7065 144.635 81.7065 144.947C81.7065 145.259 81.5985 145.523 81.3825 145.739C81.1785 145.955 80.9265 146.063 80.6265 146.063ZM81.4185 147.665V157.529H79.7805V147.665H81.4185ZM85.8482 144.209V157.529H84.2102V144.209H85.8482ZM88.0279 152.561C88.0279 151.553 88.2319 150.671 88.6399 149.915C89.0479 149.147 89.6059 148.553 90.3139 148.133C91.0339 147.713 91.8319 147.503 92.7079 147.503C93.5719 147.503 94.3219 147.689 94.9579 148.061C95.5939 148.433 96.0679 148.901 96.3799 149.465V147.665H98.0359V157.529H96.3799V155.693C96.0559 156.269 95.5699 156.749 94.9219 157.133C94.2859 157.505 93.5419 157.691 92.6899 157.691C91.8139 157.691 91.0219 157.475 90.3139 157.043C89.6059 156.611 89.0479 156.005 88.6399 155.225C88.2319 154.445 88.0279 153.557 88.0279 152.561ZM96.3799 152.579C96.3799 151.835 96.2299 151.187 95.9299 150.635C95.6299 150.083 95.2219 149.663 94.7059 149.375C94.2019 149.075 93.6439 148.925 93.0319 148.925C92.4199 148.925 91.8619 149.069 91.3579 149.357C90.8539 149.645 90.4519 150.065 90.1519 150.617C89.8519 151.169 89.7019 151.817 89.7019 152.561C89.7019 153.317 89.8519 153.977 90.1519 154.541C90.4519 155.093 90.8539 155.519 91.3579 155.819C91.8619 156.107 92.4199 156.251 93.0319 156.251C93.6439 156.251 94.2019 156.107 94.7059 155.819C95.2219 155.519 95.6299 155.093 95.9299 154.541C96.2299 153.977 96.3799 153.323 96.3799 152.579ZM102.442 149.501C102.778 148.913 103.27 148.433 103.918 148.061C104.566 147.689 105.304 147.503 106.132 147.503C107.02 147.503 107.818 147.713 108.526 148.133C109.234 148.553 109.792 149.147 110.2 149.915C110.608 150.671 110.812 151.553 110.812 152.561C110.812 153.557 110.608 154.445 110.2 155.225C109.792 156.005 109.228 156.611 108.508 157.043C107.8 157.475 107.008 157.691 106.132 157.691C105.28 157.691 104.53 157.505 103.882 157.133C103.246 156.761 102.766 156.287 102.442 155.711V157.529H100.804V144.209H102.442V149.501ZM109.138 152.561C109.138 151.817 108.988 151.169 108.688 150.617C108.388 150.065 107.98 149.645 107.464 149.357C106.96 149.069 106.402 148.925 105.79 148.925C105.19 148.925 104.632 149.075 104.116 149.375C103.612 149.663 103.204 150.089 102.892 150.653C102.592 151.205 102.442 151.847 102.442 152.579C102.442 153.323 102.592 153.977 102.892 154.541C103.204 155.093 103.612 155.519 104.116 155.819C104.632 156.107 105.19 156.251 105.79 156.251C106.402 156.251 106.96 156.107 107.464 155.819C107.98 155.519 108.388 155.093 108.688 154.541C108.988 153.977 109.138 153.317 109.138 152.561ZM114.606 144.209V157.529H112.968V144.209H114.606ZM126.398 152.219C126.398 152.531 126.38 152.861 126.344 153.209H118.46C118.52 154.181 118.85 154.943 119.45 155.495C120.062 156.035 120.8 156.305 121.664 156.305C122.372 156.305 122.96 156.143 123.428 155.819C123.908 155.483 124.244 155.039 124.436 154.487H126.2C125.936 155.435 125.408 156.209 124.616 156.809C123.824 157.397 122.84 157.691 121.664 157.691C120.728 157.691 119.888 157.481 119.144 157.061C118.412 156.641 117.836 156.047 117.416 155.279C116.996 154.499 116.786 153.599 116.786 152.579C116.786 151.559 116.99 150.665 117.398 149.897C117.806 149.129 118.376 148.541 119.108 148.133C119.852 147.713 120.704 147.503 121.664 147.503C122.6 147.503 123.428 147.707 124.148 148.115C124.868 148.523 125.42 149.087 125.804 149.807C126.2 150.515 126.398 151.319 126.398 152.219ZM124.706 151.877C124.706 151.253 124.568 150.719 124.292 150.275C124.016 149.819 123.638 149.477 123.158 149.249C122.69 149.009 122.168 148.889 121.592 148.889C120.764 148.889 120.056 149.153 119.468 149.681C118.892 150.209 118.562 150.941 118.478 151.877H124.706ZM137.689 156.215C139.213 154.991 140.407 153.989 141.271 153.209C142.135 152.417 142.861 151.595 143.449 150.743C144.049 149.879 144.349 149.033 144.349 148.205C144.349 147.425 144.157 146.813 143.773 146.369C143.401 145.913 142.795 145.685 141.955 145.685C141.139 145.685 140.503 145.943 140.047 146.459C139.603 146.963 139.363 147.641 139.327 148.493H137.743C137.791 147.149 138.199 146.111 138.967 145.379C139.735 144.647 140.725 144.281 141.937 144.281C143.173 144.281 144.151 144.623 144.871 145.307C145.603 145.991 145.969 146.933 145.969 148.133C145.969 149.129 145.669 150.101 145.069 151.049C144.481 151.985 143.809 152.813 143.053 153.533C142.297 154.241 141.331 155.069 140.155 156.017H146.347V157.385H137.689V156.215ZM147.845 154.631V153.389L154.163 144.641H156.125V153.209H157.925V154.631H156.125V157.529H154.505V154.631H147.845ZM154.577 146.351L149.735 153.209H154.577V146.351ZM165.951 140.573L161.019 160.589H159.399L164.313 140.573H165.951ZM176.132 145.793L171.128 157.529H169.472L174.548 145.955H167.6V144.551H176.132V145.793ZM185.015 149.015V154.829C185.015 155.309 185.117 155.651 185.321 155.855C185.525 156.047 185.879 156.143 186.383 156.143H187.589V157.529H186.113C185.201 157.529 184.517 157.319 184.061 156.899C183.605 156.479 183.377 155.789 183.377 154.829V149.015H182.099V147.665H183.377V145.181H185.015V147.665H187.589V149.015H185.015ZM193.876 157.691C192.952 157.691 192.112 157.481 191.356 157.061C190.612 156.641 190.024 156.047 189.592 155.279C189.172 154.499 188.962 153.599 188.962 152.579C188.962 151.571 189.178 150.683 189.61 149.915C190.054 149.135 190.654 148.541 191.41 148.133C192.166 147.713 193.012 147.503 193.948 147.503C194.884 147.503 195.73 147.713 196.486 148.133C197.242 148.541 197.836 149.129 198.268 149.897C198.712 150.665 198.934 151.559 198.934 152.579C198.934 153.599 198.706 154.499 198.25 155.279C197.806 156.047 197.2 156.641 196.432 157.061C195.664 157.481 194.812 157.691 193.876 157.691ZM193.876 156.251C194.464 156.251 195.016 156.113 195.532 155.837C196.048 155.561 196.462 155.147 196.774 154.595C197.098 154.043 197.26 153.371 197.26 152.579C197.26 151.787 197.104 151.115 196.792 150.563C196.48 150.011 196.072 149.603 195.568 149.339C195.064 149.063 194.518 148.925 193.93 148.925C193.33 148.925 192.778 149.063 192.274 149.339C191.782 149.603 191.386 150.011 191.086 150.563C190.786 151.115 190.636 151.787 190.636 152.579C190.636 153.383 190.78 154.061 191.068 154.613C191.368 155.165 191.764 155.579 192.256 155.855C192.748 156.119 193.288 156.251 193.876 156.251ZM210.782 147.485C211.526 147.485 212.198 147.647 212.798 147.971C213.398 148.283 213.866 148.757 214.202 149.393C214.55 150.029 214.724 150.803 214.724 151.715V157.529H213.104V151.949C213.104 150.965 212.858 150.215 212.366 149.699C211.874 149.171 211.202 148.907 210.35 148.907C209.486 148.907 208.796 149.177 208.28 149.717C207.776 150.257 207.524 151.043 207.524 152.075V157.529H205.886V144.209H207.524V149.069C207.848 148.565 208.292 148.175 208.856 147.899C209.432 147.623 210.074 147.485 210.782 147.485ZM226.4 152.219C226.4 152.531 226.382 152.861 226.346 153.209H218.462C218.522 154.181 218.852 154.943 219.452 155.495C220.064 156.035 220.802 156.305 221.666 156.305C222.374 156.305 222.962 156.143 223.43 155.819C223.91 155.483 224.246 155.039 224.438 154.487H226.202C225.938 155.435 225.41 156.209 224.618 156.809C223.826 157.397 222.842 157.691 221.666 157.691C220.73 157.691 219.89 157.481 219.146 157.061C218.414 156.641 217.838 156.047 217.418 155.279C216.998 154.499 216.788 153.599 216.788 152.579C216.788 151.559 216.992 150.665 217.4 149.897C217.808 149.129 218.378 148.541 219.11 148.133C219.854 147.713 220.706 147.503 221.666 147.503C222.602 147.503 223.43 147.707 224.15 148.115C224.87 148.523 225.422 149.087 225.806 149.807C226.202 150.515 226.4 151.319 226.4 152.219ZM224.708 151.877C224.708 151.253 224.57 150.719 224.294 150.275C224.018 149.819 223.64 149.477 223.16 149.249C222.692 149.009 222.17 148.889 221.594 148.889C220.766 148.889 220.058 149.153 219.47 149.681C218.894 150.209 218.564 150.941 218.48 151.877H224.708ZM230.2 144.209V157.529H228.562V144.209H230.2ZM234.629 149.483C234.953 148.919 235.433 148.451 236.069 148.079C236.717 147.695 237.467 147.503 238.319 147.503C239.195 147.503 239.987 147.713 240.695 148.133C241.415 148.553 241.979 149.147 242.387 149.915C242.795 150.671 242.999 151.553 242.999 152.561C242.999 153.557 242.795 154.445 242.387 155.225C241.979 156.005 241.415 156.611 240.695 157.043C239.987 157.475 239.195 157.691 238.319 157.691C237.479 157.691 236.735 157.505 236.087 157.133C235.451 156.749 234.965 156.275 234.629 155.711V162.209H232.991V147.665H234.629V149.483ZM241.325 152.561C241.325 151.817 241.175 151.169 240.875 150.617C240.575 150.065 240.167 149.645 239.651 149.357C239.147 149.069 238.589 148.925 237.977 148.925C237.377 148.925 236.819 149.075 236.303 149.375C235.799 149.663 235.391 150.089 235.079 150.653C234.779 151.205 234.629 151.847 234.629 152.579C234.629 153.323 234.779 153.977 235.079 154.541C235.391 155.093 235.799 155.519 236.303 155.819C236.819 156.107 237.377 156.251 237.977 156.251C238.589 156.251 239.147 156.107 239.651 155.819C240.167 155.519 240.575 155.093 240.875 154.541C241.175 153.977 241.325 153.317 241.325 152.561ZM254.022 147.503C254.874 147.503 255.618 147.689 256.254 148.061C256.902 148.433 257.382 148.901 257.694 149.465V147.665H259.35V157.745C259.35 158.645 259.158 159.443 258.774 160.139C258.39 160.847 257.838 161.399 257.118 161.795C256.41 162.191 255.582 162.389 254.634 162.389C253.338 162.389 252.258 162.083 251.394 161.471C250.53 160.859 250.02 160.025 249.864 158.969H251.484C251.664 159.569 252.036 160.049 252.6 160.409C253.164 160.781 253.842 160.967 254.634 160.967C255.534 160.967 256.266 160.685 256.83 160.121C257.406 159.557 257.694 158.765 257.694 157.745V155.675C257.37 156.251 256.89 156.731 256.254 157.115C255.618 157.499 254.874 157.691 254.022 157.691C253.146 157.691 252.348 157.475 251.628 157.043C250.92 156.611 250.362 156.005 249.954 155.225C249.546 154.445 249.342 153.557 249.342 152.561C249.342 151.553 249.546 150.671 249.954 149.915C250.362 149.147 250.92 148.553 251.628 148.133C252.348 147.713 253.146 147.503 254.022 147.503ZM257.694 152.579C257.694 151.835 257.544 151.187 257.244 150.635C256.944 150.083 256.536 149.663 256.02 149.375C255.516 149.075 254.958 148.925 254.346 148.925C253.734 148.925 253.176 149.069 252.672 149.357C252.168 149.645 251.766 150.065 251.466 150.617C251.166 151.169 251.016 151.817 251.016 152.561C251.016 153.317 251.166 153.977 251.466 154.541C251.766 155.093 252.168 155.519 252.672 155.819C253.176 156.107 253.734 156.251 254.346 156.251C254.958 156.251 255.516 156.107 256.02 155.819C256.536 155.519 256.944 155.093 257.244 154.541C257.544 153.977 257.694 153.323 257.694 152.579ZM270.866 147.665V157.529H269.228V156.071C268.916 156.575 268.478 156.971 267.914 157.259C267.362 157.535 266.75 157.673 266.078 157.673C265.31 157.673 264.62 157.517 264.008 157.205C263.396 156.881 262.91 156.401 262.55 155.765C262.202 155.129 262.028 154.355 262.028 153.443V147.665H263.648V153.227C263.648 154.199 263.894 154.949 264.386 155.477C264.878 155.993 265.55 156.251 266.402 156.251C267.278 156.251 267.968 155.981 268.472 155.441C268.976 154.901 269.228 154.115 269.228 153.083V147.665H270.866ZM274.478 146.063C274.166 146.063 273.902 145.955 273.686 145.739C273.47 145.523 273.362 145.259 273.362 144.947C273.362 144.635 273.47 144.371 273.686 144.155C273.902 143.939 274.166 143.831 274.478 143.831C274.778 143.831 275.03 143.939 275.234 144.155C275.45 144.371 275.558 144.635 275.558 144.947C275.558 145.259 275.45 145.523 275.234 145.739C275.03 145.955 274.778 146.063 274.478 146.063ZM275.27 147.665V157.529H273.632V147.665H275.27ZM277.45 152.561C277.45 151.553 277.654 150.671 278.062 149.915C278.47 149.147 279.028 148.553 279.736 148.133C280.456 147.713 281.26 147.503 282.148 147.503C282.916 147.503 283.63 147.683 284.29 148.043C284.95 148.391 285.454 148.853 285.802 149.429V144.209H287.458V157.529H285.802V155.675C285.478 156.263 284.998 156.749 284.362 157.133C283.726 157.505 282.982 157.691 282.13 157.691C281.254 157.691 280.456 157.475 279.736 157.043C279.028 156.611 278.47 156.005 278.062 155.225C277.654 154.445 277.45 153.557 277.45 152.561ZM285.802 152.579C285.802 151.835 285.652 151.187 285.352 150.635C285.052 150.083 284.644 149.663 284.128 149.375C283.624 149.075 283.066 148.925 282.454 148.925C281.842 148.925 281.284 149.069 280.78 149.357C280.276 149.645 279.874 150.065 279.574 150.617C279.274 151.169 279.124 151.817 279.124 152.561C279.124 153.317 279.274 153.977 279.574 154.541C279.874 155.093 280.276 155.519 280.78 155.819C281.284 156.107 281.842 156.251 282.454 156.251C283.066 156.251 283.624 156.107 284.128 155.819C284.644 155.519 285.052 155.093 285.352 154.541C285.652 153.977 285.802 153.323 285.802 152.579ZM299.226 152.219C299.226 152.531 299.208 152.861 299.172 153.209H291.288C291.348 154.181 291.678 154.943 292.278 155.495C292.89 156.035 293.628 156.305 294.492 156.305C295.2 156.305 295.788 156.143 296.256 155.819C296.736 155.483 297.072 155.039 297.264 154.487H299.028C298.764 155.435 298.236 156.209 297.444 156.809C296.652 157.397 295.668 157.691 294.492 157.691C293.556 157.691 292.716 157.481 291.972 157.061C291.24 156.641 290.664 156.047 290.244 155.279C289.824 154.499 289.614 153.599 289.614 152.579C289.614 151.559 289.818 150.665 290.226 149.897C290.634 149.129 291.204 148.541 291.936 148.133C292.68 147.713 293.532 147.503 294.492 147.503C295.428 147.503 296.256 147.707 296.976 148.115C297.696 148.523 298.248 149.087 298.632 149.807C299.028 150.515 299.226 151.319 299.226 152.219ZM297.534 151.877C297.534 151.253 297.396 150.719 297.12 150.275C296.844 149.819 296.466 149.477 295.986 149.249C295.518 149.009 294.996 148.889 294.42 148.889C293.592 148.889 292.884 149.153 292.296 149.681C291.72 150.209 291.39 150.941 291.306 151.877H297.534ZM301.91 157.637C301.598 157.637 301.334 157.529 301.118 157.313C300.902 157.097 300.794 156.833 300.794 156.521C300.794 156.209 300.902 155.945 301.118 155.729C301.334 155.513 301.598 155.405 301.91 155.405C302.21 155.405 302.462 155.513 302.666 155.729C302.882 155.945 302.99 156.209 302.99 156.521C302.99 156.833 302.882 157.097 302.666 157.313C302.462 157.529 302.21 157.637 301.91 157.637ZM53.8586 188.665L47.9186 203.173H46.2266L48.1706 198.421L44.1926 188.665H46.0106L49.1066 196.657L52.1666 188.665H53.8586ZM59.8071 198.691C58.8831 198.691 58.0431 198.481 57.2871 198.061C56.5431 197.641 55.9551 197.047 55.5231 196.279C55.1031 195.499 54.8931 194.599 54.8931 193.579C54.8931 192.571 55.1091 191.683 55.5411 190.915C55.9851 190.135 56.5851 189.541 57.3411 189.133C58.0971 188.713 58.9431 188.503 59.8791 188.503C60.8151 188.503 61.6611 188.713 62.4171 189.133C63.1731 189.541 63.7671 190.129 64.1991 190.897C64.6431 191.665 64.8651 192.559 64.8651 193.579C64.8651 194.599 64.6371 195.499 64.1811 196.279C63.7371 197.047 63.1311 197.641 62.3631 198.061C61.5951 198.481 60.7431 198.691 59.8071 198.691ZM59.8071 197.251C60.3951 197.251 60.9471 197.113 61.4631 196.837C61.9791 196.561 62.3931 196.147 62.7051 195.595C63.0291 195.043 63.1911 194.371 63.1911 193.579C63.1911 192.787 63.0351 192.115 62.7231 191.563C62.4111 191.011 62.0031 190.603 61.4991 190.339C60.9951 190.063 60.4491 189.925 59.8611 189.925C59.2611 189.925 58.7091 190.063 58.2051 190.339C57.7131 190.603 57.3171 191.011 57.0171 191.563C56.7171 192.115 56.5671 192.787 56.5671 193.579C56.5671 194.383 56.7111 195.061 56.9991 195.613C57.2991 196.165 57.6951 196.579 58.1871 196.855C58.6791 197.119 59.2191 197.251 59.8071 197.251ZM75.7668 188.665V198.529H74.1288V197.071C73.8168 197.575 73.3788 197.971 72.8148 198.259C72.2628 198.535 71.6508 198.673 70.9788 198.673C70.2108 198.673 69.5208 198.517 68.9088 198.205C68.2968 197.881 67.8108 197.401 67.4508 196.765C67.1028 196.129 66.9288 195.355 66.9288 194.443V188.665H68.5488V194.227C68.5488 195.199 68.7948 195.949 69.2868 196.477C69.7788 196.993 70.4508 197.251 71.3028 197.251C72.1788 197.251 72.8688 196.981 73.3728 196.441C73.8768 195.901 74.1288 195.115 74.1288 194.083V188.665H75.7668ZM85.3293 190.015V195.829C85.3293 196.309 85.4313 196.651 85.6353 196.855C85.8393 197.047 86.1933 197.143 86.6973 197.143H87.9033V198.529H86.4273C85.5153 198.529 84.8313 198.319 84.3753 197.899C83.9193 197.479 83.6913 196.789 83.6913 195.829V190.015H82.4133V188.665H83.6913V186.181H85.3293V188.665H87.9033V190.015H85.3293ZM94.19 198.691C93.266 198.691 92.426 198.481 91.67 198.061C90.926 197.641 90.338 197.047 89.906 196.279C89.486 195.499 89.276 194.599 89.276 193.579C89.276 192.571 89.492 191.683 89.924 190.915C90.368 190.135 90.968 189.541 91.724 189.133C92.48 188.713 93.326 188.503 94.262 188.503C95.198 188.503 96.044 188.713 96.8 189.133C97.556 189.541 98.15 190.129 98.582 190.897C99.026 191.665 99.248 192.559 99.248 193.579C99.248 194.599 99.02 195.499 98.564 196.279C98.12 197.047 97.514 197.641 96.746 198.061C95.978 198.481 95.126 198.691 94.19 198.691ZM94.19 197.251C94.778 197.251 95.33 197.113 95.846 196.837C96.362 196.561 96.776 196.147 97.088 195.595C97.412 195.043 97.574 194.371 97.574 193.579C97.574 192.787 97.418 192.115 97.106 191.563C96.794 191.011 96.386 190.603 95.882 190.339C95.378 190.063 94.832 189.925 94.244 189.925C93.644 189.925 93.092 190.063 92.588 190.339C92.096 190.603 91.7 191.011 91.4 191.563C91.1 192.115 90.95 192.787 90.95 193.579C90.95 194.383 91.094 195.061 91.382 195.613C91.682 196.165 92.078 196.579 92.57 196.855C93.062 197.119 93.602 197.251 94.19 197.251ZM109.692 198.691C108.936 198.691 108.258 198.565 107.658 198.313C107.058 198.049 106.584 197.689 106.236 197.233C105.888 196.765 105.696 196.231 105.66 195.631H107.352C107.4 196.123 107.628 196.525 108.036 196.837C108.456 197.149 109.002 197.305 109.674 197.305C110.298 197.305 110.79 197.167 111.15 196.891C111.51 196.615 111.69 196.267 111.69 195.847C111.69 195.415 111.498 195.097 111.114 194.893C110.73 194.677 110.136 194.467 109.332 194.263C108.6 194.071 108 193.879 107.532 193.687C107.076 193.483 106.68 193.189 106.344 192.805C106.02 192.409 105.858 191.893 105.858 191.257C105.858 190.753 106.008 190.291 106.308 189.871C106.608 189.451 107.034 189.121 107.586 188.881C108.138 188.629 108.768 188.503 109.476 188.503C110.568 188.503 111.45 188.779 112.122 189.331C112.794 189.883 113.154 190.639 113.202 191.599H111.564C111.528 191.083 111.318 190.669 110.934 190.357C110.562 190.045 110.058 189.889 109.422 189.889C108.834 189.889 108.366 190.015 108.018 190.267C107.67 190.519 107.496 190.849 107.496 191.257C107.496 191.581 107.598 191.851 107.802 192.067C108.018 192.271 108.282 192.439 108.594 192.571C108.918 192.691 109.362 192.829 109.926 192.985C110.634 193.177 111.21 193.369 111.654 193.561C112.098 193.741 112.476 194.017 112.788 194.389C113.112 194.761 113.28 195.247 113.292 195.847C113.292 196.387 113.142 196.873 112.842 197.305C112.542 197.737 112.116 198.079 111.564 198.331C111.024 198.571 110.4 198.691 109.692 198.691ZM124.353 188.665V198.529H122.715V197.071C122.403 197.575 121.965 197.971 121.401 198.259C120.849 198.535 120.237 198.673 119.565 198.673C118.797 198.673 118.107 198.517 117.495 198.205C116.883 197.881 116.397 197.401 116.037 196.765C115.689 196.129 115.515 195.355 115.515 194.443V188.665H117.135V194.227C117.135 195.199 117.381 195.949 117.873 196.477C118.365 196.993 119.037 197.251 119.889 197.251C120.765 197.251 121.455 196.981 121.959 196.441C122.463 195.901 122.715 195.115 122.715 194.083V188.665H124.353ZM126.506 193.579C126.506 192.559 126.71 191.671 127.118 190.915C127.526 190.147 128.09 189.553 128.81 189.133C129.542 188.713 130.376 188.503 131.312 188.503C132.524 188.503 133.52 188.797 134.3 189.385C135.092 189.973 135.614 190.789 135.866 191.833H134.102C133.934 191.233 133.604 190.759 133.112 190.411C132.632 190.063 132.032 189.889 131.312 189.889C130.376 189.889 129.62 190.213 129.044 190.861C128.468 191.497 128.18 192.403 128.18 193.579C128.18 194.767 128.468 195.685 129.044 196.333C129.62 196.981 130.376 197.305 131.312 197.305C132.032 197.305 132.632 197.137 133.112 196.801C133.592 196.465 133.922 195.985 134.102 195.361H135.866C135.602 196.369 135.074 197.179 134.282 197.791C133.49 198.391 132.5 198.691 131.312 198.691C130.376 198.691 129.542 198.481 128.81 198.061C128.09 197.641 127.526 197.047 127.118 196.279C126.71 195.511 126.506 194.611 126.506 193.579ZM137.44 193.579C137.44 192.559 137.644 191.671 138.052 190.915C138.46 190.147 139.024 189.553 139.744 189.133C140.476 188.713 141.31 188.503 142.246 188.503C143.458 188.503 144.454 188.797 145.234 189.385C146.026 189.973 146.548 190.789 146.8 191.833H145.036C144.868 191.233 144.538 190.759 144.046 190.411C143.566 190.063 142.966 189.889 142.246 189.889C141.31 189.889 140.554 190.213 139.978 190.861C139.402 191.497 139.114 192.403 139.114 193.579C139.114 194.767 139.402 195.685 139.978 196.333C140.554 196.981 141.31 197.305 142.246 197.305C142.966 197.305 143.566 197.137 144.046 196.801C144.526 196.465 144.856 195.985 145.036 195.361H146.8C146.536 196.369 146.008 197.179 145.216 197.791C144.424 198.391 143.434 198.691 142.246 198.691C141.31 198.691 140.476 198.481 139.744 198.061C139.024 197.641 138.46 197.047 138.052 196.279C137.644 195.511 137.44 194.611 137.44 193.579ZM157.986 193.219C157.986 193.531 157.968 193.861 157.932 194.209H150.048C150.108 195.181 150.438 195.943 151.038 196.495C151.65 197.035 152.388 197.305 153.252 197.305C153.96 197.305 154.548 197.143 155.016 196.819C155.496 196.483 155.832 196.039 156.024 195.487H157.788C157.524 196.435 156.996 197.209 156.204 197.809C155.412 198.397 154.428 198.691 153.252 198.691C152.316 198.691 151.476 198.481 150.732 198.061C150 197.641 149.424 197.047 149.004 196.279C148.584 195.499 148.374 194.599 148.374 193.579C148.374 192.559 148.578 191.665 148.986 190.897C149.394 190.129 149.964 189.541 150.696 189.133C151.44 188.713 152.292 188.503 153.252 188.503C154.188 188.503 155.016 188.707 155.736 189.115C156.456 189.523 157.008 190.087 157.392 190.807C157.788 191.515 157.986 192.319 157.986 193.219ZM156.294 192.877C156.294 192.253 156.156 191.719 155.88 191.275C155.604 190.819 155.226 190.477 154.746 190.249C154.278 190.009 153.756 189.889 153.18 189.889C152.352 189.889 151.644 190.153 151.056 190.681C150.48 191.209 150.15 191.941 150.066 192.877H156.294ZM163.64 198.691C162.884 198.691 162.206 198.565 161.606 198.313C161.006 198.049 160.532 197.689 160.184 197.233C159.836 196.765 159.644 196.231 159.608 195.631H161.3C161.348 196.123 161.576 196.525 161.984 196.837C162.404 197.149 162.95 197.305 163.622 197.305C164.246 197.305 164.738 197.167 165.098 196.891C165.458 196.615 165.638 196.267 165.638 195.847C165.638 195.415 165.446 195.097 165.062 194.893C164.678 194.677 164.084 194.467 163.28 194.263C162.548 194.071 161.948 193.879 161.48 193.687C161.024 193.483 160.628 193.189 160.292 192.805C159.968 192.409 159.806 191.893 159.806 191.257C159.806 190.753 159.956 190.291 160.256 189.871C160.556 189.451 160.982 189.121 161.534 188.881C162.086 188.629 162.716 188.503 163.424 188.503C164.516 188.503 165.398 188.779 166.07 189.331C166.742 189.883 167.102 190.639 167.15 191.599H165.512C165.476 191.083 165.266 190.669 164.882 190.357C164.51 190.045 164.006 189.889 163.37 189.889C162.782 189.889 162.314 190.015 161.966 190.267C161.618 190.519 161.444 190.849 161.444 191.257C161.444 191.581 161.546 191.851 161.75 192.067C161.966 192.271 162.23 192.439 162.542 192.571C162.866 192.691 163.31 192.829 163.874 192.985C164.582 193.177 165.158 193.369 165.602 193.561C166.046 193.741 166.424 194.017 166.736 194.389C167.06 194.761 167.228 195.247 167.24 195.847C167.24 196.387 167.09 196.873 166.79 197.305C166.49 197.737 166.064 198.079 165.512 198.331C164.972 198.571 164.348 198.691 163.64 198.691ZM173.044 198.691C172.288 198.691 171.61 198.565 171.01 198.313C170.41 198.049 169.936 197.689 169.588 197.233C169.24 196.765 169.048 196.231 169.012 195.631H170.704C170.752 196.123 170.98 196.525 171.388 196.837C171.808 197.149 172.354 197.305 173.026 197.305C173.65 197.305 174.142 197.167 174.502 196.891C174.862 196.615 175.042 196.267 175.042 195.847C175.042 195.415 174.85 195.097 174.466 194.893C174.082 194.677 173.488 194.467 172.684 194.263C171.952 194.071 171.352 193.879 170.884 193.687C170.428 193.483 170.032 193.189 169.696 192.805C169.372 192.409 169.21 191.893 169.21 191.257C169.21 190.753 169.36 190.291 169.66 189.871C169.96 189.451 170.386 189.121 170.938 188.881C171.49 188.629 172.12 188.503 172.828 188.503C173.92 188.503 174.802 188.779 175.474 189.331C176.146 189.883 176.506 190.639 176.554 191.599H174.916C174.88 191.083 174.67 190.669 174.286 190.357C173.914 190.045 173.41 189.889 172.774 189.889C172.186 189.889 171.718 190.015 171.37 190.267C171.022 190.519 170.848 190.849 170.848 191.257C170.848 191.581 170.95 191.851 171.154 192.067C171.37 192.271 171.634 192.439 171.946 192.571C172.27 192.691 172.714 192.829 173.278 192.985C173.986 193.177 174.562 193.369 175.006 193.561C175.45 193.741 175.828 194.017 176.14 194.389C176.464 194.761 176.632 195.247 176.644 195.847C176.644 196.387 176.494 196.873 176.194 197.305C175.894 197.737 175.468 198.079 174.916 198.331C174.376 198.571 173.752 198.691 173.044 198.691Z" fill="black"/>
<mask id="mask0_2864_105" style="mask-type:luminance" maskUnits="userSpaceOnUse" x="232" y="14" width="386" height="283">
<path d="M617.051 14.4492H232.562V296.17H617.051V14.4492Z" fill="white"/>
</mask>
<g mask="url(#mask0_2864_105)">
<path d="M511.786 159.385C510.958 159.511 510.166 159.673 509.374 159.853C509.374 159.547 509.482 159.312 509.662 159.204C510.346 158.826 504.641 144.364 511.786 133.149C523.215 115.208 525.95 97.1586 525.95 97.1586C525.95 97.1586 522.585 96.2751 524.366 91.3165C526.13 86.3579 536.047 74.4753 552.334 77.8472C557.806 78.9831 567.902 85.6547 570.206 94.8687C572.51 104.083 570.746 107.815 572.69 112.251C574.633 116.686 579.583 118.634 582.066 126.784C584.55 134.934 579.421 140.542 577.297 142.525C575.173 144.509 574.813 152.839 578.359 157.816C579.943 160.052 581.167 162.486 580.897 164.848C577.135 162.828 572.906 161.368 567.902 160.304L511.804 159.421L511.786 159.385Z" fill="#F94926"/>
<path d="M511.341 134.574C511.52 134.574 511.682 134.465 511.736 134.285C512.204 132.843 516.344 128.064 521.473 124.909C521.671 124.783 521.743 124.53 521.617 124.332C521.491 124.133 521.221 124.079 521.023 124.188C516.02 127.271 511.521 132.212 510.927 134.033C510.855 134.249 510.981 134.501 511.197 134.574C511.233 134.574 511.287 134.592 511.323 134.592L511.341 134.574Z" fill="#122A36"/>
<path d="M511.784 159.384C511.784 159.384 513.367 170.888 516.733 176.207C520.08 181.527 527.171 190.759 536.548 191.624C545.943 192.526 553.538 187.369 559.225 179.922C564.912 172.475 567.864 160.25 567.864 160.25C567.864 160.25 552.476 158.843 550.874 157.257C549.272 155.67 547.347 149.449 548.75 145.031C550.172 140.578 557.083 131.544 557.083 131.544C562.231 131.003 568.764 127.649 569.988 119.499C571.247 111.331 565.578 113.116 564.336 115.045C564.336 115.045 558.505 109.384 555.842 104.064C553.196 98.7451 551.594 93.2275 551.594 93.2275C551.594 93.2275 543.441 96.6174 537.79 98.2042C532.121 99.7909 524.472 96.0945 524.472 96.0945C524.076 97.5911 520.062 109.221 519.757 119.968C519.667 123.087 519.883 126.153 520.602 128.857C520.962 130.228 521.448 131.472 522.024 132.644C525.804 140.524 533.345 143.949 533.345 143.949C533.345 143.949 533.363 144.076 533.435 144.328C533.471 144.545 533.543 144.869 533.597 145.248C534.227 148.295 535.486 155.76 533.525 156.878C531.041 158.302 511.766 159.366 511.766 159.366L511.784 159.384Z" fill="white"/>
<path d="M458.102 246.691L459.578 242.869C466.309 245.267 485.728 260.702 485.728 260.702C485.044 263.298 479.339 276.1 471.924 280.248C464.509 284.395 448.833 277.453 439.132 271.43C426.876 263.821 405.819 247.845 405.819 247.845L401.68 226.641C401.68 226.641 456.914 246.709 458.12 246.709L458.102 246.691Z" fill="white"/>
<path d="M483.137 183.149C489.022 171.609 495.987 162.323 509.611 159.312C510.385 159.15 511.159 158.988 511.969 158.861C511.969 158.861 513.517 170.095 516.81 175.288C520.104 180.481 526.997 189.46 536.139 190.326C545.282 191.191 552.715 186.179 558.258 178.912C563.802 171.645 566.699 159.709 566.699 159.709C571.577 160.755 575.68 162.179 579.369 164.144C581.817 165.461 584.067 167.011 586.209 168.869C591.554 173.539 602.262 211.296 606.402 231.78C609.767 248.441 614.681 263.28 614.681 274.171C614.681 285.062 604.836 294.402 594.217 296.223C594.217 296.223 596.719 286.108 588.098 276.083C579.459 266.057 574.294 264.326 574.294 264.326L581.151 261.73L576.886 235.53L572.818 264.669L506.426 280.536L500.234 238.632C500.234 238.632 496.617 235.26 496.347 232.411L485.728 260.684C485.728 260.684 466.309 245.231 459.578 242.851C459.578 242.851 476.928 195.321 483.137 183.131V183.149Z" fill="#00AFE3"/>
<path d="M550.973 77.2338C556.174 78.6763 561.322 80.5696 565.047 88.1607C568.755 95.7338 567.297 111.836 565.839 116.885L562.923 115.821C562.923 115.821 564.777 101.287 562.527 93.2636C560.278 85.2397 551.549 77.2157 540.984 77.9009C540.984 77.9009 546.618 76.0257 550.991 77.2338H550.973Z" fill="black"/>
<path d="M576.963 320.53C576.963 320.53 577.089 320.53 577.143 320.494C577.269 320.422 577.359 320.295 577.377 320.151C577.989 310.955 567.244 297.973 565.246 295.971C565.084 295.809 564.814 295.809 564.652 295.971C564.49 296.134 564.49 296.404 564.652 296.566C564.778 296.693 576.585 309.693 576.567 319.376C574.461 317.951 567.37 313.083 561.323 307.89C554.25 301.813 552.666 296.224 552.648 296.17C552.594 295.953 552.36 295.827 552.144 295.881C551.928 295.935 551.802 296.17 551.856 296.386C551.928 296.62 553.53 302.282 560.783 308.521C567.964 314.688 576.639 320.422 576.729 320.494C576.801 320.548 576.873 320.566 576.963 320.566V320.53Z" fill="#122A36"/>
<path d="M280.45 174.278L299.059 270.205C299.527 272.675 301.939 274.712 304.405 274.712H452.056C454.522 274.712 456.177 272.693 455.673 270.205L437.064 174.278C436.596 171.808 434.184 169.771 431.719 169.771H284.067C281.602 169.771 279.946 171.79 280.45 174.278Z" fill="black"/>
<path d="M337.703 193.824H372.942L392.416 269.393L380.573 289.047L408.163 294.078V298.604H374.814H339.215L358.31 269.393L337.703 193.824Z" fill="#0A0702"/>
<path d="M397.305 169.771L416.778 274.712H417.696L398.259 169.771H397.305Z" fill="#0C0803"/>
<path d="M554.699 111.06C554.843 111.06 554.987 110.988 555.059 110.844C555.185 110.645 555.113 110.375 554.915 110.267C552.953 109.095 546.222 107.508 542.947 109.329C542.749 109.437 542.677 109.708 542.785 109.906C542.893 110.104 543.162 110.176 543.36 110.068C546.204 108.481 552.629 109.906 554.483 110.988C554.555 111.024 554.627 111.042 554.699 111.042V111.06Z" fill="#122A36"/>
<path d="M534.246 108.122C534.246 108.122 534.426 108.104 534.498 108.049C534.696 107.905 534.732 107.653 534.606 107.454C533.958 106.553 532.105 104.425 528.649 103.992C525.608 103.632 523.844 104.714 523.772 104.768C523.574 104.894 523.52 105.146 523.646 105.345C523.772 105.543 524.024 105.597 524.222 105.489C524.222 105.489 525.824 104.497 528.541 104.84C531.655 105.219 533.329 107.13 533.904 107.941C533.994 108.049 534.12 108.122 534.246 108.122Z" fill="#122A36"/>
<path d="M533.026 134.573C536.878 134.573 538.821 131.833 538.839 131.797C538.965 131.598 538.929 131.346 538.731 131.202C538.533 131.075 538.281 131.111 538.137 131.31C538.011 131.49 534.97 135.727 528.599 132.536C528.383 132.428 528.131 132.518 528.023 132.734C527.915 132.951 528.005 133.203 528.203 133.311C530.038 134.231 531.658 134.573 533.008 134.573H533.026Z" fill="#F94926"/>
<path d="M533.438 144.346C533.473 144.562 533.779 146.041 533.833 146.437C534.823 146.636 541.932 146.437 546.684 142.867C546.864 142.723 546.936 142.489 546.81 142.272C546.684 142.074 546.432 142.02 546.216 142.146C542.67 144.4 537.325 145.193 533.438 144.364V144.346Z" fill="#122A36"/>
<path d="M578.1 263.299C578.1 263.299 578.208 263.299 578.244 263.263C578.478 263.173 578.73 263.083 578.982 262.975C581.483 261.983 584.579 260.757 590.554 262.145C590.77 262.199 591.004 262.055 591.058 261.839C591.112 261.622 590.968 261.388 590.752 261.334C584.525 259.891 581.141 261.226 578.676 262.199C578.424 262.308 578.172 262.398 577.938 262.488C577.722 262.578 577.614 262.812 577.704 263.029C577.758 263.191 577.92 263.299 578.1 263.299Z" fill="#6C90FE"/>
<path d="M571.158 242.095C571.158 242.095 571.32 242.077 571.392 242.022C571.518 241.932 574.595 239.859 577.205 235.766C579.095 232.79 582.19 225.812 581.542 212.613C581.542 212.379 581.308 212.235 581.11 212.217C580.876 212.217 580.714 212.415 580.714 212.65C581.362 225.632 578.357 232.43 576.503 235.315C574.001 239.246 570.96 241.319 570.924 241.337C570.726 241.464 570.69 241.716 570.816 241.914C570.888 242.041 571.032 242.095 571.158 242.095Z" fill="#6C90FE"/>
<path d="M504.009 242.094C504.153 242.094 504.297 242.022 504.369 241.878C504.477 241.679 504.405 241.427 504.207 241.319C501.94 240.02 499.618 237.478 496.918 233.331C494.453 229.544 491.411 211.784 499.186 198.837C499.312 198.639 499.24 198.386 499.042 198.26C498.844 198.134 498.592 198.206 498.466 198.404C490.511 211.657 493.661 229.887 496.198 233.782C498.97 238.037 501.364 240.67 503.757 242.04C503.829 242.076 503.901 242.094 503.955 242.094H504.009Z" fill="#6C90FE"/>
<path d="M511.52 281.69C511.646 281.69 511.754 281.636 511.844 281.527C517.081 274.874 529.589 248.945 537.868 231.797C538.912 229.633 539.902 227.578 540.802 225.721C546.237 214.487 555.794 193.481 558.637 178.984C560.149 171.212 560.905 156.913 561.499 145.427C561.841 138.918 562.129 133.292 562.507 129.83C562.525 129.596 562.363 129.398 562.147 129.38C561.877 129.344 561.715 129.524 561.697 129.74C561.337 133.22 561.031 138.864 560.689 145.373C560.095 156.841 559.339 171.104 557.845 178.821C555.02 193.228 545.499 214.163 540.082 225.36C539.182 227.217 538.192 229.255 537.148 231.437C528.887 248.566 516.415 274.441 511.214 281.023C511.07 281.203 511.106 281.455 511.286 281.6C511.358 281.654 511.448 281.69 511.538 281.69H511.52Z" fill="#6C90FE"/>
<path d="M511.79 133.149C515.425 134.501 513.374 144.238 508.604 142.507C503.817 140.776 507.002 131.382 511.79 133.149Z" fill="#122A36"/>
<path d="M564.337 115.063C569.754 114.955 571.23 119.679 570.168 124.458C569.106 129.236 565.561 131.4 561.943 130.228C558.326 129.074 557.786 123.754 558.668 120.383C559.55 117.011 561.601 115.117 564.337 115.063Z" fill="#122A36"/>
<path d="M469.489 298.568H492.598C492.598 298.568 517.812 298.316 534.37 298.568C550.946 298.82 591.062 296.494 594.176 296.242C594.176 296.242 596.677 286.108 588.057 276.083C579.418 266.04 574.235 264.309 574.235 264.309L572.759 264.669L506.366 280.537H506.222C506.222 280.537 503.288 279.004 497.745 278.319C492.238 277.634 487.739 279.365 483.599 282.989C479.46 286.613 469.453 298.55 469.453 298.55L469.489 298.568Z" fill="white"/>
<path d="M475.234 298.568H476.44C479.086 296.061 483.279 292.022 486.015 289.174C486.177 289.011 486.177 288.759 486.015 288.596C485.853 288.434 485.583 288.452 485.439 288.596C482.469 291.68 477.844 296.134 475.252 298.586L475.234 298.568Z" fill="#122A36"/>
<path d="M480.25 298.568H481.852C484.875 296.693 488.961 294.042 491.696 291.806C491.858 291.662 491.876 291.391 491.732 291.229C491.588 291.049 491.336 291.013 491.156 291.175C488.097 293.681 483.31 296.729 480.268 298.586L480.25 298.568Z" fill="#122A36"/>
<path d="M487.727 298.567H489.526C491.776 297.377 494.476 295.899 496.815 294.42C496.995 294.294 497.067 294.041 496.941 293.861C496.815 293.663 496.545 293.609 496.365 293.717C493.54 295.502 490.174 297.305 487.727 298.567Z" fill="#122A36"/>
<path d="M541.903 115.677C541.687 117.299 542.083 118.688 542.785 118.778C543.486 118.868 544.242 117.642 544.458 116.019C544.674 114.396 544.278 113.008 543.576 112.918C542.875 112.828 542.119 114.054 541.903 115.677Z" fill="#122A36"/>
<path d="M525.356 112.215C525.14 113.837 525.536 115.226 526.238 115.316C526.94 115.406 527.696 114.18 527.911 112.557C528.127 110.934 527.732 109.546 527.03 109.456C526.328 109.366 525.572 110.592 525.356 112.215Z" fill="#122A36"/>
<path d="M364.307 79.4756H463.635C466.437 79.4756 468.707 81.7719 468.707 84.5576V150.74C468.707 153.525 466.412 155.822 463.635 155.822H427.346L427.207 155.938L414.026 166.814L402.963 155.966L402.817 155.822H364.307C361.505 155.822 359.234 153.526 359.234 150.74V84.5576C359.235 81.7735 361.53 79.4756 364.307 79.4756Z" stroke="#00AFE3"/>
<path d="M414.859 108.765C414.859 96.1784 425.066 85.9531 437.629 85.9531C450.192 85.9531 460.399 96.1784 460.399 108.765C460.399 121.352 450.192 131.578 437.629 131.578C425.066 131.578 414.859 121.352 414.859 108.765ZM415.877 108.765C415.877 120.789 425.655 130.585 437.656 130.585C449.657 130.585 459.434 120.789 459.434 108.765C459.434 96.742 449.657 86.9461 437.656 86.9461C425.655 86.9461 415.877 96.742 415.877 108.765Z" fill="#00AFE3"/>
<path d="M373.362 131.766H405.561C408.695 131.766 411.267 129.19 411.267 126.05C411.267 122.909 408.695 120.333 405.561 120.333H373.362C370.228 120.333 367.656 122.909 367.656 126.05C367.656 129.19 370.228 131.766 373.362 131.766Z" fill="#00AFE3"/>
<path d="M380.595 86.9466H410.731C410.999 86.9466 411.24 86.7319 411.24 86.4367C411.24 86.1415 411.026 85.9268 410.731 85.9268H380.595C380.327 85.9268 380.086 86.1415 380.086 86.4367C380.086 86.7319 380.3 86.9466 380.595 86.9466Z" fill="#00AFE3"/>
<path d="M392.196 96.2054H410.734C411.001 96.2054 411.243 95.9907 411.243 95.6955C411.243 95.4002 411.028 95.1855 410.734 95.1855H392.196C391.929 95.1855 391.688 95.4002 391.688 95.6955C391.688 95.9907 391.902 96.2054 392.196 96.2054Z" fill="#00AFE3"/>
<path d="M387.103 143.602H410.756C411.024 143.602 411.265 143.387 411.265 143.092C411.265 142.797 411.051 142.582 410.756 142.582H387.103C386.835 142.582 386.594 142.797 386.594 143.092C386.594 143.387 386.808 143.602 387.103 143.602Z" fill="#00AFE3"/>
<path d="M429.531 104.848C429.531 98.9431 433.683 94.1123 438.8 94.1123C443.916 94.1123 448.068 98.9163 448.068 104.848C448.068 110.779 443.916 115.556 438.8 115.556C433.683 115.556 429.531 110.752 429.531 104.848ZM430.522 104.848C430.522 110.215 434.219 114.563 438.773 114.563C443.327 114.563 447.024 110.188 447.024 104.848C447.024 99.5067 443.327 95.1322 438.773 95.1322C434.219 95.1322 430.522 99.5067 430.522 104.848Z" fill="#00AFE3"/>
<path d="M452.867 125.513C452.867 125.513 452.974 125.513 453.055 125.486C453.322 125.379 453.456 125.111 453.349 124.842C453.188 124.413 449.277 114.08 445.072 111.799C444.831 111.665 444.509 111.745 444.402 112.014C444.268 112.255 444.375 112.551 444.616 112.685C448.527 114.778 452.412 125.084 452.438 125.191C452.519 125.406 452.706 125.513 452.894 125.513H452.867Z" fill="#00AFE3"/>
<path d="M423.558 126.559C423.799 126.559 424.014 126.371 424.041 126.13C425.46 114.912 432.264 111.986 432.345 111.959C432.613 111.852 432.72 111.557 432.613 111.315C432.505 111.047 432.211 110.94 431.97 111.047C431.675 111.181 424.55 114.187 423.049 126.023C423.023 126.291 423.21 126.559 423.478 126.586H423.532L423.558 126.559Z" fill="#00AFE3"/>
<path d="M534.693 113.332L530.266 125.341L534.045 125.774" stroke="#122A36" stroke-width="0.5" stroke-miterlimit="10" stroke-linecap="round"/>
</g>
<defs>
<linearGradient id="paint0_linear_2864_105" x1="311" y1="0" x2="311" y2="296.17" gradientUnits="userSpaceOnUse">
<stop stop-color="#E3F6FC"/>
<stop offset="1" stop-color="#24CDFF"/>
</linearGradient>
</defs>
</svg>
