<svg width="91" height="74" viewBox="0 0 91 74" fill="none" xmlns="http://www.w3.org/2000/svg">
<path d="M36.6673 63.946L36.5215 63.803H36.3172H4.97616H4.93226C2.68689 63.803 0.867188 61.9624 0.867188 59.7293V5.50529C0.867188 3.27384 2.70728 1.43164 4.93226 1.43164H86.3136C88.559 1.43164 90.3787 3.27227 90.3787 5.50529V59.7293C90.3787 61.9608 88.5386 63.803 86.3136 63.803H56.7284H56.5487L56.4101 63.9174L45.6737 72.7782L36.6673 63.946Z" stroke="#00AFE3"/>
<path d="M46.3438 25.3388C46.3438 15.0261 54.7057 6.64844 64.9991 6.64844C75.2925 6.64844 83.6545 15.0261 83.6545 25.3388C83.6545 35.6515 75.2925 44.0292 64.9991 44.0292C54.7057 44.0292 46.3438 35.6515 46.3438 25.3388ZM47.1777 25.3388C47.1777 35.1897 55.1886 43.2156 65.0211 43.2156C74.8535 43.2156 82.8644 35.1897 82.8644 25.3388C82.8644 15.4879 74.8535 7.46202 65.0211 7.46202C55.1886 7.46202 47.1777 15.4879 47.1777 25.3388Z" fill="#00AFE3"/>
<path d="M12.3389 44.1836H38.7198C41.2876 44.1836 43.3946 42.0727 43.3946 39.5C43.3946 36.9273 41.2876 34.8164 38.7198 34.8164H12.3389C9.77103 34.8164 7.66406 36.9273 7.66406 39.5C7.66406 42.0727 9.77103 44.1836 12.3389 44.1836Z" fill="#00AFE3"/>
<path d="M18.2647 7.46252H42.9556C43.1751 7.46252 43.3726 7.28661 43.3726 7.04473C43.3726 6.80286 43.197 6.62695 42.9556 6.62695H18.2647C18.0452 6.62695 17.8477 6.80286 17.8477 7.04473C17.8477 7.28661 18.0232 7.46252 18.2647 7.46252Z" fill="#00AFE3"/>
<path d="M27.7705 15.0485H42.9582C43.1777 15.0485 43.3752 14.8725 43.3752 14.6307C43.3752 14.3888 43.1996 14.2129 42.9582 14.2129H27.7705C27.551 14.2129 27.3535 14.3888 27.3535 14.6307C27.3535 14.8725 27.5291 15.0485 27.7705 15.0485Z" fill="#00AFE3"/>
<path d="M23.5967 53.8805H42.9763C43.1958 53.8805 43.3933 53.7046 43.3933 53.4627C43.3933 53.2208 43.2178 53.0449 42.9763 53.0449H23.5967C23.3772 53.0449 23.1797 53.2208 23.1797 53.4627C23.1797 53.7046 23.3553 53.8805 23.5967 53.8805Z" fill="#00AFE3"/>
<path d="M58.3672 22.1295C58.3672 17.2919 61.769 13.334 65.961 13.334C70.153 13.334 73.5549 17.27 73.5549 22.1295C73.5549 26.989 70.153 30.9029 65.961 30.9029C61.769 30.9029 58.3672 26.967 58.3672 22.1295ZM59.1793 22.1295C59.1793 26.5272 62.208 30.0894 65.9391 30.0894C69.6702 30.0894 72.6989 26.5052 72.6989 22.1295C72.6989 17.7537 69.6702 14.1696 65.9391 14.1696C62.208 14.1696 59.1793 17.7537 59.1793 22.1295Z" fill="#00AFE3"/>
<path d="M53.466 39.917C53.6635 39.917 53.8391 39.7631 53.861 39.5652C55.0242 30.3739 60.5989 27.9771 60.6647 27.9551C60.8842 27.8672 60.972 27.6253 60.8842 27.4274C60.7964 27.2075 60.555 27.1196 60.3575 27.2075C60.1161 27.3175 54.278 29.7802 53.049 39.4772C53.027 39.6971 53.1807 39.917 53.4001 39.939H53.444L53.466 39.917Z" fill="#00AFE3"/>
</svg>
