<svg width="17" height="17" viewBox="0 0 17 17" fill="none" xmlns="http://www.w3.org/2000/svg">
<path fill-rule="evenodd" clip-rule="evenodd" d="M6.18826 1.41891C7.56488 1.04513 9.02285 1.10084 10.3669 1.57858C11.711 2.05632 12.8771 2.93329 13.709 4.09207V2.70518C13.709 2.53113 13.7781 2.3642 13.9012 2.24113C14.0243 2.11806 14.1912 2.04892 14.3652 2.04892C14.5393 2.04892 14.7062 2.11806 14.8293 2.24113C14.9523 2.3642 15.0215 2.53113 15.0215 2.70518V6.42397H11.3027C11.1286 6.42397 10.9617 6.35483 10.8386 6.23176C10.7156 6.10868 10.6464 5.94176 10.6464 5.76771C10.6464 5.59366 10.7156 5.42674 10.8386 5.30367C10.9617 5.18059 11.1286 5.11145 11.3027 5.11145H12.8138C12.1284 4.03912 11.1031 3.22766 9.90203 2.80688C8.70092 2.3861 7.3934 2.38033 6.18862 2.79048C4.98385 3.20064 3.95145 4.00302 3.25658 5.06926C2.56172 6.1355 2.24454 7.40399 2.3558 8.67179C2.46706 9.9396 3.00031 11.1335 3.87026 12.0624C4.74021 12.9913 5.89658 13.6016 7.15438 13.7957C8.41217 13.9897 9.69871 13.7563 10.8082 13.1328C11.9176 12.5092 12.7859 11.5316 13.2741 10.3563C13.3058 10.2748 13.3534 10.2004 13.4142 10.1376C13.4751 10.0748 13.5478 10.0248 13.6282 9.99049C13.7087 9.95619 13.7951 9.9383 13.8825 9.93788C13.97 9.93745 14.0566 9.9545 14.1374 9.98803C14.2181 10.0216 14.2913 10.0709 14.3528 10.1331C14.4142 10.1953 14.4625 10.2692 14.495 10.3504C14.5275 10.4315 14.5434 10.5184 14.5419 10.6058C14.5403 10.6932 14.5213 10.7794 14.486 10.8594C14.0299 11.9571 13.3019 12.9206 12.3704 13.6591C11.4389 14.3976 10.3347 14.8867 9.16191 15.0804C7.98909 15.274 6.78628 15.1658 5.66686 14.7659C4.54744 14.3661 3.54828 13.6877 2.76356 12.7949C1.97885 11.902 1.43443 10.824 1.18162 9.66252C0.92882 8.50102 0.975958 7.29427 1.31859 6.15603C1.66123 5.01779 2.28808 3.98555 3.14005 3.15662C3.99202 2.32768 5.04105 1.73023 6.18826 1.41891Z" fill="white"/>
</svg>
