<svg width="622" height="297" viewBox="0 0 622 297" fill="none" xmlns="http://www.w3.org/2000/svg">
<rect width="622" height="296.17" fill="url(#paint0_linear_2864_153)"/>
<path d="M67.2866 63.5293H62.3866L51.2916 46.7643V63.5293H46.3916V39.0643H51.2916L62.3866 55.8643V39.0643H67.2866V63.5293ZM80.7389 63.8443C78.8722 63.8443 77.1922 63.436 75.6989 62.6193C74.2055 61.7793 73.0272 60.601 72.1639 59.0843C71.3239 57.5676 70.9039 55.8176 70.9039 53.8343C70.9039 51.851 71.3355 50.101 72.1989 48.5843C73.0855 47.0676 74.2872 45.901 75.8039 45.0843C77.3205 44.2443 79.0122 43.8243 80.8789 43.8243C82.7455 43.8243 84.4372 44.2443 85.9539 45.0843C87.4705 45.901 88.6605 47.0676 89.5239 48.5843C90.4105 50.101 90.8539 51.851 90.8539 53.8343C90.8539 55.8176 90.3989 57.5676 89.4889 59.0843C88.6022 60.601 87.3889 61.7793 85.8489 62.6193C84.3322 63.436 82.6289 63.8443 80.7389 63.8443ZM80.7389 59.5743C81.6255 59.5743 82.4539 59.3643 83.2239 58.9443C84.0172 58.501 84.6472 57.8476 85.1139 56.9843C85.5805 56.121 85.8139 55.071 85.8139 53.8343C85.8139 51.991 85.3239 50.5793 84.3439 49.5993C83.3872 48.596 82.2089 48.0943 80.8089 48.0943C79.4089 48.0943 78.2305 48.596 77.2739 49.5993C76.3405 50.5793 75.8739 51.991 75.8739 53.8343C75.8739 55.6776 76.3289 57.101 77.2389 58.1043C78.1722 59.0843 79.3389 59.5743 80.7389 59.5743ZM123.053 39.0993V63.5293H118.153V53.1343H107.688V63.5293H102.788V39.0993H107.688V49.1443H118.153V39.0993H123.053ZM130.361 41.8293C129.498 41.8293 128.774 41.561 128.191 41.0243C127.631 40.4643 127.351 39.776 127.351 38.9593C127.351 38.1426 127.631 37.466 128.191 36.9293C128.774 36.3693 129.498 36.0893 130.361 36.0893C131.224 36.0893 131.936 36.3693 132.496 36.9293C133.079 37.466 133.371 38.1426 133.371 38.9593C133.371 39.776 133.079 40.4643 132.496 41.0243C131.936 41.561 131.224 41.8293 130.361 41.8293ZM132.776 44.1393V63.5293H127.876V44.1393H132.776ZM142.517 47.1493C143.147 46.1226 143.964 45.3176 144.967 44.7343C145.994 44.151 147.16 43.8593 148.467 43.8593V49.0043H147.172C145.632 49.0043 144.465 49.366 143.672 50.0893C142.902 50.8126 142.517 52.0726 142.517 53.8693V63.5293H137.617V44.1393H142.517V47.1493ZM169.793 53.4143C169.793 54.1143 169.746 54.7443 169.653 55.3043H155.478C155.594 56.7043 156.084 57.801 156.948 58.5943C157.811 59.3876 158.873 59.7843 160.133 59.7843C161.953 59.7843 163.248 59.0026 164.018 57.4393H169.303C168.743 59.306 167.669 60.846 166.083 62.0593C164.496 63.2493 162.548 63.8443 160.238 63.8443C158.371 63.8443 156.691 63.436 155.198 62.6193C153.728 61.7793 152.573 60.601 151.733 59.0843C150.916 57.5676 150.508 55.8176 150.508 53.8343C150.508 51.8276 150.916 50.066 151.733 48.5493C152.549 47.0326 153.693 45.866 155.163 45.0493C156.633 44.2326 158.324 43.8243 160.238 43.8243C162.081 43.8243 163.726 44.221 165.173 45.0143C166.643 45.8076 167.774 46.9393 168.568 48.4093C169.384 49.856 169.793 51.5243 169.793 53.4143ZM164.718 52.0143C164.694 50.7543 164.239 49.751 163.353 49.0043C162.466 48.2343 161.381 47.8493 160.098 47.8493C158.884 47.8493 157.858 48.2226 157.018 48.9693C156.201 49.6926 155.699 50.7076 155.513 52.0143H164.718ZM180.194 38.2593C182.621 38.2593 184.569 38.9243 186.039 40.2543C187.532 41.561 188.279 43.3693 188.279 45.6793C188.279 47.966 187.544 49.716 186.074 50.9293C184.604 52.1193 182.656 52.7143 180.229 52.7143L180.089 55.4093H175.784L175.609 49.4593H177.184C179.214 49.4593 180.777 49.191 181.874 48.6543C182.971 48.1176 183.519 47.1376 183.519 45.7143C183.519 44.6876 183.216 43.871 182.609 43.2643C182.026 42.6576 181.221 42.3543 180.194 42.3543C179.121 42.3543 178.281 42.646 177.674 43.2293C177.091 43.8126 176.799 44.6176 176.799 45.6443H172.179C172.156 44.221 172.459 42.9493 173.089 41.8293C173.719 40.7093 174.641 39.8343 175.854 39.2043C177.091 38.5743 178.537 38.2593 180.194 38.2593ZM177.919 63.7743C177.032 63.7743 176.297 63.506 175.714 62.9693C175.154 62.4093 174.874 61.721 174.874 60.9043C174.874 60.0876 175.154 59.411 175.714 58.8743C176.297 58.3143 177.032 58.0343 177.919 58.0343C178.782 58.0343 179.494 58.3143 180.054 58.8743C180.614 59.411 180.894 60.0876 180.894 60.9043C180.894 61.721 180.614 62.4093 180.054 62.9693C179.494 63.506 178.782 63.7743 177.919 63.7743ZM233.197 39.0993L226.372 63.5293H220.597L216.012 46.1343L211.217 63.5293L205.477 63.5643L198.897 39.0993H204.147L208.452 58.0693L213.422 39.0993H218.882L223.572 57.9643L227.912 39.0993H233.197ZM254.421 53.4143C254.421 54.1143 254.375 54.7443 254.281 55.3043H240.106C240.223 56.7043 240.713 57.801 241.576 58.5943C242.44 59.3876 243.501 59.7843 244.761 59.7843C246.581 59.7843 247.876 59.0026 248.646 57.4393H253.931C253.371 59.306 252.298 60.846 250.711 62.0593C249.125 63.2493 247.176 63.8443 244.866 63.8443C243 63.8443 241.32 63.436 239.826 62.6193C238.356 61.7793 237.201 60.601 236.361 59.0843C235.545 57.5676 235.136 55.8176 235.136 53.8343C235.136 51.8276 235.545 50.066 236.361 48.5493C237.178 47.0326 238.321 45.866 239.791 45.0493C241.261 44.2326 242.953 43.8243 244.866 43.8243C246.71 43.8243 248.355 44.221 249.801 45.0143C251.271 45.8076 252.403 46.9393 253.196 48.4093C254.013 49.856 254.421 51.5243 254.421 53.4143ZM249.346 52.0143C249.323 50.7543 248.868 49.751 247.981 49.0043C247.095 48.2343 246.01 47.8493 244.726 47.8493C243.513 47.8493 242.486 48.2226 241.646 48.9693C240.83 49.6926 240.328 50.7076 240.141 52.0143H249.346ZM261.078 35.5993L260.658 43.0193H257.333L256.878 35.5993H261.078ZM269.734 37.6293V63.5293H264.834V37.6293H269.734ZM279.475 37.6293V63.5293H274.575V37.6293H279.475ZM297.556 47.1493C298.186 46.1226 299.003 45.3176 300.006 44.7343C301.033 44.151 302.2 43.8593 303.506 43.8593V49.0043H302.211C300.671 49.0043 299.505 49.366 298.711 50.0893C297.941 50.8126 297.556 52.0726 297.556 53.8693V63.5293H292.656V44.1393H297.556V47.1493ZM324.832 53.4143C324.832 54.1143 324.785 54.7443 324.692 55.3043H310.517C310.633 56.7043 311.123 57.801 311.987 58.5943C312.85 59.3876 313.912 59.7843 315.172 59.7843C316.992 59.7843 318.287 59.0026 319.057 57.4393H324.342C323.782 59.306 322.708 60.846 321.122 62.0593C319.535 63.2493 317.587 63.8443 315.277 63.8443C313.41 63.8443 311.73 63.436 310.237 62.6193C308.767 61.7793 307.612 60.601 306.772 59.0843C305.955 57.5676 305.547 55.8176 305.547 53.8343C305.547 51.8276 305.955 50.066 306.772 48.5493C307.588 47.0326 308.732 45.866 310.202 45.0493C311.672 44.2326 313.363 43.8243 315.277 43.8243C317.12 43.8243 318.765 44.221 320.212 45.0143C321.682 45.8076 322.813 46.9393 323.607 48.4093C324.423 49.856 324.832 51.5243 324.832 53.4143ZM319.757 52.0143C319.733 50.7543 319.278 49.751 318.392 49.0043C317.505 48.2343 316.42 47.8493 315.137 47.8493C313.923 47.8493 312.897 48.2226 312.057 48.9693C311.24 49.6926 310.738 50.7076 310.552 52.0143H319.757ZM337.298 48.1643H333.903V63.5293H328.933V48.1643H326.728V44.1393H328.933V43.1593C328.933 40.7793 329.61 39.0293 330.963 37.9093C332.316 36.7893 334.358 36.2643 337.088 36.3343V40.4643C335.898 40.441 335.07 40.6393 334.603 41.0593C334.136 41.4793 333.903 42.2376 333.903 43.3343V44.1393H337.298V48.1643ZM358.779 44.1393V63.5293H353.844V61.0793C353.214 61.9193 352.385 62.5843 351.359 63.0743C350.355 63.541 349.259 63.7743 348.069 63.7743C346.552 63.7743 345.21 63.4593 344.044 62.8293C342.877 62.176 341.955 61.231 341.279 59.9943C340.625 58.7343 340.299 57.241 340.299 55.5143V44.1393H345.199V54.8143C345.199 56.3543 345.584 57.5443 346.354 58.3843C347.124 59.201 348.174 59.6093 349.504 59.6093C350.857 59.6093 351.919 59.201 352.689 58.3843C353.459 57.5443 353.844 56.3543 353.844 54.8143V44.1393H358.779ZM374.358 43.8593C376.668 43.8593 378.535 44.5943 379.958 46.0643C381.382 47.511 382.093 49.541 382.093 52.1543V63.5293H377.193V52.8193C377.193 51.2793 376.808 50.101 376.038 49.2843C375.268 48.4443 374.218 48.0243 372.888 48.0243C371.535 48.0243 370.462 48.4443 369.668 49.2843C368.898 50.101 368.513 51.2793 368.513 52.8193V63.5293H363.613V44.1393H368.513V46.5543C369.167 45.7143 369.995 45.061 370.998 44.5943C372.025 44.1043 373.145 43.8593 374.358 43.8593ZM385.493 53.7643C385.493 51.8043 385.878 50.066 386.648 48.5493C387.441 47.0326 388.515 45.866 389.868 45.0493C391.221 44.2326 392.726 43.8243 394.383 43.8243C395.643 43.8243 396.845 44.1043 397.988 44.6643C399.131 45.201 400.041 45.9243 400.718 46.8343V37.6293H405.688V63.5293H400.718V60.6593C400.111 61.616 399.26 62.386 398.163 62.9693C397.066 63.5526 395.795 63.8443 394.348 63.8443C392.715 63.8443 391.221 63.4243 389.868 62.5843C388.515 61.7443 387.441 60.566 386.648 59.0493C385.878 57.5093 385.493 55.7476 385.493 53.7643ZM400.753 53.8343C400.753 52.6443 400.52 51.6293 400.053 50.7893C399.586 49.926 398.956 49.2726 398.163 48.8293C397.37 48.3626 396.518 48.1293 395.608 48.1293C394.698 48.1293 393.858 48.351 393.088 48.7943C392.318 49.2376 391.688 49.891 391.198 50.7543C390.731 51.5943 390.498 52.5976 390.498 53.7643C390.498 54.931 390.731 55.9576 391.198 56.8443C391.688 57.7076 392.318 58.3726 393.088 58.8393C393.881 59.306 394.721 59.5393 395.608 59.5393C396.518 59.5393 397.37 59.3176 398.163 58.8743C398.956 58.4076 399.586 57.7543 400.053 56.9143C400.52 56.051 400.753 55.0243 400.753 53.8343ZM437.363 44.1393L425.358 72.6993H420.143L424.343 63.0393L416.573 44.1393H422.068L427.073 57.6843L432.148 44.1393H437.363ZM448.615 63.8443C446.748 63.8443 445.068 63.436 443.575 62.6193C442.082 61.7793 440.903 60.601 440.04 59.0843C439.2 57.5676 438.78 55.8176 438.78 53.8343C438.78 51.851 439.212 50.101 440.075 48.5843C440.962 47.0676 442.163 45.901 443.68 45.0843C445.197 44.2443 446.888 43.8243 448.755 43.8243C450.622 43.8243 452.313 44.2443 453.83 45.0843C455.347 45.901 456.537 47.0676 457.4 48.5843C458.287 50.101 458.73 51.851 458.73 53.8343C458.73 55.8176 458.275 57.5676 457.365 59.0843C456.478 60.601 455.265 61.7793 453.725 62.6193C452.208 63.436 450.505 63.8443 448.615 63.8443ZM448.615 59.5743C449.502 59.5743 450.33 59.3643 451.1 58.9443C451.893 58.501 452.523 57.8476 452.99 56.9843C453.457 56.121 453.69 55.071 453.69 53.8343C453.69 51.991 453.2 50.5793 452.22 49.5993C451.263 48.596 450.085 48.0943 448.685 48.0943C447.285 48.0943 446.107 48.596 445.15 49.5993C444.217 50.5793 443.75 51.991 443.75 53.8343C443.75 55.6776 444.205 57.101 445.115 58.1043C446.048 59.0843 447.215 59.5743 448.615 59.5743ZM480.629 44.1393V63.5293H475.694V61.0793C475.064 61.9193 474.236 62.5843 473.209 63.0743C472.206 63.541 471.109 63.7743 469.919 63.7743C468.403 63.7743 467.061 63.4593 465.894 62.8293C464.728 62.176 463.806 61.231 463.129 59.9943C462.476 58.7343 462.149 57.241 462.149 55.5143V44.1393H467.049V54.8143C467.049 56.3543 467.434 57.5443 468.204 58.3843C468.974 59.201 470.024 59.6093 471.354 59.6093C472.708 59.6093 473.769 59.201 474.539 58.3843C475.309 57.5443 475.694 56.3543 475.694 54.8143V44.1393H480.629ZM490.364 47.1493C490.994 46.1226 491.81 45.3176 492.814 44.7343C493.84 44.151 495.007 43.8593 496.314 43.8593V49.0043H495.019C493.479 49.0043 492.312 49.366 491.519 50.0893C490.749 50.8126 490.364 52.0726 490.364 53.8693V63.5293H485.464V44.1393H490.364V47.1493ZM45.1316 106.834C45.1316 104.828 45.5399 103.078 46.3566 101.584C47.1732 100.068 48.3049 98.901 49.7516 98.0843C51.1982 97.2443 52.8549 96.8243 54.7216 96.8243C57.1249 96.8243 59.1082 97.431 60.6716 98.6443C62.2582 99.8343 63.3199 101.514 63.8566 103.684H58.5716C58.2916 102.844 57.8132 102.191 57.1366 101.724C56.4832 101.234 55.6666 100.989 54.6866 100.989C53.2866 100.989 52.1782 101.503 51.3616 102.529C50.5449 103.533 50.1366 104.968 50.1366 106.834C50.1366 108.678 50.5449 110.113 51.3616 111.139C52.1782 112.143 53.2866 112.644 54.6866 112.644C56.6699 112.644 57.9649 111.758 58.5716 109.984H63.8566C63.3199 112.084 62.2582 113.753 60.6716 114.989C59.0849 116.226 57.1016 116.844 54.7216 116.844C52.8549 116.844 51.1982 116.436 49.7516 115.619C48.3049 114.779 47.1732 113.613 46.3566 112.119C45.5399 110.603 45.1316 108.841 45.1316 106.834ZM72.3463 100.149C72.9763 99.1226 73.7929 98.3176 74.7963 97.7343C75.8229 97.151 76.9896 96.8593 78.2963 96.8593V102.004H77.0013C75.4613 102.004 74.2946 102.366 73.5013 103.089C72.7313 103.813 72.3463 105.073 72.3463 106.869V116.529H67.4463V97.1393H72.3463V100.149ZM99.6216 106.414C99.6216 107.114 99.575 107.744 99.4816 108.304H85.3066C85.4233 109.704 85.9133 110.801 86.7766 111.594C87.64 112.388 88.7016 112.784 89.9616 112.784C91.7816 112.784 93.0766 112.003 93.8466 110.439H99.1316C98.5716 112.306 97.4983 113.846 95.9116 115.059C94.325 116.249 92.3766 116.844 90.0666 116.844C88.2 116.844 86.52 116.436 85.0266 115.619C83.5566 114.779 82.4016 113.601 81.5616 112.084C80.745 110.568 80.3366 108.818 80.3366 106.834C80.3366 104.828 80.745 103.066 81.5616 101.549C82.3783 100.033 83.5216 98.866 84.9916 98.0493C86.4616 97.2326 88.1533 96.8243 90.0666 96.8243C91.91 96.8243 93.555 97.221 95.0016 98.0143C96.4716 98.8076 97.6033 99.9393 98.3966 101.409C99.2133 102.856 99.6216 104.524 99.6216 106.414ZM94.5466 105.014C94.5233 103.754 94.0683 102.751 93.1816 102.004C92.295 101.234 91.21 100.849 89.9266 100.849C88.7133 100.849 87.6866 101.223 86.8466 101.969C86.03 102.693 85.5283 103.708 85.3416 105.014H94.5466ZM101.938 106.764C101.938 104.804 102.323 103.066 103.093 101.549C103.887 100.033 104.96 98.866 106.313 98.0493C107.667 97.2326 109.172 96.8243 110.828 96.8243C112.088 96.8243 113.29 97.1043 114.433 97.6643C115.577 98.201 116.487 98.9243 117.163 99.8343V90.6293H122.133V116.529H117.163V113.659C116.557 114.616 115.705 115.386 114.608 115.969C113.512 116.553 112.24 116.844 110.793 116.844C109.16 116.844 107.667 116.424 106.313 115.584C104.96 114.744 103.887 113.566 103.093 112.049C102.323 110.509 101.938 108.748 101.938 106.764ZM117.198 106.834C117.198 105.644 116.965 104.629 116.498 103.789C116.032 102.926 115.402 102.273 114.608 101.829C113.815 101.363 112.963 101.129 112.053 101.129C111.143 101.129 110.303 101.351 109.533 101.794C108.763 102.238 108.133 102.891 107.643 103.754C107.177 104.594 106.943 105.598 106.943 106.764C106.943 107.931 107.177 108.958 107.643 109.844C108.133 110.708 108.763 111.373 109.533 111.839C110.327 112.306 111.167 112.539 112.053 112.539C112.963 112.539 113.815 112.318 114.608 111.874C115.402 111.408 116.032 110.754 116.498 109.914C116.965 109.051 117.198 108.024 117.198 106.834ZM129.404 94.8293C128.541 94.8293 127.817 94.561 127.234 94.0243C126.674 93.4643 126.394 92.776 126.394 91.9593C126.394 91.1426 126.674 90.466 127.234 89.9293C127.817 89.3693 128.541 89.0893 129.404 89.0893C130.267 89.0893 130.979 89.3693 131.539 89.9293C132.122 90.466 132.414 91.1426 132.414 91.9593C132.414 92.776 132.122 93.4643 131.539 94.0243C130.979 94.561 130.267 94.8293 129.404 94.8293ZM131.819 97.1393V116.529H126.919V97.1393H131.819ZM142.365 101.164V110.544C142.365 111.198 142.517 111.676 142.82 111.979C143.147 112.259 143.683 112.399 144.43 112.399H146.705V116.529H143.625C139.495 116.529 137.43 114.523 137.43 110.509V101.164H135.12V97.1393H137.43V92.3443H142.365V97.1393H146.705V101.164H142.365ZM157.649 116.844C156.063 116.844 154.639 116.564 153.379 116.004C152.119 115.421 151.116 114.639 150.369 113.659C149.646 112.679 149.249 111.594 149.179 110.404H154.114C154.208 111.151 154.569 111.769 155.199 112.259C155.853 112.749 156.658 112.994 157.614 112.994C158.548 112.994 159.271 112.808 159.784 112.434C160.321 112.061 160.589 111.583 160.589 110.999C160.589 110.369 160.263 109.903 159.609 109.599C158.979 109.273 157.964 108.923 156.564 108.549C155.118 108.199 153.928 107.838 152.994 107.464C152.084 107.091 151.291 106.519 150.614 105.749C149.961 104.979 149.634 103.941 149.634 102.634C149.634 101.561 149.938 100.581 150.544 99.6943C151.174 98.8076 152.061 98.1076 153.204 97.5943C154.371 97.081 155.736 96.8243 157.299 96.8243C159.609 96.8243 161.453 97.4076 162.829 98.5743C164.206 99.7176 164.964 101.269 165.104 103.229H160.414C160.344 102.459 160.018 101.853 159.434 101.409C158.874 100.943 158.116 100.709 157.159 100.709C156.273 100.709 155.584 100.873 155.094 101.199C154.628 101.526 154.394 101.981 154.394 102.564C154.394 103.218 154.721 103.719 155.374 104.069C156.028 104.396 157.043 104.734 158.419 105.084C159.819 105.434 160.974 105.796 161.884 106.169C162.794 106.543 163.576 107.126 164.229 107.919C164.906 108.689 165.256 109.716 165.279 110.999C165.279 112.119 164.964 113.123 164.334 114.009C163.728 114.896 162.841 115.596 161.674 116.109C160.531 116.599 159.189 116.844 157.649 116.844Z" fill="black"/>
<path d="M54.1466 145.209L50.0606 153.021V157.755H48.4226V153.021L44.3186 145.209H46.1366L49.2326 151.563L52.3286 145.209H54.1466ZM60.1763 157.917C59.2523 157.917 58.4123 157.707 57.6563 157.287C56.9123 156.867 56.3243 156.273 55.8923 155.505C55.4723 154.725 55.2623 153.825 55.2623 152.805C55.2623 151.797 55.4783 150.909 55.9103 150.141C56.3543 149.361 56.9543 148.767 57.7103 148.359C58.4663 147.939 59.3123 147.729 60.2483 147.729C61.1843 147.729 62.0303 147.939 62.7863 148.359C63.5423 148.767 64.1363 149.355 64.5683 150.123C65.0123 150.891 65.2343 151.785 65.2343 152.805C65.2343 153.825 65.0063 154.725 64.5503 155.505C64.1063 156.273 63.5003 156.867 62.7323 157.287C61.9643 157.707 61.1123 157.917 60.1763 157.917ZM60.1763 156.477C60.7643 156.477 61.3163 156.339 61.8323 156.063C62.3483 155.787 62.7623 155.373 63.0743 154.821C63.3983 154.269 63.5603 153.597 63.5603 152.805C63.5603 152.013 63.4043 151.341 63.0923 150.789C62.7803 150.237 62.3723 149.829 61.8683 149.565C61.3643 149.289 60.8183 149.151 60.2303 149.151C59.6303 149.151 59.0783 149.289 58.5743 149.565C58.0823 149.829 57.6863 150.237 57.3863 150.789C57.0863 151.341 56.9363 152.013 56.9363 152.805C56.9363 153.609 57.0803 154.287 57.3683 154.839C57.6683 155.391 58.0643 155.805 58.5563 156.081C59.0483 156.345 59.5883 156.477 60.1763 156.477ZM76.136 147.891V157.755H74.498V156.297C74.186 156.801 73.748 157.197 73.184 157.485C72.632 157.761 72.02 157.899 71.348 157.899C70.58 157.899 69.89 157.743 69.278 157.431C68.666 157.107 68.18 156.627 67.82 155.991C67.472 155.355 67.298 154.581 67.298 153.669V147.891H68.918V153.453C68.918 154.425 69.164 155.175 69.656 155.703C70.148 156.219 70.82 156.477 71.672 156.477C72.548 156.477 73.238 156.207 73.742 155.667C74.246 155.127 74.498 154.341 74.498 153.309V147.891H76.136ZM80.5396 149.493C80.8276 148.929 81.2356 148.491 81.7636 148.179C82.3036 147.867 82.9576 147.711 83.7256 147.711V149.403H83.2936C81.4576 149.403 80.5396 150.399 80.5396 152.391V157.755H78.9016V147.891H80.5396V149.493ZM94.4293 149.241H92.3593V157.755H90.7213V149.241H89.4433V147.891H90.7213V147.189C90.7213 146.085 91.0033 145.281 91.5673 144.777C92.1433 144.261 93.0613 144.003 94.3213 144.003V145.371C93.6013 145.371 93.0913 145.515 92.7913 145.803C92.5033 146.079 92.3593 146.541 92.3593 147.189V147.891H94.4293V149.241ZM97.1851 146.289C96.8731 146.289 96.6091 146.181 96.3931 145.965C96.1771 145.749 96.0691 145.485 96.0691 145.173C96.0691 144.861 96.1771 144.597 96.3931 144.381C96.6091 144.165 96.8731 144.057 97.1851 144.057C97.4851 144.057 97.7371 144.165 97.9411 144.381C98.1571 144.597 98.2651 144.861 98.2651 145.173C98.2651 145.485 98.1571 145.749 97.9411 145.965C97.7371 146.181 97.4851 146.289 97.1851 146.289ZM97.9771 147.891V157.755H96.3391V147.891H97.9771ZM102.407 149.493C102.695 148.929 103.103 148.491 103.631 148.179C104.171 147.867 104.825 147.711 105.593 147.711V149.403H105.161C103.325 149.403 102.407 150.399 102.407 152.391V157.755H100.769V147.891H102.407V149.493ZM110.976 157.917C110.22 157.917 109.542 157.791 108.942 157.539C108.342 157.275 107.868 156.915 107.52 156.459C107.172 155.991 106.98 155.457 106.944 154.857H108.636C108.684 155.349 108.912 155.751 109.32 156.063C109.74 156.375 110.286 156.531 110.958 156.531C111.582 156.531 112.074 156.393 112.434 156.117C112.794 155.841 112.974 155.493 112.974 155.073C112.974 154.641 112.782 154.323 112.398 154.119C112.014 153.903 111.42 153.693 110.616 153.489C109.884 153.297 109.284 153.105 108.816 152.913C108.36 152.709 107.964 152.415 107.628 152.031C107.304 151.635 107.142 151.119 107.142 150.483C107.142 149.979 107.292 149.517 107.592 149.097C107.892 148.677 108.318 148.347 108.87 148.107C109.422 147.855 110.052 147.729 110.76 147.729C111.852 147.729 112.734 148.005 113.406 148.557C114.078 149.109 114.438 149.865 114.486 150.825H112.848C112.812 150.309 112.602 149.895 112.218 149.583C111.846 149.271 111.342 149.115 110.706 149.115C110.118 149.115 109.65 149.241 109.302 149.493C108.954 149.745 108.78 150.075 108.78 150.483C108.78 150.807 108.882 151.077 109.086 151.293C109.302 151.497 109.566 151.665 109.878 151.797C110.202 151.917 110.646 152.055 111.21 152.211C111.918 152.403 112.494 152.595 112.938 152.787C113.382 152.967 113.76 153.243 114.072 153.615C114.396 153.987 114.564 154.473 114.576 155.073C114.576 155.613 114.426 156.099 114.126 156.531C113.826 156.963 113.4 157.305 112.848 157.557C112.308 157.797 111.684 157.917 110.976 157.917ZM118.886 149.241V155.055C118.886 155.535 118.988 155.877 119.192 156.081C119.396 156.273 119.75 156.369 120.254 156.369H121.46V157.755H119.984C119.072 157.755 118.388 157.545 117.932 157.125C117.476 156.705 117.248 156.015 117.248 155.055V149.241H115.97V147.891H117.248V145.407H118.886V147.891H121.46V149.241H118.886ZM129.881 149.709C130.205 149.145 130.685 148.677 131.321 148.305C131.969 147.921 132.719 147.729 133.571 147.729C134.447 147.729 135.239 147.939 135.947 148.359C136.667 148.779 137.231 149.373 137.639 150.141C138.047 150.897 138.251 151.779 138.251 152.787C138.251 153.783 138.047 154.671 137.639 155.451C137.231 156.231 136.667 156.837 135.947 157.269C135.239 157.701 134.447 157.917 133.571 157.917C132.731 157.917 131.987 157.731 131.339 157.359C130.703 156.975 130.217 156.501 129.881 155.937V162.435H128.243V147.891H129.881V149.709ZM136.577 152.787C136.577 152.043 136.427 151.395 136.127 150.843C135.827 150.291 135.419 149.871 134.903 149.583C134.399 149.295 133.841 149.151 133.229 149.151C132.629 149.151 132.071 149.301 131.555 149.601C131.051 149.889 130.643 150.315 130.331 150.879C130.031 151.431 129.881 152.073 129.881 152.805C129.881 153.549 130.031 154.203 130.331 154.767C130.643 155.319 131.051 155.745 131.555 156.045C132.071 156.333 132.629 156.477 133.229 156.477C133.841 156.477 134.399 156.333 134.903 156.045C135.419 155.745 135.827 155.319 136.127 154.767C136.427 154.203 136.577 153.543 136.577 152.787ZM139.795 152.787C139.795 151.779 139.999 150.897 140.407 150.141C140.815 149.373 141.373 148.779 142.081 148.359C142.801 147.939 143.599 147.729 144.475 147.729C145.339 147.729 146.089 147.915 146.725 148.287C147.361 148.659 147.835 149.127 148.147 149.691V147.891H149.803V157.755H148.147V155.919C147.823 156.495 147.337 156.975 146.689 157.359C146.053 157.731 145.309 157.917 144.457 157.917C143.581 157.917 142.789 157.701 142.081 157.269C141.373 156.837 140.815 156.231 140.407 155.451C139.999 154.671 139.795 153.783 139.795 152.787ZM148.147 152.805C148.147 152.061 147.997 151.413 147.697 150.861C147.397 150.309 146.989 149.889 146.473 149.601C145.969 149.301 145.411 149.151 144.799 149.151C144.187 149.151 143.629 149.295 143.125 149.583C142.621 149.871 142.219 150.291 141.919 150.843C141.619 151.395 141.469 152.043 141.469 152.787C141.469 153.543 141.619 154.203 141.919 154.767C142.219 155.319 142.621 155.745 143.125 156.045C143.629 156.333 144.187 156.477 144.799 156.477C145.411 156.477 145.969 156.333 146.473 156.045C146.989 155.745 147.397 155.319 147.697 154.767C147.997 154.203 148.147 153.549 148.147 152.805ZM151.96 152.805C151.96 151.785 152.164 150.897 152.572 150.141C152.98 149.373 153.544 148.779 154.264 148.359C154.996 147.939 155.83 147.729 156.766 147.729C157.978 147.729 158.974 148.023 159.754 148.611C160.546 149.199 161.068 150.015 161.32 151.059H159.556C159.388 150.459 159.058 149.985 158.566 149.637C158.086 149.289 157.486 149.115 156.766 149.115C155.83 149.115 155.074 149.439 154.498 150.087C153.922 150.723 153.634 151.629 153.634 152.805C153.634 153.993 153.922 154.911 154.498 155.559C155.074 156.207 155.83 156.531 156.766 156.531C157.486 156.531 158.086 156.363 158.566 156.027C159.046 155.691 159.376 155.211 159.556 154.587H161.32C161.056 155.595 160.528 156.405 159.736 157.017C158.944 157.617 157.954 157.917 156.766 157.917C155.83 157.917 154.996 157.707 154.264 157.287C153.544 156.867 152.98 156.273 152.572 155.505C152.164 154.737 151.96 153.837 151.96 152.805ZM169.013 157.755L165.143 153.399V157.755H163.505V144.435H165.143V152.265L168.941 147.891H171.227L166.583 152.805L171.245 157.755H169.013ZM178.414 146.289C178.102 146.289 177.838 146.181 177.622 145.965C177.406 145.749 177.298 145.485 177.298 145.173C177.298 144.861 177.406 144.597 177.622 144.381C177.838 144.165 178.102 144.057 178.414 144.057C178.714 144.057 178.966 144.165 179.17 144.381C179.386 144.597 179.494 144.861 179.494 145.173C179.494 145.485 179.386 145.749 179.17 145.965C178.966 146.181 178.714 146.289 178.414 146.289ZM179.206 147.891V157.755H177.568V147.891H179.206ZM185.489 157.917C184.733 157.917 184.055 157.791 183.455 157.539C182.855 157.275 182.381 156.915 182.033 156.459C181.685 155.991 181.493 155.457 181.457 154.857H183.149C183.197 155.349 183.425 155.751 183.833 156.063C184.253 156.375 184.799 156.531 185.471 156.531C186.095 156.531 186.587 156.393 186.947 156.117C187.307 155.841 187.487 155.493 187.487 155.073C187.487 154.641 187.295 154.323 186.911 154.119C186.527 153.903 185.933 153.693 185.129 153.489C184.397 153.297 183.797 153.105 183.329 152.913C182.873 152.709 182.477 152.415 182.141 152.031C181.817 151.635 181.655 151.119 181.655 150.483C181.655 149.979 181.805 149.517 182.105 149.097C182.405 148.677 182.831 148.347 183.383 148.107C183.935 147.855 184.565 147.729 185.273 147.729C186.365 147.729 187.247 148.005 187.919 148.557C188.591 149.109 188.951 149.865 188.999 150.825H187.361C187.325 150.309 187.115 149.895 186.731 149.583C186.359 149.271 185.855 149.115 185.219 149.115C184.631 149.115 184.163 149.241 183.815 149.493C183.467 149.745 183.293 150.075 183.293 150.483C183.293 150.807 183.395 151.077 183.599 151.293C183.815 151.497 184.079 151.665 184.391 151.797C184.715 151.917 185.159 152.055 185.723 152.211C186.431 152.403 187.007 152.595 187.451 152.787C187.895 152.967 188.273 153.243 188.585 153.615C188.909 153.987 189.077 154.473 189.089 155.073C189.089 155.613 188.939 156.099 188.639 156.531C188.339 156.963 187.913 157.305 187.361 157.557C186.821 157.797 186.197 157.917 185.489 157.917ZM197.838 149.727C198.174 149.139 198.666 148.659 199.314 148.287C199.962 147.915 200.7 147.729 201.528 147.729C202.416 147.729 203.214 147.939 203.922 148.359C204.63 148.779 205.188 149.373 205.596 150.141C206.004 150.897 206.208 151.779 206.208 152.787C206.208 153.783 206.004 154.671 205.596 155.451C205.188 156.231 204.624 156.837 203.904 157.269C203.196 157.701 202.404 157.917 201.528 157.917C200.676 157.917 199.926 157.731 199.278 157.359C198.642 156.987 198.162 156.513 197.838 155.937V157.755H196.2V144.435H197.838V149.727ZM204.534 152.787C204.534 152.043 204.384 151.395 204.084 150.843C203.784 150.291 203.376 149.871 202.86 149.583C202.356 149.295 201.798 149.151 201.186 149.151C200.586 149.151 200.028 149.301 199.512 149.601C199.008 149.889 198.6 150.315 198.288 150.879C197.988 151.431 197.838 152.073 197.838 152.805C197.838 153.549 197.988 154.203 198.288 154.767C198.6 155.319 199.008 155.745 199.512 156.045C200.028 156.333 200.586 156.477 201.186 156.477C201.798 156.477 202.356 156.333 202.86 156.045C203.376 155.745 203.784 155.319 204.084 154.767C204.384 154.203 204.534 153.543 204.534 152.787ZM207.753 152.787C207.753 151.779 207.957 150.897 208.365 150.141C208.773 149.373 209.331 148.779 210.039 148.359C210.759 147.939 211.557 147.729 212.433 147.729C213.297 147.729 214.047 147.915 214.683 148.287C215.319 148.659 215.793 149.127 216.105 149.691V147.891H217.761V157.755H216.105V155.919C215.781 156.495 215.295 156.975 214.647 157.359C214.011 157.731 213.267 157.917 212.415 157.917C211.539 157.917 210.747 157.701 210.039 157.269C209.331 156.837 208.773 156.231 208.365 155.451C207.957 154.671 207.753 153.783 207.753 152.787ZM216.105 152.805C216.105 152.061 215.955 151.413 215.655 150.861C215.355 150.309 214.947 149.889 214.431 149.601C213.927 149.301 213.369 149.151 212.757 149.151C212.145 149.151 211.587 149.295 211.083 149.583C210.579 149.871 210.177 150.291 209.877 150.843C209.577 151.395 209.427 152.043 209.427 152.787C209.427 153.543 209.577 154.203 209.877 154.767C210.177 155.319 210.579 155.745 211.083 156.045C211.587 156.333 212.145 156.477 212.757 156.477C213.369 156.477 213.927 156.333 214.431 156.045C214.947 155.745 215.355 155.319 215.655 154.767C215.955 154.203 216.105 153.549 216.105 152.805ZM219.917 152.805C219.917 151.785 220.121 150.897 220.529 150.141C220.937 149.373 221.501 148.779 222.221 148.359C222.953 147.939 223.787 147.729 224.723 147.729C225.935 147.729 226.931 148.023 227.711 148.611C228.503 149.199 229.025 150.015 229.277 151.059H227.513C227.345 150.459 227.015 149.985 226.523 149.637C226.043 149.289 225.443 149.115 224.723 149.115C223.787 149.115 223.031 149.439 222.455 150.087C221.879 150.723 221.591 151.629 221.591 152.805C221.591 153.993 221.879 154.911 222.455 155.559C223.031 156.207 223.787 156.531 224.723 156.531C225.443 156.531 226.043 156.363 226.523 156.027C227.003 155.691 227.333 155.211 227.513 154.587H229.277C229.013 155.595 228.485 156.405 227.693 157.017C226.901 157.617 225.911 157.917 224.723 157.917C223.787 157.917 222.953 157.707 222.221 157.287C221.501 156.867 220.937 156.273 220.529 155.505C220.121 154.737 219.917 153.837 219.917 152.805ZM236.97 157.755L233.1 153.399V157.755H231.462V144.435H233.1V152.265L236.898 147.891H239.184L234.54 152.805L239.202 157.755H236.97ZM249.726 152.445C249.726 152.757 249.708 153.087 249.672 153.435H241.788C241.848 154.407 242.178 155.169 242.778 155.721C243.39 156.261 244.128 156.531 244.992 156.531C245.7 156.531 246.288 156.369 246.756 156.045C247.236 155.709 247.572 155.265 247.764 154.713H249.528C249.264 155.661 248.736 156.435 247.944 157.035C247.152 157.623 246.168 157.917 244.992 157.917C244.056 157.917 243.216 157.707 242.472 157.287C241.74 156.867 241.164 156.273 240.744 155.505C240.324 154.725 240.114 153.825 240.114 152.805C240.114 151.785 240.318 150.891 240.726 150.123C241.134 149.355 241.704 148.767 242.436 148.359C243.18 147.939 244.032 147.729 244.992 147.729C245.928 147.729 246.756 147.933 247.476 148.341C248.196 148.749 248.748 149.313 249.132 150.033C249.528 150.741 249.726 151.545 249.726 152.445ZM248.034 152.103C248.034 151.479 247.896 150.945 247.62 150.501C247.344 150.045 246.966 149.703 246.486 149.475C246.018 149.235 245.496 149.115 244.92 149.115C244.092 149.115 243.384 149.379 242.796 149.907C242.22 150.435 241.89 151.167 241.806 152.103H248.034ZM251.276 152.787C251.276 151.779 251.48 150.897 251.888 150.141C252.296 149.373 252.854 148.779 253.562 148.359C254.282 147.939 255.086 147.729 255.974 147.729C256.742 147.729 257.456 147.909 258.116 148.269C258.776 148.617 259.28 149.079 259.628 149.655V144.435H261.284V157.755H259.628V155.901C259.304 156.489 258.824 156.975 258.188 157.359C257.552 157.731 256.808 157.917 255.956 157.917C255.08 157.917 254.282 157.701 253.562 157.269C252.854 156.837 252.296 156.231 251.888 155.451C251.48 154.671 251.276 153.783 251.276 152.787ZM259.628 152.805C259.628 152.061 259.478 151.413 259.178 150.861C258.878 150.309 258.47 149.889 257.954 149.601C257.45 149.301 256.892 149.151 256.28 149.151C255.668 149.151 255.11 149.295 254.606 149.583C254.102 149.871 253.7 150.291 253.4 150.843C253.1 151.395 252.95 152.043 252.95 152.787C252.95 153.543 253.1 154.203 253.4 154.767C253.7 155.319 254.102 155.745 254.606 156.045C255.11 156.333 255.668 156.477 256.28 156.477C256.892 156.477 257.45 156.333 257.954 156.045C258.47 155.745 258.878 155.319 259.178 154.767C259.478 154.203 259.628 153.549 259.628 152.805ZM270.489 149.727C270.825 149.139 271.317 148.659 271.965 148.287C272.613 147.915 273.351 147.729 274.179 147.729C275.067 147.729 275.865 147.939 276.573 148.359C277.281 148.779 277.839 149.373 278.247 150.141C278.655 150.897 278.859 151.779 278.859 152.787C278.859 153.783 278.655 154.671 278.247 155.451C277.839 156.231 277.275 156.837 276.555 157.269C275.847 157.701 275.055 157.917 274.179 157.917C273.327 157.917 272.577 157.731 271.929 157.359C271.293 156.987 270.813 156.513 270.489 155.937V157.755H268.851V144.435H270.489V149.727ZM277.185 152.787C277.185 152.043 277.035 151.395 276.735 150.843C276.435 150.291 276.027 149.871 275.511 149.583C275.007 149.295 274.449 149.151 273.837 149.151C273.237 149.151 272.679 149.301 272.163 149.601C271.659 149.889 271.251 150.315 270.939 150.879C270.639 151.431 270.489 152.073 270.489 152.805C270.489 153.549 270.639 154.203 270.939 154.767C271.251 155.319 271.659 155.745 272.163 156.045C272.679 156.333 273.237 156.477 273.837 156.477C274.449 156.477 275.007 156.333 275.511 156.045C276.027 155.745 276.435 155.319 276.735 154.767C277.035 154.203 277.185 153.543 277.185 152.787ZM289.511 147.891L283.571 162.399H281.879L283.823 157.647L279.845 147.891H281.663L284.759 155.883L287.819 147.891H289.511ZM300.258 157.917C299.334 157.917 298.494 157.707 297.738 157.287C296.994 156.867 296.406 156.273 295.974 155.505C295.554 154.725 295.344 153.825 295.344 152.805C295.344 151.797 295.56 150.909 295.992 150.141C296.436 149.361 297.036 148.767 297.792 148.359C298.548 147.939 299.394 147.729 300.33 147.729C301.266 147.729 302.112 147.939 302.868 148.359C303.624 148.767 304.218 149.355 304.65 150.123C305.094 150.891 305.316 151.785 305.316 152.805C305.316 153.825 305.088 154.725 304.632 155.505C304.188 156.273 303.582 156.867 302.814 157.287C302.046 157.707 301.194 157.917 300.258 157.917ZM300.258 156.477C300.846 156.477 301.398 156.339 301.914 156.063C302.43 155.787 302.844 155.373 303.156 154.821C303.48 154.269 303.642 153.597 303.642 152.805C303.642 152.013 303.486 151.341 303.174 150.789C302.862 150.237 302.454 149.829 301.95 149.565C301.446 149.289 300.9 149.151 300.312 149.151C299.712 149.151 299.16 149.289 298.656 149.565C298.164 149.829 297.768 150.237 297.468 150.789C297.168 151.341 297.018 152.013 297.018 152.805C297.018 153.609 297.162 154.287 297.45 154.839C297.75 155.391 298.146 155.805 298.638 156.081C299.13 156.345 299.67 156.477 300.258 156.477ZM316.218 147.891V157.755H314.58V156.297C314.268 156.801 313.83 157.197 313.266 157.485C312.714 157.761 312.102 157.899 311.43 157.899C310.662 157.899 309.972 157.743 309.36 157.431C308.748 157.107 308.262 156.627 307.902 155.991C307.554 155.355 307.38 154.581 307.38 153.669V147.891H309V153.453C309 154.425 309.246 155.175 309.738 155.703C310.23 156.219 310.902 156.477 311.754 156.477C312.63 156.477 313.32 156.207 313.824 155.667C314.328 155.127 314.58 154.341 314.58 153.309V147.891H316.218ZM320.622 149.493C320.91 148.929 321.318 148.491 321.846 148.179C322.386 147.867 323.04 147.711 323.808 147.711V149.403H323.376C321.54 149.403 320.622 150.399 320.622 152.391V157.755H318.984V147.891H320.622V149.493ZM340.001 148.845C339.653 148.113 339.149 147.549 338.489 147.153C337.829 146.745 337.061 146.541 336.185 146.541C335.309 146.541 334.517 146.745 333.809 147.153C333.113 147.549 332.561 148.125 332.153 148.881C331.757 149.625 331.559 150.489 331.559 151.473C331.559 152.457 331.757 153.321 332.153 154.065C332.561 154.809 333.113 155.385 333.809 155.793C334.517 156.189 335.309 156.387 336.185 156.387C337.409 156.387 338.417 156.021 339.209 155.289C340.001 154.557 340.463 153.567 340.595 152.319H335.591V150.987H342.341V152.247C342.245 153.279 341.921 154.227 341.369 155.091C340.817 155.943 340.091 156.621 339.191 157.125C338.291 157.617 337.289 157.863 336.185 157.863C335.021 157.863 333.959 157.593 332.999 157.053C332.039 156.501 331.277 155.739 330.713 154.767C330.161 153.795 329.885 152.697 329.885 151.473C329.885 150.249 330.161 149.151 330.713 148.179C331.277 147.195 332.039 146.433 332.999 145.893C333.959 145.341 335.021 145.065 336.185 145.065C337.517 145.065 338.693 145.395 339.713 146.055C340.745 146.715 341.495 147.645 341.963 148.845H340.001ZM353.507 152.445C353.507 152.757 353.489 153.087 353.453 153.435H345.569C345.629 154.407 345.959 155.169 346.559 155.721C347.171 156.261 347.909 156.531 348.773 156.531C349.481 156.531 350.069 156.369 350.537 156.045C351.017 155.709 351.353 155.265 351.545 154.713H353.309C353.045 155.661 352.517 156.435 351.725 157.035C350.933 157.623 349.949 157.917 348.773 157.917C347.837 157.917 346.997 157.707 346.253 157.287C345.521 156.867 344.945 156.273 344.525 155.505C344.105 154.725 343.895 153.825 343.895 152.805C343.895 151.785 344.099 150.891 344.507 150.123C344.915 149.355 345.485 148.767 346.217 148.359C346.961 147.939 347.813 147.729 348.773 147.729C349.709 147.729 350.537 147.933 351.257 148.341C351.977 148.749 352.529 149.313 352.913 150.033C353.309 150.741 353.507 151.545 353.507 152.445ZM351.815 152.103C351.815 151.479 351.677 150.945 351.401 150.501C351.125 150.045 350.747 149.703 350.267 149.475C349.799 149.235 349.277 149.115 348.701 149.115C347.873 149.115 347.165 149.379 346.577 149.907C346.001 150.435 345.671 151.167 345.587 152.103H351.815ZM357.667 149.241V155.055C357.667 155.535 357.769 155.877 357.973 156.081C358.177 156.273 358.531 156.369 359.035 156.369H360.241V157.755H358.765C357.853 157.755 357.169 157.545 356.713 157.125C356.257 156.705 356.029 156.015 356.029 155.055V149.241H354.751V147.891H356.029V145.407H357.667V147.891H360.241V149.241H357.667ZM55.0286 172.209V184.755H53.3906V179.067H47.0006V184.755H45.3626V172.209H47.0006V177.717H53.3906V172.209H55.0286ZM58.6715 173.289C58.3595 173.289 58.0955 173.181 57.8795 172.965C57.6635 172.749 57.5555 172.485 57.5555 172.173C57.5555 171.861 57.6635 171.597 57.8795 171.381C58.0955 171.165 58.3595 171.057 58.6715 171.057C58.9715 171.057 59.2235 171.165 59.4275 171.381C59.6435 171.597 59.7515 171.861 59.7515 172.173C59.7515 172.485 59.6435 172.749 59.4275 172.965C59.2235 173.181 58.9715 173.289 58.6715 173.289ZM59.4635 174.891V184.755H57.8255V174.891H59.4635ZM63.8931 176.493C64.1811 175.929 64.5891 175.491 65.1171 175.179C65.6571 174.867 66.3111 174.711 67.0791 174.711V176.403H66.6471C64.8111 176.403 63.8931 177.399 63.8931 179.391V184.755H62.2551V174.891H63.8931V176.493ZM77.97 179.445C77.97 179.757 77.952 180.087 77.916 180.435H70.032C70.092 181.407 70.422 182.169 71.022 182.721C71.634 183.261 72.372 183.531 73.236 183.531C73.944 183.531 74.532 183.369 75 183.045C75.48 182.709 75.816 182.265 76.008 181.713H77.772C77.508 182.661 76.98 183.435 76.188 184.035C75.396 184.623 74.412 184.917 73.236 184.917C72.3 184.917 71.46 184.707 70.716 184.287C69.984 183.867 69.408 183.273 68.988 182.505C68.568 181.725 68.358 180.825 68.358 179.805C68.358 178.785 68.562 177.891 68.97 177.123C69.378 176.355 69.948 175.767 70.68 175.359C71.424 174.939 72.276 174.729 73.236 174.729C74.172 174.729 75 174.933 75.72 175.341C76.44 175.749 76.992 176.313 77.376 177.033C77.772 177.741 77.97 178.545 77.97 179.445ZM76.278 179.103C76.278 178.479 76.14 177.945 75.864 177.501C75.588 177.045 75.21 176.703 74.73 176.475C74.262 176.235 73.74 176.115 73.164 176.115C72.336 176.115 71.628 176.379 71.04 176.907C70.464 177.435 70.134 178.167 70.05 179.103H76.278ZM79.5201 179.787C79.5201 178.779 79.7241 177.897 80.1321 177.141C80.5401 176.373 81.0981 175.779 81.8061 175.359C82.5261 174.939 83.3301 174.729 84.2181 174.729C84.9861 174.729 85.7001 174.909 86.3601 175.269C87.0201 175.617 87.5241 176.079 87.8721 176.655V171.435H89.5281V184.755H87.8721V182.901C87.5481 183.489 87.0681 183.975 86.4321 184.359C85.7961 184.731 85.0521 184.917 84.2001 184.917C83.3241 184.917 82.5261 184.701 81.8061 184.269C81.0981 183.837 80.5401 183.231 80.1321 182.451C79.7241 181.671 79.5201 180.783 79.5201 179.787ZM87.8721 179.805C87.8721 179.061 87.7221 178.413 87.4221 177.861C87.1221 177.309 86.7141 176.889 86.1981 176.601C85.6941 176.301 85.1361 176.151 84.5241 176.151C83.9121 176.151 83.3541 176.295 82.8501 176.583C82.3461 176.871 81.9441 177.291 81.6441 177.843C81.3441 178.395 81.1941 179.043 81.1941 179.787C81.1941 180.543 81.3441 181.203 81.6441 181.767C81.9441 182.319 82.3461 182.745 82.8501 183.045C83.3541 183.333 83.9121 183.477 84.5241 183.477C85.1361 183.477 85.6941 183.333 86.1981 183.045C86.7141 182.745 87.1221 182.319 87.4221 181.767C87.7221 181.203 87.8721 180.549 87.8721 179.805ZM106.599 175.845C106.251 175.113 105.747 174.549 105.087 174.153C104.427 173.745 103.659 173.541 102.783 173.541C101.907 173.541 101.115 173.745 100.407 174.153C99.711 174.549 99.159 175.125 98.751 175.881C98.355 176.625 98.157 177.489 98.157 178.473C98.157 179.457 98.355 180.321 98.751 181.065C99.159 181.809 99.711 182.385 100.407 182.793C101.115 183.189 101.907 183.387 102.783 183.387C104.007 183.387 105.015 183.021 105.807 182.289C106.599 181.557 107.061 180.567 107.193 179.319H102.189V177.987H108.939V179.247C108.843 180.279 108.519 181.227 107.967 182.091C107.415 182.943 106.689 183.621 105.789 184.125C104.889 184.617 103.887 184.863 102.783 184.863C101.619 184.863 100.557 184.593 99.597 184.053C98.637 183.501 97.875 182.739 97.311 181.767C96.759 180.795 96.483 179.697 96.483 178.473C96.483 177.249 96.759 176.151 97.311 175.179C97.875 174.195 98.637 173.433 99.597 172.893C100.557 172.341 101.619 172.065 102.783 172.065C104.115 172.065 105.291 172.395 106.311 173.055C107.343 173.715 108.093 174.645 108.561 175.845H106.599ZM119.853 174.891V184.755H118.215V183.297C117.903 183.801 117.465 184.197 116.901 184.485C116.349 184.761 115.737 184.899 115.065 184.899C114.297 184.899 113.607 184.743 112.995 184.431C112.383 184.107 111.897 183.627 111.537 182.991C111.189 182.355 111.015 181.581 111.015 180.669V174.891H112.635V180.453C112.635 181.425 112.881 182.175 113.373 182.703C113.865 183.219 114.537 183.477 115.389 183.477C116.265 183.477 116.955 183.207 117.459 182.667C117.963 182.127 118.215 181.341 118.215 180.309V174.891H119.853ZM124.256 176.493C124.544 175.929 124.952 175.491 125.48 175.179C126.02 174.867 126.674 174.711 127.442 174.711V176.403H127.01C125.174 176.403 124.256 177.399 124.256 179.391V184.755H122.618V174.891H124.256V176.493ZM128.721 179.787C128.721 178.779 128.925 177.897 129.333 177.141C129.741 176.373 130.299 175.779 131.007 175.359C131.727 174.939 132.525 174.729 133.401 174.729C134.265 174.729 135.015 174.915 135.651 175.287C136.287 175.659 136.761 176.127 137.073 176.691V174.891H138.729V184.755H137.073V182.919C136.749 183.495 136.263 183.975 135.615 184.359C134.979 184.731 134.235 184.917 133.383 184.917C132.507 184.917 131.715 184.701 131.007 184.269C130.299 183.837 129.741 183.231 129.333 182.451C128.925 181.671 128.721 180.783 128.721 179.787ZM137.073 179.805C137.073 179.061 136.923 178.413 136.623 177.861C136.323 177.309 135.915 176.889 135.399 176.601C134.895 176.301 134.337 176.151 133.725 176.151C133.113 176.151 132.555 176.295 132.051 176.583C131.547 176.871 131.145 177.291 130.845 177.843C130.545 178.395 130.395 179.043 130.395 179.787C130.395 180.543 130.545 181.203 130.845 181.767C131.145 182.319 131.547 182.745 132.051 183.045C132.555 183.333 133.113 183.477 133.725 183.477C134.337 183.477 134.895 183.333 135.399 183.045C135.915 182.745 136.323 182.319 136.623 181.767C136.923 181.203 137.073 180.549 137.073 179.805ZM146.303 174.711C147.503 174.711 148.475 175.077 149.219 175.809C149.963 176.529 150.335 177.573 150.335 178.941V184.755H148.715V179.175C148.715 178.191 148.469 177.441 147.977 176.925C147.485 176.397 146.813 176.133 145.961 176.133C145.097 176.133 144.407 176.403 143.891 176.943C143.387 177.483 143.135 178.269 143.135 179.301V184.755H141.497V174.891H143.135V176.295C143.459 175.791 143.897 175.401 144.449 175.125C145.013 174.849 145.631 174.711 146.303 174.711ZM155.009 176.241V182.055C155.009 182.535 155.111 182.877 155.315 183.081C155.519 183.273 155.873 183.369 156.377 183.369H157.583V184.755H156.107C155.195 184.755 154.511 184.545 154.055 184.125C153.599 183.705 153.371 183.015 153.371 182.055V176.241H152.093V174.891H153.371V172.407H155.009V174.891H157.583V176.241H155.009ZM168.568 179.445C168.568 179.757 168.55 180.087 168.514 180.435H160.63C160.69 181.407 161.02 182.169 161.62 182.721C162.232 183.261 162.97 183.531 163.834 183.531C164.542 183.531 165.13 183.369 165.598 183.045C166.078 182.709 166.414 182.265 166.606 181.713H168.37C168.106 182.661 167.578 183.435 166.786 184.035C165.994 184.623 165.01 184.917 163.834 184.917C162.898 184.917 162.058 184.707 161.314 184.287C160.582 183.867 160.006 183.273 159.586 182.505C159.166 181.725 158.956 180.825 158.956 179.805C158.956 178.785 159.16 177.891 159.568 177.123C159.976 176.355 160.546 175.767 161.278 175.359C162.022 174.939 162.874 174.729 163.834 174.729C164.77 174.729 165.598 174.933 166.318 175.341C167.038 175.749 167.59 176.313 167.974 177.033C168.37 177.741 168.568 178.545 168.568 179.445ZM166.876 179.103C166.876 178.479 166.738 177.945 166.462 177.501C166.186 177.045 165.808 176.703 165.328 176.475C164.86 176.235 164.338 176.115 163.762 176.115C162.934 176.115 162.226 176.379 161.638 176.907C161.062 177.435 160.732 178.167 160.648 179.103H166.876ZM179.73 179.445C179.73 179.757 179.712 180.087 179.676 180.435H171.792C171.852 181.407 172.182 182.169 172.782 182.721C173.394 183.261 174.132 183.531 174.996 183.531C175.704 183.531 176.292 183.369 176.76 183.045C177.24 182.709 177.576 182.265 177.768 181.713H179.532C179.268 182.661 178.74 183.435 177.948 184.035C177.156 184.623 176.172 184.917 174.996 184.917C174.06 184.917 173.22 184.707 172.476 184.287C171.744 183.867 171.168 183.273 170.748 182.505C170.328 181.725 170.118 180.825 170.118 179.805C170.118 178.785 170.322 177.891 170.73 177.123C171.138 176.355 171.708 175.767 172.44 175.359C173.184 174.939 174.036 174.729 174.996 174.729C175.932 174.729 176.76 174.933 177.48 175.341C178.2 175.749 178.752 176.313 179.136 177.033C179.532 177.741 179.73 178.545 179.73 179.445ZM178.038 179.103C178.038 178.479 177.9 177.945 177.624 177.501C177.348 177.045 176.97 176.703 176.49 176.475C176.022 176.235 175.5 176.115 174.924 176.115C174.096 176.115 173.388 176.379 172.8 176.907C172.224 177.435 171.894 178.167 171.81 179.103H178.038ZM182.414 184.863C182.102 184.863 181.838 184.755 181.622 184.539C181.406 184.323 181.298 184.059 181.298 183.747C181.298 183.435 181.406 183.171 181.622 182.955C181.838 182.739 182.102 182.631 182.414 182.631C182.714 182.631 182.966 182.739 183.17 182.955C183.386 183.171 183.494 183.435 183.494 183.747C183.494 184.059 183.386 184.323 183.17 184.539C182.966 184.755 182.714 184.863 182.414 184.863ZM198.192 172.209V173.541H194.772V184.755H193.134V173.541H189.696V172.209H198.192ZM205.104 174.711C205.848 174.711 206.52 174.873 207.12 175.197C207.72 175.509 208.188 175.983 208.524 176.619C208.872 177.255 209.046 178.029 209.046 178.941V184.755H207.426V179.175C207.426 178.191 207.18 177.441 206.688 176.925C206.196 176.397 205.524 176.133 204.672 176.133C203.808 176.133 203.118 176.403 202.602 176.943C202.098 177.483 201.846 178.269 201.846 179.301V184.755H200.208V171.435H201.846V176.295C202.17 175.791 202.614 175.401 203.178 175.125C203.754 174.849 204.396 174.711 205.104 174.711ZM216.024 184.917C215.1 184.917 214.26 184.707 213.504 184.287C212.76 183.867 212.172 183.273 211.74 182.505C211.32 181.725 211.11 180.825 211.11 179.805C211.11 178.797 211.326 177.909 211.758 177.141C212.202 176.361 212.802 175.767 213.558 175.359C214.314 174.939 215.16 174.729 216.096 174.729C217.032 174.729 217.878 174.939 218.634 175.359C219.39 175.767 219.984 176.355 220.416 177.123C220.86 177.891 221.082 178.785 221.082 179.805C221.082 180.825 220.854 181.725 220.398 182.505C219.954 183.273 219.348 183.867 218.58 184.287C217.812 184.707 216.96 184.917 216.024 184.917ZM216.024 183.477C216.612 183.477 217.164 183.339 217.68 183.063C218.196 182.787 218.61 182.373 218.922 181.821C219.246 181.269 219.408 180.597 219.408 179.805C219.408 179.013 219.252 178.341 218.94 177.789C218.628 177.237 218.22 176.829 217.716 176.565C217.212 176.289 216.666 176.151 216.078 176.151C215.478 176.151 214.926 176.289 214.422 176.565C213.93 176.829 213.534 177.237 213.234 177.789C212.934 178.341 212.784 179.013 212.784 179.805C212.784 180.609 212.928 181.287 213.216 181.839C213.516 182.391 213.912 182.805 214.404 183.081C214.896 183.345 215.436 183.477 216.024 183.477ZM226.728 184.917C225.972 184.917 225.294 184.791 224.694 184.539C224.094 184.275 223.62 183.915 223.272 183.459C222.924 182.991 222.732 182.457 222.696 181.857H224.388C224.436 182.349 224.664 182.751 225.072 183.063C225.492 183.375 226.038 183.531 226.71 183.531C227.334 183.531 227.826 183.393 228.186 183.117C228.546 182.841 228.726 182.493 228.726 182.073C228.726 181.641 228.534 181.323 228.15 181.119C227.766 180.903 227.172 180.693 226.368 180.489C225.636 180.297 225.036 180.105 224.568 179.913C224.112 179.709 223.716 179.415 223.38 179.031C223.056 178.635 222.894 178.119 222.894 177.483C222.894 176.979 223.044 176.517 223.344 176.097C223.644 175.677 224.07 175.347 224.622 175.107C225.174 174.855 225.804 174.729 226.512 174.729C227.604 174.729 228.486 175.005 229.158 175.557C229.83 176.109 230.19 176.865 230.238 177.825H228.6C228.564 177.309 228.354 176.895 227.97 176.583C227.598 176.271 227.094 176.115 226.458 176.115C225.87 176.115 225.402 176.241 225.054 176.493C224.706 176.745 224.532 177.075 224.532 177.483C224.532 177.807 224.634 178.077 224.838 178.293C225.054 178.497 225.318 178.665 225.63 178.797C225.954 178.917 226.398 179.055 226.962 179.211C227.67 179.403 228.246 179.595 228.69 179.787C229.134 179.967 229.512 180.243 229.824 180.615C230.148 180.987 230.316 181.473 230.328 182.073C230.328 182.613 230.178 183.099 229.878 183.531C229.578 183.963 229.152 184.305 228.6 184.557C228.06 184.797 227.436 184.917 226.728 184.917ZM241.64 179.445C241.64 179.757 241.622 180.087 241.586 180.435H233.702C233.762 181.407 234.092 182.169 234.692 182.721C235.304 183.261 236.042 183.531 236.906 183.531C237.614 183.531 238.202 183.369 238.67 183.045C239.15 182.709 239.486 182.265 239.678 181.713H241.442C241.178 182.661 240.65 183.435 239.858 184.035C239.066 184.623 238.082 184.917 236.906 184.917C235.97 184.917 235.13 184.707 234.386 184.287C233.654 183.867 233.078 183.273 232.658 182.505C232.238 181.725 232.028 180.825 232.028 179.805C232.028 178.785 232.232 177.891 232.64 177.123C233.048 176.355 233.618 175.767 234.35 175.359C235.094 174.939 235.946 174.729 236.906 174.729C237.842 174.729 238.67 174.933 239.39 175.341C240.11 175.749 240.662 176.313 241.046 177.033C241.442 177.741 241.64 178.545 241.64 179.445ZM239.948 179.103C239.948 178.479 239.81 177.945 239.534 177.501C239.258 177.045 238.88 176.703 238.4 176.475C237.932 176.235 237.41 176.115 236.834 176.115C236.006 176.115 235.298 176.379 234.71 176.907C234.134 177.435 233.804 178.167 233.72 179.103H239.948ZM261.741 174.891L258.663 184.755H256.971L254.595 176.925L252.219 184.755H250.527L247.431 174.891H249.105L251.373 183.171L253.821 174.891H255.495L257.889 183.189L260.121 174.891H261.741ZM268.262 174.711C269.006 174.711 269.678 174.873 270.278 175.197C270.878 175.509 271.346 175.983 271.682 176.619C272.03 177.255 272.204 178.029 272.204 178.941V184.755H270.584V179.175C270.584 178.191 270.338 177.441 269.846 176.925C269.354 176.397 268.682 176.133 267.83 176.133C266.966 176.133 266.276 176.403 265.76 176.943C265.256 177.483 265.004 178.269 265.004 179.301V184.755H263.366V171.435H265.004V176.295C265.328 175.791 265.772 175.401 266.336 175.125C266.912 174.849 267.554 174.711 268.262 174.711ZM279.182 184.917C278.258 184.917 277.418 184.707 276.662 184.287C275.918 183.867 275.33 183.273 274.898 182.505C274.478 181.725 274.268 180.825 274.268 179.805C274.268 178.797 274.484 177.909 274.916 177.141C275.36 176.361 275.96 175.767 276.716 175.359C277.472 174.939 278.318 174.729 279.254 174.729C280.19 174.729 281.036 174.939 281.792 175.359C282.548 175.767 283.142 176.355 283.574 177.123C284.018 177.891 284.24 178.785 284.24 179.805C284.24 180.825 284.012 181.725 283.556 182.505C283.112 183.273 282.506 183.867 281.738 184.287C280.97 184.707 280.118 184.917 279.182 184.917ZM279.182 183.477C279.77 183.477 280.322 183.339 280.838 183.063C281.354 182.787 281.768 182.373 282.08 181.821C282.404 181.269 282.566 180.597 282.566 179.805C282.566 179.013 282.41 178.341 282.098 177.789C281.786 177.237 281.378 176.829 280.874 176.565C280.37 176.289 279.824 176.151 279.236 176.151C278.636 176.151 278.084 176.289 277.58 176.565C277.088 176.829 276.692 177.237 276.392 177.789C276.092 178.341 275.942 179.013 275.942 179.805C275.942 180.609 276.086 181.287 276.374 181.839C276.674 182.391 277.07 182.805 277.562 183.081C278.054 183.345 278.594 183.477 279.182 183.477ZM293.191 176.241V182.055C293.191 182.535 293.293 182.877 293.497 183.081C293.701 183.273 294.055 183.369 294.559 183.369H295.765V184.755H294.289C293.377 184.755 292.693 184.545 292.237 184.125C291.781 183.705 291.553 183.015 291.553 182.055V176.241H290.275V174.891H291.553V172.407H293.191V174.891H295.765V176.241H293.191ZM299.387 176.493C299.675 175.929 300.083 175.491 300.611 175.179C301.151 174.867 301.805 174.711 302.573 174.711V176.403H302.141C300.305 176.403 299.387 177.399 299.387 179.391V184.755H297.749V174.891H299.387V176.493ZM312.96 174.891L307.02 189.399H305.328L307.272 184.647L303.294 174.891H305.112L308.208 182.883L311.268 174.891H312.96ZM318.794 179.787C318.794 178.779 318.998 177.897 319.406 177.141C319.814 176.373 320.372 175.779 321.08 175.359C321.8 174.939 322.598 174.729 323.474 174.729C324.338 174.729 325.088 174.915 325.724 175.287C326.36 175.659 326.834 176.127 327.146 176.691V174.891H328.802V184.755H327.146V182.919C326.822 183.495 326.336 183.975 325.688 184.359C325.052 184.731 324.308 184.917 323.456 184.917C322.58 184.917 321.788 184.701 321.08 184.269C320.372 183.837 319.814 183.231 319.406 182.451C318.998 181.671 318.794 180.783 318.794 179.787ZM327.146 179.805C327.146 179.061 326.996 178.413 326.696 177.861C326.396 177.309 325.988 176.889 325.472 176.601C324.968 176.301 324.41 176.151 323.798 176.151C323.186 176.151 322.628 176.295 322.124 176.583C321.62 176.871 321.218 177.291 320.918 177.843C320.618 178.395 320.468 179.043 320.468 179.787C320.468 180.543 320.618 181.203 320.918 181.767C321.218 182.319 321.62 182.745 322.124 183.045C322.628 183.333 323.186 183.477 323.798 183.477C324.41 183.477 324.968 183.333 325.472 183.045C325.988 182.745 326.396 182.319 326.696 181.767C326.996 181.203 327.146 180.549 327.146 179.805ZM335.638 174.729C336.49 174.729 337.234 174.915 337.87 175.287C338.518 175.659 338.998 176.127 339.31 176.691V174.891H340.966V184.971C340.966 185.871 340.774 186.669 340.39 187.365C340.006 188.073 339.454 188.625 338.734 189.021C338.026 189.417 337.198 189.615 336.25 189.615C334.954 189.615 333.874 189.309 333.01 188.697C332.146 188.085 331.636 187.251 331.48 186.195H333.1C333.28 186.795 333.652 187.275 334.216 187.635C334.78 188.007 335.458 188.193 336.25 188.193C337.15 188.193 337.882 187.911 338.446 187.347C339.022 186.783 339.31 185.991 339.31 184.971V182.901C338.986 183.477 338.506 183.957 337.87 184.341C337.234 184.725 336.49 184.917 335.638 184.917C334.762 184.917 333.964 184.701 333.244 184.269C332.536 183.837 331.978 183.231 331.57 182.451C331.162 181.671 330.958 180.783 330.958 179.787C330.958 178.779 331.162 177.897 331.57 177.141C331.978 176.373 332.536 175.779 333.244 175.359C333.964 174.939 334.762 174.729 335.638 174.729ZM339.31 179.805C339.31 179.061 339.16 178.413 338.86 177.861C338.56 177.309 338.152 176.889 337.636 176.601C337.132 176.301 336.574 176.151 335.962 176.151C335.35 176.151 334.792 176.295 334.288 176.583C333.784 176.871 333.382 177.291 333.082 177.843C332.782 178.395 332.632 179.043 332.632 179.787C332.632 180.543 332.782 181.203 333.082 181.767C333.382 182.319 333.784 182.745 334.288 183.045C334.792 183.333 335.35 183.477 335.962 183.477C336.574 183.477 337.132 183.333 337.636 183.045C338.152 182.745 338.56 182.319 338.86 181.767C339.16 181.203 339.31 180.549 339.31 179.805ZM343.122 179.787C343.122 178.779 343.326 177.897 343.734 177.141C344.142 176.373 344.7 175.779 345.408 175.359C346.128 174.939 346.926 174.729 347.802 174.729C348.666 174.729 349.416 174.915 350.052 175.287C350.688 175.659 351.162 176.127 351.474 176.691V174.891H353.13V184.755H351.474V182.919C351.15 183.495 350.664 183.975 350.016 184.359C349.38 184.731 348.636 184.917 347.784 184.917C346.908 184.917 346.116 184.701 345.408 184.269C344.7 183.837 344.142 183.231 343.734 182.451C343.326 181.671 343.122 180.783 343.122 179.787ZM351.474 179.805C351.474 179.061 351.324 178.413 351.024 177.861C350.724 177.309 350.316 176.889 349.8 176.601C349.296 176.301 348.738 176.151 348.126 176.151C347.514 176.151 346.956 176.295 346.452 176.583C345.948 176.871 345.546 177.291 345.246 177.843C344.946 178.395 344.796 179.043 344.796 179.787C344.796 180.543 344.946 181.203 345.246 181.767C345.546 182.319 345.948 182.745 346.452 183.045C346.956 183.333 347.514 183.477 348.126 183.477C348.738 183.477 349.296 183.333 349.8 183.045C350.316 182.745 350.724 182.319 351.024 181.767C351.324 181.203 351.474 180.549 351.474 179.805ZM356.744 173.289C356.432 173.289 356.168 173.181 355.952 172.965C355.736 172.749 355.628 172.485 355.628 172.173C355.628 171.861 355.736 171.597 355.952 171.381C356.168 171.165 356.432 171.057 356.744 171.057C357.044 171.057 357.296 171.165 357.5 171.381C357.716 171.597 357.824 171.861 357.824 172.173C357.824 172.485 357.716 172.749 357.5 172.965C357.296 173.181 357.044 173.289 356.744 173.289ZM357.536 174.891V184.755H355.898V174.891H357.536ZM365.133 174.711C366.333 174.711 367.305 175.077 368.049 175.809C368.793 176.529 369.165 177.573 369.165 178.941V184.755H367.545V179.175C367.545 178.191 367.299 177.441 366.807 176.925C366.315 176.397 365.643 176.133 364.791 176.133C363.927 176.133 363.237 176.403 362.721 176.943C362.217 177.483 361.965 178.269 361.965 179.301V184.755H360.327V174.891H361.965V176.295C362.289 175.791 362.727 175.401 363.279 175.125C363.843 174.849 364.461 174.711 365.133 174.711ZM44.7506 206.787C44.7506 205.779 44.9546 204.897 45.3626 204.141C45.7706 203.373 46.3286 202.779 47.0366 202.359C47.7566 201.939 48.5546 201.729 49.4306 201.729C50.2946 201.729 51.0446 201.915 51.6806 202.287C52.3166 202.659 52.7906 203.127 53.1026 203.691V201.891H54.7586V211.755H53.1026V209.919C52.7786 210.495 52.2926 210.975 51.6446 211.359C51.0086 211.731 50.2646 211.917 49.4126 211.917C48.5366 211.917 47.7446 211.701 47.0366 211.269C46.3286 210.837 45.7706 210.231 45.3626 209.451C44.9546 208.671 44.7506 207.783 44.7506 206.787ZM53.1026 206.805C53.1026 206.061 52.9526 205.413 52.6526 204.861C52.3526 204.309 51.9446 203.889 51.4286 203.601C50.9246 203.301 50.3666 203.151 49.7546 203.151C49.1426 203.151 48.5846 203.295 48.0806 203.583C47.5766 203.871 47.1746 204.291 46.8746 204.843C46.5746 205.395 46.4246 206.043 46.4246 206.787C46.4246 207.543 46.5746 208.203 46.8746 208.767C47.1746 209.319 47.5766 209.745 48.0806 210.045C48.5846 210.333 49.1426 210.477 49.7546 210.477C50.3666 210.477 50.9246 210.333 51.4286 210.045C51.9446 209.745 52.3526 209.319 52.6526 208.767C52.9526 208.203 53.1026 207.549 53.1026 206.805ZM59.1646 203.493C59.4526 202.929 59.8606 202.491 60.3886 202.179C60.9286 201.867 61.5826 201.711 62.3506 201.711V203.403H61.9186C60.0826 203.403 59.1646 204.399 59.1646 206.391V211.755H57.5266V201.891H59.1646V203.493ZM73.2415 206.445C73.2415 206.757 73.2235 207.087 73.1875 207.435H65.3035C65.3635 208.407 65.6935 209.169 66.2935 209.721C66.9055 210.261 67.6435 210.531 68.5075 210.531C69.2155 210.531 69.8035 210.369 70.2715 210.045C70.7515 209.709 71.0875 209.265 71.2795 208.713H73.0435C72.7795 209.661 72.2515 210.435 71.4595 211.035C70.6675 211.623 69.6835 211.917 68.5075 211.917C67.5715 211.917 66.7315 211.707 65.9875 211.287C65.2555 210.867 64.6795 210.273 64.2595 209.505C63.8395 208.725 63.6295 207.825 63.6295 206.805C63.6295 205.785 63.8335 204.891 64.2415 204.123C64.6495 203.355 65.2195 202.767 65.9515 202.359C66.6955 201.939 67.5475 201.729 68.5075 201.729C69.4435 201.729 70.2715 201.933 70.9915 202.341C71.7115 202.749 72.2635 203.313 72.6475 204.033C73.0435 204.741 73.2415 205.545 73.2415 206.445ZM71.5495 206.103C71.5495 205.479 71.4115 204.945 71.1355 204.501C70.8595 204.045 70.4815 203.703 70.0015 203.475C69.5335 203.235 69.0115 203.115 68.4355 203.115C67.6075 203.115 66.8995 203.379 66.3115 203.907C65.7355 204.435 65.4055 205.167 65.3215 206.103H71.5495ZM79.7344 210.441C81.2584 209.217 82.4524 208.215 83.3164 207.435C84.1804 206.643 84.9064 205.821 85.4944 204.969C86.0944 204.105 86.3944 203.259 86.3944 202.431C86.3944 201.651 86.2024 201.039 85.8184 200.595C85.4464 200.139 84.8404 199.911 84.0004 199.911C83.1844 199.911 82.5484 200.169 82.0924 200.685C81.6484 201.189 81.4084 201.867 81.3724 202.719H79.7884C79.8364 201.375 80.2444 200.337 81.0124 199.605C81.7804 198.873 82.7704 198.507 83.9824 198.507C85.2184 198.507 86.1964 198.849 86.9164 199.533C87.6484 200.217 88.0144 201.159 88.0144 202.359C88.0144 203.355 87.7144 204.327 87.1144 205.275C86.5264 206.211 85.8544 207.039 85.0984 207.759C84.3424 208.467 83.3764 209.295 82.2004 210.243H88.3924V211.611H79.7344V210.441ZM90.0879 210.441C91.6119 209.217 92.8059 208.215 93.6699 207.435C94.5339 206.643 95.2599 205.821 95.8479 204.969C96.4479 204.105 96.7479 203.259 96.7479 202.431C96.7479 201.651 96.5559 201.039 96.1719 200.595C95.7999 200.139 95.1939 199.911 94.3539 199.911C93.5379 199.911 92.9019 200.169 92.4459 200.685C92.0019 201.189 91.7619 201.867 91.7259 202.719H90.1419C90.1899 201.375 90.5979 200.337 91.3659 199.605C92.1339 198.873 93.1239 198.507 94.3359 198.507C95.5719 198.507 96.5499 198.849 97.2699 199.533C98.0019 200.217 98.3679 201.159 98.3679 202.359C98.3679 203.355 98.0679 204.327 97.4679 205.275C96.8799 206.211 96.2079 207.039 95.4519 207.759C94.6959 208.467 93.7299 209.295 92.5539 210.243H98.7459V211.611H90.0879V210.441ZM100.279 201.675C100.279 200.859 100.525 200.211 101.017 199.731C101.509 199.239 102.139 198.993 102.907 198.993C103.675 198.993 104.305 199.239 104.797 199.731C105.289 200.211 105.535 200.859 105.535 201.675C105.535 202.503 105.289 203.163 104.797 203.655C104.305 204.135 103.675 204.375 102.907 204.375C102.139 204.375 101.509 204.135 101.017 203.655C100.525 203.163 100.279 202.503 100.279 201.675ZM110.791 199.191L103.501 211.755H101.881L109.171 199.191H110.791ZM102.907 200.001C102.499 200.001 102.175 200.145 101.935 200.433C101.707 200.709 101.593 201.123 101.593 201.675C101.593 202.227 101.707 202.647 101.935 202.935C102.175 203.223 102.499 203.367 102.907 203.367C103.315 203.367 103.639 203.223 103.879 202.935C104.119 202.635 104.239 202.215 104.239 201.675C104.239 201.123 104.119 200.709 103.879 200.433C103.639 200.145 103.315 200.001 102.907 200.001ZM107.173 209.271C107.173 208.443 107.419 207.789 107.911 207.309C108.403 206.817 109.033 206.571 109.801 206.571C110.569 206.571 111.193 206.817 111.673 207.309C112.165 207.789 112.411 208.443 112.411 209.271C112.411 210.087 112.165 210.741 111.673 211.233C111.193 211.725 110.569 211.971 109.801 211.971C109.033 211.971 108.403 211.731 107.911 211.251C107.419 210.759 107.173 210.099 107.173 209.271ZM109.783 207.597C109.375 207.597 109.051 207.741 108.811 208.029C108.571 208.305 108.451 208.719 108.451 209.271C108.451 209.811 108.571 210.225 108.811 210.513C109.051 210.789 109.375 210.927 109.783 210.927C110.191 210.927 110.515 210.789 110.755 210.513C110.995 210.225 111.115 209.811 111.115 209.271C111.115 208.719 110.995 208.305 110.755 208.029C110.515 207.741 110.191 207.597 109.783 207.597ZM131.228 201.711C131.996 201.711 132.68 201.873 133.28 202.197C133.88 202.509 134.354 202.983 134.702 203.619C135.05 204.255 135.224 205.029 135.224 205.941V211.755H133.604V206.175C133.604 205.191 133.358 204.441 132.866 203.925C132.386 203.397 131.732 203.133 130.904 203.133C130.052 203.133 129.374 203.409 128.87 203.961C128.366 204.501 128.114 205.287 128.114 206.319V211.755H126.494V206.175C126.494 205.191 126.248 204.441 125.756 203.925C125.276 203.397 124.622 203.133 123.794 203.133C122.942 203.133 122.264 203.409 121.76 203.961C121.256 204.501 121.004 205.287 121.004 206.319V211.755H119.366V201.891H121.004V203.313C121.328 202.797 121.76 202.401 122.3 202.125C122.852 201.849 123.458 201.711 124.118 201.711C124.946 201.711 125.678 201.897 126.314 202.269C126.95 202.641 127.424 203.187 127.736 203.907C128.012 203.211 128.468 202.671 129.104 202.287C129.74 201.903 130.448 201.711 131.228 201.711ZM142.213 211.917C141.289 211.917 140.449 211.707 139.693 211.287C138.949 210.867 138.361 210.273 137.929 209.505C137.509 208.725 137.299 207.825 137.299 206.805C137.299 205.797 137.515 204.909 137.947 204.141C138.391 203.361 138.991 202.767 139.747 202.359C140.503 201.939 141.349 201.729 142.285 201.729C143.221 201.729 144.067 201.939 144.823 202.359C145.579 202.767 146.173 203.355 146.605 204.123C147.049 204.891 147.271 205.785 147.271 206.805C147.271 207.825 147.043 208.725 146.587 209.505C146.143 210.273 145.537 210.867 144.769 211.287C144.001 211.707 143.149 211.917 142.213 211.917ZM142.213 210.477C142.801 210.477 143.353 210.339 143.869 210.063C144.385 209.787 144.799 209.373 145.111 208.821C145.435 208.269 145.597 207.597 145.597 206.805C145.597 206.013 145.441 205.341 145.129 204.789C144.817 204.237 144.409 203.829 143.905 203.565C143.401 203.289 142.855 203.151 142.267 203.151C141.667 203.151 141.115 203.289 140.611 203.565C140.119 203.829 139.723 204.237 139.423 204.789C139.123 205.341 138.973 206.013 138.973 206.805C138.973 207.609 139.117 208.287 139.405 208.839C139.705 209.391 140.101 209.805 140.593 210.081C141.085 210.345 141.625 210.477 142.213 210.477ZM151.063 203.493C151.351 202.929 151.759 202.491 152.287 202.179C152.827 201.867 153.481 201.711 154.249 201.711V203.403H153.817C151.981 203.403 151.063 204.399 151.063 206.391V211.755H149.425V201.891H151.063V203.493ZM165.14 206.445C165.14 206.757 165.122 207.087 165.086 207.435H157.202C157.262 208.407 157.592 209.169 158.192 209.721C158.804 210.261 159.542 210.531 160.406 210.531C161.114 210.531 161.702 210.369 162.17 210.045C162.65 209.709 162.986 209.265 163.178 208.713H164.942C164.678 209.661 164.15 210.435 163.358 211.035C162.566 211.623 161.582 211.917 160.406 211.917C159.47 211.917 158.63 211.707 157.886 211.287C157.154 210.867 156.578 210.273 156.158 209.505C155.738 208.725 155.528 207.825 155.528 206.805C155.528 205.785 155.732 204.891 156.14 204.123C156.548 203.355 157.118 202.767 157.85 202.359C158.594 201.939 159.446 201.729 160.406 201.729C161.342 201.729 162.17 201.933 162.89 202.341C163.61 202.749 164.162 203.313 164.546 204.033C164.942 204.741 165.14 205.545 165.14 206.445ZM163.448 206.103C163.448 205.479 163.31 204.945 163.034 204.501C162.758 204.045 162.38 203.703 161.9 203.475C161.432 203.235 160.91 203.115 160.334 203.115C159.506 203.115 158.798 203.379 158.21 203.907C157.634 204.435 157.304 205.167 157.22 206.103H163.448ZM173.739 198.435V211.755H172.101V198.435H173.739ZM177.377 200.289C177.065 200.289 176.801 200.181 176.585 199.965C176.369 199.749 176.261 199.485 176.261 199.173C176.261 198.861 176.369 198.597 176.585 198.381C176.801 198.165 177.065 198.057 177.377 198.057C177.677 198.057 177.929 198.165 178.133 198.381C178.349 198.597 178.457 198.861 178.457 199.173C178.457 199.485 178.349 199.749 178.133 199.965C177.929 200.181 177.677 200.289 177.377 200.289ZM178.169 201.891V211.755H176.531V201.891H178.169ZM186.468 211.755L182.598 207.399V211.755H180.96V198.435H182.598V206.265L186.396 201.891H188.682L184.038 206.805L188.7 211.755H186.468ZM199.224 206.445C199.224 206.757 199.206 207.087 199.17 207.435H191.286C191.346 208.407 191.676 209.169 192.276 209.721C192.888 210.261 193.626 210.531 194.49 210.531C195.198 210.531 195.786 210.369 196.254 210.045C196.734 209.709 197.07 209.265 197.262 208.713H199.026C198.762 209.661 198.234 210.435 197.442 211.035C196.65 211.623 195.666 211.917 194.49 211.917C193.554 211.917 192.714 211.707 191.97 211.287C191.238 210.867 190.662 210.273 190.242 209.505C189.822 208.725 189.612 207.825 189.612 206.805C189.612 205.785 189.816 204.891 190.224 204.123C190.632 203.355 191.202 202.767 191.934 202.359C192.678 201.939 193.53 201.729 194.49 201.729C195.426 201.729 196.254 201.933 196.974 202.341C197.694 202.749 198.246 203.313 198.63 204.033C199.026 204.741 199.224 205.545 199.224 206.445ZM197.532 206.103C197.532 205.479 197.394 204.945 197.118 204.501C196.842 204.045 196.464 203.703 195.984 203.475C195.516 203.235 194.994 203.115 194.418 203.115C193.59 203.115 192.882 203.379 192.294 203.907C191.718 204.435 191.388 205.167 191.304 206.103H197.532ZM203.024 198.435V211.755H201.386V198.435H203.024ZM214.312 201.891L208.372 216.399H206.68L208.624 211.647L204.646 201.891H206.464L209.56 209.883L212.62 201.891H214.312ZM222.755 203.241V209.055C222.755 209.535 222.857 209.877 223.061 210.081C223.265 210.273 223.619 210.369 224.123 210.369H225.329V211.755H223.853C222.941 211.755 222.257 211.545 221.801 211.125C221.345 210.705 221.117 210.015 221.117 209.055V203.241H219.839V201.891H221.117V199.407H222.755V201.891H225.329V203.241H222.755ZM231.616 211.917C230.692 211.917 229.852 211.707 229.096 211.287C228.352 210.867 227.764 210.273 227.332 209.505C226.912 208.725 226.702 207.825 226.702 206.805C226.702 205.797 226.918 204.909 227.35 204.141C227.794 203.361 228.394 202.767 229.15 202.359C229.906 201.939 230.752 201.729 231.688 201.729C232.624 201.729 233.47 201.939 234.226 202.359C234.982 202.767 235.576 203.355 236.008 204.123C236.452 204.891 236.674 205.785 236.674 206.805C236.674 207.825 236.446 208.725 235.99 209.505C235.546 210.273 234.94 210.867 234.172 211.287C233.404 211.707 232.552 211.917 231.616 211.917ZM231.616 210.477C232.204 210.477 232.756 210.339 233.272 210.063C233.788 209.787 234.202 209.373 234.514 208.821C234.838 208.269 235 207.597 235 206.805C235 206.013 234.844 205.341 234.532 204.789C234.22 204.237 233.812 203.829 233.308 203.565C232.804 203.289 232.258 203.151 231.67 203.151C231.07 203.151 230.518 203.289 230.014 203.565C229.522 203.829 229.126 204.237 228.826 204.789C228.526 205.341 228.376 206.013 228.376 206.805C228.376 207.609 228.52 208.287 228.808 208.839C229.108 209.391 229.504 209.805 229.996 210.081C230.488 210.345 231.028 210.477 231.616 210.477ZM247.694 201.729C248.546 201.729 249.29 201.915 249.926 202.287C250.574 202.659 251.054 203.127 251.366 203.691V201.891H253.022V211.971C253.022 212.871 252.83 213.669 252.446 214.365C252.062 215.073 251.51 215.625 250.79 216.021C250.082 216.417 249.254 216.615 248.306 216.615C247.01 216.615 245.93 216.309 245.066 215.697C244.202 215.085 243.692 214.251 243.536 213.195H245.156C245.336 213.795 245.708 214.275 246.272 214.635C246.836 215.007 247.514 215.193 248.306 215.193C249.206 215.193 249.938 214.911 250.502 214.347C251.078 213.783 251.366 212.991 251.366 211.971V209.901C251.042 210.477 250.562 210.957 249.926 211.341C249.29 211.725 248.546 211.917 247.694 211.917C246.818 211.917 246.02 211.701 245.3 211.269C244.592 210.837 244.034 210.231 243.626 209.451C243.218 208.671 243.014 207.783 243.014 206.787C243.014 205.779 243.218 204.897 243.626 204.141C244.034 203.373 244.592 202.779 245.3 202.359C246.02 201.939 246.818 201.729 247.694 201.729ZM251.366 206.805C251.366 206.061 251.216 205.413 250.916 204.861C250.616 204.309 250.208 203.889 249.692 203.601C249.188 203.301 248.63 203.151 248.018 203.151C247.406 203.151 246.848 203.295 246.344 203.583C245.84 203.871 245.438 204.291 245.138 204.843C244.838 205.395 244.688 206.043 244.688 206.787C244.688 207.543 244.838 208.203 245.138 208.767C245.438 209.319 245.84 209.745 246.344 210.045C246.848 210.333 247.406 210.477 248.018 210.477C248.63 210.477 249.188 210.333 249.692 210.045C250.208 209.745 250.616 209.319 250.916 208.767C251.216 208.203 251.366 207.549 251.366 206.805ZM264.79 206.445C264.79 206.757 264.772 207.087 264.736 207.435H256.852C256.912 208.407 257.242 209.169 257.842 209.721C258.454 210.261 259.192 210.531 260.056 210.531C260.764 210.531 261.352 210.369 261.82 210.045C262.3 209.709 262.636 209.265 262.828 208.713H264.592C264.328 209.661 263.8 210.435 263.008 211.035C262.216 211.623 261.232 211.917 260.056 211.917C259.12 211.917 258.28 211.707 257.536 211.287C256.804 210.867 256.228 210.273 255.808 209.505C255.388 208.725 255.178 207.825 255.178 206.805C255.178 205.785 255.382 204.891 255.79 204.123C256.198 203.355 256.768 202.767 257.5 202.359C258.244 201.939 259.096 201.729 260.056 201.729C260.992 201.729 261.82 201.933 262.54 202.341C263.26 202.749 263.812 203.313 264.196 204.033C264.592 204.741 264.79 205.545 264.79 206.445ZM263.098 206.103C263.098 205.479 262.96 204.945 262.684 204.501C262.408 204.045 262.03 203.703 261.55 203.475C261.082 203.235 260.56 203.115 259.984 203.115C259.156 203.115 258.448 203.379 257.86 203.907C257.284 204.435 256.954 205.167 256.87 206.103H263.098ZM268.95 203.241V209.055C268.95 209.535 269.052 209.877 269.256 210.081C269.46 210.273 269.814 210.369 270.318 210.369H271.524V211.755H270.048C269.136 211.755 268.452 211.545 267.996 211.125C267.54 210.705 267.312 210.015 267.312 209.055V203.241H266.034V201.891H267.312V199.407H268.95V201.891H271.524V203.241H268.95ZM279.946 198.435V211.755H278.308V198.435H279.946ZM282.126 206.787C282.126 205.779 282.33 204.897 282.738 204.141C283.146 203.373 283.704 202.779 284.412 202.359C285.132 201.939 285.93 201.729 286.806 201.729C287.67 201.729 288.42 201.915 289.056 202.287C289.692 202.659 290.166 203.127 290.478 203.691V201.891H292.134V211.755H290.478V209.919C290.154 210.495 289.668 210.975 289.02 211.359C288.384 211.731 287.64 211.917 286.788 211.917C285.912 211.917 285.12 211.701 284.412 211.269C283.704 210.837 283.146 210.231 282.738 209.451C282.33 208.671 282.126 207.783 282.126 206.787ZM290.478 206.805C290.478 206.061 290.328 205.413 290.028 204.861C289.728 204.309 289.32 203.889 288.804 203.601C288.3 203.301 287.742 203.151 287.13 203.151C286.518 203.151 285.96 203.295 285.456 203.583C284.952 203.871 284.55 204.291 284.25 204.843C283.95 205.395 283.8 206.043 283.8 206.787C283.8 207.543 283.95 208.203 284.25 208.767C284.55 209.319 284.952 209.745 285.456 210.045C285.96 210.333 286.518 210.477 287.13 210.477C287.742 210.477 288.3 210.333 288.804 210.045C289.32 209.745 289.728 209.319 290.028 208.767C290.328 208.203 290.478 207.549 290.478 206.805ZM299.708 201.711C300.908 201.711 301.88 202.077 302.624 202.809C303.368 203.529 303.74 204.573 303.74 205.941V211.755H302.12V206.175C302.12 205.191 301.874 204.441 301.382 203.925C300.89 203.397 300.218 203.133 299.366 203.133C298.502 203.133 297.812 203.403 297.296 203.943C296.792 204.483 296.54 205.269 296.54 206.301V211.755H294.902V201.891H296.54V203.295C296.864 202.791 297.302 202.401 297.854 202.125C298.418 201.849 299.036 201.711 299.708 201.711ZM305.803 206.787C305.803 205.779 306.007 204.897 306.415 204.141C306.823 203.373 307.381 202.779 308.089 202.359C308.809 201.939 309.613 201.729 310.501 201.729C311.269 201.729 311.983 201.909 312.643 202.269C313.303 202.617 313.807 203.079 314.155 203.655V198.435H315.811V211.755H314.155V209.901C313.831 210.489 313.351 210.975 312.715 211.359C312.079 211.731 311.335 211.917 310.483 211.917C309.607 211.917 308.809 211.701 308.089 211.269C307.381 210.837 306.823 210.231 306.415 209.451C306.007 208.671 305.803 207.783 305.803 206.787ZM314.155 206.805C314.155 206.061 314.005 205.413 313.705 204.861C313.405 204.309 312.997 203.889 312.481 203.601C311.977 203.301 311.419 203.151 310.807 203.151C310.195 203.151 309.637 203.295 309.133 203.583C308.629 203.871 308.227 204.291 307.927 204.843C307.627 205.395 307.477 206.043 307.477 206.787C307.477 207.543 307.627 208.203 307.927 208.767C308.227 209.319 308.629 209.745 309.133 210.045C309.637 210.333 310.195 210.477 310.807 210.477C311.419 210.477 311.977 210.333 312.481 210.045C312.997 209.745 313.405 209.319 313.705 208.767C314.005 208.203 314.155 207.549 314.155 206.805ZM325.376 203.241V209.055C325.376 209.535 325.478 209.877 325.682 210.081C325.886 210.273 326.24 210.369 326.744 210.369H327.95V211.755H326.474C325.562 211.755 324.878 211.545 324.422 211.125C323.966 210.705 323.738 210.015 323.738 209.055V203.241H322.46V201.891H323.738V199.407H325.376V201.891H327.95V203.241H325.376ZM334.831 201.711C335.575 201.711 336.247 201.873 336.847 202.197C337.447 202.509 337.915 202.983 338.251 203.619C338.599 204.255 338.773 205.029 338.773 205.941V211.755H337.153V206.175C337.153 205.191 336.907 204.441 336.415 203.925C335.923 203.397 335.251 203.133 334.399 203.133C333.535 203.133 332.845 203.403 332.329 203.943C331.825 204.483 331.573 205.269 331.573 206.301V211.755H329.935V198.435H331.573V203.295C331.897 202.791 332.341 202.401 332.905 202.125C333.481 201.849 334.123 201.711 334.831 201.711ZM350.449 206.445C350.449 206.757 350.431 207.087 350.395 207.435H342.511C342.571 208.407 342.901 209.169 343.501 209.721C344.113 210.261 344.851 210.531 345.715 210.531C346.423 210.531 347.011 210.369 347.479 210.045C347.959 209.709 348.295 209.265 348.487 208.713H350.251C349.987 209.661 349.459 210.435 348.667 211.035C347.875 211.623 346.891 211.917 345.715 211.917C344.779 211.917 343.939 211.707 343.195 211.287C342.463 210.867 341.887 210.273 341.467 209.505C341.047 208.725 340.837 207.825 340.837 206.805C340.837 205.785 341.041 204.891 341.449 204.123C341.857 203.355 342.427 202.767 343.159 202.359C343.903 201.939 344.755 201.729 345.715 201.729C346.651 201.729 347.479 201.933 348.199 202.341C348.919 202.749 349.471 203.313 349.855 204.033C350.251 204.741 350.449 205.545 350.449 206.445ZM348.757 206.103C348.757 205.479 348.619 204.945 348.343 204.501C348.067 204.045 347.689 203.703 347.209 203.475C346.741 203.235 346.219 203.115 345.643 203.115C344.815 203.115 344.107 203.379 343.519 203.907C342.943 204.435 342.613 205.167 342.529 206.103H348.757ZM358.291 200.289C357.979 200.289 357.715 200.181 357.499 199.965C357.295 199.749 357.193 199.485 357.193 199.173C357.193 198.861 357.295 198.597 357.499 198.381C357.715 198.165 357.979 198.057 358.291 198.057C358.603 198.057 358.861 198.165 359.065 198.381C359.281 198.597 359.389 198.861 359.389 199.173C359.389 199.485 359.281 199.749 359.065 199.965C358.861 200.181 358.603 200.289 358.291 200.289ZM359.101 213.897C359.101 214.773 358.879 215.415 358.435 215.823C357.991 216.231 357.343 216.435 356.491 216.435H355.537V215.049H356.221C356.677 215.049 356.995 214.959 357.175 214.779C357.367 214.599 357.463 214.293 357.463 213.861V201.891H359.101V213.897ZM366.176 211.917C365.252 211.917 364.412 211.707 363.656 211.287C362.912 210.867 362.324 210.273 361.892 209.505C361.472 208.725 361.262 207.825 361.262 206.805C361.262 205.797 361.478 204.909 361.91 204.141C362.354 203.361 362.954 202.767 363.71 202.359C364.466 201.939 365.312 201.729 366.248 201.729C367.184 201.729 368.03 201.939 368.786 202.359C369.542 202.767 370.136 203.355 370.568 204.123C371.012 204.891 371.234 205.785 371.234 206.805C371.234 207.825 371.006 208.725 370.55 209.505C370.106 210.273 369.5 210.867 368.732 211.287C367.964 211.707 367.112 211.917 366.176 211.917ZM366.176 210.477C366.764 210.477 367.316 210.339 367.832 210.063C368.348 209.787 368.762 209.373 369.074 208.821C369.398 208.269 369.56 207.597 369.56 206.805C369.56 206.013 369.404 205.341 369.092 204.789C368.78 204.237 368.372 203.829 367.868 203.565C367.364 203.289 366.818 203.151 366.23 203.151C365.63 203.151 365.078 203.289 364.574 203.565C364.082 203.829 363.686 204.237 363.386 204.789C363.086 205.341 362.936 206.013 362.936 206.805C362.936 207.609 363.08 208.287 363.368 208.839C363.668 209.391 364.064 209.805 364.556 210.081C365.048 210.345 365.588 210.477 366.176 210.477ZM375.026 203.727C375.362 203.139 375.854 202.659 376.502 202.287C377.15 201.915 377.888 201.729 378.716 201.729C379.604 201.729 380.402 201.939 381.11 202.359C381.818 202.779 382.376 203.373 382.784 204.141C383.192 204.897 383.396 205.779 383.396 206.787C383.396 207.783 383.192 208.671 382.784 209.451C382.376 210.231 381.812 210.837 381.092 211.269C380.384 211.701 379.592 211.917 378.716 211.917C377.864 211.917 377.114 211.731 376.466 211.359C375.83 210.987 375.35 210.513 375.026 209.937V211.755H373.388V198.435H375.026V203.727ZM381.722 206.787C381.722 206.043 381.572 205.395 381.272 204.843C380.972 204.291 380.564 203.871 380.048 203.583C379.544 203.295 378.986 203.151 378.374 203.151C377.774 203.151 377.216 203.301 376.7 203.601C376.196 203.889 375.788 204.315 375.476 204.879C375.176 205.431 375.026 206.073 375.026 206.805C375.026 207.549 375.176 208.203 375.476 208.767C375.788 209.319 376.196 209.745 376.7 210.045C377.216 210.333 377.774 210.477 378.374 210.477C378.986 210.477 379.544 210.333 380.048 210.045C380.564 209.745 380.972 209.319 381.272 208.767C381.572 208.203 381.722 207.543 381.722 206.787ZM387.676 199.209L387.478 208.209H386.11L385.912 199.209H387.676ZM386.866 211.863C386.554 211.863 386.29 211.755 386.074 211.539C385.858 211.323 385.75 211.059 385.75 210.747C385.75 210.435 385.858 210.171 386.074 209.955C386.29 209.739 386.554 209.631 386.866 209.631C387.166 209.631 387.418 209.739 387.622 209.955C387.838 210.171 387.946 210.435 387.946 210.747C387.946 211.059 387.838 211.323 387.622 211.539C387.418 211.755 387.166 211.863 386.866 211.863Z" fill="black"/>
<path d="M549.926 191.084C546.168 211.678 529.89 228.626 508.258 232.031C486.621 235.441 466.004 224.305 456.2 205.846L454.645 206.093C464.622 225.385 486.03 237.061 508.487 233.522C530.945 229.984 547.805 212.28 551.481 190.837L549.926 191.084ZM492.525 130.402C470.067 133.941 453.212 151.645 449.531 173.082L451.086 172.835C454.849 152.251 471.117 135.304 492.759 131.894C514.391 128.489 535.013 139.619 544.817 158.069L546.372 157.822C536.39 138.539 514.988 126.859 492.53 130.397L492.525 130.402Z" fill="white"/>
<path d="M553.454 151.783C551.562 151.212 550.379 149.304 550.695 147.334C551.057 145.081 549.487 142.993 547.239 142.736C545.271 142.51 543.772 140.853 543.736 138.853C543.695 136.574 541.773 134.8 539.525 134.954C538.536 135.016 537.603 134.712 536.864 134.141C536.125 133.57 535.584 132.737 535.39 131.76C534.947 129.528 532.744 128.123 530.557 128.684C528.64 129.168 526.657 128.144 525.923 126.287C525.097 124.168 522.675 123.186 520.626 124.127C518.821 124.955 516.69 124.302 515.64 122.605C514.447 120.676 511.898 120.146 510.042 121.437C508.416 122.574 506.203 122.317 504.872 120.835C503.353 119.148 500.753 119.086 499.152 120.696C497.75 122.111 495.527 122.255 493.962 121.031C492.173 119.647 489.598 120.053 488.313 121.921C487.181 123.566 485.025 124.112 483.261 123.196C481.257 122.152 478.795 123.011 477.862 125.084C477.036 126.904 475.012 127.825 473.115 127.244C470.959 126.58 468.69 127.871 468.14 130.078C467.66 132.017 465.825 133.293 463.857 133.061C461.614 132.794 459.615 134.481 459.457 136.749C459.325 138.739 457.744 140.329 455.766 140.457C453.513 140.596 451.84 142.612 452.095 144.87C452.32 146.851 451.045 148.702 449.128 149.181C446.941 149.726 445.651 152.004 446.299 154.19C446.859 156.104 445.942 158.145 444.127 158.963C442.465 159.724 441.578 161.489 441.843 163.212C441.904 163.623 442.031 164.024 442.225 164.405C443.128 166.179 442.582 168.36 440.945 169.492C439.268 170.659 438.774 172.871 439.686 174.62L447.186 173.437C450.744 150.718 468.44 131.899 492.178 128.159C515.915 124.42 538.449 136.903 548.702 157.446L556.201 156.263C556.553 154.314 555.401 152.359 553.454 151.768V151.783ZM560.785 189.376L553.821 190.472C550.262 213.195 532.576 232.01 508.829 235.749C485.081 239.488 462.547 227.01 452.294 206.463L445.304 207.563C446.518 208.119 447.334 209.261 447.532 210.546C447.614 211.071 447.589 211.606 447.456 212.146C446.895 214.353 448.277 216.58 450.484 217.043C452.427 217.439 453.768 219.228 453.63 221.224C453.467 223.497 455.221 225.437 457.479 225.493C459.457 225.534 461.099 227.057 461.308 229.042C461.318 229.104 461.318 229.171 461.328 229.227C461.665 231.393 463.684 232.889 465.85 232.545C467.808 232.236 469.694 233.44 470.255 235.353C470.898 237.539 473.212 238.732 475.343 237.981C477.209 237.318 479.274 238.166 480.171 239.951C481.181 241.978 483.679 242.739 485.642 241.618C486.065 241.376 486.519 241.222 486.978 241.15C488.374 240.928 489.838 241.484 490.735 242.682C492.091 244.503 494.681 244.796 496.414 243.341C497.934 242.06 500.167 242.117 501.615 243.474C503.277 245.017 505.872 244.843 507.32 243.094C508.589 241.566 510.786 241.216 512.459 242.286C514.365 243.505 516.899 242.873 518.005 240.892C518.984 239.149 521.085 238.413 522.92 239.164C525.016 240.018 527.386 238.943 528.136 236.793C528.793 234.911 530.726 233.8 532.668 234.216C534.876 234.679 537.017 233.188 537.374 230.945C537.68 228.97 539.398 227.53 541.376 227.586C543.629 227.643 545.475 225.791 545.429 223.518C545.409 222.52 545.75 221.594 546.352 220.874C546.943 220.154 547.789 219.645 548.768 219.491C551.001 219.146 552.485 216.986 552.036 214.759C552.026 214.697 552.011 214.641 552.001 214.579C551.705 212.686 552.801 210.829 554.616 210.202C556.742 209.456 557.828 207.064 556.992 204.95C556.252 203.094 556.992 200.975 558.72 200.002C560.693 198.881 561.325 196.335 560.127 194.406C559.118 192.786 559.408 190.677 560.775 189.381L560.785 189.376Z" fill="white"/>
<path d="M528.788 194.416C524.694 203.844 516.073 211.035 505.265 212.732C494.461 214.434 484.066 210.237 477.321 202.522L475.593 202.795C482.633 211.348 493.834 216.065 505.499 214.224C517.154 212.387 526.397 204.451 530.521 194.139L528.793 194.411L528.788 194.416ZM495.512 149.694C483.847 151.531 474.609 159.467 470.484 169.779L472.213 169.507C476.307 160.079 484.938 152.889 495.741 151.186C506.544 149.484 516.929 153.681 523.679 161.401L525.408 161.128C518.367 152.575 507.166 147.858 495.512 149.694Z" fill="white"/>
<path d="M479.93 202.152C486.201 208.638 495.382 212.074 504.931 210.572C514.475 209.07 522.184 202.975 526.196 194.869L479.93 202.157V202.152Z" fill="white"/>
<path d="M521.107 161.808L474.789 169.106C478.796 160.98 486.51 154.864 496.079 153.357C505.644 151.85 514.836 155.302 521.107 161.813V161.808Z" fill="white"/>
<path d="M564.586 157.257L432 178.132L432.231 179.626L564.817 158.751L564.586 157.257Z" fill="white"/>
<path d="M568.774 184.309L436.188 205.184L436.419 206.678L569.005 185.803L568.774 184.309Z" fill="white"/>
<path d="M479.309 222.073C479.207 221.389 479.39 220.576 479.854 219.63L481.251 216.78C481.725 215.813 482.271 215.176 482.888 214.857C483.504 214.543 484.264 214.61 485.166 215.062C486.033 215.494 486.548 216.019 486.706 216.631C486.864 217.243 486.747 217.953 486.349 218.755L486.105 219.249L484.437 218.416L484.733 217.814C484.927 217.423 485.024 217.11 485.029 216.883C485.034 216.657 484.881 216.461 484.575 216.312C484.264 216.158 484.009 216.163 483.815 216.328C483.622 216.492 483.428 216.775 483.229 217.176L481.373 220.957C481.18 221.358 481.083 221.692 481.088 221.96C481.093 222.227 481.251 222.438 481.557 222.592C481.853 222.742 482.123 222.731 482.352 222.567C482.587 222.402 482.801 222.114 483 221.708L483.443 220.802L482.622 220.391L483.137 219.342L485.513 220.53L483.367 224.902L482.24 224.341L482.495 223.528C481.949 223.986 481.343 224.053 480.675 223.719C479.854 223.307 479.395 222.762 479.293 222.078L479.309 222.073Z" fill="white"/>
<path d="M486.507 225.797C486.196 225.452 486.027 225.041 485.997 224.562C485.971 224.079 486.053 223.503 486.252 222.829L488.087 216.605L489.892 217.146L487.98 223.631C487.852 224.063 487.801 224.423 487.832 224.701C487.863 224.979 488.041 225.169 488.367 225.267C488.694 225.365 488.944 225.308 489.122 225.092C489.3 224.876 489.453 224.552 489.581 224.115L491.493 217.629L493.308 218.174L491.472 224.398C491.273 225.071 491.034 225.601 490.748 225.992C490.463 226.378 490.096 226.63 489.647 226.743C489.198 226.856 488.638 226.815 487.97 226.615C487.302 226.414 486.812 226.141 486.501 225.802L486.507 225.797Z" fill="white"/>
<path d="M495.279 218.446L497.39 218.714L498.022 228.363L496.268 228.142L496.177 226.028L494.698 225.842L494.086 227.869L492.297 227.643L495.274 218.446H495.279ZM496.146 224.814L496.049 220.951L495.024 224.675L496.141 224.814H496.146Z" fill="white"/>
<path d="M499.5 218.929L501.937 218.821C502.952 218.775 503.721 218.929 504.246 219.284C504.772 219.639 505.057 220.272 505.098 221.193C505.123 221.81 505.062 222.309 504.904 222.7C504.751 223.085 504.461 223.384 504.037 223.6L505.536 228.172L503.573 228.26L502.324 224.006L501.626 224.037L501.81 228.337L499.908 228.419L499.505 218.929H499.5ZM502.146 222.864C502.595 222.844 502.906 222.72 503.079 222.489C503.252 222.257 503.329 221.902 503.308 221.429C503.288 220.961 503.191 220.622 503.018 220.411C502.844 220.2 502.549 220.102 502.12 220.123L501.458 220.154L501.575 222.895L502.146 222.869V222.864Z" fill="white"/>
<path d="M506.953 218.297L509.033 217.854L512.745 226.773L511.016 227.138L510.252 225.168L508.794 225.477L508.865 227.596L507.101 227.972L506.953 218.297ZM509.823 224.037L508.488 220.416L508.722 224.273L509.823 224.042V224.037Z" fill="white"/>
<path d="M511.109 217.356L512.358 216.868L516.075 220.71L514.311 216.107L515.795 215.525L519.19 224.382L517.987 224.85L514.158 220.71L516.034 225.612L514.505 226.208L511.109 217.351V217.356Z" fill="white"/>
<path d="M518.007 215.926L516.743 216.652L516.039 215.407L520.22 213.005L520.923 214.25L519.679 214.965L523.635 221.975L521.958 222.937L518.002 215.926H518.007Z" fill="white"/>
<path d="M520.484 212.784L523.752 210.284L524.553 211.349L522.804 212.686L524.313 214.697L525.664 213.663L526.47 214.738L525.119 215.772L526.903 218.148L528.672 216.796L529.457 217.845L526.169 220.36L520.484 212.789V212.784Z" fill="white"/>
<path d="M524.109 209.939L527.031 207.033L527.964 207.985L526.398 209.543L528.152 211.338L529.361 210.135L530.299 211.096L529.09 212.3L531.165 214.419L532.746 212.845L533.658 213.781L530.722 216.703L524.109 209.944V209.939Z" fill="white"/>
<path d="M453.091 198.438C451.836 199.102 449.425 200.13 446.917 200.526C443.45 201.077 440.804 200.593 438.785 199.163C436.781 197.79 435.43 195.439 435.017 192.621C434.054 186.243 438.076 181.876 444.311 180.884C446.764 180.493 448.726 180.678 449.731 180.987L449.369 184.602C448.252 184.314 446.901 184.15 444.811 184.479C441.232 185.05 438.841 187.524 439.494 191.68C440.11 195.635 442.93 197.574 446.453 197.018C447.442 196.864 448.212 196.622 448.523 196.396L447.895 192.384L444.964 192.852L444.434 189.468L451.51 188.342L453.085 198.438H453.091Z" fill="white"/>
<path d="M466.625 188.887L459.635 189.998L460.344 194.55L468.154 193.31L468.71 196.865L456.586 198.788L453.594 179.619L465.325 177.757L465.881 181.311L458.468 182.489L459.09 186.47L466.079 185.359L466.63 188.887H466.625Z" fill="white"/>
<path d="M473.021 180.262L467.917 181.074L467.352 177.433L481.958 175.113L482.529 178.755L477.339 179.578L479.761 195.111L475.448 195.795L473.026 180.262H473.021Z" fill="white"/>
<path d="M494.246 173.159L495.398 180.524L502.474 179.398L501.327 172.032L505.615 171.354L508.607 190.523L504.32 191.202L503.065 183.178L495.989 184.305L497.243 192.328L492.93 193.012L489.938 173.843L494.251 173.159H494.246Z" fill="white"/>
<path d="M513.665 170.072L516.657 189.242L512.344 189.926L509.352 170.756L513.665 170.072Z" fill="white"/>
<path d="M517.43 169.738C518.776 169.291 520.805 168.792 523.089 168.432C525.908 167.984 527.947 168.097 529.472 168.961C530.741 169.692 531.572 170.931 531.848 172.696C532.23 175.144 530.772 177.093 529.232 177.952L529.247 178.04C530.655 178.369 531.588 179.531 532.342 181.223C533.27 183.291 534.254 185.698 534.738 186.382L530.338 187.082C529.946 186.593 529.247 185.096 528.314 182.828C527.432 180.519 526.515 179.994 524.761 180.246L523.466 180.452L524.644 187.992L520.387 188.666L517.435 169.748L517.43 169.738ZM522.977 177.309L524.669 177.042C526.81 176.702 527.912 175.416 527.652 173.74C527.376 171.975 526.056 171.281 524.078 171.569C523.033 171.734 522.457 171.914 522.156 172.022L522.982 177.314L522.977 177.309Z" fill="white"/>
<path d="M547.14 176.095L540.151 177.206L540.859 181.758L548.67 180.518L549.226 184.073L537.102 185.996L534.109 166.827L545.84 164.965L546.396 168.519L538.983 169.697L539.605 173.678L546.595 172.567L547.146 176.095H547.14Z" fill="white"/>
<path d="M549.211 164.693C550.751 164.184 552.785 163.715 554.957 163.371C558.566 162.8 561.008 163.078 563.058 164.184C565.26 165.351 566.871 167.511 567.401 170.896C567.972 174.563 567.045 177.309 565.454 179.161C563.715 181.157 560.794 182.437 557.072 183.029C554.844 183.384 553.244 183.492 552.148 183.518L549.211 164.688V164.693ZM555.966 179.65C556.343 179.675 556.94 179.583 557.475 179.495C561.37 178.904 563.573 176.343 562.854 171.76C562.262 167.774 559.622 166.035 555.925 166.622C554.967 166.776 554.36 166.956 554.008 167.1L555.966 179.645V179.65Z" fill="white"/>
<path d="M476.597 141.851H476.566L474.767 143.096L474.094 141.357L476.592 139.665L478.565 139.352L480.171 149.633L477.866 149.998L476.597 141.851Z" fill="white"/>
<path d="M490.238 142.716C490.733 145.894 489.805 148.281 487.205 148.692C484.569 149.109 483.04 146.908 482.571 144.002C482.107 141.029 482.994 138.472 485.625 138.056C488.352 137.624 489.8 139.902 490.238 142.721V142.716ZM484.967 143.616C485.319 145.977 486.058 147.01 486.986 146.861C487.909 146.712 488.23 145.462 487.863 143.122C487.506 140.843 486.833 139.717 485.879 139.871C485.003 140.01 484.579 141.229 484.972 143.616H484.967Z" fill="white"/>
<path d="M498.942 141.332C499.436 144.51 498.508 146.897 495.908 147.308C493.272 147.725 491.743 145.524 491.274 142.618C490.81 139.645 491.697 137.089 494.328 136.672C497.055 136.24 498.503 138.518 498.942 141.337V141.332ZM493.67 142.237C494.022 144.598 494.761 145.632 495.689 145.483C496.612 145.333 496.933 144.084 496.566 141.743C496.209 139.465 495.536 138.338 494.583 138.493C493.706 138.632 493.283 139.851 493.67 142.237Z" fill="white"/>
<path d="M505.135 138.081C505.472 140.231 504.299 141.568 502.826 141.805C501.276 142.052 499.869 141.075 499.568 139.146C499.282 137.31 500.18 135.741 501.918 135.468C503.672 135.191 504.865 136.327 505.14 138.086L505.135 138.081ZM501.327 138.796C501.495 139.871 501.974 140.591 502.668 140.478C503.341 140.37 503.56 139.624 503.381 138.467C503.218 137.423 502.81 136.662 502.071 136.78C501.368 136.893 501.164 137.767 501.327 138.796ZM503.621 146.084L507.812 134.527L509.097 134.321L504.89 145.879L503.621 146.079V146.084ZM513.139 141.183C513.476 143.333 512.303 144.67 510.83 144.906C509.295 145.148 507.888 144.176 507.572 142.247C507.287 140.411 508.184 138.842 509.922 138.57C511.676 138.292 512.869 139.429 513.145 141.188L513.139 141.183ZM509.346 141.898C509.499 142.978 509.979 143.693 510.672 143.585C511.345 143.477 511.564 142.731 511.386 141.573C511.223 140.529 510.83 139.763 510.096 139.881C509.377 139.994 509.188 140.869 509.351 141.898H509.346Z" fill="white"/>
<defs>
<linearGradient id="paint0_linear_2864_153" x1="311" y1="0" x2="311" y2="296.17" gradientUnits="userSpaceOnUse">
<stop stop-color="#E3F6FC"/>
<stop offset="1" stop-color="#24CDFF"/>
</linearGradient>
</defs>
</svg>
