<svg width="137" height="126" viewBox="0 0 137 126" fill="none" xmlns="http://www.w3.org/2000/svg">
<path d="M117.926 71.6208C114.168 92.2149 97.8898 109.162 76.2579 112.567C54.621 115.977 34.0037 104.842 24.1998 86.3823L22.6448 86.6292C32.622 105.922 54.0296 117.598 76.4873 114.059C98.9451 110.52 115.805 92.8167 119.481 71.3739L117.926 71.6208ZM60.5247 10.9389C38.067 14.4776 21.2122 32.1812 17.5312 53.6189L19.0862 53.372C22.8487 32.7881 39.1172 15.8406 60.7593 12.4305C82.3911 9.02561 103.013 20.1559 112.817 38.6053L114.372 38.3584C104.39 19.0758 82.9876 7.39515 60.5298 10.9338L60.5247 10.9389Z" fill="white"/>
<path d="M121.455 32.3202C119.564 31.7493 118.381 29.8411 118.697 27.8711C119.059 25.6183 117.489 23.5301 115.241 23.2729C113.273 23.0466 111.774 21.3905 111.738 19.3897C111.697 17.1112 109.775 15.3367 107.527 15.491C106.538 15.5527 105.605 15.2492 104.866 14.6783C104.127 14.1074 103.586 13.2742 103.392 12.2969C102.949 10.0647 100.746 8.66055 98.5593 9.22118C96.6423 9.70466 94.6591 8.68112 93.925 6.82436C93.0991 4.70528 90.6774 3.72289 88.6279 4.66413C86.8231 5.49222 84.6921 4.839 83.6418 3.14168C82.4488 1.21291 79.8997 0.683139 78.0439 1.97413C76.4176 3.11082 74.205 2.85365 72.8743 1.37235C71.355 -0.314681 68.7549 -0.376402 67.1541 1.23348C65.7521 2.64792 63.5292 2.79193 61.9641 1.5678C60.1746 0.184229 57.6 0.590557 56.3152 2.45761C55.1834 4.1035 53.0269 4.6487 51.2629 3.73317C49.2593 2.68906 46.7968 3.54801 45.8638 5.6208C45.0379 7.44156 43.0139 8.36223 41.1174 7.78103C38.9608 7.11753 36.6921 8.40852 36.1415 10.615C35.6622 12.5541 33.8269 13.8297 31.859 13.5982C29.6157 13.3308 27.6172 15.0178 27.4592 17.286C27.3266 19.2765 25.7462 20.8658 23.768 20.9944C21.5146 21.1333 19.8424 23.1495 20.0973 25.4075C20.3216 27.3877 19.0471 29.2393 17.1301 29.7176C14.943 30.2628 13.6531 32.5413 14.3006 34.7273C14.8614 36.6406 13.9437 38.6826 12.1288 39.5004C10.4667 40.2616 9.57963 42.0258 9.84474 43.7488C9.90592 44.1603 10.0334 44.5615 10.2271 44.9421C11.1295 46.7166 10.584 48.8974 8.94745 50.0289C7.27013 51.1965 6.7756 53.4081 7.68818 55.1569L15.1877 53.9739C18.7463 31.2555 36.4423 12.4358 60.1797 8.69655C83.9171 4.9573 106.451 17.4403 116.704 37.9831L124.203 36.8001C124.555 34.8507 123.403 32.8962 121.455 32.3047V32.3202ZM128.787 69.9133L121.823 71.0088C118.264 93.7324 100.578 112.547 76.8306 116.286C53.0829 120.025 30.5487 107.548 20.2961 86.9996L13.3064 88.1003C14.5198 88.6558 15.3355 89.7977 15.5344 91.0835C15.616 91.6081 15.5905 92.1431 15.4579 92.6831C14.8971 94.8896 16.2787 97.1167 18.4863 97.5796C20.4287 97.9757 21.7695 99.7656 21.6319 101.761C21.4687 104.035 23.2225 105.974 25.4811 106.03C27.4592 106.071 29.1008 107.594 29.3098 109.579C29.32 109.641 29.32 109.708 29.3302 109.764C29.6667 111.93 31.6856 113.426 33.8524 113.082C35.8101 112.773 37.6964 113.977 38.2572 115.89C38.8996 118.076 41.2142 119.269 43.3453 118.518C45.2113 117.855 47.276 118.704 48.1733 120.488C49.1828 122.515 51.6809 123.276 53.6437 122.155C54.0669 121.913 54.5206 121.759 54.9795 121.687C56.3764 121.466 57.8396 122.021 58.7369 123.219C60.093 125.04 62.6829 125.333 64.4163 123.878C65.9356 122.597 68.1686 122.654 69.6165 124.012C71.2786 125.555 73.8736 125.38 75.3215 123.631C76.5909 122.103 78.7883 121.754 80.4605 122.823C82.3673 124.042 84.9011 123.41 86.0074 121.43C86.9863 119.686 89.0867 118.95 90.9221 119.701C93.0175 120.555 95.3882 119.48 96.1376 117.33C96.7953 115.448 98.7275 114.337 100.67 114.753C102.877 115.216 105.019 113.725 105.376 111.482C105.682 109.507 107.4 108.067 109.378 108.124C111.631 108.18 113.477 106.329 113.431 104.055C113.41 103.057 113.752 102.132 114.354 101.411C114.945 100.691 115.791 100.182 116.77 100.028C119.003 99.6833 120.487 97.523 120.038 95.2959C120.028 95.2342 120.013 95.1777 120.002 95.1159C119.707 93.2232 120.803 91.3664 122.618 90.7389C124.744 89.9931 125.83 87.6014 124.994 85.4875C124.254 83.6307 124.994 81.5116 126.722 80.5395C128.695 79.4183 129.327 76.8723 128.129 74.9435C127.12 73.3233 127.41 71.2146 128.777 69.9184L128.787 69.9133Z" fill="white"/>
<path d="M96.7898 74.9539C92.6959 84.3818 84.0748 91.5723 73.2665 93.2696C62.4634 94.972 52.068 90.775 45.3231 83.0599L43.5948 83.3325C50.6354 91.886 61.8363 96.6025 73.5011 94.7612C85.1556 92.925 94.3988 84.9887 98.5232 74.6762L96.7949 74.9488L96.7898 74.9539ZM63.5136 30.2321C51.8488 32.0683 42.6108 40.0046 38.4863 50.3171L40.2146 50.0445C44.3085 40.6166 52.9398 33.4261 63.743 31.7237C74.5462 30.0212 84.9313 34.2182 91.6814 41.9385L93.4097 41.6659C86.369 33.1124 75.1682 28.3959 63.5136 30.2321Z" fill="white"/>
<path d="M47.9277 82.6893C54.1986 89.1751 63.3805 92.6109 72.9295 91.109C82.4734 89.6072 90.182 83.5122 94.1943 75.4062L47.9277 82.6944V82.6893Z" fill="white"/>
<path d="M89.1066 42.3446L42.7891 49.643C46.7963 41.5165 54.5099 35.401 64.0793 33.894C73.6436 32.3869 82.8358 35.8382 89.1066 42.3497V42.3446Z" fill="white"/>
<path d="M132.586 37.7944L0 58.6689L0.231117 60.163L132.817 39.2885L132.586 37.7944Z" fill="white"/>
<path d="M136.772 64.8461L4.18555 85.7207L4.41666 87.2148L137.003 66.3402L136.772 64.8461Z" fill="white"/>
<path d="M47.3105 102.61C47.2086 101.926 47.3921 101.113 47.8561 100.167L49.253 97.3174C49.7271 96.3505 50.2726 95.7127 50.8895 95.3938C51.5064 95.0801 52.266 95.1469 53.1684 95.5995C54.0351 96.0316 54.5501 96.5562 54.7081 97.1683C54.8661 97.7803 54.7489 98.4901 54.3512 99.2925L54.1065 99.7863L52.4394 98.953L52.7351 98.3513C52.9288 97.9604 53.0257 97.6466 53.0308 97.4203C53.0359 97.194 52.8829 96.9985 52.577 96.8494C52.266 96.6951 52.0111 96.7002 51.8174 96.8648C51.6237 97.0294 51.4299 97.3123 51.2311 97.7135L49.3753 101.494C49.1816 101.895 49.0847 102.229 49.0898 102.497C49.0949 102.764 49.253 102.975 49.5589 103.129C49.8546 103.279 50.1248 103.268 50.3542 103.104C50.5887 102.939 50.8028 102.651 51.0017 102.245L51.4452 101.34L50.6244 100.928L51.1393 99.8789L53.5151 101.067L51.3687 105.439L50.242 104.878L50.4969 104.066C49.9514 104.523 49.3447 104.59 48.6769 104.256C47.8561 103.844 47.3972 103.299 47.2953 102.615L47.3105 102.61Z" fill="white"/>
<path d="M54.5085 106.334C54.1975 105.989 54.0293 105.578 53.9987 105.099C53.9732 104.616 54.0548 104.04 54.2536 103.366L56.089 97.1426L57.8937 97.6826L55.9819 104.168C55.8544 104.6 55.8035 104.961 55.834 105.238C55.8646 105.516 56.0431 105.706 56.3694 105.804C56.6956 105.902 56.9455 105.845 57.1239 105.629C57.3023 105.413 57.4553 105.089 57.5827 104.652L59.4946 98.1661L61.3096 98.7113L59.4742 104.935C59.2754 105.609 59.0357 106.138 58.7502 106.529C58.4647 106.915 58.0977 107.167 57.649 107.28C57.2004 107.393 56.6396 107.352 55.9717 107.152C55.3038 106.951 54.8144 106.678 54.5034 106.339L54.5085 106.334Z" fill="white"/>
<path d="M63.2774 98.9839L65.3881 99.2513L66.0203 108.9L64.2665 108.679L64.1747 106.565L62.6962 106.38L62.0844 108.407L60.2949 108.18L63.2723 98.9839H63.2774ZM64.1441 105.351L64.0472 101.489L63.0225 105.213L64.139 105.351H64.1441Z" fill="white"/>
<path d="M67.5 99.4676L69.937 99.3596C70.9515 99.3133 71.7213 99.4676 72.2465 99.8225C72.7716 100.177 73.0571 100.81 73.0979 101.731C73.1234 102.348 73.0622 102.847 72.9041 103.238C72.7512 103.623 72.4606 103.922 72.0374 104.138L73.5363 108.71L71.5735 108.798L70.3244 104.544L69.626 104.575L69.8095 108.875L67.9079 108.957L67.5051 99.4676H67.5ZM70.146 103.402C70.5946 103.382 70.9056 103.258 71.079 103.027C71.2523 102.795 71.3288 102.44 71.3084 101.967C71.288 101.499 71.1911 101.16 71.0178 100.949C70.8444 100.738 70.5487 100.64 70.1205 100.661L69.4577 100.692L69.575 103.433L70.146 103.407V103.402Z" fill="white"/>
<path d="M74.959 98.8349L77.0391 98.3926L80.7506 107.311L79.0223 107.676L78.2575 105.706L76.7995 106.015L76.8708 108.134L75.1068 108.51L74.959 98.8349ZM77.8293 104.575L76.4936 100.954L76.7281 104.812L77.8293 104.58V104.575Z" fill="white"/>
<path d="M79.1133 97.8935L80.3623 97.4049L84.079 101.247L82.315 96.6437L83.7986 96.0625L87.194 104.919L85.9908 105.387L82.162 101.247L84.0382 106.149L82.5087 106.745L79.1133 97.8884V97.8935Z" fill="white"/>
<path d="M86.007 96.4639L84.7426 97.1891L84.0391 95.9444L88.2196 93.5425L88.9232 94.7872L87.6792 95.5021L91.6354 102.513L89.9581 103.474L86.0019 96.4639H86.007Z" fill="white"/>
<path d="M88.4844 93.321L91.7524 90.8213L92.5528 91.886L90.8041 93.2233L92.3132 95.2343L93.6642 94.2005L94.4697 95.2755L93.1187 96.3093L94.9031 98.6855L96.6722 97.3328L97.4573 98.3821L94.1689 100.897L88.4844 93.3261V93.321Z" fill="white"/>
<path d="M92.1094 90.4768L95.0307 87.5708L95.9636 88.5223L94.3985 90.0808L96.1523 91.8758L97.3606 90.6723L98.2986 91.6341L97.0904 92.8376L99.1653 94.9567L100.746 93.3828L101.658 94.3189L98.7218 97.2404L92.1094 90.482V90.4768Z" fill="white"/>
<path d="M21.0905 78.9757C19.8364 79.6392 17.4249 80.6678 14.9166 81.0639C11.4498 81.6142 8.80377 81.1308 6.78487 79.7009C4.78126 78.3276 3.43022 75.9771 3.01727 73.1585C2.0537 66.7807 6.07621 62.4139 12.3114 61.4213C14.7636 61.0304 16.7264 61.2155 17.7308 61.5241L17.3688 65.1399C16.2523 64.8519 14.9013 64.6873 12.811 65.0165C9.23203 65.5874 6.84095 68.0614 7.49352 72.2172C8.11041 76.1725 10.9297 78.1116 14.4526 77.5561C15.4417 77.4018 16.2115 77.1601 16.5225 76.9337L15.8954 72.9219L12.9639 73.3899L12.4337 70.0056L19.5101 68.8792L21.0854 78.9757H21.0905Z" fill="white"/>
<path d="M34.621 69.4243L27.6313 70.5352L28.3399 75.0871L36.1504 73.8476L36.7061 77.4017L24.5825 79.3253L21.5898 60.1559L33.3209 58.2939L33.8766 61.848L26.4638 63.0259L27.0857 67.0069L34.0754 65.8959L34.6261 69.4243H34.621Z" fill="white"/>
<path d="M41.0189 60.7989L35.9155 61.6116L35.3496 57.9701L49.9561 55.6504L50.5271 59.2919L45.3371 60.1149L47.7587 75.6479L43.4456 76.332L41.024 60.7989H41.0189Z" fill="white"/>
<path d="M62.2436 53.696L63.3958 61.0613L70.4721 59.9349L69.325 52.5696L73.6126 51.8906L76.6053 71.0601L72.3177 71.739L71.0635 63.7153L63.9872 64.8417L65.2413 72.8654L60.9282 73.5495L57.9355 54.38L62.2487 53.696H62.2436Z" fill="white"/>
<path d="M81.6686 50.6099L84.6613 69.7793L80.3481 70.4634L77.3555 51.2939L81.6686 50.6099Z" fill="white"/>
<path d="M85.4297 50.2757C86.7756 49.8282 88.8047 49.3293 91.0887 48.9693C93.9081 48.5218 95.9474 48.6349 97.4717 49.499C98.7412 50.2294 99.5722 51.469 99.8475 53.2331C100.23 55.6814 98.7718 57.6307 97.2321 58.4897L97.2474 58.5771C98.6545 58.9063 99.5875 60.0687 100.342 61.7609C101.27 63.8285 102.254 66.2356 102.738 66.9197L98.3384 67.6192C97.9459 67.1306 97.2474 65.6339 96.3144 63.3656C95.4324 61.0562 94.5148 60.5316 92.761 60.7836L91.466 60.9894L92.6437 68.5296L88.3867 69.2034L85.4348 50.286L85.4297 50.2757ZM90.9766 57.8468L92.6692 57.5793C94.8105 57.2398 95.9117 55.954 95.6517 54.2772C95.3764 52.5131 94.0559 51.8187 92.0778 52.1067C91.0327 52.2713 90.4566 52.4513 90.1558 52.5594L90.9817 57.8519L90.9766 57.8468Z" fill="white"/>
<path d="M115.142 56.6328L108.153 57.7437L108.861 62.2956L116.672 61.0561L117.228 64.6102L105.104 66.5338L102.111 47.3644L113.842 45.5024L114.398 49.0565L106.985 50.2344L107.607 54.2154L114.597 53.1044L115.148 56.6328H115.142Z" fill="white"/>
<path d="M117.207 45.2298C118.747 44.7206 120.781 44.2526 122.953 43.908C126.562 43.3371 129.004 43.6148 131.054 44.7206C133.256 45.8882 134.867 48.0484 135.398 51.4328C135.969 55.1 135.041 57.8466 133.45 59.6982C131.712 61.6939 128.79 62.9746 125.069 63.566C122.841 63.9209 121.24 64.029 120.144 64.0547L117.207 45.2247V45.2298ZM123.962 60.1868C124.339 60.2126 124.936 60.12 125.471 60.0325C129.366 59.441 131.569 56.8796 130.85 52.2969C130.259 48.3107 127.618 46.5723 123.921 47.1586C122.963 47.3129 122.356 47.4929 122.004 47.6369L123.962 60.1817V60.1868Z" fill="white"/>
<path d="M44.597 22.3884H44.5664L42.7667 23.6331L42.0938 21.8946L44.5919 20.2024L46.5649 19.8887L48.1709 30.1703L45.8665 30.5355L44.597 22.3884Z" fill="white"/>
<path d="M58.2404 23.2523C58.7349 26.4309 57.8071 28.8174 55.207 29.2289C52.5712 29.6455 51.0417 27.4441 50.5726 24.5381C50.1087 21.5652 50.9958 19.009 53.6265 18.5924C56.3541 18.1603 57.802 20.4388 58.2404 23.2574V23.2523ZM52.9688 24.1524C53.3206 26.5132 54.0598 27.547 54.9877 27.3979C55.9105 27.2487 56.2317 25.9988 55.8646 23.6586C55.5077 21.3801 54.8348 20.2537 53.8814 20.408C53.0045 20.5468 52.5814 21.7658 52.9739 24.1524H52.9688Z" fill="white"/>
<path d="M66.9435 21.869C67.4381 25.0476 66.5102 27.4341 63.9101 27.8456C61.2743 28.2622 59.7448 26.0608 59.2758 23.1548C58.8118 20.1819 59.6989 17.6257 62.3296 17.2091C65.0572 16.777 66.5051 19.0555 66.9435 21.8741V21.869ZM61.6719 22.7742C62.0237 25.135 62.763 26.1689 63.6909 26.0197C64.6136 25.8705 64.9348 24.6207 64.5677 22.2804C64.2109 20.0019 63.5379 18.8755 62.5845 19.0298C61.7076 19.1687 61.2845 20.3877 61.6719 22.7742Z" fill="white"/>
<path d="M73.1372 18.6182C73.4736 20.7682 72.3011 22.1054 70.8277 22.342C69.2778 22.5889 67.8707 21.6117 67.5699 19.6829C67.2844 17.8467 68.1817 16.278 69.9202 16.0054C71.674 15.7276 72.867 16.8643 73.1423 18.6234L73.1372 18.6182ZM69.3288 19.3332C69.497 20.4081 69.9763 21.1282 70.6696 21.015C71.3426 20.907 71.5618 20.1612 71.3834 19.004C71.2202 17.9599 70.8124 17.1986 70.0731 17.3169C69.3696 17.4301 69.1656 18.3045 69.3288 19.3332ZM71.623 26.6214L75.8137 15.0641L77.0985 14.8584L72.8924 26.4156L71.623 26.6162V26.6214ZM81.1414 21.7197C81.4779 23.8696 80.3053 25.2069 78.8319 25.4435C77.2973 25.6853 75.8902 24.7131 75.5741 22.7844C75.2886 20.9482 76.1859 19.3794 77.9244 19.1068C79.6782 18.8291 80.8712 19.9658 81.1465 21.7248L81.1414 21.7197ZM77.3483 22.4346C77.5013 23.5147 77.9805 24.2297 78.6739 24.1217C79.3468 24.0136 79.5661 23.2679 79.3876 22.1106C79.2245 21.0665 78.8319 20.3001 78.0977 20.4184C77.3789 20.5316 77.1903 21.4059 77.3534 22.4346H77.3483Z" fill="white"/>
</svg>
