<svg width="15" height="16" viewBox="0 0 15 16" fill="none" xmlns="http://www.w3.org/2000/svg">
<path d="M11.6802 8.43375L8.39957 7.225L7.19082 3.94438C7.12925 3.77746 7.018 3.63343 6.87205 3.5317C6.7261 3.42997 6.55247 3.37543 6.37457 3.37543C6.19666 3.37543 6.02303 3.42997 5.87708 3.5317C5.73113 3.63343 5.61988 3.77746 5.55832 3.94438L4.34957 7.225L1.06894 8.43375C0.902028 8.49531 0.758 8.60657 0.65627 8.75252C0.55454 8.89847 0.5 9.07209 0.5 9.25C0.5 9.42791 0.55454 9.60153 0.65627 9.74748C0.758 9.89343 0.902028 10.0047 1.06894 10.0662L4.34957 11.275L5.55832 14.5556C5.61988 14.7225 5.73113 14.8666 5.87708 14.9683C6.02303 15.07 6.19666 15.1246 6.37457 15.1246C6.55247 15.1246 6.7261 15.07 6.87205 14.9683C7.018 14.8666 7.12925 14.7225 7.19082 14.5556L8.39957 11.275L11.6802 10.0662C11.8471 10.0047 11.9911 9.89343 12.0929 9.74748C12.1946 9.60153 12.2491 9.42791 12.2491 9.25C12.2491 9.07209 12.1946 8.89847 12.0929 8.75252C11.9911 8.60657 11.8471 8.49531 11.6802 8.43375ZM11.4208 9.3625L7.97832 10.6313C7.92733 10.65 7.88102 10.6796 7.8426 10.718C7.80418 10.7565 7.77457 10.8028 7.75582 10.8538L6.48707 14.2963C6.47854 14.3192 6.46319 14.339 6.44308 14.353C6.42297 14.367 6.39906 14.3745 6.37457 14.3745C6.35007 14.3745 6.32616 14.367 6.30605 14.353C6.28594 14.339 6.27059 14.3192 6.26207 14.2963L4.99332 10.8538C4.97456 10.8028 4.94495 10.7565 4.90653 10.718C4.86812 10.6796 4.82181 10.65 4.77082 10.6313L1.32832 9.3625C1.30535 9.35398 1.28555 9.33863 1.27156 9.31852C1.25757 9.29841 1.25008 9.2745 1.25008 9.25C1.25008 9.2255 1.25757 9.20159 1.27156 9.18148C1.28555 9.16137 1.30535 9.14602 1.32832 9.1375L4.77082 7.86875C4.82181 7.85 4.86812 7.82038 4.90653 7.78197C4.94495 7.74355 4.97456 7.69724 4.99332 7.64625L6.26207 4.20375C6.27059 4.18078 6.28594 4.16098 6.30605 4.14699C6.32616 4.13301 6.35007 4.12551 6.37457 4.12551C6.39906 4.12551 6.42297 4.13301 6.44308 4.14699C6.46319 4.16098 6.47854 4.18078 6.48707 4.20375L7.75582 7.64625C7.77457 7.69724 7.80418 7.74355 7.8426 7.78197C7.88102 7.82038 7.92733 7.85 7.97832 7.86875L11.4208 9.1375C11.4438 9.14602 11.4636 9.16137 11.4776 9.18148C11.4916 9.20159 11.4991 9.2255 11.4991 9.25C11.4991 9.2745 11.4916 9.29841 11.4776 9.31852C11.4636 9.33863 11.4438 9.35398 11.4208 9.3625ZM8.49957 2.75C8.49957 2.65054 8.53908 2.55516 8.6094 2.48483C8.67973 2.41451 8.77511 2.375 8.87457 2.375H9.99957V1.25C9.99957 1.15054 10.0391 1.05516 10.1094 0.984835C10.1797 0.914509 10.2751 0.875 10.3746 0.875C10.474 0.875 10.5694 0.914509 10.6397 0.984835C10.7101 1.05516 10.7496 1.15054 10.7496 1.25V2.375H11.8746C11.974 2.375 12.0694 2.41451 12.1397 2.48483C12.2101 2.55516 12.2496 2.65054 12.2496 2.75C12.2496 2.84946 12.2101 2.94484 12.1397 3.01517C12.0694 3.08549 11.974 3.125 11.8746 3.125H10.7496V4.25C10.7496 4.34946 10.7101 4.44484 10.6397 4.51516C10.5694 4.58549 10.474 4.625 10.3746 4.625C10.2751 4.625 10.1797 4.58549 10.1094 4.51516C10.0391 4.44484 9.99957 4.34946 9.99957 4.25V3.125H8.87457C8.77511 3.125 8.67973 3.08549 8.6094 3.01517C8.53908 2.94484 8.49957 2.84946 8.49957 2.75ZM14.7496 5.75C14.7496 5.84946 14.7101 5.94484 14.6397 6.01516C14.5694 6.08549 14.474 6.125 14.3746 6.125H13.7496V6.75C13.7496 6.84946 13.7101 6.94484 13.6397 7.01516C13.5694 7.08549 13.474 7.125 13.3746 7.125C13.2751 7.125 13.1797 7.08549 13.1094 7.01516C13.0391 6.94484 12.9996 6.84946 12.9996 6.75V6.125H12.3746C12.2751 6.125 12.1797 6.08549 12.1094 6.01516C12.0391 5.94484 11.9996 5.84946 11.9996 5.75C11.9996 5.65054 12.0391 5.55516 12.1094 5.48484C12.1797 5.41451 12.2751 5.375 12.3746 5.375H12.9996V4.75C12.9996 4.65054 13.0391 4.55516 13.1094 4.48484C13.1797 4.41451 13.2751 4.375 13.3746 4.375C13.474 4.375 13.5694 4.41451 13.6397 4.48484C13.7101 4.55516 13.7496 4.65054 13.7496 4.75V5.375H14.3746C14.474 5.375 14.5694 5.41451 14.6397 5.48484C14.7101 5.55516 14.7496 5.65054 14.7496 5.75Z" fill="white"/>
</svg>
