<svg xmlns="http://www.w3.org/2000/svg" fill="none" viewBox="787.9775999999999 0.7595012658227849 319.79200000000003 201.0126582278481" style="max-height: 500px" width="319.79200000000003" height="201.0126582278481">
<rect fill="url(#paint0_linear_1122_3473)" height="198.529" width="1264" y="0.503906"/>
<path fill="black" d="M191.258 50.402V54.357H181.073V60.622H188.878V64.507H181.073V74.832H176.173V50.402H191.258ZM212.757 64.717C212.757 65.417 212.711 66.047 212.617 66.607H198.442C198.559 68.007 199.049 69.1037 199.912 69.897C200.776 70.6904 201.837 71.087 203.097 71.087C204.917 71.087 206.212 70.3054 206.982 68.742H212.267C211.707 70.6087 210.634 72.1487 209.047 73.362C207.461 74.552 205.512 75.147 203.202 75.147C201.336 75.147 199.656 74.7387 198.162 73.922C196.692 73.082 195.537 71.9037 194.697 70.387C193.881 68.8704 193.472 67.1204 193.472 65.137C193.472 63.1304 193.881 61.3687 194.697 59.852C195.514 58.3354 196.657 57.1687 198.127 56.352C199.597 55.5354 201.289 55.127 203.202 55.127C205.046 55.127 206.691 55.5237 208.137 56.317C209.607 57.1104 210.739 58.242 211.532 59.712C212.349 61.1587 212.757 62.827 212.757 64.717ZM207.682 63.317C207.659 62.057 207.204 61.0537 206.317 60.307C205.431 59.537 204.346 59.152 203.062 59.152C201.849 59.152 200.822 59.5254 199.982 60.272C199.166 60.9954 198.664 62.0104 198.477 63.317H207.682ZM234.359 64.717C234.359 65.417 234.312 66.047 234.219 66.607H220.044C220.161 68.007 220.651 69.1037 221.514 69.897C222.377 70.6904 223.439 71.087 224.699 71.087C226.519 71.087 227.814 70.3054 228.584 68.742H233.869C233.309 70.6087 232.236 72.1487 230.649 73.362C229.062 74.552 227.114 75.147 224.804 75.147C222.937 75.147 221.257 74.7387 219.764 73.922C218.294 73.082 217.139 71.9037 216.299 70.387C215.482 68.8704 215.074 67.1204 215.074 65.137C215.074 63.1304 215.482 61.3687 216.299 59.852C217.116 58.3354 218.259 57.1687 219.729 56.352C221.199 55.5354 222.891 55.127 224.804 55.127C226.647 55.127 228.292 55.5237 229.739 56.317C231.209 57.1104 232.341 58.242 233.134 59.712C233.951 61.1587 234.359 62.827 234.359 64.717ZM229.284 63.317C229.261 62.057 228.806 61.0537 227.919 60.307C227.032 59.537 225.947 59.152 224.664 59.152C223.451 59.152 222.424 59.5254 221.584 60.272C220.767 60.9954 220.266 62.0104 220.079 63.317H229.284ZM242.836 48.932V74.832H237.936V48.932H242.836ZM250.162 53.132C249.298 53.132 248.575 52.8637 247.992 52.327C247.432 51.767 247.152 51.0787 247.152 50.262C247.152 49.4454 247.432 48.7687 247.992 48.232C248.575 47.672 249.298 47.392 250.162 47.392C251.025 47.392 251.737 47.672 252.297 48.232C252.88 48.7687 253.172 49.4454 253.172 50.262C253.172 51.0787 252.88 51.767 252.297 52.327C251.737 52.8637 251.025 53.132 250.162 53.132ZM252.577 55.442V74.832H247.677V55.442H252.577ZM268.163 55.162C270.473 55.162 272.34 55.897 273.763 57.367C275.186 58.8137 275.898 60.8437 275.898 63.457V74.832H270.998V64.122C270.998 62.582 270.613 61.4037 269.843 60.587C269.073 59.747 268.023 59.327 266.693 59.327C265.34 59.327 264.266 59.747 263.473 60.587C262.703 61.4037 262.318 62.582 262.318 64.122V74.832H257.418V55.442H262.318V57.857C262.971 57.017 263.8 56.3637 264.803 55.897C265.83 55.407 266.95 55.162 268.163 55.162ZM288.153 55.127C289.599 55.127 290.871 55.4187 291.968 56.002C293.064 56.562 293.928 57.297 294.558 58.207V55.442H299.493V74.972C299.493 76.7687 299.131 78.367 298.408 79.767C297.684 81.1904 296.599 82.3104 295.153 83.127C293.706 83.967 291.956 84.387 289.903 84.387C287.149 84.387 284.886 83.7454 283.113 82.462C281.363 81.1787 280.371 79.4287 280.138 77.212H285.003C285.259 78.0987 285.808 78.7987 286.648 79.312C287.511 79.8487 288.549 80.117 289.763 80.117C291.186 80.117 292.341 79.6854 293.228 78.822C294.114 77.982 294.558 76.6987 294.558 74.972V71.962C293.928 72.872 293.053 73.6304 291.933 74.237C290.836 74.8437 289.576 75.147 288.153 75.147C286.519 75.147 285.026 74.727 283.673 73.887C282.319 73.047 281.246 71.8687 280.453 70.352C279.683 68.812 279.298 67.0504 279.298 65.067C279.298 63.107 279.683 61.3687 280.453 59.852C281.246 58.3354 282.308 57.1687 283.638 56.352C284.991 55.5354 286.496 55.127 288.153 55.127ZM294.558 65.137C294.558 63.947 294.324 62.932 293.858 62.092C293.391 61.2287 292.761 60.5754 291.968 60.132C291.174 59.6654 290.323 59.432 289.413 59.432C288.503 59.432 287.663 59.6537 286.893 60.097C286.123 60.5404 285.493 61.1937 285.003 62.057C284.536 62.897 284.303 63.9004 284.303 65.067C284.303 66.2337 284.536 67.2604 285.003 68.147C285.493 69.0104 286.123 69.6754 286.893 70.142C287.686 70.6087 288.526 70.842 289.413 70.842C290.323 70.842 291.174 70.6204 291.968 70.177C292.761 69.7104 293.391 69.057 293.858 68.217C294.324 67.3537 294.558 66.327 294.558 65.137ZM320.038 75.147C318.451 75.147 317.028 74.867 315.768 74.307C314.508 73.7237 313.505 72.942 312.758 71.962C312.035 70.982 311.638 69.897 311.568 68.707H316.503C316.596 69.4537 316.958 70.072 317.588 70.562C318.241 71.052 319.046 71.297 320.003 71.297C320.936 71.297 321.66 71.1104 322.173 70.737C322.71 70.3637 322.978 69.8854 322.978 69.302C322.978 68.672 322.651 68.2054 321.998 67.902C321.368 67.5754 320.353 67.2254 318.953 66.852C317.506 66.502 316.316 66.1404 315.383 65.767C314.473 65.3937 313.68 64.822 313.003 64.052C312.35 63.282 312.023 62.2437 312.023 60.937C312.023 59.8637 312.326 58.8837 312.933 57.997C313.563 57.1104 314.45 56.4104 315.593 55.897C316.76 55.3837 318.125 55.127 319.688 55.127C321.998 55.127 323.841 55.7104 325.218 56.877C326.595 58.0204 327.353 59.572 327.493 61.532H322.803C322.733 60.762 322.406 60.1554 321.823 59.712C321.263 59.2454 320.505 59.012 319.548 59.012C318.661 59.012 317.973 59.1754 317.483 59.502C317.016 59.8287 316.783 60.2837 316.783 60.867C316.783 61.5204 317.11 62.022 317.763 62.372C318.416 62.6987 319.431 63.037 320.808 63.387C322.208 63.737 323.363 64.0987 324.273 64.472C325.183 64.8454 325.965 65.4287 326.618 66.222C327.295 66.992 327.645 68.0187 327.668 69.302C327.668 70.422 327.353 71.4254 326.723 72.312C326.116 73.1987 325.23 73.8987 324.063 74.412C322.92 74.902 321.578 75.147 320.038 75.147ZM337.395 59.467V68.847C337.395 69.5004 337.547 69.9787 337.85 70.282C338.177 70.562 338.714 70.702 339.46 70.702H341.735V74.832H338.655C334.525 74.832 332.46 72.8254 332.46 68.812V59.467H330.15V55.442H332.46V50.647H337.395V55.442H341.735V59.467H337.395ZM363.565 55.442V74.832H358.63V72.382C358 73.222 357.171 73.887 356.145 74.377C355.141 74.8437 354.045 75.077 352.855 75.077C351.338 75.077 349.996 74.762 348.83 74.132C347.663 73.4787 346.741 72.5337 346.065 71.297C345.411 70.037 345.085 68.5437 345.085 66.817V55.442H349.985V66.117C349.985 67.657 350.37 68.847 351.14 69.687C351.91 70.5037 352.96 70.912 354.29 70.912C355.643 70.912 356.705 70.5037 357.475 69.687C358.245 68.847 358.63 67.657 358.63 66.117V55.442H363.565ZM367.139 65.137C367.139 63.1304 367.548 61.3804 368.364 59.887C369.181 58.3704 370.313 57.2037 371.759 56.387C373.206 55.547 374.863 55.127 376.729 55.127C379.133 55.127 381.116 55.7337 382.679 56.947C384.266 58.137 385.328 59.817 385.864 61.987H380.579C380.299 61.147 379.821 60.4937 379.144 60.027C378.491 59.537 377.674 59.292 376.694 59.292C375.294 59.292 374.186 59.8054 373.369 60.832C372.553 61.8354 372.144 63.2704 372.144 65.137C372.144 66.9804 372.553 68.4154 373.369 69.442C374.186 70.4454 375.294 70.947 376.694 70.947C378.678 70.947 379.973 70.0604 380.579 68.287H385.864C385.328 70.387 384.266 72.0554 382.679 73.292C381.093 74.5287 379.109 75.147 376.729 75.147C374.863 75.147 373.206 74.7387 371.759 73.922C370.313 73.082 369.181 71.9154 368.364 70.422C367.548 68.9054 367.139 67.1437 367.139 65.137ZM400.934 74.832L394.354 66.572V74.832H389.454V48.932H394.354V63.667L400.864 55.442H407.234L398.694 65.172L407.304 74.832H400.934ZM416.719 49.562C419.145 49.562 421.094 50.227 422.564 51.557C424.057 52.8637 424.804 54.672 424.804 56.982C424.804 59.2687 424.069 61.0187 422.599 62.232C421.129 63.422 419.18 64.017 416.754 64.017L416.614 66.712H412.309L412.134 60.762H413.709C415.739 60.762 417.302 60.4937 418.399 59.957C419.495 59.4204 420.044 58.4404 420.044 57.017C420.044 55.9904 419.74 55.1737 419.134 54.567C418.55 53.9604 417.745 53.657 416.719 53.657C415.645 53.657 414.805 53.9487 414.199 54.532C413.615 55.1154 413.324 55.9204 413.324 56.947H408.704C408.68 55.5237 408.984 54.252 409.614 53.132C410.244 52.012 411.165 51.137 412.379 50.507C413.615 49.877 415.062 49.562 416.719 49.562ZM414.444 75.077C413.557 75.077 412.822 74.8087 412.239 74.272C411.679 73.712 411.399 73.0237 411.399 72.207C411.399 71.3904 411.679 70.7137 412.239 70.177C412.822 69.617 413.557 69.337 414.444 69.337C415.307 69.337 416.019 69.617 416.579 70.177C417.139 70.7137 417.419 71.3904 417.419 72.207C417.419 73.0237 417.139 73.712 416.579 74.272C416.019 74.8087 415.307 75.077 414.444 75.077Z"/>
<path fill="black" d="M179.05 113.159C180.418 113.159 181.6 113.417 182.596 113.933C183.604 114.437 184.372 115.163 184.9 116.111C185.44 117.059 185.71 118.175 185.71 119.459C185.71 120.743 185.44 121.859 184.9 122.807C184.372 123.743 183.604 124.463 182.596 124.967C181.6 125.459 180.418 125.705 179.05 125.705H175.144V113.159H179.05ZM179.05 124.355C180.67 124.355 181.906 123.929 182.758 123.077C183.61 122.213 184.036 121.007 184.036 119.459C184.036 117.899 183.604 116.681 182.74 115.805C181.888 114.929 180.658 114.491 179.05 114.491H176.782V124.355H179.05ZM187.258 120.737C187.258 119.729 187.462 118.847 187.87 118.091C188.278 117.323 188.836 116.729 189.544 116.309C190.264 115.889 191.062 115.679 191.938 115.679C192.802 115.679 193.552 115.865 194.188 116.237C194.824 116.609 195.298 117.077 195.61 117.641V115.841H197.266V125.705H195.61V123.869C195.286 124.445 194.8 124.925 194.152 125.309C193.516 125.681 192.772 125.867 191.92 125.867C191.044 125.867 190.252 125.651 189.544 125.219C188.836 124.787 188.278 124.181 187.87 123.401C187.462 122.621 187.258 121.733 187.258 120.737ZM195.61 120.755C195.61 120.011 195.46 119.363 195.16 118.811C194.86 118.259 194.452 117.839 193.936 117.551C193.432 117.251 192.874 117.101 192.262 117.101C191.65 117.101 191.092 117.245 190.588 117.533C190.084 117.821 189.682 118.241 189.382 118.793C189.082 119.345 188.932 119.993 188.932 120.737C188.932 121.493 189.082 122.153 189.382 122.717C189.682 123.269 190.084 123.695 190.588 123.995C191.092 124.283 191.65 124.427 192.262 124.427C192.874 124.427 193.432 124.283 193.936 123.995C194.452 123.695 194.86 123.269 195.16 122.717C195.46 122.153 195.61 121.499 195.61 120.755ZM208.53 115.841L202.59 130.349H200.898L202.842 125.597L198.864 115.841H200.682L203.778 123.833L206.838 115.841H208.53ZM219.278 125.867C218.354 125.867 217.514 125.657 216.758 125.237C216.014 124.817 215.426 124.223 214.994 123.455C214.574 122.675 214.364 121.775 214.364 120.755C214.364 119.747 214.58 118.859 215.012 118.091C215.456 117.311 216.056 116.717 216.812 116.309C217.568 115.889 218.414 115.679 219.35 115.679C220.286 115.679 221.132 115.889 221.888 116.309C222.644 116.717 223.238 117.305 223.67 118.073C224.114 118.841 224.336 119.735 224.336 120.755C224.336 121.775 224.108 122.675 223.652 123.455C223.208 124.223 222.602 124.817 221.834 125.237C221.066 125.657 220.214 125.867 219.278 125.867ZM219.278 124.427C219.866 124.427 220.418 124.289 220.934 124.013C221.45 123.737 221.864 123.323 222.176 122.771C222.5 122.219 222.662 121.547 222.662 120.755C222.662 119.963 222.506 119.291 222.194 118.739C221.882 118.187 221.474 117.779 220.97 117.515C220.466 117.239 219.92 117.101 219.332 117.101C218.732 117.101 218.18 117.239 217.676 117.515C217.184 117.779 216.788 118.187 216.488 118.739C216.188 119.291 216.038 119.963 216.038 120.755C216.038 121.559 216.182 122.237 216.47 122.789C216.77 123.341 217.166 123.755 217.658 124.031C218.15 124.295 218.69 124.427 219.278 124.427ZM228.128 117.443C228.416 116.879 228.824 116.441 229.352 116.129C229.892 115.817 230.546 115.661 231.314 115.661V117.353H230.882C229.046 117.353 228.128 118.349 228.128 120.341V125.705H226.49V115.841H228.128V117.443ZM242.809 115.661C244.009 115.661 244.981 116.027 245.725 116.759C246.469 117.479 246.841 118.523 246.841 119.891V125.705H245.221V120.125C245.221 119.141 244.975 118.391 244.483 117.875C243.991 117.347 243.319 117.083 242.467 117.083C241.603 117.083 240.913 117.353 240.397 117.893C239.893 118.433 239.641 119.219 239.641 120.251V125.705H238.003V115.841H239.641V117.245C239.965 116.741 240.403 116.351 240.955 116.075C241.519 115.799 242.137 115.661 242.809 115.661ZM250.363 114.239C250.051 114.239 249.787 114.131 249.571 113.915C249.355 113.699 249.247 113.435 249.247 113.123C249.247 112.811 249.355 112.547 249.571 112.331C249.787 112.115 250.051 112.007 250.363 112.007C250.663 112.007 250.915 112.115 251.119 112.331C251.335 112.547 251.443 112.811 251.443 113.123C251.443 113.435 251.335 113.699 251.119 113.915C250.915 114.131 250.663 114.239 250.363 114.239ZM251.155 115.841V125.705H249.517V115.841H251.155ZM258.015 115.679C258.867 115.679 259.611 115.865 260.247 116.237C260.895 116.609 261.375 117.077 261.687 117.641V115.841H263.343V125.921C263.343 126.821 263.151 127.619 262.767 128.315C262.383 129.023 261.831 129.575 261.111 129.971C260.403 130.367 259.575 130.565 258.627 130.565C257.331 130.565 256.251 130.259 255.387 129.647C254.523 129.035 254.013 128.201 253.857 127.145H255.477C255.657 127.745 256.029 128.225 256.593 128.585C257.157 128.957 257.835 129.143 258.627 129.143C259.527 129.143 260.259 128.861 260.823 128.297C261.399 127.733 261.687 126.941 261.687 125.921V123.851C261.363 124.427 260.883 124.907 260.247 125.291C259.611 125.675 258.867 125.867 258.015 125.867C257.139 125.867 256.341 125.651 255.621 125.219C254.913 124.787 254.355 124.181 253.947 123.401C253.539 122.621 253.335 121.733 253.335 120.737C253.335 119.729 253.539 118.847 253.947 118.091C254.355 117.323 254.913 116.729 255.621 116.309C256.341 115.889 257.139 115.679 258.015 115.679ZM261.687 120.755C261.687 120.011 261.537 119.363 261.237 118.811C260.937 118.259 260.529 117.839 260.013 117.551C259.509 117.251 258.951 117.101 258.339 117.101C257.727 117.101 257.169 117.245 256.665 117.533C256.161 117.821 255.759 118.241 255.459 118.793C255.159 119.345 255.009 119.993 255.009 120.737C255.009 121.493 255.159 122.153 255.459 122.717C255.759 123.269 256.161 123.695 256.665 123.995C257.169 124.283 257.727 124.427 258.339 124.427C258.951 124.427 259.509 124.283 260.013 123.995C260.529 123.695 260.937 123.269 261.237 122.717C261.537 122.153 261.687 121.499 261.687 120.755ZM271.007 115.661C271.751 115.661 272.423 115.823 273.023 116.147C273.623 116.459 274.091 116.933 274.427 117.569C274.775 118.205 274.949 118.979 274.949 119.891V125.705H273.329V120.125C273.329 119.141 273.083 118.391 272.591 117.875C272.099 117.347 271.427 117.083 270.575 117.083C269.711 117.083 269.021 117.353 268.505 117.893C268.001 118.433 267.749 119.219 267.749 120.251V125.705H266.111V112.385H267.749V117.245C268.073 116.741 268.517 116.351 269.081 116.075C269.657 115.799 270.299 115.661 271.007 115.661ZM279.622 117.191V123.005C279.622 123.485 279.724 123.827 279.928 124.031C280.132 124.223 280.486 124.319 280.99 124.319H282.196V125.705H280.72C279.808 125.705 279.124 125.495 278.668 125.075C278.212 124.655 277.984 123.965 277.984 123.005V117.191H276.706V115.841H277.984V113.357H279.622V115.841H282.196V117.191H279.622ZM285.873 123.437L283.857 128.279H282.759L284.073 123.437H285.873ZM296.85 125.867C295.926 125.867 295.086 125.657 294.33 125.237C293.586 124.817 292.998 124.223 292.566 123.455C292.146 122.675 291.936 121.775 291.936 120.755C291.936 119.747 292.152 118.859 292.584 118.091C293.028 117.311 293.628 116.717 294.384 116.309C295.14 115.889 295.986 115.679 296.922 115.679C297.858 115.679 298.704 115.889 299.46 116.309C300.216 116.717 300.81 117.305 301.242 118.073C301.686 118.841 301.908 119.735 301.908 120.755C301.908 121.775 301.68 122.675 301.224 123.455C300.78 124.223 300.174 124.817 299.406 125.237C298.638 125.657 297.786 125.867 296.85 125.867ZM296.85 124.427C297.438 124.427 297.99 124.289 298.506 124.013C299.022 123.737 299.436 123.323 299.748 122.771C300.072 122.219 300.234 121.547 300.234 120.755C300.234 119.963 300.078 119.291 299.766 118.739C299.454 118.187 299.046 117.779 298.542 117.515C298.038 117.239 297.492 117.101 296.904 117.101C296.304 117.101 295.752 117.239 295.248 117.515C294.756 117.779 294.36 118.187 294.06 118.739C293.76 119.291 293.61 119.963 293.61 120.755C293.61 121.559 293.754 122.237 294.042 122.789C294.342 123.341 294.738 123.755 295.23 124.031C295.722 124.295 296.262 124.427 296.85 124.427ZM312.81 115.841V125.705H311.172V124.247C310.86 124.751 310.422 125.147 309.858 125.435C309.306 125.711 308.694 125.849 308.022 125.849C307.254 125.849 306.564 125.693 305.952 125.381C305.34 125.057 304.854 124.577 304.494 123.941C304.146 123.305 303.972 122.531 303.972 121.619V115.841H305.592V121.403C305.592 122.375 305.838 123.125 306.33 123.653C306.822 124.169 307.494 124.427 308.346 124.427C309.222 124.427 309.912 124.157 310.416 123.617C310.92 123.077 311.172 122.291 311.172 121.259V115.841H312.81ZM317.213 117.443C317.501 116.879 317.909 116.441 318.437 116.129C318.977 115.817 319.631 115.661 320.399 115.661V117.353H319.967C318.131 117.353 317.213 118.349 317.213 120.341V125.705H315.575V115.841H317.213V117.443ZM329.087 117.191V123.005C329.087 123.485 329.189 123.827 329.393 124.031C329.597 124.223 329.951 124.319 330.455 124.319H331.661V125.705H330.185C329.273 125.705 328.589 125.495 328.133 125.075C327.677 124.655 327.449 123.965 327.449 123.005V117.191H326.171V115.841H327.449V113.357H329.087V115.841H331.661V117.191H329.087ZM342.646 120.395C342.646 120.707 342.628 121.037 342.592 121.385H334.708C334.768 122.357 335.098 123.119 335.698 123.671C336.31 124.211 337.048 124.481 337.912 124.481C338.62 124.481 339.208 124.319 339.676 123.995C340.156 123.659 340.492 123.215 340.684 122.663H342.448C342.184 123.611 341.656 124.385 340.864 124.985C340.072 125.573 339.088 125.867 337.912 125.867C336.976 125.867 336.136 125.657 335.392 125.237C334.66 124.817 334.084 124.223 333.664 123.455C333.244 122.675 333.034 121.775 333.034 120.755C333.034 119.735 333.238 118.841 333.646 118.073C334.054 117.305 334.624 116.717 335.356 116.309C336.1 115.889 336.952 115.679 337.912 115.679C338.848 115.679 339.676 115.883 340.396 116.291C341.116 116.699 341.668 117.263 342.052 117.983C342.448 118.691 342.646 119.495 342.646 120.395ZM340.954 120.053C340.954 119.429 340.816 118.895 340.54 118.451C340.264 117.995 339.886 117.653 339.406 117.425C338.938 117.185 338.416 117.065 337.84 117.065C337.012 117.065 336.304 117.329 335.716 117.857C335.14 118.385 334.81 119.117 334.726 120.053H340.954ZM344.196 120.737C344.196 119.729 344.4 118.847 344.808 118.091C345.216 117.323 345.774 116.729 346.482 116.309C347.202 115.889 348 115.679 348.876 115.679C349.74 115.679 350.49 115.865 351.126 116.237C351.762 116.609 352.236 117.077 352.548 117.641V115.841H354.204V125.705H352.548V123.869C352.224 124.445 351.738 124.925 351.09 125.309C350.454 125.681 349.71 125.867 348.858 125.867C347.982 125.867 347.19 125.651 346.482 125.219C345.774 124.787 345.216 124.181 344.808 123.401C344.4 122.621 344.196 121.733 344.196 120.737ZM352.548 120.755C352.548 120.011 352.398 119.363 352.098 118.811C351.798 118.259 351.39 117.839 350.874 117.551C350.37 117.251 349.812 117.101 349.2 117.101C348.588 117.101 348.03 117.245 347.526 117.533C347.022 117.821 346.62 118.241 346.32 118.793C346.02 119.345 345.87 119.993 345.87 120.737C345.87 121.493 346.02 122.153 346.32 122.717C346.62 123.269 347.022 123.695 347.526 123.995C348.03 124.283 348.588 124.427 349.2 124.427C349.812 124.427 350.37 124.283 350.874 123.995C351.39 123.695 351.798 123.269 352.098 122.717C352.398 122.153 352.548 121.499 352.548 120.755ZM368.834 115.661C369.602 115.661 370.286 115.823 370.886 116.147C371.486 116.459 371.96 116.933 372.308 117.569C372.656 118.205 372.83 118.979 372.83 119.891V125.705H371.21V120.125C371.21 119.141 370.964 118.391 370.472 117.875C369.992 117.347 369.338 117.083 368.51 117.083C367.658 117.083 366.98 117.359 366.476 117.911C365.972 118.451 365.72 119.237 365.72 120.269V125.705H364.1V120.125C364.1 119.141 363.854 118.391 363.362 117.875C362.882 117.347 362.228 117.083 361.4 117.083C360.548 117.083 359.87 117.359 359.366 117.911C358.862 118.451 358.61 119.237 358.61 120.269V125.705H356.972V115.841H358.61V117.263C358.934 116.747 359.366 116.351 359.906 116.075C360.458 115.799 361.064 115.661 361.724 115.661C362.552 115.661 363.284 115.847 363.92 116.219C364.556 116.591 365.03 117.137 365.342 117.857C365.618 117.161 366.074 116.621 366.71 116.237C367.346 115.853 368.054 115.661 368.834 115.661ZM381.162 114.239C380.85 114.239 380.586 114.131 380.37 113.915C380.154 113.699 380.046 113.435 380.046 113.123C380.046 112.811 380.154 112.547 380.37 112.331C380.586 112.115 380.85 112.007 381.162 112.007C381.462 112.007 381.714 112.115 381.918 112.331C382.134 112.547 382.242 112.811 382.242 113.123C382.242 113.435 382.134 113.699 381.918 113.915C381.714 114.131 381.462 114.239 381.162 114.239ZM381.954 115.841V125.705H380.316V115.841H381.954ZM388.237 125.867C387.481 125.867 386.803 125.741 386.203 125.489C385.603 125.225 385.129 124.865 384.781 124.409C384.433 123.941 384.241 123.407 384.205 122.807H385.897C385.945 123.299 386.173 123.701 386.581 124.013C387.001 124.325 387.547 124.481 388.219 124.481C388.843 124.481 389.335 124.343 389.695 124.067C390.055 123.791 390.235 123.443 390.235 123.023C390.235 122.591 390.043 122.273 389.659 122.069C389.275 121.853 388.681 121.643 387.877 121.439C387.145 121.247 386.545 121.055 386.077 120.863C385.621 120.659 385.225 120.365 384.889 119.981C384.565 119.585 384.403 119.069 384.403 118.433C384.403 117.929 384.553 117.467 384.853 117.047C385.153 116.627 385.579 116.297 386.131 116.057C386.683 115.805 387.313 115.679 388.021 115.679C389.113 115.679 389.995 115.955 390.667 116.507C391.339 117.059 391.699 117.815 391.747 118.775H390.109C390.073 118.259 389.863 117.845 389.479 117.533C389.107 117.221 388.603 117.065 387.967 117.065C387.379 117.065 386.911 117.191 386.563 117.443C386.215 117.695 386.041 118.025 386.041 118.433C386.041 118.757 386.143 119.027 386.347 119.243C386.563 119.447 386.827 119.615 387.139 119.747C387.463 119.867 387.907 120.005 388.471 120.161C389.179 120.353 389.755 120.545 390.199 120.737C390.643 120.917 391.021 121.193 391.333 121.565C391.657 121.937 391.825 122.423 391.837 123.023C391.837 123.563 391.687 124.049 391.387 124.481C391.087 124.913 390.661 125.255 390.109 125.507C389.569 125.747 388.945 125.867 388.237 125.867ZM403.135 120.737C403.135 119.729 403.339 118.847 403.747 118.091C404.155 117.323 404.713 116.729 405.421 116.309C406.141 115.889 406.939 115.679 407.815 115.679C408.679 115.679 409.429 115.865 410.065 116.237C410.701 116.609 411.175 117.077 411.487 117.641V115.841H413.143V125.705H411.487V123.869C411.163 124.445 410.677 124.925 410.029 125.309C409.393 125.681 408.649 125.867 407.797 125.867C406.921 125.867 406.129 125.651 405.421 125.219C404.713 124.787 404.155 124.181 403.747 123.401C403.339 122.621 403.135 121.733 403.135 120.737ZM411.487 120.755C411.487 120.011 411.337 119.363 411.037 118.811C410.737 118.259 410.329 117.839 409.813 117.551C409.309 117.251 408.751 117.101 408.139 117.101C407.527 117.101 406.969 117.245 406.465 117.533C405.961 117.821 405.559 118.241 405.259 118.793C404.959 119.345 404.809 119.993 404.809 120.737C404.809 121.493 404.959 122.153 405.259 122.717C405.559 123.269 405.961 123.695 406.465 123.995C406.969 124.283 407.527 124.427 408.139 124.427C408.751 124.427 409.309 124.283 409.813 123.995C410.329 123.695 410.737 123.269 411.037 122.717C411.337 122.153 411.487 121.499 411.487 120.755ZM419.583 124.193L422.643 115.841H424.389L420.519 125.705H418.611L414.741 115.841H416.505L419.583 124.193ZM425.389 120.737C425.389 119.729 425.593 118.847 426.001 118.091C426.409 117.323 426.967 116.729 427.675 116.309C428.395 115.889 429.193 115.679 430.069 115.679C430.933 115.679 431.683 115.865 432.319 116.237C432.955 116.609 433.429 117.077 433.741 117.641V115.841H435.397V125.705H433.741V123.869C433.417 124.445 432.931 124.925 432.283 125.309C431.647 125.681 430.903 125.867 430.051 125.867C429.175 125.867 428.383 125.651 427.675 125.219C426.967 124.787 426.409 124.181 426.001 123.401C425.593 122.621 425.389 121.733 425.389 120.737ZM433.741 120.755C433.741 120.011 433.591 119.363 433.291 118.811C432.991 118.259 432.583 117.839 432.067 117.551C431.563 117.251 431.005 117.101 430.393 117.101C429.781 117.101 429.223 117.245 428.719 117.533C428.215 117.821 427.813 118.241 427.513 118.793C427.213 119.345 427.063 119.993 427.063 120.737C427.063 121.493 427.213 122.153 427.513 122.717C427.813 123.269 428.215 123.695 428.719 123.995C429.223 124.283 429.781 124.427 430.393 124.427C431.005 124.427 431.563 124.283 432.067 123.995C432.583 123.695 432.991 123.269 433.291 122.717C433.591 122.153 433.741 121.499 433.741 120.755ZM439.011 114.239C438.699 114.239 438.435 114.131 438.219 113.915C438.003 113.699 437.895 113.435 437.895 113.123C437.895 112.811 438.003 112.547 438.219 112.331C438.435 112.115 438.699 112.007 439.011 112.007C439.311 112.007 439.563 112.115 439.767 112.331C439.983 112.547 440.091 112.811 440.091 113.123C440.091 113.435 439.983 113.699 439.767 113.915C439.563 114.131 439.311 114.239 439.011 114.239ZM439.803 115.841V125.705H438.165V115.841H439.803ZM444.233 112.385V125.705H442.595V112.385H444.233ZM446.413 120.737C446.413 119.729 446.617 118.847 447.025 118.091C447.433 117.323 447.991 116.729 448.699 116.309C449.419 115.889 450.217 115.679 451.093 115.679C451.957 115.679 452.707 115.865 453.343 116.237C453.979 116.609 454.453 117.077 454.765 117.641V115.841H456.421V125.705H454.765V123.869C454.441 124.445 453.955 124.925 453.307 125.309C452.671 125.681 451.927 125.867 451.075 125.867C450.199 125.867 449.407 125.651 448.699 125.219C447.991 124.787 447.433 124.181 447.025 123.401C446.617 122.621 446.413 121.733 446.413 120.737ZM454.765 120.755C454.765 120.011 454.615 119.363 454.315 118.811C454.015 118.259 453.607 117.839 453.091 117.551C452.587 117.251 452.029 117.101 451.417 117.101C450.805 117.101 450.247 117.245 449.743 117.533C449.239 117.821 448.837 118.241 448.537 118.793C448.237 119.345 448.087 119.993 448.087 120.737C448.087 121.493 448.237 122.153 448.537 122.717C448.837 123.269 449.239 123.695 449.743 123.995C450.247 124.283 450.805 124.427 451.417 124.427C452.029 124.427 452.587 124.283 453.091 123.995C453.607 123.695 454.015 123.269 454.315 122.717C454.615 122.153 454.765 121.499 454.765 120.755ZM460.827 117.677C461.163 117.089 461.655 116.609 462.303 116.237C462.951 115.865 463.689 115.679 464.517 115.679C465.405 115.679 466.203 115.889 466.911 116.309C467.619 116.729 468.177 117.323 468.585 118.091C468.993 118.847 469.197 119.729 469.197 120.737C469.197 121.733 468.993 122.621 468.585 123.401C468.177 124.181 467.613 124.787 466.893 125.219C466.185 125.651 465.393 125.867 464.517 125.867C463.665 125.867 462.915 125.681 462.267 125.309C461.631 124.937 461.151 124.463 460.827 123.887V125.705H459.189V112.385H460.827V117.677ZM467.523 120.737C467.523 119.993 467.373 119.345 467.073 118.793C466.773 118.241 466.365 117.821 465.849 117.533C465.345 117.245 464.787 117.101 464.175 117.101C463.575 117.101 463.017 117.251 462.501 117.551C461.997 117.839 461.589 118.265 461.277 118.829C460.977 119.381 460.827 120.023 460.827 120.755C460.827 121.499 460.977 122.153 461.277 122.717C461.589 123.269 461.997 123.695 462.501 123.995C463.017 124.283 463.575 124.427 464.175 124.427C464.787 124.427 465.345 124.283 465.849 123.995C466.365 123.695 466.773 123.269 467.073 122.717C467.373 122.153 467.523 121.493 467.523 120.737ZM472.991 112.385V125.705H471.353V112.385H472.991ZM484.782 120.395C484.782 120.707 484.764 121.037 484.728 121.385H476.844C476.904 122.357 477.234 123.119 477.834 123.671C478.446 124.211 479.184 124.481 480.048 124.481C480.756 124.481 481.344 124.319 481.812 123.995C482.292 123.659 482.628 123.215 482.82 122.663H484.584C484.32 123.611 483.792 124.385 483 124.985C482.208 125.573 481.224 125.867 480.048 125.867C479.112 125.867 478.272 125.657 477.528 125.237C476.796 124.817 476.22 124.223 475.8 123.455C475.38 122.675 475.17 121.775 475.17 120.755C475.17 119.735 475.374 118.841 475.782 118.073C476.19 117.305 476.76 116.717 477.492 116.309C478.236 115.889 479.088 115.679 480.048 115.679C480.984 115.679 481.812 115.883 482.532 116.291C483.252 116.699 483.804 117.263 484.188 117.983C484.584 118.691 484.782 119.495 484.782 120.395ZM483.09 120.053C483.09 119.429 482.952 118.895 482.676 118.451C482.4 117.995 482.022 117.653 481.542 117.425C481.074 117.185 480.552 117.065 479.976 117.065C479.148 117.065 478.44 117.329 477.852 117.857C477.276 118.385 476.946 119.117 476.862 120.053H483.09ZM496.074 124.391C497.598 123.167 498.792 122.165 499.656 121.385C500.52 120.593 501.246 119.771 501.834 118.919C502.434 118.055 502.734 117.209 502.734 116.381C502.734 115.601 502.542 114.989 502.158 114.545C501.786 114.089 501.18 113.861 500.34 113.861C499.524 113.861 498.888 114.119 498.432 114.635C497.988 115.139 497.748 115.817 497.712 116.669H496.128C496.176 115.325 496.584 114.287 497.352 113.555C498.12 112.823 499.11 112.457 500.322 112.457C501.558 112.457 502.536 112.799 503.256 113.483C503.988 114.167 504.354 115.109 504.354 116.309C504.354 117.305 504.054 118.277 503.454 119.225C502.866 120.161 502.194 120.989 501.438 121.709C500.682 122.417 499.716 123.245 498.54 124.193H504.732V125.561H496.074V124.391ZM506.23 122.807V121.565L512.548 112.817H514.51V121.385H516.31V122.807H514.51V125.705H512.89V122.807H506.23ZM512.962 114.527L508.12 121.385H512.962V114.527ZM524.336 108.749L519.404 128.765H517.784L522.698 108.749H524.336ZM534.517 113.969L529.513 125.705H527.857L532.933 114.131H525.985V112.727H534.517V113.969ZM543.4 117.191V123.005C543.4 123.485 543.502 123.827 543.706 124.031C543.91 124.223 544.264 124.319 544.768 124.319H545.974V125.705H544.498C543.586 125.705 542.902 125.495 542.446 125.075C541.99 124.655 541.762 123.965 541.762 123.005V117.191H540.484V115.841H541.762V113.357H543.4V115.841H545.974V117.191H543.4ZM552.26 125.867C551.336 125.867 550.496 125.657 549.74 125.237C548.996 124.817 548.408 124.223 547.976 123.455C547.556 122.675 547.346 121.775 547.346 120.755C547.346 119.747 547.562 118.859 547.994 118.091C548.438 117.311 549.038 116.717 549.794 116.309C550.55 115.889 551.396 115.679 552.332 115.679C553.268 115.679 554.114 115.889 554.87 116.309C555.626 116.717 556.22 117.305 556.652 118.073C557.096 118.841 557.318 119.735 557.318 120.755C557.318 121.775 557.09 122.675 556.634 123.455C556.19 124.223 555.584 124.817 554.816 125.237C554.048 125.657 553.196 125.867 552.26 125.867ZM552.26 124.427C552.848 124.427 553.4 124.289 553.916 124.013C554.432 123.737 554.846 123.323 555.158 122.771C555.482 122.219 555.644 121.547 555.644 120.755C555.644 119.963 555.488 119.291 555.176 118.739C554.864 118.187 554.456 117.779 553.952 117.515C553.448 117.239 552.902 117.101 552.314 117.101C551.714 117.101 551.162 117.239 550.658 117.515C550.166 117.779 549.77 118.187 549.47 118.739C549.17 119.291 549.02 119.963 549.02 120.755C549.02 121.559 549.164 122.237 549.452 122.789C549.752 123.341 550.148 123.755 550.64 124.031C551.132 124.295 551.672 124.427 552.26 124.427ZM569.167 115.661C569.911 115.661 570.583 115.823 571.183 116.147C571.783 116.459 572.251 116.933 572.587 117.569C572.935 118.205 573.109 118.979 573.109 119.891V125.705H571.489V120.125C571.489 119.141 571.243 118.391 570.751 117.875C570.259 117.347 569.587 117.083 568.735 117.083C567.871 117.083 567.181 117.353 566.665 117.893C566.161 118.433 565.909 119.219 565.909 120.251V125.705H564.271V112.385H565.909V117.245C566.233 116.741 566.677 116.351 567.241 116.075C567.817 115.799 568.459 115.661 569.167 115.661ZM584.784 120.395C584.784 120.707 584.766 121.037 584.73 121.385H576.846C576.906 122.357 577.236 123.119 577.836 123.671C578.448 124.211 579.186 124.481 580.05 124.481C580.758 124.481 581.346 124.319 581.814 123.995C582.294 123.659 582.63 123.215 582.822 122.663H584.586C584.322 123.611 583.794 124.385 583.002 124.985C582.21 125.573 581.226 125.867 580.05 125.867C579.114 125.867 578.274 125.657 577.53 125.237C576.798 124.817 576.222 124.223 575.802 123.455C575.382 122.675 575.172 121.775 575.172 120.755C575.172 119.735 575.376 118.841 575.784 118.073C576.192 117.305 576.762 116.717 577.494 116.309C578.238 115.889 579.09 115.679 580.05 115.679C580.986 115.679 581.814 115.883 582.534 116.291C583.254 116.699 583.806 117.263 584.19 117.983C584.586 118.691 584.784 119.495 584.784 120.395ZM583.092 120.053C583.092 119.429 582.954 118.895 582.678 118.451C582.402 117.995 582.024 117.653 581.544 117.425C581.076 117.185 580.554 117.065 579.978 117.065C579.15 117.065 578.442 117.329 577.854 117.857C577.278 118.385 576.948 119.117 576.864 120.053H583.092ZM588.585 112.385V125.705H586.947V112.385H588.585ZM593.014 117.659C593.338 117.095 593.818 116.627 594.454 116.255C595.102 115.871 595.852 115.679 596.704 115.679C597.58 115.679 598.372 115.889 599.08 116.309C599.8 116.729 600.364 117.323 600.772 118.091C601.18 118.847 601.384 119.729 601.384 120.737C601.384 121.733 601.18 122.621 600.772 123.401C600.364 124.181 599.8 124.787 599.08 125.219C598.372 125.651 597.58 125.867 596.704 125.867C595.864 125.867 595.12 125.681 594.472 125.309C593.836 124.925 593.35 124.451 593.014 123.887V130.385H591.376V115.841H593.014V117.659ZM599.71 120.737C599.71 119.993 599.56 119.345 599.26 118.793C598.96 118.241 598.552 117.821 598.036 117.533C597.532 117.245 596.974 117.101 596.362 117.101C595.762 117.101 595.204 117.251 594.688 117.551C594.184 117.839 593.776 118.265 593.464 118.829C593.164 119.381 593.014 120.023 593.014 120.755C593.014 121.499 593.164 122.153 593.464 122.717C593.776 123.269 594.184 123.695 594.688 123.995C595.204 124.283 595.762 124.427 596.362 124.427C596.974 124.427 597.532 124.283 598.036 123.995C598.552 123.695 598.96 123.269 599.26 122.717C599.56 122.153 599.71 121.493 599.71 120.737ZM612.407 115.679C613.259 115.679 614.003 115.865 614.639 116.237C615.287 116.609 615.767 117.077 616.079 117.641V115.841H617.735V125.921C617.735 126.821 617.543 127.619 617.159 128.315C616.775 129.023 616.223 129.575 615.503 129.971C614.795 130.367 613.967 130.565 613.019 130.565C611.723 130.565 610.643 130.259 609.779 129.647C608.915 129.035 608.405 128.201 608.249 127.145H609.869C610.049 127.745 610.421 128.225 610.985 128.585C611.549 128.957 612.227 129.143 613.019 129.143C613.919 129.143 614.651 128.861 615.215 128.297C615.791 127.733 616.079 126.941 616.079 125.921V123.851C615.755 124.427 615.275 124.907 614.639 125.291C614.003 125.675 613.259 125.867 612.407 125.867C611.531 125.867 610.733 125.651 610.013 125.219C609.305 124.787 608.747 124.181 608.339 123.401C607.931 122.621 607.727 121.733 607.727 120.737C607.727 119.729 607.931 118.847 608.339 118.091C608.747 117.323 609.305 116.729 610.013 116.309C610.733 115.889 611.531 115.679 612.407 115.679ZM616.079 120.755C616.079 120.011 615.929 119.363 615.629 118.811C615.329 118.259 614.921 117.839 614.405 117.551C613.901 117.251 613.343 117.101 612.731 117.101C612.119 117.101 611.561 117.245 611.057 117.533C610.553 117.821 610.151 118.241 609.851 118.793C609.551 119.345 609.401 119.993 609.401 120.737C609.401 121.493 609.551 122.153 609.851 122.717C610.151 123.269 610.553 123.695 611.057 123.995C611.561 124.283 612.119 124.427 612.731 124.427C613.343 124.427 613.901 124.283 614.405 123.995C614.921 123.695 615.329 123.269 615.629 122.717C615.929 122.153 616.079 121.499 616.079 120.755ZM629.251 115.841V125.705H627.613V124.247C627.301 124.751 626.863 125.147 626.299 125.435C625.747 125.711 625.135 125.849 624.463 125.849C623.695 125.849 623.005 125.693 622.393 125.381C621.781 125.057 621.295 124.577 620.935 123.941C620.587 123.305 620.413 122.531 620.413 121.619V115.841H622.033V121.403C622.033 122.375 622.279 123.125 622.771 123.653C623.263 124.169 623.935 124.427 624.787 124.427C625.663 124.427 626.353 124.157 626.857 123.617C627.361 123.077 627.613 122.291 627.613 121.259V115.841H629.251ZM632.863 114.239C632.551 114.239 632.287 114.131 632.071 113.915C631.855 113.699 631.747 113.435 631.747 113.123C631.747 112.811 631.855 112.547 632.071 112.331C632.287 112.115 632.551 112.007 632.863 112.007C633.163 112.007 633.415 112.115 633.619 112.331C633.835 112.547 633.943 112.811 633.943 113.123C633.943 113.435 633.835 113.699 633.619 113.915C633.415 114.131 633.163 114.239 632.863 114.239ZM633.655 115.841V125.705H632.017V115.841H633.655ZM635.835 120.737C635.835 119.729 636.039 118.847 636.447 118.091C636.855 117.323 637.413 116.729 638.121 116.309C638.841 115.889 639.645 115.679 640.533 115.679C641.301 115.679 642.015 115.859 642.675 116.219C643.335 116.567 643.839 117.029 644.187 117.605V112.385H645.843V125.705H644.187V123.851C643.863 124.439 643.383 124.925 642.747 125.309C642.111 125.681 641.367 125.867 640.515 125.867C639.639 125.867 638.841 125.651 638.121 125.219C637.413 124.787 636.855 124.181 636.447 123.401C636.039 122.621 635.835 121.733 635.835 120.737ZM644.187 120.755C644.187 120.011 644.037 119.363 643.737 118.811C643.437 118.259 643.029 117.839 642.513 117.551C642.009 117.251 641.451 117.101 640.839 117.101C640.227 117.101 639.669 117.245 639.165 117.533C638.661 117.821 638.259 118.241 637.959 118.793C637.659 119.345 637.509 119.993 637.509 120.737C637.509 121.493 637.659 122.153 637.959 122.717C638.259 123.269 638.661 123.695 639.165 123.995C639.669 124.283 640.227 124.427 640.839 124.427C641.451 124.427 642.009 124.283 642.513 123.995C643.029 123.695 643.437 123.269 643.737 122.717C644.037 122.153 644.187 121.499 644.187 120.755ZM657.611 120.395C657.611 120.707 657.593 121.037 657.557 121.385H649.673C649.733 122.357 650.063 123.119 650.663 123.671C651.275 124.211 652.013 124.481 652.877 124.481C653.585 124.481 654.173 124.319 654.641 123.995C655.121 123.659 655.457 123.215 655.649 122.663H657.413C657.149 123.611 656.621 124.385 655.829 124.985C655.037 125.573 654.053 125.867 652.877 125.867C651.941 125.867 651.101 125.657 650.357 125.237C649.625 124.817 649.049 124.223 648.629 123.455C648.209 122.675 647.999 121.775 647.999 120.755C647.999 119.735 648.203 118.841 648.611 118.073C649.019 117.305 649.589 116.717 650.321 116.309C651.065 115.889 651.917 115.679 652.877 115.679C653.813 115.679 654.641 115.883 655.361 116.291C656.081 116.699 656.633 117.263 657.017 117.983C657.413 118.691 657.611 119.495 657.611 120.395ZM655.919 120.053C655.919 119.429 655.781 118.895 655.505 118.451C655.229 117.995 654.851 117.653 654.371 117.425C653.903 117.185 653.381 117.065 652.805 117.065C651.977 117.065 651.269 117.329 650.681 117.857C650.105 118.385 649.775 119.117 649.691 120.053H655.919ZM660.295 125.813C659.983 125.813 659.719 125.705 659.503 125.489C659.287 125.273 659.179 125.009 659.179 124.697C659.179 124.385 659.287 124.121 659.503 123.905C659.719 123.689 659.983 123.581 660.295 123.581C660.595 123.581 660.847 123.689 661.051 123.905C661.267 124.121 661.375 124.385 661.375 124.697C661.375 125.009 661.267 125.273 661.051 125.489C660.847 125.705 660.595 125.813 660.295 125.813ZM183.64 149.841L177.7 164.349H176.008L177.952 159.597L173.974 149.841H175.792L178.888 157.833L181.948 149.841H183.64ZM189.588 159.867C188.664 159.867 187.824 159.657 187.068 159.237C186.324 158.817 185.736 158.223 185.304 157.455C184.884 156.675 184.674 155.775 184.674 154.755C184.674 153.747 184.89 152.859 185.322 152.091C185.766 151.311 186.366 150.717 187.122 150.309C187.878 149.889 188.724 149.679 189.66 149.679C190.596 149.679 191.442 149.889 192.198 150.309C192.954 150.717 193.548 151.305 193.98 152.073C194.424 152.841 194.646 153.735 194.646 154.755C194.646 155.775 194.418 156.675 193.962 157.455C193.518 158.223 192.912 158.817 192.144 159.237C191.376 159.657 190.524 159.867 189.588 159.867ZM189.588 158.427C190.176 158.427 190.728 158.289 191.244 158.013C191.76 157.737 192.174 157.323 192.486 156.771C192.81 156.219 192.972 155.547 192.972 154.755C192.972 153.963 192.816 153.291 192.504 152.739C192.192 152.187 191.784 151.779 191.28 151.515C190.776 151.239 190.23 151.101 189.642 151.101C189.042 151.101 188.49 151.239 187.986 151.515C187.494 151.779 187.098 152.187 186.798 152.739C186.498 153.291 186.348 153.963 186.348 154.755C186.348 155.559 186.492 156.237 186.78 156.789C187.08 157.341 187.476 157.755 187.968 158.031C188.46 158.295 189 158.427 189.588 158.427ZM205.548 149.841V159.705H203.91V158.247C203.598 158.751 203.16 159.147 202.596 159.435C202.044 159.711 201.432 159.849 200.76 159.849C199.992 159.849 199.302 159.693 198.69 159.381C198.078 159.057 197.592 158.577 197.232 157.941C196.884 157.305 196.71 156.531 196.71 155.619V149.841H198.33V155.403C198.33 156.375 198.576 157.125 199.068 157.653C199.56 158.169 200.232 158.427 201.084 158.427C201.96 158.427 202.65 158.157 203.154 157.617C203.658 157.077 203.91 156.291 203.91 155.259V149.841H205.548ZM215.111 151.191V157.005C215.111 157.485 215.213 157.827 215.417 158.031C215.621 158.223 215.975 158.319 216.479 158.319H217.685V159.705H216.209C215.297 159.705 214.613 159.495 214.157 159.075C213.701 158.655 213.473 157.965 213.473 157.005V151.191H212.195V149.841H213.473V147.357H215.111V149.841H217.685V151.191H215.111ZM223.971 159.867C223.047 159.867 222.207 159.657 221.451 159.237C220.707 158.817 220.119 158.223 219.687 157.455C219.267 156.675 219.057 155.775 219.057 154.755C219.057 153.747 219.273 152.859 219.705 152.091C220.149 151.311 220.749 150.717 221.505 150.309C222.261 149.889 223.107 149.679 224.043 149.679C224.979 149.679 225.825 149.889 226.581 150.309C227.337 150.717 227.931 151.305 228.363 152.073C228.807 152.841 229.029 153.735 229.029 154.755C229.029 155.775 228.801 156.675 228.345 157.455C227.901 158.223 227.295 158.817 226.527 159.237C225.759 159.657 224.907 159.867 223.971 159.867ZM223.971 158.427C224.559 158.427 225.111 158.289 225.627 158.013C226.143 157.737 226.557 157.323 226.869 156.771C227.193 156.219 227.355 155.547 227.355 154.755C227.355 153.963 227.199 153.291 226.887 152.739C226.575 152.187 226.167 151.779 225.663 151.515C225.159 151.239 224.613 151.101 224.025 151.101C223.425 151.101 222.873 151.239 222.369 151.515C221.877 151.779 221.481 152.187 221.181 152.739C220.881 153.291 220.731 153.963 220.731 154.755C220.731 155.559 220.875 156.237 221.163 156.789C221.463 157.341 221.859 157.755 222.351 158.031C222.843 158.295 223.383 158.427 223.971 158.427ZM239.474 159.867C238.718 159.867 238.04 159.741 237.44 159.489C236.84 159.225 236.366 158.865 236.018 158.409C235.67 157.941 235.478 157.407 235.442 156.807H237.134C237.182 157.299 237.41 157.701 237.818 158.013C238.238 158.325 238.784 158.481 239.456 158.481C240.08 158.481 240.572 158.343 240.932 158.067C241.292 157.791 241.472 157.443 241.472 157.023C241.472 156.591 241.28 156.273 240.896 156.069C240.512 155.853 239.918 155.643 239.114 155.439C238.382 155.247 237.782 155.055 237.314 154.863C236.858 154.659 236.462 154.365 236.126 153.981C235.802 153.585 235.64 153.069 235.64 152.433C235.64 151.929 235.79 151.467 236.09 151.047C236.39 150.627 236.816 150.297 237.368 150.057C237.92 149.805 238.55 149.679 239.258 149.679C240.35 149.679 241.232 149.955 241.904 150.507C242.576 151.059 242.936 151.815 242.984 152.775H241.346C241.31 152.259 241.1 151.845 240.716 151.533C240.344 151.221 239.84 151.065 239.204 151.065C238.616 151.065 238.148 151.191 237.8 151.443C237.452 151.695 237.278 152.025 237.278 152.433C237.278 152.757 237.38 153.027 237.584 153.243C237.8 153.447 238.064 153.615 238.376 153.747C238.7 153.867 239.144 154.005 239.708 154.161C240.416 154.353 240.992 154.545 241.436 154.737C241.88 154.917 242.258 155.193 242.57 155.565C242.894 155.937 243.062 156.423 243.074 157.023C243.074 157.563 242.924 158.049 242.624 158.481C242.324 158.913 241.898 159.255 241.346 159.507C240.806 159.747 240.182 159.867 239.474 159.867ZM254.134 149.841V159.705H252.496V158.247C252.184 158.751 251.746 159.147 251.182 159.435C250.63 159.711 250.018 159.849 249.346 159.849C248.578 159.849 247.888 159.693 247.276 159.381C246.664 159.057 246.178 158.577 245.818 157.941C245.47 157.305 245.296 156.531 245.296 155.619V149.841H246.916V155.403C246.916 156.375 247.162 157.125 247.654 157.653C248.146 158.169 248.818 158.427 249.67 158.427C250.546 158.427 251.236 158.157 251.74 157.617C252.244 157.077 252.496 156.291 252.496 155.259V149.841H254.134ZM256.288 154.755C256.288 153.735 256.492 152.847 256.9 152.091C257.308 151.323 257.872 150.729 258.592 150.309C259.324 149.889 260.158 149.679 261.094 149.679C262.306 149.679 263.302 149.973 264.082 150.561C264.874 151.149 265.396 151.965 265.648 153.009H263.884C263.716 152.409 263.386 151.935 262.894 151.587C262.414 151.239 261.814 151.065 261.094 151.065C260.158 151.065 259.402 151.389 258.826 152.037C258.25 152.673 257.962 153.579 257.962 154.755C257.962 155.943 258.25 156.861 258.826 157.509C259.402 158.157 260.158 158.481 261.094 158.481C261.814 158.481 262.414 158.313 262.894 157.977C263.374 157.641 263.704 157.161 263.884 156.537H265.648C265.384 157.545 264.856 158.355 264.064 158.967C263.272 159.567 262.282 159.867 261.094 159.867C260.158 159.867 259.324 159.657 258.592 159.237C257.872 158.817 257.308 158.223 256.9 157.455C256.492 156.687 256.288 155.787 256.288 154.755ZM267.221 154.755C267.221 153.735 267.425 152.847 267.833 152.091C268.241 151.323 268.805 150.729 269.525 150.309C270.257 149.889 271.091 149.679 272.027 149.679C273.239 149.679 274.235 149.973 275.015 150.561C275.807 151.149 276.329 151.965 276.581 153.009H274.817C274.649 152.409 274.319 151.935 273.827 151.587C273.347 151.239 272.747 151.065 272.027 151.065C271.091 151.065 270.335 151.389 269.759 152.037C269.183 152.673 268.895 153.579 268.895 154.755C268.895 155.943 269.183 156.861 269.759 157.509C270.335 158.157 271.091 158.481 272.027 158.481C272.747 158.481 273.347 158.313 273.827 157.977C274.307 157.641 274.637 157.161 274.817 156.537H276.581C276.317 157.545 275.789 158.355 274.997 158.967C274.205 159.567 273.215 159.867 272.027 159.867C271.091 159.867 270.257 159.657 269.525 159.237C268.805 158.817 268.241 158.223 267.833 157.455C267.425 156.687 267.221 155.787 267.221 154.755ZM287.767 154.395C287.767 154.707 287.749 155.037 287.713 155.385H279.829C279.889 156.357 280.219 157.119 280.819 157.671C281.431 158.211 282.169 158.481 283.033 158.481C283.741 158.481 284.329 158.319 284.797 157.995C285.277 157.659 285.613 157.215 285.805 156.663H287.569C287.305 157.611 286.777 158.385 285.985 158.985C285.193 159.573 284.209 159.867 283.033 159.867C282.097 159.867 281.257 159.657 280.513 159.237C279.781 158.817 279.205 158.223 278.785 157.455C278.365 156.675 278.155 155.775 278.155 154.755C278.155 153.735 278.359 152.841 278.767 152.073C279.175 151.305 279.745 150.717 280.477 150.309C281.221 149.889 282.073 149.679 283.033 149.679C283.969 149.679 284.797 149.883 285.517 150.291C286.237 150.699 286.789 151.263 287.173 151.983C287.569 152.691 287.767 153.495 287.767 154.395ZM286.075 154.053C286.075 153.429 285.937 152.895 285.661 152.451C285.385 151.995 285.007 151.653 284.527 151.425C284.059 151.185 283.537 151.065 282.961 151.065C282.133 151.065 281.425 151.329 280.837 151.857C280.261 152.385 279.931 153.117 279.847 154.053H286.075ZM293.421 159.867C292.665 159.867 291.987 159.741 291.387 159.489C290.787 159.225 290.313 158.865 289.965 158.409C289.617 157.941 289.425 157.407 289.389 156.807H291.081C291.129 157.299 291.357 157.701 291.765 158.013C292.185 158.325 292.731 158.481 293.403 158.481C294.027 158.481 294.519 158.343 294.879 158.067C295.239 157.791 295.419 157.443 295.419 157.023C295.419 156.591 295.227 156.273 294.843 156.069C294.459 155.853 293.865 155.643 293.061 155.439C292.329 155.247 291.729 155.055 291.261 154.863C290.805 154.659 290.409 154.365 290.073 153.981C289.749 153.585 289.587 153.069 289.587 152.433C289.587 151.929 289.737 151.467 290.037 151.047C290.337 150.627 290.763 150.297 291.315 150.057C291.867 149.805 292.497 149.679 293.205 149.679C294.297 149.679 295.179 149.955 295.851 150.507C296.523 151.059 296.883 151.815 296.931 152.775H295.293C295.257 152.259 295.047 151.845 294.663 151.533C294.291 151.221 293.787 151.065 293.151 151.065C292.563 151.065 292.095 151.191 291.747 151.443C291.399 151.695 291.225 152.025 291.225 152.433C291.225 152.757 291.327 153.027 291.531 153.243C291.747 153.447 292.011 153.615 292.323 153.747C292.647 153.867 293.091 154.005 293.655 154.161C294.363 154.353 294.939 154.545 295.383 154.737C295.827 154.917 296.205 155.193 296.517 155.565C296.841 155.937 297.009 156.423 297.021 157.023C297.021 157.563 296.871 158.049 296.571 158.481C296.271 158.913 295.845 159.255 295.293 159.507C294.753 159.747 294.129 159.867 293.421 159.867ZM302.825 159.867C302.069 159.867 301.391 159.741 300.791 159.489C300.191 159.225 299.717 158.865 299.369 158.409C299.021 157.941 298.829 157.407 298.793 156.807H300.485C300.533 157.299 300.761 157.701 301.169 158.013C301.589 158.325 302.135 158.481 302.807 158.481C303.431 158.481 303.923 158.343 304.283 158.067C304.643 157.791 304.823 157.443 304.823 157.023C304.823 156.591 304.631 156.273 304.247 156.069C303.863 155.853 303.269 155.643 302.465 155.439C301.733 155.247 301.133 155.055 300.665 154.863C300.209 154.659 299.813 154.365 299.477 153.981C299.153 153.585 298.991 153.069 298.991 152.433C298.991 151.929 299.141 151.467 299.441 151.047C299.741 150.627 300.167 150.297 300.719 150.057C301.271 149.805 301.901 149.679 302.609 149.679C303.701 149.679 304.583 149.955 305.255 150.507C305.927 151.059 306.287 151.815 306.335 152.775H304.697C304.661 152.259 304.451 151.845 304.067 151.533C303.695 151.221 303.191 151.065 302.555 151.065C301.967 151.065 301.499 151.191 301.151 151.443C300.803 151.695 300.629 152.025 300.629 152.433C300.629 152.757 300.731 153.027 300.935 153.243C301.151 153.447 301.415 153.615 301.727 153.747C302.051 153.867 302.495 154.005 303.059 154.161C303.767 154.353 304.343 154.545 304.787 154.737C305.231 154.917 305.609 155.193 305.921 155.565C306.245 155.937 306.413 156.423 306.425 157.023C306.425 157.563 306.275 158.049 305.975 158.481C305.675 158.913 305.249 159.255 304.697 159.507C304.157 159.747 303.533 159.867 302.825 159.867Z"/>
<path fill="#F94926" d="M997.476 82.7496C996.785 82.8551 996.123 82.9906 995.462 83.1413C995.462 82.8852 995.552 82.6894 995.702 82.599C996.274 82.2827 991.508 70.2027 997.476 60.8339C1007.02 45.8469 1009.31 30.7694 1009.31 30.7694C1009.31 30.7694 1006.5 30.0314 1007.99 25.8892C1009.46 21.7471 1017.74 11.821 1031.35 14.6377C1035.92 15.5866 1044.35 21.1597 1046.28 28.8565C1048.2 36.5534 1046.73 39.6713 1048.35 43.3766C1049.98 47.082 1054.11 48.7087 1056.18 55.5169C1058.26 62.3251 1053.97 67.0095 1052.2 68.6663C1050.43 70.3232 1050.13 77.282 1053.09 81.4392C1054.41 83.307 1055.43 85.3404 1055.21 87.3136C1052.07 85.6266 1048.53 84.4065 1044.35 83.5178L997.491 82.7798L997.476 82.7496Z"/>
<path fill="#122A36" d="M997.109 62.0234C997.259 62.0234 997.395 61.9331 997.44 61.7824C997.831 60.5775 1001.29 56.5859 1005.57 53.95C1005.74 53.8446 1005.8 53.6337 1005.69 53.468C1005.59 53.3023 1005.36 53.2571 1005.2 53.3475C1001.02 55.9232 997.259 60.0503 996.763 61.5716C996.703 61.7523 996.808 61.9632 996.989 62.0234C997.019 62.0234 997.064 62.0385 997.094 62.0385L997.109 62.0234Z"/>
<path fill="white" d="M997.476 82.7501C997.476 82.7501 998.799 92.3599 1001.61 96.8033C1004.41 101.247 1010.33 108.959 1018.16 109.682C1026.01 110.435 1032.36 106.127 1037.11 99.9062C1041.86 93.6854 1044.32 83.4731 1044.32 83.4731C1044.32 83.4731 1031.47 82.2983 1030.13 80.9728C1028.79 79.6473 1027.18 74.4508 1028.36 70.7605C1029.54 67.0401 1035.32 59.4939 1035.32 59.4939C1039.62 59.042 1045.07 56.2404 1046.1 49.4322C1047.15 42.6089 1042.41 44.1001 1041.38 45.7118C1041.38 45.7118 1036.5 40.9822 1034.28 36.5388C1032.07 32.0954 1030.73 27.4863 1030.73 27.4863C1030.73 27.4863 1023.92 30.3181 1019.2 31.6435C1014.46 32.969 1008.08 29.8812 1008.08 29.8812C1007.74 31.1314 1004.39 40.8466 1004.14 49.8238C1004.06 52.4296 1004.24 54.9902 1004.84 57.2496C1005.14 58.3943 1005.55 59.4336 1006.03 60.4127C1009.19 66.9949 1015.49 69.8568 1015.49 69.8568C1015.49 69.8568 1015.5 69.9622 1015.56 70.1731C1015.59 70.3538 1015.65 70.6249 1015.7 70.9412C1016.22 73.4868 1017.28 79.7226 1015.64 80.6565C1013.56 81.8464 997.461 82.7351 997.461 82.7351L997.476 82.7501Z"/>
<path fill="white" d="M952.64 155.682L953.873 152.489C959.495 154.493 975.717 167.386 975.717 167.386C975.146 169.555 970.38 180.249 964.186 183.714C957.992 187.178 944.897 181.379 936.794 176.348C926.556 169.992 908.966 156.646 908.966 156.646L905.508 138.933C905.508 138.933 951.648 155.698 952.655 155.698L952.64 155.682Z"/>
<path fill="#00AFE3" d="M973.553 102.603C978.469 92.9631 984.287 85.2059 995.668 82.6905C996.314 82.555 996.961 82.4194 997.637 82.314C997.637 82.314 998.93 91.6978 1001.68 96.0358C1004.43 100.374 1010.19 107.875 1017.83 108.598C1025.47 109.321 1031.67 105.133 1036.31 99.0633C1040.94 92.9932 1043.36 83.0219 1043.36 83.0219C1047.43 83.8955 1050.86 85.0854 1053.94 86.7272C1055.99 87.8268 1057.86 89.1222 1059.65 90.6736C1064.12 94.5747 1073.06 126.115 1076.52 143.226C1079.33 157.144 1083.44 169.54 1083.44 178.638C1083.44 187.735 1075.21 195.538 1066.34 197.059C1066.34 197.059 1068.43 188.609 1061.23 180.234C1054.02 171.86 1049.7 170.414 1049.7 170.414L1055.43 168.245L1051.87 146.359L1048.47 170.7L993.007 183.955L987.835 148.95C987.835 148.95 984.813 146.133 984.588 143.753L975.718 167.371C975.718 167.371 959.496 154.463 953.873 152.474C953.873 152.474 968.366 112.77 973.553 102.588V102.603Z"/>
<path fill="black" d="M1030.22 14.126C1034.56 15.331 1038.86 16.9125 1041.97 23.2538C1045.07 29.58 1043.85 43.0306 1042.64 47.2481L1040.2 46.3594C1040.2 46.3594 1041.75 34.2192 1039.87 27.5164C1037.99 20.8137 1030.7 14.1109 1021.87 14.6833C1021.87 14.6833 1026.58 13.1168 1030.23 14.126H1030.22Z"/>
<path fill="#122A36" d="M1033.33 42.3819C1033.45 42.3819 1033.57 42.3217 1033.63 42.2012C1033.73 42.0355 1033.67 41.8096 1033.51 41.7192C1031.87 40.7401 1026.25 39.4147 1023.51 40.936C1023.34 41.0263 1023.28 41.2523 1023.37 41.4179C1023.46 41.5836 1023.69 41.6439 1023.86 41.5535C1026.23 40.228 1031.6 41.418 1033.15 42.3217C1033.21 42.3518 1033.27 42.3669 1033.33 42.3669V42.3819Z"/>
<path fill="#122A36" d="M1016.25 39.9286C1016.25 39.9286 1016.4 39.9135 1016.46 39.8683C1016.62 39.7478 1016.65 39.537 1016.55 39.3713C1016.01 38.6182 1014.46 36.8408 1011.57 36.4793C1009.03 36.1781 1007.56 37.0818 1007.5 37.127C1007.33 37.2324 1007.29 37.4433 1007.39 37.609C1007.5 37.7747 1007.71 37.8199 1007.87 37.7295C1007.87 37.7295 1009.21 36.9011 1011.48 37.1872C1014.08 37.5036 1015.48 39.1002 1015.96 39.778C1016.04 39.8683 1016.14 39.9286 1016.25 39.9286Z"/>
<path fill="#F94926" d="M1015.23 62.0247C1018.45 62.0247 1020.07 59.7352 1020.09 59.7051C1020.19 59.5394 1020.16 59.3285 1020 59.208C1019.83 59.1026 1019.62 59.1327 1019.5 59.2984C1019.39 59.449 1016.85 62.9886 1011.53 60.3226C1011.35 60.2322 1011.14 60.3075 1011.05 60.4883C1010.96 60.669 1011.04 60.8799 1011.2 60.9703C1012.73 61.7385 1014.09 62.0247 1015.21 62.0247H1015.23Z"/>
<path fill="#122A36" d="M1015.57 70.1873C1015.6 70.368 1015.86 71.6032 1015.9 71.9345C1016.73 72.1002 1022.67 71.9345 1026.64 68.9522C1026.79 68.8317 1026.85 68.6359 1026.74 68.4551C1026.64 68.2894 1026.43 68.2443 1026.25 68.3497C1023.29 70.2325 1018.82 70.8952 1015.57 70.2024V70.1873Z"/>
<path fill="#6C90FE" d="M1052.89 169.554C1052.89 169.554 1052.98 169.554 1053.01 169.524C1053.21 169.448 1053.42 169.373 1053.63 169.283C1055.72 168.454 1058.3 167.43 1063.29 168.59C1063.47 168.635 1063.67 168.514 1063.72 168.334C1063.76 168.153 1063.64 167.957 1063.46 167.912C1058.26 166.707 1055.43 167.822 1053.37 168.635C1053.16 168.725 1052.95 168.801 1052.76 168.876C1052.57 168.951 1052.48 169.147 1052.56 169.328C1052.6 169.463 1052.74 169.554 1052.89 169.554Z"/>
<path fill="#6C90FE" d="M1047.09 151.84C1047.09 151.84 1047.22 151.825 1047.28 151.78C1047.39 151.705 1049.96 149.972 1052.14 146.553C1053.72 144.068 1056.3 138.239 1055.76 127.213C1055.76 127.017 1055.57 126.897 1055.4 126.882C1055.21 126.882 1055.07 127.048 1055.07 127.243C1055.61 138.088 1053.1 143.767 1051.55 146.177C1049.46 149.46 1046.92 151.192 1046.89 151.208C1046.73 151.313 1046.7 151.524 1046.8 151.69C1046.86 151.795 1046.98 151.84 1047.09 151.84Z"/>
<path fill="#6C90FE" d="M990.993 151.839C991.114 151.839 991.234 151.779 991.294 151.659C991.384 151.493 991.324 151.282 991.159 151.192C989.264 150.107 987.325 147.983 985.07 144.519C983.01 141.356 980.469 126.52 986.964 115.705C987.069 115.539 987.009 115.328 986.844 115.223C986.678 115.117 986.468 115.178 986.363 115.343C979.718 126.414 982.349 141.642 984.468 144.896C986.784 148.45 988.783 150.65 990.783 151.794C990.843 151.824 990.903 151.839 990.948 151.839H990.993Z"/>
<path fill="#6C90FE" d="M997.263 184.918C997.369 184.918 997.459 184.873 997.534 184.783C1001.91 179.225 1012.36 157.565 1019.27 143.241C1020.15 141.433 1020.97 139.716 1021.72 138.165C1026.26 128.781 1034.25 111.233 1036.62 99.123C1037.89 92.6311 1038.52 80.6867 1039.01 71.092C1039.3 65.6545 1039.54 60.955 1039.86 58.063C1039.87 57.8672 1039.73 57.7015 1039.55 57.6865C1039.33 57.6564 1039.19 57.807 1039.18 57.9877C1038.88 60.8948 1038.62 65.6093 1038.34 71.0468C1037.84 80.6264 1037.21 92.5408 1035.96 98.9875C1033.6 111.022 1025.65 128.51 1021.12 137.863C1020.37 139.415 1019.54 141.117 1018.67 142.939C1011.77 157.249 1001.35 178.863 997.008 184.361C996.888 184.512 996.918 184.722 997.068 184.843C997.128 184.888 997.203 184.918 997.278 184.918H997.263Z"/>
<path fill="#122A36" d="M997.49 60.8349C1000.53 61.9645 998.813 70.0982 994.829 68.6522C990.83 67.2062 993.491 59.3587 997.49 60.8349Z"/>
<path fill="#122A36" d="M1041.38 45.7266C1045.91 45.6362 1047.14 49.5826 1046.25 53.5741C1045.37 57.5656 1042.41 59.3731 1039.38 58.3941C1036.36 57.4301 1035.91 52.9867 1036.65 50.17C1037.38 47.3534 1039.1 45.7718 1041.38 45.7266Z"/>
<path fill="white" d="M962.155 199.017H981.459C981.459 199.017 1002.52 198.806 1016.35 199.017C1030.2 199.228 1063.71 197.285 1066.31 197.074C1066.31 197.074 1068.4 188.609 1061.2 180.234C1053.98 171.844 1049.65 170.398 1049.65 170.398L1048.42 170.7L992.96 183.955H992.84C992.84 183.955 990.389 182.674 985.759 182.102C981.158 181.53 977.4 182.975 973.942 186.003C970.484 189.031 962.125 199.002 962.125 199.002L962.155 199.017Z"/>
<path fill="#122A36" d="M966.955 199.017H967.962C970.172 196.924 973.675 193.55 975.961 191.17C976.096 191.034 976.096 190.823 975.961 190.688C975.825 190.552 975.6 190.567 975.479 190.688C972.999 193.264 969.135 196.984 966.97 199.032L966.955 199.017Z"/>
<path fill="#122A36" d="M971.145 199.018H972.483C975.008 197.452 978.421 195.237 980.706 193.37C980.842 193.249 980.857 193.023 980.736 192.888C980.616 192.737 980.406 192.707 980.255 192.842C977.699 194.936 973.7 197.482 971.16 199.033L971.145 199.018Z"/>
<path fill="#122A36" d="M977.387 199.017H978.89C980.769 198.023 983.025 196.788 984.979 195.553C985.129 195.447 985.189 195.236 985.084 195.086C984.979 194.92 984.753 194.875 984.603 194.965C982.243 196.456 979.431 197.963 977.387 199.017Z"/>
<path fill="#122A36" d="M1022.65 46.2391C1022.47 47.5947 1022.8 48.7545 1023.39 48.8298C1023.98 48.9051 1024.61 47.8809 1024.79 46.5253C1024.97 45.1697 1024.64 44.0099 1024.05 43.9346C1023.46 43.8593 1022.83 44.8835 1022.65 46.2391Z"/>
<path fill="#122A36" d="M1008.82 43.3475C1008.64 44.7031 1008.97 45.8629 1009.56 45.9382C1010.15 46.0135 1010.78 44.9893 1010.96 43.6337C1011.14 42.2781 1010.81 41.1183 1010.22 41.043C1009.63 40.9677 1009 41.9919 1008.82 43.3475Z"/>
<path stroke-linecap="round" stroke-miterlimit="10" stroke-width="0.5" stroke="#122A36" d="M1016.62 44.2808L1012.92 54.3123L1016.08 54.6738"/>
<path fill="black" d="M822.082 95.1972L837.329 173.791C837.712 175.815 839.688 177.484 841.708 177.484H962.681C964.701 177.484 966.058 175.829 965.645 173.791L950.398 95.1972C950.014 93.1733 948.038 91.5039 946.018 91.5039H825.046C823.026 91.5039 821.669 93.1585 822.082 95.1972Z"/>
<path fill="#0A0702" d="M868.992 111.211H897.864L913.819 173.126L904.116 189.229L926.721 193.351V197.059H899.398H870.231L885.876 173.126L868.992 111.211Z"/>
<path fill="#0C0803" d="M917.824 91.5039L933.779 177.484H934.531L918.606 91.5039H917.824Z"/>
<path stroke="#00AFE3" d="M899.667 78.946L899.521 78.803H899.317H867.976H867.932C865.687 78.803 863.867 76.9624 863.867 74.7293V20.5053C863.867 18.2738 865.707 16.4316 867.932 16.4316H949.314C951.559 16.4316 953.379 18.2723 953.379 20.5053V74.7293C953.379 76.9608 951.539 78.803 949.314 78.803H919.728H919.549L919.41 78.9174L908.674 87.7782L899.667 78.946Z"/>
<path fill="#00AFE3" d="M909.344 40.3388C909.344 30.0261 917.706 21.6484 927.999 21.6484C938.293 21.6484 946.655 30.0261 946.655 40.3388C946.655 50.6515 938.293 59.0292 927.999 59.0292C917.706 59.0292 909.344 50.6515 909.344 40.3388ZM910.178 40.3388C910.178 50.1897 918.189 58.2156 928.021 58.2156C937.854 58.2156 945.864 50.1897 945.864 40.3388C945.864 30.4879 937.854 22.462 928.021 22.462C918.189 22.462 910.178 30.4879 910.178 40.3388Z"/>
<path fill="#00AFE3" d="M875.339 59.1836H901.72C904.288 59.1836 906.395 57.0727 906.395 54.5C906.395 51.9273 904.288 49.8164 901.72 49.8164H875.339C872.771 49.8164 870.664 51.9273 870.664 54.5C870.664 57.0727 872.771 59.1836 875.339 59.1836Z"/>
<path fill="#00AFE3" d="M881.265 22.4625H905.956C906.175 22.4625 906.373 22.2866 906.373 22.0447C906.373 21.8029 906.197 21.627 905.956 21.627H881.265C881.045 21.627 880.848 21.8029 880.848 22.0447C880.848 22.2866 881.023 22.4625 881.265 22.4625Z"/>
<path fill="#00AFE3" d="M890.771 30.0485H905.958C906.178 30.0485 906.375 29.8725 906.375 29.6307C906.375 29.3888 906.2 29.2129 905.958 29.2129H890.771C890.551 29.2129 890.354 29.3888 890.354 29.6307C890.354 29.8725 890.529 30.0485 890.771 30.0485Z"/>
<path fill="#00AFE3" d="M886.597 68.8805H905.976C906.196 68.8805 906.393 68.7046 906.393 68.4627C906.393 68.2208 906.218 68.0449 905.976 68.0449H886.597C886.377 68.0449 886.18 68.2208 886.18 68.4627C886.18 68.7046 886.355 68.8805 886.597 68.8805Z"/>
<path fill="#00AFE3" d="M921.367 37.1295C921.367 32.2919 924.769 28.334 928.961 28.334C933.153 28.334 936.555 32.27 936.555 37.1295C936.555 41.989 933.153 45.9029 928.961 45.9029C924.769 45.9029 921.367 41.967 921.367 37.1295ZM922.179 37.1295C922.179 41.5272 925.208 45.0894 928.939 45.0894C932.67 45.0894 935.699 41.5052 935.699 37.1295C935.699 32.7537 932.67 29.1696 928.939 29.1696C925.208 29.1696 922.179 32.7537 922.179 37.1295Z"/>
<path fill="#00AFE3" d="M916.466 54.917C916.663 54.917 916.839 54.7631 916.861 54.5652C918.024 45.3739 923.599 42.9771 923.665 42.9551C923.884 42.8672 923.972 42.6253 923.884 42.4274C923.796 42.2075 923.555 42.1196 923.357 42.2075C923.116 42.3175 917.278 44.7802 916.049 54.4772C916.027 54.6971 916.181 54.917 916.4 54.939H916.444L916.466 54.917Z"/>
<path stroke="#00AFE3" d="M816.428 84.3297L816.282 84.1867H816.078H796.095H796.067C794.736 84.1867 793.656 83.0952 793.656 81.7706V47.1974C793.656 45.8744 794.749 44.7812 796.067 44.7812H847.956C849.286 44.7812 850.366 45.8728 850.366 47.1974V81.7706C850.366 83.0936 849.274 84.1867 847.956 84.1867H829.092H828.912L828.774 84.3011L822.054 89.847L816.428 84.3297Z"/>
<path fill="#00AFE3" d="M822.469 59.8427C822.469 53.2674 827.8 47.9258 834.363 47.9258C840.926 47.9258 846.258 53.2674 846.258 59.8427C846.258 66.4181 840.926 71.7597 834.363 71.7597C827.8 71.7597 822.469 66.4181 822.469 59.8427ZM823.001 59.8427C823.001 66.1237 828.108 71.241 834.377 71.241C840.647 71.241 845.754 66.1237 845.754 59.8427C845.754 53.5618 840.647 48.4445 834.377 48.4445C828.108 48.4445 823.001 53.5618 823.001 59.8427Z"/>
<path fill="#00AFE3" d="M800.793 71.8602H817.614C819.251 71.8602 820.594 70.5143 820.594 68.8739C820.594 67.2336 819.251 65.8877 817.614 65.8877H800.793C799.156 65.8877 797.812 67.2336 797.812 68.8739C797.812 70.5143 799.156 71.8602 800.793 71.8602Z"/>
<path fill="#00AFE3" d="M804.569 48.4458H820.312C820.451 48.4458 820.577 48.3337 820.577 48.1795C820.577 48.0252 820.465 47.9131 820.312 47.9131H804.569C804.429 47.9131 804.303 48.0252 804.303 48.1795C804.303 48.3337 804.415 48.4458 804.569 48.4458Z"/>
<path fill="#00AFE3" d="M810.631 53.2832H820.315C820.455 53.2832 820.581 53.1711 820.581 53.0169C820.581 52.8626 820.469 52.7505 820.315 52.7505H810.631C810.491 52.7505 810.365 52.8626 810.365 53.0169C810.365 53.1711 810.477 53.2832 810.631 53.2832Z"/>
<path fill="#00AFE3" d="M807.969 78.043H820.325C820.465 78.043 820.591 77.9309 820.591 77.7766C820.591 77.6224 820.479 77.5103 820.325 77.5103H807.969C807.829 77.5103 807.703 77.6224 807.703 77.7766C807.703 77.9309 807.815 78.043 807.969 78.043Z"/>
<path fill="#00AFE3" d="M830.139 57.7979C830.139 54.7135 832.308 52.1899 834.98 52.1899C837.653 52.1899 839.822 54.6995 839.822 57.7979C839.822 60.8963 837.653 63.3919 834.98 63.3919C832.308 63.3919 830.139 60.8823 830.139 57.7979ZM830.656 57.7979C830.656 60.6019 832.588 62.8731 834.967 62.8731C837.345 62.8731 839.277 60.5879 839.277 57.7979C839.277 55.008 837.345 52.7227 834.967 52.7227C832.588 52.7227 830.656 55.008 830.656 57.7979Z"/>
<path fill="#00AFE3" d="M827.013 69.1392C827.139 69.1392 827.251 69.041 827.265 68.9149C828.007 63.0545 831.561 61.5263 831.603 61.5123C831.743 61.4562 831.799 61.302 831.743 61.1758C831.687 61.0356 831.533 60.9796 831.407 61.0357C831.253 61.1058 827.531 62.676 826.747 68.8588C826.733 68.999 826.831 69.1392 826.971 69.1532H826.999L827.013 69.1392Z"/>
<path fill="white" d="M1254.73 18.2527L1252.39 14.5807L1250.14 18.2527H1248.43L1251.62 13.3567L1248.43 8.38867H1250.28L1252.62 12.0427L1254.86 8.38867H1256.57L1253.4 13.2667L1256.58 18.2527H1254.73Z"/>
<defs>
<linearGradient gradientUnits="userSpaceOnUse" y2="199.033" x2="632" y1="0.503906" x1="632" id="paint0_linear_1122_3473">
<stop stop-color="#E3F6FC"/>
<stop stop-color="#24CDFF" offset="1"/>
</linearGradient>
</defs>
</svg>