<svg width="12" height="18" viewBox="0 0 12 18" fill="none" xmlns="http://www.w3.org/2000/svg">
<path d="M5.98198 8.83953C5.43313 8.83953 4.90675 8.6215 4.51865 8.2334C4.13056 7.8453 3.91252 7.31892 3.91252 6.77007C3.91252 6.22121 4.13056 5.69484 4.51865 5.30674C4.90675 4.91864 5.43313 4.70061 5.98198 4.70061C6.53084 4.70061 7.05721 4.91864 7.44531 5.30674C7.83341 5.69484 8.05144 6.22121 8.05144 6.77007C8.05144 7.04183 7.99791 7.31094 7.89391 7.56202C7.78991 7.81309 7.63748 8.04123 7.44531 8.2334C7.25314 8.42556 7.02501 8.578 6.77393 8.682C6.52285 8.786 6.25375 8.83953 5.98198 8.83953ZM5.98198 0.975586C4.44519 0.975586 2.97134 1.58607 1.88466 2.67275C0.797988 3.75943 0.1875 5.23328 0.1875 6.77007C0.1875 11.1159 5.98198 17.5312 5.98198 17.5312C5.98198 17.5312 11.7765 11.1159 11.7765 6.77007C11.7765 5.23328 11.166 3.75943 10.0793 2.67275C8.99262 1.58607 7.51877 0.975586 5.98198 0.975586Z" fill="black"/>
</svg>
