<svg width="622" height="297" viewBox="0 0 622 297" fill="none" xmlns="http://www.w3.org/2000/svg">
<rect width="622" height="296.17" fill="url(#paint0_linear_6113_184)"/>
<g clip-path="url(#clip0_6113_184)">
<path d="M422.066 176.33L436.657 158.816V186.385L422.066 176.33Z" fill="url(#paint1_linear_6113_184)"/>
<path d="M572.924 168.054L558.324 185.558V157.998L572.924 168.054Z" fill="url(#paint2_linear_6113_184)"/>
<path d="M561.842 190.873V156.042C561.842 145.67 555.396 136.387 545.666 132.756L506.269 118.045C500.634 115.941 494.431 115.941 488.796 118.045L449.399 132.765C439.669 136.406 433.223 145.679 433.223 156.051V190.882C433.223 201.255 439.669 210.537 449.399 214.168L488.786 228.889C494.421 230.993 500.625 230.993 506.26 228.889L545.647 214.168C555.377 210.528 561.824 201.255 561.824 190.882L561.842 190.873Z" fill="#00AFE3"/>
<path d="M497.537 226.915C494.971 226.915 492.453 226.459 490.046 225.565L450.92 210.845C442.626 207.745 437.309 199.719 437.309 190.883V156.052C437.309 147.207 442.617 139.19 450.92 136.09L490.176 121.37C492.583 120.476 495.037 120.02 497.602 120.02C500.168 120.02 502.659 120.476 505.056 121.37L544.08 136.09C552.373 139.19 557.588 147.216 557.588 156.052V190.883C557.588 199.728 552.364 207.745 544.07 210.845L504.851 225.565C502.444 226.469 500.102 226.915 497.537 226.915Z" fill="#009DC1"/>
<path d="M497.536 223.369C495.399 223.369 493.291 222.987 491.294 222.242L452.234 207.522C445.489 204.999 440.992 198.314 440.992 190.874V156.043C440.992 148.604 445.489 141.919 452.224 139.396L491.453 124.675C493.477 123.921 495.492 123.549 497.61 123.549C499.728 123.549 501.808 123.931 503.814 124.675L543.388 139.396C550.263 141.965 555.133 148.66 555.133 156.043V190.874C555.133 198.258 550.254 204.943 543.369 207.522L503.879 222.242C501.874 222.987 499.663 223.369 497.536 223.369Z" fill="url(#paint3_linear_6113_184)"/>
<path d="M573 141.76L422.065 176.33L422 202.624L572.944 168.062L573 141.76Z" fill="#009DC1"/>
<path d="M471.482 159.311L468.311 159.916L468.525 148.603L465.391 150.223L465.437 147.533L471.473 144.06L471.762 144.004L471.473 159.311H471.482Z" fill="white"/>
<path d="M485.207 150.437C485.17 152.504 484.722 154.179 483.873 155.455C483.024 156.731 481.849 157.522 480.337 157.811C478.817 158.099 477.651 157.764 476.839 156.796C476.027 155.827 475.645 154.319 475.682 152.261L475.738 149.468C475.775 147.401 476.223 145.725 477.072 144.45C477.921 143.165 479.106 142.383 480.617 142.094C482.129 141.806 483.295 142.141 484.106 143.109C484.918 144.077 485.3 145.595 485.263 147.653L485.207 150.437ZM482.101 147.802C482.119 146.703 482.007 145.902 481.765 145.409C481.522 144.915 481.112 144.72 480.561 144.832C480.02 144.934 479.619 145.26 479.358 145.818C479.097 146.368 478.957 147.159 478.919 148.183L478.845 152.094C478.826 153.239 478.938 154.049 479.181 154.524C479.423 155.008 479.824 155.194 480.384 155.083C480.925 154.98 481.326 154.645 481.587 154.077C481.858 153.509 481.998 152.68 482.026 151.582L482.101 147.802Z" fill="white"/>
<path d="M496.324 148.306C496.287 150.373 495.839 152.049 494.99 153.324C494.141 154.609 492.966 155.391 491.455 155.68C489.934 155.968 488.768 155.633 487.956 154.665C487.145 153.697 486.762 152.188 486.799 150.131L486.855 147.337C486.893 145.27 487.34 143.594 488.189 142.319C489.038 141.034 490.223 140.252 491.734 139.963C493.246 139.675 494.412 140.01 495.223 140.978C496.035 141.947 496.418 143.464 496.38 145.522L496.324 148.306ZM493.227 145.661C493.246 144.563 493.134 143.762 492.891 143.269C492.649 142.775 492.248 142.58 491.688 142.691C491.147 142.794 490.746 143.12 490.484 143.678C490.223 144.237 490.083 145.019 490.046 146.043L489.971 149.954C489.953 151.099 490.065 151.909 490.307 152.384C490.55 152.868 490.96 153.054 491.511 152.942C492.052 152.84 492.453 152.505 492.714 151.937C492.985 151.369 493.124 150.54 493.152 149.432L493.227 145.652V145.661Z" fill="white"/>
<path d="M498.1 141.871C498.119 140.922 498.408 140.112 498.968 139.423C499.527 138.734 500.274 138.305 501.197 138.128C502.13 137.952 502.867 138.091 503.408 138.566C503.94 139.041 504.201 139.767 504.183 140.754L504.164 141.508C504.145 142.458 503.856 143.268 503.306 143.948C502.755 144.627 502.009 145.056 501.085 145.232C500.162 145.409 499.434 145.26 498.884 144.804C498.333 144.339 498.072 143.612 498.091 142.616V141.871H498.1ZM501.543 152.392L500.087 151.843L506.981 138.594L508.437 139.143L501.543 152.392ZM500.115 142.29C500.115 142.653 500.19 142.933 500.367 143.119C500.544 143.314 500.796 143.38 501.113 143.314C501.766 143.184 502.112 142.653 502.121 141.722V141.099C502.14 140.735 502.056 140.456 501.888 140.261C501.72 140.065 501.468 139.991 501.151 140.056C500.843 140.112 500.6 140.27 500.414 140.531C500.227 140.791 500.134 141.117 500.125 141.508L500.106 142.29H500.115ZM504.425 149.236C504.444 148.286 504.733 147.467 505.302 146.787C505.871 146.108 506.608 145.679 507.532 145.502C508.465 145.326 509.202 145.465 509.743 145.931C510.284 146.387 510.545 147.132 510.526 148.147V148.882C510.498 149.832 510.209 150.651 509.649 151.331C509.09 152.011 508.353 152.439 507.42 152.616C506.496 152.793 505.769 152.653 505.218 152.188C504.668 151.722 504.407 150.996 504.425 150V149.245V149.236ZM506.44 149.655C506.44 149.981 506.524 150.251 506.72 150.456C506.916 150.661 507.159 150.744 507.448 150.689C508.054 150.577 508.39 150.186 508.455 149.534L508.483 148.454C508.483 148.082 508.409 147.802 508.231 147.616C508.054 147.42 507.812 147.355 507.494 147.42C507.196 147.476 506.953 147.635 506.767 147.877C506.58 148.128 506.478 148.426 506.459 148.798L506.44 149.655Z" fill="white"/>
<path d="M440.082 193.845L436.723 194.617L431.583 185.921L431.76 195.763L428.383 196.545L428.094 180.735L431.471 179.953L436.602 188.649L436.425 178.808L439.792 178.035L440.082 193.845Z" fill="white"/>
<path d="M450.774 184.636L445.465 185.865L445.531 189.646L451.8 188.202L451.856 191.135L442.219 193.361L441.93 177.551L451.595 175.316L451.651 178.259L445.363 179.711L445.428 183.044L450.736 181.815L450.783 184.636H450.774Z" fill="white"/>
<path d="M463.964 182.411L465.392 172.132L468.741 171.359L466.054 187.849L462.556 188.659L460.522 180.083L458.852 189.515L455.363 190.325L452.098 175.205L455.456 174.432L457.238 183.975L458.982 173.622L461.847 172.961L463.983 182.42L463.964 182.411Z" fill="white"/>
<path d="M475.242 185.725L474.953 169.916L479.981 168.752C481.782 168.333 483.163 168.389 484.114 168.919C485.066 169.45 485.551 170.418 485.579 171.843C485.598 172.662 485.439 173.398 485.112 174.05C484.786 174.711 484.31 175.251 483.666 175.67C484.403 175.716 484.973 175.996 485.374 176.498C485.775 177.001 485.98 177.681 485.999 178.537C486.027 180.083 485.616 181.349 484.758 182.327C483.9 183.304 482.622 184.003 480.924 184.403L475.242 185.716V185.725ZM478.452 175.726L480.215 175.316C480.952 175.139 481.474 174.86 481.782 174.497C482.09 174.124 482.239 173.649 482.23 173.072C482.22 172.402 482.043 171.964 481.698 171.75C481.353 171.536 480.802 171.517 480.047 171.685L478.396 172.066L478.461 175.726H478.452ZM478.498 178.23L478.563 182.02L480.774 181.508C481.381 181.368 481.847 181.098 482.174 180.707C482.491 180.316 482.65 179.832 482.64 179.264C482.612 177.942 482.025 177.42 480.868 177.681L478.507 178.23H478.498Z" fill="white"/>
<path d="M498.632 164.451L498.819 174.795C498.838 175.968 498.642 177.03 498.213 177.989C497.783 178.948 497.168 179.749 496.347 180.391C495.526 181.034 494.556 181.48 493.427 181.741C491.72 182.132 490.367 181.946 489.369 181.173C488.37 180.4 487.848 179.143 487.792 177.412L487.605 166.993L491.001 166.211L491.197 176.713C491.262 178.436 491.99 179.134 493.38 178.818C494.08 178.659 494.602 178.315 494.957 177.803C495.311 177.281 495.47 176.536 495.461 175.559L495.274 165.233L498.651 164.451H498.632Z" fill="white"/>
<path d="M508.164 173.901C508.154 173.342 507.968 172.951 507.613 172.719C507.259 172.486 506.643 172.309 505.757 172.179C504.871 172.048 504.152 171.89 503.583 171.713C501.755 171.126 500.822 169.953 500.784 168.194C500.766 167.318 500.98 166.49 501.419 165.717C501.857 164.944 502.492 164.274 503.313 163.706C504.134 163.138 505.057 162.738 506.093 162.505C507.1 162.272 508.005 162.263 508.807 162.486C509.61 162.71 510.244 163.138 510.701 163.79C511.158 164.441 511.392 165.242 511.41 166.201L508.042 166.974C508.033 166.331 507.847 165.866 507.492 165.596C507.138 165.326 506.662 165.251 506.065 165.391C505.458 165.531 504.992 165.791 504.647 166.173C504.301 166.555 504.134 166.974 504.143 167.439C504.143 167.849 504.348 168.166 504.74 168.408C505.132 168.65 505.813 168.836 506.783 168.957C507.753 169.078 508.556 169.283 509.19 169.544C510.72 170.177 511.503 171.359 511.531 173.091C511.559 174.478 511.112 175.67 510.207 176.666C509.302 177.672 508.042 178.352 506.428 178.724C505.29 178.985 504.264 178.994 503.331 178.743C502.398 178.501 501.699 178.026 501.223 177.337C500.747 176.648 500.495 175.782 500.477 174.739L503.863 173.957C503.882 174.804 504.087 175.381 504.479 175.698C504.871 176.005 505.505 176.07 506.382 175.866C506.942 175.735 507.38 175.502 507.697 175.158C508.014 174.813 508.173 174.395 508.164 173.901Z" fill="white"/>
<path d="M516.942 176.099L513.574 176.871L513.285 161.062L516.653 160.289L516.942 176.099Z" fill="white"/>
<path d="M530.976 172.859L527.618 173.632L522.477 164.935L522.655 174.777L519.277 175.559L518.988 159.749L522.365 158.967L527.496 167.663L527.319 157.831L530.687 157.059L530.976 172.868V172.859Z" fill="white"/>
<path d="M541.676 163.651L536.368 164.88L536.433 168.66L542.702 167.217L542.758 170.149L533.121 172.375L532.832 156.565L542.497 154.34L542.553 157.282L536.265 158.734L536.33 162.068L541.639 160.839L541.685 163.66L541.676 163.651Z" fill="white"/>
<path d="M551.273 163.958C551.264 163.399 551.077 163.008 550.723 162.775C550.368 162.542 549.752 162.366 548.866 162.235C547.98 162.105 547.262 161.947 546.693 161.77C544.864 161.183 543.931 160.01 543.894 158.25C543.875 157.375 544.09 156.546 544.528 155.774C544.967 155.001 545.601 154.33 546.422 153.762C547.243 153.195 548.167 152.794 549.202 152.561C550.21 152.329 551.114 152.319 551.917 152.543C552.719 152.766 553.353 153.195 553.811 153.846C554.268 154.498 554.501 155.299 554.52 156.258L551.152 157.031C551.142 156.388 550.956 155.923 550.601 155.653C550.247 155.383 549.771 155.308 549.174 155.448C548.568 155.587 548.101 155.848 547.756 156.23C547.411 156.612 547.243 157.031 547.252 157.496C547.252 157.906 547.457 158.222 547.849 158.464C548.241 158.706 548.922 158.893 549.892 159.014C550.863 159.144 551.665 159.34 552.299 159.6C553.829 160.233 554.613 161.416 554.641 163.148C554.669 164.535 554.221 165.727 553.316 166.723C552.411 167.729 551.152 168.408 549.538 168.781C548.4 169.041 547.374 169.051 546.441 168.799C545.508 168.557 544.808 168.082 544.332 167.393C543.856 166.704 543.605 165.838 543.586 164.796L546.972 164.014C546.991 164.861 547.196 165.438 547.588 165.755C547.98 166.062 548.614 166.127 549.491 165.922C550.051 165.792 550.489 165.559 550.807 165.215C551.124 164.87 551.282 164.451 551.273 163.958Z" fill="white"/>
<path d="M563.597 161.108C563.588 160.549 563.401 160.158 563.047 159.926C562.692 159.693 562.077 159.516 561.19 159.386C560.304 159.255 559.586 159.097 559.017 158.92C557.188 158.333 556.255 157.16 556.218 155.401C556.199 154.525 556.414 153.697 556.852 152.924C557.291 152.151 557.925 151.481 558.746 150.913C559.567 150.354 560.491 149.954 561.526 149.712C562.534 149.479 563.439 149.47 564.241 149.693C565.043 149.917 565.678 150.345 566.135 150.997C566.592 151.648 566.825 152.449 566.844 153.408L563.476 154.181C563.467 153.538 563.28 153.073 562.926 152.803C562.571 152.533 562.095 152.458 561.498 152.598C560.892 152.738 560.425 152.998 560.08 153.38C559.735 153.762 559.567 154.181 559.576 154.646C559.576 155.056 559.782 155.373 560.174 155.615C560.565 155.857 561.246 156.043 562.217 156.164C563.187 156.294 563.989 156.49 564.623 156.751C566.153 157.384 566.937 158.566 566.965 160.298C566.993 161.685 566.545 162.877 565.64 163.873C564.735 164.879 563.476 165.559 561.862 165.931C560.724 166.192 559.698 166.201 558.765 165.95C557.832 165.698 557.132 165.233 556.656 164.544C556.181 163.855 555.929 162.989 555.91 161.946L559.297 161.164C559.315 162.011 559.521 162.588 559.912 162.905C560.304 163.222 560.939 163.277 561.815 163.073C562.375 162.942 562.814 162.71 563.131 162.365C563.448 162.021 563.607 161.602 563.597 161.108Z" fill="white"/>
<path d="M479.691 202.548L479.756 206.104L477.526 206.616L477.34 196.132L481.025 195.285C481.734 195.118 482.359 195.127 482.909 195.295C483.46 195.462 483.889 195.788 484.197 196.263C484.505 196.738 484.663 197.324 484.682 198.013C484.7 199.037 484.393 199.922 483.758 200.685C483.124 201.449 482.247 201.961 481.118 202.222L479.7 202.548H479.691ZM479.653 200.602L481.109 200.266C481.538 200.164 481.864 199.968 482.088 199.671C482.312 199.373 482.415 199 482.406 198.553C482.406 198.06 482.275 197.697 482.032 197.464C481.79 197.231 481.473 197.147 481.071 197.24L479.588 197.585L479.644 200.611L479.653 200.602Z" fill="white"/>
<path d="M489.355 200.165L488.152 200.444L488.217 204.15L485.987 204.662L485.801 194.178L489.439 193.34C490.531 193.089 491.398 193.163 492.023 193.573C492.648 193.983 492.975 194.69 492.993 195.696C493.003 196.422 492.891 197.055 492.639 197.595C492.387 198.135 491.986 198.619 491.436 199.038L493.441 202.828V202.94L491.053 203.489L489.355 200.156V200.165ZM488.114 198.508L489.523 198.182C489.943 198.089 490.26 197.884 490.475 197.586C490.68 197.288 490.782 196.906 490.773 196.459C490.764 196.012 490.652 195.677 490.428 195.472C490.204 195.268 489.887 195.212 489.467 195.305L488.058 195.631L488.114 198.517V198.508Z" fill="white"/>
<path d="M502.203 195.882C502.222 196.907 502.073 197.847 501.746 198.713C501.429 199.579 500.963 200.296 500.356 200.864C499.75 201.432 499.05 201.804 498.267 201.981C497.483 202.167 496.774 202.121 496.158 201.851C495.542 201.581 495.057 201.106 494.703 200.417C494.348 199.728 494.152 198.899 494.124 197.912V197.326C494.096 196.301 494.246 195.352 494.563 194.495C494.88 193.639 495.347 192.922 495.962 192.344C496.578 191.776 497.278 191.395 498.071 191.218C498.854 191.041 499.554 191.087 500.179 191.367C500.804 191.646 501.289 192.14 501.644 192.838C501.998 193.536 502.185 194.393 502.213 195.398V195.882H502.203ZM499.927 195.966C499.908 194.923 499.741 194.169 499.423 193.704C499.106 193.238 498.658 193.071 498.089 193.201C496.97 193.462 496.401 194.542 496.373 196.46V197.232C496.401 198.257 496.569 199.011 496.876 199.495C497.184 199.979 497.641 200.156 498.229 200.016C498.789 199.886 499.218 199.514 499.517 198.899C499.815 198.285 499.955 197.475 499.936 196.45V195.966H499.927Z" fill="white"/>
<path d="M506.177 189.485L508.369 196.3L510.291 188.535L513.22 187.855L513.407 198.339L511.177 198.851L511.131 196.403L511.252 191.347L509.153 199.317L507.679 199.661L505.3 192.716L505.608 197.678L505.655 200.127L503.425 200.639L503.238 190.155L506.168 189.476L506.177 189.485Z" fill="white"/>
<path d="M517.204 197.464L514.983 197.976L514.797 187.493L517.017 186.98L517.204 197.464Z" fill="white"/>
<path d="M523.462 193.22C523.462 192.848 523.331 192.587 523.098 192.438C522.865 192.28 522.454 192.168 521.866 192.075C521.288 191.991 520.803 191.879 520.43 191.758C519.217 191.367 518.601 190.594 518.583 189.421C518.573 188.844 518.713 188.295 519.002 187.783C519.292 187.27 519.711 186.824 520.253 186.451C520.794 186.079 521.409 185.809 522.09 185.66C522.753 185.501 523.35 185.501 523.882 185.66C524.413 185.818 524.833 186.097 525.132 186.526C525.43 186.954 525.589 187.485 525.598 188.127L523.378 188.639C523.378 188.211 523.247 187.904 523.014 187.727C522.781 187.54 522.464 187.503 522.072 187.587C521.671 187.68 521.363 187.848 521.139 188.099C520.915 188.351 520.803 188.63 520.803 188.937C520.803 189.207 520.943 189.421 521.195 189.58C521.456 189.738 521.904 189.859 522.547 189.943C523.191 190.026 523.723 190.157 524.133 190.334C525.141 190.753 525.663 191.544 525.682 192.689C525.701 193.602 525.411 194.393 524.805 195.064C524.208 195.725 523.378 196.181 522.314 196.423C521.568 196.6 520.887 196.6 520.271 196.432C519.655 196.265 519.189 195.957 518.881 195.501C518.564 195.045 518.396 194.468 518.387 193.779L520.616 193.267C520.626 193.825 520.766 194.216 521.027 194.421C521.288 194.626 521.708 194.663 522.277 194.533C522.641 194.449 522.939 194.291 523.145 194.058C523.359 193.825 523.452 193.555 523.452 193.22H523.462Z" fill="white"/>
<path d="M532.53 189.458L529.031 190.268L529.078 192.772L533.211 191.813L533.248 193.759L526.886 195.23L526.699 184.746L533.08 183.275L533.118 185.221L528.966 186.18L529.003 188.387L532.502 187.577L532.539 189.448L532.53 189.458Z" fill="white"/>
<path d="M468.439 197.363L469.792 200.101L472.824 200.538L470.632 202.68L471.154 205.687L468.439 204.263L465.725 205.687L466.247 202.68L464.055 200.538L467.087 200.101L468.439 197.363Z" fill="white"/>
<path d="M540.533 182.168L541.886 184.905L544.918 185.343L542.725 187.484L543.248 190.492L540.533 189.067L537.818 190.492L538.341 187.484L536.148 185.343L539.18 184.905L540.533 182.168Z" fill="white"/>
<path d="M513.836 142.496L527.811 141.305L514.34 145.187L513.836 142.496Z" fill="white"/>
<path d="M462.432 152.941L449.176 157.504L463.067 155.614L462.432 152.941Z" fill="white"/>
</g>
<path d="M67.2866 90.5293H62.3866L51.2916 73.7643V90.5293H46.3916V66.0643H51.2916L62.3866 82.8643V66.0643H67.2866V90.5293ZM90.1539 80.4143C90.1539 81.1143 90.1072 81.7443 90.0139 82.3043H75.8389C75.9555 83.7043 76.4455 84.801 77.3089 85.5943C78.1722 86.3876 79.2339 86.7843 80.4939 86.7843C82.3139 86.7843 83.6089 86.0026 84.3789 84.4393H89.6639C89.1039 86.306 88.0305 87.846 86.4439 89.0593C84.8572 90.2493 82.9089 90.8443 80.5989 90.8443C78.7322 90.8443 77.0522 90.436 75.5589 89.6193C74.0889 88.7793 72.9339 87.601 72.0939 86.0843C71.2772 84.5676 70.8689 82.8176 70.8689 80.8343C70.8689 78.8276 71.2772 77.066 72.0939 75.5493C72.9105 74.0326 74.0539 72.866 75.5239 72.0493C76.9939 71.2326 78.6855 70.8243 80.5989 70.8243C82.4422 70.8243 84.0872 71.221 85.5339 72.0143C87.0039 72.8076 88.1355 73.9393 88.9289 75.4093C89.7455 76.856 90.1539 78.5243 90.1539 80.4143ZM85.0789 79.0143C85.0555 77.7543 84.6005 76.751 83.7139 76.0043C82.8272 75.2343 81.7422 74.8493 80.4589 74.8493C79.2455 74.8493 78.2189 75.2226 77.3789 75.9693C76.5622 76.6926 76.0605 77.7076 75.8739 79.0143H85.0789ZM120.61 71.1393L114.94 90.5293H109.655L106.12 76.9843L102.585 90.5293H97.2654L91.5604 71.1393H96.5304L99.9604 85.9093L103.67 71.1393H108.85L112.49 85.8743L115.92 71.1393H120.61ZM145.462 77.9993C146.838 78.256 147.97 78.9443 148.857 80.0643C149.743 81.1843 150.187 82.4676 150.187 83.9143C150.187 85.221 149.86 86.376 149.207 87.3793C148.577 88.3593 147.655 89.1293 146.442 89.6893C145.228 90.2493 143.793 90.5293 142.137 90.5293H131.602V66.0993H141.682C143.338 66.0993 144.762 66.3676 145.952 66.9043C147.165 67.441 148.075 68.1876 148.682 69.1443C149.312 70.101 149.627 71.186 149.627 72.3993C149.627 73.8226 149.242 75.0126 148.472 75.9693C147.725 76.926 146.722 77.6026 145.462 77.9993ZM136.502 76.1793H140.982C142.148 76.1793 143.047 75.9226 143.677 75.4093C144.307 74.8726 144.622 74.1143 144.622 73.1343C144.622 72.1543 144.307 71.396 143.677 70.8593C143.047 70.3226 142.148 70.0543 140.982 70.0543H136.502V76.1793ZM141.437 86.5393C142.627 86.5393 143.548 86.2593 144.202 85.6993C144.878 85.1393 145.217 84.346 145.217 83.3193C145.217 82.2693 144.867 81.4526 144.167 80.8693C143.467 80.2626 142.522 79.9593 141.332 79.9593H136.502V86.5393H141.437ZM172.397 71.1393V90.5293H167.462V88.0793C166.832 88.9193 166.003 89.5843 164.977 90.0743C163.973 90.541 162.877 90.7743 161.687 90.7743C160.17 90.7743 158.828 90.4593 157.662 89.8293C156.495 89.176 155.573 88.231 154.897 86.9943C154.243 85.7343 153.917 84.241 153.917 82.5143V71.1393H158.817V81.8143C158.817 83.3543 159.202 84.5443 159.972 85.3843C160.742 86.201 161.792 86.6093 163.122 86.6093C164.475 86.6093 165.537 86.201 166.307 85.3843C167.077 84.5443 167.462 83.3543 167.462 81.8143V71.1393H172.397ZM184.651 90.8443C183.065 90.8443 181.641 90.5643 180.381 90.0043C179.121 89.421 178.118 88.6393 177.371 87.6593C176.648 86.6793 176.251 85.5943 176.181 84.4043H181.116C181.21 85.151 181.571 85.7693 182.201 86.2593C182.855 86.7493 183.66 86.9943 184.616 86.9943C185.55 86.9943 186.273 86.8076 186.786 86.4343C187.323 86.061 187.591 85.5826 187.591 84.9993C187.591 84.3693 187.265 83.9026 186.611 83.5993C185.981 83.2726 184.966 82.9226 183.566 82.5493C182.12 82.1993 180.93 81.8376 179.996 81.4643C179.086 81.091 178.293 80.5193 177.616 79.7493C176.963 78.9793 176.636 77.941 176.636 76.6343C176.636 75.561 176.94 74.581 177.546 73.6943C178.176 72.8076 179.063 72.1076 180.206 71.5943C181.373 71.081 182.738 70.8243 184.301 70.8243C186.611 70.8243 188.455 71.4076 189.831 72.5743C191.208 73.7176 191.966 75.2693 192.106 77.2293H187.416C187.346 76.4593 187.02 75.8526 186.436 75.4093C185.876 74.9426 185.118 74.7093 184.161 74.7093C183.275 74.7093 182.586 74.8726 182.096 75.1993C181.63 75.526 181.396 75.981 181.396 76.5643C181.396 77.2176 181.723 77.7193 182.376 78.0693C183.03 78.396 184.045 78.7343 185.421 79.0843C186.821 79.4343 187.976 79.796 188.886 80.1693C189.796 80.5426 190.578 81.126 191.231 81.9193C191.908 82.6893 192.258 83.716 192.281 84.9993C192.281 86.1193 191.966 87.1226 191.336 88.0093C190.73 88.896 189.843 89.596 188.676 90.1093C187.533 90.5993 186.191 90.8443 184.651 90.8443ZM198.789 68.8293C197.925 68.8293 197.202 68.561 196.619 68.0243C196.059 67.4643 195.779 66.776 195.779 65.9593C195.779 65.1426 196.059 64.466 196.619 63.9293C197.202 63.3693 197.925 63.0893 198.789 63.0893C199.652 63.0893 200.364 63.3693 200.924 63.9293C201.507 64.466 201.799 65.1426 201.799 65.9593C201.799 66.776 201.507 67.4643 200.924 68.0243C200.364 68.561 199.652 68.8293 198.789 68.8293ZM201.204 71.1393V90.5293H196.304V71.1393H201.204ZM216.79 70.8593C219.1 70.8593 220.967 71.5943 222.39 73.0643C223.813 74.511 224.525 76.541 224.525 79.1543V90.5293H219.625V79.8193C219.625 78.2793 219.24 77.101 218.47 76.2843C217.7 75.4443 216.65 75.0243 215.32 75.0243C213.967 75.0243 212.893 75.4443 212.1 76.2843C211.33 77.101 210.945 78.2793 210.945 79.8193V90.5293H206.045V71.1393H210.945V73.5543C211.598 72.7143 212.427 72.061 213.43 71.5943C214.457 71.1043 215.577 70.8593 216.79 70.8593ZM247.21 80.4143C247.21 81.1143 247.163 81.7443 247.07 82.3043H232.895C233.011 83.7043 233.501 84.801 234.365 85.5943C235.228 86.3876 236.29 86.7843 237.55 86.7843C239.37 86.7843 240.665 86.0026 241.435 84.4393H246.72C246.16 86.306 245.086 87.846 243.5 89.0593C241.913 90.2493 239.965 90.8443 237.655 90.8443C235.788 90.8443 234.108 90.436 232.615 89.6193C231.145 88.7793 229.99 87.601 229.15 86.0843C228.333 84.5676 227.925 82.8176 227.925 80.8343C227.925 78.8276 228.333 77.066 229.15 75.5493C229.966 74.0326 231.11 72.866 232.58 72.0493C234.05 71.2326 235.741 70.8243 237.655 70.8243C239.498 70.8243 241.143 71.221 242.59 72.0143C244.06 72.8076 245.191 73.9393 245.985 75.4093C246.801 76.856 247.21 78.5243 247.21 80.4143ZM242.135 79.0143C242.111 77.7543 241.656 76.751 240.77 76.0043C239.883 75.2343 238.798 74.8493 237.515 74.8493C236.301 74.8493 235.275 75.2226 234.435 75.9693C233.618 76.6926 233.116 77.7076 232.93 79.0143H242.135ZM258.206 90.8443C256.619 90.8443 255.196 90.5643 253.936 90.0043C252.676 89.421 251.673 88.6393 250.926 87.6593C250.203 86.6793 249.806 85.5943 249.736 84.4043H254.671C254.764 85.151 255.126 85.7693 255.756 86.2593C256.409 86.7493 257.214 86.9943 258.171 86.9943C259.104 86.9943 259.828 86.8076 260.341 86.4343C260.878 86.061 261.146 85.5826 261.146 84.9993C261.146 84.3693 260.819 83.9026 260.166 83.5993C259.536 83.2726 258.521 82.9226 257.121 82.5493C255.674 82.1993 254.484 81.8376 253.551 81.4643C252.641 81.091 251.848 80.5193 251.171 79.7493C250.518 78.9793 250.191 77.941 250.191 76.6343C250.191 75.561 250.494 74.581 251.101 73.6943C251.731 72.8076 252.618 72.1076 253.761 71.5943C254.928 71.081 256.293 70.8243 257.856 70.8243C260.166 70.8243 262.009 71.4076 263.386 72.5743C264.763 73.7176 265.521 75.2693 265.661 77.2293H260.971C260.901 76.4593 260.574 75.8526 259.991 75.4093C259.431 74.9426 258.673 74.7093 257.716 74.7093C256.829 74.7093 256.141 74.8726 255.651 75.1993C255.184 75.526 254.951 75.981 254.951 76.5643C254.951 77.2176 255.278 77.7193 255.931 78.0693C256.584 78.396 257.599 78.7343 258.976 79.0843C260.376 79.4343 261.531 79.796 262.441 80.1693C263.351 80.5426 264.133 81.126 264.786 81.9193C265.463 82.6893 265.813 83.716 265.836 84.9993C265.836 86.1193 265.521 87.1226 264.891 88.0093C264.284 88.896 263.398 89.596 262.231 90.1093C261.088 90.5993 259.746 90.8443 258.206 90.8443ZM277.278 90.8443C275.692 90.8443 274.268 90.5643 273.008 90.0043C271.748 89.421 270.745 88.6393 269.998 87.6593C269.275 86.6793 268.878 85.5943 268.808 84.4043H273.743C273.837 85.151 274.198 85.7693 274.828 86.2593C275.482 86.7493 276.287 86.9943 277.243 86.9943C278.177 86.9943 278.9 86.8076 279.413 86.4343C279.95 86.061 280.218 85.5826 280.218 84.9993C280.218 84.3693 279.892 83.9026 279.238 83.5993C278.608 83.2726 277.593 82.9226 276.193 82.5493C274.747 82.1993 273.557 81.8376 272.623 81.4643C271.713 81.091 270.92 80.5193 270.243 79.7493C269.59 78.9793 269.263 77.941 269.263 76.6343C269.263 75.561 269.567 74.581 270.173 73.6943C270.803 72.8076 271.69 72.1076 272.833 71.5943C274 71.081 275.365 70.8243 276.928 70.8243C279.238 70.8243 281.082 71.4076 282.458 72.5743C283.835 73.7176 284.593 75.2693 284.733 77.2293H280.043C279.973 76.4593 279.647 75.8526 279.063 75.4093C278.503 74.9426 277.745 74.7093 276.788 74.7093C275.902 74.7093 275.213 74.8726 274.723 75.1993C274.257 75.526 274.023 75.981 274.023 76.5643C274.023 77.2176 274.35 77.7193 275.003 78.0693C275.657 78.396 276.672 78.7343 278.048 79.0843C279.448 79.4343 280.603 79.796 281.513 80.1693C282.423 80.5426 283.205 81.126 283.858 81.9193C284.535 82.6893 284.885 83.716 284.908 84.9993C284.908 86.1193 284.593 87.1226 283.963 88.0093C283.357 88.896 282.47 89.596 281.303 90.1093C280.16 90.5993 278.818 90.8443 277.278 90.8443ZM315.085 73.6593C315.085 74.966 314.77 76.191 314.14 77.3343C313.534 78.4776 312.565 79.3993 311.235 80.0993C309.929 80.7993 308.272 81.1493 306.265 81.1493H302.17V90.5293H297.27V66.0993H306.265C308.155 66.0993 309.765 66.426 311.095 67.0793C312.425 67.7326 313.417 68.631 314.07 69.7743C314.747 70.9176 315.085 72.2126 315.085 73.6593ZM306.055 77.1943C307.409 77.1943 308.412 76.891 309.065 76.2843C309.719 75.6543 310.045 74.7793 310.045 73.6593C310.045 71.2793 308.715 70.0893 306.055 70.0893H302.17V77.1943H306.055ZM323.464 74.1493C324.094 73.1226 324.911 72.3176 325.914 71.7343C326.941 71.151 328.108 70.8593 329.414 70.8593V76.0043H328.119C326.579 76.0043 325.413 76.366 324.619 77.0893C323.849 77.8126 323.464 79.0726 323.464 80.8693V90.5293H318.564V71.1393H323.464V74.1493ZM341.325 90.8443C339.458 90.8443 337.778 90.436 336.285 89.6193C334.791 88.7793 333.613 87.601 332.75 86.0843C331.91 84.5676 331.49 82.8176 331.49 80.8343C331.49 78.851 331.921 77.101 332.785 75.5843C333.671 74.0676 334.873 72.901 336.39 72.0843C337.906 71.2443 339.598 70.8243 341.465 70.8243C343.331 70.8243 345.023 71.2443 346.54 72.0843C348.056 72.901 349.246 74.0676 350.11 75.5843C350.996 77.101 351.44 78.851 351.44 80.8343C351.44 82.8176 350.985 84.5676 350.075 86.0843C349.188 87.601 347.975 88.7793 346.435 89.6193C344.918 90.436 343.215 90.8443 341.325 90.8443ZM341.325 86.5743C342.211 86.5743 343.04 86.3643 343.81 85.9443C344.603 85.501 345.233 84.8476 345.7 83.9843C346.166 83.121 346.4 82.071 346.4 80.8343C346.4 78.991 345.91 77.5793 344.93 76.5993C343.973 75.596 342.795 75.0943 341.395 75.0943C339.995 75.0943 338.816 75.596 337.86 76.5993C336.926 77.5793 336.46 78.991 336.46 80.8343C336.46 82.6776 336.915 84.101 337.825 85.1043C338.758 86.0843 339.925 86.5743 341.325 86.5743ZM379.114 70.8593C381.494 70.8593 383.407 71.5943 384.854 73.0643C386.324 74.511 387.059 76.541 387.059 79.1543V90.5293H382.159V79.8193C382.159 78.3026 381.774 77.1476 381.004 76.3543C380.234 75.5376 379.184 75.1293 377.854 75.1293C376.524 75.1293 375.462 75.5376 374.669 76.3543C373.899 77.1476 373.514 78.3026 373.514 79.8193V90.5293H368.614V79.8193C368.614 78.3026 368.229 77.1476 367.459 76.3543C366.689 75.5376 365.639 75.1293 364.309 75.1293C362.956 75.1293 361.882 75.5376 361.089 76.3543C360.319 77.1476 359.934 78.3026 359.934 79.8193V90.5293H355.034V71.1393H359.934V73.4843C360.564 72.6676 361.369 72.026 362.349 71.5593C363.352 71.0926 364.449 70.8593 365.639 70.8593C367.156 70.8593 368.509 71.186 369.699 71.8393C370.889 72.4693 371.811 73.3793 372.464 74.5693C373.094 73.4493 374.004 72.551 375.194 71.8743C376.407 71.1976 377.714 70.8593 379.114 70.8593ZM394.194 68.8293C393.331 68.8293 392.607 68.561 392.024 68.0243C391.464 67.4643 391.184 66.776 391.184 65.9593C391.184 65.1426 391.464 64.466 392.024 63.9293C392.607 63.3693 393.331 63.0893 394.194 63.0893C395.057 63.0893 395.769 63.3693 396.329 63.9293C396.912 64.466 397.204 65.1426 397.204 65.9593C397.204 66.776 396.912 67.4643 396.329 68.0243C395.769 68.561 395.057 68.8293 394.194 68.8293ZM396.609 71.1393V90.5293H391.709V71.1393H396.609ZM408.87 90.8443C407.283 90.8443 405.86 90.5643 404.6 90.0043C403.34 89.421 402.337 88.6393 401.59 87.6593C400.867 86.6793 400.47 85.5943 400.4 84.4043H405.335C405.428 85.151 405.79 85.7693 406.42 86.2593C407.073 86.7493 407.878 86.9943 408.835 86.9943C409.768 86.9943 410.492 86.8076 411.005 86.4343C411.542 86.061 411.81 85.5826 411.81 84.9993C411.81 84.3693 411.483 83.9026 410.83 83.5993C410.2 83.2726 409.185 82.9226 407.785 82.5493C406.338 82.1993 405.148 81.8376 404.215 81.4643C403.305 81.091 402.512 80.5193 401.835 79.7493C401.182 78.9793 400.855 77.941 400.855 76.6343C400.855 75.561 401.158 74.581 401.765 73.6943C402.395 72.8076 403.282 72.1076 404.425 71.5943C405.592 71.081 406.957 70.8243 408.52 70.8243C410.83 70.8243 412.673 71.4076 414.05 72.5743C415.427 73.7176 416.185 75.2693 416.325 77.2293H411.635C411.565 76.4593 411.238 75.8526 410.655 75.4093C410.095 74.9426 409.337 74.7093 408.38 74.7093C407.493 74.7093 406.805 74.8726 406.315 75.1993C405.848 75.526 405.615 75.981 405.615 76.5643C405.615 77.2176 405.942 77.7193 406.595 78.0693C407.248 78.396 408.263 78.7343 409.64 79.0843C411.04 79.4343 412.195 79.796 413.105 80.1693C414.015 80.5426 414.797 81.126 415.45 81.9193C416.127 82.6893 416.477 83.716 416.5 84.9993C416.5 86.1193 416.185 87.1226 415.555 88.0093C414.948 88.896 414.062 89.596 412.895 90.1093C411.752 90.5993 410.41 90.8443 408.87 90.8443ZM438.547 80.4143C438.547 81.1143 438.501 81.7443 438.407 82.3043H424.232C424.349 83.7043 424.839 84.801 425.702 85.5943C426.566 86.3876 427.627 86.7843 428.887 86.7843C430.707 86.7843 432.002 86.0026 432.772 84.4393H438.057C437.497 86.306 436.424 87.846 434.837 89.0593C433.251 90.2493 431.302 90.8443 428.992 90.8443C427.126 90.8443 425.446 90.436 423.952 89.6193C422.482 88.7793 421.327 87.601 420.487 86.0843C419.671 84.5676 419.262 82.8176 419.262 80.8343C419.262 78.8276 419.671 77.066 420.487 75.5493C421.304 74.0326 422.447 72.866 423.917 72.0493C425.387 71.2326 427.079 70.8243 428.992 70.8243C430.836 70.8243 432.481 71.221 433.927 72.0143C435.397 72.8076 436.529 73.9393 437.322 75.4093C438.139 76.856 438.547 78.5243 438.547 80.4143ZM433.472 79.0143C433.449 77.7543 432.994 76.751 432.107 76.0043C431.221 75.2343 430.136 74.8493 428.852 74.8493C427.639 74.8493 426.612 75.2226 425.772 75.9693C424.956 76.6926 424.454 77.7076 424.267 79.0143H433.472Z" fill="black"/>
<path d="M54.8666 129.67C54.5186 128.938 54.0146 128.374 53.3546 127.978C52.6946 127.57 51.9266 127.366 51.0506 127.366C50.1746 127.366 49.3826 127.57 48.6746 127.978C47.9786 128.374 47.4266 128.95 47.0186 129.706C46.6226 130.45 46.4246 131.314 46.4246 132.298C46.4246 133.282 46.6226 134.146 47.0186 134.89C47.4266 135.634 47.9786 136.21 48.6746 136.618C49.3826 137.014 50.1746 137.212 51.0506 137.212C52.2746 137.212 53.2826 136.846 54.0746 136.114C54.8666 135.382 55.3286 134.392 55.4606 133.144H50.4566V131.812H57.2066V133.072C57.1106 134.104 56.7866 135.052 56.2346 135.916C55.6826 136.768 54.9566 137.446 54.0566 137.95C53.1566 138.442 52.1546 138.688 51.0506 138.688C49.8866 138.688 48.8246 138.418 47.8646 137.878C46.9046 137.326 46.1426 136.564 45.5786 135.592C45.0266 134.62 44.7506 133.522 44.7506 132.298C44.7506 131.074 45.0266 129.976 45.5786 129.004C46.1426 128.02 46.9046 127.258 47.8646 126.718C48.8246 126.166 49.8866 125.89 51.0506 125.89C52.3826 125.89 53.5586 126.22 54.5786 126.88C55.6106 127.54 56.3606 128.47 56.8286 129.67H54.8666ZM68.3723 133.27C68.3723 133.582 68.3543 133.912 68.3183 134.26H60.4343C60.4943 135.232 60.8243 135.994 61.4243 136.546C62.0363 137.086 62.7743 137.356 63.6383 137.356C64.3463 137.356 64.9343 137.194 65.4023 136.87C65.8823 136.534 66.2183 136.09 66.4103 135.538H68.1743C67.9103 136.486 67.3823 137.26 66.5903 137.86C65.7983 138.448 64.8143 138.742 63.6383 138.742C62.7023 138.742 61.8623 138.532 61.1183 138.112C60.3863 137.692 59.8103 137.098 59.3903 136.33C58.9703 135.55 58.7603 134.65 58.7603 133.63C58.7603 132.61 58.9643 131.716 59.3723 130.948C59.7803 130.18 60.3503 129.592 61.0823 129.184C61.8263 128.764 62.6783 128.554 63.6383 128.554C64.5743 128.554 65.4023 128.758 66.1223 129.166C66.8423 129.574 67.3943 130.138 67.7783 130.858C68.1743 131.566 68.3723 132.37 68.3723 133.27ZM66.6803 132.928C66.6803 132.304 66.5423 131.77 66.2663 131.326C65.9903 130.87 65.6123 130.528 65.1323 130.3C64.6643 130.06 64.1423 129.94 63.5663 129.94C62.7383 129.94 62.0303 130.204 61.4423 130.732C60.8663 131.26 60.5363 131.992 60.4523 132.928H66.6803ZM72.5324 130.066V135.88C72.5324 136.36 72.6344 136.702 72.8384 136.906C73.0424 137.098 73.3964 137.194 73.9004 137.194H75.1064V138.58H73.6304C72.7184 138.58 72.0344 138.37 71.5784 137.95C71.1224 137.53 70.8944 136.84 70.8944 135.88V130.066H69.6164V128.716H70.8944V126.232H72.5324V128.716H75.1064V130.066H72.5324ZM86.6959 128.536C87.8959 128.536 88.8679 128.902 89.6119 129.634C90.3559 130.354 90.7279 131.398 90.7279 132.766V138.58H89.1079V133C89.1079 132.016 88.8619 131.266 88.3699 130.75C87.8779 130.222 87.2059 129.958 86.3539 129.958C85.4899 129.958 84.7999 130.228 84.2839 130.768C83.7799 131.308 83.5279 132.094 83.5279 133.126V138.58H81.8899V128.716H83.5279V130.12C83.8519 129.616 84.2899 129.226 84.8419 128.95C85.4059 128.674 86.0239 128.536 86.6959 128.536ZM102.404 133.27C102.404 133.582 102.386 133.912 102.35 134.26H94.4656C94.5256 135.232 94.8556 135.994 95.4556 136.546C96.0676 137.086 96.8056 137.356 97.6696 137.356C98.3776 137.356 98.9656 137.194 99.4336 136.87C99.9136 136.534 100.25 136.09 100.442 135.538H102.206C101.942 136.486 101.414 137.26 100.622 137.86C99.8296 138.448 98.8456 138.742 97.6696 138.742C96.7336 138.742 95.8936 138.532 95.1496 138.112C94.4176 137.692 93.8416 137.098 93.4216 136.33C93.0016 135.55 92.7916 134.65 92.7916 133.63C92.7916 132.61 92.9956 131.716 93.4036 130.948C93.8116 130.18 94.3816 129.592 95.1136 129.184C95.8576 128.764 96.7096 128.554 97.6696 128.554C98.6056 128.554 99.4336 128.758 100.154 129.166C100.874 129.574 101.426 130.138 101.81 130.858C102.206 131.566 102.404 132.37 102.404 133.27ZM100.712 132.928C100.712 132.304 100.574 131.77 100.298 131.326C100.022 130.87 99.6436 130.528 99.1636 130.3C98.6956 130.06 98.1736 129.94 97.5976 129.94C96.7696 129.94 96.0616 130.204 95.4736 130.732C94.8976 131.26 94.5676 131.992 94.4836 132.928H100.712ZM117.706 128.716L114.628 138.58H112.936L110.56 130.75L108.184 138.58H106.492L103.396 128.716H105.07L107.338 136.996L109.786 128.716H111.46L113.854 137.014L116.086 128.716H117.706ZM125.768 125.26V138.58H124.13V125.26H125.768ZM132.862 138.742C131.938 138.742 131.098 138.532 130.342 138.112C129.598 137.692 129.01 137.098 128.578 136.33C128.158 135.55 127.948 134.65 127.948 133.63C127.948 132.622 128.164 131.734 128.596 130.966C129.04 130.186 129.64 129.592 130.396 129.184C131.152 128.764 131.998 128.554 132.934 128.554C133.87 128.554 134.716 128.764 135.472 129.184C136.228 129.592 136.822 130.18 137.254 130.948C137.698 131.716 137.92 132.61 137.92 133.63C137.92 134.65 137.692 135.55 137.236 136.33C136.792 137.098 136.186 137.692 135.418 138.112C134.65 138.532 133.798 138.742 132.862 138.742ZM132.862 137.302C133.45 137.302 134.002 137.164 134.518 136.888C135.034 136.612 135.448 136.198 135.76 135.646C136.084 135.094 136.246 134.422 136.246 133.63C136.246 132.838 136.09 132.166 135.778 131.614C135.466 131.062 135.058 130.654 134.554 130.39C134.05 130.114 133.504 129.976 132.916 129.976C132.316 129.976 131.764 130.114 131.26 130.39C130.768 130.654 130.372 131.062 130.072 131.614C129.772 132.166 129.622 132.838 129.622 133.63C129.622 134.434 129.766 135.112 130.054 135.664C130.354 136.216 130.75 136.63 131.242 136.906C131.734 137.17 132.274 137.302 132.862 137.302ZM139.462 133.63C139.462 132.61 139.666 131.722 140.074 130.966C140.482 130.198 141.046 129.604 141.766 129.184C142.498 128.764 143.332 128.554 144.268 128.554C145.48 128.554 146.476 128.848 147.256 129.436C148.048 130.024 148.57 130.84 148.822 131.884H147.058C146.89 131.284 146.56 130.81 146.068 130.462C145.588 130.114 144.988 129.94 144.268 129.94C143.332 129.94 142.576 130.264 142 130.912C141.424 131.548 141.136 132.454 141.136 133.63C141.136 134.818 141.424 135.736 142 136.384C142.576 137.032 143.332 137.356 144.268 137.356C144.988 137.356 145.588 137.188 146.068 136.852C146.548 136.516 146.878 136.036 147.058 135.412H148.822C148.558 136.42 148.03 137.23 147.238 137.842C146.446 138.442 145.456 138.742 144.268 138.742C143.332 138.742 142.498 138.532 141.766 138.112C141.046 137.692 140.482 137.098 140.074 136.33C139.666 135.562 139.462 134.662 139.462 133.63ZM150.395 133.612C150.395 132.604 150.599 131.722 151.007 130.966C151.415 130.198 151.973 129.604 152.681 129.184C153.401 128.764 154.199 128.554 155.075 128.554C155.939 128.554 156.689 128.74 157.325 129.112C157.961 129.484 158.435 129.952 158.747 130.516V128.716H160.403V138.58H158.747V136.744C158.423 137.32 157.937 137.8 157.289 138.184C156.653 138.556 155.909 138.742 155.057 138.742C154.181 138.742 153.389 138.526 152.681 138.094C151.973 137.662 151.415 137.056 151.007 136.276C150.599 135.496 150.395 134.608 150.395 133.612ZM158.747 133.63C158.747 132.886 158.597 132.238 158.297 131.686C157.997 131.134 157.589 130.714 157.073 130.426C156.569 130.126 156.011 129.976 155.399 129.976C154.787 129.976 154.229 130.12 153.725 130.408C153.221 130.696 152.819 131.116 152.519 131.668C152.219 132.22 152.069 132.868 152.069 133.612C152.069 134.368 152.219 135.028 152.519 135.592C152.819 136.144 153.221 136.57 153.725 136.87C154.229 137.158 154.787 137.302 155.399 137.302C156.011 137.302 156.569 137.158 157.073 136.87C157.589 136.57 157.997 136.144 158.297 135.592C158.597 135.028 158.747 134.374 158.747 133.63ZM164.809 125.26V138.58H163.171V125.26H164.809ZM174.038 130.552C174.374 129.964 174.866 129.484 175.514 129.112C176.162 128.74 176.9 128.554 177.728 128.554C178.616 128.554 179.414 128.764 180.122 129.184C180.83 129.604 181.388 130.198 181.796 130.966C182.204 131.722 182.408 132.604 182.408 133.612C182.408 134.608 182.204 135.496 181.796 136.276C181.388 137.056 180.824 137.662 180.104 138.094C179.396 138.526 178.604 138.742 177.728 138.742C176.876 138.742 176.126 138.556 175.478 138.184C174.842 137.812 174.362 137.338 174.038 136.762V138.58H172.4V125.26H174.038V130.552ZM180.734 133.612C180.734 132.868 180.584 132.22 180.284 131.668C179.984 131.116 179.576 130.696 179.06 130.408C178.556 130.12 177.998 129.976 177.386 129.976C176.786 129.976 176.228 130.126 175.712 130.426C175.208 130.714 174.8 131.14 174.488 131.704C174.188 132.256 174.038 132.898 174.038 133.63C174.038 134.374 174.188 135.028 174.488 135.592C174.8 136.144 175.208 136.57 175.712 136.87C176.228 137.158 176.786 137.302 177.386 137.302C177.998 137.302 178.556 137.158 179.06 136.87C179.576 136.57 179.984 136.144 180.284 135.592C180.584 135.028 180.734 134.368 180.734 133.612ZM193.312 128.716V138.58H191.674V137.122C191.362 137.626 190.924 138.022 190.36 138.31C189.808 138.586 189.196 138.724 188.524 138.724C187.756 138.724 187.066 138.568 186.454 138.256C185.842 137.932 185.356 137.452 184.996 136.816C184.648 136.18 184.474 135.406 184.474 134.494V128.716H186.094V134.278C186.094 135.25 186.34 136 186.832 136.528C187.324 137.044 187.996 137.302 188.848 137.302C189.724 137.302 190.414 137.032 190.918 136.492C191.422 135.952 191.674 135.166 191.674 134.134V128.716H193.312ZM199.569 138.742C198.813 138.742 198.135 138.616 197.535 138.364C196.935 138.1 196.461 137.74 196.113 137.284C195.765 136.816 195.573 136.282 195.537 135.682H197.229C197.277 136.174 197.505 136.576 197.913 136.888C198.333 137.2 198.879 137.356 199.551 137.356C200.175 137.356 200.667 137.218 201.027 136.942C201.387 136.666 201.567 136.318 201.567 135.898C201.567 135.466 201.375 135.148 200.991 134.944C200.607 134.728 200.013 134.518 199.209 134.314C198.477 134.122 197.877 133.93 197.409 133.738C196.953 133.534 196.557 133.24 196.221 132.856C195.897 132.46 195.735 131.944 195.735 131.308C195.735 130.804 195.885 130.342 196.185 129.922C196.485 129.502 196.911 129.172 197.463 128.932C198.015 128.68 198.645 128.554 199.353 128.554C200.445 128.554 201.327 128.83 201.999 129.382C202.671 129.934 203.031 130.69 203.079 131.65H201.441C201.405 131.134 201.195 130.72 200.811 130.408C200.439 130.096 199.935 129.94 199.299 129.94C198.711 129.94 198.243 130.066 197.895 130.318C197.547 130.57 197.373 130.9 197.373 131.308C197.373 131.632 197.475 131.902 197.679 132.118C197.895 132.322 198.159 132.49 198.471 132.622C198.795 132.742 199.239 132.88 199.803 133.036C200.511 133.228 201.087 133.42 201.531 133.612C201.975 133.792 202.353 134.068 202.665 134.44C202.989 134.812 203.157 135.298 203.169 135.898C203.169 136.438 203.019 136.924 202.719 137.356C202.419 137.788 201.993 138.13 201.441 138.382C200.901 138.622 200.277 138.742 199.569 138.742ZM206.328 127.114C206.016 127.114 205.752 127.006 205.536 126.79C205.32 126.574 205.212 126.31 205.212 125.998C205.212 125.686 205.32 125.422 205.536 125.206C205.752 124.99 206.016 124.882 206.328 124.882C206.628 124.882 206.88 124.99 207.084 125.206C207.3 125.422 207.408 125.686 207.408 125.998C207.408 126.31 207.3 126.574 207.084 126.79C206.88 127.006 206.628 127.114 206.328 127.114ZM207.12 128.716V138.58H205.482V128.716H207.12ZM214.717 128.536C215.917 128.536 216.889 128.902 217.633 129.634C218.377 130.354 218.749 131.398 218.749 132.766V138.58H217.129V133C217.129 132.016 216.883 131.266 216.391 130.75C215.899 130.222 215.227 129.958 214.375 129.958C213.511 129.958 212.821 130.228 212.305 130.768C211.801 131.308 211.549 132.094 211.549 133.126V138.58H209.911V128.716H211.549V130.12C211.873 129.616 212.311 129.226 212.863 128.95C213.427 128.674 214.045 128.536 214.717 128.536ZM230.425 133.27C230.425 133.582 230.407 133.912 230.371 134.26H222.487C222.547 135.232 222.877 135.994 223.477 136.546C224.089 137.086 224.827 137.356 225.691 137.356C226.399 137.356 226.987 137.194 227.455 136.87C227.935 136.534 228.271 136.09 228.463 135.538H230.227C229.963 136.486 229.435 137.26 228.643 137.86C227.851 138.448 226.867 138.742 225.691 138.742C224.755 138.742 223.915 138.532 223.171 138.112C222.439 137.692 221.863 137.098 221.443 136.33C221.023 135.55 220.813 134.65 220.813 133.63C220.813 132.61 221.017 131.716 221.425 130.948C221.833 130.18 222.403 129.592 223.135 129.184C223.879 128.764 224.731 128.554 225.691 128.554C226.627 128.554 227.455 128.758 228.175 129.166C228.895 129.574 229.447 130.138 229.831 130.858C230.227 131.566 230.425 132.37 230.425 133.27ZM228.733 132.928C228.733 132.304 228.595 131.77 228.319 131.326C228.043 130.87 227.665 130.528 227.185 130.3C226.717 130.06 226.195 129.94 225.619 129.94C224.791 129.94 224.083 130.204 223.495 130.732C222.919 131.26 222.589 131.992 222.505 132.928H228.733ZM236.079 138.742C235.323 138.742 234.645 138.616 234.045 138.364C233.445 138.1 232.971 137.74 232.623 137.284C232.275 136.816 232.083 136.282 232.047 135.682H233.739C233.787 136.174 234.015 136.576 234.423 136.888C234.843 137.2 235.389 137.356 236.061 137.356C236.685 137.356 237.177 137.218 237.537 136.942C237.897 136.666 238.077 136.318 238.077 135.898C238.077 135.466 237.885 135.148 237.501 134.944C237.117 134.728 236.523 134.518 235.719 134.314C234.987 134.122 234.387 133.93 233.919 133.738C233.463 133.534 233.067 133.24 232.731 132.856C232.407 132.46 232.245 131.944 232.245 131.308C232.245 130.804 232.395 130.342 232.695 129.922C232.995 129.502 233.421 129.172 233.973 128.932C234.525 128.68 235.155 128.554 235.863 128.554C236.955 128.554 237.837 128.83 238.509 129.382C239.181 129.934 239.541 130.69 239.589 131.65H237.951C237.915 131.134 237.705 130.72 237.321 130.408C236.949 130.096 236.445 129.94 235.809 129.94C235.221 129.94 234.753 130.066 234.405 130.318C234.057 130.57 233.883 130.9 233.883 131.308C233.883 131.632 233.985 131.902 234.189 132.118C234.405 132.322 234.669 132.49 234.981 132.622C235.305 132.742 235.749 132.88 236.313 133.036C237.021 133.228 237.597 133.42 238.041 133.612C238.485 133.792 238.863 134.068 239.175 134.44C239.499 134.812 239.667 135.298 239.679 135.898C239.679 136.438 239.529 136.924 239.229 137.356C238.929 137.788 238.503 138.13 237.951 138.382C237.411 138.622 236.787 138.742 236.079 138.742ZM245.483 138.742C244.727 138.742 244.049 138.616 243.449 138.364C242.849 138.1 242.375 137.74 242.027 137.284C241.679 136.816 241.487 136.282 241.451 135.682H243.143C243.191 136.174 243.419 136.576 243.827 136.888C244.247 137.2 244.793 137.356 245.465 137.356C246.089 137.356 246.581 137.218 246.941 136.942C247.301 136.666 247.481 136.318 247.481 135.898C247.481 135.466 247.289 135.148 246.905 134.944C246.521 134.728 245.927 134.518 245.123 134.314C244.391 134.122 243.791 133.93 243.323 133.738C242.867 133.534 242.471 133.24 242.135 132.856C241.811 132.46 241.649 131.944 241.649 131.308C241.649 130.804 241.799 130.342 242.099 129.922C242.399 129.502 242.825 129.172 243.377 128.932C243.929 128.68 244.559 128.554 245.267 128.554C246.359 128.554 247.241 128.83 247.913 129.382C248.585 129.934 248.945 130.69 248.993 131.65H247.355C247.319 131.134 247.109 130.72 246.725 130.408C246.353 130.096 245.849 129.94 245.213 129.94C244.625 129.94 244.157 130.066 243.809 130.318C243.461 130.57 243.287 130.9 243.287 131.308C243.287 131.632 243.389 131.902 243.593 132.118C243.809 132.322 244.073 132.49 244.385 132.622C244.709 132.742 245.153 132.88 245.717 133.036C246.425 133.228 247.001 133.42 247.445 133.612C247.889 133.792 248.267 134.068 248.579 134.44C248.903 134.812 249.071 135.298 249.083 135.898C249.083 136.438 248.933 136.924 248.633 137.356C248.333 137.788 247.907 138.13 247.355 138.382C246.815 138.622 246.191 138.742 245.483 138.742ZM265.195 133.27C265.195 133.582 265.177 133.912 265.141 134.26H257.257C257.317 135.232 257.647 135.994 258.247 136.546C258.859 137.086 259.597 137.356 260.461 137.356C261.169 137.356 261.757 137.194 262.225 136.87C262.705 136.534 263.041 136.09 263.233 135.538H264.997C264.733 136.486 264.205 137.26 263.413 137.86C262.621 138.448 261.637 138.742 260.461 138.742C259.525 138.742 258.685 138.532 257.941 138.112C257.209 137.692 256.633 137.098 256.213 136.33C255.793 135.55 255.583 134.65 255.583 133.63C255.583 132.61 255.787 131.716 256.195 130.948C256.603 130.18 257.173 129.592 257.905 129.184C258.649 128.764 259.501 128.554 260.461 128.554C261.397 128.554 262.225 128.758 262.945 129.166C263.665 129.574 264.217 130.138 264.601 130.858C264.997 131.566 265.195 132.37 265.195 133.27ZM263.503 132.928C263.503 132.304 263.365 131.77 263.089 131.326C262.813 130.87 262.435 130.528 261.955 130.3C261.487 130.06 260.965 129.94 260.389 129.94C259.561 129.94 258.853 130.204 258.265 130.732C257.689 131.26 257.359 131.992 257.275 132.928H263.503ZM272.163 128.536C273.363 128.536 274.335 128.902 275.079 129.634C275.823 130.354 276.195 131.398 276.195 132.766V138.58H274.575V133C274.575 132.016 274.329 131.266 273.837 130.75C273.345 130.222 272.673 129.958 271.821 129.958C270.957 129.958 270.267 130.228 269.751 130.768C269.247 131.308 268.995 132.094 268.995 133.126V138.58H267.357V128.716H268.995V130.12C269.319 129.616 269.757 129.226 270.309 128.95C270.873 128.674 271.491 128.536 272.163 128.536ZM278.258 133.612C278.258 132.604 278.462 131.722 278.87 130.966C279.278 130.198 279.836 129.604 280.544 129.184C281.264 128.764 282.068 128.554 282.956 128.554C283.808 128.554 284.552 128.746 285.188 129.13C285.836 129.502 286.31 129.964 286.61 130.516V128.716H288.266V143.26H286.61V136.762C286.298 137.314 285.818 137.782 285.17 138.166C284.522 138.55 283.766 138.742 282.902 138.742C282.038 138.742 281.252 138.526 280.544 138.094C279.836 137.662 279.278 137.056 278.87 136.276C278.462 135.496 278.258 134.608 278.258 133.612ZM286.61 133.63C286.61 132.886 286.46 132.238 286.16 131.686C285.86 131.134 285.452 130.714 284.936 130.426C284.432 130.126 283.874 129.976 283.262 129.976C282.65 129.976 282.092 130.12 281.588 130.408C281.084 130.696 280.682 131.116 280.382 131.668C280.082 132.22 279.932 132.868 279.932 133.612C279.932 134.368 280.082 135.028 280.382 135.592C280.682 136.144 281.084 136.57 281.588 136.87C282.092 137.158 282.65 137.302 283.262 137.302C283.874 137.302 284.432 137.158 284.936 136.87C285.452 136.57 285.86 136.144 286.16 135.592C286.46 135.028 286.61 134.374 286.61 133.63ZM299.782 128.716V138.58H298.144V137.122C297.832 137.626 297.394 138.022 296.83 138.31C296.278 138.586 295.666 138.724 294.994 138.724C294.226 138.724 293.536 138.568 292.924 138.256C292.312 137.932 291.826 137.452 291.466 136.816C291.118 136.18 290.944 135.406 290.944 134.494V128.716H292.564V134.278C292.564 135.25 292.81 136 293.302 136.528C293.794 137.044 294.466 137.302 295.318 137.302C296.194 137.302 296.884 137.032 297.388 136.492C297.892 135.952 298.144 135.166 298.144 134.134V128.716H299.782ZM303.394 127.114C303.082 127.114 302.818 127.006 302.602 126.79C302.386 126.574 302.278 126.31 302.278 125.998C302.278 125.686 302.386 125.422 302.602 125.206C302.818 124.99 303.082 124.882 303.394 124.882C303.694 124.882 303.946 124.99 304.15 125.206C304.366 125.422 304.474 125.686 304.474 125.998C304.474 126.31 304.366 126.574 304.15 126.79C303.946 127.006 303.694 127.114 303.394 127.114ZM304.186 128.716V138.58H302.548V128.716H304.186ZM308.616 130.318C308.904 129.754 309.312 129.316 309.84 129.004C310.38 128.692 311.034 128.536 311.802 128.536V130.228H311.37C309.534 130.228 308.616 131.224 308.616 133.216V138.58H306.978V128.716H308.616V130.318ZM314.539 127.114C314.227 127.114 313.963 127.006 313.747 126.79C313.531 126.574 313.423 126.31 313.423 125.998C313.423 125.686 313.531 125.422 313.747 125.206C313.963 124.99 314.227 124.882 314.539 124.882C314.839 124.882 315.091 124.99 315.295 125.206C315.511 125.422 315.619 125.686 315.619 125.998C315.619 126.31 315.511 126.574 315.295 126.79C315.091 127.006 314.839 127.114 314.539 127.114ZM315.331 128.716V138.58H313.693V128.716H315.331ZM327.122 133.27C327.122 133.582 327.104 133.912 327.068 134.26H319.184C319.244 135.232 319.574 135.994 320.174 136.546C320.786 137.086 321.524 137.356 322.388 137.356C323.096 137.356 323.684 137.194 324.152 136.87C324.632 136.534 324.968 136.09 325.16 135.538H326.924C326.66 136.486 326.132 137.26 325.34 137.86C324.548 138.448 323.564 138.742 322.388 138.742C321.452 138.742 320.612 138.532 319.868 138.112C319.136 137.692 318.56 137.098 318.14 136.33C317.72 135.55 317.51 134.65 317.51 133.63C317.51 132.61 317.714 131.716 318.122 130.948C318.53 130.18 319.1 129.592 319.832 129.184C320.576 128.764 321.428 128.554 322.388 128.554C323.324 128.554 324.152 128.758 324.872 129.166C325.592 129.574 326.144 130.138 326.528 130.858C326.924 131.566 327.122 132.37 327.122 133.27ZM325.43 132.928C325.43 132.304 325.292 131.77 325.016 131.326C324.74 130.87 324.362 130.528 323.882 130.3C323.414 130.06 322.892 129.94 322.316 129.94C321.488 129.94 320.78 130.204 320.192 130.732C319.616 131.26 319.286 131.992 319.202 132.928H325.43ZM332.776 138.742C332.02 138.742 331.342 138.616 330.742 138.364C330.142 138.1 329.668 137.74 329.32 137.284C328.972 136.816 328.78 136.282 328.744 135.682H330.436C330.484 136.174 330.712 136.576 331.12 136.888C331.54 137.2 332.086 137.356 332.758 137.356C333.382 137.356 333.874 137.218 334.234 136.942C334.594 136.666 334.774 136.318 334.774 135.898C334.774 135.466 334.582 135.148 334.198 134.944C333.814 134.728 333.22 134.518 332.416 134.314C331.684 134.122 331.084 133.93 330.616 133.738C330.16 133.534 329.764 133.24 329.428 132.856C329.104 132.46 328.942 131.944 328.942 131.308C328.942 130.804 329.092 130.342 329.392 129.922C329.692 129.502 330.118 129.172 330.67 128.932C331.222 128.68 331.852 128.554 332.56 128.554C333.652 128.554 334.534 128.83 335.206 129.382C335.878 129.934 336.238 130.69 336.286 131.65H334.648C334.612 131.134 334.402 130.72 334.018 130.408C333.646 130.096 333.142 129.94 332.506 129.94C331.918 129.94 331.45 130.066 331.102 130.318C330.754 130.57 330.58 130.9 330.58 131.308C330.58 131.632 330.682 131.902 330.886 132.118C331.102 132.322 331.366 132.49 331.678 132.622C332.002 132.742 332.446 132.88 333.01 133.036C333.718 133.228 334.294 133.42 334.738 133.612C335.182 133.792 335.56 134.068 335.872 134.44C336.196 134.812 336.364 135.298 336.376 135.898C336.376 136.438 336.226 136.924 335.926 137.356C335.626 137.788 335.2 138.13 334.648 138.382C334.108 138.622 333.484 138.742 332.776 138.742ZM350.328 131.29V132.676H343.146V131.29H350.328ZM362.214 130.066H360.144V138.58H358.506V130.066H357.228V128.716H358.506V128.014C358.506 126.91 358.788 126.106 359.352 125.602C359.928 125.086 360.846 124.828 362.106 124.828V126.196C361.386 126.196 360.876 126.34 360.576 126.628C360.288 126.904 360.144 127.366 360.144 128.014V128.716H362.214V130.066ZM363.512 133.612C363.512 132.604 363.716 131.722 364.124 130.966C364.532 130.198 365.09 129.604 365.798 129.184C366.518 128.764 367.316 128.554 368.192 128.554C369.056 128.554 369.806 128.74 370.442 129.112C371.078 129.484 371.552 129.952 371.864 130.516V128.716H373.52V138.58H371.864V136.744C371.54 137.32 371.054 137.8 370.406 138.184C369.77 138.556 369.026 138.742 368.174 138.742C367.298 138.742 366.506 138.526 365.798 138.094C365.09 137.662 364.532 137.056 364.124 136.276C363.716 135.496 363.512 134.608 363.512 133.612ZM371.864 133.63C371.864 132.886 371.714 132.238 371.414 131.686C371.114 131.134 370.706 130.714 370.19 130.426C369.686 130.126 369.128 129.976 368.516 129.976C367.904 129.976 367.346 130.12 366.842 130.408C366.338 130.696 365.936 131.116 365.636 131.668C365.336 132.22 365.186 132.868 365.186 133.612C365.186 134.368 365.336 135.028 365.636 135.592C365.936 136.144 366.338 136.57 366.842 136.87C367.346 137.158 367.904 137.302 368.516 137.302C369.128 137.302 369.686 137.158 370.19 136.87C370.706 136.57 371.114 136.144 371.414 135.592C371.714 135.028 371.864 134.374 371.864 133.63ZM379.78 138.742C379.024 138.742 378.346 138.616 377.746 138.364C377.146 138.1 376.672 137.74 376.324 137.284C375.976 136.816 375.784 136.282 375.748 135.682H377.44C377.488 136.174 377.716 136.576 378.124 136.888C378.544 137.2 379.09 137.356 379.762 137.356C380.386 137.356 380.878 137.218 381.238 136.942C381.598 136.666 381.778 136.318 381.778 135.898C381.778 135.466 381.586 135.148 381.202 134.944C380.818 134.728 380.224 134.518 379.42 134.314C378.688 134.122 378.088 133.93 377.62 133.738C377.164 133.534 376.768 133.24 376.432 132.856C376.108 132.46 375.946 131.944 375.946 131.308C375.946 130.804 376.096 130.342 376.396 129.922C376.696 129.502 377.122 129.172 377.674 128.932C378.226 128.68 378.856 128.554 379.564 128.554C380.656 128.554 381.538 128.83 382.21 129.382C382.882 129.934 383.242 130.69 383.29 131.65H381.652C381.616 131.134 381.406 130.72 381.022 130.408C380.65 130.096 380.146 129.94 379.51 129.94C378.922 129.94 378.454 130.066 378.106 130.318C377.758 130.57 377.584 130.9 377.584 131.308C377.584 131.632 377.686 131.902 377.89 132.118C378.106 132.322 378.37 132.49 378.682 132.622C379.006 132.742 379.45 132.88 380.014 133.036C380.722 133.228 381.298 133.42 381.742 133.612C382.186 133.792 382.564 134.068 382.876 134.44C383.2 134.812 383.368 135.298 383.38 135.898C383.38 136.438 383.23 136.924 382.93 137.356C382.63 137.788 382.204 138.13 381.652 138.382C381.112 138.622 380.488 138.742 379.78 138.742ZM387.691 130.066V135.88C387.691 136.36 387.793 136.702 387.997 136.906C388.201 137.098 388.555 137.194 389.059 137.194H390.265V138.58H388.789C387.877 138.58 387.193 138.37 386.737 137.95C386.281 137.53 386.053 136.84 386.053 135.88V130.066H384.775V128.716H386.053V126.232H387.691V128.716H390.265V130.066H387.691ZM392.771 138.688C392.459 138.688 392.195 138.58 391.979 138.364C391.763 138.148 391.655 137.884 391.655 137.572C391.655 137.26 391.763 136.996 391.979 136.78C392.195 136.564 392.459 136.456 392.771 136.456C393.071 136.456 393.323 136.564 393.527 136.78C393.743 136.996 393.851 137.26 393.851 137.572C393.851 137.884 393.743 138.148 393.527 138.364C393.323 138.58 393.071 138.688 392.771 138.688ZM54.8666 159.67C54.5186 158.938 54.0146 158.374 53.3546 157.978C52.6946 157.57 51.9266 157.366 51.0506 157.366C50.1746 157.366 49.3826 157.57 48.6746 157.978C47.9786 158.374 47.4266 158.95 47.0186 159.706C46.6226 160.45 46.4246 161.314 46.4246 162.298C46.4246 163.282 46.6226 164.146 47.0186 164.89C47.4266 165.634 47.9786 166.21 48.6746 166.618C49.3826 167.014 50.1746 167.212 51.0506 167.212C52.2746 167.212 53.2826 166.846 54.0746 166.114C54.8666 165.382 55.3286 164.392 55.4606 163.144H50.4566V161.812H57.2066V163.072C57.1106 164.104 56.7866 165.052 56.2346 165.916C55.6826 166.768 54.9566 167.446 54.0566 167.95C53.1566 168.442 52.1546 168.688 51.0506 168.688C49.8866 168.688 48.8246 168.418 47.8646 167.878C46.9046 167.326 46.1426 166.564 45.5786 165.592C45.0266 164.62 44.7506 163.522 44.7506 162.298C44.7506 161.074 45.0266 159.976 45.5786 159.004C46.1426 158.02 46.9046 157.258 47.8646 156.718C48.8246 156.166 49.8866 155.89 51.0506 155.89C52.3826 155.89 53.5586 156.22 54.5786 156.88C55.6106 157.54 56.3606 158.47 56.8286 159.67H54.8666ZM68.1203 158.716V168.58H66.4823V167.122C66.1703 167.626 65.7323 168.022 65.1683 168.31C64.6163 168.586 64.0043 168.724 63.3323 168.724C62.5643 168.724 61.8743 168.568 61.2623 168.256C60.6503 167.932 60.1643 167.452 59.8043 166.816C59.4563 166.18 59.2823 165.406 59.2823 164.494V158.716H60.9023V164.278C60.9023 165.25 61.1483 166 61.6403 166.528C62.1323 167.044 62.8043 167.302 63.6563 167.302C64.5323 167.302 65.2223 167.032 65.7263 166.492C66.2303 165.952 66.4823 165.166 66.4823 164.134V158.716H68.1203ZM70.274 163.612C70.274 162.604 70.478 161.722 70.886 160.966C71.294 160.198 71.852 159.604 72.56 159.184C73.28 158.764 74.078 158.554 74.954 158.554C75.818 158.554 76.568 158.74 77.204 159.112C77.84 159.484 78.314 159.952 78.626 160.516V158.716H80.282V168.58H78.626V166.744C78.302 167.32 77.816 167.8 77.168 168.184C76.532 168.556 75.788 168.742 74.936 168.742C74.06 168.742 73.268 168.526 72.56 168.094C71.852 167.662 71.294 167.056 70.886 166.276C70.478 165.496 70.274 164.608 70.274 163.612ZM78.626 163.63C78.626 162.886 78.476 162.238 78.176 161.686C77.876 161.134 77.468 160.714 76.952 160.426C76.448 160.126 75.89 159.976 75.278 159.976C74.666 159.976 74.108 160.12 73.604 160.408C73.1 160.696 72.698 161.116 72.398 161.668C72.098 162.22 71.948 162.868 71.948 163.612C71.948 164.368 72.098 165.028 72.398 165.592C72.698 166.144 73.1 166.57 73.604 166.87C74.108 167.158 74.666 167.302 75.278 167.302C75.89 167.302 76.448 167.158 76.952 166.87C77.468 166.57 77.876 166.144 78.176 165.592C78.476 165.028 78.626 164.374 78.626 163.63ZM84.6881 160.318C84.9761 159.754 85.3841 159.316 85.9121 159.004C86.4521 158.692 87.1061 158.536 87.8741 158.536V160.228H87.4421C85.6061 160.228 84.6881 161.224 84.6881 163.216V168.58H83.0501V158.716H84.6881V160.318ZM89.1529 163.612C89.1529 162.604 89.3569 161.722 89.7649 160.966C90.1729 160.198 90.7309 159.604 91.4389 159.184C92.1589 158.764 92.9569 158.554 93.8329 158.554C94.6969 158.554 95.4469 158.74 96.0829 159.112C96.7189 159.484 97.1929 159.952 97.5049 160.516V158.716H99.1609V168.58H97.5049V166.744C97.1809 167.32 96.6949 167.8 96.0469 168.184C95.4109 168.556 94.6669 168.742 93.8149 168.742C92.9389 168.742 92.1469 168.526 91.4389 168.094C90.7309 167.662 90.1729 167.056 89.7649 166.276C89.3569 165.496 89.1529 164.608 89.1529 163.612ZM97.5049 163.63C97.5049 162.886 97.3549 162.238 97.0549 161.686C96.7549 161.134 96.3469 160.714 95.8309 160.426C95.3269 160.126 94.7689 159.976 94.1569 159.976C93.5449 159.976 92.9869 160.12 92.4829 160.408C91.9789 160.696 91.5769 161.116 91.2769 161.668C90.9769 162.22 90.8269 162.868 90.8269 163.612C90.8269 164.368 90.9769 165.028 91.2769 165.592C91.5769 166.144 91.9789 166.57 92.4829 166.87C92.9869 167.158 93.5449 167.302 94.1569 167.302C94.7689 167.302 95.3269 167.158 95.8309 166.87C96.3469 166.57 96.7549 166.144 97.0549 165.592C97.3549 165.028 97.5049 164.374 97.5049 163.63ZM106.735 158.536C107.935 158.536 108.907 158.902 109.651 159.634C110.395 160.354 110.767 161.398 110.767 162.766V168.58H109.147V163C109.147 162.016 108.901 161.266 108.409 160.75C107.917 160.222 107.245 159.958 106.393 159.958C105.529 159.958 104.839 160.228 104.323 160.768C103.819 161.308 103.567 162.094 103.567 163.126V168.58H101.929V158.716H103.567V160.12C103.891 159.616 104.329 159.226 104.881 158.95C105.445 158.674 106.063 158.536 106.735 158.536ZM115.441 160.066V165.88C115.441 166.36 115.543 166.702 115.747 166.906C115.951 167.098 116.305 167.194 116.809 167.194H118.015V168.58H116.539C115.627 168.58 114.943 168.37 114.487 167.95C114.031 167.53 113.803 166.84 113.803 165.88V160.066H112.525V158.716H113.803V156.232H115.441V158.716H118.015V160.066H115.441ZM128.999 163.27C128.999 163.582 128.981 163.912 128.945 164.26H121.061C121.121 165.232 121.451 165.994 122.051 166.546C122.663 167.086 123.401 167.356 124.265 167.356C124.973 167.356 125.561 167.194 126.029 166.87C126.509 166.534 126.845 166.09 127.037 165.538H128.801C128.537 166.486 128.009 167.26 127.217 167.86C126.425 168.448 125.441 168.742 124.265 168.742C123.329 168.742 122.489 168.532 121.745 168.112C121.013 167.692 120.437 167.098 120.017 166.33C119.597 165.55 119.387 164.65 119.387 163.63C119.387 162.61 119.591 161.716 119.999 160.948C120.407 160.18 120.977 159.592 121.709 159.184C122.453 158.764 123.305 158.554 124.265 158.554C125.201 158.554 126.029 158.758 126.749 159.166C127.469 159.574 128.021 160.138 128.405 160.858C128.801 161.566 128.999 162.37 128.999 163.27ZM127.307 162.928C127.307 162.304 127.169 161.77 126.893 161.326C126.617 160.87 126.239 160.528 125.759 160.3C125.291 160.06 124.769 159.94 124.193 159.94C123.365 159.94 122.657 160.204 122.069 160.732C121.493 161.26 121.163 161.992 121.079 162.928H127.307ZM140.161 163.27C140.161 163.582 140.143 163.912 140.107 164.26H132.223C132.283 165.232 132.613 165.994 133.213 166.546C133.825 167.086 134.563 167.356 135.427 167.356C136.135 167.356 136.723 167.194 137.191 166.87C137.671 166.534 138.007 166.09 138.199 165.538H139.963C139.699 166.486 139.171 167.26 138.379 167.86C137.587 168.448 136.603 168.742 135.427 168.742C134.491 168.742 133.651 168.532 132.907 168.112C132.175 167.692 131.599 167.098 131.179 166.33C130.759 165.55 130.549 164.65 130.549 163.63C130.549 162.61 130.753 161.716 131.161 160.948C131.569 160.18 132.139 159.592 132.871 159.184C133.615 158.764 134.467 158.554 135.427 158.554C136.363 158.554 137.191 158.758 137.911 159.166C138.631 159.574 139.183 160.138 139.567 160.858C139.963 161.566 140.161 162.37 140.161 163.27ZM138.469 162.928C138.469 162.304 138.331 161.77 138.055 161.326C137.779 160.87 137.401 160.528 136.921 160.3C136.453 160.06 135.931 159.94 135.355 159.94C134.527 159.94 133.819 160.204 133.231 160.732C132.655 161.26 132.325 161.992 132.241 162.928H138.469ZM141.712 163.612C141.712 162.604 141.916 161.722 142.324 160.966C142.732 160.198 143.29 159.604 143.998 159.184C144.718 158.764 145.522 158.554 146.41 158.554C147.178 158.554 147.892 158.734 148.552 159.094C149.212 159.442 149.716 159.904 150.064 160.48V155.26H151.72V168.58H150.064V166.726C149.74 167.314 149.26 167.8 148.624 168.184C147.988 168.556 147.244 168.742 146.392 168.742C145.516 168.742 144.718 168.526 143.998 168.094C143.29 167.662 142.732 167.056 142.324 166.276C141.916 165.496 141.712 164.608 141.712 163.612ZM150.064 163.63C150.064 162.886 149.914 162.238 149.614 161.686C149.314 161.134 148.906 160.714 148.39 160.426C147.886 160.126 147.328 159.976 146.716 159.976C146.104 159.976 145.546 160.12 145.042 160.408C144.538 160.696 144.136 161.116 143.836 161.668C143.536 162.22 143.386 162.868 143.386 163.612C143.386 164.368 143.536 165.028 143.836 165.592C144.136 166.144 144.538 166.57 145.042 166.87C145.546 167.158 146.104 167.302 146.716 167.302C147.328 167.302 147.886 167.158 148.39 166.87C148.906 166.57 149.314 166.144 149.614 165.592C149.914 165.028 150.064 164.374 150.064 163.63ZM172.426 158.716L169.348 168.58H167.656L165.28 160.75L162.904 168.58H161.212L158.116 158.716H159.79L162.058 166.996L164.506 158.716H166.18L168.574 167.014L170.806 158.716H172.426ZM174.898 157.114C174.586 157.114 174.322 157.006 174.106 156.79C173.89 156.574 173.782 156.31 173.782 155.998C173.782 155.686 173.89 155.422 174.106 155.206C174.322 154.99 174.586 154.882 174.898 154.882C175.198 154.882 175.45 154.99 175.654 155.206C175.87 155.422 175.978 155.686 175.978 155.998C175.978 156.31 175.87 156.574 175.654 156.79C175.45 157.006 175.198 157.114 174.898 157.114ZM175.69 158.716V168.58H174.052V158.716H175.69ZM180.48 160.066V165.88C180.48 166.36 180.582 166.702 180.786 166.906C180.99 167.098 181.344 167.194 181.848 167.194H183.054V168.58H181.578C180.666 168.58 179.982 168.37 179.526 167.95C179.07 167.53 178.842 166.84 178.842 165.88V160.066H177.564V158.716H178.842V156.232H180.48V158.716H183.054V160.066H180.48ZM189.934 158.536C190.678 158.536 191.35 158.698 191.95 159.022C192.55 159.334 193.018 159.808 193.354 160.444C193.702 161.08 193.876 161.854 193.876 162.766V168.58H192.256V163C192.256 162.016 192.01 161.266 191.518 160.75C191.026 160.222 190.354 159.958 189.502 159.958C188.638 159.958 187.948 160.228 187.432 160.768C186.928 161.308 186.676 162.094 186.676 163.126V168.58H185.038V155.26H186.676V160.12C187 159.616 187.444 159.226 188.008 158.95C188.584 158.674 189.226 158.536 189.934 158.536ZM205.653 168.742C204.729 168.742 203.889 168.532 203.133 168.112C202.389 167.692 201.801 167.098 201.369 166.33C200.949 165.55 200.739 164.65 200.739 163.63C200.739 162.622 200.955 161.734 201.387 160.966C201.831 160.186 202.431 159.592 203.187 159.184C203.943 158.764 204.789 158.554 205.725 158.554C206.661 158.554 207.507 158.764 208.263 159.184C209.019 159.592 209.613 160.18 210.045 160.948C210.489 161.716 210.711 162.61 210.711 163.63C210.711 164.65 210.483 165.55 210.027 166.33C209.583 167.098 208.977 167.692 208.209 168.112C207.441 168.532 206.589 168.742 205.653 168.742ZM205.653 167.302C206.241 167.302 206.793 167.164 207.309 166.888C207.825 166.612 208.239 166.198 208.551 165.646C208.875 165.094 209.037 164.422 209.037 163.63C209.037 162.838 208.881 162.166 208.569 161.614C208.257 161.062 207.849 160.654 207.345 160.39C206.841 160.114 206.295 159.976 205.707 159.976C205.107 159.976 204.555 160.114 204.051 160.39C203.559 160.654 203.163 161.062 202.863 161.614C202.563 162.166 202.413 162.838 202.413 163.63C202.413 164.434 202.557 165.112 202.845 165.664C203.145 166.216 203.541 166.63 204.033 166.906C204.525 167.17 205.065 167.302 205.653 167.302ZM221.613 158.716V168.58H219.975V167.122C219.663 167.626 219.225 168.022 218.661 168.31C218.109 168.586 217.497 168.724 216.825 168.724C216.057 168.724 215.367 168.568 214.755 168.256C214.143 167.932 213.657 167.452 213.297 166.816C212.949 166.18 212.775 165.406 212.775 164.494V158.716H214.395V164.278C214.395 165.25 214.641 166 215.133 166.528C215.625 167.044 216.297 167.302 217.149 167.302C218.025 167.302 218.715 167.032 219.219 166.492C219.723 165.952 219.975 165.166 219.975 164.134V158.716H221.613ZM226.016 160.318C226.304 159.754 226.712 159.316 227.24 159.004C227.78 158.692 228.434 158.536 229.202 158.536V160.228H228.77C226.934 160.228 226.016 161.224 226.016 163.216V168.58H224.378V158.716H226.016V160.318ZM245.756 168.58H244.118L237.53 158.59V168.58H235.892V156.016H237.53L244.118 165.988V156.016H245.756V168.58ZM257.548 163.27C257.548 163.582 257.53 163.912 257.494 164.26H249.61C249.67 165.232 250 165.994 250.6 166.546C251.212 167.086 251.95 167.356 252.814 167.356C253.522 167.356 254.11 167.194 254.578 166.87C255.058 166.534 255.394 166.09 255.586 165.538H257.35C257.086 166.486 256.558 167.26 255.766 167.86C254.974 168.448 253.99 168.742 252.814 168.742C251.878 168.742 251.038 168.532 250.294 168.112C249.562 167.692 248.986 167.098 248.566 166.33C248.146 165.55 247.936 164.65 247.936 163.63C247.936 162.61 248.14 161.716 248.548 160.948C248.956 160.18 249.526 159.592 250.258 159.184C251.002 158.764 251.854 158.554 252.814 158.554C253.75 158.554 254.578 158.758 255.298 159.166C256.018 159.574 256.57 160.138 256.954 160.858C257.35 161.566 257.548 162.37 257.548 163.27ZM255.856 162.928C255.856 162.304 255.718 161.77 255.442 161.326C255.166 160.87 254.788 160.528 254.308 160.3C253.84 160.06 253.318 159.94 252.742 159.94C251.914 159.94 251.206 160.204 250.618 160.732C250.042 161.26 249.712 161.992 249.628 162.928H255.856ZM272.85 158.716L269.772 168.58H268.08L265.704 160.75L263.328 168.58H261.636L258.54 158.716H260.214L262.482 166.996L264.93 158.716H266.604L268.998 167.014L271.23 158.716H272.85ZM285.557 162.118C286.013 162.19 286.427 162.376 286.799 162.676C287.183 162.976 287.483 163.348 287.699 163.792C287.927 164.236 288.041 164.71 288.041 165.214C288.041 165.85 287.879 166.426 287.555 166.942C287.231 167.446 286.757 167.848 286.133 168.148C285.521 168.436 284.795 168.58 283.955 168.58H279.275V156.034H283.775C284.627 156.034 285.353 156.178 285.953 156.466C286.553 156.742 287.003 157.12 287.303 157.6C287.603 158.08 287.753 158.62 287.753 159.22C287.753 159.964 287.549 160.582 287.141 161.074C286.745 161.554 286.217 161.902 285.557 162.118ZM280.913 161.452H283.667C284.435 161.452 285.029 161.272 285.449 160.912C285.869 160.552 286.079 160.054 286.079 159.418C286.079 158.782 285.869 158.284 285.449 157.924C285.029 157.564 284.423 157.384 283.631 157.384H280.913V161.452ZM283.811 167.23C284.627 167.23 285.263 167.038 285.719 166.654C286.175 166.27 286.403 165.736 286.403 165.052C286.403 164.356 286.163 163.81 285.683 163.414C285.203 163.006 284.561 162.802 283.757 162.802H280.913V167.23H283.811ZM299.062 158.716V168.58H297.424V167.122C297.112 167.626 296.674 168.022 296.11 168.31C295.558 168.586 294.946 168.724 294.274 168.724C293.506 168.724 292.816 168.568 292.204 168.256C291.592 167.932 291.106 167.452 290.746 166.816C290.398 166.18 290.224 165.406 290.224 164.494V158.716H291.844V164.278C291.844 165.25 292.09 166 292.582 166.528C293.074 167.044 293.746 167.302 294.598 167.302C295.474 167.302 296.164 167.032 296.668 166.492C297.172 165.952 297.424 165.166 297.424 164.134V158.716H299.062ZM305.319 168.742C304.563 168.742 303.885 168.616 303.285 168.364C302.685 168.1 302.211 167.74 301.863 167.284C301.515 166.816 301.323 166.282 301.287 165.682H302.979C303.027 166.174 303.255 166.576 303.663 166.888C304.083 167.2 304.629 167.356 305.301 167.356C305.925 167.356 306.417 167.218 306.777 166.942C307.137 166.666 307.317 166.318 307.317 165.898C307.317 165.466 307.125 165.148 306.741 164.944C306.357 164.728 305.763 164.518 304.959 164.314C304.227 164.122 303.627 163.93 303.159 163.738C302.703 163.534 302.307 163.24 301.971 162.856C301.647 162.46 301.485 161.944 301.485 161.308C301.485 160.804 301.635 160.342 301.935 159.922C302.235 159.502 302.661 159.172 303.213 158.932C303.765 158.68 304.395 158.554 305.103 158.554C306.195 158.554 307.077 158.83 307.749 159.382C308.421 159.934 308.781 160.69 308.829 161.65H307.191C307.155 161.134 306.945 160.72 306.561 160.408C306.189 160.096 305.685 159.94 305.049 159.94C304.461 159.94 303.993 160.066 303.645 160.318C303.297 160.57 303.123 160.9 303.123 161.308C303.123 161.632 303.225 161.902 303.429 162.118C303.645 162.322 303.909 162.49 304.221 162.622C304.545 162.742 304.989 162.88 305.553 163.036C306.261 163.228 306.837 163.42 307.281 163.612C307.725 163.792 308.103 164.068 308.415 164.44C308.739 164.812 308.907 165.298 308.919 165.898C308.919 166.438 308.769 166.924 308.469 167.356C308.169 167.788 307.743 168.13 307.191 168.382C306.651 168.622 306.027 168.742 305.319 168.742ZM312.078 157.114C311.766 157.114 311.502 157.006 311.286 156.79C311.07 156.574 310.962 156.31 310.962 155.998C310.962 155.686 311.07 155.422 311.286 155.206C311.502 154.99 311.766 154.882 312.078 154.882C312.378 154.882 312.63 154.99 312.834 155.206C313.05 155.422 313.158 155.686 313.158 155.998C313.158 156.31 313.05 156.574 312.834 156.79C312.63 157.006 312.378 157.114 312.078 157.114ZM312.87 158.716V168.58H311.232V158.716H312.87ZM320.467 158.536C321.667 158.536 322.639 158.902 323.383 159.634C324.127 160.354 324.499 161.398 324.499 162.766V168.58H322.879V163C322.879 162.016 322.633 161.266 322.141 160.75C321.649 160.222 320.977 159.958 320.125 159.958C319.261 159.958 318.571 160.228 318.055 160.768C317.551 161.308 317.299 162.094 317.299 163.126V168.58H315.661V158.716H317.299V160.12C317.623 159.616 318.061 159.226 318.613 158.95C319.177 158.674 319.795 158.536 320.467 158.536ZM336.175 163.27C336.175 163.582 336.157 163.912 336.121 164.26H328.237C328.297 165.232 328.627 165.994 329.227 166.546C329.839 167.086 330.577 167.356 331.441 167.356C332.149 167.356 332.737 167.194 333.205 166.87C333.685 166.534 334.021 166.09 334.213 165.538H335.977C335.713 166.486 335.185 167.26 334.393 167.86C333.601 168.448 332.617 168.742 331.441 168.742C330.505 168.742 329.665 168.532 328.921 168.112C328.189 167.692 327.613 167.098 327.193 166.33C326.773 165.55 326.563 164.65 326.563 163.63C326.563 162.61 326.767 161.716 327.175 160.948C327.583 160.18 328.153 159.592 328.885 159.184C329.629 158.764 330.481 158.554 331.441 158.554C332.377 158.554 333.205 158.758 333.925 159.166C334.645 159.574 335.197 160.138 335.581 160.858C335.977 161.566 336.175 162.37 336.175 163.27ZM334.483 162.928C334.483 162.304 334.345 161.77 334.069 161.326C333.793 160.87 333.415 160.528 332.935 160.3C332.467 160.06 331.945 159.94 331.369 159.94C330.541 159.94 329.833 160.204 329.245 160.732C328.669 161.26 328.339 161.992 328.255 162.928H334.483ZM341.829 168.742C341.073 168.742 340.395 168.616 339.795 168.364C339.195 168.1 338.721 167.74 338.373 167.284C338.025 166.816 337.833 166.282 337.797 165.682H339.489C339.537 166.174 339.765 166.576 340.173 166.888C340.593 167.2 341.139 167.356 341.811 167.356C342.435 167.356 342.927 167.218 343.287 166.942C343.647 166.666 343.827 166.318 343.827 165.898C343.827 165.466 343.635 165.148 343.251 164.944C342.867 164.728 342.273 164.518 341.469 164.314C340.737 164.122 340.137 163.93 339.669 163.738C339.213 163.534 338.817 163.24 338.481 162.856C338.157 162.46 337.995 161.944 337.995 161.308C337.995 160.804 338.145 160.342 338.445 159.922C338.745 159.502 339.171 159.172 339.723 158.932C340.275 158.68 340.905 158.554 341.613 158.554C342.705 158.554 343.587 158.83 344.259 159.382C344.931 159.934 345.291 160.69 345.339 161.65H343.701C343.665 161.134 343.455 160.72 343.071 160.408C342.699 160.096 342.195 159.94 341.559 159.94C340.971 159.94 340.503 160.066 340.155 160.318C339.807 160.57 339.633 160.9 339.633 161.308C339.633 161.632 339.735 161.902 339.939 162.118C340.155 162.322 340.419 162.49 340.731 162.622C341.055 162.742 341.499 162.88 342.063 163.036C342.771 163.228 343.347 163.42 343.791 163.612C344.235 163.792 344.613 164.068 344.925 164.44C345.249 164.812 345.417 165.298 345.429 165.898C345.429 166.438 345.279 166.924 344.979 167.356C344.679 167.788 344.253 168.13 343.701 168.382C343.161 168.622 342.537 168.742 341.829 168.742ZM351.233 168.742C350.477 168.742 349.799 168.616 349.199 168.364C348.599 168.1 348.125 167.74 347.777 167.284C347.429 166.816 347.237 166.282 347.201 165.682H348.893C348.941 166.174 349.169 166.576 349.577 166.888C349.997 167.2 350.543 167.356 351.215 167.356C351.839 167.356 352.331 167.218 352.691 166.942C353.051 166.666 353.231 166.318 353.231 165.898C353.231 165.466 353.039 165.148 352.655 164.944C352.271 164.728 351.677 164.518 350.873 164.314C350.141 164.122 349.541 163.93 349.073 163.738C348.617 163.534 348.221 163.24 347.885 162.856C347.561 162.46 347.399 161.944 347.399 161.308C347.399 160.804 347.549 160.342 347.849 159.922C348.149 159.502 348.575 159.172 349.127 158.932C349.679 158.68 350.309 158.554 351.017 158.554C352.109 158.554 352.991 158.83 353.663 159.382C354.335 159.934 354.695 160.69 354.743 161.65H353.105C353.069 161.134 352.859 160.72 352.475 160.408C352.103 160.096 351.599 159.94 350.963 159.94C350.375 159.94 349.907 160.066 349.559 160.318C349.211 160.57 349.037 160.9 349.037 161.308C349.037 161.632 349.139 161.902 349.343 162.118C349.559 162.322 349.823 162.49 350.135 162.622C350.459 162.742 350.903 162.88 351.467 163.036C352.175 163.228 352.751 163.42 353.195 163.612C353.639 163.792 354.017 164.068 354.329 164.44C354.653 164.812 354.821 165.298 354.833 165.898C354.833 166.438 354.683 166.924 354.383 167.356C354.083 167.788 353.657 168.13 353.105 168.382C352.565 168.622 351.941 168.742 351.233 168.742ZM53.7506 189.706C53.7506 190.75 53.3906 191.62 52.6706 192.316C51.9626 193 50.8766 193.342 49.4126 193.342H47.0006V198.58H45.3626V186.034H49.4126C50.8286 186.034 51.9026 186.376 52.6346 187.06C53.3786 187.744 53.7506 188.626 53.7506 189.706ZM49.4126 191.992C50.3246 191.992 50.9966 191.794 51.4286 191.398C51.8606 191.002 52.0766 190.438 52.0766 189.706C52.0766 188.158 51.1886 187.384 49.4126 187.384H47.0006V191.992H49.4126ZM57.4244 190.318C57.7124 189.754 58.1204 189.316 58.6484 189.004C59.1884 188.692 59.8424 188.536 60.6104 188.536V190.228H60.1784C58.3424 190.228 57.4244 191.224 57.4244 193.216V198.58H55.7864V188.716H57.4244V190.318ZM66.8032 198.742C65.8792 198.742 65.0392 198.532 64.2832 198.112C63.5392 197.692 62.9512 197.098 62.5192 196.33C62.0992 195.55 61.8892 194.65 61.8892 193.63C61.8892 192.622 62.1052 191.734 62.5372 190.966C62.9812 190.186 63.5812 189.592 64.3372 189.184C65.0932 188.764 65.9392 188.554 66.8752 188.554C67.8112 188.554 68.6572 188.764 69.4132 189.184C70.1692 189.592 70.7632 190.18 71.1952 190.948C71.6392 191.716 71.8612 192.61 71.8612 193.63C71.8612 194.65 71.6332 195.55 71.1772 196.33C70.7332 197.098 70.1272 197.692 69.3592 198.112C68.5912 198.532 67.7392 198.742 66.8032 198.742ZM66.8032 197.302C67.3912 197.302 67.9432 197.164 68.4592 196.888C68.9752 196.612 69.3892 196.198 69.7012 195.646C70.0252 195.094 70.1872 194.422 70.1872 193.63C70.1872 192.838 70.0312 192.166 69.7192 191.614C69.4072 191.062 68.9992 190.654 68.4952 190.39C67.9912 190.114 67.4452 189.976 66.8572 189.976C66.2572 189.976 65.7052 190.114 65.2012 190.39C64.7092 190.654 64.3132 191.062 64.0132 191.614C63.7132 192.166 63.5632 192.838 63.5632 193.63C63.5632 194.434 63.7072 195.112 63.9952 195.664C64.2952 196.216 64.6912 196.63 65.1832 196.906C65.6752 197.17 66.2152 197.302 66.8032 197.302ZM85.8769 188.536C86.6449 188.536 87.3289 188.698 87.9289 189.022C88.5289 189.334 89.0029 189.808 89.3509 190.444C89.6989 191.08 89.8729 191.854 89.8729 192.766V198.58H88.2529V193C88.2529 192.016 88.0069 191.266 87.5149 190.75C87.0349 190.222 86.3809 189.958 85.5529 189.958C84.7009 189.958 84.0229 190.234 83.5189 190.786C83.0149 191.326 82.7629 192.112 82.7629 193.144V198.58H81.1429V193C81.1429 192.016 80.8969 191.266 80.4049 190.75C79.9249 190.222 79.2709 189.958 78.4429 189.958C77.5909 189.958 76.9129 190.234 76.4089 190.786C75.9049 191.326 75.6529 192.112 75.6529 193.144V198.58H74.0149V188.716H75.6529V190.138C75.9769 189.622 76.4089 189.226 76.9489 188.95C77.5009 188.674 78.1069 188.536 78.7669 188.536C79.5949 188.536 80.3269 188.722 80.9629 189.094C81.5989 189.466 82.0729 190.012 82.3849 190.732C82.6609 190.036 83.1169 189.496 83.7529 189.112C84.3889 188.728 85.0969 188.536 85.8769 188.536ZM93.4058 187.114C93.0938 187.114 92.8298 187.006 92.6138 186.79C92.3978 186.574 92.2898 186.31 92.2898 185.998C92.2898 185.686 92.3978 185.422 92.6138 185.206C92.8298 184.99 93.0938 184.882 93.4058 184.882C93.7058 184.882 93.9578 184.99 94.1618 185.206C94.3778 185.422 94.4858 185.686 94.4858 185.998C94.4858 186.31 94.3778 186.574 94.1618 186.79C93.9578 187.006 93.7058 187.114 93.4058 187.114ZM94.1978 188.716V198.58H92.5598V188.716H94.1978ZM100.482 198.742C99.7255 198.742 99.0475 198.616 98.4475 198.364C97.8475 198.1 97.3735 197.74 97.0255 197.284C96.6775 196.816 96.4855 196.282 96.4495 195.682H98.1415C98.1895 196.174 98.4175 196.576 98.8255 196.888C99.2455 197.2 99.7915 197.356 100.464 197.356C101.088 197.356 101.58 197.218 101.94 196.942C102.3 196.666 102.48 196.318 102.48 195.898C102.48 195.466 102.288 195.148 101.904 194.944C101.52 194.728 100.926 194.518 100.122 194.314C99.3895 194.122 98.7895 193.93 98.3215 193.738C97.8655 193.534 97.4695 193.24 97.1335 192.856C96.8095 192.46 96.6475 191.944 96.6475 191.308C96.6475 190.804 96.7975 190.342 97.0975 189.922C97.3975 189.502 97.8235 189.172 98.3755 188.932C98.9275 188.68 99.5575 188.554 100.266 188.554C101.358 188.554 102.24 188.83 102.912 189.382C103.584 189.934 103.944 190.69 103.992 191.65H102.354C102.318 191.134 102.108 190.72 101.724 190.408C101.352 190.096 100.848 189.94 100.212 189.94C99.6235 189.94 99.1555 190.066 98.8075 190.318C98.4595 190.57 98.2855 190.9 98.2855 191.308C98.2855 191.632 98.3875 191.902 98.5915 192.118C98.8075 192.322 99.0715 192.49 99.3835 192.622C99.7075 192.742 100.152 192.88 100.716 193.036C101.424 193.228 102 193.42 102.444 193.612C102.888 193.792 103.266 194.068 103.578 194.44C103.902 194.812 104.07 195.298 104.082 195.898C104.082 196.438 103.932 196.924 103.632 197.356C103.332 197.788 102.906 198.13 102.354 198.382C101.814 198.622 101.19 198.742 100.482 198.742ZM115.394 193.27C115.394 193.582 115.376 193.912 115.34 194.26H107.456C107.516 195.232 107.846 195.994 108.446 196.546C109.058 197.086 109.796 197.356 110.66 197.356C111.368 197.356 111.956 197.194 112.424 196.87C112.904 196.534 113.24 196.09 113.432 195.538H115.196C114.932 196.486 114.404 197.26 113.612 197.86C112.82 198.448 111.836 198.742 110.66 198.742C109.724 198.742 108.884 198.532 108.14 198.112C107.408 197.692 106.832 197.098 106.412 196.33C105.992 195.55 105.782 194.65 105.782 193.63C105.782 192.61 105.986 191.716 106.394 190.948C106.802 190.18 107.372 189.592 108.104 189.184C108.848 188.764 109.7 188.554 110.66 188.554C111.596 188.554 112.424 188.758 113.144 189.166C113.864 189.574 114.416 190.138 114.8 190.858C115.196 191.566 115.394 192.37 115.394 193.27ZM113.702 192.928C113.702 192.304 113.564 191.77 113.288 191.326C113.012 190.87 112.634 190.528 112.154 190.3C111.686 190.06 111.164 189.94 110.588 189.94C109.76 189.94 109.052 190.204 108.464 190.732C107.888 191.26 107.558 191.992 107.474 192.928H113.702ZM118.078 198.688C117.766 198.688 117.502 198.58 117.286 198.364C117.07 198.148 116.962 197.884 116.962 197.572C116.962 197.26 117.07 196.996 117.286 196.78C117.502 196.564 117.766 196.456 118.078 196.456C118.378 196.456 118.63 196.564 118.834 196.78C119.05 196.996 119.158 197.26 119.158 197.572C119.158 197.884 119.05 198.148 118.834 198.364C118.63 198.58 118.378 198.688 118.078 198.688Z" fill="black"/>
<defs>
<linearGradient id="paint0_linear_6113_184" x1="311" y1="0" x2="311" y2="296.17" gradientUnits="userSpaceOnUse">
<stop stop-color="#E3F6FC"/>
<stop offset="1" stop-color="#24CDFF"/>
</linearGradient>
<linearGradient id="paint1_linear_6113_184" x1="422.066" y1="172.596" x2="467.779" y2="172.596" gradientUnits="userSpaceOnUse">
<stop stop-color="#58595B"/>
<stop offset="1" stop-color="#231F20"/>
</linearGradient>
<linearGradient id="paint2_linear_6113_184" x1="558.324" y1="171.778" x2="633.917" y2="171.778" gradientUnits="userSpaceOnUse">
<stop stop-color="#58595B"/>
<stop offset="1" stop-color="#231F20"/>
</linearGradient>
<linearGradient id="paint3_linear_6113_184" x1="440.983" y1="173.463" x2="555.133" y2="173.463" gradientUnits="userSpaceOnUse">
<stop stop-color="#58595B"/>
<stop offset="1" stop-color="#231F20"/>
</linearGradient>
<clipPath id="clip0_6113_184">
<rect width="151" height="114" fill="white" transform="translate(422 116.463)"/>
</clipPath>
</defs>
</svg>
