<svg width="14" height="15" viewBox="0 0 14 15" fill="none" xmlns="http://www.w3.org/2000/svg">
<path d="M13.3374 3.3476L11.1133 1.12352C10.9792 0.988581 10.8195 0.881599 10.6437 0.808768C10.4679 0.735937 10.2794 0.698704 10.0891 0.699224H2.17355C1.66132 0.699224 1.17007 0.902706 0.80787 1.26491C0.44567 1.62711 0.242188 2.11836 0.242188 2.63058V12.2874C0.242188 12.7996 0.44567 13.2909 0.80787 13.6531C1.17007 14.0153 1.66132 14.2188 2.17355 14.2188H11.8304C12.3426 14.2188 12.8338 14.0153 13.196 13.6531C13.5582 13.2909 13.7617 12.7996 13.7617 12.2874V4.37183C13.7622 4.18153 13.725 3.99302 13.6522 3.81721C13.5793 3.6414 13.4724 3.48178 13.3374 3.3476ZM2.89781 3.11343H8.20905C8.27308 3.11343 8.33449 3.13886 8.37976 3.18414C8.42504 3.22941 8.45047 3.29082 8.45047 3.35485V4.80337C8.45047 4.86739 8.42504 4.9288 8.37976 4.97408C8.33449 5.01935 8.27308 5.04479 8.20905 5.04479H2.89781C2.83378 5.04479 2.77237 5.01935 2.7271 4.97408C2.68182 4.9288 2.65639 4.86739 2.65639 4.80337V3.35485C2.65639 3.29082 2.68182 3.22941 2.7271 3.18414C2.77237 3.13886 2.83378 3.11343 2.89781 3.11343ZM7.11512 12.7675C6.62852 12.7904 6.14639 12.6655 5.73208 12.4092C5.31777 12.153 4.99067 11.7775 4.79374 11.3319C4.59682 10.8864 4.53929 10.3916 4.62872 9.91279C4.71814 9.43393 4.95034 8.99333 5.29479 8.64887C5.63925 8.30441 6.07985 8.07222 6.55871 7.98279C7.03756 7.89337 7.53227 7.9509 7.97783 8.14782C8.42339 8.34475 8.79895 8.67185 9.05517 9.08616C9.31139 9.50047 9.43628 9.9826 9.41344 10.4692C9.38484 11.0695 9.13352 11.6376 8.70854 12.0626C8.28356 12.4876 7.71544 12.7389 7.11512 12.7675Z" fill="white"/>
<path d="M6.9993 11.8052C7.7993 11.8052 8.44782 11.1567 8.44782 10.3567C8.44782 9.55673 7.7993 8.9082 6.9993 8.9082C6.19931 8.9082 5.55078 9.55673 5.55078 10.3567C5.55078 11.1567 6.19931 11.8052 6.9993 11.8052Z" fill="white"/>
</svg>
