<svg width="14" height="14" viewBox="0 0 14 14" fill="none" xmlns="http://www.w3.org/2000/svg">
<path d="M7.00108 4.52433C6.43246 4.52433 5.87661 4.69295 5.40382 5.00885C4.93103 5.32476 4.56253 5.77378 4.34493 6.29911C4.12733 6.82445 4.07039 7.40252 4.18132 7.96021C4.29226 8.51791 4.56607 9.03019 4.96815 9.43226C5.37023 9.83434 5.8825 10.1082 6.4402 10.2191C6.99789 10.33 7.57596 10.2731 8.1013 10.0555C8.62663 9.83788 9.07565 9.46939 9.39156 8.99659C9.70747 8.5238 9.87608 7.96795 9.87608 7.39933C9.87509 6.63714 9.57187 5.90645 9.03292 5.36749C8.49397 4.82854 7.76327 4.52532 7.00108 4.52433ZM7.00108 9.52433C6.5808 9.52433 6.16995 9.3997 5.8205 9.1662C5.47104 8.9327 5.19867 8.60082 5.03784 8.21253C4.877 7.82424 4.83492 7.39697 4.91691 6.98476C4.99891 6.57255 5.20129 6.19391 5.49848 5.89673C5.79567 5.59954 6.17431 5.39715 6.58651 5.31516C6.99872 5.23317 7.42599 5.27525 7.81428 5.43609C8.20258 5.59692 8.53446 5.86929 8.76796 6.21874C9.00145 6.5682 9.12608 6.97904 9.12608 7.39933C9.12608 7.96291 8.9022 8.50342 8.50368 8.90193C8.10517 9.30045 7.56467 9.52433 7.00108 9.52433ZM12.3761 7.57683C12.3798 7.4587 12.3798 7.33995 12.3761 7.22183L13.3342 6.02433C13.3708 5.97849 13.3962 5.9247 13.4082 5.86727C13.4203 5.80985 13.4187 5.7504 13.4036 5.6937C13.2537 5.12874 13.0292 4.58626 12.7361 4.08058C12.707 4.02926 12.6662 3.98553 12.617 3.95295C12.5678 3.92037 12.5116 3.89985 12.453 3.89308L10.9248 3.7237C10.8444 3.63745 10.7611 3.55412 10.6748 3.4737L10.5048 1.94495C10.4981 1.88634 10.4775 1.83015 10.445 1.78095C10.4124 1.73176 10.3687 1.69094 10.3173 1.66183C9.81224 1.36959 9.27065 1.14555 8.70671 0.995579C8.64987 0.980728 8.59033 0.979438 8.53291 0.991814C8.47548 1.00419 8.42176 1.02989 8.37608 1.06683L7.17608 2.02745C7.05778 2.02372 6.93939 2.02372 6.82108 2.02745L5.62608 1.0662C5.58024 1.02958 5.52645 1.00423 5.46902 0.992177C5.4116 0.980128 5.35215 0.981722 5.29546 0.996829C4.73049 1.14671 4.18801 1.37118 3.68233 1.66433C3.63101 1.69344 3.58728 1.73426 3.5547 1.78345C3.52212 1.83265 3.50161 1.88884 3.49483 1.94745L3.32796 3.47558C3.24171 3.55641 3.15837 3.63975 3.07796 3.72558L1.54858 3.89933C1.48997 3.9061 1.43378 3.92662 1.38458 3.9592C1.33538 3.99178 1.29457 4.03551 1.26546 4.08683C0.973213 4.59192 0.74918 5.13351 0.599207 5.69745C0.584714 5.75359 0.583436 5.81233 0.595473 5.86905C0.607511 5.92576 0.632536 5.97892 0.668582 6.02433L1.62921 7.22433C1.62547 7.34263 1.62547 7.46103 1.62921 7.57933L0.667957 8.77745C0.631334 8.8233 0.605979 8.87709 0.59393 8.93451C0.581881 8.99194 0.583474 9.05138 0.598582 9.10808C0.748722 9.67196 0.97319 10.2134 1.26608 10.7181C1.29519 10.7694 1.33601 10.8131 1.3852 10.8457C1.4344 10.8783 1.49059 10.8988 1.54921 10.9056L3.07733 11.075C3.15817 11.1612 3.2415 11.2445 3.32733 11.325L3.50108 12.8518C3.50786 12.9104 3.52837 12.9666 3.56095 13.0158C3.59353 13.065 3.63726 13.1058 3.68858 13.135C4.19368 13.4272 4.73526 13.6512 5.29921 13.8012C5.3559 13.8163 5.41535 13.8179 5.47277 13.8059C5.5302 13.7938 5.58399 13.7685 5.62983 13.7318L6.82358 12.7743C6.94171 12.7781 7.06046 12.7781 7.17858 12.7743L8.37921 13.7356C8.44577 13.7887 8.52843 13.8176 8.61358 13.8175C8.64606 13.8173 8.6784 13.8131 8.70983 13.805C9.27372 13.6548 9.81513 13.4303 10.3198 13.1375C10.3712 13.1083 10.4149 13.0675 10.4475 13.0183C10.48 12.9691 10.5006 12.9129 10.5073 12.8543L10.6767 11.3262C10.763 11.2458 10.8463 11.1625 10.9267 11.0762L12.4555 10.9062C12.5141 10.8994 12.5703 10.8789 12.6195 10.8463C12.6687 10.8138 12.7095 10.77 12.7386 10.7187C13.031 10.2137 13.255 9.67207 13.4048 9.10808C13.4199 9.05138 13.4215 8.99194 13.4095 8.93451C13.3974 8.87709 13.3721 8.8233 13.3355 8.77745L12.3761 7.57683ZM12.1823 10.1787L10.7048 10.3431C10.6125 10.3537 10.5274 10.3983 10.4661 10.4681C10.3426 10.6072 10.2109 10.7389 10.0717 10.8625C10.0019 10.9238 9.95735 11.0089 9.94671 11.1012L9.78233 12.5781C9.43641 12.7625 9.07294 12.912 8.69733 13.0243L7.53671 12.0956C7.47014 12.0425 7.38749 12.0136 7.30233 12.0137H7.27983C7.09415 12.0243 6.90801 12.0243 6.72233 12.0137C6.6296 12.008 6.53806 12.037 6.46546 12.095L5.30546 13.0243C4.93017 12.9115 4.56711 12.7614 4.22171 12.5762L4.05733 11.1C4.04669 11.0076 4.00214 10.9225 3.93233 10.8612C3.79316 10.7377 3.66147 10.606 3.53796 10.4668C3.47661 10.397 3.39153 10.3525 3.29921 10.3418L1.82233 10.1775C1.63806 9.83253 1.48857 9.47012 1.37608 9.09558L2.30483 7.93496C2.3628 7.86235 2.39175 7.77081 2.38608 7.67808C2.37545 7.4924 2.37545 7.30626 2.38608 7.12058C2.39175 7.02785 2.3628 6.93631 2.30483 6.8637L1.37608 5.7037C1.48894 5.32841 1.63906 4.96535 1.82421 4.61995L3.30046 4.45558C3.39278 4.44494 3.47786 4.40039 3.53921 4.33058C3.66272 4.19141 3.79441 4.05972 3.93358 3.9362C4.00339 3.87486 4.04794 3.78978 4.05858 3.69745L4.22296 2.22058C4.56788 2.03631 4.93029 1.88682 5.30483 1.77433L6.46546 2.70308C6.53806 2.76105 6.6296 2.79 6.72233 2.78433C6.90801 2.77369 7.09415 2.77369 7.27983 2.78433C7.37257 2.79 7.4641 2.76105 7.53671 2.70308L8.69671 1.77433C9.072 1.88718 9.43506 2.03731 9.78046 2.22245L9.94483 3.69995C9.95548 3.79228 10 3.87736 10.0698 3.9387C10.209 4.06222 10.3407 4.19391 10.4642 4.33308C10.5256 4.40289 10.6106 4.44744 10.703 4.45808L12.1798 4.62245C12.364 4.96698 12.5135 5.32897 12.6261 5.70308L11.6973 6.8637C11.6394 6.93631 11.6104 7.02785 11.6161 7.12058C11.6267 7.30626 11.6267 7.4924 11.6161 7.67808C11.6104 7.77081 11.6394 7.86235 11.6973 7.93496L12.6261 9.09495C12.5136 9.4702 12.3639 9.83326 12.1792 10.1787H12.1823Z" fill="white"/>
</svg>
