<svg width="16" height="17" viewBox="0 0 16 17" fill="none" xmlns="http://www.w3.org/2000/svg">
<path d="M0.016625 10.7966L1.72263 8.46763L0.015625 6.13763C0.195625 5.53663 0.445625 4.94763 0.773625 4.38063C1.09309 3.82616 1.47637 3.31098 1.91562 2.84563L4.78762 3.15863L5.95162 0.51763C7.20058 0.219099 8.5022 0.218071 9.75163 0.51463L10.9176 3.15863L13.7896 2.84563C14.6718 3.7794 15.3223 4.90737 15.6886 6.13863L13.9826 8.46763L15.6886 10.7976C15.5086 11.3986 15.2586 11.9876 14.9306 12.5546C14.6112 13.1091 14.2279 13.6243 13.7886 14.0896L10.9166 13.7766L9.75262 16.4176C8.50367 16.7162 7.20205 16.7172 5.95262 16.4206L4.78662 13.7766L1.91463 14.0896C1.03243 13.1559 0.381948 12.0279 0.015625 10.7966M4.67863 12.7826C4.88981 12.7597 5.1028 12.8046 5.28673 12.9109C5.47067 13.0172 5.61598 13.1792 5.70162 13.3736L6.65863 15.5436C7.44863 15.6776 8.25562 15.6756 9.04562 15.5426L10.0016 13.3736C10.0874 13.1794 10.2328 13.0176 10.4167 12.9115C10.6007 12.8054 10.8136 12.7606 11.0246 12.7836L13.3826 13.0396C13.893 12.4216 14.2965 11.7226 14.5766 10.9716L13.1756 9.05863C13.05 8.88718 12.9823 8.68017 12.9823 8.46763C12.9823 8.25509 13.05 8.04808 13.1756 7.87663L14.5756 5.96463C14.2962 5.21343 13.8933 4.51414 13.3836 3.89563L11.0246 4.15263C10.8134 4.17554 10.6005 4.13062 10.4165 4.02435C10.2326 3.91809 10.0873 3.75602 10.0016 3.56163L9.04562 1.39163C8.25544 1.25915 7.44869 1.25949 6.65863 1.39263L5.70262 3.56163C5.61682 3.75584 5.47144 3.91769 5.28752 4.02377C5.1036 4.12984 4.89069 4.17462 4.67963 4.15163L2.32162 3.89563C1.81129 4.5137 1.40774 5.21264 1.12762 5.96363L2.52863 7.87663C2.65424 8.04808 2.72195 8.25509 2.72195 8.46763C2.72195 8.68017 2.65424 8.88718 2.52863 9.05863L1.12863 10.9706C1.40863 11.7216 1.80962 12.4206 2.32062 13.0396L4.67863 12.7826ZM7.85262 11.4676C7.05698 11.4676 6.29391 11.1516 5.7313 10.589C5.1687 10.0263 4.85262 9.26328 4.85262 8.46763C4.85262 7.67198 5.1687 6.90892 5.7313 6.34631C6.29391 5.7837 7.05698 5.46763 7.85262 5.46763C8.64827 5.46763 9.41134 5.7837 9.97395 6.34631C10.5366 6.90892 10.8526 7.67198 10.8526 8.46763C10.8526 9.26328 10.5366 10.0263 9.97395 10.589C9.41134 11.1516 8.64827 11.4676 7.85262 11.4676ZM7.85262 10.4676C8.38306 10.4676 8.89177 10.2569 9.26684 9.88184C9.64191 9.50677 9.85262 8.99806 9.85262 8.46763C9.85262 7.9372 9.64191 7.42849 9.26684 7.05342C8.89177 6.67834 8.38306 6.46763 7.85262 6.46763C7.32219 6.46763 6.81348 6.67834 6.43841 7.05342C6.06334 7.42849 5.85262 7.9372 5.85262 8.46763C5.85262 8.99806 6.06334 9.50677 6.43841 9.88184C6.81348 10.2569 7.32219 10.4676 7.85262 10.4676Z" fill="#7FB6F5"/>
</svg>
