<svg width="13" height="14" viewBox="0 0 13 14" fill="none" xmlns="http://www.w3.org/2000/svg">
<path d="M5.65134 12.741C5.76331 12.9349 5.92436 13.096 6.1183 13.2079C6.31224 13.3199 6.53223 13.3788 6.75616 13.3788C6.9801 13.3788 7.20009 13.3199 7.39402 13.2079C7.58796 13.096 7.74901 12.9349 7.86098 12.741M1.18229 9.1216C1.09895 9.21294 1.04396 9.32652 1.024 9.44853C1.00403 9.57055 1.01996 9.69573 1.06983 9.80886C1.1197 9.92199 1.20138 10.0182 1.30492 10.0858C1.40847 10.1533 1.52941 10.1893 1.65305 10.1894H11.8593C11.9829 10.1895 12.1039 10.1536 12.2075 10.0862C12.3111 10.0187 12.3929 9.92263 12.4429 9.80958C12.4929 9.69652 12.509 9.57137 12.4891 9.44934C12.4693 9.32732 12.4145 9.21368 12.3313 9.12224C11.4829 8.24769 10.5835 7.31829 10.5835 4.44843C10.5835 3.43336 10.1803 2.45986 9.46249 1.74209C8.74473 1.02433 7.77123 0.621094 6.75616 0.621094C5.74109 0.621094 4.76759 1.02433 4.04983 1.74209C3.33206 2.45986 2.92883 3.43336 2.92883 4.44843C2.92883 7.31829 2.02876 8.2477 1.18229 9.1216Z" stroke="white" stroke-linecap="round" stroke-linejoin="round"/>
</svg>
