<svg width="18" height="17" viewBox="0 0 18 17" fill="none" xmlns="http://www.w3.org/2000/svg">
<path d="M6.43891 16.1792L4.99129 13.7411L2.24844 13.1316L2.5151 10.3125L0.648438 8.1792L2.5151 6.04587L2.24844 3.22682L4.99129 2.61729L6.43891 0.179199L9.02939 1.28396L11.6199 0.179199L13.0675 2.61729L15.8103 3.22682L15.5437 6.04587L17.4103 8.1792L15.5437 10.3125L15.8103 13.1316L13.0675 13.7411L11.6199 16.1792L9.02939 15.0744L6.43891 16.1792ZM7.08653 14.2363L9.02939 13.3982L11.0103 14.2363L12.077 12.4078L14.1722 11.9125L13.9818 9.7792L15.3913 8.1792L13.9818 6.5411L14.1722 4.40777L12.077 3.95063L10.9722 2.12206L9.02939 2.96015L7.04844 2.12206L5.98177 3.95063L3.88653 4.40777L4.07701 6.5411L2.66749 8.1792L4.07701 9.7792L3.88653 11.9506L5.98177 12.4078L7.08653 14.2363ZM8.22939 10.884L12.5342 6.5792L11.4675 5.47444L8.22939 8.71253L6.59129 7.11253L5.52463 8.1792L8.22939 10.884Z" fill="white"/>
</svg>
