<svg width="12" height="14" viewBox="0 0 12 14" fill="none" xmlns="http://www.w3.org/2000/svg">
<path d="M6.37319 13.2794C6.26439 13.3576 6.13381 13.3996 5.99985 13.3996C5.8659 13.3996 5.73532 13.3576 5.62652 13.2794C2.40719 10.9847 -1.00948 6.26475 2.44452 2.85408C3.39275 1.92131 4.66974 1.39883 5.99985 1.39941C7.33319 1.39941 8.61252 1.92275 9.55519 2.85341C13.0092 6.26408 9.59252 10.9834 6.37319 13.2794Z" stroke="white" stroke-linecap="round" stroke-linejoin="round"/>
<path d="M6.0013 7.39958C6.35492 7.39958 6.69406 7.2591 6.94411 7.00905C7.19416 6.759 7.33464 6.41987 7.33464 6.06624C7.33464 5.71262 7.19416 5.37348 6.94411 5.12343C6.69406 4.87339 6.35492 4.73291 6.0013 4.73291C5.64768 4.73291 5.30854 4.87339 5.05849 5.12343C4.80844 5.37348 4.66797 5.71262 4.66797 6.06624C4.66797 6.41987 4.80844 6.759 5.05849 7.00905C5.30854 7.2591 5.64768 7.39958 6.0013 7.39958Z" stroke="white" stroke-linecap="round" stroke-linejoin="round"/>
</svg>
