<svg width="61" height="60" viewBox="0 0 61 60" fill="none" xmlns="http://www.w3.org/2000/svg">
<path d="M32.8794 4.82038C41.0659 6.41997 47.8097 14.9254 45.819 22.9344C44.0855 29.8844 37.1292 39.6915 32.7676 45.5493C32.0854 46.465 31.1236 47.9542 30.3631 48.7154C30.296 48.7816 30.2736 48.914 30.1282 48.8809C26.0238 43.4974 21.9529 37.9485 18.6202 32.0576C14.9296 25.5379 12.0665 19.7683 16.2157 12.5536C18.3742 8.79178 23.0825 5.66982 27.4665 4.82038C28.9651 4.53355 31.4926 4.54458 32.8794 4.82038ZM29.6473 11.1746C23.0042 11.5607 18.8886 18.6431 22.1207 24.4457C25.5541 30.6124 34.8701 30.5794 38.2476 24.3795C41.6251 18.1908 36.7043 10.7665 29.6473 11.1746Z" fill="#00AFE3"/>
<path d="M21.3216 51.1773L38.757 51.1553C41.4411 51.398 41.6535 54.8619 39.0477 55.3914H21.3104C18.8276 54.895 18.8723 51.6738 21.3327 51.1773H21.3216Z" fill="#00AFE3"/>
</svg>
