<svg width="19" height="14" viewBox="0 0 19 14" fill="none" xmlns="http://www.w3.org/2000/svg">
<path d="M0.947083 6.18084C0.759612 6.36837 0.654297 6.62268 0.654297 6.88784C0.654297 7.15301 0.759612 7.40731 0.947083 7.59484L6.60408 13.2518C6.69633 13.3474 6.80667 13.4235 6.92868 13.4759C7.05068 13.5284 7.1819 13.5559 7.31468 13.5571C7.44746 13.5582 7.57914 13.5329 7.70204 13.4827C7.82493 13.4324 7.93659 13.3581 8.03048 13.2642C8.12437 13.1703 8.19862 13.0587 8.2489 12.9358C8.29919 12.8129 8.32449 12.6812 8.32333 12.5484C8.32218 12.4157 8.29459 12.2844 8.24219 12.1624C8.18978 12.0404 8.11359 11.9301 8.01808 11.8378L4.06808 7.88784L17.3111 7.88784C17.5763 7.88784 17.8307 7.78248 18.0182 7.59495C18.2057 7.40741 18.3111 7.15306 18.3111 6.88784C18.3111 6.62262 18.2057 6.36827 18.0182 6.18073C17.8307 5.9932 17.5763 5.88784 17.3111 5.88784L4.06808 5.88784L8.01808 1.93784C8.20024 1.74924 8.30103 1.49664 8.29876 1.23444C8.29648 0.972243 8.19131 0.721429 8.0059 0.536022C7.82049 0.350614 7.56968 0.245444 7.30748 0.243166C7.04529 0.240887 6.79268 0.341681 6.60408 0.52384L0.947083 6.18084Z" fill="black"/>
</svg>
