<svg width="159" height="33" viewBox="0 0 159 33" fill="none" xmlns="http://www.w3.org/2000/svg">
<path d="M15.5026 2.85976C15.7052 2.23627 16.5873 2.23627 16.7898 2.85976L19.5889 11.4743C19.6795 11.7531 19.9393 11.9419 20.2325 11.9419H29.2903C29.9459 11.9419 30.2185 12.7808 29.6881 13.1661L22.3602 18.4902C22.123 18.6625 22.0237 18.968 22.1143 19.2468L24.9133 27.8613C25.1159 28.4848 24.4023 29.0032 23.8719 28.6179L16.544 23.2939C16.3068 23.1215 15.9856 23.1215 15.7484 23.2939L8.42052 28.6179C7.89015 29.0032 7.17654 28.4848 7.37912 27.8613L10.1781 19.2468C10.2687 18.968 10.1695 18.6625 9.9323 18.4902L2.60437 13.1661C2.074 12.7808 2.34657 11.9419 3.00215 11.9419H12.06C12.3531 11.9419 12.613 11.7531 12.7036 11.4743L15.5026 2.85976Z" fill="#FFE033"/>
<path d="M47.1862 2.85976C47.3888 2.23627 48.2709 2.23627 48.4734 2.85976L51.2725 11.4743C51.3631 11.7531 51.6229 11.9419 51.9161 11.9419H60.9739C61.6295 11.9419 61.9021 12.7808 61.3717 13.1661L54.0437 18.4902C53.8066 18.6625 53.7073 18.968 53.7979 19.2468L56.5969 27.8613C56.7995 28.4848 56.0859 29.0032 55.5555 28.6179L48.2276 23.2939C47.9904 23.1215 47.6692 23.1215 47.432 23.2939L40.1041 28.6179C39.5737 29.0032 38.8601 28.4848 39.0627 27.8613L41.8617 19.2468C41.9523 18.968 41.8531 18.6625 41.6159 18.4902L34.288 13.1661C33.7576 12.7808 34.0302 11.9419 34.6857 11.9419H43.7436C44.0367 11.9419 44.2966 11.7531 44.3872 11.4743L47.1862 2.85976Z" fill="#FFE033"/>
<path d="M78.8698 2.85976C79.0724 2.23627 79.9545 2.23627 80.157 2.85976L82.9561 11.4743C83.0467 11.7531 83.3065 11.9419 83.5997 11.9419H92.6575C93.3131 11.9419 93.5856 12.7808 93.0553 13.1661L85.7273 18.4902C85.4902 18.6625 85.3909 18.968 85.4815 19.2468L88.2805 27.8613C88.4831 28.4848 87.7695 29.0032 87.2391 28.6179L79.9112 23.2939C79.674 23.1215 79.3528 23.1215 79.1156 23.2939L71.7877 28.6179C71.2573 29.0032 70.5437 28.4848 70.7463 27.8613L73.5453 19.2468C73.6359 18.968 73.5367 18.6625 73.2995 18.4902L65.9716 13.1661C65.4412 12.7808 65.7138 11.9419 66.3693 11.9419H75.4272C75.7203 11.9419 75.9802 11.7531 76.0708 11.4743L78.8698 2.85976Z" fill="#FFE033"/>
<path d="M110.555 2.85976C110.758 2.23627 111.64 2.23627 111.843 2.85976L114.642 11.4743C114.732 11.7531 114.992 11.9419 115.285 11.9419H124.343C124.999 11.9419 125.271 12.7808 124.741 13.1661L117.413 18.4902C117.176 18.6625 117.076 18.968 117.167 19.2468L119.966 27.8613C120.169 28.4848 119.455 29.0032 118.925 28.6179L111.597 23.2939C111.36 23.1215 111.038 23.1215 110.801 23.2939L103.473 28.6179C102.943 29.0032 102.229 28.4848 102.432 27.8613L105.231 19.2468C105.321 18.968 105.222 18.6625 104.985 18.4902L97.6571 13.1661C97.1267 12.7808 97.3993 11.9419 98.0549 11.9419H107.113C107.406 11.9419 107.666 11.7531 107.756 11.4743L110.555 2.85976Z" fill="#FFE033"/>
<path d="M142.241 2.85976C142.443 2.23627 143.326 2.23627 143.528 2.85976L146.327 11.4743C146.418 11.7531 146.678 11.9419 146.971 11.9419H156.029C156.684 11.9419 156.957 12.7808 156.426 13.1661L149.098 18.4902C148.861 18.6625 148.762 18.968 148.853 19.2468L151.652 27.8613C151.854 28.4848 151.141 29.0032 150.61 28.6179L143.282 23.2939C143.045 23.1215 142.724 23.1215 142.487 23.2939L135.159 28.6179C134.628 29.0032 133.915 28.4848 134.117 27.8613L136.916 19.2468C137.007 18.968 136.908 18.6625 136.671 18.4902L129.343 13.1661C128.812 12.7808 129.085 11.9419 129.74 11.9419H138.798C139.091 11.9419 139.351 11.7531 139.442 11.4743L142.241 2.85976Z" fill="#FFE033"/>
</svg>
