<svg width="19" height="14" viewBox="0 0 19 14" fill="none" xmlns="http://www.w3.org/2000/svg">
<path d="M17.8224 6.18035C18.0099 6.36788 18.1152 6.62219 18.1152 6.88735C18.1152 7.15252 18.0099 7.40682 17.8224 7.59435L12.1654 13.2514C12.0732 13.3469 11.9629 13.423 11.8409 13.4755C11.7188 13.5279 11.5876 13.5554 11.4548 13.5566C11.3221 13.5578 11.1904 13.5325 11.0675 13.4822C10.9446 13.4319 10.8329 13.3576 10.7391 13.2637C10.6452 13.1699 10.5709 13.0582 10.5206 12.9353C10.4703 12.8124 10.445 12.6807 10.4462 12.548C10.4474 12.4152 10.4749 12.284 10.5273 12.1619C10.5798 12.0399 10.6559 11.9296 10.7514 11.8374L14.7014 7.88735L1.45845 7.88735C1.19323 7.88735 0.938877 7.78199 0.751341 7.59446C0.563805 7.40692 0.458449 7.15257 0.458449 6.88735C0.458449 6.62214 0.563805 6.36778 0.751341 6.18025C0.938877 5.99271 1.19323 5.88735 1.45845 5.88735L14.7014 5.88735L10.7514 1.93735C10.5693 1.74875 10.4685 1.49615 10.4708 1.23395C10.4731 0.971755 10.5782 0.720941 10.7636 0.535534C10.949 0.350126 11.1999 0.244956 11.462 0.242677C11.7242 0.240399 11.9768 0.341193 12.1654 0.523351L17.8224 6.18035Z" fill="black"/>
</svg>
