<svg width="86" height="75" viewBox="0 0 86 75" fill="none" xmlns="http://www.w3.org/2000/svg">
<path d="M3.75981 64.6364C1.25262 53.563 -0.000976562 43.9521 -0.000976562 35.8037C-0.000976562 24.1035 2.71514 15.3283 8.14739 9.4782C13.5796 3.41917 21.5191 0.389648 31.9657 0.389648V12.9256C26.5334 12.9256 22.5637 14.3881 20.0565 17.3132C17.7583 20.2382 16.6091 24.6258 16.6091 30.4759V37.6841H32.2791V64.6364H3.75981ZM46.0686 64.6364C43.5614 53.563 42.3078 43.9521 42.3078 35.8037C42.3078 24.1035 45.024 15.3283 50.4562 9.4782C55.8884 3.41917 63.8279 0.389648 74.2745 0.389648V12.9256C68.8423 12.9256 64.8725 14.3881 62.3653 17.3132C60.0671 20.2382 58.918 24.6258 58.918 30.4759V37.6841H74.5879V64.6364H46.0686Z" fill="#07B6EA"/>
</svg>
