<svg width="30" height="31" viewBox="0 0 30 31" fill="none" xmlns="http://www.w3.org/2000/svg">
<rect y="0.961914" width="29.5273" height="29.5273" rx="14.7637" fill="#D9D9D9"/>
<path d="M17.6693 11.7256L19.6693 9.72559M19.6693 9.72559L21.6693 11.7256M19.6693 9.72559V13.7256M17.6693 21.7256V20.9256C17.6693 19.8055 17.6693 19.2454 17.4513 18.8176C17.2595 18.4413 16.9536 18.1353 16.5773 17.9436C16.1494 17.7256 15.5894 17.7256 14.4693 17.7256H11.5359C10.4158 17.7256 9.85578 17.7256 9.42796 17.9436C9.05163 18.1353 8.74567 18.4413 8.55392 18.8176C8.33594 19.2454 8.33594 19.8055 8.33594 20.9256V21.7256M15.3359 12.7256C15.3359 14.0143 14.2913 15.0589 13.0026 15.0589C11.7139 15.0589 10.6693 14.0143 10.6693 12.7256C10.6693 11.4369 11.7139 10.3923 13.0026 10.3923C14.2913 10.3923 15.3359 11.4369 15.3359 12.7256Z" stroke="black" stroke-linecap="round" stroke-linejoin="round"/>
</svg>
