<svg width="17" height="16" viewBox="0 0 17 16" fill="none" xmlns="http://www.w3.org/2000/svg">
<path d="M8.14834 0.690722C8.32125 0.158555 9.07412 0.158554 9.24704 0.690721L10.7453 5.30181C10.8226 5.5398 11.0444 5.70094 11.2946 5.70094L16.143 5.70094C16.7026 5.70094 16.9352 6.41696 16.4825 6.74586L12.5601 9.59567C12.3576 9.74276 12.2729 10.0035 12.3503 10.2415L13.8485 14.8526C14.0214 15.3847 13.4123 15.8273 12.9596 15.4984L9.0372 12.6485C8.83475 12.5015 8.56062 12.5015 8.35817 12.6485L4.43574 15.4984C3.98306 15.8273 3.37397 15.3847 3.54688 14.8526L5.04511 10.2415C5.12244 10.0035 5.03773 9.74276 4.83528 9.59567L0.912853 6.74586C0.460165 6.41696 0.692815 5.70094 1.25237 5.70094L6.10076 5.70094C6.351 5.70094 6.57278 5.5398 6.6501 5.30181L8.14834 0.690722Z" fill="#00AFE3"/>
</svg>
