<svg width="31" height="30" viewBox="0 0 31 30" fill="none" xmlns="http://www.w3.org/2000/svg">
<rect x="0.804688" y="0.0898438" width="29.5273" height="29.5273" rx="14.7637" fill="#D9D9D9"/>
<g clip-path="url(#clip0_2584_443)">
<path d="M17.807 9.52018V12.8535M17.807 12.8535L21.1404 12.8535M17.807 12.8535L21.807 8.85352M14.6251 16.0956C13.824 15.2945 13.1915 14.3887 12.7275 13.4223C12.6876 13.3392 12.6676 13.2976 12.6523 13.2451C12.5978 13.0581 12.6369 12.8286 12.7503 12.6704C12.7822 12.6258 12.8203 12.5877 12.8965 12.5115C13.1295 12.2784 13.2461 12.1619 13.3223 12.0447C13.6096 11.6028 13.6096 11.0331 13.3223 10.5911C13.2461 10.474 13.1295 10.3574 12.8965 10.1243L12.7666 9.99443C12.4123 9.64014 12.2351 9.46299 12.0449 9.36676C11.6665 9.17538 11.2197 9.17538 10.8413 9.36676C10.651 9.46299 10.4739 9.64014 10.1196 9.99443L10.0145 10.0995C9.66141 10.4526 9.48487 10.6291 9.35003 10.8692C9.20042 11.1355 9.09285 11.5492 9.09376 11.8546C9.09457 12.1299 9.14798 12.3181 9.25478 12.6944C9.82876 14.7167 10.9117 16.6249 12.5037 18.2169C14.0957 19.8089 16.004 20.8919 18.0262 21.4658C18.4025 21.5726 18.5907 21.626 18.866 21.6269C19.1714 21.6278 19.5851 21.5202 19.8514 21.3706C20.0915 21.2357 20.268 21.0592 20.6211 20.7061L20.7262 20.601C21.0805 20.2467 21.2576 20.0696 21.3539 19.8793C21.5452 19.501 21.5452 19.0541 21.3539 18.6757C21.2576 18.4855 21.0805 18.3083 20.7262 17.9541L20.5963 17.8241C20.3632 17.5911 20.2467 17.4745 20.1295 17.3983C19.6876 17.111 19.1178 17.111 18.6759 17.3983C18.5587 17.4745 18.4422 17.5911 18.2091 17.8241C18.1329 17.9003 18.0948 17.9384 18.0503 17.9703C17.892 18.0837 17.6625 18.1228 17.4756 18.0683C17.423 18.053 17.3814 18.033 17.2983 17.9931C16.3319 17.5291 15.4261 16.8966 14.6251 16.0956Z" stroke="black" stroke-linecap="round" stroke-linejoin="round"/>
</g>
<defs>
<clipPath id="clip0_2584_443">
<rect width="16" height="16" fill="white" transform="translate(7.80469 6.85352)"/>
</clipPath>
</defs>
</svg>
