<svg width="30" height="30" viewBox="0 0 30 30" fill="none" xmlns="http://www.w3.org/2000/svg">
<rect y="0.236328" width="29.5273" height="29.5273" rx="14.7637" fill="#D9D9D9"/>
<path d="M21.3359 19.0003L16.9074 15.0003M13.0978 15.0003L8.66929 19.0003M8.33594 11.667L13.7792 15.4773C14.22 15.7858 14.4404 15.9401 14.6801 15.9999C14.8919 16.0526 15.1133 16.0526 15.3251 15.9999C15.5648 15.9401 15.7852 15.7858 16.226 15.4773L21.6693 11.667M11.5359 20.3337H18.4693C19.5894 20.3337 20.1494 20.3337 20.5773 20.1157C20.9536 19.9239 21.2595 19.618 21.4513 19.2416C21.6693 18.8138 21.6693 18.2538 21.6693 17.1337V12.867C21.6693 11.7469 21.6693 11.1868 21.4513 10.759C21.2595 10.3827 20.9536 10.0767 20.5773 9.88498C20.1494 9.66699 19.5894 9.66699 18.4693 9.66699H11.5359C10.4158 9.66699 9.85578 9.66699 9.42796 9.88498C9.05163 10.0767 8.74567 10.3827 8.55392 10.759C8.33594 11.1868 8.33594 11.7469 8.33594 12.867V17.1337C8.33594 18.2538 8.33594 18.8138 8.55392 19.2416C8.74567 19.618 9.05163 19.9239 9.42796 20.1157C9.85578 20.3337 10.4158 20.3337 11.5359 20.3337Z" stroke="black" stroke-linecap="round" stroke-linejoin="round"/>
</svg>
