<svg width="29" height="27" viewBox="0 0 29 27" fill="none" xmlns="http://www.w3.org/2000/svg">
<path d="M13.838 0.927051C14.1374 0.0057404 15.4408 0.00574064 15.7401 0.927051L18.3339 8.90997C18.4678 9.322 18.8518 9.60096 19.285 9.60096H27.6787C28.6474 9.60096 29.0502 10.8406 28.2665 11.41L21.4758 16.3437C21.1253 16.5983 20.9787 17.0497 21.1126 17.4617L23.7064 25.4446C24.0057 26.366 22.9512 27.1321 22.1675 26.5627L15.3768 21.629C15.0264 21.3743 14.5518 21.3743 14.2013 21.629L7.4106 26.5627C6.62688 27.1321 5.5724 26.366 5.87176 25.4446L8.46556 17.4617C8.59944 17.0497 8.45278 16.5983 8.10229 16.3437L1.31161 11.41C0.5279 10.8406 0.930676 9.60096 1.8994 9.60096H10.2931C10.7264 9.60096 11.1103 9.322 11.2442 8.90997L13.838 0.927051Z" fill="#F6F6F6"/>
</svg>
