<?xml version="1.0" encoding="UTF-8"?>
<svg version="1.1" xmlns="http://www.w3.org/2000/svg" width="29" height="28">
<path d="M0 0 C0.66 0 1.32 0 2 0 C2.99 3.3 3.98 6.6 5 10 C8.3 10 11.6 10 15 10 C13 14 13 14 10.859375 15.39453125 C10.24578125 15.92433594 9.6321875 16.45414063 9 17 C8.73314692 19.75483302 8.73314692 19.75483302 9.25 22.6875 C9.44335938 24.17830078 9.44335938 24.17830078 9.640625 25.69921875 C9.75921875 26.45847656 9.8778125 27.21773437 10 28 C7.0280615 26.87548273 4.66559313 25.77706209 2 24 C-0.68826111 24.2601543 -1.92809563 24.94334807 -4.0625 26.625 C-4.701875 27.07875 -5.34125 27.5325 -6 28 C-6.99 27.67 -7.98 27.34 -9 27 C-8.34 23.7 -7.68 20.4 -7 17 C-9.31 15.35 -11.62 13.7 -14 12 C-13.67 11.34 -13.34 10.68 -13 10 C-11.56419394 9.92719036 -10.12499502 9.91632577 -8.6875 9.9375 C-6.23143413 9.85054663 -6.23143413 9.85054663 -4 9 C-1.9893902 6.20631059 -0.9507662 3.29111376 0 0 Z " fill="#CFCFCF" transform="translate(14,0)"/>
</svg>
