<svg width="35" height="34" viewBox="0 0 35 34" fill="none" xmlns="http://www.w3.org/2000/svg">
<path d="M16.5411 3.1126C16.8405 2.19129 18.1439 2.19129 18.4432 3.1126L21.0371 11.0955C21.1709 11.5075 21.5549 11.7865 21.9881 11.7865H30.3818C31.3506 11.7865 31.7533 13.0261 30.9696 13.5955L24.179 18.5292C23.8285 18.7839 23.6818 19.2353 23.8157 19.6473L26.4095 27.6302C26.7088 28.5515 25.6544 29.3176 24.8707 28.7482L18.08 23.8145C17.7295 23.5599 17.2549 23.5599 16.9044 23.8145L10.1137 28.7482C9.33001 29.3176 8.27553 28.5515 8.57488 27.6302L11.1687 19.6473C11.3026 19.2352 11.1559 18.7839 10.8054 18.5292L4.01474 13.5955C3.23102 13.0261 3.6338 11.7865 4.60252 11.7865H12.9963C13.4295 11.7865 13.8134 11.5075 13.9473 11.0955L16.5411 3.1126Z" fill="#F6F6F6"/>
<path d="M17.4932 23.623C17.2869 23.6231 17.0805 23.6871 16.9053 23.8145L10.1143 28.748C9.33057 29.3171 8.27685 28.5511 8.57617 27.6299L11.1699 19.6475C11.3038 19.2355 11.157 18.784 10.8066 18.5293L4.01562 13.5957C3.23192 13.0263 3.63481 11.7862 4.60352 11.7861H12.9971C13.4302 11.7861 13.8143 11.5076 13.9482 11.0957L16.542 3.1123C16.6917 2.65181 17.0926 2.42189 17.4932 2.42188V23.623Z" fill="#FFD633"/>
</svg>
