<svg width="30" height="30" viewBox="0 0 30 30" fill="none" xmlns="http://www.w3.org/2000/svg">
<rect width="29.5273" height="29.5273" rx="14.7637" fill="#D9D9D9"/>
<path d="M12.9974 13.7637L14.3307 15.097L17.3307 12.097M20.3307 20.7637V11.9637C20.3307 10.8436 20.3307 10.2835 20.1127 9.85569C19.921 9.47937 19.615 9.17341 19.2387 8.98166C18.8109 8.76367 18.2508 8.76367 17.1307 8.76367H12.8641C11.744 8.76367 11.1839 8.76367 10.7561 8.98166C10.3798 9.17341 10.0738 9.47937 9.88205 9.85569C9.66406 10.2835 9.66406 10.8436 9.66406 11.9637V20.7637L11.4974 19.4303L13.1641 20.7637L14.9974 19.4303L16.8307 20.7637L18.4974 19.4303L20.3307 20.7637Z" stroke="black" stroke-linecap="round" stroke-linejoin="round"/>
</svg>
