<svg width="17" height="16" viewBox="0 0 17 16" fill="none" xmlns="http://www.w3.org/2000/svg">
<path d="M7.66787 0.690722C7.84078 0.158555 8.59366 0.158554 8.76657 0.690721L10.2648 5.30181C10.3421 5.5398 10.5639 5.70094 10.8142 5.70094L15.6625 5.70094C16.2221 5.70094 16.4547 6.41696 16.0021 6.74586L12.0796 9.59567C11.8772 9.74276 11.7925 10.0035 11.8698 10.2415L13.368 14.8526C13.5409 15.3847 12.9319 15.8273 12.4792 15.4984L8.55674 12.6485C8.35429 12.5015 8.08015 12.5015 7.8777 12.6485L3.95528 15.4984C3.50259 15.8273 2.8935 15.3847 3.06641 14.8526L4.56464 10.2415C4.64197 10.0035 4.55726 9.74276 4.35481 9.59567L0.432384 6.74586C-0.020304 6.41696 0.212346 5.70094 0.771899 5.70094L5.62029 5.70094C5.87053 5.70094 6.09231 5.5398 6.16964 5.30181L7.66787 0.690722Z" fill="#FFD633"/>
</svg>
