<svg width="30" height="30" viewBox="0 0 30 30" fill="none" xmlns="http://www.w3.org/2000/svg">
<rect y="0.185547" width="29.5273" height="29.5273" rx="14.7637" fill="#D9D9D9"/>
<path d="M20.3307 20.9492C20.3307 20.0188 20.3307 19.5537 20.2159 19.1751C19.9574 18.3229 19.2904 17.6559 18.4382 17.3974C18.0596 17.2825 17.5944 17.2825 16.6641 17.2825H13.3307C12.4004 17.2825 11.9352 17.2825 11.5566 17.3974C10.7044 17.6559 10.0374 18.3229 9.77889 19.1751C9.66406 19.5537 9.66406 20.0188 9.66406 20.9492M17.9974 11.9492C17.9974 13.6061 16.6542 14.9492 14.9974 14.9492C13.3405 14.9492 11.9974 13.6061 11.9974 11.9492C11.9974 10.2924 13.3405 8.94922 14.9974 8.94922C16.6542 8.94922 17.9974 10.2924 17.9974 11.9492Z" stroke="black" stroke-linecap="round" stroke-linejoin="round"/>
</svg>
