<svg width="18" height="14" viewBox="0 0 18 14" fill="none" xmlns="http://www.w3.org/2000/svg">
<path d="M0.562317 6.10031C0.374846 6.28783 0.269531 6.54214 0.269531 6.8073C0.269531 7.07247 0.374846 7.32678 0.562317 7.5143L6.21932 13.1713C6.31156 13.2668 6.42191 13.343 6.54391 13.3954C6.66592 13.4478 6.79714 13.4754 6.92992 13.4766C7.0627 13.4777 7.19438 13.4524 7.31727 13.4021C7.44017 13.3518 7.55182 13.2776 7.64571 13.1837C7.7396 13.0898 7.81386 12.9782 7.86414 12.8553C7.91442 12.7324 7.93972 12.6007 7.93857 12.4679C7.93741 12.3351 7.90983 12.2039 7.85742 12.0819C7.80501 11.9599 7.72883 11.8496 7.63332 11.7573L3.68332 7.8073L16.9263 7.8073C17.1915 7.8073 17.4459 7.70195 17.6334 7.51441C17.821 7.32687 17.9263 7.07252 17.9263 6.8073C17.9263 6.54209 17.821 6.28773 17.6334 6.1002C17.4459 5.91266 17.1915 5.8073 16.9263 5.8073L3.68332 5.8073L7.63332 1.8573C7.81547 1.6687 7.91627 1.4161 7.91399 1.1539C7.91171 0.891707 7.80654 0.640894 7.62114 0.455486C7.43573 0.270078 7.18491 0.164908 6.92272 0.16263C6.66052 0.160351 6.40792 0.261145 6.21932 0.443304L0.562317 6.10031Z" fill="white"/>
</svg>
