<svg width="18" height="14" viewBox="0 0 18 14" fill="none" xmlns="http://www.w3.org/2000/svg">
<path d="M17.4377 6.10024C17.6252 6.28777 17.7305 6.54208 17.7305 6.80724C17.7305 7.07241 17.6252 7.32672 17.4377 7.51424L11.7807 13.1712C11.6884 13.2668 11.5781 13.3429 11.4561 13.3953C11.3341 13.4478 11.2029 13.4753 11.0701 13.4765C10.9373 13.4776 10.8056 13.4523 10.6827 13.4021C10.5598 13.3518 10.4482 13.2775 10.3543 13.1836C10.2604 13.0897 10.1861 12.9781 10.1359 12.8552C10.0856 12.7323 10.0603 12.6006 10.0614 12.4678C10.0626 12.3351 10.0902 12.2038 10.1426 12.0818C10.195 11.9598 10.2712 11.8495 10.3667 11.7572L14.3167 7.80724L1.07368 7.80724C0.808466 7.80724 0.554112 7.70189 0.366576 7.51435C0.179039 7.32681 0.0736831 7.07246 0.0736831 6.80724C0.0736831 6.54203 0.179039 6.28767 0.366576 6.10014C0.554112 5.9126 0.808466 5.80724 1.07368 5.80724L14.3167 5.80724L10.3667 1.85724C10.1845 1.66864 10.0837 1.41604 10.086 1.15384C10.0883 0.891646 10.1935 0.640833 10.3789 0.455425C10.5643 0.270017 10.8151 0.164847 11.0773 0.162569C11.3395 0.16029 11.5921 0.261084 11.7807 0.443243L17.4377 6.10024Z" fill="white"/>
</svg>
