<svg width="17" height="17" viewBox="0 0 17 17" fill="none" xmlns="http://www.w3.org/2000/svg">
<path d="M2.5 5.92168C2.5 4.80157 2.5 4.24152 2.71799 3.8137C2.90973 3.43737 3.21569 3.13141 3.59202 2.93967C4.01984 2.72168 4.5799 2.72168 5.7 2.72168H11.3C12.4201 2.72168 12.9802 2.72168 13.408 2.93967C13.7843 3.13141 14.0903 3.43737 14.282 3.8137C14.5 4.24152 14.5 4.80157 14.5 5.92168V9.72168C14.5 10.6536 14.5 11.1195 14.3478 11.487C14.1448 11.9771 13.7554 12.3665 13.2654 12.5694C12.8978 12.7217 12.4319 12.7217 11.5 12.7217C11.1743 12.7217 11.0114 12.7217 10.8603 12.7573C10.6589 12.8049 10.4713 12.8987 10.3123 13.0313C10.1931 13.1308 10.0954 13.2611 9.9 13.5217L8.92667 14.8195C8.78192 15.0125 8.70955 15.1089 8.62082 15.1435C8.54311 15.1737 8.45689 15.1737 8.37918 15.1435C8.29045 15.1089 8.21808 15.0125 8.07333 14.8195L7.1 13.5217C6.90457 13.2611 6.80685 13.1308 6.68766 13.0313C6.52874 12.8987 6.34113 12.8049 6.13967 12.7573C5.98858 12.7217 5.82572 12.7217 5.5 12.7217C4.56812 12.7217 4.10218 12.7217 3.73463 12.5694C3.24458 12.3665 2.85523 11.9771 2.65224 11.487C2.5 11.1195 2.5 10.6536 2.5 9.72168V5.92168Z" stroke="white" stroke-linecap="round" stroke-linejoin="round"/>
</svg>
