<svg width="30" height="31" viewBox="0 0 30 31" fill="none" xmlns="http://www.w3.org/2000/svg">
<rect y="0.609375" width="29.5273" height="29.5273" rx="14.7637" fill="#D9D9D9"/>
<path d="M21.3591 15.8287C21.5422 15.6718 21.6338 15.5933 21.6673 15.4999C21.6968 15.418 21.6968 15.3283 21.6673 15.2464C21.6338 15.153 21.5422 15.0745 21.3591 14.9176L15.0061 9.47212C14.6909 9.20198 14.5333 9.0669 14.3999 9.06359C14.284 9.06072 14.1732 9.11166 14.0999 9.20157C14.0156 9.30502 14.0156 9.51257 14.0156 9.92768V13.1491C12.4146 13.4292 10.9493 14.2405 9.86041 15.4585C8.67324 16.7865 8.01655 18.5051 8.01562 20.2864V20.7454C8.80263 19.7973 9.78525 19.0305 10.8962 18.4976C11.8756 18.0277 12.9344 17.7494 14.0156 17.676V20.8186C14.0156 21.2337 14.0156 21.4413 14.0999 21.5447C14.1732 21.6346 14.284 21.6856 14.3999 21.6827C14.5333 21.6794 14.6909 21.5443 15.0061 21.2742L21.3591 15.8287Z" stroke="black" stroke-linecap="round" stroke-linejoin="round"/>
</svg>
