<svg width="18" height="19" viewBox="0 0 18 19" fill="none" xmlns="http://www.w3.org/2000/svg">
<path d="M1 9.54063C1 10.5781 1.20434 11.6054 1.60135 12.5638C1.99836 13.5223 2.58027 14.3932 3.31386 15.1268C4.04744 15.8604 4.91833 16.4423 5.8768 16.8393C6.83527 17.2363 7.86256 17.4406 8.9 17.4406C9.93744 17.4406 10.9647 17.2363 11.9232 16.8393C12.8817 16.4423 13.7526 15.8604 14.4861 15.1268C15.2197 14.3932 15.8016 13.5223 16.1987 12.5638C16.5957 11.6054 16.8 10.5781 16.8 9.54063C16.8 7.44542 15.9677 5.43602 14.4861 3.95448C13.0046 2.47294 10.9952 1.64062 8.9 1.64062C6.80479 1.64062 4.79539 2.47294 3.31386 3.95448C1.83232 5.43602 1 7.44542 1 9.54063Z" stroke="#00AFE3" stroke-width="1.75556" stroke-linecap="round" stroke-linejoin="round"/>
<path d="M8.89844 5.15234V9.54123L11.5318 12.1746" stroke="#00AFE3" stroke-width="1.75556" stroke-linecap="round" stroke-linejoin="round"/>
</svg>
