<svg width="622" height="297" viewBox="0 0 622 297" fill="none" xmlns="http://www.w3.org/2000/svg">
<rect y="0.537109" width="622" height="296.17" fill="url(#paint0_linear_4629_92)"/>
<path d="M67.2866 71.9287H62.3866L51.2916 55.1637V71.9287H46.3916V47.4637H51.2916L62.3866 64.2637V47.4637H67.2866V71.9287ZM90.1539 61.8137C90.1539 62.5137 90.1072 63.1437 90.0139 63.7037H75.8389C75.9555 65.1037 76.4455 66.2004 77.3089 66.9937C78.1722 67.787 79.2339 68.1837 80.4939 68.1837C82.3139 68.1837 83.6089 67.402 84.3789 65.8387H89.6639C89.1039 67.7054 88.0305 69.2454 86.4439 70.4587C84.8572 71.6487 82.9089 72.2437 80.5989 72.2437C78.7322 72.2437 77.0522 71.8354 75.5589 71.0187C74.0889 70.1787 72.9339 69.0004 72.0939 67.4837C71.2772 65.967 70.8689 64.217 70.8689 62.2337C70.8689 60.227 71.2772 58.4654 72.0939 56.9487C72.9105 55.432 74.0539 54.2654 75.5239 53.4487C76.9939 52.632 78.6855 52.2237 80.5989 52.2237C82.4422 52.2237 84.0872 52.6204 85.5339 53.4137C87.0039 54.207 88.1355 55.3387 88.9289 56.8087C89.7455 58.2554 90.1539 59.9237 90.1539 61.8137ZM85.0789 60.4137C85.0555 59.1537 84.6005 58.1504 83.7139 57.4037C82.8272 56.6337 81.7422 56.2487 80.4589 56.2487C79.2455 56.2487 78.2189 56.622 77.3789 57.3687C76.5622 58.092 76.0605 59.107 75.8739 60.4137H85.0789ZM111.755 61.8137C111.755 62.5137 111.709 63.1437 111.615 63.7037H97.4404C97.5571 65.1037 98.0471 66.2004 98.9104 66.9937C99.7738 67.787 100.835 68.1837 102.095 68.1837C103.915 68.1837 105.21 67.402 105.98 65.8387H111.265C110.705 67.7054 109.632 69.2454 108.045 70.4587C106.459 71.6487 104.51 72.2437 102.2 72.2437C100.334 72.2437 98.6538 71.8354 97.1604 71.0187C95.6904 70.1787 94.5354 69.0004 93.6954 67.4837C92.8788 65.967 92.4704 64.217 92.4704 62.2337C92.4704 60.227 92.8788 58.4654 93.6954 56.9487C94.5121 55.432 95.6554 54.2654 97.1254 53.4487C98.5954 52.632 100.287 52.2237 102.2 52.2237C104.044 52.2237 105.689 52.6204 107.135 53.4137C108.605 54.207 109.737 55.3387 110.53 56.8087C111.347 58.2554 111.755 59.9237 111.755 61.8137ZM106.68 60.4137C106.657 59.1537 106.202 58.1504 105.315 57.4037C104.429 56.6337 103.344 56.2487 102.06 56.2487C100.847 56.2487 99.8204 56.622 98.9804 57.3687C98.1638 58.092 97.6621 59.107 97.4754 60.4137H106.68ZM114.072 62.1637C114.072 60.2037 114.457 58.4654 115.227 56.9487C116.02 55.432 117.094 54.2654 118.447 53.4487C119.8 52.632 121.305 52.2237 122.962 52.2237C124.222 52.2237 125.424 52.5037 126.567 53.0637C127.71 53.6004 128.62 54.3237 129.297 55.2337V46.0287H134.267V71.9287H129.297V69.0587C128.69 70.0154 127.839 70.7854 126.742 71.3687C125.645 71.952 124.374 72.2437 122.927 72.2437C121.294 72.2437 119.8 71.8237 118.447 70.9837C117.094 70.1437 116.02 68.9654 115.227 67.4487C114.457 65.9087 114.072 64.147 114.072 62.1637ZM129.332 62.2337C129.332 61.0437 129.099 60.0287 128.632 59.1887C128.165 58.3254 127.535 57.672 126.742 57.2287C125.949 56.762 125.097 56.5287 124.187 56.5287C123.277 56.5287 122.437 56.7504 121.667 57.1937C120.897 57.637 120.267 58.2904 119.777 59.1537C119.31 59.9937 119.077 60.997 119.077 62.1637C119.077 63.3304 119.31 64.357 119.777 65.2437C120.267 66.107 120.897 66.772 121.667 67.2387C122.46 67.7054 123.3 67.9387 124.187 67.9387C125.097 67.9387 125.949 67.717 126.742 67.2737C127.535 66.807 128.165 66.1537 128.632 65.3137C129.099 64.4504 129.332 63.4237 129.332 62.2337ZM167.658 47.4987V71.9287H162.758V61.5337H152.293V71.9287H147.393V47.4987H152.293V57.5437H162.758V47.4987H167.658ZM190.505 61.8137C190.505 62.5137 190.459 63.1437 190.365 63.7037H176.19C176.307 65.1037 176.797 66.2004 177.66 66.9937C178.524 67.787 179.585 68.1837 180.845 68.1837C182.665 68.1837 183.96 67.402 184.73 65.8387H190.015C189.455 67.7054 188.382 69.2454 186.795 70.4587C185.209 71.6487 183.26 72.2437 180.95 72.2437C179.084 72.2437 177.404 71.8354 175.91 71.0187C174.44 70.1787 173.285 69.0004 172.445 67.4837C171.629 65.967 171.22 64.217 171.22 62.2337C171.22 60.227 171.629 58.4654 172.445 56.9487C173.262 55.432 174.405 54.2654 175.875 53.4487C177.345 52.632 179.037 52.2237 180.95 52.2237C182.794 52.2237 184.439 52.6204 185.885 53.4137C187.355 54.207 188.487 55.3387 189.28 56.8087C190.097 58.2554 190.505 59.9237 190.505 61.8137ZM185.43 60.4137C185.407 59.1537 184.952 58.1504 184.065 57.4037C183.179 56.6337 182.094 56.2487 180.81 56.2487C179.597 56.2487 178.57 56.622 177.73 57.3687C176.914 58.092 176.412 59.107 176.225 60.4137H185.43ZM198.982 46.0287V71.9287H194.082V46.0287H198.982ZM208.723 55.3387C209.353 54.452 210.217 53.717 211.313 53.1337C212.433 52.527 213.705 52.2237 215.128 52.2237C216.785 52.2237 218.278 52.632 219.608 53.4487C220.962 54.2654 222.023 55.432 222.793 56.9487C223.587 58.442 223.983 60.1804 223.983 62.1637C223.983 64.147 223.587 65.9087 222.793 67.4487C222.023 68.9654 220.962 70.1437 219.608 70.9837C218.278 71.8237 216.785 72.2437 215.128 72.2437C213.705 72.2437 212.445 71.952 211.348 71.3687C210.275 70.7854 209.4 70.0504 208.723 69.1637V81.1687H203.823V52.5387H208.723V55.3387ZM218.978 62.1637C218.978 60.997 218.733 59.9937 218.243 59.1537C217.777 58.2904 217.147 57.637 216.353 57.1937C215.583 56.7504 214.743 56.5287 213.833 56.5287C212.947 56.5287 212.107 56.762 211.313 57.2287C210.543 57.672 209.913 58.3254 209.423 59.1887C208.957 60.052 208.723 61.067 208.723 62.2337C208.723 63.4004 208.957 64.4154 209.423 65.2787C209.913 66.142 210.543 66.807 211.313 67.2737C212.107 67.717 212.947 67.9387 213.833 67.9387C214.743 67.9387 215.583 67.7054 216.353 67.2387C217.147 66.772 217.777 66.107 218.243 65.2437C218.733 64.3804 218.978 63.3537 218.978 62.1637ZM234.369 46.6587C236.796 46.6587 238.744 47.3237 240.214 48.6537C241.707 49.9604 242.454 51.7687 242.454 54.0787C242.454 56.3654 241.719 58.1154 240.249 59.3287C238.779 60.5187 236.831 61.1137 234.404 61.1137L234.264 63.8087H229.959L229.784 57.8587H231.359C233.389 57.8587 234.952 57.5904 236.049 57.0537C237.146 56.517 237.694 55.537 237.694 54.1137C237.694 53.087 237.391 52.2704 236.784 51.6637C236.201 51.057 235.396 50.7537 234.369 50.7537C233.296 50.7537 232.456 51.0454 231.849 51.6287C231.266 52.212 230.974 53.017 230.974 54.0437H226.354C226.331 52.6204 226.634 51.3487 227.264 50.2287C227.894 49.1087 228.816 48.2337 230.029 47.6037C231.266 46.9737 232.712 46.6587 234.369 46.6587ZM232.094 72.1737C231.207 72.1737 230.472 71.9054 229.889 71.3687C229.329 70.8087 229.049 70.1204 229.049 69.3037C229.049 68.487 229.329 67.8104 229.889 67.2737C230.472 66.7137 231.207 66.4337 232.094 66.4337C232.957 66.4337 233.669 66.7137 234.229 67.2737C234.789 67.8104 235.069 68.487 235.069 69.3037C235.069 70.1204 234.789 70.8087 234.229 71.3687C233.669 71.9054 232.957 72.1737 232.094 72.1737Z" fill="black"/>
<path d="M53.0846 106.076V107.408H49.6646V118.622H48.0266V107.408H44.5886V106.076H53.0846ZM59.9968 108.578C60.7408 108.578 61.4128 108.74 62.0128 109.064C62.6128 109.376 63.0808 109.85 63.4168 110.486C63.7648 111.122 63.9388 111.896 63.9388 112.808V118.622H62.3188V113.042C62.3188 112.058 62.0728 111.308 61.5808 110.792C61.0888 110.264 60.4168 110 59.5648 110C58.7008 110 58.0108 110.27 57.4948 110.81C56.9908 111.35 56.7388 112.136 56.7388 113.168V118.622H55.1008V105.302H56.7388V110.162C57.0628 109.658 57.5068 109.268 58.0708 108.992C58.6468 108.716 59.2888 108.578 59.9968 108.578ZM75.6145 113.312C75.6145 113.624 75.5965 113.954 75.5605 114.302H67.6765C67.7365 115.274 68.0665 116.036 68.6665 116.588C69.2785 117.128 70.0165 117.398 70.8805 117.398C71.5885 117.398 72.1765 117.236 72.6445 116.912C73.1245 116.576 73.4605 116.132 73.6525 115.58H75.4165C75.1525 116.528 74.6245 117.302 73.8325 117.902C73.0405 118.49 72.0565 118.784 70.8805 118.784C69.9445 118.784 69.1045 118.574 68.3605 118.154C67.6285 117.734 67.0525 117.14 66.6325 116.372C66.2125 115.592 66.0025 114.692 66.0025 113.672C66.0025 112.652 66.2065 111.758 66.6145 110.99C67.0225 110.222 67.5925 109.634 68.3245 109.226C69.0685 108.806 69.9205 108.596 70.8805 108.596C71.8165 108.596 72.6445 108.8 73.3645 109.208C74.0845 109.616 74.6365 110.18 75.0205 110.9C75.4165 111.608 75.6145 112.412 75.6145 113.312ZM73.9225 112.97C73.9225 112.346 73.7845 111.812 73.5085 111.368C73.2325 110.912 72.8545 110.57 72.3745 110.342C71.9065 110.102 71.3845 109.982 70.8085 109.982C69.9805 109.982 69.2725 110.246 68.6845 110.774C68.1085 111.302 67.7785 112.034 67.6945 112.97H73.9225ZM84.2135 117.29H88.6055V118.622H82.5755V106.076H84.2135V117.29ZM94.647 118.784C93.723 118.784 92.883 118.574 92.127 118.154C91.383 117.734 90.795 117.14 90.363 116.372C89.943 115.592 89.733 114.692 89.733 113.672C89.733 112.664 89.949 111.776 90.381 111.008C90.825 110.228 91.425 109.634 92.181 109.226C92.937 108.806 93.783 108.596 94.719 108.596C95.655 108.596 96.501 108.806 97.257 109.226C98.013 109.634 98.607 110.222 99.039 110.99C99.483 111.758 99.705 112.652 99.705 113.672C99.705 114.692 99.477 115.592 99.021 116.372C98.577 117.14 97.971 117.734 97.203 118.154C96.435 118.574 95.583 118.784 94.647 118.784ZM94.647 117.344C95.235 117.344 95.787 117.206 96.303 116.93C96.819 116.654 97.233 116.24 97.545 115.688C97.869 115.136 98.031 114.464 98.031 113.672C98.031 112.88 97.875 112.208 97.563 111.656C97.251 111.104 96.843 110.696 96.339 110.432C95.835 110.156 95.289 110.018 94.701 110.018C94.101 110.018 93.549 110.156 93.045 110.432C92.553 110.696 92.157 111.104 91.857 111.656C91.557 112.208 91.407 112.88 91.407 113.672C91.407 114.476 91.551 115.154 91.839 115.706C92.139 116.258 92.535 116.672 93.027 116.948C93.519 117.212 94.059 117.344 94.647 117.344ZM101.247 113.672C101.247 112.652 101.451 111.764 101.859 111.008C102.267 110.24 102.831 109.646 103.551 109.226C104.283 108.806 105.117 108.596 106.053 108.596C107.265 108.596 108.261 108.89 109.041 109.478C109.833 110.066 110.355 110.882 110.607 111.926H108.843C108.675 111.326 108.345 110.852 107.853 110.504C107.373 110.156 106.773 109.982 106.053 109.982C105.117 109.982 104.361 110.306 103.785 110.954C103.209 111.59 102.921 112.496 102.921 113.672C102.921 114.86 103.209 115.778 103.785 116.426C104.361 117.074 105.117 117.398 106.053 117.398C106.773 117.398 107.373 117.23 107.853 116.894C108.333 116.558 108.663 116.078 108.843 115.454H110.607C110.343 116.462 109.815 117.272 109.023 117.884C108.231 118.484 107.241 118.784 106.053 118.784C105.117 118.784 104.283 118.574 103.551 118.154C102.831 117.734 102.267 117.14 101.859 116.372C101.451 115.604 101.247 114.704 101.247 113.672ZM112.18 113.654C112.18 112.646 112.384 111.764 112.792 111.008C113.2 110.24 113.758 109.646 114.466 109.226C115.186 108.806 115.984 108.596 116.86 108.596C117.724 108.596 118.474 108.782 119.11 109.154C119.746 109.526 120.22 109.994 120.532 110.558V108.758H122.188V118.622H120.532V116.786C120.208 117.362 119.722 117.842 119.074 118.226C118.438 118.598 117.694 118.784 116.842 118.784C115.966 118.784 115.174 118.568 114.466 118.136C113.758 117.704 113.2 117.098 112.792 116.318C112.384 115.538 112.18 114.65 112.18 113.654ZM120.532 113.672C120.532 112.928 120.382 112.28 120.082 111.728C119.782 111.176 119.374 110.756 118.858 110.468C118.354 110.168 117.796 110.018 117.184 110.018C116.572 110.018 116.014 110.162 115.51 110.45C115.006 110.738 114.604 111.158 114.304 111.71C114.004 112.262 113.854 112.91 113.854 113.654C113.854 114.41 114.004 115.07 114.304 115.634C114.604 116.186 115.006 116.612 115.51 116.912C116.014 117.2 116.572 117.344 117.184 117.344C117.796 117.344 118.354 117.2 118.858 116.912C119.374 116.612 119.782 116.186 120.082 115.634C120.382 115.07 120.532 114.416 120.532 113.672ZM126.594 105.302V118.622H124.956V105.302H126.594ZM130.232 107.156C129.92 107.156 129.656 107.048 129.44 106.832C129.224 106.616 129.116 106.352 129.116 106.04C129.116 105.728 129.224 105.464 129.44 105.248C129.656 105.032 129.92 104.924 130.232 104.924C130.532 104.924 130.784 105.032 130.988 105.248C131.204 105.464 131.312 105.728 131.312 106.04C131.312 106.352 131.204 106.616 130.988 106.832C130.784 107.048 130.532 107.156 130.232 107.156ZM131.024 108.758V118.622H129.386V108.758H131.024ZM137.308 118.784C136.552 118.784 135.874 118.658 135.274 118.406C134.674 118.142 134.2 117.782 133.852 117.326C133.504 116.858 133.312 116.324 133.276 115.724H134.968C135.016 116.216 135.244 116.618 135.652 116.93C136.072 117.242 136.618 117.398 137.29 117.398C137.914 117.398 138.406 117.26 138.766 116.984C139.126 116.708 139.306 116.36 139.306 115.94C139.306 115.508 139.114 115.19 138.73 114.986C138.346 114.77 137.752 114.56 136.948 114.356C136.216 114.164 135.616 113.972 135.148 113.78C134.692 113.576 134.296 113.282 133.96 112.898C133.636 112.502 133.474 111.986 133.474 111.35C133.474 110.846 133.624 110.384 133.924 109.964C134.224 109.544 134.65 109.214 135.202 108.974C135.754 108.722 136.384 108.596 137.092 108.596C138.184 108.596 139.066 108.872 139.738 109.424C140.41 109.976 140.77 110.732 140.818 111.692H139.18C139.144 111.176 138.934 110.762 138.55 110.45C138.178 110.138 137.674 109.982 137.038 109.982C136.45 109.982 135.982 110.108 135.634 110.36C135.286 110.612 135.112 110.942 135.112 111.35C135.112 111.674 135.214 111.944 135.418 112.16C135.634 112.364 135.898 112.532 136.21 112.664C136.534 112.784 136.978 112.922 137.542 113.078C138.25 113.27 138.826 113.462 139.27 113.654C139.714 113.834 140.092 114.11 140.404 114.482C140.728 114.854 140.896 115.34 140.908 115.94C140.908 116.48 140.758 116.966 140.458 117.398C140.158 117.83 139.732 118.172 139.18 118.424C138.64 118.664 138.016 118.784 137.308 118.784ZM145.218 110.108V115.922C145.218 116.402 145.32 116.744 145.524 116.948C145.728 117.14 146.082 117.236 146.586 117.236H147.792V118.622H146.316C145.404 118.622 144.72 118.412 144.264 117.992C143.808 117.572 143.58 116.882 143.58 115.922V110.108H142.302V108.758H143.58V106.274H145.218V108.758H147.792V110.108H145.218ZM153.269 118.784C152.513 118.784 151.835 118.658 151.235 118.406C150.635 118.142 150.161 117.782 149.813 117.326C149.465 116.858 149.273 116.324 149.237 115.724H150.929C150.977 116.216 151.205 116.618 151.613 116.93C152.033 117.242 152.579 117.398 153.251 117.398C153.875 117.398 154.367 117.26 154.727 116.984C155.087 116.708 155.267 116.36 155.267 115.94C155.267 115.508 155.075 115.19 154.691 114.986C154.307 114.77 153.713 114.56 152.909 114.356C152.177 114.164 151.577 113.972 151.109 113.78C150.653 113.576 150.257 113.282 149.921 112.898C149.597 112.502 149.435 111.986 149.435 111.35C149.435 110.846 149.585 110.384 149.885 109.964C150.185 109.544 150.611 109.214 151.163 108.974C151.715 108.722 152.345 108.596 153.053 108.596C154.145 108.596 155.027 108.872 155.699 109.424C156.371 109.976 156.731 110.732 156.779 111.692H155.141C155.105 111.176 154.895 110.762 154.511 110.45C154.139 110.138 153.635 109.982 152.999 109.982C152.411 109.982 151.943 110.108 151.595 110.36C151.247 110.612 151.073 110.942 151.073 111.35C151.073 111.674 151.175 111.944 151.379 112.16C151.595 112.364 151.859 112.532 152.171 112.664C152.495 112.784 152.939 112.922 153.503 113.078C154.211 113.27 154.787 113.462 155.231 113.654C155.675 113.834 156.053 114.11 156.365 114.482C156.689 114.854 156.857 115.34 156.869 115.94C156.869 116.48 156.719 116.966 156.419 117.398C156.119 117.83 155.693 118.172 155.141 118.424C154.601 118.664 153.977 118.784 153.269 118.784ZM159.703 118.73C159.391 118.73 159.127 118.622 158.911 118.406C158.695 118.19 158.587 117.926 158.587 117.614C158.587 117.302 158.695 117.038 158.911 116.822C159.127 116.606 159.391 116.498 159.703 116.498C160.003 116.498 160.255 116.606 160.459 116.822C160.675 117.038 160.783 117.302 160.783 117.614C160.783 117.926 160.675 118.19 160.459 118.406C160.255 118.622 160.003 118.73 159.703 118.73ZM162.348 113.672C162.348 112.652 162.552 111.764 162.96 111.008C163.368 110.24 163.932 109.646 164.652 109.226C165.384 108.806 166.218 108.596 167.154 108.596C168.366 108.596 169.362 108.89 170.142 109.478C170.934 110.066 171.456 110.882 171.708 111.926H169.944C169.776 111.326 169.446 110.852 168.954 110.504C168.474 110.156 167.874 109.982 167.154 109.982C166.218 109.982 165.462 110.306 164.886 110.954C164.31 111.59 164.022 112.496 164.022 113.672C164.022 114.86 164.31 115.778 164.886 116.426C165.462 117.074 166.218 117.398 167.154 117.398C167.874 117.398 168.474 117.23 168.954 116.894C169.434 116.558 169.764 116.078 169.944 115.454H171.708C171.444 116.462 170.916 117.272 170.124 117.884C169.332 118.484 168.342 118.784 167.154 118.784C166.218 118.784 165.384 118.574 164.652 118.154C163.932 117.734 163.368 117.14 162.96 116.372C162.552 115.604 162.348 114.704 162.348 113.672ZM178.196 118.784C177.272 118.784 176.432 118.574 175.676 118.154C174.932 117.734 174.344 117.14 173.912 116.372C173.492 115.592 173.282 114.692 173.282 113.672C173.282 112.664 173.498 111.776 173.93 111.008C174.374 110.228 174.974 109.634 175.73 109.226C176.486 108.806 177.332 108.596 178.268 108.596C179.204 108.596 180.05 108.806 180.806 109.226C181.562 109.634 182.156 110.222 182.588 110.99C183.032 111.758 183.254 112.652 183.254 113.672C183.254 114.692 183.026 115.592 182.57 116.372C182.126 117.14 181.52 117.734 180.752 118.154C179.984 118.574 179.132 118.784 178.196 118.784ZM178.196 117.344C178.784 117.344 179.336 117.206 179.852 116.93C180.368 116.654 180.782 116.24 181.094 115.688C181.418 115.136 181.58 114.464 181.58 113.672C181.58 112.88 181.424 112.208 181.112 111.656C180.8 111.104 180.392 110.696 179.888 110.432C179.384 110.156 178.838 110.018 178.25 110.018C177.65 110.018 177.098 110.156 176.594 110.432C176.102 110.696 175.706 111.104 175.406 111.656C175.106 112.208 174.956 112.88 174.956 113.672C174.956 114.476 175.1 115.154 175.388 115.706C175.688 116.258 176.084 116.672 176.576 116.948C177.068 117.212 177.608 117.344 178.196 117.344ZM197.269 108.578C198.037 108.578 198.721 108.74 199.321 109.064C199.921 109.376 200.395 109.85 200.743 110.486C201.091 111.122 201.265 111.896 201.265 112.808V118.622H199.645V113.042C199.645 112.058 199.399 111.308 198.907 110.792C198.427 110.264 197.773 110 196.945 110C196.093 110 195.415 110.276 194.911 110.828C194.407 111.368 194.155 112.154 194.155 113.186V118.622H192.535V113.042C192.535 112.058 192.289 111.308 191.797 110.792C191.317 110.264 190.663 110 189.835 110C188.983 110 188.305 110.276 187.801 110.828C187.297 111.368 187.045 112.154 187.045 113.186V118.622H185.407V108.758H187.045V110.18C187.369 109.664 187.801 109.268 188.341 108.992C188.893 108.716 189.499 108.578 190.159 108.578C190.987 108.578 191.719 108.764 192.355 109.136C192.991 109.508 193.465 110.054 193.777 110.774C194.053 110.078 194.509 109.538 195.145 109.154C195.781 108.77 196.489 108.578 197.269 108.578ZM212.243 118.784C211.487 118.784 210.809 118.658 210.209 118.406C209.609 118.142 209.135 117.782 208.787 117.326C208.439 116.858 208.247 116.324 208.211 115.724H209.903C209.951 116.216 210.179 116.618 210.587 116.93C211.007 117.242 211.553 117.398 212.225 117.398C212.849 117.398 213.341 117.26 213.701 116.984C214.061 116.708 214.241 116.36 214.241 115.94C214.241 115.508 214.049 115.19 213.665 114.986C213.281 114.77 212.687 114.56 211.883 114.356C211.151 114.164 210.551 113.972 210.083 113.78C209.627 113.576 209.231 113.282 208.895 112.898C208.571 112.502 208.409 111.986 208.409 111.35C208.409 110.846 208.559 110.384 208.859 109.964C209.159 109.544 209.585 109.214 210.137 108.974C210.689 108.722 211.319 108.596 212.027 108.596C213.119 108.596 214.001 108.872 214.673 109.424C215.345 109.976 215.705 110.732 215.753 111.692H214.115C214.079 111.176 213.869 110.762 213.485 110.45C213.113 110.138 212.609 109.982 211.973 109.982C211.385 109.982 210.917 110.108 210.569 110.36C210.221 110.612 210.047 110.942 210.047 111.35C210.047 111.674 210.149 111.944 210.353 112.16C210.569 112.364 210.833 112.532 211.145 112.664C211.469 112.784 211.913 112.922 212.477 113.078C213.185 113.27 213.761 113.462 214.205 113.654C214.649 113.834 215.027 114.11 215.339 114.482C215.663 114.854 215.831 115.34 215.843 115.94C215.843 116.48 215.693 116.966 215.393 117.398C215.093 117.83 214.667 118.172 214.115 118.424C213.575 118.664 212.951 118.784 212.243 118.784ZM226.904 108.758V118.622H225.266V117.164C224.954 117.668 224.516 118.064 223.952 118.352C223.4 118.628 222.788 118.766 222.116 118.766C221.348 118.766 220.658 118.61 220.046 118.298C219.434 117.974 218.948 117.494 218.588 116.858C218.24 116.222 218.066 115.448 218.066 114.536V108.758H219.686V114.32C219.686 115.292 219.932 116.042 220.424 116.57C220.916 117.086 221.588 117.344 222.44 117.344C223.316 117.344 224.006 117.074 224.51 116.534C225.014 115.994 225.266 115.208 225.266 114.176V108.758H226.904ZM231.307 110.576C231.631 110.012 232.111 109.544 232.747 109.172C233.395 108.788 234.145 108.596 234.997 108.596C235.873 108.596 236.665 108.806 237.373 109.226C238.093 109.646 238.657 110.24 239.065 111.008C239.473 111.764 239.677 112.646 239.677 113.654C239.677 114.65 239.473 115.538 239.065 116.318C238.657 117.098 238.093 117.704 237.373 118.136C236.665 118.568 235.873 118.784 234.997 118.784C234.157 118.784 233.413 118.598 232.765 118.226C232.129 117.842 231.643 117.368 231.307 116.804V123.302H229.669V108.758H231.307V110.576ZM238.003 113.654C238.003 112.91 237.853 112.262 237.553 111.71C237.253 111.158 236.845 110.738 236.329 110.45C235.825 110.162 235.267 110.018 234.655 110.018C234.055 110.018 233.497 110.168 232.981 110.468C232.477 110.756 232.069 111.182 231.757 111.746C231.457 112.298 231.307 112.94 231.307 113.672C231.307 114.416 231.457 115.07 231.757 115.634C232.069 116.186 232.477 116.612 232.981 116.912C233.497 117.2 234.055 117.344 234.655 117.344C235.267 117.344 235.825 117.2 236.329 116.912C236.845 116.612 237.253 116.186 237.553 115.634C237.853 115.07 238.003 114.41 238.003 113.654ZM243.471 110.576C243.795 110.012 244.275 109.544 244.911 109.172C245.559 108.788 246.309 108.596 247.161 108.596C248.037 108.596 248.829 108.806 249.537 109.226C250.257 109.646 250.821 110.24 251.229 111.008C251.637 111.764 251.841 112.646 251.841 113.654C251.841 114.65 251.637 115.538 251.229 116.318C250.821 117.098 250.257 117.704 249.537 118.136C248.829 118.568 248.037 118.784 247.161 118.784C246.321 118.784 245.577 118.598 244.929 118.226C244.293 117.842 243.807 117.368 243.471 116.804V123.302H241.833V108.758H243.471V110.576ZM250.167 113.654C250.167 112.91 250.017 112.262 249.717 111.71C249.417 111.158 249.009 110.738 248.493 110.45C247.989 110.162 247.431 110.018 246.819 110.018C246.219 110.018 245.661 110.168 245.145 110.468C244.641 110.756 244.233 111.182 243.921 111.746C243.621 112.298 243.471 112.94 243.471 113.672C243.471 114.416 243.621 115.07 243.921 115.634C244.233 116.186 244.641 116.612 245.145 116.912C245.661 117.2 246.219 117.344 246.819 117.344C247.431 117.344 247.989 117.2 248.493 116.912C249.009 116.612 249.417 116.186 249.717 115.634C250.017 115.07 250.167 114.41 250.167 113.654ZM258.299 118.784C257.375 118.784 256.535 118.574 255.779 118.154C255.035 117.734 254.447 117.14 254.015 116.372C253.595 115.592 253.385 114.692 253.385 113.672C253.385 112.664 253.601 111.776 254.033 111.008C254.477 110.228 255.077 109.634 255.833 109.226C256.589 108.806 257.435 108.596 258.371 108.596C259.307 108.596 260.153 108.806 260.909 109.226C261.665 109.634 262.259 110.222 262.691 110.99C263.135 111.758 263.357 112.652 263.357 113.672C263.357 114.692 263.129 115.592 262.673 116.372C262.229 117.14 261.623 117.734 260.855 118.154C260.087 118.574 259.235 118.784 258.299 118.784ZM258.299 117.344C258.887 117.344 259.439 117.206 259.955 116.93C260.471 116.654 260.885 116.24 261.197 115.688C261.521 115.136 261.683 114.464 261.683 113.672C261.683 112.88 261.527 112.208 261.215 111.656C260.903 111.104 260.495 110.696 259.991 110.432C259.487 110.156 258.941 110.018 258.353 110.018C257.753 110.018 257.201 110.156 256.697 110.432C256.205 110.696 255.809 111.104 255.509 111.656C255.209 112.208 255.059 112.88 255.059 113.672C255.059 114.476 255.203 115.154 255.491 115.706C255.791 116.258 256.187 116.672 256.679 116.948C257.171 117.212 257.711 117.344 258.299 117.344ZM267.149 110.36C267.437 109.796 267.845 109.358 268.373 109.046C268.913 108.734 269.567 108.578 270.335 108.578V110.27H269.903C268.067 110.27 267.149 111.266 267.149 113.258V118.622H265.511V108.758H267.149V110.36ZM274.224 110.108V115.922C274.224 116.402 274.326 116.744 274.53 116.948C274.734 117.14 275.088 117.236 275.592 117.236H276.798V118.622H275.322C274.41 118.622 273.726 118.412 273.27 117.992C272.814 117.572 272.586 116.882 272.586 115.922V110.108H271.308V108.758H272.586V106.274H274.224V108.758H276.798V110.108H274.224ZM47.3606 140.108V145.922C47.3606 146.402 47.4626 146.744 47.6666 146.948C47.8706 147.14 48.2246 147.236 48.7286 147.236H49.9346V148.622H48.4586C47.5466 148.622 46.8626 148.412 46.4066 147.992C45.9506 147.572 45.7226 146.882 45.7226 145.922V140.108H44.4446V138.758H45.7226V136.274H47.3606V138.758H49.9346V140.108H47.3606ZM60.9192 143.312C60.9192 143.624 60.9012 143.954 60.8652 144.302H52.9812C53.0412 145.274 53.3712 146.036 53.9712 146.588C54.5832 147.128 55.3212 147.398 56.1852 147.398C56.8932 147.398 57.4812 147.236 57.9492 146.912C58.4292 146.576 58.7652 146.132 58.9572 145.58H60.7212C60.4572 146.528 59.9292 147.302 59.1372 147.902C58.3452 148.49 57.3612 148.784 56.1852 148.784C55.2492 148.784 54.4092 148.574 53.6652 148.154C52.9332 147.734 52.3572 147.14 51.9372 146.372C51.5172 145.592 51.3072 144.692 51.3072 143.672C51.3072 142.652 51.5112 141.758 51.9192 140.99C52.3272 140.222 52.8972 139.634 53.6292 139.226C54.3732 138.806 55.2252 138.596 56.1852 138.596C57.1212 138.596 57.9492 138.8 58.6692 139.208C59.3892 139.616 59.9412 140.18 60.3252 140.9C60.7212 141.608 60.9192 142.412 60.9192 143.312ZM59.2272 142.97C59.2272 142.346 59.0892 141.812 58.8132 141.368C58.5372 140.912 58.1592 140.57 57.6792 140.342C57.2112 140.102 56.6892 139.982 56.1132 139.982C55.2852 139.982 54.5772 140.246 53.9892 140.774C53.4132 141.302 53.0832 142.034 52.9992 142.97H59.2272ZM62.4693 143.654C62.4693 142.646 62.6733 141.764 63.0813 141.008C63.4893 140.24 64.0473 139.646 64.7553 139.226C65.4753 138.806 66.2733 138.596 67.1493 138.596C68.0133 138.596 68.7633 138.782 69.3993 139.154C70.0353 139.526 70.5093 139.994 70.8213 140.558V138.758H72.4773V148.622H70.8213V146.786C70.4973 147.362 70.0113 147.842 69.3633 148.226C68.7273 148.598 67.9833 148.784 67.1313 148.784C66.2553 148.784 65.4633 148.568 64.7553 148.136C64.0473 147.704 63.4893 147.098 63.0813 146.318C62.6733 145.538 62.4693 144.65 62.4693 143.654ZM70.8213 143.672C70.8213 142.928 70.6713 142.28 70.3713 141.728C70.0713 141.176 69.6633 140.756 69.1473 140.468C68.6433 140.168 68.0853 140.018 67.4733 140.018C66.8613 140.018 66.3033 140.162 65.7993 140.45C65.2953 140.738 64.8933 141.158 64.5933 141.71C64.2933 142.262 64.1433 142.91 64.1433 143.654C64.1433 144.41 64.2933 145.07 64.5933 145.634C64.8933 146.186 65.2953 146.612 65.7993 146.912C66.3033 147.2 66.8613 147.344 67.4733 147.344C68.0853 147.344 68.6433 147.2 69.1473 146.912C69.6633 146.612 70.0713 146.186 70.3713 145.634C70.6713 145.07 70.8213 144.416 70.8213 143.672ZM87.1074 138.578C87.8754 138.578 88.5594 138.74 89.1594 139.064C89.7594 139.376 90.2334 139.85 90.5814 140.486C90.9294 141.122 91.1034 141.896 91.1034 142.808V148.622H89.4834V143.042C89.4834 142.058 89.2374 141.308 88.7454 140.792C88.2654 140.264 87.6114 140 86.7834 140C85.9314 140 85.2534 140.276 84.7494 140.828C84.2454 141.368 83.9934 142.154 83.9934 143.186V148.622H82.3734V143.042C82.3734 142.058 82.1274 141.308 81.6354 140.792C81.1554 140.264 80.5014 140 79.6734 140C78.8214 140 78.1434 140.276 77.6394 140.828C77.1354 141.368 76.8834 142.154 76.8834 143.186V148.622H75.2454V138.758H76.8834V140.18C77.2074 139.664 77.6394 139.268 78.1794 138.992C78.7314 138.716 79.3374 138.578 79.9974 138.578C80.8254 138.578 81.5574 138.764 82.1934 139.136C82.8294 139.508 83.3034 140.054 83.6154 140.774C83.8914 140.078 84.3474 139.538 84.9834 139.154C85.6194 138.77 86.3274 138.578 87.1074 138.578ZM99.4351 137.156C99.1231 137.156 98.8591 137.048 98.6431 136.832C98.4271 136.616 98.3191 136.352 98.3191 136.04C98.3191 135.728 98.4271 135.464 98.6431 135.248C98.8591 135.032 99.1231 134.924 99.4351 134.924C99.7351 134.924 99.9871 135.032 100.191 135.248C100.407 135.464 100.515 135.728 100.515 136.04C100.515 136.352 100.407 136.616 100.191 136.832C99.9871 137.048 99.7351 137.156 99.4351 137.156ZM100.227 138.758V148.622H98.5891V138.758H100.227ZM106.511 148.784C105.755 148.784 105.077 148.658 104.477 148.406C103.877 148.142 103.403 147.782 103.055 147.326C102.707 146.858 102.515 146.324 102.479 145.724H104.171C104.219 146.216 104.447 146.618 104.855 146.93C105.275 147.242 105.821 147.398 106.493 147.398C107.117 147.398 107.609 147.26 107.969 146.984C108.329 146.708 108.509 146.36 108.509 145.94C108.509 145.508 108.317 145.19 107.933 144.986C107.549 144.77 106.955 144.56 106.151 144.356C105.419 144.164 104.819 143.972 104.351 143.78C103.895 143.576 103.499 143.282 103.163 142.898C102.839 142.502 102.677 141.986 102.677 141.35C102.677 140.846 102.827 140.384 103.127 139.964C103.427 139.544 103.853 139.214 104.405 138.974C104.957 138.722 105.587 138.596 106.295 138.596C107.387 138.596 108.269 138.872 108.941 139.424C109.613 139.976 109.973 140.732 110.021 141.692H108.383C108.347 141.176 108.137 140.762 107.753 140.45C107.381 140.138 106.877 139.982 106.241 139.982C105.653 139.982 105.185 140.108 104.837 140.36C104.489 140.612 104.315 140.942 104.315 141.35C104.315 141.674 104.417 141.944 104.621 142.16C104.837 142.364 105.101 142.532 105.413 142.664C105.737 142.784 106.181 142.922 106.745 143.078C107.453 143.27 108.029 143.462 108.473 143.654C108.917 143.834 109.295 144.11 109.607 144.482C109.931 144.854 110.099 145.34 110.111 145.94C110.111 146.48 109.961 146.966 109.661 147.398C109.361 147.83 108.935 148.172 108.383 148.424C107.843 148.664 107.219 148.784 106.511 148.784ZM122.118 138.578C122.862 138.578 123.534 138.74 124.134 139.064C124.734 139.376 125.202 139.85 125.538 140.486C125.886 141.122 126.06 141.896 126.06 142.808V148.622H124.44V143.042C124.44 142.058 124.194 141.308 123.702 140.792C123.21 140.264 122.538 140 121.686 140C120.822 140 120.132 140.27 119.616 140.81C119.112 141.35 118.86 142.136 118.86 143.168V148.622H117.222V135.302H118.86V140.162C119.184 139.658 119.628 139.268 120.192 138.992C120.768 138.716 121.41 138.578 122.118 138.578ZM137.736 143.312C137.736 143.624 137.718 143.954 137.682 144.302H129.798C129.858 145.274 130.188 146.036 130.788 146.588C131.4 147.128 132.138 147.398 133.002 147.398C133.71 147.398 134.298 147.236 134.766 146.912C135.246 146.576 135.582 146.132 135.774 145.58H137.538C137.274 146.528 136.746 147.302 135.954 147.902C135.162 148.49 134.178 148.784 133.002 148.784C132.066 148.784 131.226 148.574 130.482 148.154C129.75 147.734 129.174 147.14 128.754 146.372C128.334 145.592 128.124 144.692 128.124 143.672C128.124 142.652 128.328 141.758 128.736 140.99C129.144 140.222 129.714 139.634 130.446 139.226C131.19 138.806 132.042 138.596 133.002 138.596C133.938 138.596 134.766 138.8 135.486 139.208C136.206 139.616 136.758 140.18 137.142 140.9C137.538 141.608 137.736 142.412 137.736 143.312ZM136.044 142.97C136.044 142.346 135.906 141.812 135.63 141.368C135.354 140.912 134.976 140.57 134.496 140.342C134.028 140.102 133.506 139.982 132.93 139.982C132.102 139.982 131.394 140.246 130.806 140.774C130.23 141.302 129.9 142.034 129.816 142.97H136.044ZM141.536 140.36C141.824 139.796 142.232 139.358 142.76 139.046C143.3 138.734 143.954 138.578 144.722 138.578V140.27H144.29C142.454 140.27 141.536 141.266 141.536 143.258V148.622H139.898V138.758H141.536V140.36ZM155.613 143.312C155.613 143.624 155.595 143.954 155.559 144.302H147.675C147.735 145.274 148.065 146.036 148.665 146.588C149.277 147.128 150.015 147.398 150.879 147.398C151.587 147.398 152.175 147.236 152.643 146.912C153.123 146.576 153.459 146.132 153.651 145.58H155.415C155.151 146.528 154.623 147.302 153.831 147.902C153.039 148.49 152.055 148.784 150.879 148.784C149.943 148.784 149.103 148.574 148.359 148.154C147.627 147.734 147.051 147.14 146.631 146.372C146.211 145.592 146.001 144.692 146.001 143.672C146.001 142.652 146.205 141.758 146.613 140.99C147.021 140.222 147.591 139.634 148.323 139.226C149.067 138.806 149.919 138.596 150.879 138.596C151.815 138.596 152.643 138.8 153.363 139.208C154.083 139.616 154.635 140.18 155.019 140.9C155.415 141.608 155.613 142.412 155.613 143.312ZM153.921 142.97C153.921 142.346 153.783 141.812 153.507 141.368C153.231 140.912 152.853 140.57 152.373 140.342C151.905 140.102 151.383 139.982 150.807 139.982C149.979 139.982 149.271 140.246 148.683 140.774C148.107 141.302 147.777 142.034 147.693 142.97H153.921ZM162.106 147.308C163.63 146.084 164.824 145.082 165.688 144.302C166.552 143.51 167.278 142.688 167.866 141.836C168.466 140.972 168.766 140.126 168.766 139.298C168.766 138.518 168.574 137.906 168.19 137.462C167.818 137.006 167.212 136.778 166.372 136.778C165.556 136.778 164.92 137.036 164.464 137.552C164.02 138.056 163.78 138.734 163.744 139.586H162.16C162.208 138.242 162.616 137.204 163.384 136.472C164.152 135.74 165.142 135.374 166.354 135.374C167.59 135.374 168.568 135.716 169.288 136.4C170.02 137.084 170.386 138.026 170.386 139.226C170.386 140.222 170.086 141.194 169.486 142.142C168.898 143.078 168.226 143.906 167.47 144.626C166.714 145.334 165.748 146.162 164.572 147.11H170.764V148.478H162.106V147.308ZM172.261 145.724V144.482L178.579 135.734H180.541V144.302H182.341V145.724H180.541V148.622H178.921V145.724H172.261ZM178.993 137.444L174.151 144.302H178.993V137.444ZM190.367 131.666L185.435 151.682H183.815L188.729 131.666H190.367ZM200.548 136.886L195.544 148.622H193.888L198.964 137.048H192.016V135.644H200.548V136.886ZM209.431 140.108V145.922C209.431 146.402 209.533 146.744 209.737 146.948C209.941 147.14 210.295 147.236 210.799 147.236H212.005V148.622H210.529C209.617 148.622 208.933 148.412 208.477 147.992C208.021 147.572 207.793 146.882 207.793 145.922V140.108H206.515V138.758H207.793V136.274H209.431V138.758H212.005V140.108H209.431ZM218.292 148.784C217.368 148.784 216.528 148.574 215.772 148.154C215.028 147.734 214.44 147.14 214.008 146.372C213.588 145.592 213.378 144.692 213.378 143.672C213.378 142.664 213.594 141.776 214.026 141.008C214.47 140.228 215.07 139.634 215.826 139.226C216.582 138.806 217.428 138.596 218.364 138.596C219.3 138.596 220.146 138.806 220.902 139.226C221.658 139.634 222.252 140.222 222.684 140.99C223.128 141.758 223.35 142.652 223.35 143.672C223.35 144.692 223.122 145.592 222.666 146.372C222.222 147.14 221.616 147.734 220.848 148.154C220.08 148.574 219.228 148.784 218.292 148.784ZM218.292 147.344C218.88 147.344 219.432 147.206 219.948 146.93C220.464 146.654 220.878 146.24 221.19 145.688C221.514 145.136 221.676 144.464 221.676 143.672C221.676 142.88 221.52 142.208 221.208 141.656C220.896 141.104 220.488 140.696 219.984 140.432C219.48 140.156 218.934 140.018 218.346 140.018C217.746 140.018 217.194 140.156 216.69 140.432C216.198 140.696 215.802 141.104 215.502 141.656C215.202 142.208 215.052 142.88 215.052 143.672C215.052 144.476 215.196 145.154 215.484 145.706C215.784 146.258 216.18 146.672 216.672 146.948C217.164 147.212 217.704 147.344 218.292 147.344ZM234.37 138.596C235.222 138.596 235.966 138.782 236.602 139.154C237.25 139.526 237.73 139.994 238.042 140.558V138.758H239.698V148.838C239.698 149.738 239.506 150.536 239.122 151.232C238.738 151.94 238.186 152.492 237.466 152.888C236.758 153.284 235.93 153.482 234.982 153.482C233.686 153.482 232.606 153.176 231.742 152.564C230.878 151.952 230.368 151.118 230.212 150.062H231.832C232.012 150.662 232.384 151.142 232.948 151.502C233.512 151.874 234.19 152.06 234.982 152.06C235.882 152.06 236.614 151.778 237.178 151.214C237.754 150.65 238.042 149.858 238.042 148.838V146.768C237.718 147.344 237.238 147.824 236.602 148.208C235.966 148.592 235.222 148.784 234.37 148.784C233.494 148.784 232.696 148.568 231.976 148.136C231.268 147.704 230.71 147.098 230.302 146.318C229.894 145.538 229.69 144.65 229.69 143.654C229.69 142.646 229.894 141.764 230.302 141.008C230.71 140.24 231.268 139.646 231.976 139.226C232.696 138.806 233.494 138.596 234.37 138.596ZM238.042 143.672C238.042 142.928 237.892 142.28 237.592 141.728C237.292 141.176 236.884 140.756 236.368 140.468C235.864 140.168 235.306 140.018 234.694 140.018C234.082 140.018 233.524 140.162 233.02 140.45C232.516 140.738 232.114 141.158 231.814 141.71C231.514 142.262 231.364 142.91 231.364 143.654C231.364 144.41 231.514 145.07 231.814 145.634C232.114 146.186 232.516 146.612 233.02 146.912C233.524 147.2 234.082 147.344 234.694 147.344C235.306 147.344 235.864 147.2 236.368 146.912C236.884 146.612 237.292 146.186 237.592 145.634C237.892 145.07 238.042 144.416 238.042 143.672ZM251.214 138.758V148.622H249.576V147.164C249.264 147.668 248.826 148.064 248.262 148.352C247.71 148.628 247.098 148.766 246.426 148.766C245.658 148.766 244.968 148.61 244.356 148.298C243.744 147.974 243.258 147.494 242.898 146.858C242.55 146.222 242.376 145.448 242.376 144.536V138.758H243.996V144.32C243.996 145.292 244.242 146.042 244.734 146.57C245.226 147.086 245.898 147.344 246.75 147.344C247.626 147.344 248.316 147.074 248.82 146.534C249.324 145.994 249.576 145.208 249.576 144.176V138.758H251.214ZM254.826 137.156C254.514 137.156 254.25 137.048 254.034 136.832C253.818 136.616 253.71 136.352 253.71 136.04C253.71 135.728 253.818 135.464 254.034 135.248C254.25 135.032 254.514 134.924 254.826 134.924C255.126 134.924 255.378 135.032 255.582 135.248C255.798 135.464 255.906 135.728 255.906 136.04C255.906 136.352 255.798 136.616 255.582 136.832C255.378 137.048 255.126 137.156 254.826 137.156ZM255.618 138.758V148.622H253.98V138.758H255.618ZM257.797 143.654C257.797 142.646 258.001 141.764 258.409 141.008C258.817 140.24 259.375 139.646 260.083 139.226C260.803 138.806 261.607 138.596 262.495 138.596C263.263 138.596 263.977 138.776 264.637 139.136C265.297 139.484 265.801 139.946 266.149 140.522V135.302H267.805V148.622H266.149V146.768C265.825 147.356 265.345 147.842 264.709 148.226C264.073 148.598 263.329 148.784 262.477 148.784C261.601 148.784 260.803 148.568 260.083 148.136C259.375 147.704 258.817 147.098 258.409 146.318C258.001 145.538 257.797 144.65 257.797 143.654ZM266.149 143.672C266.149 142.928 265.999 142.28 265.699 141.728C265.399 141.176 264.991 140.756 264.475 140.468C263.971 140.168 263.413 140.018 262.801 140.018C262.189 140.018 261.631 140.162 261.127 140.45C260.623 140.738 260.221 141.158 259.921 141.71C259.621 142.262 259.471 142.91 259.471 143.654C259.471 144.41 259.621 145.07 259.921 145.634C260.221 146.186 260.623 146.612 261.127 146.912C261.631 147.2 262.189 147.344 262.801 147.344C263.413 147.344 263.971 147.2 264.475 146.912C264.991 146.612 265.399 146.186 265.699 145.634C265.999 145.07 266.149 144.416 266.149 143.672ZM279.574 143.312C279.574 143.624 279.556 143.954 279.52 144.302H271.636C271.696 145.274 272.026 146.036 272.626 146.588C273.238 147.128 273.976 147.398 274.84 147.398C275.548 147.398 276.136 147.236 276.604 146.912C277.084 146.576 277.42 146.132 277.612 145.58H279.376C279.112 146.528 278.584 147.302 277.792 147.902C277 148.49 276.016 148.784 274.84 148.784C273.904 148.784 273.064 148.574 272.32 148.154C271.588 147.734 271.012 147.14 270.592 146.372C270.172 145.592 269.962 144.692 269.962 143.672C269.962 142.652 270.166 141.758 270.574 140.99C270.982 140.222 271.552 139.634 272.284 139.226C273.028 138.806 273.88 138.596 274.84 138.596C275.776 138.596 276.604 138.8 277.324 139.208C278.044 139.616 278.596 140.18 278.98 140.9C279.376 141.608 279.574 142.412 279.574 143.312ZM277.882 142.97C277.882 142.346 277.744 141.812 277.468 141.368C277.192 140.912 276.814 140.57 276.334 140.342C275.866 140.102 275.344 139.982 274.768 139.982C273.94 139.982 273.232 140.246 272.644 140.774C272.068 141.302 271.738 142.034 271.654 142.97H277.882ZM53.8586 168.758L47.9186 183.266H46.2266L48.1706 178.514L44.1926 168.758H46.0106L49.1066 176.75L52.1666 168.758H53.8586ZM59.8071 178.784C58.8831 178.784 58.0431 178.574 57.2871 178.154C56.5431 177.734 55.9551 177.14 55.5231 176.372C55.1031 175.592 54.8931 174.692 54.8931 173.672C54.8931 172.664 55.1091 171.776 55.5411 171.008C55.9851 170.228 56.5851 169.634 57.3411 169.226C58.0971 168.806 58.9431 168.596 59.8791 168.596C60.8151 168.596 61.6611 168.806 62.4171 169.226C63.1731 169.634 63.7671 170.222 64.1991 170.99C64.6431 171.758 64.8651 172.652 64.8651 173.672C64.8651 174.692 64.6371 175.592 64.1811 176.372C63.7371 177.14 63.1311 177.734 62.3631 178.154C61.5951 178.574 60.7431 178.784 59.8071 178.784ZM59.8071 177.344C60.3951 177.344 60.9471 177.206 61.4631 176.93C61.9791 176.654 62.3931 176.24 62.7051 175.688C63.0291 175.136 63.1911 174.464 63.1911 173.672C63.1911 172.88 63.0351 172.208 62.7231 171.656C62.4111 171.104 62.0031 170.696 61.4991 170.432C60.9951 170.156 60.4491 170.018 59.8611 170.018C59.2611 170.018 58.7091 170.156 58.2051 170.432C57.7131 170.696 57.3171 171.104 57.0171 171.656C56.7171 172.208 56.5671 172.88 56.5671 173.672C56.5671 174.476 56.7111 175.154 56.9991 175.706C57.2991 176.258 57.6951 176.672 58.1871 176.948C58.6791 177.212 59.2191 177.344 59.8071 177.344ZM75.7668 168.758V178.622H74.1288V177.164C73.8168 177.668 73.3788 178.064 72.8148 178.352C72.2628 178.628 71.6508 178.766 70.9788 178.766C70.2108 178.766 69.5208 178.61 68.9088 178.298C68.2968 177.974 67.8108 177.494 67.4508 176.858C67.1028 176.222 66.9288 175.448 66.9288 174.536V168.758H68.5488V174.32C68.5488 175.292 68.7948 176.042 69.2868 176.57C69.7788 177.086 70.4508 177.344 71.3028 177.344C72.1788 177.344 72.8688 177.074 73.3728 176.534C73.8768 175.994 74.1288 175.208 74.1288 174.176V168.758H75.7668ZM92.3313 173.312C92.3313 173.624 92.3133 173.954 92.2773 174.302H84.3933C84.4533 175.274 84.7833 176.036 85.3833 176.588C85.9953 177.128 86.7333 177.398 87.5973 177.398C88.3053 177.398 88.8933 177.236 89.3613 176.912C89.8413 176.576 90.1773 176.132 90.3693 175.58H92.1333C91.8693 176.528 91.3413 177.302 90.5493 177.902C89.7573 178.49 88.7733 178.784 87.5973 178.784C86.6613 178.784 85.8213 178.574 85.0773 178.154C84.3453 177.734 83.7693 177.14 83.3493 176.372C82.9293 175.592 82.7193 174.692 82.7193 173.672C82.7193 172.652 82.9233 171.758 83.3313 170.99C83.7393 170.222 84.3093 169.634 85.0413 169.226C85.7853 168.806 86.6373 168.596 87.5973 168.596C88.5333 168.596 89.3613 168.8 90.0813 169.208C90.8013 169.616 91.3533 170.18 91.7373 170.9C92.1333 171.608 92.3313 172.412 92.3313 173.312ZM90.6393 172.97C90.6393 172.346 90.5013 171.812 90.2253 171.368C89.9493 170.912 89.5713 170.57 89.0913 170.342C88.6233 170.102 88.1013 169.982 87.5253 169.982C86.6973 169.982 85.9893 170.246 85.4013 170.774C84.8253 171.302 84.4953 172.034 84.4113 172.97H90.6393ZM98.1654 177.11L101.225 168.758H102.971L99.1014 178.622H97.1934L93.3234 168.758H95.0874L98.1654 177.11ZM113.583 173.312C113.583 173.624 113.565 173.954 113.529 174.302H105.645C105.705 175.274 106.035 176.036 106.635 176.588C107.247 177.128 107.985 177.398 108.849 177.398C109.557 177.398 110.145 177.236 110.613 176.912C111.093 176.576 111.429 176.132 111.621 175.58H113.385C113.121 176.528 112.593 177.302 111.801 177.902C111.009 178.49 110.025 178.784 108.849 178.784C107.913 178.784 107.073 178.574 106.329 178.154C105.597 177.734 105.021 177.14 104.601 176.372C104.181 175.592 103.971 174.692 103.971 173.672C103.971 172.652 104.175 171.758 104.583 170.99C104.991 170.222 105.561 169.634 106.293 169.226C107.037 168.806 107.889 168.596 108.849 168.596C109.785 168.596 110.613 168.8 111.333 169.208C112.053 169.616 112.605 170.18 112.989 170.9C113.385 171.608 113.583 172.412 113.583 173.312ZM111.891 172.97C111.891 172.346 111.753 171.812 111.477 171.368C111.201 170.912 110.823 170.57 110.343 170.342C109.875 170.102 109.353 169.982 108.777 169.982C107.949 169.982 107.241 170.246 106.653 170.774C106.077 171.302 105.747 172.034 105.663 172.97H111.891ZM117.383 170.36C117.671 169.796 118.079 169.358 118.607 169.046C119.147 168.734 119.801 168.578 120.569 168.578V170.27H120.137C118.301 170.27 117.383 171.266 117.383 173.258V178.622H115.745V168.758H117.383V170.36ZM130.956 168.758L125.016 183.266H123.324L125.268 178.514L121.29 168.758H123.108L126.204 176.75L129.264 168.758H130.956ZM140.894 178.784C140.138 178.784 139.46 178.658 138.86 178.406C138.26 178.142 137.786 177.782 137.438 177.326C137.09 176.858 136.898 176.324 136.862 175.724H138.554C138.602 176.216 138.83 176.618 139.238 176.93C139.658 177.242 140.204 177.398 140.876 177.398C141.5 177.398 141.992 177.26 142.352 176.984C142.712 176.708 142.892 176.36 142.892 175.94C142.892 175.508 142.7 175.19 142.316 174.986C141.932 174.77 141.338 174.56 140.534 174.356C139.802 174.164 139.202 173.972 138.734 173.78C138.278 173.576 137.882 173.282 137.546 172.898C137.222 172.502 137.06 171.986 137.06 171.35C137.06 170.846 137.21 170.384 137.51 169.964C137.81 169.544 138.236 169.214 138.788 168.974C139.34 168.722 139.97 168.596 140.678 168.596C141.77 168.596 142.652 168.872 143.324 169.424C143.996 169.976 144.356 170.732 144.404 171.692H142.766C142.73 171.176 142.52 170.762 142.136 170.45C141.764 170.138 141.26 169.982 140.624 169.982C140.036 169.982 139.568 170.108 139.22 170.36C138.872 170.612 138.698 170.942 138.698 171.35C138.698 171.674 138.8 171.944 139.004 172.16C139.22 172.364 139.484 172.532 139.796 172.664C140.12 172.784 140.564 172.922 141.128 173.078C141.836 173.27 142.412 173.462 142.856 173.654C143.3 173.834 143.678 174.11 143.99 174.482C144.314 174.854 144.482 175.34 144.494 175.94C144.494 176.48 144.344 176.966 144.044 177.398C143.744 177.83 143.318 178.172 142.766 178.424C142.226 178.664 141.602 178.784 140.894 178.784ZM148.804 170.108V175.922C148.804 176.402 148.906 176.744 149.11 176.948C149.314 177.14 149.668 177.236 150.172 177.236H151.378V178.622H149.902C148.99 178.622 148.306 178.412 147.85 177.992C147.394 177.572 147.166 176.882 147.166 175.922V170.108H145.888V168.758H147.166V166.274H148.804V168.758H151.378V170.108H148.804ZM162.363 173.312C162.363 173.624 162.345 173.954 162.309 174.302H154.425C154.485 175.274 154.815 176.036 155.415 176.588C156.027 177.128 156.765 177.398 157.629 177.398C158.337 177.398 158.925 177.236 159.393 176.912C159.873 176.576 160.209 176.132 160.401 175.58H162.165C161.901 176.528 161.373 177.302 160.581 177.902C159.789 178.49 158.805 178.784 157.629 178.784C156.693 178.784 155.853 178.574 155.109 178.154C154.377 177.734 153.801 177.14 153.381 176.372C152.961 175.592 152.751 174.692 152.751 173.672C152.751 172.652 152.955 171.758 153.363 170.99C153.771 170.222 154.341 169.634 155.073 169.226C155.817 168.806 156.669 168.596 157.629 168.596C158.565 168.596 159.393 168.8 160.113 169.208C160.833 169.616 161.385 170.18 161.769 170.9C162.165 171.608 162.363 172.412 162.363 173.312ZM160.671 172.97C160.671 172.346 160.533 171.812 160.257 171.368C159.981 170.912 159.603 170.57 159.123 170.342C158.655 170.102 158.133 169.982 157.557 169.982C156.729 169.982 156.021 170.246 155.433 170.774C154.857 171.302 154.527 172.034 154.443 172.97H160.671ZM166.163 170.576C166.487 170.012 166.967 169.544 167.603 169.172C168.251 168.788 169.001 168.596 169.853 168.596C170.729 168.596 171.521 168.806 172.229 169.226C172.949 169.646 173.513 170.24 173.921 171.008C174.329 171.764 174.533 172.646 174.533 173.654C174.533 174.65 174.329 175.538 173.921 176.318C173.513 177.098 172.949 177.704 172.229 178.136C171.521 178.568 170.729 178.784 169.853 178.784C169.013 178.784 168.269 178.598 167.621 178.226C166.985 177.842 166.499 177.368 166.163 176.804V183.302H164.525V168.758H166.163V170.576ZM172.859 173.654C172.859 172.91 172.709 172.262 172.409 171.71C172.109 171.158 171.701 170.738 171.185 170.45C170.681 170.162 170.123 170.018 169.511 170.018C168.911 170.018 168.353 170.168 167.837 170.468C167.333 170.756 166.925 171.182 166.613 171.746C166.313 172.298 166.163 172.94 166.163 173.672C166.163 174.416 166.313 175.07 166.613 175.634C166.925 176.186 167.333 176.612 167.837 176.912C168.353 177.2 168.911 177.344 169.511 177.344C170.123 177.344 170.681 177.2 171.185 176.912C171.701 176.612 172.109 176.186 172.409 175.634C172.709 175.07 172.859 174.41 172.859 173.654ZM185.79 178.784C184.866 178.784 184.026 178.574 183.27 178.154C182.526 177.734 181.938 177.14 181.506 176.372C181.086 175.592 180.876 174.692 180.876 173.672C180.876 172.664 181.092 171.776 181.524 171.008C181.968 170.228 182.568 169.634 183.324 169.226C184.08 168.806 184.926 168.596 185.862 168.596C186.798 168.596 187.644 168.806 188.4 169.226C189.156 169.634 189.75 170.222 190.182 170.99C190.626 171.758 190.848 172.652 190.848 173.672C190.848 174.692 190.62 175.592 190.164 176.372C189.72 177.14 189.114 177.734 188.346 178.154C187.578 178.574 186.726 178.784 185.79 178.784ZM185.79 177.344C186.378 177.344 186.93 177.206 187.446 176.93C187.962 176.654 188.376 176.24 188.688 175.688C189.012 175.136 189.174 174.464 189.174 173.672C189.174 172.88 189.018 172.208 188.706 171.656C188.394 171.104 187.986 170.696 187.482 170.432C186.978 170.156 186.432 170.018 185.844 170.018C185.244 170.018 184.692 170.156 184.188 170.432C183.696 170.696 183.3 171.104 183 171.656C182.7 172.208 182.55 172.88 182.55 173.672C182.55 174.476 182.694 175.154 182.982 175.706C183.282 176.258 183.678 176.672 184.17 176.948C184.662 177.212 185.202 177.344 185.79 177.344ZM197.015 170.108H194.945V178.622H193.307V170.108H192.029V168.758H193.307V168.056C193.307 166.952 193.589 166.148 194.153 165.644C194.729 165.128 195.647 164.87 196.907 164.87V166.238C196.187 166.238 195.677 166.382 195.377 166.67C195.089 166.946 194.945 167.408 194.945 168.056V168.758H197.015V170.108ZM205.722 170.108V175.922C205.722 176.402 205.824 176.744 206.028 176.948C206.232 177.14 206.586 177.236 207.09 177.236H208.296V178.622H206.82C205.908 178.622 205.224 178.412 204.768 177.992C204.312 177.572 204.084 176.882 204.084 175.922V170.108H202.806V168.758H204.084V166.274H205.722V168.758H208.296V170.108H205.722ZM215.177 168.578C215.921 168.578 216.593 168.74 217.193 169.064C217.793 169.376 218.261 169.85 218.597 170.486C218.945 171.122 219.119 171.896 219.119 172.808V178.622H217.499V173.042C217.499 172.058 217.253 171.308 216.761 170.792C216.269 170.264 215.597 170 214.745 170C213.881 170 213.191 170.27 212.675 170.81C212.171 171.35 211.919 172.136 211.919 173.168V178.622H210.281V165.302H211.919V170.162C212.243 169.658 212.687 169.268 213.251 168.992C213.827 168.716 214.469 168.578 215.177 168.578ZM230.794 173.312C230.794 173.624 230.776 173.954 230.74 174.302H222.856C222.916 175.274 223.246 176.036 223.846 176.588C224.458 177.128 225.196 177.398 226.06 177.398C226.768 177.398 227.356 177.236 227.824 176.912C228.304 176.576 228.64 176.132 228.832 175.58H230.596C230.332 176.528 229.804 177.302 229.012 177.902C228.22 178.49 227.236 178.784 226.06 178.784C225.124 178.784 224.284 178.574 223.54 178.154C222.808 177.734 222.232 177.14 221.812 176.372C221.392 175.592 221.182 174.692 221.182 173.672C221.182 172.652 221.386 171.758 221.794 170.99C222.202 170.222 222.772 169.634 223.504 169.226C224.248 168.806 225.1 168.596 226.06 168.596C226.996 168.596 227.824 168.8 228.544 169.208C229.264 169.616 229.816 170.18 230.2 170.9C230.596 171.608 230.794 172.412 230.794 173.312ZM229.102 172.97C229.102 172.346 228.964 171.812 228.688 171.368C228.412 170.912 228.034 170.57 227.554 170.342C227.086 170.102 226.564 169.982 225.988 169.982C225.16 169.982 224.452 170.246 223.864 170.774C223.288 171.302 222.958 172.034 222.874 172.97H229.102ZM250.895 168.758L247.817 178.622H246.125L243.749 170.792L241.373 178.622H239.681L236.585 168.758H238.259L240.527 177.038L242.975 168.758H244.649L247.043 177.056L249.275 168.758H250.895ZM251.909 173.654C251.909 172.646 252.113 171.764 252.521 171.008C252.929 170.24 253.487 169.646 254.195 169.226C254.915 168.806 255.713 168.596 256.589 168.596C257.453 168.596 258.203 168.782 258.839 169.154C259.475 169.526 259.949 169.994 260.261 170.558V168.758H261.917V178.622H260.261V176.786C259.937 177.362 259.451 177.842 258.803 178.226C258.167 178.598 257.423 178.784 256.571 178.784C255.695 178.784 254.903 178.568 254.195 178.136C253.487 177.704 252.929 177.098 252.521 176.318C252.113 175.538 251.909 174.65 251.909 173.654ZM260.261 173.672C260.261 172.928 260.111 172.28 259.811 171.728C259.511 171.176 259.103 170.756 258.587 170.468C258.083 170.168 257.525 170.018 256.913 170.018C256.301 170.018 255.743 170.162 255.239 170.45C254.735 170.738 254.333 171.158 254.033 171.71C253.733 172.262 253.583 172.91 253.583 173.654C253.583 174.41 253.733 175.07 254.033 175.634C254.333 176.186 254.735 176.612 255.239 176.912C255.743 177.2 256.301 177.344 256.913 177.344C257.525 177.344 258.083 177.2 258.587 176.912C259.103 176.612 259.511 176.186 259.811 175.634C260.111 175.07 260.261 174.416 260.261 173.672ZM273.181 168.758L267.241 183.266H265.549L267.493 178.514L263.515 168.758H265.333L268.429 176.75L271.489 168.758H273.181ZM44.7506 203.654C44.7506 202.646 44.9546 201.764 45.3626 201.008C45.7706 200.24 46.3286 199.646 47.0366 199.226C47.7566 198.806 48.5546 198.596 49.4306 198.596C50.2946 198.596 51.0446 198.782 51.6806 199.154C52.3166 199.526 52.7906 199.994 53.1026 200.558V198.758H54.7586V208.622H53.1026V206.786C52.7786 207.362 52.2926 207.842 51.6446 208.226C51.0086 208.598 50.2646 208.784 49.4126 208.784C48.5366 208.784 47.7446 208.568 47.0366 208.136C46.3286 207.704 45.7706 207.098 45.3626 206.318C44.9546 205.538 44.7506 204.65 44.7506 203.654ZM53.1026 203.672C53.1026 202.928 52.9526 202.28 52.6526 201.728C52.3526 201.176 51.9446 200.756 51.4286 200.468C50.9246 200.168 50.3666 200.018 49.7546 200.018C49.1426 200.018 48.5846 200.162 48.0806 200.45C47.5766 200.738 47.1746 201.158 46.8746 201.71C46.5746 202.262 46.4246 202.91 46.4246 203.654C46.4246 204.41 46.5746 205.07 46.8746 205.634C47.1746 206.186 47.5766 206.612 48.0806 206.912C48.5846 207.2 49.1426 207.344 49.7546 207.344C50.3666 207.344 50.9246 207.2 51.4286 206.912C51.9446 206.612 52.3526 206.186 52.6526 205.634C52.9526 205.07 53.1026 204.416 53.1026 203.672ZM62.3326 198.578C63.5326 198.578 64.5046 198.944 65.2486 199.676C65.9926 200.396 66.3646 201.44 66.3646 202.808V208.622H64.7446V203.042C64.7446 202.058 64.4986 201.308 64.0066 200.792C63.5146 200.264 62.8426 200 61.9906 200C61.1266 200 60.4366 200.27 59.9206 200.81C59.4166 201.35 59.1646 202.136 59.1646 203.168V208.622H57.5266V198.758H59.1646V200.162C59.4886 199.658 59.9266 199.268 60.4786 198.992C61.0426 198.716 61.6606 198.578 62.3326 198.578ZM68.4283 203.654C68.4283 202.646 68.6323 201.764 69.0403 201.008C69.4483 200.24 70.0063 199.646 70.7143 199.226C71.4343 198.806 72.2383 198.596 73.1263 198.596C73.8943 198.596 74.6083 198.776 75.2683 199.136C75.9283 199.484 76.4323 199.946 76.7803 200.522V195.302H78.4363V208.622H76.7803V206.768C76.4563 207.356 75.9763 207.842 75.3403 208.226C74.7043 208.598 73.9603 208.784 73.1083 208.784C72.2323 208.784 71.4343 208.568 70.7143 208.136C70.0063 207.704 69.4483 207.098 69.0403 206.318C68.6323 205.538 68.4283 204.65 68.4283 203.654ZM76.7803 203.672C76.7803 202.928 76.6303 202.28 76.3303 201.728C76.0303 201.176 75.6223 200.756 75.1063 200.468C74.6023 200.168 74.0443 200.018 73.4323 200.018C72.8203 200.018 72.2623 200.162 71.7583 200.45C71.2543 200.738 70.8523 201.158 70.5523 201.71C70.2523 202.262 70.1023 202.91 70.1023 203.654C70.1023 204.41 70.2523 205.07 70.5523 205.634C70.8523 206.186 71.2543 206.612 71.7583 206.912C72.2623 207.2 72.8203 207.344 73.4323 207.344C74.0443 207.344 74.6023 207.2 75.1063 206.912C75.6223 206.612 76.0303 206.186 76.3303 205.634C76.6303 205.07 76.7803 204.416 76.7803 203.672ZM90.8992 198.578C91.6432 198.578 92.3152 198.74 92.9152 199.064C93.5152 199.376 93.9832 199.85 94.3192 200.486C94.6672 201.122 94.8412 201.896 94.8412 202.808V208.622H93.2212V203.042C93.2212 202.058 92.9752 201.308 92.4832 200.792C91.9912 200.264 91.3192 200 90.4672 200C89.6032 200 88.9132 200.27 88.3972 200.81C87.8932 201.35 87.6412 202.136 87.6412 203.168V208.622H86.0032V195.302H87.6412V200.162C87.9652 199.658 88.4092 199.268 88.9732 198.992C89.5492 198.716 90.1912 198.578 90.8992 198.578ZM106.517 203.312C106.517 203.624 106.499 203.954 106.463 204.302H98.5789C98.6389 205.274 98.9689 206.036 99.5689 206.588C100.181 207.128 100.919 207.398 101.783 207.398C102.491 207.398 103.079 207.236 103.547 206.912C104.027 206.576 104.363 206.132 104.555 205.58H106.319C106.055 206.528 105.527 207.302 104.735 207.902C103.943 208.49 102.959 208.784 101.783 208.784C100.847 208.784 100.007 208.574 99.2629 208.154C98.5309 207.734 97.9549 207.14 97.5349 206.372C97.1149 205.592 96.9049 204.692 96.9049 203.672C96.9049 202.652 97.1089 201.758 97.5169 200.99C97.9249 200.222 98.4949 199.634 99.2269 199.226C99.9709 198.806 100.823 198.596 101.783 198.596C102.719 198.596 103.547 198.8 104.267 199.208C104.987 199.616 105.539 200.18 105.923 200.9C106.319 201.608 106.517 202.412 106.517 203.312ZM104.825 202.97C104.825 202.346 104.687 201.812 104.411 201.368C104.135 200.912 103.757 200.57 103.277 200.342C102.809 200.102 102.287 199.982 101.711 199.982C100.883 199.982 100.175 200.246 99.5869 200.774C99.0109 201.302 98.6809 202.034 98.5969 202.97H104.825ZM110.317 195.302V208.622H108.679V195.302H110.317ZM114.747 200.576C115.071 200.012 115.551 199.544 116.187 199.172C116.835 198.788 117.585 198.596 118.437 198.596C119.313 198.596 120.105 198.806 120.813 199.226C121.533 199.646 122.097 200.24 122.505 201.008C122.913 201.764 123.117 202.646 123.117 203.654C123.117 204.65 122.913 205.538 122.505 206.318C122.097 207.098 121.533 207.704 120.813 208.136C120.105 208.568 119.313 208.784 118.437 208.784C117.597 208.784 116.853 208.598 116.205 208.226C115.569 207.842 115.083 207.368 114.747 206.804V213.302H113.109V198.758H114.747V200.576ZM121.443 203.654C121.443 202.91 121.293 202.262 120.993 201.71C120.693 201.158 120.285 200.738 119.769 200.45C119.265 200.162 118.707 200.018 118.095 200.018C117.495 200.018 116.937 200.168 116.421 200.468C115.917 200.756 115.509 201.182 115.197 201.746C114.897 202.298 114.747 202.94 114.747 203.672C114.747 204.416 114.897 205.07 115.197 205.634C115.509 206.186 115.917 206.612 116.421 206.912C116.937 207.2 117.495 207.344 118.095 207.344C118.707 207.344 119.265 207.2 119.769 206.912C120.285 206.612 120.693 206.186 120.993 205.634C121.293 205.07 121.443 204.41 121.443 203.654ZM138.568 198.758L132.628 213.266H130.936L132.88 208.514L128.902 198.758H130.72L133.816 206.75L136.876 198.758H138.568ZM144.516 208.784C143.592 208.784 142.752 208.574 141.996 208.154C141.252 207.734 140.664 207.14 140.232 206.372C139.812 205.592 139.602 204.692 139.602 203.672C139.602 202.664 139.818 201.776 140.25 201.008C140.694 200.228 141.294 199.634 142.05 199.226C142.806 198.806 143.652 198.596 144.588 198.596C145.524 198.596 146.37 198.806 147.126 199.226C147.882 199.634 148.476 200.222 148.908 200.99C149.352 201.758 149.574 202.652 149.574 203.672C149.574 204.692 149.346 205.592 148.89 206.372C148.446 207.14 147.84 207.734 147.072 208.154C146.304 208.574 145.452 208.784 144.516 208.784ZM144.516 207.344C145.104 207.344 145.656 207.206 146.172 206.93C146.688 206.654 147.102 206.24 147.414 205.688C147.738 205.136 147.9 204.464 147.9 203.672C147.9 202.88 147.744 202.208 147.432 201.656C147.12 201.104 146.712 200.696 146.208 200.432C145.704 200.156 145.158 200.018 144.57 200.018C143.97 200.018 143.418 200.156 142.914 200.432C142.422 200.696 142.026 201.104 141.726 201.656C141.426 202.208 141.276 202.88 141.276 203.672C141.276 204.476 141.42 205.154 141.708 205.706C142.008 206.258 142.404 206.672 142.896 206.948C143.388 207.212 143.928 207.344 144.516 207.344ZM160.476 198.758V208.622H158.838V207.164C158.526 207.668 158.088 208.064 157.524 208.352C156.972 208.628 156.36 208.766 155.688 208.766C154.92 208.766 154.23 208.61 153.618 208.298C153.006 207.974 152.52 207.494 152.16 206.858C151.812 206.222 151.638 205.448 151.638 204.536V198.758H153.258V204.32C153.258 205.292 153.504 206.042 153.996 206.57C154.488 207.086 155.16 207.344 156.012 207.344C156.888 207.344 157.578 207.074 158.082 206.534C158.586 205.994 158.838 205.208 158.838 204.176V198.758H160.476ZM171.532 208.784C170.776 208.784 170.098 208.658 169.498 208.406C168.898 208.142 168.424 207.782 168.076 207.326C167.728 206.858 167.536 206.324 167.5 205.724H169.192C169.24 206.216 169.468 206.618 169.876 206.93C170.296 207.242 170.842 207.398 171.514 207.398C172.138 207.398 172.63 207.26 172.99 206.984C173.35 206.708 173.53 206.36 173.53 205.94C173.53 205.508 173.338 205.19 172.954 204.986C172.57 204.77 171.976 204.56 171.172 204.356C170.44 204.164 169.84 203.972 169.372 203.78C168.916 203.576 168.52 203.282 168.184 202.898C167.86 202.502 167.698 201.986 167.698 201.35C167.698 200.846 167.848 200.384 168.148 199.964C168.448 199.544 168.874 199.214 169.426 198.974C169.978 198.722 170.608 198.596 171.316 198.596C172.408 198.596 173.29 198.872 173.962 199.424C174.634 199.976 174.994 200.732 175.042 201.692H173.404C173.368 201.176 173.158 200.762 172.774 200.45C172.402 200.138 171.898 199.982 171.262 199.982C170.674 199.982 170.206 200.108 169.858 200.36C169.51 200.612 169.336 200.942 169.336 201.35C169.336 201.674 169.438 201.944 169.642 202.16C169.858 202.364 170.122 202.532 170.434 202.664C170.758 202.784 171.202 202.922 171.766 203.078C172.474 203.27 173.05 203.462 173.494 203.654C173.938 203.834 174.316 204.11 174.628 204.482C174.952 204.854 175.12 205.34 175.132 205.94C175.132 206.48 174.982 206.966 174.682 207.398C174.382 207.83 173.956 208.172 173.404 208.424C172.864 208.664 172.24 208.784 171.532 208.784ZM186.193 198.758V208.622H184.555V207.164C184.243 207.668 183.805 208.064 183.241 208.352C182.689 208.628 182.077 208.766 181.405 208.766C180.637 208.766 179.947 208.61 179.335 208.298C178.723 207.974 178.237 207.494 177.877 206.858C177.529 206.222 177.355 205.448 177.355 204.536V198.758H178.975V204.32C178.975 205.292 179.221 206.042 179.713 206.57C180.205 207.086 180.877 207.344 181.729 207.344C182.605 207.344 183.295 207.074 183.799 206.534C184.303 205.994 184.555 205.208 184.555 204.176V198.758H186.193ZM188.346 203.672C188.346 202.652 188.55 201.764 188.958 201.008C189.366 200.24 189.93 199.646 190.65 199.226C191.382 198.806 192.216 198.596 193.152 198.596C194.364 198.596 195.36 198.89 196.14 199.478C196.932 200.066 197.454 200.882 197.706 201.926H195.942C195.774 201.326 195.444 200.852 194.952 200.504C194.472 200.156 193.872 199.982 193.152 199.982C192.216 199.982 191.46 200.306 190.884 200.954C190.308 201.59 190.02 202.496 190.02 203.672C190.02 204.86 190.308 205.778 190.884 206.426C191.46 207.074 192.216 207.398 193.152 207.398C193.872 207.398 194.472 207.23 194.952 206.894C195.432 206.558 195.762 206.078 195.942 205.454H197.706C197.442 206.462 196.914 207.272 196.122 207.884C195.33 208.484 194.34 208.784 193.152 208.784C192.216 208.784 191.382 208.574 190.65 208.154C189.93 207.734 189.366 207.14 188.958 206.372C188.55 205.604 188.346 204.704 188.346 203.672ZM199.28 203.672C199.28 202.652 199.484 201.764 199.892 201.008C200.3 200.24 200.864 199.646 201.584 199.226C202.316 198.806 203.15 198.596 204.086 198.596C205.298 198.596 206.294 198.89 207.074 199.478C207.866 200.066 208.388 200.882 208.64 201.926H206.876C206.708 201.326 206.378 200.852 205.886 200.504C205.406 200.156 204.806 199.982 204.086 199.982C203.15 199.982 202.394 200.306 201.818 200.954C201.242 201.59 200.954 202.496 200.954 203.672C200.954 204.86 201.242 205.778 201.818 206.426C202.394 207.074 203.15 207.398 204.086 207.398C204.806 207.398 205.406 207.23 205.886 206.894C206.366 206.558 206.696 206.078 206.876 205.454H208.64C208.376 206.462 207.848 207.272 207.056 207.884C206.264 208.484 205.274 208.784 204.086 208.784C203.15 208.784 202.316 208.574 201.584 208.154C200.864 207.734 200.3 207.14 199.892 206.372C199.484 205.604 199.28 204.704 199.28 203.672ZM219.825 203.312C219.825 203.624 219.807 203.954 219.771 204.302H211.887C211.947 205.274 212.277 206.036 212.877 206.588C213.489 207.128 214.227 207.398 215.091 207.398C215.799 207.398 216.387 207.236 216.855 206.912C217.335 206.576 217.671 206.132 217.863 205.58H219.627C219.363 206.528 218.835 207.302 218.043 207.902C217.251 208.49 216.267 208.784 215.091 208.784C214.155 208.784 213.315 208.574 212.571 208.154C211.839 207.734 211.263 207.14 210.843 206.372C210.423 205.592 210.213 204.692 210.213 203.672C210.213 202.652 210.417 201.758 210.825 200.99C211.233 200.222 211.803 199.634 212.535 199.226C213.279 198.806 214.131 198.596 215.091 198.596C216.027 198.596 216.855 198.8 217.575 199.208C218.295 199.616 218.847 200.18 219.231 200.9C219.627 201.608 219.825 202.412 219.825 203.312ZM218.133 202.97C218.133 202.346 217.995 201.812 217.719 201.368C217.443 200.912 217.065 200.57 216.585 200.342C216.117 200.102 215.595 199.982 215.019 199.982C214.191 199.982 213.483 200.246 212.895 200.774C212.319 201.302 211.989 202.034 211.905 202.97H218.133ZM230.988 203.312C230.988 203.624 230.97 203.954 230.934 204.302H223.05C223.11 205.274 223.44 206.036 224.04 206.588C224.652 207.128 225.39 207.398 226.254 207.398C226.962 207.398 227.55 207.236 228.018 206.912C228.498 206.576 228.834 206.132 229.026 205.58H230.79C230.526 206.528 229.998 207.302 229.206 207.902C228.414 208.49 227.43 208.784 226.254 208.784C225.318 208.784 224.478 208.574 223.734 208.154C223.002 207.734 222.426 207.14 222.006 206.372C221.586 205.592 221.376 204.692 221.376 203.672C221.376 202.652 221.58 201.758 221.988 200.99C222.396 200.222 222.966 199.634 223.698 199.226C224.442 198.806 225.294 198.596 226.254 198.596C227.19 198.596 228.018 198.8 228.738 199.208C229.458 199.616 230.01 200.18 230.394 200.9C230.79 201.608 230.988 202.412 230.988 203.312ZM229.296 202.97C229.296 202.346 229.158 201.812 228.882 201.368C228.606 200.912 228.228 200.57 227.748 200.342C227.28 200.102 226.758 199.982 226.182 199.982C225.354 199.982 224.646 200.246 224.058 200.774C223.482 201.302 223.152 202.034 223.068 202.97H229.296ZM232.538 203.654C232.538 202.646 232.742 201.764 233.15 201.008C233.558 200.24 234.116 199.646 234.824 199.226C235.544 198.806 236.348 198.596 237.236 198.596C238.004 198.596 238.718 198.776 239.378 199.136C240.038 199.484 240.542 199.946 240.89 200.522V195.302H242.546V208.622H240.89V206.768C240.566 207.356 240.086 207.842 239.45 208.226C238.814 208.598 238.07 208.784 237.218 208.784C236.342 208.784 235.544 208.568 234.824 208.136C234.116 207.704 233.558 207.098 233.15 206.318C232.742 205.538 232.538 204.65 232.538 203.654ZM240.89 203.672C240.89 202.928 240.74 202.28 240.44 201.728C240.14 201.176 239.732 200.756 239.216 200.468C238.712 200.168 238.154 200.018 237.542 200.018C236.93 200.018 236.372 200.162 235.868 200.45C235.364 200.738 234.962 201.158 234.662 201.71C234.362 202.262 234.212 202.91 234.212 203.654C234.212 204.41 234.362 205.07 234.662 205.634C234.962 206.186 235.364 206.612 235.868 206.912C236.372 207.2 236.93 207.344 237.542 207.344C238.154 207.344 238.712 207.2 239.216 206.912C239.732 206.612 240.14 206.186 240.44 205.634C240.74 205.07 240.89 204.416 240.89 203.672ZM245.836 208.73C245.524 208.73 245.26 208.622 245.044 208.406C244.828 208.19 244.72 207.926 244.72 207.614C244.72 207.302 244.828 207.038 245.044 206.822C245.26 206.606 245.524 206.498 245.836 206.498C246.136 206.498 246.388 206.606 246.592 206.822C246.808 207.038 246.916 207.302 246.916 207.614C246.916 207.926 246.808 208.19 246.592 208.406C246.388 208.622 246.136 208.73 245.836 208.73Z" fill="black"/>
<mask id="mask0_4629_92" style="mask-type:luminance" maskUnits="userSpaceOnUse" x="232" y="14" width="386" height="283">
<path d="M617.051 14.9863H232.562V296.707H617.051V14.9863Z" fill="white"/>
</mask>
<g mask="url(#mask0_4629_92)">
<path d="M511.786 159.922C510.958 160.048 510.166 160.21 509.374 160.39C509.374 160.084 509.482 159.849 509.662 159.741C510.346 159.363 504.641 144.902 511.786 133.686C523.215 115.745 525.95 97.6957 525.95 97.6957C525.95 97.6957 522.585 96.8122 524.366 91.8536C526.13 86.895 536.047 75.0124 552.334 78.3843C557.806 79.5202 567.902 86.1918 570.206 95.4058C572.51 104.62 570.746 108.352 572.69 112.788C574.633 117.224 579.583 119.171 582.066 127.321C584.55 135.471 579.421 141.079 577.297 143.062C575.173 145.046 574.813 153.376 578.359 158.353C579.943 160.589 581.167 163.023 580.897 165.385C577.135 163.366 572.906 161.905 567.902 160.841L511.804 159.958L511.786 159.922Z" fill="#F94926"/>
<path d="M511.341 135.111C511.52 135.111 511.682 135.003 511.736 134.822C512.204 133.38 516.344 128.601 521.473 125.446C521.671 125.32 521.743 125.067 521.617 124.869C521.491 124.671 521.221 124.617 521.023 124.725C516.02 127.808 511.521 132.749 510.927 134.57C510.855 134.786 510.981 135.039 511.197 135.111C511.233 135.111 511.287 135.129 511.323 135.129L511.341 135.111Z" fill="#122A36"/>
<path d="M511.784 159.921C511.784 159.921 513.367 171.425 516.733 176.745C520.08 182.064 527.171 191.296 536.548 192.161C545.943 193.063 553.538 187.906 559.225 180.459C564.912 173.012 567.864 160.787 567.864 160.787C567.864 160.787 552.476 159.38 550.874 157.794C549.272 156.207 547.347 149.986 548.75 145.568C550.172 141.115 557.083 132.081 557.083 132.081C562.231 131.54 568.764 128.186 569.988 120.036C571.247 111.868 565.578 113.653 564.336 115.582C564.336 115.582 558.505 109.921 555.842 104.601C553.196 99.2822 551.594 93.7646 551.594 93.7646C551.594 93.7646 543.441 97.1545 537.79 98.7413C532.121 100.328 524.472 96.6316 524.472 96.6316C524.076 98.1282 520.062 109.758 519.757 120.505C519.667 123.624 519.883 126.69 520.602 129.394C520.962 130.765 521.448 132.009 522.024 133.181C525.804 141.061 533.345 144.487 533.345 144.487C533.345 144.487 533.363 144.613 533.435 144.865C533.471 145.082 533.543 145.406 533.597 145.785C534.227 148.832 535.486 156.297 533.525 157.415C531.041 158.839 511.766 159.903 511.766 159.903L511.784 159.921Z" fill="white"/>
<path d="M458.102 247.228L459.578 243.406C466.309 245.804 485.728 261.239 485.728 261.239C485.044 263.835 479.339 276.637 471.924 280.785C464.509 284.932 448.833 277.99 439.132 271.967C426.876 264.358 405.819 248.382 405.819 248.382L401.68 227.178C401.68 227.178 456.914 247.247 458.12 247.247L458.102 247.228Z" fill="white"/>
<path d="M483.137 183.687C489.022 172.147 495.987 162.86 509.611 159.849C510.385 159.687 511.159 159.525 511.969 159.398C511.969 159.398 513.517 170.632 516.81 175.825C520.104 181.018 526.997 189.997 536.139 190.863C545.282 191.728 552.715 186.716 558.258 179.449C563.802 172.183 566.699 160.246 566.699 160.246C571.577 161.292 575.68 162.716 579.369 164.682C581.817 165.998 584.067 167.549 586.209 169.406C591.554 174.076 602.262 211.833 606.402 232.317C609.767 248.978 614.681 263.817 614.681 274.708C614.681 285.599 604.836 294.939 594.217 296.761C594.217 296.761 596.719 286.645 588.098 276.62C579.459 266.594 574.294 264.863 574.294 264.863L581.151 262.267L576.886 236.067L572.818 265.206L506.426 281.073L500.234 239.169C500.234 239.169 496.617 235.797 496.347 232.948L485.728 261.221C485.728 261.221 466.309 245.768 459.578 243.388C459.578 243.388 476.928 195.858 483.137 183.669V183.687Z" fill="#00AFE3"/>
<path d="M550.973 77.7709C556.174 79.2134 561.322 81.1067 565.047 88.6978C568.755 96.271 567.297 112.373 565.839 117.422L562.923 116.358C562.923 116.358 564.777 101.825 562.527 93.8007C560.278 85.7768 551.549 77.7528 540.984 78.438C540.984 78.438 546.618 76.5628 550.991 77.7709H550.973Z" fill="black"/>
<path d="M576.963 321.067C576.963 321.067 577.089 321.067 577.143 321.031C577.269 320.959 577.359 320.833 577.377 320.688C577.989 311.492 567.244 298.51 565.246 296.508C565.084 296.346 564.814 296.346 564.652 296.508C564.49 296.671 564.49 296.941 564.652 297.103C564.778 297.23 576.585 310.23 576.567 319.913C574.461 318.489 567.37 313.62 561.323 308.427C554.25 302.351 552.666 296.761 552.648 296.707C552.594 296.49 552.36 296.364 552.144 296.418C551.928 296.472 551.802 296.707 551.856 296.923C551.928 297.158 553.53 302.819 560.783 309.058C567.964 315.225 576.639 320.959 576.729 321.031C576.801 321.085 576.873 321.103 576.963 321.103V321.067Z" fill="#122A36"/>
<path d="M280.45 174.815L299.059 270.742C299.527 273.212 301.939 275.25 304.405 275.25H452.056C454.522 275.25 456.177 273.23 455.673 270.742L437.064 174.815C436.596 172.345 434.184 170.308 431.719 170.308H284.067C281.602 170.308 279.946 172.327 280.45 174.815Z" fill="black"/>
<path d="M337.703 194.361H372.942L392.416 269.93L380.573 289.584L408.163 294.615V299.141H374.814H339.215L358.31 269.93L337.703 194.361Z" fill="#0A0702"/>
<path d="M397.305 170.308L416.778 275.25H417.696L398.259 170.308H397.305Z" fill="#0C0803"/>
<path d="M554.699 111.597C554.843 111.597 554.987 111.525 555.059 111.381C555.185 111.182 555.113 110.912 554.915 110.804C552.953 109.632 546.222 108.045 542.947 109.866C542.749 109.974 542.677 110.245 542.785 110.443C542.893 110.641 543.162 110.714 543.36 110.605C546.204 109.019 552.629 110.443 554.483 111.525C554.555 111.561 554.627 111.579 554.699 111.579V111.597Z" fill="#122A36"/>
<path d="M534.246 108.659C534.246 108.659 534.426 108.641 534.498 108.587C534.696 108.442 534.732 108.19 534.606 107.991C533.958 107.09 532.105 104.962 528.649 104.529C525.608 104.169 523.844 105.251 523.772 105.305C523.574 105.431 523.52 105.683 523.646 105.882C523.772 106.08 524.024 106.134 524.222 106.026C524.222 106.026 525.824 105.034 528.541 105.377C531.655 105.756 533.329 107.667 533.904 108.478C533.994 108.587 534.12 108.659 534.246 108.659Z" fill="#122A36"/>
<path d="M533.026 135.111C536.878 135.111 538.821 132.37 538.839 132.334C538.965 132.135 538.929 131.883 538.731 131.739C538.533 131.612 538.281 131.649 538.137 131.847C538.011 132.027 534.97 136.265 528.599 133.073C528.383 132.965 528.131 133.055 528.023 133.271C527.915 133.488 528.005 133.74 528.203 133.848C530.038 134.768 531.658 135.111 533.008 135.111H533.026Z" fill="#F94926"/>
<path d="M533.438 144.883C533.473 145.099 533.779 146.578 533.833 146.975C534.823 147.173 541.932 146.975 546.684 143.404C546.864 143.26 546.936 143.026 546.81 142.809C546.684 142.611 546.432 142.557 546.216 142.683C542.67 144.937 537.325 145.73 533.438 144.901V144.883Z" fill="#122A36"/>
<path d="M578.1 263.836C578.1 263.836 578.208 263.836 578.244 263.8C578.478 263.71 578.73 263.62 578.982 263.512C581.483 262.52 584.579 261.294 590.554 262.682C590.77 262.736 591.004 262.592 591.058 262.376C591.112 262.159 590.968 261.925 590.752 261.871C584.525 260.428 581.141 261.763 578.676 262.736C578.424 262.845 578.172 262.935 577.938 263.025C577.722 263.115 577.614 263.35 577.704 263.566C577.758 263.728 577.92 263.836 578.1 263.836Z" fill="#6C90FE"/>
<path d="M571.158 242.632C571.158 242.632 571.32 242.614 571.392 242.56C571.518 242.469 574.595 240.396 577.205 236.303C579.095 233.328 582.19 226.349 581.542 213.151C581.542 212.916 581.308 212.772 581.11 212.754C580.876 212.754 580.714 212.952 580.714 213.187C581.362 226.169 578.357 232.967 576.503 235.852C574.001 239.783 570.96 241.856 570.924 241.874C570.726 242.001 570.69 242.253 570.816 242.451C570.888 242.578 571.032 242.632 571.158 242.632Z" fill="#6C90FE"/>
<path d="M504.009 242.631C504.153 242.631 504.297 242.559 504.369 242.415C504.477 242.216 504.405 241.964 504.207 241.856C501.94 240.558 499.618 238.015 496.918 233.868C494.453 230.081 491.411 212.321 499.186 199.374C499.312 199.176 499.24 198.923 499.042 198.797C498.844 198.671 498.592 198.743 498.466 198.941C490.511 212.194 493.661 230.424 496.198 234.319C498.97 238.574 501.364 241.207 503.757 242.577C503.829 242.613 503.901 242.631 503.955 242.631H504.009Z" fill="#6C90FE"/>
<path d="M511.52 282.227C511.646 282.227 511.754 282.173 511.844 282.064C517.081 275.411 529.589 249.482 537.868 232.334C538.912 230.171 539.902 228.115 540.802 226.258C546.237 215.024 555.794 194.018 558.637 179.521C560.149 171.749 560.905 157.45 561.499 145.965C561.841 139.455 562.129 133.83 562.507 130.368C562.525 130.133 562.363 129.935 562.147 129.917C561.877 129.881 561.715 130.061 561.697 130.277C561.337 133.757 561.031 139.401 560.689 145.91C560.095 157.378 559.339 171.641 557.845 179.358C555.02 193.765 545.499 214.7 540.082 225.897C539.182 227.754 538.192 229.792 537.148 231.974C528.887 249.103 516.415 274.978 511.214 281.56C511.07 281.74 511.106 281.992 511.286 282.137C511.358 282.191 511.448 282.227 511.538 282.227H511.52Z" fill="#6C90FE"/>
<path d="M511.79 133.686C515.425 135.038 513.374 144.775 508.604 143.044C503.817 141.313 507.002 131.919 511.79 133.686Z" fill="#122A36"/>
<path d="M564.337 115.6C569.754 115.492 571.23 120.216 570.168 124.995C569.106 129.773 565.561 131.937 561.943 130.765C558.326 129.611 557.786 124.292 558.668 120.92C559.55 117.548 561.601 115.655 564.337 115.6Z" fill="#122A36"/>
<path d="M469.489 299.105H492.598C492.598 299.105 517.812 298.853 534.37 299.105C550.946 299.358 591.062 297.031 594.176 296.779C594.176 296.779 596.677 286.645 588.057 276.62C579.418 266.577 574.235 264.846 574.235 264.846L572.759 265.206L506.366 281.074H506.222C506.222 281.074 503.288 279.541 497.745 278.856C492.238 278.171 487.739 279.902 483.599 283.526C479.46 287.15 469.453 299.087 469.453 299.087L469.489 299.105Z" fill="white"/>
<path d="M475.234 299.105H476.44C479.086 296.599 483.279 292.56 486.015 289.711C486.177 289.548 486.177 289.296 486.015 289.134C485.853 288.971 485.583 288.989 485.439 289.134C482.469 292.217 477.844 296.671 475.252 299.123L475.234 299.105Z" fill="#122A36"/>
<path d="M480.25 299.105H481.852C484.875 297.23 488.961 294.579 491.696 292.343C491.858 292.199 491.876 291.928 491.732 291.766C491.588 291.586 491.336 291.55 491.156 291.712C488.097 294.218 483.31 297.266 480.268 299.123L480.25 299.105Z" fill="#122A36"/>
<path d="M487.727 299.104H489.526C491.776 297.914 494.476 296.436 496.815 294.957C496.995 294.831 497.067 294.579 496.941 294.398C496.815 294.2 496.545 294.146 496.365 294.254C493.54 296.039 490.174 297.842 487.727 299.104Z" fill="#122A36"/>
<path d="M541.903 116.214C541.687 117.836 542.083 119.225 542.785 119.315C543.486 119.405 544.242 118.179 544.458 116.556C544.674 114.933 544.278 113.545 543.576 113.455C542.875 113.365 542.119 114.591 541.903 116.214Z" fill="#122A36"/>
<path d="M525.356 112.752C525.14 114.375 525.536 115.763 526.238 115.853C526.94 115.943 527.696 114.717 527.911 113.094C528.127 111.472 527.732 110.083 527.03 109.993C526.328 109.903 525.572 111.129 525.356 112.752Z" fill="#122A36"/>
<path d="M364.307 80.0127H463.635C466.437 80.0127 468.707 82.309 468.707 85.0947V151.277C468.707 154.062 466.412 156.359 463.635 156.359H427.346L427.207 156.475L414.026 167.352L402.963 156.503L402.817 156.359H364.307C361.505 156.359 359.234 154.063 359.234 151.277V85.0947C359.235 82.3106 361.53 80.0127 364.307 80.0127Z" stroke="#00AFE3"/>
<path d="M414.859 109.303C414.859 96.7155 425.066 86.4902 437.629 86.4902C450.192 86.4902 460.399 96.7155 460.399 109.303C460.399 121.89 450.192 132.115 437.629 132.115C425.066 132.115 414.859 121.89 414.859 109.303ZM415.877 109.303C415.877 121.326 425.655 131.122 437.656 131.122C449.657 131.122 459.434 121.326 459.434 109.303C459.434 97.2791 449.657 87.4832 437.656 87.4832C425.655 87.4832 415.877 97.2791 415.877 109.303Z" fill="#00AFE3"/>
<path d="M373.362 132.303H405.561C408.695 132.303 411.267 129.727 411.267 126.587C411.267 123.447 408.695 120.87 405.561 120.87H373.362C370.228 120.87 367.656 123.447 367.656 126.587C367.656 129.727 370.228 132.303 373.362 132.303Z" fill="#00AFE3"/>
<path d="M380.595 87.4837H410.731C410.999 87.4837 411.24 87.269 411.24 86.9738C411.24 86.6786 411.026 86.4639 410.731 86.4639H380.595C380.327 86.4639 380.086 86.6786 380.086 86.9738C380.086 87.269 380.3 87.4837 380.595 87.4837Z" fill="#00AFE3"/>
<path d="M392.196 96.7425H410.734C411.001 96.7425 411.243 96.5278 411.243 96.2326C411.243 95.9374 411.028 95.7227 410.734 95.7227H392.196C391.929 95.7227 391.688 95.9374 391.688 96.2326C391.688 96.5278 391.902 96.7425 392.196 96.7425Z" fill="#00AFE3"/>
<path d="M387.103 144.139H410.756C411.024 144.139 411.265 143.924 411.265 143.629C411.265 143.334 411.051 143.119 410.756 143.119H387.103C386.835 143.119 386.594 143.334 386.594 143.629C386.594 143.924 386.808 144.139 387.103 144.139Z" fill="#00AFE3"/>
<path d="M429.531 105.385C429.531 99.4803 433.683 94.6494 438.8 94.6494C443.916 94.6494 448.068 99.4534 448.068 105.385C448.068 111.316 443.916 116.093 438.8 116.093C433.683 116.093 429.531 111.289 429.531 105.385ZM430.522 105.385C430.522 110.752 434.219 115.1 438.773 115.1C443.327 115.1 447.024 110.725 447.024 105.385C447.024 100.044 443.327 95.6693 438.773 95.6693C434.219 95.6693 430.522 100.044 430.522 105.385Z" fill="#00AFE3"/>
<path d="M452.867 126.05C452.867 126.05 452.974 126.05 453.055 126.024C453.322 125.916 453.456 125.648 453.349 125.379C453.188 124.95 449.277 114.617 445.072 112.336C444.831 112.202 444.509 112.283 444.402 112.551C444.268 112.792 444.375 113.088 444.616 113.222C448.527 115.315 452.412 125.621 452.438 125.728C452.519 125.943 452.706 126.05 452.894 126.05H452.867Z" fill="#00AFE3"/>
<path d="M423.558 127.096C423.799 127.096 424.014 126.909 424.041 126.667C425.46 115.449 432.264 112.523 432.345 112.497C432.613 112.389 432.72 112.094 432.613 111.852C432.505 111.584 432.211 111.477 431.97 111.584C431.675 111.718 424.55 114.724 423.049 126.56C423.023 126.828 423.21 127.096 423.478 127.123H423.532L423.558 127.096Z" fill="#00AFE3"/>
<path d="M534.693 113.869L530.266 125.878L534.045 126.311" stroke="#122A36" stroke-width="0.5" stroke-miterlimit="10" stroke-linecap="round"/>
</g>
<defs>
<linearGradient id="paint0_linear_4629_92" x1="311" y1="0.537109" x2="311" y2="296.707" gradientUnits="userSpaceOnUse">
<stop stop-color="#E3F6FC"/>
<stop offset="1" stop-color="#24CDFF"/>
</linearGradient>
</defs>
</svg>
