<svg width="20" height="19" viewBox="0 0 20 19" fill="none" xmlns="http://www.w3.org/2000/svg">
<g clip-path="url(#clip0_4601_169)">
<rect width="20" height="19" fill="white"/>
<path fill-rule="evenodd" clip-rule="evenodd" d="M10.0017 1.5C10.1122 1.5 10.2182 1.5439 10.2963 1.62204C10.3744 1.70018 10.4183 1.80616 10.4183 1.91667V1.945C11.5842 2.06667 12.4738 2.56792 13.0529 3.20583C13.4513 3.64458 13.715 4.1675 13.7979 4.6775L13.8429 4.71208C14.3113 5.075 14.655 5.515 14.5733 6.01958C14.4946 6.50708 14.0542 6.80375 13.6442 6.985C13.5405 7.03088 13.4349 7.07203 13.3275 7.10833C13.3325 7.1825 13.335 7.2575 13.335 7.33333C13.3348 7.78042 13.2447 8.2229 13.0699 8.63443C12.8952 9.04596 12.6395 9.41815 12.318 9.72883C11.9965 10.0395 11.6158 10.2823 11.1985 10.4429C10.7812 10.6034 10.3359 10.6783 9.88911 10.6632C9.44228 10.6481 9.00305 10.5433 8.59757 10.355C8.19208 10.1667 7.82862 9.89868 7.52883 9.56701C7.22903 9.23534 6.99901 8.84674 6.85248 8.42436C6.70594 8.00197 6.64587 7.55441 6.67584 7.10833C6.56848 7.07203 6.46281 7.03088 6.35917 6.985C5.94917 6.80375 5.50876 6.50708 5.43001 6.01958C5.34834 5.515 5.69209 5.075 6.16042 4.71208L6.21334 4.67125C6.22401 4.60491 6.23736 4.53902 6.25334 4.47375C6.36321 4.04045 6.56358 3.63531 6.84126 3.285C7.39959 2.57333 8.31334 1.99833 9.58501 1.925V1.91667C9.58501 1.80616 9.62891 1.70018 9.70705 1.62204C9.78519 1.5439 9.89117 1.5 10.0017 1.5ZM13.1933 5.85C13.2786 5.88087 13.3716 5.88308 13.4582 5.85631C13.5448 5.82954 13.6204 5.77525 13.6733 5.70167C13.7554 5.81625 13.7525 5.87708 13.7508 5.88667C13.7454 5.92 13.6817 6.0575 13.3071 6.22333C12.87 6.41667 12.2125 6.55667 11.4583 6.63583C11.4404 6.26155 11.2791 5.90853 11.0079 5.64998C10.7367 5.39143 10.3764 5.2472 10.0017 5.2472C9.62697 5.2472 9.26664 5.39143 8.99542 5.64998C8.72421 5.90853 8.56292 6.26155 8.54501 6.63583C7.79084 6.55667 7.13334 6.41667 6.69626 6.22333C6.32167 6.0575 6.25792 5.92 6.25251 5.88667C6.25084 5.87708 6.24792 5.81667 6.33001 5.70167C6.38883 5.78366 6.4754 5.84152 6.57366 5.8645C6.67192 5.88749 6.77518 5.87403 6.86426 5.82664C6.95335 5.77925 7.02221 5.70113 7.05806 5.60681C7.0939 5.51248 7.0943 5.40835 7.05917 5.31375C7.00917 5.17875 6.99376 4.955 7.06292 4.67083C7.14478 4.35312 7.29273 4.05625 7.49709 3.79958L7.50167 3.79375V4.625C7.50167 4.73551 7.54557 4.84149 7.62371 4.91963C7.70185 4.99777 7.80783 5.04167 7.91834 5.04167C8.02885 5.04167 8.13483 4.99777 8.21297 4.91963C8.29111 4.84149 8.33501 4.73551 8.33501 4.625V3.1025C8.67751 2.92125 9.09209 2.79458 9.58501 2.75958V3.79167C9.58501 3.90217 9.62891 4.00815 9.70705 4.08629C9.78519 4.16443 9.89117 4.20833 10.0017 4.20833C10.1122 4.20833 10.2182 4.16443 10.2963 4.08629C10.3744 4.00815 10.4183 3.90217 10.4183 3.79167V2.78375C10.9058 2.845 11.3217 2.98458 11.6683 3.17125V4.625C11.6683 4.73551 11.7122 4.84149 11.7904 4.91963C11.8685 4.99777 11.9745 5.04167 12.085 5.04167C12.1955 5.04167 12.3015 4.99777 12.3796 4.91963C12.4578 4.84149 12.5017 4.73551 12.5017 4.625V3.84125C12.9667 4.39417 13.065 4.97917 12.9433 5.31667C12.9058 5.42055 12.9111 5.53507 12.9579 5.63508C13.0048 5.73509 13.0895 5.81239 13.1933 5.85ZM8.94626 7.71458C8.46408 7.68397 7.98426 7.62344 7.50959 7.53333C7.55958 8.15997 7.84381 8.74478 8.30565 9.17124C8.76749 9.59771 9.37305 9.83453 10.0017 9.83453C10.6303 9.83453 11.2359 9.59771 11.6977 9.17124C12.1595 8.74478 12.4438 8.15997 12.4938 7.53333C12.0521 7.62 11.5629 7.68 11.0571 7.71458C10.9209 7.85743 10.7572 7.97115 10.5757 8.04886C10.3943 8.12657 10.199 8.16665 10.0017 8.16667C9.80432 8.16665 9.60902 8.12657 9.4276 8.04886C9.24619 7.97115 9.08243 7.85743 8.94626 7.71458ZM10.6267 6.70833C10.6267 6.87409 10.5608 7.03306 10.4436 7.15027C10.3264 7.26748 10.1674 7.33333 10.0017 7.33333C9.83591 7.33333 9.67694 7.26748 9.55973 7.15027C9.44252 7.03306 9.37667 6.87409 9.37667 6.70833C9.37667 6.54257 9.44252 6.3836 9.55973 6.26639C9.67694 6.14918 9.83591 6.08333 10.0017 6.08333C10.1674 6.08333 10.3264 6.14918 10.4436 6.26639C10.5608 6.3836 10.6267 6.54257 10.6267 6.70833Z" fill="black"/>
<path d="M10.0013 15.2487C10.2223 15.2487 10.4343 15.1609 10.5906 15.0046C10.7468 14.8483 10.8346 14.6364 10.8346 14.4154C10.8346 14.1944 10.7468 13.9824 10.5906 13.8261C10.4343 13.6698 10.2223 13.582 10.0013 13.582C9.78029 13.582 9.56833 13.6698 9.41205 13.8261C9.25577 13.9824 9.16797 14.1944 9.16797 14.4154C9.16797 14.6364 9.25577 14.8483 9.41205 15.0046C9.56833 15.1609 9.78029 15.2487 10.0013 15.2487Z" fill="black"/>
<path fill-rule="evenodd" clip-rule="evenodd" d="M8.13917 10.832L9.58333 11.9154H10.4167L11.8608 10.832C14.4004 11.2387 17.5 12.3695 17.5 13.9987V16.4987H2.5V13.9987C2.5 12.3695 5.59958 11.2387 8.13917 10.832ZM10.6946 12.7487L12.0737 11.7141C12.4917 11.7908 12.9171 11.887 13.3333 11.9999V15.6654H14.1667V12.2549C14.4583 12.3549 14.7379 12.4637 15 12.5808V15.6654H5V12.5808C5.26208 12.4641 5.54167 12.3549 5.83333 12.2549V15.6654H6.66667V11.9999C7.08292 11.887 7.50833 11.7908 7.92625 11.7141L9.30542 12.7487H10.6946ZM16.3771 13.4529C16.6121 13.6962 16.6667 13.8758 16.6667 13.9987V15.6654H15.8333V13.022C16.0583 13.1662 16.24 13.3112 16.3771 13.4533M3.62292 13.4533C3.76042 13.3116 3.94208 13.1666 4.16667 13.0224V15.6654H3.33333V13.9987C3.33333 13.8758 3.3875 13.6962 3.62292 13.4529" fill="black"/>
</g>
<defs>
<clipPath id="clip0_4601_169">
<rect width="20" height="19" fill="white"/>
</clipPath>
</defs>
</svg>
