<svg width="30" height="31" viewBox="0 0 30 31" fill="none" xmlns="http://www.w3.org/2000/svg">
<rect y="0.609375" width="29.5273" height="29.5273" rx="14.7637" fill="#D9D9D9"/>
<path d="M17.4271 19.373L18.7604 20.7064L21.4271 18.0397M14.7604 17.373H12.0938C10.8512 17.373 10.23 17.373 9.73993 17.576C9.08652 17.8467 8.56739 18.3658 8.29674 19.0192C8.09375 19.5093 8.09375 20.1305 8.09375 21.373M17.0938 9.56689C18.071 9.96248 18.7604 10.9206 18.7604 12.0397C18.7604 13.1588 18.071 14.1169 17.0938 14.5125M15.7604 12.0397C15.7604 13.5125 14.5665 14.7064 13.0938 14.7064C11.621 14.7064 10.4271 13.5125 10.4271 12.0397C10.4271 10.567 11.621 9.37305 13.0938 9.37305C14.5665 9.37305 15.7604 10.567 15.7604 12.0397Z" stroke="black" stroke-linecap="round" stroke-linejoin="round"/>
</svg>
