<svg width="19" height="15" viewBox="0 0 19 15" fill="none" xmlns="http://www.w3.org/2000/svg">
<path d="M1.80804 14.3904C1.31083 14.3904 0.885336 14.2245 0.531563 13.8929C0.177188 13.5606 0 13.1615 0 12.6953V2.52511C0 2.05898 0.177188 1.66008 0.531563 1.32842C0.885336 0.996191 1.31083 0.830078 1.80804 0.830078H16.2723C16.7696 0.830078 17.1953 0.996191 17.5497 1.32842C17.9035 1.66008 18.0804 2.05898 18.0804 2.52511V12.6953C18.0804 13.1615 17.9035 13.5606 17.5497 13.8929C17.1953 14.2245 16.7696 14.3904 16.2723 14.3904H1.80804ZM9.04019 8.45774L1.80804 4.22015V12.6953H16.2723V4.22015L9.04019 8.45774ZM9.04019 6.7627L16.2723 2.52511H1.80804L9.04019 6.7627ZM1.80804 4.22015V2.52511V12.6953V4.22015Z" fill="#00AFE3"/>
</svg>
