<svg width="16" height="17" viewBox="0 0 16 17" fill="none" xmlns="http://www.w3.org/2000/svg">
<path d="M14.3359 12.722L9.90737 8.722M6.09784 8.722L1.66929 12.722M1.33594 5.38867L6.77922 9.19897C7.22 9.50751 7.44039 9.66179 7.68011 9.72154C7.89187 9.77433 8.11334 9.77433 8.3251 9.72154C8.56482 9.66179 8.78521 9.50751 9.22599 9.19897L14.6693 5.38867M4.53594 14.0553H11.4693C12.5894 14.0553 13.1494 14.0553 13.5773 13.8374C13.9536 13.6456 14.2595 13.3396 14.4513 12.9633C14.6693 12.5355 14.6693 11.9754 14.6693 10.8553V6.58867C14.6693 5.46857 14.6693 4.90851 14.4513 4.48069C14.2595 4.10437 13.9536 3.79841 13.5773 3.60666C13.1494 3.38867 12.5894 3.38867 11.4693 3.38867H4.53594C3.41583 3.38867 2.85578 3.38867 2.42796 3.60666C2.05163 3.79841 1.74567 4.10437 1.55392 4.48069C1.33594 4.90851 1.33594 5.46857 1.33594 6.58867V10.8553C1.33594 11.9754 1.33594 12.5355 1.55392 12.9633C1.74567 13.3396 2.05163 13.6456 2.42796 13.8374C2.85578 14.0553 3.41583 14.0553 4.53594 14.0553Z" stroke="white" stroke-linecap="round" stroke-linejoin="round"/>
</svg>
