<svg width="622" height="297" viewBox="0 0 622 297" fill="none" xmlns="http://www.w3.org/2000/svg">
<rect y="0.537109" width="622" height="296.17" fill="url(#paint0_linear_2868_823)"/>
<g clip-path="url(#clip0_2868_823)">
<path d="M422.062 176.868L436.653 159.354V186.923L422.062 176.868Z" fill="url(#paint1_linear_2868_823)"/>
<path d="M572.928 168.591L558.328 186.095V158.535L572.928 168.591Z" fill="url(#paint2_linear_2868_823)"/>
<path d="M561.846 191.411V156.58C561.846 146.208 555.4 136.925 545.67 133.294L506.273 118.583C500.638 116.479 494.434 116.479 488.8 118.583L449.403 133.303C439.673 136.944 433.227 146.217 433.227 156.589V191.421C433.227 201.793 439.673 211.075 449.403 214.707L488.79 229.427C494.425 231.531 500.629 231.531 506.264 229.427L545.651 214.707C555.381 211.066 561.828 201.793 561.828 191.421L561.846 191.411Z" fill="#00AFE3"/>
<path d="M497.541 227.453C494.975 227.453 492.457 226.996 490.05 226.103L450.924 211.382C442.63 208.282 437.312 200.256 437.312 191.42V156.589C437.312 147.744 442.621 139.727 450.924 136.627L490.18 121.907C492.587 121.013 495.041 120.557 497.606 120.557C500.172 120.557 502.662 121.013 505.06 121.907L544.083 136.627C552.377 139.727 557.592 147.753 557.592 156.589V191.42C557.592 200.265 552.368 208.282 544.074 211.382L504.855 226.103C502.448 227.006 500.106 227.453 497.541 227.453Z" fill="#009DC1"/>
<path d="M497.536 223.905C495.399 223.905 493.291 223.523 491.294 222.778L452.234 208.058C445.489 205.535 440.992 198.85 440.992 191.41V156.579C440.992 149.14 445.489 142.455 452.224 139.932L491.453 125.212C493.477 124.457 495.492 124.085 497.61 124.085C499.728 124.085 501.808 124.467 503.814 125.212L543.388 139.932C550.263 142.501 555.133 149.196 555.133 156.579V191.41C555.133 198.794 550.254 205.479 543.369 208.058L503.879 222.778C501.874 223.523 499.663 223.905 497.536 223.905Z" fill="url(#paint3_linear_2868_823)"/>
<path d="M573 142.297L422.065 176.867L422 203.161L572.944 168.6L573 142.297Z" fill="#009DC1"/>
<path d="M471.482 159.848L468.311 160.453L468.525 149.14L465.391 150.761L465.437 148.07L471.473 144.597L471.762 144.541L471.473 159.848H471.482Z" fill="white"/>
<path d="M485.207 150.975C485.17 153.042 484.722 154.718 483.873 155.993C483.024 157.269 481.849 158.06 480.337 158.349C478.817 158.637 477.651 158.302 476.839 157.334C476.027 156.366 475.645 154.857 475.682 152.8L475.738 150.006C475.775 147.939 476.223 146.263 477.072 144.988C477.921 143.703 479.106 142.921 480.617 142.632C482.129 142.344 483.295 142.679 484.106 143.647C484.918 144.615 485.3 146.133 485.263 148.191L485.207 150.975ZM482.101 148.34C482.119 147.241 482.007 146.44 481.765 145.947C481.522 145.453 481.112 145.258 480.561 145.37C480.02 145.472 479.619 145.798 479.358 146.357C479.097 146.906 478.957 147.697 478.919 148.721L478.845 152.632C478.826 153.777 478.938 154.587 479.181 155.062C479.423 155.546 479.824 155.732 480.384 155.621C480.925 155.518 481.326 155.183 481.587 154.615C481.858 154.047 481.998 153.219 482.026 152.12L482.101 148.34Z" fill="white"/>
<path d="M496.324 148.842C496.287 150.909 495.839 152.585 494.99 153.86C494.141 155.145 492.966 155.927 491.455 156.216C489.934 156.505 488.768 156.169 487.956 155.201C487.145 154.233 486.762 152.724 486.799 150.667L486.855 147.874C486.893 145.807 487.34 144.131 488.189 142.855C489.038 141.57 490.223 140.788 491.734 140.499C493.246 140.211 494.412 140.546 495.223 141.514C496.035 142.483 496.418 144 496.38 146.058L496.324 148.842ZM493.227 146.198C493.246 145.099 493.134 144.298 492.891 143.805C492.649 143.311 492.248 143.116 491.688 143.227C491.147 143.33 490.746 143.656 490.484 144.214C490.223 144.773 490.083 145.555 490.046 146.579L489.971 150.49C489.953 151.635 490.065 152.445 490.307 152.92C490.55 153.404 490.96 153.59 491.511 153.479C492.052 153.376 492.453 153.041 492.714 152.473C492.985 151.905 493.124 151.076 493.152 149.968L493.227 146.188V146.198Z" fill="white"/>
<path d="M498.096 142.408C498.115 141.459 498.404 140.649 498.964 139.96C499.524 139.271 500.27 138.842 501.193 138.666C502.126 138.489 502.863 138.628 503.404 139.103C503.936 139.578 504.197 140.304 504.179 141.291L504.16 142.045C504.141 142.995 503.852 143.805 503.302 144.485C502.751 145.164 502.005 145.593 501.081 145.77C500.158 145.946 499.43 145.798 498.88 145.341C498.329 144.876 498.068 144.15 498.087 143.153V142.408H498.096ZM501.539 152.93L500.083 152.38L506.977 139.131L508.433 139.68L501.539 152.93ZM500.111 142.827C500.111 143.191 500.186 143.47 500.363 143.656C500.54 143.852 500.792 143.917 501.109 143.852C501.763 143.721 502.108 143.191 502.117 142.259V141.636C502.136 141.273 502.052 140.993 501.884 140.798C501.716 140.602 501.464 140.528 501.147 140.593C500.839 140.649 500.596 140.807 500.41 141.068C500.223 141.328 500.13 141.654 500.121 142.045L500.102 142.827H500.111ZM504.421 149.773C504.44 148.823 504.729 148.004 505.298 147.324C505.867 146.645 506.604 146.217 507.528 146.04C508.461 145.863 509.198 146.002 509.739 146.468C510.28 146.924 510.541 147.669 510.522 148.684V149.419C510.495 150.369 510.205 151.188 509.646 151.868C509.086 152.548 508.349 152.976 507.416 153.153C506.492 153.33 505.765 153.19 505.214 152.725C504.664 152.259 504.403 151.533 504.421 150.537V149.782V149.773ZM506.436 150.192C506.436 150.518 506.52 150.788 506.716 150.993C506.912 151.198 507.155 151.282 507.444 151.226C508.05 151.114 508.386 150.723 508.451 150.071L508.479 148.991C508.479 148.619 508.405 148.339 508.228 148.153C508.05 147.958 507.808 147.892 507.491 147.958C507.192 148.013 506.949 148.172 506.763 148.414C506.576 148.665 506.474 148.963 506.455 149.336L506.436 150.192Z" fill="white"/>
<path d="M440.082 194.382L436.723 195.155L431.583 186.458L431.76 196.3L428.383 197.082L428.094 181.272L431.471 180.49L436.602 189.186L436.425 179.345L439.792 178.572L440.082 194.382Z" fill="white"/>
<path d="M450.774 185.174L445.465 186.403L445.531 190.183L451.8 188.74L451.856 191.672L442.219 193.898L441.93 178.088L451.595 175.854L451.651 178.796L445.363 180.248L445.428 183.581L450.736 182.352L450.783 185.174H450.774Z" fill="white"/>
<path d="M463.96 182.948L465.388 172.669L468.737 171.896L466.05 188.386L462.552 189.196L460.518 180.621L458.848 190.052L455.359 190.862L452.094 175.742L455.452 174.969L457.234 184.512L458.979 174.159L461.843 173.498L463.979 182.958L463.96 182.948Z" fill="white"/>
<path d="M475.242 186.262L474.953 170.453L479.981 169.289C481.782 168.87 483.163 168.926 484.114 169.457C485.066 169.987 485.551 170.956 485.579 172.38C485.598 173.199 485.439 173.935 485.112 174.587C484.786 175.248 484.31 175.788 483.666 176.207C484.403 176.253 484.973 176.533 485.374 177.035C485.775 177.538 485.98 178.218 485.999 179.075C486.027 180.62 485.616 181.886 484.758 182.864C483.9 183.842 482.622 184.54 480.924 184.94L475.242 186.253V186.262ZM478.452 176.263L480.215 175.853C480.952 175.676 481.474 175.397 481.782 175.034C482.09 174.661 482.239 174.186 482.23 173.609C482.22 172.939 482.043 172.501 481.698 172.287C481.353 172.073 480.802 172.054 480.047 172.222L478.396 172.604L478.461 176.263H478.452ZM478.498 178.767L478.563 182.557L480.774 182.045C481.381 181.905 481.847 181.635 482.174 181.244C482.491 180.853 482.65 180.369 482.64 179.801C482.612 178.479 482.025 177.957 480.868 178.218L478.507 178.767H478.498Z" fill="white"/>
<path d="M498.628 164.987L498.815 175.331C498.834 176.505 498.638 177.566 498.209 178.525C497.78 179.484 497.164 180.285 496.343 180.927C495.522 181.57 494.552 182.017 493.423 182.277C491.716 182.668 490.363 182.482 489.365 181.709C488.367 180.937 487.844 179.68 487.788 177.948L487.602 167.529L490.997 166.747L491.193 177.249C491.259 178.972 491.986 179.67 493.376 179.354C494.076 179.195 494.598 178.851 494.953 178.339C495.307 177.817 495.466 177.073 495.457 176.095L495.27 165.769L498.647 164.987H498.628Z" fill="white"/>
<path d="M508.164 174.438C508.154 173.88 507.968 173.488 507.613 173.256C507.259 173.023 506.643 172.846 505.757 172.716C504.871 172.585 504.152 172.427 503.583 172.25C501.755 171.664 500.822 170.49 500.784 168.731C500.766 167.856 500.98 167.027 501.419 166.254C501.857 165.481 502.492 164.811 503.313 164.243C504.134 163.675 505.057 163.275 506.093 163.042C507.1 162.809 508.005 162.8 508.807 163.023C509.61 163.247 510.244 163.675 510.701 164.327C511.158 164.979 511.392 165.779 511.41 166.738L508.042 167.511C508.033 166.869 507.847 166.403 507.492 166.133C507.138 165.863 506.662 165.789 506.065 165.928C505.458 166.068 504.992 166.329 504.647 166.71C504.301 167.092 504.134 167.511 504.143 167.977C504.143 168.386 504.348 168.703 504.74 168.945C505.132 169.187 505.813 169.373 506.783 169.494C507.753 169.615 508.556 169.82 509.19 170.081C510.72 170.714 511.503 171.896 511.531 173.628C511.559 175.015 511.112 176.207 510.207 177.203C509.302 178.209 508.042 178.889 506.428 179.261C505.29 179.522 504.264 179.531 503.331 179.28C502.398 179.038 501.699 178.563 501.223 177.874C500.747 177.185 500.495 176.319 500.477 175.276L503.863 174.494C503.882 175.341 504.087 175.919 504.479 176.235C504.871 176.542 505.505 176.608 506.382 176.403C506.942 176.272 507.38 176.04 507.697 175.695C508.014 175.351 508.173 174.932 508.164 174.438Z" fill="white"/>
<path d="M516.946 176.636L513.578 177.408L513.289 161.599L516.657 160.826L516.946 176.636Z" fill="white"/>
<path d="M530.972 173.395L527.614 174.168L522.473 165.472L522.651 175.313L519.274 176.095L518.984 160.286L522.361 159.503L527.492 168.2L527.315 158.368L530.683 157.595L530.972 173.404V173.395Z" fill="white"/>
<path d="M541.672 164.187L536.364 165.416L536.429 169.196L542.698 167.753L542.754 170.686L533.117 172.911L532.828 157.101L542.493 154.876L542.549 157.818L536.261 159.271L536.327 162.604L541.635 161.375L541.681 164.196L541.672 164.187Z" fill="white"/>
<path d="M551.273 164.494C551.264 163.935 551.077 163.544 550.723 163.311C550.368 163.079 549.752 162.902 548.866 162.771C547.98 162.641 547.262 162.483 546.693 162.306C544.864 161.719 543.931 160.546 543.894 158.786C543.875 157.911 544.09 157.083 544.528 156.31C544.967 155.537 545.601 154.867 546.422 154.299C547.243 153.731 548.167 153.33 549.202 153.098C550.21 152.865 551.114 152.855 551.917 153.079C552.719 153.302 553.353 153.731 553.811 154.382C554.268 155.034 554.501 155.835 554.52 156.794L551.152 157.567C551.142 156.924 550.956 156.459 550.601 156.189C550.247 155.919 549.771 155.844 549.174 155.984C548.568 156.124 548.101 156.384 547.756 156.766C547.411 157.148 547.243 157.567 547.252 158.032C547.252 158.442 547.457 158.758 547.849 159.001C548.241 159.243 548.922 159.429 549.892 159.55C550.863 159.68 551.665 159.876 552.299 160.136C553.829 160.77 554.613 161.952 554.641 163.684C554.669 165.071 554.221 166.263 553.316 167.259C552.411 168.265 551.152 168.944 549.538 169.317C548.4 169.577 547.374 169.587 546.441 169.335C545.508 169.093 544.808 168.618 544.332 167.929C543.856 167.24 543.605 166.375 543.586 165.332L546.972 164.55C546.991 165.397 547.196 165.974 547.588 166.291C547.98 166.598 548.614 166.663 549.491 166.458C550.051 166.328 550.489 166.095 550.807 165.751C551.124 165.406 551.282 164.987 551.273 164.494Z" fill="white"/>
<path d="M563.601 161.645C563.592 161.087 563.405 160.696 563.051 160.463C562.696 160.23 562.081 160.053 561.194 159.923C560.308 159.792 559.59 159.634 559.021 159.457C557.192 158.871 556.259 157.697 556.222 155.938C556.203 155.063 556.418 154.234 556.856 153.461C557.295 152.688 557.929 152.018 558.75 151.45C559.571 150.891 560.495 150.491 561.53 150.249C562.538 150.016 563.443 150.007 564.245 150.23C565.047 150.454 565.682 150.882 566.139 151.534C566.596 152.186 566.829 152.986 566.848 153.945L563.48 154.718C563.471 154.076 563.284 153.61 562.93 153.34C562.575 153.07 562.099 152.996 561.502 153.135C560.896 153.275 560.429 153.536 560.084 153.917C559.739 154.299 559.571 154.718 559.58 155.184C559.58 155.593 559.786 155.91 560.177 156.152C560.569 156.394 561.25 156.58 562.221 156.701C563.191 156.832 563.993 157.027 564.627 157.288C566.157 157.921 566.941 159.103 566.969 160.835C566.997 162.222 566.549 163.414 565.644 164.41C564.739 165.416 563.48 166.096 561.866 166.468C560.728 166.729 559.702 166.738 558.769 166.487C557.836 166.235 557.136 165.77 556.66 165.081C556.185 164.392 555.933 163.526 555.914 162.483L559.301 161.701C559.319 162.548 559.524 163.126 559.916 163.442C560.308 163.759 560.942 163.815 561.819 163.61C562.379 163.479 562.818 163.247 563.135 162.902C563.452 162.558 563.611 162.139 563.601 161.645Z" fill="white"/>
<path d="M479.695 203.087L479.76 206.643L477.53 207.155L477.344 196.672L481.029 195.824C481.738 195.657 482.363 195.666 482.913 195.834C483.464 196.001 483.893 196.327 484.201 196.802C484.508 197.277 484.667 197.863 484.686 198.552C484.704 199.576 484.397 200.461 483.762 201.224C483.128 201.988 482.251 202.5 481.122 202.761L479.704 203.087H479.695ZM479.657 201.141L481.113 200.805C481.542 200.703 481.868 200.508 482.092 200.21C482.316 199.912 482.419 199.539 482.409 199.092C482.409 198.599 482.279 198.236 482.036 198.003C481.794 197.77 481.477 197.686 481.075 197.78L479.592 198.124L479.648 201.15L479.657 201.141Z" fill="white"/>
<path d="M489.359 200.703L488.156 200.982L488.221 204.688L485.991 205.2L485.805 194.716L489.443 193.878C490.535 193.627 491.402 193.701 492.027 194.111C492.652 194.521 492.979 195.228 492.997 196.234C493.007 196.96 492.895 197.593 492.643 198.133C492.391 198.673 491.99 199.157 491.439 199.576L493.445 203.366V203.478L491.057 204.027L489.359 200.694V200.703ZM488.118 199.046L489.527 198.72C489.947 198.627 490.264 198.422 490.479 198.124C490.684 197.826 490.786 197.444 490.777 196.997C490.768 196.55 490.656 196.215 490.432 196.01C490.208 195.806 489.891 195.75 489.471 195.843L488.062 196.169L488.118 199.055V199.046Z" fill="white"/>
<path d="M502.207 196.42C502.226 197.445 502.077 198.385 501.75 199.251C501.433 200.117 500.967 200.834 500.36 201.402C499.754 201.97 499.054 202.342 498.27 202.519C497.487 202.705 496.778 202.659 496.162 202.389C495.546 202.119 495.061 201.644 494.707 200.955C494.352 200.266 494.156 199.437 494.128 198.45V197.864C494.1 196.839 494.25 195.89 494.567 195.033C494.884 194.177 495.35 193.46 495.966 192.882C496.582 192.314 497.282 191.933 498.075 191.756C498.858 191.579 499.558 191.625 500.183 191.905C500.808 192.184 501.293 192.678 501.648 193.376C502.002 194.074 502.189 194.931 502.217 195.936V196.42H502.207ZM499.931 196.504C499.912 195.461 499.744 194.707 499.427 194.242C499.11 193.776 498.662 193.609 498.093 193.739C496.974 194 496.405 195.08 496.377 196.998V197.771C496.405 198.795 496.573 199.549 496.88 200.033C497.188 200.517 497.645 200.694 498.233 200.554C498.793 200.424 499.222 200.052 499.521 199.437C499.819 198.823 499.959 198.013 499.94 196.988V196.504H499.931Z" fill="white"/>
<path d="M506.181 190.024L508.373 196.839L510.295 189.074L513.224 188.395L513.411 198.878L511.181 199.39L511.135 196.942L511.256 191.886L509.157 199.856L507.683 200.2L505.304 193.255L505.612 198.217L505.658 200.666L503.429 201.178L503.242 190.694L506.172 190.015L506.181 190.024Z" fill="white"/>
<path d="M517.204 198.003L514.983 198.515L514.797 188.032L517.017 187.52L517.204 198.003Z" fill="white"/>
<path d="M523.466 193.757C523.466 193.385 523.335 193.124 523.102 192.975C522.869 192.817 522.458 192.705 521.87 192.612C521.292 192.528 520.807 192.416 520.434 192.295C519.221 191.904 518.605 191.131 518.587 189.958C518.577 189.381 518.717 188.832 519.006 188.32C519.296 187.808 519.715 187.361 520.256 186.988C520.798 186.616 521.413 186.346 522.094 186.197C522.757 186.039 523.354 186.039 523.885 186.197C524.417 186.355 524.837 186.634 525.136 187.063C525.434 187.491 525.593 188.022 525.602 188.664L523.382 189.176C523.382 188.748 523.251 188.441 523.018 188.264C522.785 188.078 522.467 188.04 522.076 188.124C521.674 188.217 521.367 188.385 521.143 188.636C520.919 188.888 520.807 189.167 520.807 189.474C520.807 189.744 520.947 189.958 521.199 190.117C521.46 190.275 521.908 190.396 522.551 190.48C523.195 190.564 523.727 190.694 524.137 190.871C525.145 191.29 525.667 192.081 525.686 193.226C525.705 194.139 525.415 194.93 524.809 195.601C524.212 196.262 523.382 196.718 522.318 196.96C521.572 197.137 520.891 197.137 520.275 196.969C519.659 196.802 519.193 196.494 518.885 196.038C518.568 195.582 518.4 195.005 518.391 194.316L520.62 193.804C520.63 194.362 520.77 194.753 521.031 194.958C521.292 195.163 521.712 195.2 522.281 195.07C522.645 194.986 522.943 194.828 523.148 194.595C523.363 194.362 523.456 194.092 523.456 193.757H523.466Z" fill="white"/>
<path d="M532.534 189.996L529.035 190.806L529.082 193.31L533.215 192.351L533.252 194.297L526.89 195.768L526.703 185.285L533.084 183.813L533.122 185.759L528.97 186.718L529.007 188.925L532.506 188.115L532.543 189.986L532.534 189.996Z" fill="white"/>
<path d="M468.439 197.9L469.792 200.638L472.824 201.075L470.632 203.217L471.154 206.224L468.439 204.8L465.725 206.224L466.247 203.217L464.055 201.075L467.087 200.638L468.439 197.9Z" fill="white"/>
<path d="M540.533 182.705L541.886 185.442L544.918 185.88L542.725 188.021L543.248 191.029L540.533 189.604L537.818 191.029L538.341 188.021L536.148 185.88L539.18 185.442L540.533 182.705Z" fill="white"/>
<path d="M513.836 143.033L527.811 141.841L514.34 145.723L513.836 143.033Z" fill="white"/>
<path d="M462.428 153.479L449.172 158.042L463.063 156.152L462.428 153.479Z" fill="white"/>
</g>
<path d="M67.2866 64.0664H62.3866L51.2916 47.3014V64.0664H46.3916V39.6014H51.2916L62.3866 56.4014V39.6014H67.2866V64.0664ZM80.7389 64.3814C78.8722 64.3814 77.1922 63.9731 75.6989 63.1564C74.2055 62.3164 73.0272 61.1381 72.1639 59.6214C71.3239 58.1047 70.9039 56.3547 70.9039 54.3714C70.9039 52.3881 71.3355 50.6381 72.1989 49.1214C73.0855 47.6047 74.2872 46.4381 75.8039 45.6214C77.3205 44.7814 79.0122 44.3614 80.8789 44.3614C82.7455 44.3614 84.4372 44.7814 85.9539 45.6214C87.4705 46.4381 88.6605 47.6047 89.5239 49.1214C90.4105 50.6381 90.8539 52.3881 90.8539 54.3714C90.8539 56.3547 90.3989 58.1047 89.4889 59.6214C88.6022 61.1381 87.3889 62.3164 85.8489 63.1564C84.3322 63.9731 82.6289 64.3814 80.7389 64.3814ZM80.7389 60.1114C81.6255 60.1114 82.4539 59.9014 83.2239 59.4814C84.0172 59.0381 84.6472 58.3847 85.1139 57.5214C85.5805 56.6581 85.8139 55.6081 85.8139 54.3714C85.8139 52.5281 85.3239 51.1164 84.3439 50.1364C83.3872 49.1331 82.2089 48.6314 80.8089 48.6314C79.4089 48.6314 78.2305 49.1331 77.2739 50.1364C76.3405 51.1164 75.8739 52.5281 75.8739 54.3714C75.8739 56.2147 76.3289 57.6381 77.2389 58.6414C78.1722 59.6214 79.3389 60.1114 80.7389 60.1114ZM123.053 39.6364V64.0664H118.153V53.6714H107.688V64.0664H102.788V39.6364H107.688V49.6814H118.153V39.6364H123.053ZM130.361 42.3664C129.498 42.3664 128.774 42.0981 128.191 41.5614C127.631 41.0014 127.351 40.3131 127.351 39.4964C127.351 38.6797 127.631 38.0031 128.191 37.4664C128.774 36.9064 129.498 36.6264 130.361 36.6264C131.224 36.6264 131.936 36.9064 132.496 37.4664C133.079 38.0031 133.371 38.6797 133.371 39.4964C133.371 40.3131 133.079 41.0014 132.496 41.5614C131.936 42.0981 131.224 42.3664 130.361 42.3664ZM132.776 44.6764V64.0664H127.876V44.6764H132.776ZM142.517 47.6864C143.147 46.6597 143.964 45.8547 144.967 45.2714C145.994 44.6881 147.16 44.3964 148.467 44.3964V49.5414H147.172C145.632 49.5414 144.465 49.9031 143.672 50.6264C142.902 51.3497 142.517 52.6097 142.517 54.4064V64.0664H137.617V44.6764H142.517V47.6864ZM169.793 53.9514C169.793 54.6514 169.746 55.2814 169.653 55.8414H155.478C155.594 57.2414 156.084 58.3381 156.948 59.1314C157.811 59.9247 158.873 60.3214 160.133 60.3214C161.953 60.3214 163.248 59.5397 164.018 57.9764H169.303C168.743 59.8431 167.669 61.3831 166.083 62.5964C164.496 63.7864 162.548 64.3814 160.238 64.3814C158.371 64.3814 156.691 63.9731 155.198 63.1564C153.728 62.3164 152.573 61.1381 151.733 59.6214C150.916 58.1047 150.508 56.3547 150.508 54.3714C150.508 52.3647 150.916 50.6031 151.733 49.0864C152.549 47.5697 153.693 46.4031 155.163 45.5864C156.633 44.7697 158.324 44.3614 160.238 44.3614C162.081 44.3614 163.726 44.7581 165.173 45.5514C166.643 46.3447 167.774 47.4764 168.568 48.9464C169.384 50.3931 169.793 52.0614 169.793 53.9514ZM164.718 52.5514C164.694 51.2914 164.239 50.2881 163.353 49.5414C162.466 48.7714 161.381 48.3864 160.098 48.3864C158.884 48.3864 157.858 48.7597 157.018 49.5064C156.201 50.2297 155.699 51.2447 155.513 52.5514H164.718ZM180.194 38.7964C182.621 38.7964 184.569 39.4614 186.039 40.7914C187.532 42.0981 188.279 43.9064 188.279 46.2164C188.279 48.5031 187.544 50.2531 186.074 51.4664C184.604 52.6564 182.656 53.2514 180.229 53.2514L180.089 55.9464H175.784L175.609 49.9964H177.184C179.214 49.9964 180.777 49.7281 181.874 49.1914C182.971 48.6547 183.519 47.6747 183.519 46.2514C183.519 45.2247 183.216 44.4081 182.609 43.8014C182.026 43.1947 181.221 42.8914 180.194 42.8914C179.121 42.8914 178.281 43.1831 177.674 43.7664C177.091 44.3497 176.799 45.1547 176.799 46.1814H172.179C172.156 44.7581 172.459 43.4864 173.089 42.3664C173.719 41.2464 174.641 40.3714 175.854 39.7414C177.091 39.1114 178.537 38.7964 180.194 38.7964ZM177.919 64.3114C177.032 64.3114 176.297 64.0431 175.714 63.5064C175.154 62.9464 174.874 62.2581 174.874 61.4414C174.874 60.6247 175.154 59.9481 175.714 59.4114C176.297 58.8514 177.032 58.5714 177.919 58.5714C178.782 58.5714 179.494 58.8514 180.054 59.4114C180.614 59.9481 180.894 60.6247 180.894 61.4414C180.894 62.2581 180.614 62.9464 180.054 63.5064C179.494 64.0431 178.782 64.3114 177.919 64.3114ZM233.197 39.6364L226.372 64.0664H220.597L216.012 46.6714L211.217 64.0664L205.477 64.1014L198.897 39.6364H204.147L208.452 58.6064L213.422 39.6364H218.882L223.572 58.5014L227.912 39.6364H233.197ZM254.421 53.9514C254.421 54.6514 254.375 55.2814 254.281 55.8414H240.106C240.223 57.2414 240.713 58.3381 241.576 59.1314C242.44 59.9247 243.501 60.3214 244.761 60.3214C246.581 60.3214 247.876 59.5397 248.646 57.9764H253.931C253.371 59.8431 252.298 61.3831 250.711 62.5964C249.125 63.7864 247.176 64.3814 244.866 64.3814C243 64.3814 241.32 63.9731 239.826 63.1564C238.356 62.3164 237.201 61.1381 236.361 59.6214C235.545 58.1047 235.136 56.3547 235.136 54.3714C235.136 52.3647 235.545 50.6031 236.361 49.0864C237.178 47.5697 238.321 46.4031 239.791 45.5864C241.261 44.7697 242.953 44.3614 244.866 44.3614C246.71 44.3614 248.355 44.7581 249.801 45.5514C251.271 46.3447 252.403 47.4764 253.196 48.9464C254.013 50.3931 254.421 52.0614 254.421 53.9514ZM249.346 52.5514C249.323 51.2914 248.868 50.2881 247.981 49.5414C247.095 48.7714 246.01 48.3864 244.726 48.3864C243.513 48.3864 242.486 48.7597 241.646 49.5064C240.83 50.2297 240.328 51.2447 240.141 52.5514H249.346ZM261.078 36.1364L260.658 43.5564H257.333L256.878 36.1364H261.078ZM269.734 38.1664V64.0664H264.834V38.1664H269.734ZM279.475 38.1664V64.0664H274.575V38.1664H279.475ZM297.556 47.6864C298.186 46.6597 299.003 45.8547 300.006 45.2714C301.033 44.6881 302.2 44.3964 303.506 44.3964V49.5414H302.211C300.671 49.5414 299.505 49.9031 298.711 50.6264C297.941 51.3497 297.556 52.6097 297.556 54.4064V64.0664H292.656V44.6764H297.556V47.6864ZM324.832 53.9514C324.832 54.6514 324.785 55.2814 324.692 55.8414H310.517C310.633 57.2414 311.123 58.3381 311.987 59.1314C312.85 59.9247 313.912 60.3214 315.172 60.3214C316.992 60.3214 318.287 59.5397 319.057 57.9764H324.342C323.782 59.8431 322.708 61.3831 321.122 62.5964C319.535 63.7864 317.587 64.3814 315.277 64.3814C313.41 64.3814 311.73 63.9731 310.237 63.1564C308.767 62.3164 307.612 61.1381 306.772 59.6214C305.955 58.1047 305.547 56.3547 305.547 54.3714C305.547 52.3647 305.955 50.6031 306.772 49.0864C307.588 47.5697 308.732 46.4031 310.202 45.5864C311.672 44.7697 313.363 44.3614 315.277 44.3614C317.12 44.3614 318.765 44.7581 320.212 45.5514C321.682 46.3447 322.813 47.4764 323.607 48.9464C324.423 50.3931 324.832 52.0614 324.832 53.9514ZM319.757 52.5514C319.733 51.2914 319.278 50.2881 318.392 49.5414C317.505 48.7714 316.42 48.3864 315.137 48.3864C313.923 48.3864 312.897 48.7597 312.057 49.5064C311.24 50.2297 310.738 51.2447 310.552 52.5514H319.757ZM337.298 48.7014H333.903V64.0664H328.933V48.7014H326.728V44.6764H328.933V43.6964C328.933 41.3164 329.61 39.5664 330.963 38.4464C332.316 37.3264 334.358 36.8014 337.088 36.8714V41.0014C335.898 40.9781 335.07 41.1764 334.603 41.5964C334.136 42.0164 333.903 42.7747 333.903 43.8714V44.6764H337.298V48.7014ZM358.779 44.6764V64.0664H353.844V61.6164C353.214 62.4564 352.385 63.1214 351.359 63.6114C350.355 64.0781 349.259 64.3114 348.069 64.3114C346.552 64.3114 345.21 63.9964 344.044 63.3664C342.877 62.7131 341.955 61.7681 341.279 60.5314C340.625 59.2714 340.299 57.7781 340.299 56.0514V44.6764H345.199V55.3514C345.199 56.8914 345.584 58.0814 346.354 58.9214C347.124 59.7381 348.174 60.1464 349.504 60.1464C350.857 60.1464 351.919 59.7381 352.689 58.9214C353.459 58.0814 353.844 56.8914 353.844 55.3514V44.6764H358.779ZM374.358 44.3964C376.668 44.3964 378.535 45.1314 379.958 46.6014C381.382 48.0481 382.093 50.0781 382.093 52.6914V64.0664H377.193V53.3564C377.193 51.8164 376.808 50.6381 376.038 49.8214C375.268 48.9814 374.218 48.5614 372.888 48.5614C371.535 48.5614 370.462 48.9814 369.668 49.8214C368.898 50.6381 368.513 51.8164 368.513 53.3564V64.0664H363.613V44.6764H368.513V47.0914C369.167 46.2514 369.995 45.5981 370.998 45.1314C372.025 44.6414 373.145 44.3964 374.358 44.3964ZM385.493 54.3014C385.493 52.3414 385.878 50.6031 386.648 49.0864C387.441 47.5697 388.515 46.4031 389.868 45.5864C391.221 44.7697 392.726 44.3614 394.383 44.3614C395.643 44.3614 396.845 44.6414 397.988 45.2014C399.131 45.7381 400.041 46.4614 400.718 47.3714V38.1664H405.688V64.0664H400.718V61.1964C400.111 62.1531 399.26 62.9231 398.163 63.5064C397.066 64.0897 395.795 64.3814 394.348 64.3814C392.715 64.3814 391.221 63.9614 389.868 63.1214C388.515 62.2814 387.441 61.1031 386.648 59.5864C385.878 58.0464 385.493 56.2847 385.493 54.3014ZM400.753 54.3714C400.753 53.1814 400.52 52.1664 400.053 51.3264C399.586 50.4631 398.956 49.8097 398.163 49.3664C397.37 48.8997 396.518 48.6664 395.608 48.6664C394.698 48.6664 393.858 48.8881 393.088 49.3314C392.318 49.7747 391.688 50.4281 391.198 51.2914C390.731 52.1314 390.498 53.1347 390.498 54.3014C390.498 55.4681 390.731 56.4947 391.198 57.3814C391.688 58.2447 392.318 58.9097 393.088 59.3764C393.881 59.8431 394.721 60.0764 395.608 60.0764C396.518 60.0764 397.37 59.8547 398.163 59.4114C398.956 58.9447 399.586 58.2914 400.053 57.4514C400.52 56.5881 400.753 55.5614 400.753 54.3714ZM437.363 44.6764L425.358 73.2364H420.143L424.343 63.5764L416.573 44.6764H422.068L427.073 58.2214L432.148 44.6764H437.363ZM448.615 64.3814C446.748 64.3814 445.068 63.9731 443.575 63.1564C442.082 62.3164 440.903 61.1381 440.04 59.6214C439.2 58.1047 438.78 56.3547 438.78 54.3714C438.78 52.3881 439.212 50.6381 440.075 49.1214C440.962 47.6047 442.163 46.4381 443.68 45.6214C445.197 44.7814 446.888 44.3614 448.755 44.3614C450.622 44.3614 452.313 44.7814 453.83 45.6214C455.347 46.4381 456.537 47.6047 457.4 49.1214C458.287 50.6381 458.73 52.3881 458.73 54.3714C458.73 56.3547 458.275 58.1047 457.365 59.6214C456.478 61.1381 455.265 62.3164 453.725 63.1564C452.208 63.9731 450.505 64.3814 448.615 64.3814ZM448.615 60.1114C449.502 60.1114 450.33 59.9014 451.1 59.4814C451.893 59.0381 452.523 58.3847 452.99 57.5214C453.457 56.6581 453.69 55.6081 453.69 54.3714C453.69 52.5281 453.2 51.1164 452.22 50.1364C451.263 49.1331 450.085 48.6314 448.685 48.6314C447.285 48.6314 446.107 49.1331 445.15 50.1364C444.217 51.1164 443.75 52.5281 443.75 54.3714C443.75 56.2147 444.205 57.6381 445.115 58.6414C446.048 59.6214 447.215 60.1114 448.615 60.1114ZM480.629 44.6764V64.0664H475.694V61.6164C475.064 62.4564 474.236 63.1214 473.209 63.6114C472.206 64.0781 471.109 64.3114 469.919 64.3114C468.403 64.3114 467.061 63.9964 465.894 63.3664C464.728 62.7131 463.806 61.7681 463.129 60.5314C462.476 59.2714 462.149 57.7781 462.149 56.0514V44.6764H467.049V55.3514C467.049 56.8914 467.434 58.0814 468.204 58.9214C468.974 59.7381 470.024 60.1464 471.354 60.1464C472.708 60.1464 473.769 59.7381 474.539 58.9214C475.309 58.0814 475.694 56.8914 475.694 55.3514V44.6764H480.629ZM490.364 47.6864C490.994 46.6597 491.81 45.8547 492.814 45.2714C493.84 44.6881 495.007 44.3964 496.314 44.3964V49.5414H495.019C493.479 49.5414 492.312 49.9031 491.519 50.6264C490.749 51.3497 490.364 52.6097 490.364 54.4064V64.0664H485.464V44.6764H490.364V47.6864ZM45.1316 107.371C45.1316 105.365 45.5399 103.615 46.3566 102.121C47.1732 100.605 48.3049 99.4381 49.7516 98.6214C51.1982 97.7814 52.8549 97.3614 54.7216 97.3614C57.1249 97.3614 59.1082 97.9681 60.6716 99.1814C62.2582 100.371 63.3199 102.051 63.8566 104.221H58.5716C58.2916 103.381 57.8132 102.728 57.1366 102.261C56.4832 101.771 55.6666 101.526 54.6866 101.526C53.2866 101.526 52.1782 102.04 51.3616 103.066C50.5449 104.07 50.1366 105.505 50.1366 107.371C50.1366 109.215 50.5449 110.65 51.3616 111.676C52.1782 112.68 53.2866 113.181 54.6866 113.181C56.6699 113.181 57.9649 112.295 58.5716 110.521H63.8566C63.3199 112.621 62.2582 114.29 60.6716 115.526C59.0849 116.763 57.1016 117.381 54.7216 117.381C52.8549 117.381 51.1982 116.973 49.7516 116.156C48.3049 115.316 47.1732 114.15 46.3566 112.656C45.5399 111.14 45.1316 109.378 45.1316 107.371ZM72.3463 100.686C72.9763 99.6597 73.7929 98.8547 74.7963 98.2714C75.8229 97.6881 76.9896 97.3964 78.2963 97.3964V102.541H77.0013C75.4613 102.541 74.2946 102.903 73.5013 103.626C72.7313 104.35 72.3463 105.61 72.3463 107.406V117.066H67.4463V97.6764H72.3463V100.686ZM99.6216 106.951C99.6216 107.651 99.575 108.281 99.4816 108.841H85.3066C85.4233 110.241 85.9133 111.338 86.7766 112.131C87.64 112.925 88.7016 113.321 89.9616 113.321C91.7816 113.321 93.0766 112.54 93.8466 110.976H99.1316C98.5716 112.843 97.4983 114.383 95.9116 115.596C94.325 116.786 92.3766 117.381 90.0666 117.381C88.2 117.381 86.52 116.973 85.0266 116.156C83.5566 115.316 82.4016 114.138 81.5616 112.621C80.745 111.105 80.3366 109.355 80.3366 107.371C80.3366 105.365 80.745 103.603 81.5616 102.086C82.3783 100.57 83.5216 99.4031 84.9916 98.5864C86.4616 97.7697 88.1533 97.3614 90.0666 97.3614C91.91 97.3614 93.555 97.7581 95.0016 98.5514C96.4716 99.3447 97.6033 100.476 98.3966 101.946C99.2133 103.393 99.6216 105.061 99.6216 106.951ZM94.5466 105.551C94.5233 104.291 94.0683 103.288 93.1816 102.541C92.295 101.771 91.21 101.386 89.9266 101.386C88.7133 101.386 87.6866 101.76 86.8466 102.506C86.03 103.23 85.5283 104.245 85.3416 105.551H94.5466ZM101.938 107.301C101.938 105.341 102.323 103.603 103.093 102.086C103.887 100.57 104.96 99.4031 106.313 98.5864C107.667 97.7697 109.172 97.3614 110.828 97.3614C112.088 97.3614 113.29 97.6414 114.433 98.2014C115.577 98.7381 116.487 99.4614 117.163 100.371V91.1664H122.133V117.066H117.163V114.196C116.557 115.153 115.705 115.923 114.608 116.506C113.512 117.09 112.24 117.381 110.793 117.381C109.16 117.381 107.667 116.961 106.313 116.121C104.96 115.281 103.887 114.103 103.093 112.586C102.323 111.046 101.938 109.285 101.938 107.301ZM117.198 107.371C117.198 106.181 116.965 105.166 116.498 104.326C116.032 103.463 115.402 102.81 114.608 102.366C113.815 101.9 112.963 101.666 112.053 101.666C111.143 101.666 110.303 101.888 109.533 102.331C108.763 102.775 108.133 103.428 107.643 104.291C107.177 105.131 106.943 106.135 106.943 107.301C106.943 108.468 107.177 109.495 107.643 110.381C108.133 111.245 108.763 111.91 109.533 112.376C110.327 112.843 111.167 113.076 112.053 113.076C112.963 113.076 113.815 112.855 114.608 112.411C115.402 111.945 116.032 111.291 116.498 110.451C116.965 109.588 117.198 108.561 117.198 107.371ZM129.404 95.3664C128.541 95.3664 127.817 95.0981 127.234 94.5614C126.674 94.0014 126.394 93.3131 126.394 92.4964C126.394 91.6797 126.674 91.0031 127.234 90.4664C127.817 89.9064 128.541 89.6264 129.404 89.6264C130.267 89.6264 130.979 89.9064 131.539 90.4664C132.122 91.0031 132.414 91.6797 132.414 92.4964C132.414 93.3131 132.122 94.0014 131.539 94.5614C130.979 95.0981 130.267 95.3664 129.404 95.3664ZM131.819 97.6764V117.066H126.919V97.6764H131.819ZM142.365 101.701V111.081C142.365 111.735 142.517 112.213 142.82 112.516C143.147 112.796 143.683 112.936 144.43 112.936H146.705V117.066H143.625C139.495 117.066 137.43 115.06 137.43 111.046V101.701H135.12V97.6764H137.43V92.8814H142.365V97.6764H146.705V101.701H142.365ZM157.649 117.381C156.063 117.381 154.639 117.101 153.379 116.541C152.119 115.958 151.116 115.176 150.369 114.196C149.646 113.216 149.249 112.131 149.179 110.941H154.114C154.208 111.688 154.569 112.306 155.199 112.796C155.853 113.286 156.658 113.531 157.614 113.531C158.548 113.531 159.271 113.345 159.784 112.971C160.321 112.598 160.589 112.12 160.589 111.536C160.589 110.906 160.263 110.44 159.609 110.136C158.979 109.81 157.964 109.46 156.564 109.086C155.118 108.736 153.928 108.375 152.994 108.001C152.084 107.628 151.291 107.056 150.614 106.286C149.961 105.516 149.634 104.478 149.634 103.171C149.634 102.098 149.938 101.118 150.544 100.231C151.174 99.3447 152.061 98.6447 153.204 98.1314C154.371 97.6181 155.736 97.3614 157.299 97.3614C159.609 97.3614 161.453 97.9447 162.829 99.1114C164.206 100.255 164.964 101.806 165.104 103.766H160.414C160.344 102.996 160.018 102.39 159.434 101.946C158.874 101.48 158.116 101.246 157.159 101.246C156.273 101.246 155.584 101.41 155.094 101.736C154.628 102.063 154.394 102.518 154.394 103.101C154.394 103.755 154.721 104.256 155.374 104.606C156.028 104.933 157.043 105.271 158.419 105.621C159.819 105.971 160.974 106.333 161.884 106.706C162.794 107.08 163.576 107.663 164.229 108.456C164.906 109.226 165.256 110.253 165.279 111.536C165.279 112.656 164.964 113.66 164.334 114.546C163.728 115.433 162.841 116.133 161.674 116.646C160.531 117.136 159.189 117.381 157.649 117.381Z" fill="black"/>
<path d="M54.1466 145.746L50.0606 153.558V158.292H48.4226V153.558L44.3186 145.746H46.1366L49.2326 152.1L52.3286 145.746H54.1466ZM60.1763 158.454C59.2523 158.454 58.4123 158.244 57.6563 157.824C56.9123 157.404 56.3243 156.81 55.8923 156.042C55.4723 155.262 55.2623 154.362 55.2623 153.342C55.2623 152.334 55.4783 151.446 55.9103 150.678C56.3543 149.898 56.9543 149.304 57.7103 148.896C58.4663 148.476 59.3123 148.266 60.2483 148.266C61.1843 148.266 62.0303 148.476 62.7863 148.896C63.5423 149.304 64.1363 149.892 64.5683 150.66C65.0123 151.428 65.2343 152.322 65.2343 153.342C65.2343 154.362 65.0063 155.262 64.5503 156.042C64.1063 156.81 63.5003 157.404 62.7323 157.824C61.9643 158.244 61.1123 158.454 60.1763 158.454ZM60.1763 157.014C60.7643 157.014 61.3163 156.876 61.8323 156.6C62.3483 156.324 62.7623 155.91 63.0743 155.358C63.3983 154.806 63.5603 154.134 63.5603 153.342C63.5603 152.55 63.4043 151.878 63.0923 151.326C62.7803 150.774 62.3723 150.366 61.8683 150.102C61.3643 149.826 60.8183 149.688 60.2303 149.688C59.6303 149.688 59.0783 149.826 58.5743 150.102C58.0823 150.366 57.6863 150.774 57.3863 151.326C57.0863 151.878 56.9363 152.55 56.9363 153.342C56.9363 154.146 57.0803 154.824 57.3683 155.376C57.6683 155.928 58.0643 156.342 58.5563 156.618C59.0483 156.882 59.5883 157.014 60.1763 157.014ZM76.136 148.428V158.292H74.498V156.834C74.186 157.338 73.748 157.734 73.184 158.022C72.632 158.298 72.02 158.436 71.348 158.436C70.58 158.436 69.89 158.28 69.278 157.968C68.666 157.644 68.18 157.164 67.82 156.528C67.472 155.892 67.298 155.118 67.298 154.206V148.428H68.918V153.99C68.918 154.962 69.164 155.712 69.656 156.24C70.148 156.756 70.82 157.014 71.672 157.014C72.548 157.014 73.238 156.744 73.742 156.204C74.246 155.664 74.498 154.878 74.498 153.846V148.428H76.136ZM80.5396 150.03C80.8276 149.466 81.2356 149.028 81.7636 148.716C82.3036 148.404 82.9576 148.248 83.7256 148.248V149.94H83.2936C81.4576 149.94 80.5396 150.936 80.5396 152.928V158.292H78.9016V148.428H80.5396V150.03ZM94.4293 149.778H92.3593V158.292H90.7213V149.778H89.4433V148.428H90.7213V147.726C90.7213 146.622 91.0033 145.818 91.5673 145.314C92.1433 144.798 93.0613 144.54 94.3213 144.54V145.908C93.6013 145.908 93.0913 146.052 92.7913 146.34C92.5033 146.616 92.3593 147.078 92.3593 147.726V148.428H94.4293V149.778ZM97.1851 146.826C96.8731 146.826 96.6091 146.718 96.3931 146.502C96.1771 146.286 96.0691 146.022 96.0691 145.71C96.0691 145.398 96.1771 145.134 96.3931 144.918C96.6091 144.702 96.8731 144.594 97.1851 144.594C97.4851 144.594 97.7371 144.702 97.9411 144.918C98.1571 145.134 98.2651 145.398 98.2651 145.71C98.2651 146.022 98.1571 146.286 97.9411 146.502C97.7371 146.718 97.4851 146.826 97.1851 146.826ZM97.9771 148.428V158.292H96.3391V148.428H97.9771ZM102.407 150.03C102.695 149.466 103.103 149.028 103.631 148.716C104.171 148.404 104.825 148.248 105.593 148.248V149.94H105.161C103.325 149.94 102.407 150.936 102.407 152.928V158.292H100.769V148.428H102.407V150.03ZM110.976 158.454C110.22 158.454 109.542 158.328 108.942 158.076C108.342 157.812 107.868 157.452 107.52 156.996C107.172 156.528 106.98 155.994 106.944 155.394H108.636C108.684 155.886 108.912 156.288 109.32 156.6C109.74 156.912 110.286 157.068 110.958 157.068C111.582 157.068 112.074 156.93 112.434 156.654C112.794 156.378 112.974 156.03 112.974 155.61C112.974 155.178 112.782 154.86 112.398 154.656C112.014 154.44 111.42 154.23 110.616 154.026C109.884 153.834 109.284 153.642 108.816 153.45C108.36 153.246 107.964 152.952 107.628 152.568C107.304 152.172 107.142 151.656 107.142 151.02C107.142 150.516 107.292 150.054 107.592 149.634C107.892 149.214 108.318 148.884 108.87 148.644C109.422 148.392 110.052 148.266 110.76 148.266C111.852 148.266 112.734 148.542 113.406 149.094C114.078 149.646 114.438 150.402 114.486 151.362H112.848C112.812 150.846 112.602 150.432 112.218 150.12C111.846 149.808 111.342 149.652 110.706 149.652C110.118 149.652 109.65 149.778 109.302 150.03C108.954 150.282 108.78 150.612 108.78 151.02C108.78 151.344 108.882 151.614 109.086 151.83C109.302 152.034 109.566 152.202 109.878 152.334C110.202 152.454 110.646 152.592 111.21 152.748C111.918 152.94 112.494 153.132 112.938 153.324C113.382 153.504 113.76 153.78 114.072 154.152C114.396 154.524 114.564 155.01 114.576 155.61C114.576 156.15 114.426 156.636 114.126 157.068C113.826 157.5 113.4 157.842 112.848 158.094C112.308 158.334 111.684 158.454 110.976 158.454ZM118.886 149.778V155.592C118.886 156.072 118.988 156.414 119.192 156.618C119.396 156.81 119.75 156.906 120.254 156.906H121.46V158.292H119.984C119.072 158.292 118.388 158.082 117.932 157.662C117.476 157.242 117.248 156.552 117.248 155.592V149.778H115.97V148.428H117.248V145.944H118.886V148.428H121.46V149.778H118.886ZM129.881 150.246C130.205 149.682 130.685 149.214 131.321 148.842C131.969 148.458 132.719 148.266 133.571 148.266C134.447 148.266 135.239 148.476 135.947 148.896C136.667 149.316 137.231 149.91 137.639 150.678C138.047 151.434 138.251 152.316 138.251 153.324C138.251 154.32 138.047 155.208 137.639 155.988C137.231 156.768 136.667 157.374 135.947 157.806C135.239 158.238 134.447 158.454 133.571 158.454C132.731 158.454 131.987 158.268 131.339 157.896C130.703 157.512 130.217 157.038 129.881 156.474V162.972H128.243V148.428H129.881V150.246ZM136.577 153.324C136.577 152.58 136.427 151.932 136.127 151.38C135.827 150.828 135.419 150.408 134.903 150.12C134.399 149.832 133.841 149.688 133.229 149.688C132.629 149.688 132.071 149.838 131.555 150.138C131.051 150.426 130.643 150.852 130.331 151.416C130.031 151.968 129.881 152.61 129.881 153.342C129.881 154.086 130.031 154.74 130.331 155.304C130.643 155.856 131.051 156.282 131.555 156.582C132.071 156.87 132.629 157.014 133.229 157.014C133.841 157.014 134.399 156.87 134.903 156.582C135.419 156.282 135.827 155.856 136.127 155.304C136.427 154.74 136.577 154.08 136.577 153.324ZM139.795 153.324C139.795 152.316 139.999 151.434 140.407 150.678C140.815 149.91 141.373 149.316 142.081 148.896C142.801 148.476 143.599 148.266 144.475 148.266C145.339 148.266 146.089 148.452 146.725 148.824C147.361 149.196 147.835 149.664 148.147 150.228V148.428H149.803V158.292H148.147V156.456C147.823 157.032 147.337 157.512 146.689 157.896C146.053 158.268 145.309 158.454 144.457 158.454C143.581 158.454 142.789 158.238 142.081 157.806C141.373 157.374 140.815 156.768 140.407 155.988C139.999 155.208 139.795 154.32 139.795 153.324ZM148.147 153.342C148.147 152.598 147.997 151.95 147.697 151.398C147.397 150.846 146.989 150.426 146.473 150.138C145.969 149.838 145.411 149.688 144.799 149.688C144.187 149.688 143.629 149.832 143.125 150.12C142.621 150.408 142.219 150.828 141.919 151.38C141.619 151.932 141.469 152.58 141.469 153.324C141.469 154.08 141.619 154.74 141.919 155.304C142.219 155.856 142.621 156.282 143.125 156.582C143.629 156.87 144.187 157.014 144.799 157.014C145.411 157.014 145.969 156.87 146.473 156.582C146.989 156.282 147.397 155.856 147.697 155.304C147.997 154.74 148.147 154.086 148.147 153.342ZM151.96 153.342C151.96 152.322 152.164 151.434 152.572 150.678C152.98 149.91 153.544 149.316 154.264 148.896C154.996 148.476 155.83 148.266 156.766 148.266C157.978 148.266 158.974 148.56 159.754 149.148C160.546 149.736 161.068 150.552 161.32 151.596H159.556C159.388 150.996 159.058 150.522 158.566 150.174C158.086 149.826 157.486 149.652 156.766 149.652C155.83 149.652 155.074 149.976 154.498 150.624C153.922 151.26 153.634 152.166 153.634 153.342C153.634 154.53 153.922 155.448 154.498 156.096C155.074 156.744 155.83 157.068 156.766 157.068C157.486 157.068 158.086 156.9 158.566 156.564C159.046 156.228 159.376 155.748 159.556 155.124H161.32C161.056 156.132 160.528 156.942 159.736 157.554C158.944 158.154 157.954 158.454 156.766 158.454C155.83 158.454 154.996 158.244 154.264 157.824C153.544 157.404 152.98 156.81 152.572 156.042C152.164 155.274 151.96 154.374 151.96 153.342ZM169.013 158.292L165.143 153.936V158.292H163.505V144.972H165.143V152.802L168.941 148.428H171.227L166.583 153.342L171.245 158.292H169.013ZM178.414 146.826C178.102 146.826 177.838 146.718 177.622 146.502C177.406 146.286 177.298 146.022 177.298 145.71C177.298 145.398 177.406 145.134 177.622 144.918C177.838 144.702 178.102 144.594 178.414 144.594C178.714 144.594 178.966 144.702 179.17 144.918C179.386 145.134 179.494 145.398 179.494 145.71C179.494 146.022 179.386 146.286 179.17 146.502C178.966 146.718 178.714 146.826 178.414 146.826ZM179.206 148.428V158.292H177.568V148.428H179.206ZM185.489 158.454C184.733 158.454 184.055 158.328 183.455 158.076C182.855 157.812 182.381 157.452 182.033 156.996C181.685 156.528 181.493 155.994 181.457 155.394H183.149C183.197 155.886 183.425 156.288 183.833 156.6C184.253 156.912 184.799 157.068 185.471 157.068C186.095 157.068 186.587 156.93 186.947 156.654C187.307 156.378 187.487 156.03 187.487 155.61C187.487 155.178 187.295 154.86 186.911 154.656C186.527 154.44 185.933 154.23 185.129 154.026C184.397 153.834 183.797 153.642 183.329 153.45C182.873 153.246 182.477 152.952 182.141 152.568C181.817 152.172 181.655 151.656 181.655 151.02C181.655 150.516 181.805 150.054 182.105 149.634C182.405 149.214 182.831 148.884 183.383 148.644C183.935 148.392 184.565 148.266 185.273 148.266C186.365 148.266 187.247 148.542 187.919 149.094C188.591 149.646 188.951 150.402 188.999 151.362H187.361C187.325 150.846 187.115 150.432 186.731 150.12C186.359 149.808 185.855 149.652 185.219 149.652C184.631 149.652 184.163 149.778 183.815 150.03C183.467 150.282 183.293 150.612 183.293 151.02C183.293 151.344 183.395 151.614 183.599 151.83C183.815 152.034 184.079 152.202 184.391 152.334C184.715 152.454 185.159 152.592 185.723 152.748C186.431 152.94 187.007 153.132 187.451 153.324C187.895 153.504 188.273 153.78 188.585 154.152C188.909 154.524 189.077 155.01 189.089 155.61C189.089 156.15 188.939 156.636 188.639 157.068C188.339 157.5 187.913 157.842 187.361 158.094C186.821 158.334 186.197 158.454 185.489 158.454ZM197.838 150.264C198.174 149.676 198.666 149.196 199.314 148.824C199.962 148.452 200.7 148.266 201.528 148.266C202.416 148.266 203.214 148.476 203.922 148.896C204.63 149.316 205.188 149.91 205.596 150.678C206.004 151.434 206.208 152.316 206.208 153.324C206.208 154.32 206.004 155.208 205.596 155.988C205.188 156.768 204.624 157.374 203.904 157.806C203.196 158.238 202.404 158.454 201.528 158.454C200.676 158.454 199.926 158.268 199.278 157.896C198.642 157.524 198.162 157.05 197.838 156.474V158.292H196.2V144.972H197.838V150.264ZM204.534 153.324C204.534 152.58 204.384 151.932 204.084 151.38C203.784 150.828 203.376 150.408 202.86 150.12C202.356 149.832 201.798 149.688 201.186 149.688C200.586 149.688 200.028 149.838 199.512 150.138C199.008 150.426 198.6 150.852 198.288 151.416C197.988 151.968 197.838 152.61 197.838 153.342C197.838 154.086 197.988 154.74 198.288 155.304C198.6 155.856 199.008 156.282 199.512 156.582C200.028 156.87 200.586 157.014 201.186 157.014C201.798 157.014 202.356 156.87 202.86 156.582C203.376 156.282 203.784 155.856 204.084 155.304C204.384 154.74 204.534 154.08 204.534 153.324ZM207.753 153.324C207.753 152.316 207.957 151.434 208.365 150.678C208.773 149.91 209.331 149.316 210.039 148.896C210.759 148.476 211.557 148.266 212.433 148.266C213.297 148.266 214.047 148.452 214.683 148.824C215.319 149.196 215.793 149.664 216.105 150.228V148.428H217.761V158.292H216.105V156.456C215.781 157.032 215.295 157.512 214.647 157.896C214.011 158.268 213.267 158.454 212.415 158.454C211.539 158.454 210.747 158.238 210.039 157.806C209.331 157.374 208.773 156.768 208.365 155.988C207.957 155.208 207.753 154.32 207.753 153.324ZM216.105 153.342C216.105 152.598 215.955 151.95 215.655 151.398C215.355 150.846 214.947 150.426 214.431 150.138C213.927 149.838 213.369 149.688 212.757 149.688C212.145 149.688 211.587 149.832 211.083 150.12C210.579 150.408 210.177 150.828 209.877 151.38C209.577 151.932 209.427 152.58 209.427 153.324C209.427 154.08 209.577 154.74 209.877 155.304C210.177 155.856 210.579 156.282 211.083 156.582C211.587 156.87 212.145 157.014 212.757 157.014C213.369 157.014 213.927 156.87 214.431 156.582C214.947 156.282 215.355 155.856 215.655 155.304C215.955 154.74 216.105 154.086 216.105 153.342ZM219.917 153.342C219.917 152.322 220.121 151.434 220.529 150.678C220.937 149.91 221.501 149.316 222.221 148.896C222.953 148.476 223.787 148.266 224.723 148.266C225.935 148.266 226.931 148.56 227.711 149.148C228.503 149.736 229.025 150.552 229.277 151.596H227.513C227.345 150.996 227.015 150.522 226.523 150.174C226.043 149.826 225.443 149.652 224.723 149.652C223.787 149.652 223.031 149.976 222.455 150.624C221.879 151.26 221.591 152.166 221.591 153.342C221.591 154.53 221.879 155.448 222.455 156.096C223.031 156.744 223.787 157.068 224.723 157.068C225.443 157.068 226.043 156.9 226.523 156.564C227.003 156.228 227.333 155.748 227.513 155.124H229.277C229.013 156.132 228.485 156.942 227.693 157.554C226.901 158.154 225.911 158.454 224.723 158.454C223.787 158.454 222.953 158.244 222.221 157.824C221.501 157.404 220.937 156.81 220.529 156.042C220.121 155.274 219.917 154.374 219.917 153.342ZM236.97 158.292L233.1 153.936V158.292H231.462V144.972H233.1V152.802L236.898 148.428H239.184L234.54 153.342L239.202 158.292H236.97ZM249.726 152.982C249.726 153.294 249.708 153.624 249.672 153.972H241.788C241.848 154.944 242.178 155.706 242.778 156.258C243.39 156.798 244.128 157.068 244.992 157.068C245.7 157.068 246.288 156.906 246.756 156.582C247.236 156.246 247.572 155.802 247.764 155.25H249.528C249.264 156.198 248.736 156.972 247.944 157.572C247.152 158.16 246.168 158.454 244.992 158.454C244.056 158.454 243.216 158.244 242.472 157.824C241.74 157.404 241.164 156.81 240.744 156.042C240.324 155.262 240.114 154.362 240.114 153.342C240.114 152.322 240.318 151.428 240.726 150.66C241.134 149.892 241.704 149.304 242.436 148.896C243.18 148.476 244.032 148.266 244.992 148.266C245.928 148.266 246.756 148.47 247.476 148.878C248.196 149.286 248.748 149.85 249.132 150.57C249.528 151.278 249.726 152.082 249.726 152.982ZM248.034 152.64C248.034 152.016 247.896 151.482 247.62 151.038C247.344 150.582 246.966 150.24 246.486 150.012C246.018 149.772 245.496 149.652 244.92 149.652C244.092 149.652 243.384 149.916 242.796 150.444C242.22 150.972 241.89 151.704 241.806 152.64H248.034ZM251.276 153.324C251.276 152.316 251.48 151.434 251.888 150.678C252.296 149.91 252.854 149.316 253.562 148.896C254.282 148.476 255.086 148.266 255.974 148.266C256.742 148.266 257.456 148.446 258.116 148.806C258.776 149.154 259.28 149.616 259.628 150.192V144.972H261.284V158.292H259.628V156.438C259.304 157.026 258.824 157.512 258.188 157.896C257.552 158.268 256.808 158.454 255.956 158.454C255.08 158.454 254.282 158.238 253.562 157.806C252.854 157.374 252.296 156.768 251.888 155.988C251.48 155.208 251.276 154.32 251.276 153.324ZM259.628 153.342C259.628 152.598 259.478 151.95 259.178 151.398C258.878 150.846 258.47 150.426 257.954 150.138C257.45 149.838 256.892 149.688 256.28 149.688C255.668 149.688 255.11 149.832 254.606 150.12C254.102 150.408 253.7 150.828 253.4 151.38C253.1 151.932 252.95 152.58 252.95 153.324C252.95 154.08 253.1 154.74 253.4 155.304C253.7 155.856 254.102 156.282 254.606 156.582C255.11 156.87 255.668 157.014 256.28 157.014C256.892 157.014 257.45 156.87 257.954 156.582C258.47 156.282 258.878 155.856 259.178 155.304C259.478 154.74 259.628 154.086 259.628 153.342ZM270.489 150.264C270.825 149.676 271.317 149.196 271.965 148.824C272.613 148.452 273.351 148.266 274.179 148.266C275.067 148.266 275.865 148.476 276.573 148.896C277.281 149.316 277.839 149.91 278.247 150.678C278.655 151.434 278.859 152.316 278.859 153.324C278.859 154.32 278.655 155.208 278.247 155.988C277.839 156.768 277.275 157.374 276.555 157.806C275.847 158.238 275.055 158.454 274.179 158.454C273.327 158.454 272.577 158.268 271.929 157.896C271.293 157.524 270.813 157.05 270.489 156.474V158.292H268.851V144.972H270.489V150.264ZM277.185 153.324C277.185 152.58 277.035 151.932 276.735 151.38C276.435 150.828 276.027 150.408 275.511 150.12C275.007 149.832 274.449 149.688 273.837 149.688C273.237 149.688 272.679 149.838 272.163 150.138C271.659 150.426 271.251 150.852 270.939 151.416C270.639 151.968 270.489 152.61 270.489 153.342C270.489 154.086 270.639 154.74 270.939 155.304C271.251 155.856 271.659 156.282 272.163 156.582C272.679 156.87 273.237 157.014 273.837 157.014C274.449 157.014 275.007 156.87 275.511 156.582C276.027 156.282 276.435 155.856 276.735 155.304C277.035 154.74 277.185 154.08 277.185 153.324ZM289.511 148.428L283.571 162.936H281.879L283.823 158.184L279.845 148.428H281.663L284.759 156.42L287.819 148.428H289.511ZM300.258 158.454C299.334 158.454 298.494 158.244 297.738 157.824C296.994 157.404 296.406 156.81 295.974 156.042C295.554 155.262 295.344 154.362 295.344 153.342C295.344 152.334 295.56 151.446 295.992 150.678C296.436 149.898 297.036 149.304 297.792 148.896C298.548 148.476 299.394 148.266 300.33 148.266C301.266 148.266 302.112 148.476 302.868 148.896C303.624 149.304 304.218 149.892 304.65 150.66C305.094 151.428 305.316 152.322 305.316 153.342C305.316 154.362 305.088 155.262 304.632 156.042C304.188 156.81 303.582 157.404 302.814 157.824C302.046 158.244 301.194 158.454 300.258 158.454ZM300.258 157.014C300.846 157.014 301.398 156.876 301.914 156.6C302.43 156.324 302.844 155.91 303.156 155.358C303.48 154.806 303.642 154.134 303.642 153.342C303.642 152.55 303.486 151.878 303.174 151.326C302.862 150.774 302.454 150.366 301.95 150.102C301.446 149.826 300.9 149.688 300.312 149.688C299.712 149.688 299.16 149.826 298.656 150.102C298.164 150.366 297.768 150.774 297.468 151.326C297.168 151.878 297.018 152.55 297.018 153.342C297.018 154.146 297.162 154.824 297.45 155.376C297.75 155.928 298.146 156.342 298.638 156.618C299.13 156.882 299.67 157.014 300.258 157.014ZM316.218 148.428V158.292H314.58V156.834C314.268 157.338 313.83 157.734 313.266 158.022C312.714 158.298 312.102 158.436 311.43 158.436C310.662 158.436 309.972 158.28 309.36 157.968C308.748 157.644 308.262 157.164 307.902 156.528C307.554 155.892 307.38 155.118 307.38 154.206V148.428H309V153.99C309 154.962 309.246 155.712 309.738 156.24C310.23 156.756 310.902 157.014 311.754 157.014C312.63 157.014 313.32 156.744 313.824 156.204C314.328 155.664 314.58 154.878 314.58 153.846V148.428H316.218ZM320.622 150.03C320.91 149.466 321.318 149.028 321.846 148.716C322.386 148.404 323.04 148.248 323.808 148.248V149.94H323.376C321.54 149.94 320.622 150.936 320.622 152.928V158.292H318.984V148.428H320.622V150.03ZM340.001 149.382C339.653 148.65 339.149 148.086 338.489 147.69C337.829 147.282 337.061 147.078 336.185 147.078C335.309 147.078 334.517 147.282 333.809 147.69C333.113 148.086 332.561 148.662 332.153 149.418C331.757 150.162 331.559 151.026 331.559 152.01C331.559 152.994 331.757 153.858 332.153 154.602C332.561 155.346 333.113 155.922 333.809 156.33C334.517 156.726 335.309 156.924 336.185 156.924C337.409 156.924 338.417 156.558 339.209 155.826C340.001 155.094 340.463 154.104 340.595 152.856H335.591V151.524H342.341V152.784C342.245 153.816 341.921 154.764 341.369 155.628C340.817 156.48 340.091 157.158 339.191 157.662C338.291 158.154 337.289 158.4 336.185 158.4C335.021 158.4 333.959 158.13 332.999 157.59C332.039 157.038 331.277 156.276 330.713 155.304C330.161 154.332 329.885 153.234 329.885 152.01C329.885 150.786 330.161 149.688 330.713 148.716C331.277 147.732 332.039 146.97 332.999 146.43C333.959 145.878 335.021 145.602 336.185 145.602C337.517 145.602 338.693 145.932 339.713 146.592C340.745 147.252 341.495 148.182 341.963 149.382H340.001ZM353.507 152.982C353.507 153.294 353.489 153.624 353.453 153.972H345.569C345.629 154.944 345.959 155.706 346.559 156.258C347.171 156.798 347.909 157.068 348.773 157.068C349.481 157.068 350.069 156.906 350.537 156.582C351.017 156.246 351.353 155.802 351.545 155.25H353.309C353.045 156.198 352.517 156.972 351.725 157.572C350.933 158.16 349.949 158.454 348.773 158.454C347.837 158.454 346.997 158.244 346.253 157.824C345.521 157.404 344.945 156.81 344.525 156.042C344.105 155.262 343.895 154.362 343.895 153.342C343.895 152.322 344.099 151.428 344.507 150.66C344.915 149.892 345.485 149.304 346.217 148.896C346.961 148.476 347.813 148.266 348.773 148.266C349.709 148.266 350.537 148.47 351.257 148.878C351.977 149.286 352.529 149.85 352.913 150.57C353.309 151.278 353.507 152.082 353.507 152.982ZM351.815 152.64C351.815 152.016 351.677 151.482 351.401 151.038C351.125 150.582 350.747 150.24 350.267 150.012C349.799 149.772 349.277 149.652 348.701 149.652C347.873 149.652 347.165 149.916 346.577 150.444C346.001 150.972 345.671 151.704 345.587 152.64H351.815ZM357.667 149.778V155.592C357.667 156.072 357.769 156.414 357.973 156.618C358.177 156.81 358.531 156.906 359.035 156.906H360.241V158.292H358.765C357.853 158.292 357.169 158.082 356.713 157.662C356.257 157.242 356.029 156.552 356.029 155.592V149.778H354.751V148.428H356.029V145.944H357.667V148.428H360.241V149.778H357.667ZM55.0286 172.746V185.292H53.3906V179.604H47.0006V185.292H45.3626V172.746H47.0006V178.254H53.3906V172.746H55.0286ZM58.6715 173.826C58.3595 173.826 58.0955 173.718 57.8795 173.502C57.6635 173.286 57.5555 173.022 57.5555 172.71C57.5555 172.398 57.6635 172.134 57.8795 171.918C58.0955 171.702 58.3595 171.594 58.6715 171.594C58.9715 171.594 59.2235 171.702 59.4275 171.918C59.6435 172.134 59.7515 172.398 59.7515 172.71C59.7515 173.022 59.6435 173.286 59.4275 173.502C59.2235 173.718 58.9715 173.826 58.6715 173.826ZM59.4635 175.428V185.292H57.8255V175.428H59.4635ZM63.8931 177.03C64.1811 176.466 64.5891 176.028 65.1171 175.716C65.6571 175.404 66.3111 175.248 67.0791 175.248V176.94H66.6471C64.8111 176.94 63.8931 177.936 63.8931 179.928V185.292H62.2551V175.428H63.8931V177.03ZM77.97 179.982C77.97 180.294 77.952 180.624 77.916 180.972H70.032C70.092 181.944 70.422 182.706 71.022 183.258C71.634 183.798 72.372 184.068 73.236 184.068C73.944 184.068 74.532 183.906 75 183.582C75.48 183.246 75.816 182.802 76.008 182.25H77.772C77.508 183.198 76.98 183.972 76.188 184.572C75.396 185.16 74.412 185.454 73.236 185.454C72.3 185.454 71.46 185.244 70.716 184.824C69.984 184.404 69.408 183.81 68.988 183.042C68.568 182.262 68.358 181.362 68.358 180.342C68.358 179.322 68.562 178.428 68.97 177.66C69.378 176.892 69.948 176.304 70.68 175.896C71.424 175.476 72.276 175.266 73.236 175.266C74.172 175.266 75 175.47 75.72 175.878C76.44 176.286 76.992 176.85 77.376 177.57C77.772 178.278 77.97 179.082 77.97 179.982ZM76.278 179.64C76.278 179.016 76.14 178.482 75.864 178.038C75.588 177.582 75.21 177.24 74.73 177.012C74.262 176.772 73.74 176.652 73.164 176.652C72.336 176.652 71.628 176.916 71.04 177.444C70.464 177.972 70.134 178.704 70.05 179.64H76.278ZM79.5201 180.324C79.5201 179.316 79.7241 178.434 80.1321 177.678C80.5401 176.91 81.0981 176.316 81.8061 175.896C82.5261 175.476 83.3301 175.266 84.2181 175.266C84.9861 175.266 85.7001 175.446 86.3601 175.806C87.0201 176.154 87.5241 176.616 87.8721 177.192V171.972H89.5281V185.292H87.8721V183.438C87.5481 184.026 87.0681 184.512 86.4321 184.896C85.7961 185.268 85.0521 185.454 84.2001 185.454C83.3241 185.454 82.5261 185.238 81.8061 184.806C81.0981 184.374 80.5401 183.768 80.1321 182.988C79.7241 182.208 79.5201 181.32 79.5201 180.324ZM87.8721 180.342C87.8721 179.598 87.7221 178.95 87.4221 178.398C87.1221 177.846 86.7141 177.426 86.1981 177.138C85.6941 176.838 85.1361 176.688 84.5241 176.688C83.9121 176.688 83.3541 176.832 82.8501 177.12C82.3461 177.408 81.9441 177.828 81.6441 178.38C81.3441 178.932 81.1941 179.58 81.1941 180.324C81.1941 181.08 81.3441 181.74 81.6441 182.304C81.9441 182.856 82.3461 183.282 82.8501 183.582C83.3541 183.87 83.9121 184.014 84.5241 184.014C85.1361 184.014 85.6941 183.87 86.1981 183.582C86.7141 183.282 87.1221 182.856 87.4221 182.304C87.7221 181.74 87.8721 181.086 87.8721 180.342ZM106.599 176.382C106.251 175.65 105.747 175.086 105.087 174.69C104.427 174.282 103.659 174.078 102.783 174.078C101.907 174.078 101.115 174.282 100.407 174.69C99.711 175.086 99.159 175.662 98.751 176.418C98.355 177.162 98.157 178.026 98.157 179.01C98.157 179.994 98.355 180.858 98.751 181.602C99.159 182.346 99.711 182.922 100.407 183.33C101.115 183.726 101.907 183.924 102.783 183.924C104.007 183.924 105.015 183.558 105.807 182.826C106.599 182.094 107.061 181.104 107.193 179.856H102.189V178.524H108.939V179.784C108.843 180.816 108.519 181.764 107.967 182.628C107.415 183.48 106.689 184.158 105.789 184.662C104.889 185.154 103.887 185.4 102.783 185.4C101.619 185.4 100.557 185.13 99.597 184.59C98.637 184.038 97.875 183.276 97.311 182.304C96.759 181.332 96.483 180.234 96.483 179.01C96.483 177.786 96.759 176.688 97.311 175.716C97.875 174.732 98.637 173.97 99.597 173.43C100.557 172.878 101.619 172.602 102.783 172.602C104.115 172.602 105.291 172.932 106.311 173.592C107.343 174.252 108.093 175.182 108.561 176.382H106.599ZM119.853 175.428V185.292H118.215V183.834C117.903 184.338 117.465 184.734 116.901 185.022C116.349 185.298 115.737 185.436 115.065 185.436C114.297 185.436 113.607 185.28 112.995 184.968C112.383 184.644 111.897 184.164 111.537 183.528C111.189 182.892 111.015 182.118 111.015 181.206V175.428H112.635V180.99C112.635 181.962 112.881 182.712 113.373 183.24C113.865 183.756 114.537 184.014 115.389 184.014C116.265 184.014 116.955 183.744 117.459 183.204C117.963 182.664 118.215 181.878 118.215 180.846V175.428H119.853ZM124.256 177.03C124.544 176.466 124.952 176.028 125.48 175.716C126.02 175.404 126.674 175.248 127.442 175.248V176.94H127.01C125.174 176.94 124.256 177.936 124.256 179.928V185.292H122.618V175.428H124.256V177.03ZM128.721 180.324C128.721 179.316 128.925 178.434 129.333 177.678C129.741 176.91 130.299 176.316 131.007 175.896C131.727 175.476 132.525 175.266 133.401 175.266C134.265 175.266 135.015 175.452 135.651 175.824C136.287 176.196 136.761 176.664 137.073 177.228V175.428H138.729V185.292H137.073V183.456C136.749 184.032 136.263 184.512 135.615 184.896C134.979 185.268 134.235 185.454 133.383 185.454C132.507 185.454 131.715 185.238 131.007 184.806C130.299 184.374 129.741 183.768 129.333 182.988C128.925 182.208 128.721 181.32 128.721 180.324ZM137.073 180.342C137.073 179.598 136.923 178.95 136.623 178.398C136.323 177.846 135.915 177.426 135.399 177.138C134.895 176.838 134.337 176.688 133.725 176.688C133.113 176.688 132.555 176.832 132.051 177.12C131.547 177.408 131.145 177.828 130.845 178.38C130.545 178.932 130.395 179.58 130.395 180.324C130.395 181.08 130.545 181.74 130.845 182.304C131.145 182.856 131.547 183.282 132.051 183.582C132.555 183.87 133.113 184.014 133.725 184.014C134.337 184.014 134.895 183.87 135.399 183.582C135.915 183.282 136.323 182.856 136.623 182.304C136.923 181.74 137.073 181.086 137.073 180.342ZM146.303 175.248C147.503 175.248 148.475 175.614 149.219 176.346C149.963 177.066 150.335 178.11 150.335 179.478V185.292H148.715V179.712C148.715 178.728 148.469 177.978 147.977 177.462C147.485 176.934 146.813 176.67 145.961 176.67C145.097 176.67 144.407 176.94 143.891 177.48C143.387 178.02 143.135 178.806 143.135 179.838V185.292H141.497V175.428H143.135V176.832C143.459 176.328 143.897 175.938 144.449 175.662C145.013 175.386 145.631 175.248 146.303 175.248ZM155.009 176.778V182.592C155.009 183.072 155.111 183.414 155.315 183.618C155.519 183.81 155.873 183.906 156.377 183.906H157.583V185.292H156.107C155.195 185.292 154.511 185.082 154.055 184.662C153.599 184.242 153.371 183.552 153.371 182.592V176.778H152.093V175.428H153.371V172.944H155.009V175.428H157.583V176.778H155.009ZM168.568 179.982C168.568 180.294 168.55 180.624 168.514 180.972H160.63C160.69 181.944 161.02 182.706 161.62 183.258C162.232 183.798 162.97 184.068 163.834 184.068C164.542 184.068 165.13 183.906 165.598 183.582C166.078 183.246 166.414 182.802 166.606 182.25H168.37C168.106 183.198 167.578 183.972 166.786 184.572C165.994 185.16 165.01 185.454 163.834 185.454C162.898 185.454 162.058 185.244 161.314 184.824C160.582 184.404 160.006 183.81 159.586 183.042C159.166 182.262 158.956 181.362 158.956 180.342C158.956 179.322 159.16 178.428 159.568 177.66C159.976 176.892 160.546 176.304 161.278 175.896C162.022 175.476 162.874 175.266 163.834 175.266C164.77 175.266 165.598 175.47 166.318 175.878C167.038 176.286 167.59 176.85 167.974 177.57C168.37 178.278 168.568 179.082 168.568 179.982ZM166.876 179.64C166.876 179.016 166.738 178.482 166.462 178.038C166.186 177.582 165.808 177.24 165.328 177.012C164.86 176.772 164.338 176.652 163.762 176.652C162.934 176.652 162.226 176.916 161.638 177.444C161.062 177.972 160.732 178.704 160.648 179.64H166.876ZM179.73 179.982C179.73 180.294 179.712 180.624 179.676 180.972H171.792C171.852 181.944 172.182 182.706 172.782 183.258C173.394 183.798 174.132 184.068 174.996 184.068C175.704 184.068 176.292 183.906 176.76 183.582C177.24 183.246 177.576 182.802 177.768 182.25H179.532C179.268 183.198 178.74 183.972 177.948 184.572C177.156 185.16 176.172 185.454 174.996 185.454C174.06 185.454 173.22 185.244 172.476 184.824C171.744 184.404 171.168 183.81 170.748 183.042C170.328 182.262 170.118 181.362 170.118 180.342C170.118 179.322 170.322 178.428 170.73 177.66C171.138 176.892 171.708 176.304 172.44 175.896C173.184 175.476 174.036 175.266 174.996 175.266C175.932 175.266 176.76 175.47 177.48 175.878C178.2 176.286 178.752 176.85 179.136 177.57C179.532 178.278 179.73 179.082 179.73 179.982ZM178.038 179.64C178.038 179.016 177.9 178.482 177.624 178.038C177.348 177.582 176.97 177.24 176.49 177.012C176.022 176.772 175.5 176.652 174.924 176.652C174.096 176.652 173.388 176.916 172.8 177.444C172.224 177.972 171.894 178.704 171.81 179.64H178.038ZM182.414 185.4C182.102 185.4 181.838 185.292 181.622 185.076C181.406 184.86 181.298 184.596 181.298 184.284C181.298 183.972 181.406 183.708 181.622 183.492C181.838 183.276 182.102 183.168 182.414 183.168C182.714 183.168 182.966 183.276 183.17 183.492C183.386 183.708 183.494 183.972 183.494 184.284C183.494 184.596 183.386 184.86 183.17 185.076C182.966 185.292 182.714 185.4 182.414 185.4ZM198.192 172.746V174.078H194.772V185.292H193.134V174.078H189.696V172.746H198.192ZM205.104 175.248C205.848 175.248 206.52 175.41 207.12 175.734C207.72 176.046 208.188 176.52 208.524 177.156C208.872 177.792 209.046 178.566 209.046 179.478V185.292H207.426V179.712C207.426 178.728 207.18 177.978 206.688 177.462C206.196 176.934 205.524 176.67 204.672 176.67C203.808 176.67 203.118 176.94 202.602 177.48C202.098 178.02 201.846 178.806 201.846 179.838V185.292H200.208V171.972H201.846V176.832C202.17 176.328 202.614 175.938 203.178 175.662C203.754 175.386 204.396 175.248 205.104 175.248ZM216.024 185.454C215.1 185.454 214.26 185.244 213.504 184.824C212.76 184.404 212.172 183.81 211.74 183.042C211.32 182.262 211.11 181.362 211.11 180.342C211.11 179.334 211.326 178.446 211.758 177.678C212.202 176.898 212.802 176.304 213.558 175.896C214.314 175.476 215.16 175.266 216.096 175.266C217.032 175.266 217.878 175.476 218.634 175.896C219.39 176.304 219.984 176.892 220.416 177.66C220.86 178.428 221.082 179.322 221.082 180.342C221.082 181.362 220.854 182.262 220.398 183.042C219.954 183.81 219.348 184.404 218.58 184.824C217.812 185.244 216.96 185.454 216.024 185.454ZM216.024 184.014C216.612 184.014 217.164 183.876 217.68 183.6C218.196 183.324 218.61 182.91 218.922 182.358C219.246 181.806 219.408 181.134 219.408 180.342C219.408 179.55 219.252 178.878 218.94 178.326C218.628 177.774 218.22 177.366 217.716 177.102C217.212 176.826 216.666 176.688 216.078 176.688C215.478 176.688 214.926 176.826 214.422 177.102C213.93 177.366 213.534 177.774 213.234 178.326C212.934 178.878 212.784 179.55 212.784 180.342C212.784 181.146 212.928 181.824 213.216 182.376C213.516 182.928 213.912 183.342 214.404 183.618C214.896 183.882 215.436 184.014 216.024 184.014ZM226.728 185.454C225.972 185.454 225.294 185.328 224.694 185.076C224.094 184.812 223.62 184.452 223.272 183.996C222.924 183.528 222.732 182.994 222.696 182.394H224.388C224.436 182.886 224.664 183.288 225.072 183.6C225.492 183.912 226.038 184.068 226.71 184.068C227.334 184.068 227.826 183.93 228.186 183.654C228.546 183.378 228.726 183.03 228.726 182.61C228.726 182.178 228.534 181.86 228.15 181.656C227.766 181.44 227.172 181.23 226.368 181.026C225.636 180.834 225.036 180.642 224.568 180.45C224.112 180.246 223.716 179.952 223.38 179.568C223.056 179.172 222.894 178.656 222.894 178.02C222.894 177.516 223.044 177.054 223.344 176.634C223.644 176.214 224.07 175.884 224.622 175.644C225.174 175.392 225.804 175.266 226.512 175.266C227.604 175.266 228.486 175.542 229.158 176.094C229.83 176.646 230.19 177.402 230.238 178.362H228.6C228.564 177.846 228.354 177.432 227.97 177.12C227.598 176.808 227.094 176.652 226.458 176.652C225.87 176.652 225.402 176.778 225.054 177.03C224.706 177.282 224.532 177.612 224.532 178.02C224.532 178.344 224.634 178.614 224.838 178.83C225.054 179.034 225.318 179.202 225.63 179.334C225.954 179.454 226.398 179.592 226.962 179.748C227.67 179.94 228.246 180.132 228.69 180.324C229.134 180.504 229.512 180.78 229.824 181.152C230.148 181.524 230.316 182.01 230.328 182.61C230.328 183.15 230.178 183.636 229.878 184.068C229.578 184.5 229.152 184.842 228.6 185.094C228.06 185.334 227.436 185.454 226.728 185.454ZM241.64 179.982C241.64 180.294 241.622 180.624 241.586 180.972H233.702C233.762 181.944 234.092 182.706 234.692 183.258C235.304 183.798 236.042 184.068 236.906 184.068C237.614 184.068 238.202 183.906 238.67 183.582C239.15 183.246 239.486 182.802 239.678 182.25H241.442C241.178 183.198 240.65 183.972 239.858 184.572C239.066 185.16 238.082 185.454 236.906 185.454C235.97 185.454 235.13 185.244 234.386 184.824C233.654 184.404 233.078 183.81 232.658 183.042C232.238 182.262 232.028 181.362 232.028 180.342C232.028 179.322 232.232 178.428 232.64 177.66C233.048 176.892 233.618 176.304 234.35 175.896C235.094 175.476 235.946 175.266 236.906 175.266C237.842 175.266 238.67 175.47 239.39 175.878C240.11 176.286 240.662 176.85 241.046 177.57C241.442 178.278 241.64 179.082 241.64 179.982ZM239.948 179.64C239.948 179.016 239.81 178.482 239.534 178.038C239.258 177.582 238.88 177.24 238.4 177.012C237.932 176.772 237.41 176.652 236.834 176.652C236.006 176.652 235.298 176.916 234.71 177.444C234.134 177.972 233.804 178.704 233.72 179.64H239.948ZM261.741 175.428L258.663 185.292H256.971L254.595 177.462L252.219 185.292H250.527L247.431 175.428H249.105L251.373 183.708L253.821 175.428H255.495L257.889 183.726L260.121 175.428H261.741ZM268.262 175.248C269.006 175.248 269.678 175.41 270.278 175.734C270.878 176.046 271.346 176.52 271.682 177.156C272.03 177.792 272.204 178.566 272.204 179.478V185.292H270.584V179.712C270.584 178.728 270.338 177.978 269.846 177.462C269.354 176.934 268.682 176.67 267.83 176.67C266.966 176.67 266.276 176.94 265.76 177.48C265.256 178.02 265.004 178.806 265.004 179.838V185.292H263.366V171.972H265.004V176.832C265.328 176.328 265.772 175.938 266.336 175.662C266.912 175.386 267.554 175.248 268.262 175.248ZM279.182 185.454C278.258 185.454 277.418 185.244 276.662 184.824C275.918 184.404 275.33 183.81 274.898 183.042C274.478 182.262 274.268 181.362 274.268 180.342C274.268 179.334 274.484 178.446 274.916 177.678C275.36 176.898 275.96 176.304 276.716 175.896C277.472 175.476 278.318 175.266 279.254 175.266C280.19 175.266 281.036 175.476 281.792 175.896C282.548 176.304 283.142 176.892 283.574 177.66C284.018 178.428 284.24 179.322 284.24 180.342C284.24 181.362 284.012 182.262 283.556 183.042C283.112 183.81 282.506 184.404 281.738 184.824C280.97 185.244 280.118 185.454 279.182 185.454ZM279.182 184.014C279.77 184.014 280.322 183.876 280.838 183.6C281.354 183.324 281.768 182.91 282.08 182.358C282.404 181.806 282.566 181.134 282.566 180.342C282.566 179.55 282.41 178.878 282.098 178.326C281.786 177.774 281.378 177.366 280.874 177.102C280.37 176.826 279.824 176.688 279.236 176.688C278.636 176.688 278.084 176.826 277.58 177.102C277.088 177.366 276.692 177.774 276.392 178.326C276.092 178.878 275.942 179.55 275.942 180.342C275.942 181.146 276.086 181.824 276.374 182.376C276.674 182.928 277.07 183.342 277.562 183.618C278.054 183.882 278.594 184.014 279.182 184.014ZM293.191 176.778V182.592C293.191 183.072 293.293 183.414 293.497 183.618C293.701 183.81 294.055 183.906 294.559 183.906H295.765V185.292H294.289C293.377 185.292 292.693 185.082 292.237 184.662C291.781 184.242 291.553 183.552 291.553 182.592V176.778H290.275V175.428H291.553V172.944H293.191V175.428H295.765V176.778H293.191ZM299.387 177.03C299.675 176.466 300.083 176.028 300.611 175.716C301.151 175.404 301.805 175.248 302.573 175.248V176.94H302.141C300.305 176.94 299.387 177.936 299.387 179.928V185.292H297.749V175.428H299.387V177.03ZM312.96 175.428L307.02 189.936H305.328L307.272 185.184L303.294 175.428H305.112L308.208 183.42L311.268 175.428H312.96ZM318.794 180.324C318.794 179.316 318.998 178.434 319.406 177.678C319.814 176.91 320.372 176.316 321.08 175.896C321.8 175.476 322.598 175.266 323.474 175.266C324.338 175.266 325.088 175.452 325.724 175.824C326.36 176.196 326.834 176.664 327.146 177.228V175.428H328.802V185.292H327.146V183.456C326.822 184.032 326.336 184.512 325.688 184.896C325.052 185.268 324.308 185.454 323.456 185.454C322.58 185.454 321.788 185.238 321.08 184.806C320.372 184.374 319.814 183.768 319.406 182.988C318.998 182.208 318.794 181.32 318.794 180.324ZM327.146 180.342C327.146 179.598 326.996 178.95 326.696 178.398C326.396 177.846 325.988 177.426 325.472 177.138C324.968 176.838 324.41 176.688 323.798 176.688C323.186 176.688 322.628 176.832 322.124 177.12C321.62 177.408 321.218 177.828 320.918 178.38C320.618 178.932 320.468 179.58 320.468 180.324C320.468 181.08 320.618 181.74 320.918 182.304C321.218 182.856 321.62 183.282 322.124 183.582C322.628 183.87 323.186 184.014 323.798 184.014C324.41 184.014 324.968 183.87 325.472 183.582C325.988 183.282 326.396 182.856 326.696 182.304C326.996 181.74 327.146 181.086 327.146 180.342ZM335.638 175.266C336.49 175.266 337.234 175.452 337.87 175.824C338.518 176.196 338.998 176.664 339.31 177.228V175.428H340.966V185.508C340.966 186.408 340.774 187.206 340.39 187.902C340.006 188.61 339.454 189.162 338.734 189.558C338.026 189.954 337.198 190.152 336.25 190.152C334.954 190.152 333.874 189.846 333.01 189.234C332.146 188.622 331.636 187.788 331.48 186.732H333.1C333.28 187.332 333.652 187.812 334.216 188.172C334.78 188.544 335.458 188.73 336.25 188.73C337.15 188.73 337.882 188.448 338.446 187.884C339.022 187.32 339.31 186.528 339.31 185.508V183.438C338.986 184.014 338.506 184.494 337.87 184.878C337.234 185.262 336.49 185.454 335.638 185.454C334.762 185.454 333.964 185.238 333.244 184.806C332.536 184.374 331.978 183.768 331.57 182.988C331.162 182.208 330.958 181.32 330.958 180.324C330.958 179.316 331.162 178.434 331.57 177.678C331.978 176.91 332.536 176.316 333.244 175.896C333.964 175.476 334.762 175.266 335.638 175.266ZM339.31 180.342C339.31 179.598 339.16 178.95 338.86 178.398C338.56 177.846 338.152 177.426 337.636 177.138C337.132 176.838 336.574 176.688 335.962 176.688C335.35 176.688 334.792 176.832 334.288 177.12C333.784 177.408 333.382 177.828 333.082 178.38C332.782 178.932 332.632 179.58 332.632 180.324C332.632 181.08 332.782 181.74 333.082 182.304C333.382 182.856 333.784 183.282 334.288 183.582C334.792 183.87 335.35 184.014 335.962 184.014C336.574 184.014 337.132 183.87 337.636 183.582C338.152 183.282 338.56 182.856 338.86 182.304C339.16 181.74 339.31 181.086 339.31 180.342ZM343.122 180.324C343.122 179.316 343.326 178.434 343.734 177.678C344.142 176.91 344.7 176.316 345.408 175.896C346.128 175.476 346.926 175.266 347.802 175.266C348.666 175.266 349.416 175.452 350.052 175.824C350.688 176.196 351.162 176.664 351.474 177.228V175.428H353.13V185.292H351.474V183.456C351.15 184.032 350.664 184.512 350.016 184.896C349.38 185.268 348.636 185.454 347.784 185.454C346.908 185.454 346.116 185.238 345.408 184.806C344.7 184.374 344.142 183.768 343.734 182.988C343.326 182.208 343.122 181.32 343.122 180.324ZM351.474 180.342C351.474 179.598 351.324 178.95 351.024 178.398C350.724 177.846 350.316 177.426 349.8 177.138C349.296 176.838 348.738 176.688 348.126 176.688C347.514 176.688 346.956 176.832 346.452 177.12C345.948 177.408 345.546 177.828 345.246 178.38C344.946 178.932 344.796 179.58 344.796 180.324C344.796 181.08 344.946 181.74 345.246 182.304C345.546 182.856 345.948 183.282 346.452 183.582C346.956 183.87 347.514 184.014 348.126 184.014C348.738 184.014 349.296 183.87 349.8 183.582C350.316 183.282 350.724 182.856 351.024 182.304C351.324 181.74 351.474 181.086 351.474 180.342ZM356.744 173.826C356.432 173.826 356.168 173.718 355.952 173.502C355.736 173.286 355.628 173.022 355.628 172.71C355.628 172.398 355.736 172.134 355.952 171.918C356.168 171.702 356.432 171.594 356.744 171.594C357.044 171.594 357.296 171.702 357.5 171.918C357.716 172.134 357.824 172.398 357.824 172.71C357.824 173.022 357.716 173.286 357.5 173.502C357.296 173.718 357.044 173.826 356.744 173.826ZM357.536 175.428V185.292H355.898V175.428H357.536ZM365.133 175.248C366.333 175.248 367.305 175.614 368.049 176.346C368.793 177.066 369.165 178.11 369.165 179.478V185.292H367.545V179.712C367.545 178.728 367.299 177.978 366.807 177.462C366.315 176.934 365.643 176.67 364.791 176.67C363.927 176.67 363.237 176.94 362.721 177.48C362.217 178.02 361.965 178.806 361.965 179.838V185.292H360.327V175.428H361.965V176.832C362.289 176.328 362.727 175.938 363.279 175.662C363.843 175.386 364.461 175.248 365.133 175.248ZM44.7506 207.324C44.7506 206.316 44.9546 205.434 45.3626 204.678C45.7706 203.91 46.3286 203.316 47.0366 202.896C47.7566 202.476 48.5546 202.266 49.4306 202.266C50.2946 202.266 51.0446 202.452 51.6806 202.824C52.3166 203.196 52.7906 203.664 53.1026 204.228V202.428H54.7586V212.292H53.1026V210.456C52.7786 211.032 52.2926 211.512 51.6446 211.896C51.0086 212.268 50.2646 212.454 49.4126 212.454C48.5366 212.454 47.7446 212.238 47.0366 211.806C46.3286 211.374 45.7706 210.768 45.3626 209.988C44.9546 209.208 44.7506 208.32 44.7506 207.324ZM53.1026 207.342C53.1026 206.598 52.9526 205.95 52.6526 205.398C52.3526 204.846 51.9446 204.426 51.4286 204.138C50.9246 203.838 50.3666 203.688 49.7546 203.688C49.1426 203.688 48.5846 203.832 48.0806 204.12C47.5766 204.408 47.1746 204.828 46.8746 205.38C46.5746 205.932 46.4246 206.58 46.4246 207.324C46.4246 208.08 46.5746 208.74 46.8746 209.304C47.1746 209.856 47.5766 210.282 48.0806 210.582C48.5846 210.87 49.1426 211.014 49.7546 211.014C50.3666 211.014 50.9246 210.87 51.4286 210.582C51.9446 210.282 52.3526 209.856 52.6526 209.304C52.9526 208.74 53.1026 208.086 53.1026 207.342ZM59.1646 204.03C59.4526 203.466 59.8606 203.028 60.3886 202.716C60.9286 202.404 61.5826 202.248 62.3506 202.248V203.94H61.9186C60.0826 203.94 59.1646 204.936 59.1646 206.928V212.292H57.5266V202.428H59.1646V204.03ZM73.2415 206.982C73.2415 207.294 73.2235 207.624 73.1875 207.972H65.3035C65.3635 208.944 65.6935 209.706 66.2935 210.258C66.9055 210.798 67.6435 211.068 68.5075 211.068C69.2155 211.068 69.8035 210.906 70.2715 210.582C70.7515 210.246 71.0875 209.802 71.2795 209.25H73.0435C72.7795 210.198 72.2515 210.972 71.4595 211.572C70.6675 212.16 69.6835 212.454 68.5075 212.454C67.5715 212.454 66.7315 212.244 65.9875 211.824C65.2555 211.404 64.6795 210.81 64.2595 210.042C63.8395 209.262 63.6295 208.362 63.6295 207.342C63.6295 206.322 63.8335 205.428 64.2415 204.66C64.6495 203.892 65.2195 203.304 65.9515 202.896C66.6955 202.476 67.5475 202.266 68.5075 202.266C69.4435 202.266 70.2715 202.47 70.9915 202.878C71.7115 203.286 72.2635 203.85 72.6475 204.57C73.0435 205.278 73.2415 206.082 73.2415 206.982ZM71.5495 206.64C71.5495 206.016 71.4115 205.482 71.1355 205.038C70.8595 204.582 70.4815 204.24 70.0015 204.012C69.5335 203.772 69.0115 203.652 68.4355 203.652C67.6075 203.652 66.8995 203.916 66.3115 204.444C65.7355 204.972 65.4055 205.704 65.3215 206.64H71.5495ZM79.7344 210.978C81.2584 209.754 82.4524 208.752 83.3164 207.972C84.1804 207.18 84.9064 206.358 85.4944 205.506C86.0944 204.642 86.3944 203.796 86.3944 202.968C86.3944 202.188 86.2024 201.576 85.8184 201.132C85.4464 200.676 84.8404 200.448 84.0004 200.448C83.1844 200.448 82.5484 200.706 82.0924 201.222C81.6484 201.726 81.4084 202.404 81.3724 203.256H79.7884C79.8364 201.912 80.2444 200.874 81.0124 200.142C81.7804 199.41 82.7704 199.044 83.9824 199.044C85.2184 199.044 86.1964 199.386 86.9164 200.07C87.6484 200.754 88.0144 201.696 88.0144 202.896C88.0144 203.892 87.7144 204.864 87.1144 205.812C86.5264 206.748 85.8544 207.576 85.0984 208.296C84.3424 209.004 83.3764 209.832 82.2004 210.78H88.3924V212.148H79.7344V210.978ZM90.0879 210.978C91.6119 209.754 92.8059 208.752 93.6699 207.972C94.5339 207.18 95.2599 206.358 95.8479 205.506C96.4479 204.642 96.7479 203.796 96.7479 202.968C96.7479 202.188 96.5559 201.576 96.1719 201.132C95.7999 200.676 95.1939 200.448 94.3539 200.448C93.5379 200.448 92.9019 200.706 92.4459 201.222C92.0019 201.726 91.7619 202.404 91.7259 203.256H90.1419C90.1899 201.912 90.5979 200.874 91.3659 200.142C92.1339 199.41 93.1239 199.044 94.3359 199.044C95.5719 199.044 96.5499 199.386 97.2699 200.07C98.0019 200.754 98.3679 201.696 98.3679 202.896C98.3679 203.892 98.0679 204.864 97.4679 205.812C96.8799 206.748 96.2079 207.576 95.4519 208.296C94.6959 209.004 93.7299 209.832 92.5539 210.78H98.7459V212.148H90.0879V210.978ZM100.279 202.212C100.279 201.396 100.525 200.748 101.017 200.268C101.509 199.776 102.139 199.53 102.907 199.53C103.675 199.53 104.305 199.776 104.797 200.268C105.289 200.748 105.535 201.396 105.535 202.212C105.535 203.04 105.289 203.7 104.797 204.192C104.305 204.672 103.675 204.912 102.907 204.912C102.139 204.912 101.509 204.672 101.017 204.192C100.525 203.7 100.279 203.04 100.279 202.212ZM110.791 199.728L103.501 212.292H101.881L109.171 199.728H110.791ZM102.907 200.538C102.499 200.538 102.175 200.682 101.935 200.97C101.707 201.246 101.593 201.66 101.593 202.212C101.593 202.764 101.707 203.184 101.935 203.472C102.175 203.76 102.499 203.904 102.907 203.904C103.315 203.904 103.639 203.76 103.879 203.472C104.119 203.172 104.239 202.752 104.239 202.212C104.239 201.66 104.119 201.246 103.879 200.97C103.639 200.682 103.315 200.538 102.907 200.538ZM107.173 209.808C107.173 208.98 107.419 208.326 107.911 207.846C108.403 207.354 109.033 207.108 109.801 207.108C110.569 207.108 111.193 207.354 111.673 207.846C112.165 208.326 112.411 208.98 112.411 209.808C112.411 210.624 112.165 211.278 111.673 211.77C111.193 212.262 110.569 212.508 109.801 212.508C109.033 212.508 108.403 212.268 107.911 211.788C107.419 211.296 107.173 210.636 107.173 209.808ZM109.783 208.134C109.375 208.134 109.051 208.278 108.811 208.566C108.571 208.842 108.451 209.256 108.451 209.808C108.451 210.348 108.571 210.762 108.811 211.05C109.051 211.326 109.375 211.464 109.783 211.464C110.191 211.464 110.515 211.326 110.755 211.05C110.995 210.762 111.115 210.348 111.115 209.808C111.115 209.256 110.995 208.842 110.755 208.566C110.515 208.278 110.191 208.134 109.783 208.134ZM131.228 202.248C131.996 202.248 132.68 202.41 133.28 202.734C133.88 203.046 134.354 203.52 134.702 204.156C135.05 204.792 135.224 205.566 135.224 206.478V212.292H133.604V206.712C133.604 205.728 133.358 204.978 132.866 204.462C132.386 203.934 131.732 203.67 130.904 203.67C130.052 203.67 129.374 203.946 128.87 204.498C128.366 205.038 128.114 205.824 128.114 206.856V212.292H126.494V206.712C126.494 205.728 126.248 204.978 125.756 204.462C125.276 203.934 124.622 203.67 123.794 203.67C122.942 203.67 122.264 203.946 121.76 204.498C121.256 205.038 121.004 205.824 121.004 206.856V212.292H119.366V202.428H121.004V203.85C121.328 203.334 121.76 202.938 122.3 202.662C122.852 202.386 123.458 202.248 124.118 202.248C124.946 202.248 125.678 202.434 126.314 202.806C126.95 203.178 127.424 203.724 127.736 204.444C128.012 203.748 128.468 203.208 129.104 202.824C129.74 202.44 130.448 202.248 131.228 202.248ZM142.213 212.454C141.289 212.454 140.449 212.244 139.693 211.824C138.949 211.404 138.361 210.81 137.929 210.042C137.509 209.262 137.299 208.362 137.299 207.342C137.299 206.334 137.515 205.446 137.947 204.678C138.391 203.898 138.991 203.304 139.747 202.896C140.503 202.476 141.349 202.266 142.285 202.266C143.221 202.266 144.067 202.476 144.823 202.896C145.579 203.304 146.173 203.892 146.605 204.66C147.049 205.428 147.271 206.322 147.271 207.342C147.271 208.362 147.043 209.262 146.587 210.042C146.143 210.81 145.537 211.404 144.769 211.824C144.001 212.244 143.149 212.454 142.213 212.454ZM142.213 211.014C142.801 211.014 143.353 210.876 143.869 210.6C144.385 210.324 144.799 209.91 145.111 209.358C145.435 208.806 145.597 208.134 145.597 207.342C145.597 206.55 145.441 205.878 145.129 205.326C144.817 204.774 144.409 204.366 143.905 204.102C143.401 203.826 142.855 203.688 142.267 203.688C141.667 203.688 141.115 203.826 140.611 204.102C140.119 204.366 139.723 204.774 139.423 205.326C139.123 205.878 138.973 206.55 138.973 207.342C138.973 208.146 139.117 208.824 139.405 209.376C139.705 209.928 140.101 210.342 140.593 210.618C141.085 210.882 141.625 211.014 142.213 211.014ZM151.063 204.03C151.351 203.466 151.759 203.028 152.287 202.716C152.827 202.404 153.481 202.248 154.249 202.248V203.94H153.817C151.981 203.94 151.063 204.936 151.063 206.928V212.292H149.425V202.428H151.063V204.03ZM165.14 206.982C165.14 207.294 165.122 207.624 165.086 207.972H157.202C157.262 208.944 157.592 209.706 158.192 210.258C158.804 210.798 159.542 211.068 160.406 211.068C161.114 211.068 161.702 210.906 162.17 210.582C162.65 210.246 162.986 209.802 163.178 209.25H164.942C164.678 210.198 164.15 210.972 163.358 211.572C162.566 212.16 161.582 212.454 160.406 212.454C159.47 212.454 158.63 212.244 157.886 211.824C157.154 211.404 156.578 210.81 156.158 210.042C155.738 209.262 155.528 208.362 155.528 207.342C155.528 206.322 155.732 205.428 156.14 204.66C156.548 203.892 157.118 203.304 157.85 202.896C158.594 202.476 159.446 202.266 160.406 202.266C161.342 202.266 162.17 202.47 162.89 202.878C163.61 203.286 164.162 203.85 164.546 204.57C164.942 205.278 165.14 206.082 165.14 206.982ZM163.448 206.64C163.448 206.016 163.31 205.482 163.034 205.038C162.758 204.582 162.38 204.24 161.9 204.012C161.432 203.772 160.91 203.652 160.334 203.652C159.506 203.652 158.798 203.916 158.21 204.444C157.634 204.972 157.304 205.704 157.22 206.64H163.448ZM173.739 198.972V212.292H172.101V198.972H173.739ZM177.377 200.826C177.065 200.826 176.801 200.718 176.585 200.502C176.369 200.286 176.261 200.022 176.261 199.71C176.261 199.398 176.369 199.134 176.585 198.918C176.801 198.702 177.065 198.594 177.377 198.594C177.677 198.594 177.929 198.702 178.133 198.918C178.349 199.134 178.457 199.398 178.457 199.71C178.457 200.022 178.349 200.286 178.133 200.502C177.929 200.718 177.677 200.826 177.377 200.826ZM178.169 202.428V212.292H176.531V202.428H178.169ZM186.468 212.292L182.598 207.936V212.292H180.96V198.972H182.598V206.802L186.396 202.428H188.682L184.038 207.342L188.7 212.292H186.468ZM199.224 206.982C199.224 207.294 199.206 207.624 199.17 207.972H191.286C191.346 208.944 191.676 209.706 192.276 210.258C192.888 210.798 193.626 211.068 194.49 211.068C195.198 211.068 195.786 210.906 196.254 210.582C196.734 210.246 197.07 209.802 197.262 209.25H199.026C198.762 210.198 198.234 210.972 197.442 211.572C196.65 212.16 195.666 212.454 194.49 212.454C193.554 212.454 192.714 212.244 191.97 211.824C191.238 211.404 190.662 210.81 190.242 210.042C189.822 209.262 189.612 208.362 189.612 207.342C189.612 206.322 189.816 205.428 190.224 204.66C190.632 203.892 191.202 203.304 191.934 202.896C192.678 202.476 193.53 202.266 194.49 202.266C195.426 202.266 196.254 202.47 196.974 202.878C197.694 203.286 198.246 203.85 198.63 204.57C199.026 205.278 199.224 206.082 199.224 206.982ZM197.532 206.64C197.532 206.016 197.394 205.482 197.118 205.038C196.842 204.582 196.464 204.24 195.984 204.012C195.516 203.772 194.994 203.652 194.418 203.652C193.59 203.652 192.882 203.916 192.294 204.444C191.718 204.972 191.388 205.704 191.304 206.64H197.532ZM203.024 198.972V212.292H201.386V198.972H203.024ZM214.312 202.428L208.372 216.936H206.68L208.624 212.184L204.646 202.428H206.464L209.56 210.42L212.62 202.428H214.312ZM222.755 203.778V209.592C222.755 210.072 222.857 210.414 223.061 210.618C223.265 210.81 223.619 210.906 224.123 210.906H225.329V212.292H223.853C222.941 212.292 222.257 212.082 221.801 211.662C221.345 211.242 221.117 210.552 221.117 209.592V203.778H219.839V202.428H221.117V199.944H222.755V202.428H225.329V203.778H222.755ZM231.616 212.454C230.692 212.454 229.852 212.244 229.096 211.824C228.352 211.404 227.764 210.81 227.332 210.042C226.912 209.262 226.702 208.362 226.702 207.342C226.702 206.334 226.918 205.446 227.35 204.678C227.794 203.898 228.394 203.304 229.15 202.896C229.906 202.476 230.752 202.266 231.688 202.266C232.624 202.266 233.47 202.476 234.226 202.896C234.982 203.304 235.576 203.892 236.008 204.66C236.452 205.428 236.674 206.322 236.674 207.342C236.674 208.362 236.446 209.262 235.99 210.042C235.546 210.81 234.94 211.404 234.172 211.824C233.404 212.244 232.552 212.454 231.616 212.454ZM231.616 211.014C232.204 211.014 232.756 210.876 233.272 210.6C233.788 210.324 234.202 209.91 234.514 209.358C234.838 208.806 235 208.134 235 207.342C235 206.55 234.844 205.878 234.532 205.326C234.22 204.774 233.812 204.366 233.308 204.102C232.804 203.826 232.258 203.688 231.67 203.688C231.07 203.688 230.518 203.826 230.014 204.102C229.522 204.366 229.126 204.774 228.826 205.326C228.526 205.878 228.376 206.55 228.376 207.342C228.376 208.146 228.52 208.824 228.808 209.376C229.108 209.928 229.504 210.342 229.996 210.618C230.488 210.882 231.028 211.014 231.616 211.014ZM247.694 202.266C248.546 202.266 249.29 202.452 249.926 202.824C250.574 203.196 251.054 203.664 251.366 204.228V202.428H253.022V212.508C253.022 213.408 252.83 214.206 252.446 214.902C252.062 215.61 251.51 216.162 250.79 216.558C250.082 216.954 249.254 217.152 248.306 217.152C247.01 217.152 245.93 216.846 245.066 216.234C244.202 215.622 243.692 214.788 243.536 213.732H245.156C245.336 214.332 245.708 214.812 246.272 215.172C246.836 215.544 247.514 215.73 248.306 215.73C249.206 215.73 249.938 215.448 250.502 214.884C251.078 214.32 251.366 213.528 251.366 212.508V210.438C251.042 211.014 250.562 211.494 249.926 211.878C249.29 212.262 248.546 212.454 247.694 212.454C246.818 212.454 246.02 212.238 245.3 211.806C244.592 211.374 244.034 210.768 243.626 209.988C243.218 209.208 243.014 208.32 243.014 207.324C243.014 206.316 243.218 205.434 243.626 204.678C244.034 203.91 244.592 203.316 245.3 202.896C246.02 202.476 246.818 202.266 247.694 202.266ZM251.366 207.342C251.366 206.598 251.216 205.95 250.916 205.398C250.616 204.846 250.208 204.426 249.692 204.138C249.188 203.838 248.63 203.688 248.018 203.688C247.406 203.688 246.848 203.832 246.344 204.12C245.84 204.408 245.438 204.828 245.138 205.38C244.838 205.932 244.688 206.58 244.688 207.324C244.688 208.08 244.838 208.74 245.138 209.304C245.438 209.856 245.84 210.282 246.344 210.582C246.848 210.87 247.406 211.014 248.018 211.014C248.63 211.014 249.188 210.87 249.692 210.582C250.208 210.282 250.616 209.856 250.916 209.304C251.216 208.74 251.366 208.086 251.366 207.342ZM264.79 206.982C264.79 207.294 264.772 207.624 264.736 207.972H256.852C256.912 208.944 257.242 209.706 257.842 210.258C258.454 210.798 259.192 211.068 260.056 211.068C260.764 211.068 261.352 210.906 261.82 210.582C262.3 210.246 262.636 209.802 262.828 209.25H264.592C264.328 210.198 263.8 210.972 263.008 211.572C262.216 212.16 261.232 212.454 260.056 212.454C259.12 212.454 258.28 212.244 257.536 211.824C256.804 211.404 256.228 210.81 255.808 210.042C255.388 209.262 255.178 208.362 255.178 207.342C255.178 206.322 255.382 205.428 255.79 204.66C256.198 203.892 256.768 203.304 257.5 202.896C258.244 202.476 259.096 202.266 260.056 202.266C260.992 202.266 261.82 202.47 262.54 202.878C263.26 203.286 263.812 203.85 264.196 204.57C264.592 205.278 264.79 206.082 264.79 206.982ZM263.098 206.64C263.098 206.016 262.96 205.482 262.684 205.038C262.408 204.582 262.03 204.24 261.55 204.012C261.082 203.772 260.56 203.652 259.984 203.652C259.156 203.652 258.448 203.916 257.86 204.444C257.284 204.972 256.954 205.704 256.87 206.64H263.098ZM268.95 203.778V209.592C268.95 210.072 269.052 210.414 269.256 210.618C269.46 210.81 269.814 210.906 270.318 210.906H271.524V212.292H270.048C269.136 212.292 268.452 212.082 267.996 211.662C267.54 211.242 267.312 210.552 267.312 209.592V203.778H266.034V202.428H267.312V199.944H268.95V202.428H271.524V203.778H268.95ZM279.946 198.972V212.292H278.308V198.972H279.946ZM282.126 207.324C282.126 206.316 282.33 205.434 282.738 204.678C283.146 203.91 283.704 203.316 284.412 202.896C285.132 202.476 285.93 202.266 286.806 202.266C287.67 202.266 288.42 202.452 289.056 202.824C289.692 203.196 290.166 203.664 290.478 204.228V202.428H292.134V212.292H290.478V210.456C290.154 211.032 289.668 211.512 289.02 211.896C288.384 212.268 287.64 212.454 286.788 212.454C285.912 212.454 285.12 212.238 284.412 211.806C283.704 211.374 283.146 210.768 282.738 209.988C282.33 209.208 282.126 208.32 282.126 207.324ZM290.478 207.342C290.478 206.598 290.328 205.95 290.028 205.398C289.728 204.846 289.32 204.426 288.804 204.138C288.3 203.838 287.742 203.688 287.13 203.688C286.518 203.688 285.96 203.832 285.456 204.12C284.952 204.408 284.55 204.828 284.25 205.38C283.95 205.932 283.8 206.58 283.8 207.324C283.8 208.08 283.95 208.74 284.25 209.304C284.55 209.856 284.952 210.282 285.456 210.582C285.96 210.87 286.518 211.014 287.13 211.014C287.742 211.014 288.3 210.87 288.804 210.582C289.32 210.282 289.728 209.856 290.028 209.304C290.328 208.74 290.478 208.086 290.478 207.342ZM299.708 202.248C300.908 202.248 301.88 202.614 302.624 203.346C303.368 204.066 303.74 205.11 303.74 206.478V212.292H302.12V206.712C302.12 205.728 301.874 204.978 301.382 204.462C300.89 203.934 300.218 203.67 299.366 203.67C298.502 203.67 297.812 203.94 297.296 204.48C296.792 205.02 296.54 205.806 296.54 206.838V212.292H294.902V202.428H296.54V203.832C296.864 203.328 297.302 202.938 297.854 202.662C298.418 202.386 299.036 202.248 299.708 202.248ZM305.803 207.324C305.803 206.316 306.007 205.434 306.415 204.678C306.823 203.91 307.381 203.316 308.089 202.896C308.809 202.476 309.613 202.266 310.501 202.266C311.269 202.266 311.983 202.446 312.643 202.806C313.303 203.154 313.807 203.616 314.155 204.192V198.972H315.811V212.292H314.155V210.438C313.831 211.026 313.351 211.512 312.715 211.896C312.079 212.268 311.335 212.454 310.483 212.454C309.607 212.454 308.809 212.238 308.089 211.806C307.381 211.374 306.823 210.768 306.415 209.988C306.007 209.208 305.803 208.32 305.803 207.324ZM314.155 207.342C314.155 206.598 314.005 205.95 313.705 205.398C313.405 204.846 312.997 204.426 312.481 204.138C311.977 203.838 311.419 203.688 310.807 203.688C310.195 203.688 309.637 203.832 309.133 204.12C308.629 204.408 308.227 204.828 307.927 205.38C307.627 205.932 307.477 206.58 307.477 207.324C307.477 208.08 307.627 208.74 307.927 209.304C308.227 209.856 308.629 210.282 309.133 210.582C309.637 210.87 310.195 211.014 310.807 211.014C311.419 211.014 311.977 210.87 312.481 210.582C312.997 210.282 313.405 209.856 313.705 209.304C314.005 208.74 314.155 208.086 314.155 207.342ZM325.376 203.778V209.592C325.376 210.072 325.478 210.414 325.682 210.618C325.886 210.81 326.24 210.906 326.744 210.906H327.95V212.292H326.474C325.562 212.292 324.878 212.082 324.422 211.662C323.966 211.242 323.738 210.552 323.738 209.592V203.778H322.46V202.428H323.738V199.944H325.376V202.428H327.95V203.778H325.376ZM334.831 202.248C335.575 202.248 336.247 202.41 336.847 202.734C337.447 203.046 337.915 203.52 338.251 204.156C338.599 204.792 338.773 205.566 338.773 206.478V212.292H337.153V206.712C337.153 205.728 336.907 204.978 336.415 204.462C335.923 203.934 335.251 203.67 334.399 203.67C333.535 203.67 332.845 203.94 332.329 204.48C331.825 205.02 331.573 205.806 331.573 206.838V212.292H329.935V198.972H331.573V203.832C331.897 203.328 332.341 202.938 332.905 202.662C333.481 202.386 334.123 202.248 334.831 202.248ZM350.449 206.982C350.449 207.294 350.431 207.624 350.395 207.972H342.511C342.571 208.944 342.901 209.706 343.501 210.258C344.113 210.798 344.851 211.068 345.715 211.068C346.423 211.068 347.011 210.906 347.479 210.582C347.959 210.246 348.295 209.802 348.487 209.25H350.251C349.987 210.198 349.459 210.972 348.667 211.572C347.875 212.16 346.891 212.454 345.715 212.454C344.779 212.454 343.939 212.244 343.195 211.824C342.463 211.404 341.887 210.81 341.467 210.042C341.047 209.262 340.837 208.362 340.837 207.342C340.837 206.322 341.041 205.428 341.449 204.66C341.857 203.892 342.427 203.304 343.159 202.896C343.903 202.476 344.755 202.266 345.715 202.266C346.651 202.266 347.479 202.47 348.199 202.878C348.919 203.286 349.471 203.85 349.855 204.57C350.251 205.278 350.449 206.082 350.449 206.982ZM348.757 206.64C348.757 206.016 348.619 205.482 348.343 205.038C348.067 204.582 347.689 204.24 347.209 204.012C346.741 203.772 346.219 203.652 345.643 203.652C344.815 203.652 344.107 203.916 343.519 204.444C342.943 204.972 342.613 205.704 342.529 206.64H348.757ZM358.291 200.826C357.979 200.826 357.715 200.718 357.499 200.502C357.295 200.286 357.193 200.022 357.193 199.71C357.193 199.398 357.295 199.134 357.499 198.918C357.715 198.702 357.979 198.594 358.291 198.594C358.603 198.594 358.861 198.702 359.065 198.918C359.281 199.134 359.389 199.398 359.389 199.71C359.389 200.022 359.281 200.286 359.065 200.502C358.861 200.718 358.603 200.826 358.291 200.826ZM359.101 214.434C359.101 215.31 358.879 215.952 358.435 216.36C357.991 216.768 357.343 216.972 356.491 216.972H355.537V215.586H356.221C356.677 215.586 356.995 215.496 357.175 215.316C357.367 215.136 357.463 214.83 357.463 214.398V202.428H359.101V214.434ZM366.176 212.454C365.252 212.454 364.412 212.244 363.656 211.824C362.912 211.404 362.324 210.81 361.892 210.042C361.472 209.262 361.262 208.362 361.262 207.342C361.262 206.334 361.478 205.446 361.91 204.678C362.354 203.898 362.954 203.304 363.71 202.896C364.466 202.476 365.312 202.266 366.248 202.266C367.184 202.266 368.03 202.476 368.786 202.896C369.542 203.304 370.136 203.892 370.568 204.66C371.012 205.428 371.234 206.322 371.234 207.342C371.234 208.362 371.006 209.262 370.55 210.042C370.106 210.81 369.5 211.404 368.732 211.824C367.964 212.244 367.112 212.454 366.176 212.454ZM366.176 211.014C366.764 211.014 367.316 210.876 367.832 210.6C368.348 210.324 368.762 209.91 369.074 209.358C369.398 208.806 369.56 208.134 369.56 207.342C369.56 206.55 369.404 205.878 369.092 205.326C368.78 204.774 368.372 204.366 367.868 204.102C367.364 203.826 366.818 203.688 366.23 203.688C365.63 203.688 365.078 203.826 364.574 204.102C364.082 204.366 363.686 204.774 363.386 205.326C363.086 205.878 362.936 206.55 362.936 207.342C362.936 208.146 363.08 208.824 363.368 209.376C363.668 209.928 364.064 210.342 364.556 210.618C365.048 210.882 365.588 211.014 366.176 211.014ZM375.026 204.264C375.362 203.676 375.854 203.196 376.502 202.824C377.15 202.452 377.888 202.266 378.716 202.266C379.604 202.266 380.402 202.476 381.11 202.896C381.818 203.316 382.376 203.91 382.784 204.678C383.192 205.434 383.396 206.316 383.396 207.324C383.396 208.32 383.192 209.208 382.784 209.988C382.376 210.768 381.812 211.374 381.092 211.806C380.384 212.238 379.592 212.454 378.716 212.454C377.864 212.454 377.114 212.268 376.466 211.896C375.83 211.524 375.35 211.05 375.026 210.474V212.292H373.388V198.972H375.026V204.264ZM381.722 207.324C381.722 206.58 381.572 205.932 381.272 205.38C380.972 204.828 380.564 204.408 380.048 204.12C379.544 203.832 378.986 203.688 378.374 203.688C377.774 203.688 377.216 203.838 376.7 204.138C376.196 204.426 375.788 204.852 375.476 205.416C375.176 205.968 375.026 206.61 375.026 207.342C375.026 208.086 375.176 208.74 375.476 209.304C375.788 209.856 376.196 210.282 376.7 210.582C377.216 210.87 377.774 211.014 378.374 211.014C378.986 211.014 379.544 210.87 380.048 210.582C380.564 210.282 380.972 209.856 381.272 209.304C381.572 208.74 381.722 208.08 381.722 207.324ZM387.676 199.746L387.478 208.746H386.11L385.912 199.746H387.676ZM386.866 212.4C386.554 212.4 386.29 212.292 386.074 212.076C385.858 211.86 385.75 211.596 385.75 211.284C385.75 210.972 385.858 210.708 386.074 210.492C386.29 210.276 386.554 210.168 386.866 210.168C387.166 210.168 387.418 210.276 387.622 210.492C387.838 210.708 387.946 210.972 387.946 211.284C387.946 211.596 387.838 211.86 387.622 212.076C387.418 212.292 387.166 212.4 386.866 212.4Z" fill="black"/>
<defs>
<linearGradient id="paint0_linear_2868_823" x1="311" y1="0.537109" x2="311" y2="296.707" gradientUnits="userSpaceOnUse">
<stop stop-color="#E3F6FC"/>
<stop offset="1" stop-color="#24CDFF"/>
</linearGradient>
<linearGradient id="paint1_linear_2868_823" x1="422.062" y1="173.134" x2="467.775" y2="173.134" gradientUnits="userSpaceOnUse">
<stop stop-color="#58595B"/>
<stop offset="1" stop-color="#231F20"/>
</linearGradient>
<linearGradient id="paint2_linear_2868_823" x1="558.328" y1="172.315" x2="633.921" y2="172.315" gradientUnits="userSpaceOnUse">
<stop stop-color="#58595B"/>
<stop offset="1" stop-color="#231F20"/>
</linearGradient>
<linearGradient id="paint3_linear_2868_823" x1="440.983" y1="174" x2="555.133" y2="174" gradientUnits="userSpaceOnUse">
<stop stop-color="#58595B"/>
<stop offset="1" stop-color="#231F20"/>
</linearGradient>
<clipPath id="clip0_2868_823">
<rect width="151" height="114" fill="white" transform="translate(422 117)"/>
</clipPath>
</defs>
</svg>
