<svg width="16" height="17" viewBox="0 0 16 17" fill="none" xmlns="http://www.w3.org/2000/svg">
<path d="M5.58685 6.62391C6.05085 7.59033 6.68337 8.49609 7.48443 9.29714C8.28548 10.0982 9.19124 10.7307 10.1577 11.1947C10.2408 11.2346 10.2823 11.2546 10.3349 11.2699C10.5218 11.3244 10.7513 11.2853 10.9096 11.1719C10.9542 11.14 10.9923 11.1019 11.0685 11.0257C11.3016 10.7926 11.4181 10.6761 11.5353 10.5999C11.9772 10.3126 12.5469 10.3126 12.9889 10.5999C13.106 10.6761 13.2226 10.7926 13.4556 11.0257L13.5856 11.1556C13.9398 11.5099 14.117 11.6871 14.2132 11.8773C14.4046 12.2557 14.4046 12.7025 14.2132 13.0809C14.117 13.2712 13.9399 13.4483 13.5856 13.8026L13.4805 13.9077C13.1274 14.2608 12.9508 14.4373 12.7108 14.5722C12.4445 14.7218 12.0308 14.8293 11.7253 14.8284C11.45 14.8276 11.2619 14.7742 10.8856 14.6674C8.86333 14.0934 6.95509 13.0104 5.36311 11.4185C3.77112 9.82647 2.68814 7.91823 2.11416 5.89597C2.00735 5.51967 1.95395 5.33152 1.95313 5.05623C1.95222 4.75074 2.0598 4.33708 2.20941 4.07075C2.34424 3.83072 2.52078 3.65418 2.87386 3.3011L2.97895 3.19601C3.33325 2.84172 3.5104 2.66457 3.70065 2.56834C4.07903 2.37696 4.52587 2.37696 4.90424 2.56834C5.0945 2.66457 5.27164 2.84172 5.62594 3.19601L5.75585 3.32592C5.98892 3.559 6.10546 3.67553 6.18165 3.79272C6.46898 4.23464 6.46898 4.80436 6.18165 5.24629C6.10546 5.36348 5.98892 5.48001 5.75585 5.71308C5.67964 5.78929 5.64154 5.82739 5.60965 5.87194C5.4963 6.03022 5.45717 6.25973 5.51165 6.44663C5.52698 6.49922 5.54694 6.54079 5.58685 6.62391Z" stroke="white" stroke-linecap="round" stroke-linejoin="round"/>
</svg>
