<svg width="18" height="18" viewBox="0 0 18 18" fill="none" xmlns="http://www.w3.org/2000/svg">
<path d="M16.4107 8.78684C16.1652 8.78684 15.9467 8.69845 15.7552 8.52166C15.563 8.34549 15.4516 8.12696 15.4209 7.86608C15.2214 6.4389 14.6192 5.22258 13.6144 4.21711C12.6089 3.21225 11.3926 2.61008 9.96541 2.41058C9.70453 2.37989 9.486 2.27246 9.30983 2.08831C9.13305 1.90416 9.04465 1.68164 9.04465 1.42076C9.04465 1.15988 9.13673 0.941044 9.32088 0.764258C9.50503 0.588086 9.71988 0.515346 9.96541 0.546038C11.899 0.760882 13.5487 1.5512 14.9145 2.917C16.2803 4.28279 17.0706 5.93249 17.2855 7.86608C17.3162 8.11162 17.2431 8.32646 17.0663 8.51061C16.8901 8.69477 16.6716 8.78684 16.4107 8.78684ZM12.5666 8.78684C12.3671 8.78684 12.1906 8.71778 12.0371 8.57967C11.8837 8.44156 11.7686 8.2574 11.6918 8.02721C11.5691 7.58218 11.3352 7.18687 10.9902 6.84128C10.6446 6.4963 10.2493 6.26242 9.80428 6.13966C9.57409 6.06293 9.38994 5.94783 9.25183 5.79437C9.11371 5.64091 9.04465 5.45676 9.04465 5.24191C9.04465 4.93499 9.15208 4.68547 9.36692 4.49334C9.58176 4.30182 9.81963 4.23675 10.0805 4.29814C10.9399 4.49763 11.6805 4.90799 12.3023 5.52919C12.9235 6.15101 13.3339 6.89161 13.5334 7.75099C13.5947 8.01187 13.5257 8.24973 13.3262 8.46457C13.1267 8.67942 12.8735 8.78684 12.5666 8.78684ZM16.3647 17.0737C14.3851 17.0737 12.4555 16.6323 10.5759 15.7496C8.69569 14.8675 7.03064 13.7012 5.58075 12.2507C4.13025 10.8009 2.96395 9.13581 2.08187 7.25562C1.19916 5.37604 0.757812 3.44643 0.757812 1.4668C0.757812 1.19057 0.849888 0.96038 1.03404 0.776228C1.21819 0.592076 1.44838 0.5 1.72461 0.5H5.45369C5.66853 0.5 5.86036 0.569057 6.02916 0.707171C6.19797 0.845285 6.29772 1.02176 6.32841 1.23661L6.92691 4.45927C6.9576 4.67411 6.95391 4.86962 6.91586 5.04579C6.87718 5.22258 6.78879 5.38003 6.65068 5.51814L4.44085 7.774C5.08539 8.87892 5.89105 9.91477 6.85785 10.8816C7.82465 11.8484 8.89119 12.6847 10.0575 13.3906L12.2213 11.2269C12.3594 11.0887 12.5399 10.985 12.7627 10.9156C12.9849 10.8469 13.2034 10.8279 13.4183 10.8586L16.5949 11.5031C16.8097 11.5491 16.9862 11.6526 17.1243 11.8134C17.2624 11.9748 17.3315 12.163 17.3315 12.3778V16.1069C17.3315 16.3831 17.2394 16.6133 17.0553 16.7975C16.8711 16.9816 16.6409 17.0737 16.3647 17.0737ZM3.56613 6.02456L5.08538 4.50531L4.67104 2.34152H2.64537C2.7221 2.97071 2.82952 3.59222 2.96764 4.20606C3.10575 4.8199 3.30525 5.42607 3.56613 6.02456ZM15.49 15.1861V13.1605L13.3262 12.7001L11.8069 14.2193C12.4054 14.4802 13.0116 14.6951 13.6254 14.8639C14.2393 15.0327 14.8608 15.1401 15.49 15.1861Z" fill="#00AFE3"/>
</svg>
