<svg width="30" height="30" viewBox="0 0 30 30" fill="none" xmlns="http://www.w3.org/2000/svg">
<path fill-rule="evenodd" clip-rule="evenodd" d="M14.6299 3.63984C12.5828 3.63947 10.5715 4.17601 8.79655 5.19592C7.02164 6.21583 5.54528 7.68342 4.51482 9.45223C3.48436 11.221 2.93585 13.2292 2.92404 15.2762C2.91223 17.3232 3.43752 19.3376 4.4475 21.1182C5.13014 20.231 6.00767 19.5127 7.01224 19.0187C8.01681 18.5248 9.12151 18.2686 10.2409 18.2697H19.0189C20.1383 18.2686 21.243 18.5248 22.2476 19.0187C23.2521 19.5127 24.1296 20.231 24.8123 21.1182C25.8223 19.3376 26.3476 17.3232 26.3357 15.2762C26.3239 13.2292 25.7754 11.221 24.745 9.45223C23.7145 7.68342 22.2382 6.21583 20.4632 5.19592C18.6883 4.17601 16.677 3.63947 14.6299 3.63984ZM26.2504 24.2329C26.4338 23.9939 26.6093 23.7491 26.7771 23.4984C28.399 21.0885 29.2636 18.2487 29.2598 15.3437C29.2598 7.26367 22.71 0.713867 14.6299 0.713867C6.54981 0.713867 1.50036e-05 7.26367 1.50036e-05 15.3437C-0.00459535 18.5576 1.05342 21.6828 3.00938 24.2329L3.00207 24.2592L3.52143 24.8634C4.89354 26.4676 6.59719 27.7552 8.51495 28.6374C10.4327 29.5196 12.5189 29.9755 14.6299 29.9736C14.9459 29.9736 15.26 29.9639 15.5721 29.9444C18.2119 29.7779 20.7564 28.8953 22.9324 27.3915C23.973 26.6736 24.9162 25.8238 25.7384 24.8634L26.2577 24.2592L26.2504 24.2329ZM14.6299 6.56582C13.4659 6.56582 12.3495 7.02823 11.5264 7.85132C10.7033 8.67441 10.2409 9.79076 10.2409 10.9548C10.2409 12.1188 10.7033 13.2352 11.5264 14.0582C12.3495 14.8813 13.4659 15.3437 14.6299 15.3437C15.7939 15.3437 16.9103 14.8813 17.7334 14.0582C18.5565 13.2352 19.0189 12.1188 19.0189 10.9548C19.0189 9.79076 18.5565 8.67441 17.7334 7.85132C16.9103 7.02823 15.7939 6.56582 14.6299 6.56582Z" fill="#00AFE3"/>
</svg>
