<svg width="622" height="297" viewBox="0 0 622 297" fill="none" xmlns="http://www.w3.org/2000/svg">
<rect y="0.537109" width="622" height="296.17" fill="url(#paint0_linear_4629_93)"/>
<g clip-path="url(#clip0_4629_93)">
<path d="M422.062 176.868L436.653 159.354V186.923L422.062 176.868Z" fill="url(#paint1_linear_4629_93)"/>
<path d="M572.928 168.591L558.328 186.095V158.535L572.928 168.591Z" fill="url(#paint2_linear_4629_93)"/>
<path d="M561.846 191.411V156.58C561.846 146.208 555.4 136.925 545.67 133.294L506.273 118.583C500.638 116.479 494.434 116.479 488.8 118.583L449.403 133.303C439.673 136.944 433.227 146.217 433.227 156.589V191.421C433.227 201.793 439.673 211.075 449.403 214.707L488.79 229.427C494.425 231.531 500.629 231.531 506.264 229.427L545.651 214.707C555.381 211.066 561.828 201.793 561.828 191.421L561.846 191.411Z" fill="#00AFE3"/>
<path d="M497.541 227.453C494.975 227.453 492.457 226.996 490.05 226.103L450.924 211.382C442.63 208.282 437.312 200.256 437.312 191.42V156.589C437.312 147.744 442.621 139.727 450.924 136.627L490.18 121.907C492.587 121.013 495.041 120.557 497.606 120.557C500.172 120.557 502.662 121.013 505.06 121.907L544.083 136.627C552.377 139.727 557.592 147.753 557.592 156.589V191.42C557.592 200.265 552.368 208.282 544.074 211.382L504.855 226.103C502.448 227.006 500.106 227.453 497.541 227.453Z" fill="#009DC1"/>
<path d="M497.536 223.905C495.399 223.905 493.291 223.523 491.294 222.778L452.234 208.058C445.489 205.535 440.992 198.85 440.992 191.41V156.579C440.992 149.14 445.489 142.455 452.224 139.932L491.453 125.212C493.477 124.457 495.492 124.085 497.61 124.085C499.728 124.085 501.808 124.467 503.814 125.212L543.388 139.932C550.263 142.501 555.133 149.196 555.133 156.579V191.41C555.133 198.794 550.254 205.479 543.369 208.058L503.879 222.778C501.874 223.523 499.663 223.905 497.536 223.905Z" fill="url(#paint3_linear_4629_93)"/>
<path d="M573 142.297L422.065 176.867L422 203.161L572.944 168.6L573 142.297Z" fill="#009DC1"/>
<path d="M471.482 159.848L468.311 160.453L468.525 149.14L465.391 150.761L465.437 148.07L471.473 144.597L471.762 144.541L471.473 159.848H471.482Z" fill="white"/>
<path d="M485.207 150.975C485.17 153.042 484.722 154.718 483.873 155.993C483.024 157.269 481.849 158.06 480.337 158.349C478.817 158.637 477.651 158.302 476.839 157.334C476.027 156.366 475.645 154.857 475.682 152.8L475.738 150.006C475.775 147.939 476.223 146.263 477.072 144.988C477.921 143.703 479.106 142.921 480.617 142.632C482.129 142.344 483.295 142.679 484.106 143.647C484.918 144.615 485.3 146.133 485.263 148.191L485.207 150.975ZM482.101 148.34C482.119 147.241 482.007 146.44 481.765 145.947C481.522 145.453 481.112 145.258 480.561 145.37C480.02 145.472 479.619 145.798 479.358 146.357C479.097 146.906 478.957 147.697 478.919 148.721L478.845 152.632C478.826 153.777 478.938 154.587 479.181 155.062C479.423 155.546 479.824 155.732 480.384 155.621C480.925 155.518 481.326 155.183 481.587 154.615C481.858 154.047 481.998 153.219 482.026 152.12L482.101 148.34Z" fill="white"/>
<path d="M496.324 148.842C496.287 150.909 495.839 152.585 494.99 153.86C494.141 155.145 492.966 155.927 491.455 156.216C489.934 156.505 488.768 156.169 487.956 155.201C487.145 154.233 486.762 152.724 486.799 150.667L486.855 147.874C486.893 145.807 487.34 144.131 488.189 142.855C489.038 141.57 490.223 140.788 491.734 140.499C493.246 140.211 494.412 140.546 495.223 141.514C496.035 142.483 496.418 144 496.38 146.058L496.324 148.842ZM493.227 146.198C493.246 145.099 493.134 144.298 492.891 143.805C492.649 143.311 492.248 143.116 491.688 143.227C491.147 143.33 490.746 143.656 490.484 144.214C490.223 144.773 490.083 145.555 490.046 146.579L489.971 150.49C489.953 151.635 490.065 152.445 490.307 152.92C490.55 153.404 490.96 153.59 491.511 153.479C492.052 153.376 492.453 153.041 492.714 152.473C492.985 151.905 493.124 151.076 493.152 149.968L493.227 146.188V146.198Z" fill="white"/>
<path d="M498.096 142.408C498.115 141.459 498.404 140.649 498.964 139.96C499.524 139.271 500.27 138.842 501.193 138.666C502.126 138.489 502.863 138.628 503.404 139.103C503.936 139.578 504.197 140.304 504.179 141.291L504.16 142.045C504.141 142.995 503.852 143.805 503.302 144.485C502.751 145.164 502.005 145.593 501.081 145.77C500.158 145.946 499.43 145.798 498.88 145.341C498.329 144.876 498.068 144.15 498.087 143.153V142.408H498.096ZM501.539 152.93L500.083 152.38L506.977 139.131L508.433 139.68L501.539 152.93ZM500.111 142.827C500.111 143.191 500.186 143.47 500.363 143.656C500.54 143.852 500.792 143.917 501.109 143.852C501.763 143.721 502.108 143.191 502.117 142.259V141.636C502.136 141.273 502.052 140.993 501.884 140.798C501.716 140.602 501.464 140.528 501.147 140.593C500.839 140.649 500.596 140.807 500.41 141.068C500.223 141.328 500.13 141.654 500.121 142.045L500.102 142.827H500.111ZM504.421 149.773C504.44 148.823 504.729 148.004 505.298 147.324C505.867 146.645 506.604 146.217 507.528 146.04C508.461 145.863 509.198 146.002 509.739 146.468C510.28 146.924 510.541 147.669 510.522 148.684V149.419C510.495 150.369 510.205 151.188 509.646 151.868C509.086 152.548 508.349 152.976 507.416 153.153C506.492 153.33 505.765 153.19 505.214 152.725C504.664 152.259 504.403 151.533 504.421 150.537V149.782V149.773ZM506.436 150.192C506.436 150.518 506.52 150.788 506.716 150.993C506.912 151.198 507.155 151.282 507.444 151.226C508.05 151.114 508.386 150.723 508.451 150.071L508.479 148.991C508.479 148.619 508.405 148.339 508.228 148.153C508.05 147.958 507.808 147.892 507.491 147.958C507.192 148.013 506.949 148.172 506.763 148.414C506.576 148.665 506.474 148.963 506.455 149.336L506.436 150.192Z" fill="white"/>
<path d="M440.082 194.382L436.723 195.155L431.583 186.458L431.76 196.3L428.383 197.082L428.094 181.272L431.471 180.49L436.602 189.186L436.425 179.345L439.792 178.572L440.082 194.382Z" fill="white"/>
<path d="M450.774 185.174L445.465 186.403L445.531 190.183L451.8 188.74L451.856 191.672L442.219 193.898L441.93 178.088L451.595 175.854L451.651 178.796L445.363 180.248L445.428 183.581L450.736 182.352L450.783 185.174H450.774Z" fill="white"/>
<path d="M463.96 182.948L465.388 172.669L468.737 171.896L466.05 188.386L462.552 189.196L460.518 180.621L458.848 190.052L455.359 190.862L452.094 175.742L455.452 174.969L457.234 184.512L458.979 174.159L461.843 173.498L463.979 182.958L463.96 182.948Z" fill="white"/>
<path d="M475.242 186.262L474.953 170.453L479.981 169.289C481.782 168.87 483.163 168.926 484.114 169.457C485.066 169.987 485.551 170.956 485.579 172.38C485.598 173.199 485.439 173.935 485.112 174.587C484.786 175.248 484.31 175.788 483.666 176.207C484.403 176.253 484.973 176.533 485.374 177.035C485.775 177.538 485.98 178.218 485.999 179.075C486.027 180.62 485.616 181.886 484.758 182.864C483.9 183.842 482.622 184.54 480.924 184.94L475.242 186.253V186.262ZM478.452 176.263L480.215 175.853C480.952 175.676 481.474 175.397 481.782 175.034C482.09 174.661 482.239 174.186 482.23 173.609C482.22 172.939 482.043 172.501 481.698 172.287C481.353 172.073 480.802 172.054 480.047 172.222L478.396 172.604L478.461 176.263H478.452ZM478.498 178.767L478.563 182.557L480.774 182.045C481.381 181.905 481.847 181.635 482.174 181.244C482.491 180.853 482.65 180.369 482.64 179.801C482.612 178.479 482.025 177.957 480.868 178.218L478.507 178.767H478.498Z" fill="white"/>
<path d="M498.628 164.987L498.815 175.331C498.834 176.505 498.638 177.566 498.209 178.525C497.78 179.484 497.164 180.285 496.343 180.927C495.522 181.57 494.552 182.017 493.423 182.277C491.716 182.668 490.363 182.482 489.365 181.709C488.367 180.937 487.844 179.68 487.788 177.948L487.602 167.529L490.997 166.747L491.193 177.249C491.259 178.972 491.986 179.67 493.376 179.354C494.076 179.195 494.598 178.851 494.953 178.339C495.307 177.817 495.466 177.073 495.457 176.095L495.27 165.769L498.647 164.987H498.628Z" fill="white"/>
<path d="M508.164 174.438C508.154 173.88 507.968 173.488 507.613 173.256C507.259 173.023 506.643 172.846 505.757 172.716C504.871 172.585 504.152 172.427 503.583 172.25C501.755 171.664 500.822 170.49 500.784 168.731C500.766 167.856 500.98 167.027 501.419 166.254C501.857 165.481 502.492 164.811 503.313 164.243C504.134 163.675 505.057 163.275 506.093 163.042C507.1 162.809 508.005 162.8 508.807 163.023C509.61 163.247 510.244 163.675 510.701 164.327C511.158 164.979 511.392 165.779 511.41 166.738L508.042 167.511C508.033 166.869 507.847 166.403 507.492 166.133C507.138 165.863 506.662 165.789 506.065 165.928C505.458 166.068 504.992 166.329 504.647 166.71C504.301 167.092 504.134 167.511 504.143 167.977C504.143 168.386 504.348 168.703 504.74 168.945C505.132 169.187 505.813 169.373 506.783 169.494C507.753 169.615 508.556 169.82 509.19 170.081C510.72 170.714 511.503 171.896 511.531 173.628C511.559 175.015 511.112 176.207 510.207 177.203C509.302 178.209 508.042 178.889 506.428 179.261C505.29 179.522 504.264 179.531 503.331 179.28C502.398 179.038 501.699 178.563 501.223 177.874C500.747 177.185 500.495 176.319 500.477 175.276L503.863 174.494C503.882 175.341 504.087 175.919 504.479 176.235C504.871 176.542 505.505 176.608 506.382 176.403C506.942 176.272 507.38 176.04 507.697 175.695C508.014 175.351 508.173 174.932 508.164 174.438Z" fill="white"/>
<path d="M516.946 176.636L513.578 177.408L513.289 161.599L516.657 160.826L516.946 176.636Z" fill="white"/>
<path d="M530.972 173.395L527.614 174.168L522.473 165.472L522.651 175.313L519.274 176.095L518.984 160.286L522.361 159.503L527.492 168.2L527.315 158.368L530.683 157.595L530.972 173.404V173.395Z" fill="white"/>
<path d="M541.672 164.187L536.364 165.416L536.429 169.196L542.698 167.753L542.754 170.686L533.117 172.911L532.828 157.101L542.493 154.876L542.549 157.818L536.261 159.271L536.327 162.604L541.635 161.375L541.681 164.196L541.672 164.187Z" fill="white"/>
<path d="M551.273 164.494C551.264 163.935 551.077 163.544 550.723 163.311C550.368 163.079 549.752 162.902 548.866 162.771C547.98 162.641 547.262 162.483 546.693 162.306C544.864 161.719 543.931 160.546 543.894 158.786C543.875 157.911 544.09 157.083 544.528 156.31C544.967 155.537 545.601 154.867 546.422 154.299C547.243 153.731 548.167 153.33 549.202 153.098C550.21 152.865 551.114 152.855 551.917 153.079C552.719 153.302 553.353 153.731 553.811 154.382C554.268 155.034 554.501 155.835 554.52 156.794L551.152 157.567C551.142 156.924 550.956 156.459 550.601 156.189C550.247 155.919 549.771 155.844 549.174 155.984C548.568 156.124 548.101 156.384 547.756 156.766C547.411 157.148 547.243 157.567 547.252 158.032C547.252 158.442 547.457 158.758 547.849 159.001C548.241 159.243 548.922 159.429 549.892 159.55C550.863 159.68 551.665 159.876 552.299 160.136C553.829 160.77 554.613 161.952 554.641 163.684C554.669 165.071 554.221 166.263 553.316 167.259C552.411 168.265 551.152 168.944 549.538 169.317C548.4 169.577 547.374 169.587 546.441 169.335C545.508 169.093 544.808 168.618 544.332 167.929C543.856 167.24 543.605 166.375 543.586 165.332L546.972 164.55C546.991 165.397 547.196 165.974 547.588 166.291C547.98 166.598 548.614 166.663 549.491 166.458C550.051 166.328 550.489 166.095 550.807 165.751C551.124 165.406 551.282 164.987 551.273 164.494Z" fill="white"/>
<path d="M563.601 161.645C563.592 161.087 563.405 160.696 563.051 160.463C562.696 160.23 562.081 160.053 561.194 159.923C560.308 159.792 559.59 159.634 559.021 159.457C557.192 158.871 556.259 157.697 556.222 155.938C556.203 155.063 556.418 154.234 556.856 153.461C557.295 152.688 557.929 152.018 558.75 151.45C559.571 150.891 560.495 150.491 561.53 150.249C562.538 150.016 563.443 150.007 564.245 150.23C565.047 150.454 565.682 150.882 566.139 151.534C566.596 152.186 566.829 152.986 566.848 153.945L563.48 154.718C563.471 154.076 563.284 153.61 562.93 153.34C562.575 153.07 562.099 152.996 561.502 153.135C560.896 153.275 560.429 153.536 560.084 153.917C559.739 154.299 559.571 154.718 559.58 155.184C559.58 155.593 559.786 155.91 560.177 156.152C560.569 156.394 561.25 156.58 562.221 156.701C563.191 156.832 563.993 157.027 564.627 157.288C566.157 157.921 566.941 159.103 566.969 160.835C566.997 162.222 566.549 163.414 565.644 164.41C564.739 165.416 563.48 166.096 561.866 166.468C560.728 166.729 559.702 166.738 558.769 166.487C557.836 166.235 557.136 165.77 556.66 165.081C556.185 164.392 555.933 163.526 555.914 162.483L559.301 161.701C559.319 162.548 559.524 163.126 559.916 163.442C560.308 163.759 560.942 163.815 561.819 163.61C562.379 163.479 562.818 163.247 563.135 162.902C563.452 162.558 563.611 162.139 563.601 161.645Z" fill="white"/>
<path d="M479.695 203.087L479.76 206.643L477.53 207.155L477.344 196.672L481.029 195.824C481.738 195.657 482.363 195.666 482.913 195.834C483.464 196.001 483.893 196.327 484.201 196.802C484.508 197.277 484.667 197.863 484.686 198.552C484.704 199.576 484.397 200.461 483.762 201.224C483.128 201.988 482.251 202.5 481.122 202.761L479.704 203.087H479.695ZM479.657 201.141L481.113 200.805C481.542 200.703 481.868 200.508 482.092 200.21C482.316 199.912 482.419 199.539 482.409 199.092C482.409 198.599 482.279 198.236 482.036 198.003C481.794 197.77 481.477 197.686 481.075 197.78L479.592 198.124L479.648 201.15L479.657 201.141Z" fill="white"/>
<path d="M489.359 200.703L488.156 200.982L488.221 204.688L485.991 205.2L485.805 194.716L489.443 193.878C490.535 193.627 491.402 193.701 492.027 194.111C492.652 194.521 492.979 195.228 492.997 196.234C493.007 196.96 492.895 197.593 492.643 198.133C492.391 198.673 491.99 199.157 491.439 199.576L493.445 203.366V203.478L491.057 204.027L489.359 200.694V200.703ZM488.118 199.046L489.527 198.72C489.947 198.627 490.264 198.422 490.479 198.124C490.684 197.826 490.786 197.444 490.777 196.997C490.768 196.55 490.656 196.215 490.432 196.01C490.208 195.806 489.891 195.75 489.471 195.843L488.062 196.169L488.118 199.055V199.046Z" fill="white"/>
<path d="M502.207 196.42C502.226 197.445 502.077 198.385 501.75 199.251C501.433 200.117 500.967 200.834 500.36 201.402C499.754 201.97 499.054 202.342 498.27 202.519C497.487 202.705 496.778 202.659 496.162 202.389C495.546 202.119 495.061 201.644 494.707 200.955C494.352 200.266 494.156 199.437 494.128 198.45V197.864C494.1 196.839 494.25 195.89 494.567 195.033C494.884 194.177 495.35 193.46 495.966 192.882C496.582 192.314 497.282 191.933 498.075 191.756C498.858 191.579 499.558 191.625 500.183 191.905C500.808 192.184 501.293 192.678 501.648 193.376C502.002 194.074 502.189 194.931 502.217 195.936V196.42H502.207ZM499.931 196.504C499.912 195.461 499.744 194.707 499.427 194.242C499.11 193.776 498.662 193.609 498.093 193.739C496.974 194 496.405 195.08 496.377 196.998V197.771C496.405 198.795 496.573 199.549 496.88 200.033C497.188 200.517 497.645 200.694 498.233 200.554C498.793 200.424 499.222 200.052 499.521 199.437C499.819 198.823 499.959 198.013 499.94 196.988V196.504H499.931Z" fill="white"/>
<path d="M506.181 190.024L508.373 196.839L510.295 189.074L513.224 188.395L513.411 198.878L511.181 199.39L511.135 196.942L511.256 191.886L509.157 199.856L507.683 200.2L505.304 193.255L505.612 198.217L505.658 200.666L503.429 201.178L503.242 190.694L506.172 190.015L506.181 190.024Z" fill="white"/>
<path d="M517.204 198.003L514.983 198.515L514.797 188.032L517.017 187.52L517.204 198.003Z" fill="white"/>
<path d="M523.466 193.757C523.466 193.385 523.335 193.124 523.102 192.975C522.869 192.817 522.458 192.705 521.87 192.612C521.292 192.528 520.807 192.416 520.434 192.295C519.221 191.904 518.605 191.131 518.587 189.958C518.577 189.381 518.717 188.832 519.006 188.32C519.296 187.808 519.715 187.361 520.256 186.988C520.798 186.616 521.413 186.346 522.094 186.197C522.757 186.039 523.354 186.039 523.885 186.197C524.417 186.355 524.837 186.634 525.136 187.063C525.434 187.491 525.593 188.022 525.602 188.664L523.382 189.176C523.382 188.748 523.251 188.441 523.018 188.264C522.785 188.078 522.467 188.04 522.076 188.124C521.674 188.217 521.367 188.385 521.143 188.636C520.919 188.888 520.807 189.167 520.807 189.474C520.807 189.744 520.947 189.958 521.199 190.117C521.46 190.275 521.908 190.396 522.551 190.48C523.195 190.564 523.727 190.694 524.137 190.871C525.145 191.29 525.667 192.081 525.686 193.226C525.705 194.139 525.415 194.93 524.809 195.601C524.212 196.262 523.382 196.718 522.318 196.96C521.572 197.137 520.891 197.137 520.275 196.969C519.659 196.802 519.193 196.494 518.885 196.038C518.568 195.582 518.4 195.005 518.391 194.316L520.62 193.804C520.63 194.362 520.77 194.753 521.031 194.958C521.292 195.163 521.712 195.2 522.281 195.07C522.645 194.986 522.943 194.828 523.148 194.595C523.363 194.362 523.456 194.092 523.456 193.757H523.466Z" fill="white"/>
<path d="M532.534 189.996L529.035 190.806L529.082 193.31L533.215 192.351L533.252 194.297L526.89 195.768L526.703 185.285L533.084 183.813L533.122 185.759L528.97 186.718L529.007 188.925L532.506 188.115L532.543 189.986L532.534 189.996Z" fill="white"/>
<path d="M468.439 197.9L469.792 200.638L472.824 201.075L470.632 203.217L471.154 206.224L468.439 204.8L465.725 206.224L466.247 203.217L464.055 201.075L467.087 200.638L468.439 197.9Z" fill="white"/>
<path d="M540.533 182.705L541.886 185.442L544.918 185.88L542.725 188.021L543.248 191.029L540.533 189.604L537.818 191.029L538.341 188.021L536.148 185.88L539.18 185.442L540.533 182.705Z" fill="white"/>
<path d="M513.836 143.033L527.811 141.841L514.34 145.723L513.836 143.033Z" fill="white"/>
<path d="M462.428 153.479L449.172 158.042L463.063 156.152L462.428 153.479Z" fill="white"/>
</g>
<path d="M79.0466 66.6364L72.2216 91.0664H66.4466L61.8616 73.6714L57.0666 91.0664L51.3266 91.1014L44.7466 66.6364H49.9966L54.3016 85.6064L59.2716 66.6364H64.7316L69.4216 85.5014L73.7616 66.6364H79.0466ZM93.1661 71.3964C94.6361 71.3964 95.9427 71.7231 97.0861 72.3764C98.2294 73.0064 99.1161 73.9514 99.7461 75.2114C100.399 76.4481 100.726 77.9414 100.726 79.6914V91.0664H95.8261V80.3564C95.8261 78.8164 95.4411 77.6381 94.6711 76.8214C93.9011 75.9814 92.8511 75.5614 91.5211 75.5614C90.1677 75.5614 89.0944 75.9814 88.3011 76.8214C87.5311 77.6381 87.1461 78.8164 87.1461 80.3564V91.0664H82.2461V65.1664H87.1461V74.0914C87.7761 73.2514 88.6161 72.5981 89.6661 72.1314C90.7161 71.6414 91.8827 71.3964 93.1661 71.3964ZM123.411 80.9514C123.411 81.6514 123.364 82.2814 123.271 82.8414H109.096C109.212 84.2414 109.702 85.3381 110.566 86.1314C111.429 86.9247 112.491 87.3214 113.751 87.3214C115.571 87.3214 116.866 86.5397 117.636 84.9764H122.921C122.361 86.8431 121.287 88.3831 119.701 89.5964C118.114 90.7864 116.166 91.3814 113.856 91.3814C111.989 91.3814 110.309 90.9731 108.816 90.1564C107.346 89.3164 106.191 88.1381 105.351 86.6214C104.534 85.1047 104.126 83.3547 104.126 81.3714C104.126 79.3647 104.534 77.6031 105.351 76.0864C106.167 74.5697 107.311 73.4031 108.781 72.5864C110.251 71.7697 111.942 71.3614 113.856 71.3614C115.699 71.3614 117.344 71.7581 118.791 72.5514C120.261 73.3447 121.392 74.4764 122.186 75.9464C123.002 77.3931 123.411 79.0614 123.411 80.9514ZM118.336 79.5514C118.312 78.2914 117.857 77.2881 116.971 76.5414C116.084 75.7714 114.999 75.3864 113.716 75.3864C112.502 75.3864 111.476 75.7597 110.636 76.5064C109.819 77.2297 109.317 78.2447 109.131 79.5514H118.336ZM131.887 74.6864C132.517 73.6597 133.334 72.8547 134.337 72.2714C135.364 71.6881 136.531 71.3964 137.837 71.3964V76.5414H136.542C135.002 76.5414 133.836 76.9031 133.042 77.6264C132.272 78.3497 131.887 79.6097 131.887 81.4064V91.0664H126.987V71.6764H131.887V74.6864ZM159.163 80.9514C159.163 81.6514 159.116 82.2814 159.023 82.8414H144.848C144.964 84.2414 145.454 85.3381 146.318 86.1314C147.181 86.9247 148.243 87.3214 149.503 87.3214C151.323 87.3214 152.618 86.5397 153.388 84.9764H158.673C158.113 86.8431 157.039 88.3831 155.453 89.5964C153.866 90.7864 151.918 91.3814 149.608 91.3814C147.741 91.3814 146.061 90.9731 144.568 90.1564C143.098 89.3164 141.943 88.1381 141.103 86.6214C140.286 85.1047 139.878 83.3547 139.878 81.3714C139.878 79.3647 140.286 77.6031 141.103 76.0864C141.919 74.5697 143.063 73.4031 144.533 72.5864C146.003 71.7697 147.694 71.3614 149.608 71.3614C151.451 71.3614 153.096 71.7581 154.543 72.5514C156.013 73.3447 157.144 74.4764 157.938 75.9464C158.754 77.3931 159.163 79.0614 159.163 80.9514ZM154.088 79.5514C154.064 78.2914 153.609 77.2881 152.723 76.5414C151.836 75.7714 150.751 75.3864 149.468 75.3864C148.254 75.3864 147.228 75.7597 146.388 76.5064C145.571 77.2297 145.069 78.2447 144.883 79.5514H154.088ZM173.564 69.3664C172.701 69.3664 171.977 69.0981 171.394 68.5614C170.834 68.0014 170.554 67.3131 170.554 66.4964C170.554 65.6797 170.834 65.0031 171.394 64.4664C171.977 63.9064 172.701 63.6264 173.564 63.6264C174.427 63.6264 175.139 63.9064 175.699 64.4664C176.282 65.0031 176.574 65.6797 176.574 66.4964C176.574 67.3131 176.282 68.0014 175.699 68.5614C175.139 69.0981 174.427 69.3664 173.564 69.3664ZM175.979 71.6764V91.0664H171.079V71.6764H175.979ZM186.525 75.7014V85.0814C186.525 85.7347 186.677 86.2131 186.98 86.5164C187.307 86.7964 187.844 86.9364 188.59 86.9364H190.865V91.0664H187.785C183.655 91.0664 181.59 89.0597 181.59 85.0464V75.7014H179.28V71.6764H181.59V66.8814H186.525V71.6764H190.865V75.7014H186.525ZM201.81 91.3814C200.223 91.3814 198.8 91.1014 197.54 90.5414C196.28 89.9581 195.276 89.1764 194.53 88.1964C193.806 87.2164 193.41 86.1314 193.34 84.9414H198.275C198.368 85.6881 198.73 86.3064 199.36 86.7964C200.013 87.2864 200.818 87.5314 201.775 87.5314C202.708 87.5314 203.431 87.3447 203.945 86.9714C204.481 86.5981 204.75 86.1197 204.75 85.5364C204.75 84.9064 204.423 84.4397 203.77 84.1364C203.14 83.8097 202.125 83.4597 200.725 83.0864C199.278 82.7364 198.088 82.3747 197.155 82.0014C196.245 81.6281 195.451 81.0564 194.775 80.2864C194.121 79.5164 193.795 78.4781 193.795 77.1714C193.795 76.0981 194.098 75.1181 194.705 74.2314C195.335 73.3447 196.221 72.6447 197.365 72.1314C198.531 71.6181 199.896 71.3614 201.46 71.3614C203.77 71.3614 205.613 71.9447 206.99 73.1114C208.366 74.2547 209.125 75.8064 209.265 77.7664H204.575C204.505 76.9964 204.178 76.3897 203.595 75.9464C203.035 75.4797 202.276 75.2464 201.32 75.2464C200.433 75.2464 199.745 75.4097 199.255 75.7364C198.788 76.0631 198.555 76.5181 198.555 77.1014C198.555 77.7547 198.881 78.2564 199.535 78.6064C200.188 78.9331 201.203 79.2714 202.58 79.6214C203.98 79.9714 205.135 80.3331 206.045 80.7064C206.955 81.0797 207.736 81.6631 208.39 82.4564C209.066 83.2264 209.416 84.2531 209.44 85.5364C209.44 86.6564 209.125 87.6597 208.495 88.5464C207.888 89.4331 207.001 90.1331 205.835 90.6464C204.691 91.1364 203.35 91.3814 201.81 91.3814ZM229.222 91.3814C227.635 91.3814 226.212 91.1014 224.952 90.5414C223.692 89.9581 222.688 89.1764 221.942 88.1964C221.218 87.2164 220.822 86.1314 220.752 84.9414H225.687C225.78 85.6881 226.142 86.3064 226.772 86.7964C227.425 87.2864 228.23 87.5314 229.187 87.5314C230.12 87.5314 230.843 87.3447 231.357 86.9714C231.893 86.5981 232.162 86.1197 232.162 85.5364C232.162 84.9064 231.835 84.4397 231.182 84.1364C230.552 83.8097 229.537 83.4597 228.137 83.0864C226.69 82.7364 225.5 82.3747 224.567 82.0014C223.657 81.6281 222.863 81.0564 222.187 80.2864C221.533 79.5164 221.207 78.4781 221.207 77.1714C221.207 76.0981 221.51 75.1181 222.117 74.2314C222.747 73.3447 223.633 72.6447 224.777 72.1314C225.943 71.6181 227.308 71.3614 228.872 71.3614C231.182 71.3614 233.025 71.9447 234.402 73.1114C235.778 74.2547 236.537 75.8064 236.677 77.7664H231.987C231.917 76.9964 231.59 76.3897 231.007 75.9464C230.447 75.4797 229.688 75.2464 228.732 75.2464C227.845 75.2464 227.157 75.4097 226.667 75.7364C226.2 76.0631 225.967 76.5181 225.967 77.1014C225.967 77.7547 226.293 78.2564 226.947 78.6064C227.6 78.9331 228.615 79.2714 229.992 79.6214C231.392 79.9714 232.547 80.3331 233.457 80.7064C234.367 81.0797 235.148 81.6631 235.802 82.4564C236.478 83.2264 236.828 84.2531 236.852 85.5364C236.852 86.6564 236.537 87.6597 235.907 88.5464C235.3 89.4331 234.413 90.1331 233.247 90.6464C232.103 91.1364 230.762 91.3814 229.222 91.3814ZM239.614 81.3014C239.614 79.3414 239.999 77.6031 240.769 76.0864C241.562 74.5697 242.624 73.4031 243.954 72.5864C245.307 71.7697 246.812 71.3614 248.469 71.3614C249.916 71.3614 251.176 71.6531 252.249 72.2364C253.346 72.8197 254.221 73.5547 254.874 74.4414V71.6764H259.809V91.0664H254.874V88.2314C254.244 89.1414 253.369 89.8997 252.249 90.5064C251.152 91.0897 249.881 91.3814 248.434 91.3814C246.801 91.3814 245.307 90.9614 243.954 90.1214C242.624 89.2814 241.562 88.1031 240.769 86.5864C239.999 85.0464 239.614 83.2847 239.614 81.3014ZM254.874 81.3714C254.874 80.1814 254.641 79.1664 254.174 78.3264C253.707 77.4631 253.077 76.8097 252.284 76.3664C251.491 75.8997 250.639 75.6664 249.729 75.6664C248.819 75.6664 247.979 75.8881 247.209 76.3314C246.439 76.7747 245.809 77.4281 245.319 78.2914C244.852 79.1314 244.619 80.1347 244.619 81.3014C244.619 82.4681 244.852 83.4947 245.319 84.3814C245.809 85.2447 246.439 85.9097 247.209 86.3764C248.002 86.8431 248.842 87.0764 249.729 87.0764C250.639 87.0764 251.491 86.8547 252.284 86.4114C253.077 85.9447 253.707 85.2914 254.174 84.4514C254.641 83.5881 254.874 82.5614 254.874 81.3714ZM283.145 71.6764L271.14 100.236H265.925L270.125 90.5764L262.355 71.6764H267.85L272.855 85.2214L277.93 71.6764H283.145ZM293.206 91.3814C291.619 91.3814 290.196 91.1014 288.936 90.5414C287.676 89.9581 286.673 89.1764 285.926 88.1964C285.203 87.2164 284.806 86.1314 284.736 84.9414H289.671C289.764 85.6881 290.126 86.3064 290.756 86.7964C291.409 87.2864 292.214 87.5314 293.171 87.5314C294.104 87.5314 294.828 87.3447 295.341 86.9714C295.878 86.5981 296.146 86.1197 296.146 85.5364C296.146 84.9064 295.819 84.4397 295.166 84.1364C294.536 83.8097 293.521 83.4597 292.121 83.0864C290.674 82.7364 289.484 82.3747 288.551 82.0014C287.641 81.6281 286.848 81.0564 286.171 80.2864C285.518 79.5164 285.191 78.4781 285.191 77.1714C285.191 76.0981 285.494 75.1181 286.101 74.2314C286.731 73.3447 287.618 72.6447 288.761 72.1314C289.928 71.6181 291.293 71.3614 292.856 71.3614C295.166 71.3614 297.009 71.9447 298.386 73.1114C299.763 74.2547 300.521 75.8064 300.661 77.7664H295.971C295.901 76.9964 295.574 76.3897 294.991 75.9464C294.431 75.4797 293.673 75.2464 292.716 75.2464C291.829 75.2464 291.141 75.4097 290.651 75.7364C290.184 76.0631 289.951 76.5181 289.951 77.1014C289.951 77.7547 290.278 78.2564 290.931 78.6064C291.584 78.9331 292.599 79.2714 293.976 79.6214C295.376 79.9714 296.531 80.3331 297.441 80.7064C298.351 81.0797 299.133 81.6631 299.786 82.4564C300.463 83.2264 300.813 84.2531 300.836 85.5364C300.836 86.6564 300.521 87.6597 299.891 88.5464C299.284 89.4331 298.398 90.1331 297.231 90.6464C296.088 91.1364 294.746 91.3814 293.206 91.3814ZM317.048 75.4564H311.868L315.648 66.6364H319.043L317.048 75.4564ZM324.118 75.4564H318.938L322.718 66.6364H326.113L324.118 75.4564ZM350.773 91.0664H345.873L334.778 74.3014V91.0664H329.878V66.6014H334.778L345.873 83.4014V66.6014H350.773V91.0664ZM364.225 91.3814C362.359 91.3814 360.679 90.9731 359.185 90.1564C357.692 89.3164 356.514 88.1381 355.65 86.6214C354.81 85.1047 354.39 83.3547 354.39 81.3714C354.39 79.3881 354.822 77.6381 355.685 76.1214C356.572 74.6047 357.774 73.4381 359.29 72.6214C360.807 71.7814 362.499 71.3614 364.365 71.3614C366.232 71.3614 367.924 71.7814 369.44 72.6214C370.957 73.4381 372.147 74.6047 373.01 76.1214C373.897 77.6381 374.34 79.3881 374.34 81.3714C374.34 83.3547 373.885 85.1047 372.975 86.6214C372.089 88.1381 370.875 89.3164 369.335 90.1564C367.819 90.9731 366.115 91.3814 364.225 91.3814ZM364.225 87.1114C365.112 87.1114 365.94 86.9014 366.71 86.4814C367.504 86.0381 368.134 85.3847 368.6 84.5214C369.067 83.6581 369.3 82.6081 369.3 81.3714C369.3 79.5281 368.81 78.1164 367.83 77.1364C366.874 76.1331 365.695 75.6314 364.295 75.6314C362.895 75.6314 361.717 76.1331 360.76 77.1364C359.827 78.1164 359.36 79.5281 359.36 81.3714C359.36 83.2147 359.815 84.6381 360.725 85.6414C361.659 86.6214 362.825 87.1114 364.225 87.1114ZM406.539 66.6364V91.0664H401.639V80.6714H391.174V91.0664H386.274V66.6364H391.174V76.6814H401.639V66.6364H406.539ZM413.847 69.3664C412.984 69.3664 412.261 69.0981 411.677 68.5614C411.117 68.0014 410.837 67.3131 410.837 66.4964C410.837 65.6797 411.117 65.0031 411.677 64.4664C412.261 63.9064 412.984 63.6264 413.847 63.6264C414.711 63.6264 415.422 63.9064 415.982 64.4664C416.566 65.0031 416.857 65.6797 416.857 66.4964C416.857 67.3131 416.566 68.0014 415.982 68.5614C415.422 69.0981 414.711 69.3664 413.847 69.3664ZM416.262 71.6764V91.0664H411.362V71.6764H416.262ZM426.003 74.6864C426.633 73.6597 427.45 72.8547 428.453 72.2714C429.48 71.6881 430.647 71.3964 431.953 71.3964V76.5414H430.658C429.118 76.5414 427.952 76.9031 427.158 77.6264C426.388 78.3497 426.003 79.6097 426.003 81.4064V91.0664H421.103V71.6764H426.003V74.6864ZM453.279 80.9514C453.279 81.6514 453.232 82.2814 453.139 82.8414H438.964C439.081 84.2414 439.571 85.3381 440.434 86.1314C441.297 86.9247 442.359 87.3214 443.619 87.3214C445.439 87.3214 446.734 86.5397 447.504 84.9764H452.789C452.229 86.8431 451.156 88.3831 449.569 89.5964C447.982 90.7864 446.034 91.3814 443.724 91.3814C441.857 91.3814 440.177 90.9731 438.684 90.1564C437.214 89.3164 436.059 88.1381 435.219 86.6214C434.402 85.1047 433.994 83.3547 433.994 81.3714C433.994 79.3647 434.402 77.6031 435.219 76.0864C436.036 74.5697 437.179 73.4031 438.649 72.5864C440.119 71.7697 441.811 71.3614 443.724 71.3614C445.567 71.3614 447.212 71.7581 448.659 72.5514C450.129 73.3447 451.261 74.4764 452.054 75.9464C452.871 77.3931 453.279 79.0614 453.279 80.9514ZM448.204 79.5514C448.181 78.2914 447.726 77.2881 446.839 76.5414C445.952 75.7714 444.867 75.3864 443.584 75.3864C442.371 75.3864 441.344 75.7597 440.504 76.5064C439.687 77.2297 439.186 78.2447 438.999 79.5514H448.204ZM459.025 91.3114C458.139 91.3114 457.404 91.0431 456.82 90.5064C456.26 89.9464 455.98 89.2581 455.98 88.4414C455.98 87.6247 456.26 86.9481 456.82 86.4114C457.404 85.8514 458.139 85.5714 459.025 85.5714C459.889 85.5714 460.6 85.8514 461.16 86.4114C461.72 86.9481 462 87.6247 462 88.4414C462 89.2581 461.72 89.9464 461.16 90.5064C460.6 91.0431 459.889 91.3114 459.025 91.3114ZM468.117 91.3114C467.231 91.3114 466.496 91.0431 465.912 90.5064C465.352 89.9464 465.072 89.2581 465.072 88.4414C465.072 87.6247 465.352 86.9481 465.912 86.4114C466.496 85.8514 467.231 85.5714 468.117 85.5714C468.981 85.5714 469.692 85.8514 470.252 86.4114C470.812 86.9481 471.092 87.6247 471.092 88.4414C471.092 89.2581 470.812 89.9464 470.252 90.5064C469.692 91.0431 468.981 91.3114 468.117 91.3114ZM477.209 91.3114C476.322 91.3114 475.587 91.0431 475.004 90.5064C474.444 89.9464 474.164 89.2581 474.164 88.4414C474.164 87.6247 474.444 86.9481 475.004 86.4114C475.587 85.8514 476.322 85.5714 477.209 85.5714C478.072 85.5714 478.784 85.8514 479.344 86.4114C479.904 86.9481 480.184 87.6247 480.184 88.4414C480.184 89.2581 479.904 89.9464 479.344 90.5064C478.784 91.0431 478.072 91.3114 477.209 91.3114ZM486.301 91.3114C485.414 91.3114 484.679 91.0431 484.096 90.5064C483.536 89.9464 483.256 89.2581 483.256 88.4414C483.256 87.6247 483.536 86.9481 484.096 86.4114C484.679 85.8514 485.414 85.5714 486.301 85.5714C487.164 85.5714 487.876 85.8514 488.436 86.4114C488.996 86.9481 489.276 87.6247 489.276 88.4414C489.276 89.2581 488.996 89.9464 488.436 90.5064C487.876 91.0431 487.164 91.3114 486.301 91.3114Z" fill="black"/>
<path d="M54.1466 126.571L50.0606 134.383V139.117H48.4226V134.383L44.3186 126.571H46.1366L49.2326 132.925L52.3286 126.571H54.1466ZM60.1763 139.279C59.2523 139.279 58.4123 139.069 57.6563 138.649C56.9123 138.229 56.3243 137.635 55.8923 136.867C55.4723 136.087 55.2623 135.187 55.2623 134.167C55.2623 133.159 55.4783 132.271 55.9103 131.503C56.3543 130.723 56.9543 130.129 57.7103 129.721C58.4663 129.301 59.3123 129.091 60.2483 129.091C61.1843 129.091 62.0303 129.301 62.7863 129.721C63.5423 130.129 64.1363 130.717 64.5683 131.485C65.0123 132.253 65.2343 133.147 65.2343 134.167C65.2343 135.187 65.0063 136.087 64.5503 136.867C64.1063 137.635 63.5003 138.229 62.7323 138.649C61.9643 139.069 61.1123 139.279 60.1763 139.279ZM60.1763 137.839C60.7643 137.839 61.3163 137.701 61.8323 137.425C62.3483 137.149 62.7623 136.735 63.0743 136.183C63.3983 135.631 63.5603 134.959 63.5603 134.167C63.5603 133.375 63.4043 132.703 63.0923 132.151C62.7803 131.599 62.3723 131.191 61.8683 130.927C61.3643 130.651 60.8183 130.513 60.2303 130.513C59.6303 130.513 59.0783 130.651 58.5743 130.927C58.0823 131.191 57.6863 131.599 57.3863 132.151C57.0863 132.703 56.9363 133.375 56.9363 134.167C56.9363 134.971 57.0803 135.649 57.3683 136.201C57.6683 136.753 58.0643 137.167 58.5563 137.443C59.0483 137.707 59.5883 137.839 60.1763 137.839ZM76.136 129.253V139.117H74.498V137.659C74.186 138.163 73.748 138.559 73.184 138.847C72.632 139.123 72.02 139.261 71.348 139.261C70.58 139.261 69.89 139.105 69.278 138.793C68.666 138.469 68.18 137.989 67.82 137.353C67.472 136.717 67.298 135.943 67.298 135.031V129.253H68.918V134.815C68.918 135.787 69.164 136.537 69.656 137.065C70.148 137.581 70.82 137.839 71.672 137.839C72.548 137.839 73.238 137.569 73.742 137.029C74.246 136.489 74.498 135.703 74.498 134.671V129.253H76.136ZM80.5396 130.855C80.8276 130.291 81.2356 129.853 81.7636 129.541C82.3036 129.229 82.9576 129.073 83.7256 129.073V130.765H83.2936C81.4576 130.765 80.5396 131.761 80.5396 133.753V139.117H78.9016V129.253H80.5396V130.855ZM94.4293 130.603H92.3593V139.117H90.7213V130.603H89.4433V129.253H90.7213V128.551C90.7213 127.447 91.0033 126.643 91.5673 126.139C92.1433 125.623 93.0613 125.365 94.3213 125.365V126.733C93.6013 126.733 93.0913 126.877 92.7913 127.165C92.5033 127.441 92.3593 127.903 92.3593 128.551V129.253H94.4293V130.603ZM97.1851 127.651C96.8731 127.651 96.6091 127.543 96.3931 127.327C96.1771 127.111 96.0691 126.847 96.0691 126.535C96.0691 126.223 96.1771 125.959 96.3931 125.743C96.6091 125.527 96.8731 125.419 97.1851 125.419C97.4851 125.419 97.7371 125.527 97.9411 125.743C98.1571 125.959 98.2651 126.223 98.2651 126.535C98.2651 126.847 98.1571 127.111 97.9411 127.327C97.7371 127.543 97.4851 127.651 97.1851 127.651ZM97.9771 129.253V139.117H96.3391V129.253H97.9771ZM102.407 130.855C102.695 130.291 103.103 129.853 103.631 129.541C104.171 129.229 104.825 129.073 105.593 129.073V130.765H105.161C103.325 130.765 102.407 131.761 102.407 133.753V139.117H100.769V129.253H102.407V130.855ZM110.976 139.279C110.22 139.279 109.542 139.153 108.942 138.901C108.342 138.637 107.868 138.277 107.52 137.821C107.172 137.353 106.98 136.819 106.944 136.219H108.636C108.684 136.711 108.912 137.113 109.32 137.425C109.74 137.737 110.286 137.893 110.958 137.893C111.582 137.893 112.074 137.755 112.434 137.479C112.794 137.203 112.974 136.855 112.974 136.435C112.974 136.003 112.782 135.685 112.398 135.481C112.014 135.265 111.42 135.055 110.616 134.851C109.884 134.659 109.284 134.467 108.816 134.275C108.36 134.071 107.964 133.777 107.628 133.393C107.304 132.997 107.142 132.481 107.142 131.845C107.142 131.341 107.292 130.879 107.592 130.459C107.892 130.039 108.318 129.709 108.87 129.469C109.422 129.217 110.052 129.091 110.76 129.091C111.852 129.091 112.734 129.367 113.406 129.919C114.078 130.471 114.438 131.227 114.486 132.187H112.848C112.812 131.671 112.602 131.257 112.218 130.945C111.846 130.633 111.342 130.477 110.706 130.477C110.118 130.477 109.65 130.603 109.302 130.855C108.954 131.107 108.78 131.437 108.78 131.845C108.78 132.169 108.882 132.439 109.086 132.655C109.302 132.859 109.566 133.027 109.878 133.159C110.202 133.279 110.646 133.417 111.21 133.573C111.918 133.765 112.494 133.957 112.938 134.149C113.382 134.329 113.76 134.605 114.072 134.977C114.396 135.349 114.564 135.835 114.576 136.435C114.576 136.975 114.426 137.461 114.126 137.893C113.826 138.325 113.4 138.667 112.848 138.919C112.308 139.159 111.684 139.279 110.976 139.279ZM118.886 130.603V136.417C118.886 136.897 118.988 137.239 119.192 137.443C119.396 137.635 119.75 137.731 120.254 137.731H121.46V139.117H119.984C119.072 139.117 118.388 138.907 117.932 138.487C117.476 138.067 117.248 137.377 117.248 136.417V130.603H115.97V129.253H117.248V126.769H118.886V129.253H121.46V130.603H118.886ZM129.881 131.071C130.205 130.507 130.685 130.039 131.321 129.667C131.969 129.283 132.719 129.091 133.571 129.091C134.447 129.091 135.239 129.301 135.947 129.721C136.667 130.141 137.231 130.735 137.639 131.503C138.047 132.259 138.251 133.141 138.251 134.149C138.251 135.145 138.047 136.033 137.639 136.813C137.231 137.593 136.667 138.199 135.947 138.631C135.239 139.063 134.447 139.279 133.571 139.279C132.731 139.279 131.987 139.093 131.339 138.721C130.703 138.337 130.217 137.863 129.881 137.299V143.797H128.243V129.253H129.881V131.071ZM136.577 134.149C136.577 133.405 136.427 132.757 136.127 132.205C135.827 131.653 135.419 131.233 134.903 130.945C134.399 130.657 133.841 130.513 133.229 130.513C132.629 130.513 132.071 130.663 131.555 130.963C131.051 131.251 130.643 131.677 130.331 132.241C130.031 132.793 129.881 133.435 129.881 134.167C129.881 134.911 130.031 135.565 130.331 136.129C130.643 136.681 131.051 137.107 131.555 137.407C132.071 137.695 132.629 137.839 133.229 137.839C133.841 137.839 134.399 137.695 134.903 137.407C135.419 137.107 135.827 136.681 136.127 136.129C136.427 135.565 136.577 134.905 136.577 134.149ZM139.795 134.149C139.795 133.141 139.999 132.259 140.407 131.503C140.815 130.735 141.373 130.141 142.081 129.721C142.801 129.301 143.599 129.091 144.475 129.091C145.339 129.091 146.089 129.277 146.725 129.649C147.361 130.021 147.835 130.489 148.147 131.053V129.253H149.803V139.117H148.147V137.281C147.823 137.857 147.337 138.337 146.689 138.721C146.053 139.093 145.309 139.279 144.457 139.279C143.581 139.279 142.789 139.063 142.081 138.631C141.373 138.199 140.815 137.593 140.407 136.813C139.999 136.033 139.795 135.145 139.795 134.149ZM148.147 134.167C148.147 133.423 147.997 132.775 147.697 132.223C147.397 131.671 146.989 131.251 146.473 130.963C145.969 130.663 145.411 130.513 144.799 130.513C144.187 130.513 143.629 130.657 143.125 130.945C142.621 131.233 142.219 131.653 141.919 132.205C141.619 132.757 141.469 133.405 141.469 134.149C141.469 134.905 141.619 135.565 141.919 136.129C142.219 136.681 142.621 137.107 143.125 137.407C143.629 137.695 144.187 137.839 144.799 137.839C145.411 137.839 145.969 137.695 146.473 137.407C146.989 137.107 147.397 136.681 147.697 136.129C147.997 135.565 148.147 134.911 148.147 134.167ZM151.96 134.167C151.96 133.147 152.164 132.259 152.572 131.503C152.98 130.735 153.544 130.141 154.264 129.721C154.996 129.301 155.83 129.091 156.766 129.091C157.978 129.091 158.974 129.385 159.754 129.973C160.546 130.561 161.068 131.377 161.32 132.421H159.556C159.388 131.821 159.058 131.347 158.566 130.999C158.086 130.651 157.486 130.477 156.766 130.477C155.83 130.477 155.074 130.801 154.498 131.449C153.922 132.085 153.634 132.991 153.634 134.167C153.634 135.355 153.922 136.273 154.498 136.921C155.074 137.569 155.83 137.893 156.766 137.893C157.486 137.893 158.086 137.725 158.566 137.389C159.046 137.053 159.376 136.573 159.556 135.949H161.32C161.056 136.957 160.528 137.767 159.736 138.379C158.944 138.979 157.954 139.279 156.766 139.279C155.83 139.279 154.996 139.069 154.264 138.649C153.544 138.229 152.98 137.635 152.572 136.867C152.164 136.099 151.96 135.199 151.96 134.167ZM169.013 139.117L165.143 134.761V139.117H163.505V125.797H165.143V133.627L168.941 129.253H171.227L166.583 134.167L171.245 139.117H169.013ZM178.414 127.651C178.102 127.651 177.838 127.543 177.622 127.327C177.406 127.111 177.298 126.847 177.298 126.535C177.298 126.223 177.406 125.959 177.622 125.743C177.838 125.527 178.102 125.419 178.414 125.419C178.714 125.419 178.966 125.527 179.17 125.743C179.386 125.959 179.494 126.223 179.494 126.535C179.494 126.847 179.386 127.111 179.17 127.327C178.966 127.543 178.714 127.651 178.414 127.651ZM179.206 129.253V139.117H177.568V129.253H179.206ZM185.489 139.279C184.733 139.279 184.055 139.153 183.455 138.901C182.855 138.637 182.381 138.277 182.033 137.821C181.685 137.353 181.493 136.819 181.457 136.219H183.149C183.197 136.711 183.425 137.113 183.833 137.425C184.253 137.737 184.799 137.893 185.471 137.893C186.095 137.893 186.587 137.755 186.947 137.479C187.307 137.203 187.487 136.855 187.487 136.435C187.487 136.003 187.295 135.685 186.911 135.481C186.527 135.265 185.933 135.055 185.129 134.851C184.397 134.659 183.797 134.467 183.329 134.275C182.873 134.071 182.477 133.777 182.141 133.393C181.817 132.997 181.655 132.481 181.655 131.845C181.655 131.341 181.805 130.879 182.105 130.459C182.405 130.039 182.831 129.709 183.383 129.469C183.935 129.217 184.565 129.091 185.273 129.091C186.365 129.091 187.247 129.367 187.919 129.919C188.591 130.471 188.951 131.227 188.999 132.187H187.361C187.325 131.671 187.115 131.257 186.731 130.945C186.359 130.633 185.855 130.477 185.219 130.477C184.631 130.477 184.163 130.603 183.815 130.855C183.467 131.107 183.293 131.437 183.293 131.845C183.293 132.169 183.395 132.439 183.599 132.655C183.815 132.859 184.079 133.027 184.391 133.159C184.715 133.279 185.159 133.417 185.723 133.573C186.431 133.765 187.007 133.957 187.451 134.149C187.895 134.329 188.273 134.605 188.585 134.977C188.909 135.349 189.077 135.835 189.089 136.435C189.089 136.975 188.939 137.461 188.639 137.893C188.339 138.325 187.913 138.667 187.361 138.919C186.821 139.159 186.197 139.279 185.489 139.279ZM197.838 131.089C198.174 130.501 198.666 130.021 199.314 129.649C199.962 129.277 200.7 129.091 201.528 129.091C202.416 129.091 203.214 129.301 203.922 129.721C204.63 130.141 205.188 130.735 205.596 131.503C206.004 132.259 206.208 133.141 206.208 134.149C206.208 135.145 206.004 136.033 205.596 136.813C205.188 137.593 204.624 138.199 203.904 138.631C203.196 139.063 202.404 139.279 201.528 139.279C200.676 139.279 199.926 139.093 199.278 138.721C198.642 138.349 198.162 137.875 197.838 137.299V139.117H196.2V125.797H197.838V131.089ZM204.534 134.149C204.534 133.405 204.384 132.757 204.084 132.205C203.784 131.653 203.376 131.233 202.86 130.945C202.356 130.657 201.798 130.513 201.186 130.513C200.586 130.513 200.028 130.663 199.512 130.963C199.008 131.251 198.6 131.677 198.288 132.241C197.988 132.793 197.838 133.435 197.838 134.167C197.838 134.911 197.988 135.565 198.288 136.129C198.6 136.681 199.008 137.107 199.512 137.407C200.028 137.695 200.586 137.839 201.186 137.839C201.798 137.839 202.356 137.695 202.86 137.407C203.376 137.107 203.784 136.681 204.084 136.129C204.384 135.565 204.534 134.905 204.534 134.149ZM207.753 134.149C207.753 133.141 207.957 132.259 208.365 131.503C208.773 130.735 209.331 130.141 210.039 129.721C210.759 129.301 211.557 129.091 212.433 129.091C213.297 129.091 214.047 129.277 214.683 129.649C215.319 130.021 215.793 130.489 216.105 131.053V129.253H217.761V139.117H216.105V137.281C215.781 137.857 215.295 138.337 214.647 138.721C214.011 139.093 213.267 139.279 212.415 139.279C211.539 139.279 210.747 139.063 210.039 138.631C209.331 138.199 208.773 137.593 208.365 136.813C207.957 136.033 207.753 135.145 207.753 134.149ZM216.105 134.167C216.105 133.423 215.955 132.775 215.655 132.223C215.355 131.671 214.947 131.251 214.431 130.963C213.927 130.663 213.369 130.513 212.757 130.513C212.145 130.513 211.587 130.657 211.083 130.945C210.579 131.233 210.177 131.653 209.877 132.205C209.577 132.757 209.427 133.405 209.427 134.149C209.427 134.905 209.577 135.565 209.877 136.129C210.177 136.681 210.579 137.107 211.083 137.407C211.587 137.695 212.145 137.839 212.757 137.839C213.369 137.839 213.927 137.695 214.431 137.407C214.947 137.107 215.355 136.681 215.655 136.129C215.955 135.565 216.105 134.911 216.105 134.167ZM219.917 134.167C219.917 133.147 220.121 132.259 220.529 131.503C220.937 130.735 221.501 130.141 222.221 129.721C222.953 129.301 223.787 129.091 224.723 129.091C225.935 129.091 226.931 129.385 227.711 129.973C228.503 130.561 229.025 131.377 229.277 132.421H227.513C227.345 131.821 227.015 131.347 226.523 130.999C226.043 130.651 225.443 130.477 224.723 130.477C223.787 130.477 223.031 130.801 222.455 131.449C221.879 132.085 221.591 132.991 221.591 134.167C221.591 135.355 221.879 136.273 222.455 136.921C223.031 137.569 223.787 137.893 224.723 137.893C225.443 137.893 226.043 137.725 226.523 137.389C227.003 137.053 227.333 136.573 227.513 135.949H229.277C229.013 136.957 228.485 137.767 227.693 138.379C226.901 138.979 225.911 139.279 224.723 139.279C223.787 139.279 222.953 139.069 222.221 138.649C221.501 138.229 220.937 137.635 220.529 136.867C220.121 136.099 219.917 135.199 219.917 134.167ZM236.97 139.117L233.1 134.761V139.117H231.462V125.797H233.1V133.627L236.898 129.253H239.184L234.54 134.167L239.202 139.117H236.97ZM249.726 133.807C249.726 134.119 249.708 134.449 249.672 134.797H241.788C241.848 135.769 242.178 136.531 242.778 137.083C243.39 137.623 244.128 137.893 244.992 137.893C245.7 137.893 246.288 137.731 246.756 137.407C247.236 137.071 247.572 136.627 247.764 136.075H249.528C249.264 137.023 248.736 137.797 247.944 138.397C247.152 138.985 246.168 139.279 244.992 139.279C244.056 139.279 243.216 139.069 242.472 138.649C241.74 138.229 241.164 137.635 240.744 136.867C240.324 136.087 240.114 135.187 240.114 134.167C240.114 133.147 240.318 132.253 240.726 131.485C241.134 130.717 241.704 130.129 242.436 129.721C243.18 129.301 244.032 129.091 244.992 129.091C245.928 129.091 246.756 129.295 247.476 129.703C248.196 130.111 248.748 130.675 249.132 131.395C249.528 132.103 249.726 132.907 249.726 133.807ZM248.034 133.465C248.034 132.841 247.896 132.307 247.62 131.863C247.344 131.407 246.966 131.065 246.486 130.837C246.018 130.597 245.496 130.477 244.92 130.477C244.092 130.477 243.384 130.741 242.796 131.269C242.22 131.797 241.89 132.529 241.806 133.465H248.034ZM251.276 134.149C251.276 133.141 251.48 132.259 251.888 131.503C252.296 130.735 252.854 130.141 253.562 129.721C254.282 129.301 255.086 129.091 255.974 129.091C256.742 129.091 257.456 129.271 258.116 129.631C258.776 129.979 259.28 130.441 259.628 131.017V125.797H261.284V139.117H259.628V137.263C259.304 137.851 258.824 138.337 258.188 138.721C257.552 139.093 256.808 139.279 255.956 139.279C255.08 139.279 254.282 139.063 253.562 138.631C252.854 138.199 252.296 137.593 251.888 136.813C251.48 136.033 251.276 135.145 251.276 134.149ZM259.628 134.167C259.628 133.423 259.478 132.775 259.178 132.223C258.878 131.671 258.47 131.251 257.954 130.963C257.45 130.663 256.892 130.513 256.28 130.513C255.668 130.513 255.11 130.657 254.606 130.945C254.102 131.233 253.7 131.653 253.4 132.205C253.1 132.757 252.95 133.405 252.95 134.149C252.95 134.905 253.1 135.565 253.4 136.129C253.7 136.681 254.102 137.107 254.606 137.407C255.11 137.695 255.668 137.839 256.28 137.839C256.892 137.839 257.45 137.695 257.954 137.407C258.47 137.107 258.878 136.681 259.178 136.129C259.478 135.565 259.628 134.911 259.628 134.167ZM270.489 131.089C270.825 130.501 271.317 130.021 271.965 129.649C272.613 129.277 273.351 129.091 274.179 129.091C275.067 129.091 275.865 129.301 276.573 129.721C277.281 130.141 277.839 130.735 278.247 131.503C278.655 132.259 278.859 133.141 278.859 134.149C278.859 135.145 278.655 136.033 278.247 136.813C277.839 137.593 277.275 138.199 276.555 138.631C275.847 139.063 275.055 139.279 274.179 139.279C273.327 139.279 272.577 139.093 271.929 138.721C271.293 138.349 270.813 137.875 270.489 137.299V139.117H268.851V125.797H270.489V131.089ZM277.185 134.149C277.185 133.405 277.035 132.757 276.735 132.205C276.435 131.653 276.027 131.233 275.511 130.945C275.007 130.657 274.449 130.513 273.837 130.513C273.237 130.513 272.679 130.663 272.163 130.963C271.659 131.251 271.251 131.677 270.939 132.241C270.639 132.793 270.489 133.435 270.489 134.167C270.489 134.911 270.639 135.565 270.939 136.129C271.251 136.681 271.659 137.107 272.163 137.407C272.679 137.695 273.237 137.839 273.837 137.839C274.449 137.839 275.007 137.695 275.511 137.407C276.027 137.107 276.435 136.681 276.735 136.129C277.035 135.565 277.185 134.905 277.185 134.149ZM289.511 129.253L283.571 143.761H281.879L283.823 139.009L279.845 129.253H281.663L284.759 137.245L287.819 129.253H289.511ZM300.258 139.279C299.334 139.279 298.494 139.069 297.738 138.649C296.994 138.229 296.406 137.635 295.974 136.867C295.554 136.087 295.344 135.187 295.344 134.167C295.344 133.159 295.56 132.271 295.992 131.503C296.436 130.723 297.036 130.129 297.792 129.721C298.548 129.301 299.394 129.091 300.33 129.091C301.266 129.091 302.112 129.301 302.868 129.721C303.624 130.129 304.218 130.717 304.65 131.485C305.094 132.253 305.316 133.147 305.316 134.167C305.316 135.187 305.088 136.087 304.632 136.867C304.188 137.635 303.582 138.229 302.814 138.649C302.046 139.069 301.194 139.279 300.258 139.279ZM300.258 137.839C300.846 137.839 301.398 137.701 301.914 137.425C302.43 137.149 302.844 136.735 303.156 136.183C303.48 135.631 303.642 134.959 303.642 134.167C303.642 133.375 303.486 132.703 303.174 132.151C302.862 131.599 302.454 131.191 301.95 130.927C301.446 130.651 300.9 130.513 300.312 130.513C299.712 130.513 299.16 130.651 298.656 130.927C298.164 131.191 297.768 131.599 297.468 132.151C297.168 132.703 297.018 133.375 297.018 134.167C297.018 134.971 297.162 135.649 297.45 136.201C297.75 136.753 298.146 137.167 298.638 137.443C299.13 137.707 299.67 137.839 300.258 137.839ZM316.218 129.253V139.117H314.58V137.659C314.268 138.163 313.83 138.559 313.266 138.847C312.714 139.123 312.102 139.261 311.43 139.261C310.662 139.261 309.972 139.105 309.36 138.793C308.748 138.469 308.262 137.989 307.902 137.353C307.554 136.717 307.38 135.943 307.38 135.031V129.253H309V134.815C309 135.787 309.246 136.537 309.738 137.065C310.23 137.581 310.902 137.839 311.754 137.839C312.63 137.839 313.32 137.569 313.824 137.029C314.328 136.489 314.58 135.703 314.58 134.671V129.253H316.218ZM320.622 130.855C320.91 130.291 321.318 129.853 321.846 129.541C322.386 129.229 323.04 129.073 323.808 129.073V130.765H323.376C321.54 130.765 320.622 131.761 320.622 133.753V139.117H318.984V129.253H320.622V130.855ZM340.001 130.207C339.653 129.475 339.149 128.911 338.489 128.515C337.829 128.107 337.061 127.903 336.185 127.903C335.309 127.903 334.517 128.107 333.809 128.515C333.113 128.911 332.561 129.487 332.153 130.243C331.757 130.987 331.559 131.851 331.559 132.835C331.559 133.819 331.757 134.683 332.153 135.427C332.561 136.171 333.113 136.747 333.809 137.155C334.517 137.551 335.309 137.749 336.185 137.749C337.409 137.749 338.417 137.383 339.209 136.651C340.001 135.919 340.463 134.929 340.595 133.681H335.591V132.349H342.341V133.609C342.245 134.641 341.921 135.589 341.369 136.453C340.817 137.305 340.091 137.983 339.191 138.487C338.291 138.979 337.289 139.225 336.185 139.225C335.021 139.225 333.959 138.955 332.999 138.415C332.039 137.863 331.277 137.101 330.713 136.129C330.161 135.157 329.885 134.059 329.885 132.835C329.885 131.611 330.161 130.513 330.713 129.541C331.277 128.557 332.039 127.795 332.999 127.255C333.959 126.703 335.021 126.427 336.185 126.427C337.517 126.427 338.693 126.757 339.713 127.417C340.745 128.077 341.495 129.007 341.963 130.207H340.001ZM353.507 133.807C353.507 134.119 353.489 134.449 353.453 134.797H345.569C345.629 135.769 345.959 136.531 346.559 137.083C347.171 137.623 347.909 137.893 348.773 137.893C349.481 137.893 350.069 137.731 350.537 137.407C351.017 137.071 351.353 136.627 351.545 136.075H353.309C353.045 137.023 352.517 137.797 351.725 138.397C350.933 138.985 349.949 139.279 348.773 139.279C347.837 139.279 346.997 139.069 346.253 138.649C345.521 138.229 344.945 137.635 344.525 136.867C344.105 136.087 343.895 135.187 343.895 134.167C343.895 133.147 344.099 132.253 344.507 131.485C344.915 130.717 345.485 130.129 346.217 129.721C346.961 129.301 347.813 129.091 348.773 129.091C349.709 129.091 350.537 129.295 351.257 129.703C351.977 130.111 352.529 130.675 352.913 131.395C353.309 132.103 353.507 132.907 353.507 133.807ZM351.815 133.465C351.815 132.841 351.677 132.307 351.401 131.863C351.125 131.407 350.747 131.065 350.267 130.837C349.799 130.597 349.277 130.477 348.701 130.477C347.873 130.477 347.165 130.741 346.577 131.269C346.001 131.797 345.671 132.529 345.587 133.465H351.815ZM357.667 130.603V136.417C357.667 136.897 357.769 137.239 357.973 137.443C358.177 137.635 358.531 137.731 359.035 137.731H360.241V139.117H358.765C357.853 139.117 357.169 138.907 356.713 138.487C356.257 138.067 356.029 137.377 356.029 136.417V130.603H354.751V129.253H356.029V126.769H357.667V129.253H360.241V130.603H357.667ZM55.0286 156.571V169.117H53.3906V163.429H47.0006V169.117H45.3626V156.571H47.0006V162.079H53.3906V156.571H55.0286ZM58.6715 157.651C58.3595 157.651 58.0955 157.543 57.8795 157.327C57.6635 157.111 57.5555 156.847 57.5555 156.535C57.5555 156.223 57.6635 155.959 57.8795 155.743C58.0955 155.527 58.3595 155.419 58.6715 155.419C58.9715 155.419 59.2235 155.527 59.4275 155.743C59.6435 155.959 59.7515 156.223 59.7515 156.535C59.7515 156.847 59.6435 157.111 59.4275 157.327C59.2235 157.543 58.9715 157.651 58.6715 157.651ZM59.4635 159.253V169.117H57.8255V159.253H59.4635ZM63.8931 160.855C64.1811 160.291 64.5891 159.853 65.1171 159.541C65.6571 159.229 66.3111 159.073 67.0791 159.073V160.765H66.6471C64.8111 160.765 63.8931 161.761 63.8931 163.753V169.117H62.2551V159.253H63.8931V160.855ZM77.97 163.807C77.97 164.119 77.952 164.449 77.916 164.797H70.032C70.092 165.769 70.422 166.531 71.022 167.083C71.634 167.623 72.372 167.893 73.236 167.893C73.944 167.893 74.532 167.731 75 167.407C75.48 167.071 75.816 166.627 76.008 166.075H77.772C77.508 167.023 76.98 167.797 76.188 168.397C75.396 168.985 74.412 169.279 73.236 169.279C72.3 169.279 71.46 169.069 70.716 168.649C69.984 168.229 69.408 167.635 68.988 166.867C68.568 166.087 68.358 165.187 68.358 164.167C68.358 163.147 68.562 162.253 68.97 161.485C69.378 160.717 69.948 160.129 70.68 159.721C71.424 159.301 72.276 159.091 73.236 159.091C74.172 159.091 75 159.295 75.72 159.703C76.44 160.111 76.992 160.675 77.376 161.395C77.772 162.103 77.97 162.907 77.97 163.807ZM76.278 163.465C76.278 162.841 76.14 162.307 75.864 161.863C75.588 161.407 75.21 161.065 74.73 160.837C74.262 160.597 73.74 160.477 73.164 160.477C72.336 160.477 71.628 160.741 71.04 161.269C70.464 161.797 70.134 162.529 70.05 163.465H76.278ZM79.5201 164.149C79.5201 163.141 79.7241 162.259 80.1321 161.503C80.5401 160.735 81.0981 160.141 81.8061 159.721C82.5261 159.301 83.3301 159.091 84.2181 159.091C84.9861 159.091 85.7001 159.271 86.3601 159.631C87.0201 159.979 87.5241 160.441 87.8721 161.017V155.797H89.5281V169.117H87.8721V167.263C87.5481 167.851 87.0681 168.337 86.4321 168.721C85.7961 169.093 85.0521 169.279 84.2001 169.279C83.3241 169.279 82.5261 169.063 81.8061 168.631C81.0981 168.199 80.5401 167.593 80.1321 166.813C79.7241 166.033 79.5201 165.145 79.5201 164.149ZM87.8721 164.167C87.8721 163.423 87.7221 162.775 87.4221 162.223C87.1221 161.671 86.7141 161.251 86.1981 160.963C85.6941 160.663 85.1361 160.513 84.5241 160.513C83.9121 160.513 83.3541 160.657 82.8501 160.945C82.3461 161.233 81.9441 161.653 81.6441 162.205C81.3441 162.757 81.1941 163.405 81.1941 164.149C81.1941 164.905 81.3441 165.565 81.6441 166.129C81.9441 166.681 82.3461 167.107 82.8501 167.407C83.3541 167.695 83.9121 167.839 84.5241 167.839C85.1361 167.839 85.6941 167.695 86.1981 167.407C86.7141 167.107 87.1221 166.681 87.4221 166.129C87.7221 165.565 87.8721 164.911 87.8721 164.167ZM106.599 160.207C106.251 159.475 105.747 158.911 105.087 158.515C104.427 158.107 103.659 157.903 102.783 157.903C101.907 157.903 101.115 158.107 100.407 158.515C99.711 158.911 99.159 159.487 98.751 160.243C98.355 160.987 98.157 161.851 98.157 162.835C98.157 163.819 98.355 164.683 98.751 165.427C99.159 166.171 99.711 166.747 100.407 167.155C101.115 167.551 101.907 167.749 102.783 167.749C104.007 167.749 105.015 167.383 105.807 166.651C106.599 165.919 107.061 164.929 107.193 163.681H102.189V162.349H108.939V163.609C108.843 164.641 108.519 165.589 107.967 166.453C107.415 167.305 106.689 167.983 105.789 168.487C104.889 168.979 103.887 169.225 102.783 169.225C101.619 169.225 100.557 168.955 99.597 168.415C98.637 167.863 97.875 167.101 97.311 166.129C96.759 165.157 96.483 164.059 96.483 162.835C96.483 161.611 96.759 160.513 97.311 159.541C97.875 158.557 98.637 157.795 99.597 157.255C100.557 156.703 101.619 156.427 102.783 156.427C104.115 156.427 105.291 156.757 106.311 157.417C107.343 158.077 108.093 159.007 108.561 160.207H106.599ZM119.853 159.253V169.117H118.215V167.659C117.903 168.163 117.465 168.559 116.901 168.847C116.349 169.123 115.737 169.261 115.065 169.261C114.297 169.261 113.607 169.105 112.995 168.793C112.383 168.469 111.897 167.989 111.537 167.353C111.189 166.717 111.015 165.943 111.015 165.031V159.253H112.635V164.815C112.635 165.787 112.881 166.537 113.373 167.065C113.865 167.581 114.537 167.839 115.389 167.839C116.265 167.839 116.955 167.569 117.459 167.029C117.963 166.489 118.215 165.703 118.215 164.671V159.253H119.853ZM124.256 160.855C124.544 160.291 124.952 159.853 125.48 159.541C126.02 159.229 126.674 159.073 127.442 159.073V160.765H127.01C125.174 160.765 124.256 161.761 124.256 163.753V169.117H122.618V159.253H124.256V160.855ZM128.721 164.149C128.721 163.141 128.925 162.259 129.333 161.503C129.741 160.735 130.299 160.141 131.007 159.721C131.727 159.301 132.525 159.091 133.401 159.091C134.265 159.091 135.015 159.277 135.651 159.649C136.287 160.021 136.761 160.489 137.073 161.053V159.253H138.729V169.117H137.073V167.281C136.749 167.857 136.263 168.337 135.615 168.721C134.979 169.093 134.235 169.279 133.383 169.279C132.507 169.279 131.715 169.063 131.007 168.631C130.299 168.199 129.741 167.593 129.333 166.813C128.925 166.033 128.721 165.145 128.721 164.149ZM137.073 164.167C137.073 163.423 136.923 162.775 136.623 162.223C136.323 161.671 135.915 161.251 135.399 160.963C134.895 160.663 134.337 160.513 133.725 160.513C133.113 160.513 132.555 160.657 132.051 160.945C131.547 161.233 131.145 161.653 130.845 162.205C130.545 162.757 130.395 163.405 130.395 164.149C130.395 164.905 130.545 165.565 130.845 166.129C131.145 166.681 131.547 167.107 132.051 167.407C132.555 167.695 133.113 167.839 133.725 167.839C134.337 167.839 134.895 167.695 135.399 167.407C135.915 167.107 136.323 166.681 136.623 166.129C136.923 165.565 137.073 164.911 137.073 164.167ZM146.303 159.073C147.503 159.073 148.475 159.439 149.219 160.171C149.963 160.891 150.335 161.935 150.335 163.303V169.117H148.715V163.537C148.715 162.553 148.469 161.803 147.977 161.287C147.485 160.759 146.813 160.495 145.961 160.495C145.097 160.495 144.407 160.765 143.891 161.305C143.387 161.845 143.135 162.631 143.135 163.663V169.117H141.497V159.253H143.135V160.657C143.459 160.153 143.897 159.763 144.449 159.487C145.013 159.211 145.631 159.073 146.303 159.073ZM155.009 160.603V166.417C155.009 166.897 155.111 167.239 155.315 167.443C155.519 167.635 155.873 167.731 156.377 167.731H157.583V169.117H156.107C155.195 169.117 154.511 168.907 154.055 168.487C153.599 168.067 153.371 167.377 153.371 166.417V160.603H152.093V159.253H153.371V156.769H155.009V159.253H157.583V160.603H155.009ZM168.568 163.807C168.568 164.119 168.55 164.449 168.514 164.797H160.63C160.69 165.769 161.02 166.531 161.62 167.083C162.232 167.623 162.97 167.893 163.834 167.893C164.542 167.893 165.13 167.731 165.598 167.407C166.078 167.071 166.414 166.627 166.606 166.075H168.37C168.106 167.023 167.578 167.797 166.786 168.397C165.994 168.985 165.01 169.279 163.834 169.279C162.898 169.279 162.058 169.069 161.314 168.649C160.582 168.229 160.006 167.635 159.586 166.867C159.166 166.087 158.956 165.187 158.956 164.167C158.956 163.147 159.16 162.253 159.568 161.485C159.976 160.717 160.546 160.129 161.278 159.721C162.022 159.301 162.874 159.091 163.834 159.091C164.77 159.091 165.598 159.295 166.318 159.703C167.038 160.111 167.59 160.675 167.974 161.395C168.37 162.103 168.568 162.907 168.568 163.807ZM166.876 163.465C166.876 162.841 166.738 162.307 166.462 161.863C166.186 161.407 165.808 161.065 165.328 160.837C164.86 160.597 164.338 160.477 163.762 160.477C162.934 160.477 162.226 160.741 161.638 161.269C161.062 161.797 160.732 162.529 160.648 163.465H166.876ZM179.73 163.807C179.73 164.119 179.712 164.449 179.676 164.797H171.792C171.852 165.769 172.182 166.531 172.782 167.083C173.394 167.623 174.132 167.893 174.996 167.893C175.704 167.893 176.292 167.731 176.76 167.407C177.24 167.071 177.576 166.627 177.768 166.075H179.532C179.268 167.023 178.74 167.797 177.948 168.397C177.156 168.985 176.172 169.279 174.996 169.279C174.06 169.279 173.22 169.069 172.476 168.649C171.744 168.229 171.168 167.635 170.748 166.867C170.328 166.087 170.118 165.187 170.118 164.167C170.118 163.147 170.322 162.253 170.73 161.485C171.138 160.717 171.708 160.129 172.44 159.721C173.184 159.301 174.036 159.091 174.996 159.091C175.932 159.091 176.76 159.295 177.48 159.703C178.2 160.111 178.752 160.675 179.136 161.395C179.532 162.103 179.73 162.907 179.73 163.807ZM178.038 163.465C178.038 162.841 177.9 162.307 177.624 161.863C177.348 161.407 176.97 161.065 176.49 160.837C176.022 160.597 175.5 160.477 174.924 160.477C174.096 160.477 173.388 160.741 172.8 161.269C172.224 161.797 171.894 162.529 171.81 163.465H178.038ZM182.414 169.225C182.102 169.225 181.838 169.117 181.622 168.901C181.406 168.685 181.298 168.421 181.298 168.109C181.298 167.797 181.406 167.533 181.622 167.317C181.838 167.101 182.102 166.993 182.414 166.993C182.714 166.993 182.966 167.101 183.17 167.317C183.386 167.533 183.494 167.797 183.494 168.109C183.494 168.421 183.386 168.685 183.17 168.901C182.966 169.117 182.714 169.225 182.414 169.225ZM198.192 156.571V157.903H194.772V169.117H193.134V157.903H189.696V156.571H198.192ZM205.104 159.073C205.848 159.073 206.52 159.235 207.12 159.559C207.72 159.871 208.188 160.345 208.524 160.981C208.872 161.617 209.046 162.391 209.046 163.303V169.117H207.426V163.537C207.426 162.553 207.18 161.803 206.688 161.287C206.196 160.759 205.524 160.495 204.672 160.495C203.808 160.495 203.118 160.765 202.602 161.305C202.098 161.845 201.846 162.631 201.846 163.663V169.117H200.208V155.797H201.846V160.657C202.17 160.153 202.614 159.763 203.178 159.487C203.754 159.211 204.396 159.073 205.104 159.073ZM216.024 169.279C215.1 169.279 214.26 169.069 213.504 168.649C212.76 168.229 212.172 167.635 211.74 166.867C211.32 166.087 211.11 165.187 211.11 164.167C211.11 163.159 211.326 162.271 211.758 161.503C212.202 160.723 212.802 160.129 213.558 159.721C214.314 159.301 215.16 159.091 216.096 159.091C217.032 159.091 217.878 159.301 218.634 159.721C219.39 160.129 219.984 160.717 220.416 161.485C220.86 162.253 221.082 163.147 221.082 164.167C221.082 165.187 220.854 166.087 220.398 166.867C219.954 167.635 219.348 168.229 218.58 168.649C217.812 169.069 216.96 169.279 216.024 169.279ZM216.024 167.839C216.612 167.839 217.164 167.701 217.68 167.425C218.196 167.149 218.61 166.735 218.922 166.183C219.246 165.631 219.408 164.959 219.408 164.167C219.408 163.375 219.252 162.703 218.94 162.151C218.628 161.599 218.22 161.191 217.716 160.927C217.212 160.651 216.666 160.513 216.078 160.513C215.478 160.513 214.926 160.651 214.422 160.927C213.93 161.191 213.534 161.599 213.234 162.151C212.934 162.703 212.784 163.375 212.784 164.167C212.784 164.971 212.928 165.649 213.216 166.201C213.516 166.753 213.912 167.167 214.404 167.443C214.896 167.707 215.436 167.839 216.024 167.839ZM226.728 169.279C225.972 169.279 225.294 169.153 224.694 168.901C224.094 168.637 223.62 168.277 223.272 167.821C222.924 167.353 222.732 166.819 222.696 166.219H224.388C224.436 166.711 224.664 167.113 225.072 167.425C225.492 167.737 226.038 167.893 226.71 167.893C227.334 167.893 227.826 167.755 228.186 167.479C228.546 167.203 228.726 166.855 228.726 166.435C228.726 166.003 228.534 165.685 228.15 165.481C227.766 165.265 227.172 165.055 226.368 164.851C225.636 164.659 225.036 164.467 224.568 164.275C224.112 164.071 223.716 163.777 223.38 163.393C223.056 162.997 222.894 162.481 222.894 161.845C222.894 161.341 223.044 160.879 223.344 160.459C223.644 160.039 224.07 159.709 224.622 159.469C225.174 159.217 225.804 159.091 226.512 159.091C227.604 159.091 228.486 159.367 229.158 159.919C229.83 160.471 230.19 161.227 230.238 162.187H228.6C228.564 161.671 228.354 161.257 227.97 160.945C227.598 160.633 227.094 160.477 226.458 160.477C225.87 160.477 225.402 160.603 225.054 160.855C224.706 161.107 224.532 161.437 224.532 161.845C224.532 162.169 224.634 162.439 224.838 162.655C225.054 162.859 225.318 163.027 225.63 163.159C225.954 163.279 226.398 163.417 226.962 163.573C227.67 163.765 228.246 163.957 228.69 164.149C229.134 164.329 229.512 164.605 229.824 164.977C230.148 165.349 230.316 165.835 230.328 166.435C230.328 166.975 230.178 167.461 229.878 167.893C229.578 168.325 229.152 168.667 228.6 168.919C228.06 169.159 227.436 169.279 226.728 169.279ZM241.64 163.807C241.64 164.119 241.622 164.449 241.586 164.797H233.702C233.762 165.769 234.092 166.531 234.692 167.083C235.304 167.623 236.042 167.893 236.906 167.893C237.614 167.893 238.202 167.731 238.67 167.407C239.15 167.071 239.486 166.627 239.678 166.075H241.442C241.178 167.023 240.65 167.797 239.858 168.397C239.066 168.985 238.082 169.279 236.906 169.279C235.97 169.279 235.13 169.069 234.386 168.649C233.654 168.229 233.078 167.635 232.658 166.867C232.238 166.087 232.028 165.187 232.028 164.167C232.028 163.147 232.232 162.253 232.64 161.485C233.048 160.717 233.618 160.129 234.35 159.721C235.094 159.301 235.946 159.091 236.906 159.091C237.842 159.091 238.67 159.295 239.39 159.703C240.11 160.111 240.662 160.675 241.046 161.395C241.442 162.103 241.64 162.907 241.64 163.807ZM239.948 163.465C239.948 162.841 239.81 162.307 239.534 161.863C239.258 161.407 238.88 161.065 238.4 160.837C237.932 160.597 237.41 160.477 236.834 160.477C236.006 160.477 235.298 160.741 234.71 161.269C234.134 161.797 233.804 162.529 233.72 163.465H239.948ZM261.741 159.253L258.663 169.117H256.971L254.595 161.287L252.219 169.117H250.527L247.431 159.253H249.105L251.373 167.533L253.821 159.253H255.495L257.889 167.551L260.121 159.253H261.741ZM268.262 159.073C269.006 159.073 269.678 159.235 270.278 159.559C270.878 159.871 271.346 160.345 271.682 160.981C272.03 161.617 272.204 162.391 272.204 163.303V169.117H270.584V163.537C270.584 162.553 270.338 161.803 269.846 161.287C269.354 160.759 268.682 160.495 267.83 160.495C266.966 160.495 266.276 160.765 265.76 161.305C265.256 161.845 265.004 162.631 265.004 163.663V169.117H263.366V155.797H265.004V160.657C265.328 160.153 265.772 159.763 266.336 159.487C266.912 159.211 267.554 159.073 268.262 159.073ZM279.182 169.279C278.258 169.279 277.418 169.069 276.662 168.649C275.918 168.229 275.33 167.635 274.898 166.867C274.478 166.087 274.268 165.187 274.268 164.167C274.268 163.159 274.484 162.271 274.916 161.503C275.36 160.723 275.96 160.129 276.716 159.721C277.472 159.301 278.318 159.091 279.254 159.091C280.19 159.091 281.036 159.301 281.792 159.721C282.548 160.129 283.142 160.717 283.574 161.485C284.018 162.253 284.24 163.147 284.24 164.167C284.24 165.187 284.012 166.087 283.556 166.867C283.112 167.635 282.506 168.229 281.738 168.649C280.97 169.069 280.118 169.279 279.182 169.279ZM279.182 167.839C279.77 167.839 280.322 167.701 280.838 167.425C281.354 167.149 281.768 166.735 282.08 166.183C282.404 165.631 282.566 164.959 282.566 164.167C282.566 163.375 282.41 162.703 282.098 162.151C281.786 161.599 281.378 161.191 280.874 160.927C280.37 160.651 279.824 160.513 279.236 160.513C278.636 160.513 278.084 160.651 277.58 160.927C277.088 161.191 276.692 161.599 276.392 162.151C276.092 162.703 275.942 163.375 275.942 164.167C275.942 164.971 276.086 165.649 276.374 166.201C276.674 166.753 277.07 167.167 277.562 167.443C278.054 167.707 278.594 167.839 279.182 167.839ZM293.191 160.603V166.417C293.191 166.897 293.293 167.239 293.497 167.443C293.701 167.635 294.055 167.731 294.559 167.731H295.765V169.117H294.289C293.377 169.117 292.693 168.907 292.237 168.487C291.781 168.067 291.553 167.377 291.553 166.417V160.603H290.275V159.253H291.553V156.769H293.191V159.253H295.765V160.603H293.191ZM299.387 160.855C299.675 160.291 300.083 159.853 300.611 159.541C301.151 159.229 301.805 159.073 302.573 159.073V160.765H302.141C300.305 160.765 299.387 161.761 299.387 163.753V169.117H297.749V159.253H299.387V160.855ZM312.96 159.253L307.02 173.761H305.328L307.272 169.009L303.294 159.253H305.112L308.208 167.245L311.268 159.253H312.96ZM318.794 164.149C318.794 163.141 318.998 162.259 319.406 161.503C319.814 160.735 320.372 160.141 321.08 159.721C321.8 159.301 322.598 159.091 323.474 159.091C324.338 159.091 325.088 159.277 325.724 159.649C326.36 160.021 326.834 160.489 327.146 161.053V159.253H328.802V169.117H327.146V167.281C326.822 167.857 326.336 168.337 325.688 168.721C325.052 169.093 324.308 169.279 323.456 169.279C322.58 169.279 321.788 169.063 321.08 168.631C320.372 168.199 319.814 167.593 319.406 166.813C318.998 166.033 318.794 165.145 318.794 164.149ZM327.146 164.167C327.146 163.423 326.996 162.775 326.696 162.223C326.396 161.671 325.988 161.251 325.472 160.963C324.968 160.663 324.41 160.513 323.798 160.513C323.186 160.513 322.628 160.657 322.124 160.945C321.62 161.233 321.218 161.653 320.918 162.205C320.618 162.757 320.468 163.405 320.468 164.149C320.468 164.905 320.618 165.565 320.918 166.129C321.218 166.681 321.62 167.107 322.124 167.407C322.628 167.695 323.186 167.839 323.798 167.839C324.41 167.839 324.968 167.695 325.472 167.407C325.988 167.107 326.396 166.681 326.696 166.129C326.996 165.565 327.146 164.911 327.146 164.167ZM335.638 159.091C336.49 159.091 337.234 159.277 337.87 159.649C338.518 160.021 338.998 160.489 339.31 161.053V159.253H340.966V169.333C340.966 170.233 340.774 171.031 340.39 171.727C340.006 172.435 339.454 172.987 338.734 173.383C338.026 173.779 337.198 173.977 336.25 173.977C334.954 173.977 333.874 173.671 333.01 173.059C332.146 172.447 331.636 171.613 331.48 170.557H333.1C333.28 171.157 333.652 171.637 334.216 171.997C334.78 172.369 335.458 172.555 336.25 172.555C337.15 172.555 337.882 172.273 338.446 171.709C339.022 171.145 339.31 170.353 339.31 169.333V167.263C338.986 167.839 338.506 168.319 337.87 168.703C337.234 169.087 336.49 169.279 335.638 169.279C334.762 169.279 333.964 169.063 333.244 168.631C332.536 168.199 331.978 167.593 331.57 166.813C331.162 166.033 330.958 165.145 330.958 164.149C330.958 163.141 331.162 162.259 331.57 161.503C331.978 160.735 332.536 160.141 333.244 159.721C333.964 159.301 334.762 159.091 335.638 159.091ZM339.31 164.167C339.31 163.423 339.16 162.775 338.86 162.223C338.56 161.671 338.152 161.251 337.636 160.963C337.132 160.663 336.574 160.513 335.962 160.513C335.35 160.513 334.792 160.657 334.288 160.945C333.784 161.233 333.382 161.653 333.082 162.205C332.782 162.757 332.632 163.405 332.632 164.149C332.632 164.905 332.782 165.565 333.082 166.129C333.382 166.681 333.784 167.107 334.288 167.407C334.792 167.695 335.35 167.839 335.962 167.839C336.574 167.839 337.132 167.695 337.636 167.407C338.152 167.107 338.56 166.681 338.86 166.129C339.16 165.565 339.31 164.911 339.31 164.167ZM343.122 164.149C343.122 163.141 343.326 162.259 343.734 161.503C344.142 160.735 344.7 160.141 345.408 159.721C346.128 159.301 346.926 159.091 347.802 159.091C348.666 159.091 349.416 159.277 350.052 159.649C350.688 160.021 351.162 160.489 351.474 161.053V159.253H353.13V169.117H351.474V167.281C351.15 167.857 350.664 168.337 350.016 168.721C349.38 169.093 348.636 169.279 347.784 169.279C346.908 169.279 346.116 169.063 345.408 168.631C344.7 168.199 344.142 167.593 343.734 166.813C343.326 166.033 343.122 165.145 343.122 164.149ZM351.474 164.167C351.474 163.423 351.324 162.775 351.024 162.223C350.724 161.671 350.316 161.251 349.8 160.963C349.296 160.663 348.738 160.513 348.126 160.513C347.514 160.513 346.956 160.657 346.452 160.945C345.948 161.233 345.546 161.653 345.246 162.205C344.946 162.757 344.796 163.405 344.796 164.149C344.796 164.905 344.946 165.565 345.246 166.129C345.546 166.681 345.948 167.107 346.452 167.407C346.956 167.695 347.514 167.839 348.126 167.839C348.738 167.839 349.296 167.695 349.8 167.407C350.316 167.107 350.724 166.681 351.024 166.129C351.324 165.565 351.474 164.911 351.474 164.167ZM356.744 157.651C356.432 157.651 356.168 157.543 355.952 157.327C355.736 157.111 355.628 156.847 355.628 156.535C355.628 156.223 355.736 155.959 355.952 155.743C356.168 155.527 356.432 155.419 356.744 155.419C357.044 155.419 357.296 155.527 357.5 155.743C357.716 155.959 357.824 156.223 357.824 156.535C357.824 156.847 357.716 157.111 357.5 157.327C357.296 157.543 357.044 157.651 356.744 157.651ZM357.536 159.253V169.117H355.898V159.253H357.536ZM365.133 159.073C366.333 159.073 367.305 159.439 368.049 160.171C368.793 160.891 369.165 161.935 369.165 163.303V169.117H367.545V163.537C367.545 162.553 367.299 161.803 366.807 161.287C366.315 160.759 365.643 160.495 364.791 160.495C363.927 160.495 363.237 160.765 362.721 161.305C362.217 161.845 361.965 162.631 361.965 163.663V169.117H360.327V159.253H361.965V160.657C362.289 160.153 362.727 159.763 363.279 159.487C363.843 159.211 364.461 159.073 365.133 159.073ZM44.7506 194.149C44.7506 193.141 44.9546 192.259 45.3626 191.503C45.7706 190.735 46.3286 190.141 47.0366 189.721C47.7566 189.301 48.5546 189.091 49.4306 189.091C50.2946 189.091 51.0446 189.277 51.6806 189.649C52.3166 190.021 52.7906 190.489 53.1026 191.053V189.253H54.7586V199.117H53.1026V197.281C52.7786 197.857 52.2926 198.337 51.6446 198.721C51.0086 199.093 50.2646 199.279 49.4126 199.279C48.5366 199.279 47.7446 199.063 47.0366 198.631C46.3286 198.199 45.7706 197.593 45.3626 196.813C44.9546 196.033 44.7506 195.145 44.7506 194.149ZM53.1026 194.167C53.1026 193.423 52.9526 192.775 52.6526 192.223C52.3526 191.671 51.9446 191.251 51.4286 190.963C50.9246 190.663 50.3666 190.513 49.7546 190.513C49.1426 190.513 48.5846 190.657 48.0806 190.945C47.5766 191.233 47.1746 191.653 46.8746 192.205C46.5746 192.757 46.4246 193.405 46.4246 194.149C46.4246 194.905 46.5746 195.565 46.8746 196.129C47.1746 196.681 47.5766 197.107 48.0806 197.407C48.5846 197.695 49.1426 197.839 49.7546 197.839C50.3666 197.839 50.9246 197.695 51.4286 197.407C51.9446 197.107 52.3526 196.681 52.6526 196.129C52.9526 195.565 53.1026 194.911 53.1026 194.167ZM59.1646 190.855C59.4526 190.291 59.8606 189.853 60.3886 189.541C60.9286 189.229 61.5826 189.073 62.3506 189.073V190.765H61.9186C60.0826 190.765 59.1646 191.761 59.1646 193.753V199.117H57.5266V189.253H59.1646V190.855ZM73.2415 193.807C73.2415 194.119 73.2235 194.449 73.1875 194.797H65.3035C65.3635 195.769 65.6935 196.531 66.2935 197.083C66.9055 197.623 67.6435 197.893 68.5075 197.893C69.2155 197.893 69.8035 197.731 70.2715 197.407C70.7515 197.071 71.0875 196.627 71.2795 196.075H73.0435C72.7795 197.023 72.2515 197.797 71.4595 198.397C70.6675 198.985 69.6835 199.279 68.5075 199.279C67.5715 199.279 66.7315 199.069 65.9875 198.649C65.2555 198.229 64.6795 197.635 64.2595 196.867C63.8395 196.087 63.6295 195.187 63.6295 194.167C63.6295 193.147 63.8335 192.253 64.2415 191.485C64.6495 190.717 65.2195 190.129 65.9515 189.721C66.6955 189.301 67.5475 189.091 68.5075 189.091C69.4435 189.091 70.2715 189.295 70.9915 189.703C71.7115 190.111 72.2635 190.675 72.6475 191.395C73.0435 192.103 73.2415 192.907 73.2415 193.807ZM71.5495 193.465C71.5495 192.841 71.4115 192.307 71.1355 191.863C70.8595 191.407 70.4815 191.065 70.0015 190.837C69.5335 190.597 69.0115 190.477 68.4355 190.477C67.6075 190.477 66.8995 190.741 66.3115 191.269C65.7355 191.797 65.4055 192.529 65.3215 193.465H71.5495ZM79.7344 197.803C81.2584 196.579 82.4524 195.577 83.3164 194.797C84.1804 194.005 84.9064 193.183 85.4944 192.331C86.0944 191.467 86.3944 190.621 86.3944 189.793C86.3944 189.013 86.2024 188.401 85.8184 187.957C85.4464 187.501 84.8404 187.273 84.0004 187.273C83.1844 187.273 82.5484 187.531 82.0924 188.047C81.6484 188.551 81.4084 189.229 81.3724 190.081H79.7884C79.8364 188.737 80.2444 187.699 81.0124 186.967C81.7804 186.235 82.7704 185.869 83.9824 185.869C85.2184 185.869 86.1964 186.211 86.9164 186.895C87.6484 187.579 88.0144 188.521 88.0144 189.721C88.0144 190.717 87.7144 191.689 87.1144 192.637C86.5264 193.573 85.8544 194.401 85.0984 195.121C84.3424 195.829 83.3764 196.657 82.2004 197.605H88.3924V198.973H79.7344V197.803ZM90.0879 197.803C91.6119 196.579 92.8059 195.577 93.6699 194.797C94.5339 194.005 95.2599 193.183 95.8479 192.331C96.4479 191.467 96.7479 190.621 96.7479 189.793C96.7479 189.013 96.5559 188.401 96.1719 187.957C95.7999 187.501 95.1939 187.273 94.3539 187.273C93.5379 187.273 92.9019 187.531 92.4459 188.047C92.0019 188.551 91.7619 189.229 91.7259 190.081H90.1419C90.1899 188.737 90.5979 187.699 91.3659 186.967C92.1339 186.235 93.1239 185.869 94.3359 185.869C95.5719 185.869 96.5499 186.211 97.2699 186.895C98.0019 187.579 98.3679 188.521 98.3679 189.721C98.3679 190.717 98.0679 191.689 97.4679 192.637C96.8799 193.573 96.2079 194.401 95.4519 195.121C94.6959 195.829 93.7299 196.657 92.5539 197.605H98.7459V198.973H90.0879V197.803ZM100.279 189.037C100.279 188.221 100.525 187.573 101.017 187.093C101.509 186.601 102.139 186.355 102.907 186.355C103.675 186.355 104.305 186.601 104.797 187.093C105.289 187.573 105.535 188.221 105.535 189.037C105.535 189.865 105.289 190.525 104.797 191.017C104.305 191.497 103.675 191.737 102.907 191.737C102.139 191.737 101.509 191.497 101.017 191.017C100.525 190.525 100.279 189.865 100.279 189.037ZM110.791 186.553L103.501 199.117H101.881L109.171 186.553H110.791ZM102.907 187.363C102.499 187.363 102.175 187.507 101.935 187.795C101.707 188.071 101.593 188.485 101.593 189.037C101.593 189.589 101.707 190.009 101.935 190.297C102.175 190.585 102.499 190.729 102.907 190.729C103.315 190.729 103.639 190.585 103.879 190.297C104.119 189.997 104.239 189.577 104.239 189.037C104.239 188.485 104.119 188.071 103.879 187.795C103.639 187.507 103.315 187.363 102.907 187.363ZM107.173 196.633C107.173 195.805 107.419 195.151 107.911 194.671C108.403 194.179 109.033 193.933 109.801 193.933C110.569 193.933 111.193 194.179 111.673 194.671C112.165 195.151 112.411 195.805 112.411 196.633C112.411 197.449 112.165 198.103 111.673 198.595C111.193 199.087 110.569 199.333 109.801 199.333C109.033 199.333 108.403 199.093 107.911 198.613C107.419 198.121 107.173 197.461 107.173 196.633ZM109.783 194.959C109.375 194.959 109.051 195.103 108.811 195.391C108.571 195.667 108.451 196.081 108.451 196.633C108.451 197.173 108.571 197.587 108.811 197.875C109.051 198.151 109.375 198.289 109.783 198.289C110.191 198.289 110.515 198.151 110.755 197.875C110.995 197.587 111.115 197.173 111.115 196.633C111.115 196.081 110.995 195.667 110.755 195.391C110.515 195.103 110.191 194.959 109.783 194.959ZM131.228 189.073C131.996 189.073 132.68 189.235 133.28 189.559C133.88 189.871 134.354 190.345 134.702 190.981C135.05 191.617 135.224 192.391 135.224 193.303V199.117H133.604V193.537C133.604 192.553 133.358 191.803 132.866 191.287C132.386 190.759 131.732 190.495 130.904 190.495C130.052 190.495 129.374 190.771 128.87 191.323C128.366 191.863 128.114 192.649 128.114 193.681V199.117H126.494V193.537C126.494 192.553 126.248 191.803 125.756 191.287C125.276 190.759 124.622 190.495 123.794 190.495C122.942 190.495 122.264 190.771 121.76 191.323C121.256 191.863 121.004 192.649 121.004 193.681V199.117H119.366V189.253H121.004V190.675C121.328 190.159 121.76 189.763 122.3 189.487C122.852 189.211 123.458 189.073 124.118 189.073C124.946 189.073 125.678 189.259 126.314 189.631C126.95 190.003 127.424 190.549 127.736 191.269C128.012 190.573 128.468 190.033 129.104 189.649C129.74 189.265 130.448 189.073 131.228 189.073ZM142.213 199.279C141.289 199.279 140.449 199.069 139.693 198.649C138.949 198.229 138.361 197.635 137.929 196.867C137.509 196.087 137.299 195.187 137.299 194.167C137.299 193.159 137.515 192.271 137.947 191.503C138.391 190.723 138.991 190.129 139.747 189.721C140.503 189.301 141.349 189.091 142.285 189.091C143.221 189.091 144.067 189.301 144.823 189.721C145.579 190.129 146.173 190.717 146.605 191.485C147.049 192.253 147.271 193.147 147.271 194.167C147.271 195.187 147.043 196.087 146.587 196.867C146.143 197.635 145.537 198.229 144.769 198.649C144.001 199.069 143.149 199.279 142.213 199.279ZM142.213 197.839C142.801 197.839 143.353 197.701 143.869 197.425C144.385 197.149 144.799 196.735 145.111 196.183C145.435 195.631 145.597 194.959 145.597 194.167C145.597 193.375 145.441 192.703 145.129 192.151C144.817 191.599 144.409 191.191 143.905 190.927C143.401 190.651 142.855 190.513 142.267 190.513C141.667 190.513 141.115 190.651 140.611 190.927C140.119 191.191 139.723 191.599 139.423 192.151C139.123 192.703 138.973 193.375 138.973 194.167C138.973 194.971 139.117 195.649 139.405 196.201C139.705 196.753 140.101 197.167 140.593 197.443C141.085 197.707 141.625 197.839 142.213 197.839ZM151.063 190.855C151.351 190.291 151.759 189.853 152.287 189.541C152.827 189.229 153.481 189.073 154.249 189.073V190.765H153.817C151.981 190.765 151.063 191.761 151.063 193.753V199.117H149.425V189.253H151.063V190.855ZM165.14 193.807C165.14 194.119 165.122 194.449 165.086 194.797H157.202C157.262 195.769 157.592 196.531 158.192 197.083C158.804 197.623 159.542 197.893 160.406 197.893C161.114 197.893 161.702 197.731 162.17 197.407C162.65 197.071 162.986 196.627 163.178 196.075H164.942C164.678 197.023 164.15 197.797 163.358 198.397C162.566 198.985 161.582 199.279 160.406 199.279C159.47 199.279 158.63 199.069 157.886 198.649C157.154 198.229 156.578 197.635 156.158 196.867C155.738 196.087 155.528 195.187 155.528 194.167C155.528 193.147 155.732 192.253 156.14 191.485C156.548 190.717 157.118 190.129 157.85 189.721C158.594 189.301 159.446 189.091 160.406 189.091C161.342 189.091 162.17 189.295 162.89 189.703C163.61 190.111 164.162 190.675 164.546 191.395C164.942 192.103 165.14 192.907 165.14 193.807ZM163.448 193.465C163.448 192.841 163.31 192.307 163.034 191.863C162.758 191.407 162.38 191.065 161.9 190.837C161.432 190.597 160.91 190.477 160.334 190.477C159.506 190.477 158.798 190.741 158.21 191.269C157.634 191.797 157.304 192.529 157.22 193.465H163.448ZM173.739 185.797V199.117H172.101V185.797H173.739ZM177.377 187.651C177.065 187.651 176.801 187.543 176.585 187.327C176.369 187.111 176.261 186.847 176.261 186.535C176.261 186.223 176.369 185.959 176.585 185.743C176.801 185.527 177.065 185.419 177.377 185.419C177.677 185.419 177.929 185.527 178.133 185.743C178.349 185.959 178.457 186.223 178.457 186.535C178.457 186.847 178.349 187.111 178.133 187.327C177.929 187.543 177.677 187.651 177.377 187.651ZM178.169 189.253V199.117H176.531V189.253H178.169ZM186.468 199.117L182.598 194.761V199.117H180.96V185.797H182.598V193.627L186.396 189.253H188.682L184.038 194.167L188.7 199.117H186.468ZM199.224 193.807C199.224 194.119 199.206 194.449 199.17 194.797H191.286C191.346 195.769 191.676 196.531 192.276 197.083C192.888 197.623 193.626 197.893 194.49 197.893C195.198 197.893 195.786 197.731 196.254 197.407C196.734 197.071 197.07 196.627 197.262 196.075H199.026C198.762 197.023 198.234 197.797 197.442 198.397C196.65 198.985 195.666 199.279 194.49 199.279C193.554 199.279 192.714 199.069 191.97 198.649C191.238 198.229 190.662 197.635 190.242 196.867C189.822 196.087 189.612 195.187 189.612 194.167C189.612 193.147 189.816 192.253 190.224 191.485C190.632 190.717 191.202 190.129 191.934 189.721C192.678 189.301 193.53 189.091 194.49 189.091C195.426 189.091 196.254 189.295 196.974 189.703C197.694 190.111 198.246 190.675 198.63 191.395C199.026 192.103 199.224 192.907 199.224 193.807ZM197.532 193.465C197.532 192.841 197.394 192.307 197.118 191.863C196.842 191.407 196.464 191.065 195.984 190.837C195.516 190.597 194.994 190.477 194.418 190.477C193.59 190.477 192.882 190.741 192.294 191.269C191.718 191.797 191.388 192.529 191.304 193.465H197.532ZM203.024 185.797V199.117H201.386V185.797H203.024ZM214.312 189.253L208.372 203.761H206.68L208.624 199.009L204.646 189.253H206.464L209.56 197.245L212.62 189.253H214.312ZM222.755 190.603V196.417C222.755 196.897 222.857 197.239 223.061 197.443C223.265 197.635 223.619 197.731 224.123 197.731H225.329V199.117H223.853C222.941 199.117 222.257 198.907 221.801 198.487C221.345 198.067 221.117 197.377 221.117 196.417V190.603H219.839V189.253H221.117V186.769H222.755V189.253H225.329V190.603H222.755ZM231.616 199.279C230.692 199.279 229.852 199.069 229.096 198.649C228.352 198.229 227.764 197.635 227.332 196.867C226.912 196.087 226.702 195.187 226.702 194.167C226.702 193.159 226.918 192.271 227.35 191.503C227.794 190.723 228.394 190.129 229.15 189.721C229.906 189.301 230.752 189.091 231.688 189.091C232.624 189.091 233.47 189.301 234.226 189.721C234.982 190.129 235.576 190.717 236.008 191.485C236.452 192.253 236.674 193.147 236.674 194.167C236.674 195.187 236.446 196.087 235.99 196.867C235.546 197.635 234.94 198.229 234.172 198.649C233.404 199.069 232.552 199.279 231.616 199.279ZM231.616 197.839C232.204 197.839 232.756 197.701 233.272 197.425C233.788 197.149 234.202 196.735 234.514 196.183C234.838 195.631 235 194.959 235 194.167C235 193.375 234.844 192.703 234.532 192.151C234.22 191.599 233.812 191.191 233.308 190.927C232.804 190.651 232.258 190.513 231.67 190.513C231.07 190.513 230.518 190.651 230.014 190.927C229.522 191.191 229.126 191.599 228.826 192.151C228.526 192.703 228.376 193.375 228.376 194.167C228.376 194.971 228.52 195.649 228.808 196.201C229.108 196.753 229.504 197.167 229.996 197.443C230.488 197.707 231.028 197.839 231.616 197.839ZM247.694 189.091C248.546 189.091 249.29 189.277 249.926 189.649C250.574 190.021 251.054 190.489 251.366 191.053V189.253H253.022V199.333C253.022 200.233 252.83 201.031 252.446 201.727C252.062 202.435 251.51 202.987 250.79 203.383C250.082 203.779 249.254 203.977 248.306 203.977C247.01 203.977 245.93 203.671 245.066 203.059C244.202 202.447 243.692 201.613 243.536 200.557H245.156C245.336 201.157 245.708 201.637 246.272 201.997C246.836 202.369 247.514 202.555 248.306 202.555C249.206 202.555 249.938 202.273 250.502 201.709C251.078 201.145 251.366 200.353 251.366 199.333V197.263C251.042 197.839 250.562 198.319 249.926 198.703C249.29 199.087 248.546 199.279 247.694 199.279C246.818 199.279 246.02 199.063 245.3 198.631C244.592 198.199 244.034 197.593 243.626 196.813C243.218 196.033 243.014 195.145 243.014 194.149C243.014 193.141 243.218 192.259 243.626 191.503C244.034 190.735 244.592 190.141 245.3 189.721C246.02 189.301 246.818 189.091 247.694 189.091ZM251.366 194.167C251.366 193.423 251.216 192.775 250.916 192.223C250.616 191.671 250.208 191.251 249.692 190.963C249.188 190.663 248.63 190.513 248.018 190.513C247.406 190.513 246.848 190.657 246.344 190.945C245.84 191.233 245.438 191.653 245.138 192.205C244.838 192.757 244.688 193.405 244.688 194.149C244.688 194.905 244.838 195.565 245.138 196.129C245.438 196.681 245.84 197.107 246.344 197.407C246.848 197.695 247.406 197.839 248.018 197.839C248.63 197.839 249.188 197.695 249.692 197.407C250.208 197.107 250.616 196.681 250.916 196.129C251.216 195.565 251.366 194.911 251.366 194.167ZM264.79 193.807C264.79 194.119 264.772 194.449 264.736 194.797H256.852C256.912 195.769 257.242 196.531 257.842 197.083C258.454 197.623 259.192 197.893 260.056 197.893C260.764 197.893 261.352 197.731 261.82 197.407C262.3 197.071 262.636 196.627 262.828 196.075H264.592C264.328 197.023 263.8 197.797 263.008 198.397C262.216 198.985 261.232 199.279 260.056 199.279C259.12 199.279 258.28 199.069 257.536 198.649C256.804 198.229 256.228 197.635 255.808 196.867C255.388 196.087 255.178 195.187 255.178 194.167C255.178 193.147 255.382 192.253 255.79 191.485C256.198 190.717 256.768 190.129 257.5 189.721C258.244 189.301 259.096 189.091 260.056 189.091C260.992 189.091 261.82 189.295 262.54 189.703C263.26 190.111 263.812 190.675 264.196 191.395C264.592 192.103 264.79 192.907 264.79 193.807ZM263.098 193.465C263.098 192.841 262.96 192.307 262.684 191.863C262.408 191.407 262.03 191.065 261.55 190.837C261.082 190.597 260.56 190.477 259.984 190.477C259.156 190.477 258.448 190.741 257.86 191.269C257.284 191.797 256.954 192.529 256.87 193.465H263.098ZM268.95 190.603V196.417C268.95 196.897 269.052 197.239 269.256 197.443C269.46 197.635 269.814 197.731 270.318 197.731H271.524V199.117H270.048C269.136 199.117 268.452 198.907 267.996 198.487C267.54 198.067 267.312 197.377 267.312 196.417V190.603H266.034V189.253H267.312V186.769H268.95V189.253H271.524V190.603H268.95ZM279.946 185.797V199.117H278.308V185.797H279.946ZM282.126 194.149C282.126 193.141 282.33 192.259 282.738 191.503C283.146 190.735 283.704 190.141 284.412 189.721C285.132 189.301 285.93 189.091 286.806 189.091C287.67 189.091 288.42 189.277 289.056 189.649C289.692 190.021 290.166 190.489 290.478 191.053V189.253H292.134V199.117H290.478V197.281C290.154 197.857 289.668 198.337 289.02 198.721C288.384 199.093 287.64 199.279 286.788 199.279C285.912 199.279 285.12 199.063 284.412 198.631C283.704 198.199 283.146 197.593 282.738 196.813C282.33 196.033 282.126 195.145 282.126 194.149ZM290.478 194.167C290.478 193.423 290.328 192.775 290.028 192.223C289.728 191.671 289.32 191.251 288.804 190.963C288.3 190.663 287.742 190.513 287.13 190.513C286.518 190.513 285.96 190.657 285.456 190.945C284.952 191.233 284.55 191.653 284.25 192.205C283.95 192.757 283.8 193.405 283.8 194.149C283.8 194.905 283.95 195.565 284.25 196.129C284.55 196.681 284.952 197.107 285.456 197.407C285.96 197.695 286.518 197.839 287.13 197.839C287.742 197.839 288.3 197.695 288.804 197.407C289.32 197.107 289.728 196.681 290.028 196.129C290.328 195.565 290.478 194.911 290.478 194.167ZM299.708 189.073C300.908 189.073 301.88 189.439 302.624 190.171C303.368 190.891 303.74 191.935 303.74 193.303V199.117H302.12V193.537C302.12 192.553 301.874 191.803 301.382 191.287C300.89 190.759 300.218 190.495 299.366 190.495C298.502 190.495 297.812 190.765 297.296 191.305C296.792 191.845 296.54 192.631 296.54 193.663V199.117H294.902V189.253H296.54V190.657C296.864 190.153 297.302 189.763 297.854 189.487C298.418 189.211 299.036 189.073 299.708 189.073ZM305.803 194.149C305.803 193.141 306.007 192.259 306.415 191.503C306.823 190.735 307.381 190.141 308.089 189.721C308.809 189.301 309.613 189.091 310.501 189.091C311.269 189.091 311.983 189.271 312.643 189.631C313.303 189.979 313.807 190.441 314.155 191.017V185.797H315.811V199.117H314.155V197.263C313.831 197.851 313.351 198.337 312.715 198.721C312.079 199.093 311.335 199.279 310.483 199.279C309.607 199.279 308.809 199.063 308.089 198.631C307.381 198.199 306.823 197.593 306.415 196.813C306.007 196.033 305.803 195.145 305.803 194.149ZM314.155 194.167C314.155 193.423 314.005 192.775 313.705 192.223C313.405 191.671 312.997 191.251 312.481 190.963C311.977 190.663 311.419 190.513 310.807 190.513C310.195 190.513 309.637 190.657 309.133 190.945C308.629 191.233 308.227 191.653 307.927 192.205C307.627 192.757 307.477 193.405 307.477 194.149C307.477 194.905 307.627 195.565 307.927 196.129C308.227 196.681 308.629 197.107 309.133 197.407C309.637 197.695 310.195 197.839 310.807 197.839C311.419 197.839 311.977 197.695 312.481 197.407C312.997 197.107 313.405 196.681 313.705 196.129C314.005 195.565 314.155 194.911 314.155 194.167ZM325.376 190.603V196.417C325.376 196.897 325.478 197.239 325.682 197.443C325.886 197.635 326.24 197.731 326.744 197.731H327.95V199.117H326.474C325.562 199.117 324.878 198.907 324.422 198.487C323.966 198.067 323.738 197.377 323.738 196.417V190.603H322.46V189.253H323.738V186.769H325.376V189.253H327.95V190.603H325.376ZM334.831 189.073C335.575 189.073 336.247 189.235 336.847 189.559C337.447 189.871 337.915 190.345 338.251 190.981C338.599 191.617 338.773 192.391 338.773 193.303V199.117H337.153V193.537C337.153 192.553 336.907 191.803 336.415 191.287C335.923 190.759 335.251 190.495 334.399 190.495C333.535 190.495 332.845 190.765 332.329 191.305C331.825 191.845 331.573 192.631 331.573 193.663V199.117H329.935V185.797H331.573V190.657C331.897 190.153 332.341 189.763 332.905 189.487C333.481 189.211 334.123 189.073 334.831 189.073ZM350.449 193.807C350.449 194.119 350.431 194.449 350.395 194.797H342.511C342.571 195.769 342.901 196.531 343.501 197.083C344.113 197.623 344.851 197.893 345.715 197.893C346.423 197.893 347.011 197.731 347.479 197.407C347.959 197.071 348.295 196.627 348.487 196.075H350.251C349.987 197.023 349.459 197.797 348.667 198.397C347.875 198.985 346.891 199.279 345.715 199.279C344.779 199.279 343.939 199.069 343.195 198.649C342.463 198.229 341.887 197.635 341.467 196.867C341.047 196.087 340.837 195.187 340.837 194.167C340.837 193.147 341.041 192.253 341.449 191.485C341.857 190.717 342.427 190.129 343.159 189.721C343.903 189.301 344.755 189.091 345.715 189.091C346.651 189.091 347.479 189.295 348.199 189.703C348.919 190.111 349.471 190.675 349.855 191.395C350.251 192.103 350.449 192.907 350.449 193.807ZM348.757 193.465C348.757 192.841 348.619 192.307 348.343 191.863C348.067 191.407 347.689 191.065 347.209 190.837C346.741 190.597 346.219 190.477 345.643 190.477C344.815 190.477 344.107 190.741 343.519 191.269C342.943 191.797 342.613 192.529 342.529 193.465H348.757ZM358.291 187.651C357.979 187.651 357.715 187.543 357.499 187.327C357.295 187.111 357.193 186.847 357.193 186.535C357.193 186.223 357.295 185.959 357.499 185.743C357.715 185.527 357.979 185.419 358.291 185.419C358.603 185.419 358.861 185.527 359.065 185.743C359.281 185.959 359.389 186.223 359.389 186.535C359.389 186.847 359.281 187.111 359.065 187.327C358.861 187.543 358.603 187.651 358.291 187.651ZM359.101 201.259C359.101 202.135 358.879 202.777 358.435 203.185C357.991 203.593 357.343 203.797 356.491 203.797H355.537V202.411H356.221C356.677 202.411 356.995 202.321 357.175 202.141C357.367 201.961 357.463 201.655 357.463 201.223V189.253H359.101V201.259ZM366.176 199.279C365.252 199.279 364.412 199.069 363.656 198.649C362.912 198.229 362.324 197.635 361.892 196.867C361.472 196.087 361.262 195.187 361.262 194.167C361.262 193.159 361.478 192.271 361.91 191.503C362.354 190.723 362.954 190.129 363.71 189.721C364.466 189.301 365.312 189.091 366.248 189.091C367.184 189.091 368.03 189.301 368.786 189.721C369.542 190.129 370.136 190.717 370.568 191.485C371.012 192.253 371.234 193.147 371.234 194.167C371.234 195.187 371.006 196.087 370.55 196.867C370.106 197.635 369.5 198.229 368.732 198.649C367.964 199.069 367.112 199.279 366.176 199.279ZM366.176 197.839C366.764 197.839 367.316 197.701 367.832 197.425C368.348 197.149 368.762 196.735 369.074 196.183C369.398 195.631 369.56 194.959 369.56 194.167C369.56 193.375 369.404 192.703 369.092 192.151C368.78 191.599 368.372 191.191 367.868 190.927C367.364 190.651 366.818 190.513 366.23 190.513C365.63 190.513 365.078 190.651 364.574 190.927C364.082 191.191 363.686 191.599 363.386 192.151C363.086 192.703 362.936 193.375 362.936 194.167C362.936 194.971 363.08 195.649 363.368 196.201C363.668 196.753 364.064 197.167 364.556 197.443C365.048 197.707 365.588 197.839 366.176 197.839ZM375.026 191.089C375.362 190.501 375.854 190.021 376.502 189.649C377.15 189.277 377.888 189.091 378.716 189.091C379.604 189.091 380.402 189.301 381.11 189.721C381.818 190.141 382.376 190.735 382.784 191.503C383.192 192.259 383.396 193.141 383.396 194.149C383.396 195.145 383.192 196.033 382.784 196.813C382.376 197.593 381.812 198.199 381.092 198.631C380.384 199.063 379.592 199.279 378.716 199.279C377.864 199.279 377.114 199.093 376.466 198.721C375.83 198.349 375.35 197.875 375.026 197.299V199.117H373.388V185.797H375.026V191.089ZM381.722 194.149C381.722 193.405 381.572 192.757 381.272 192.205C380.972 191.653 380.564 191.233 380.048 190.945C379.544 190.657 378.986 190.513 378.374 190.513C377.774 190.513 377.216 190.663 376.7 190.963C376.196 191.251 375.788 191.677 375.476 192.241C375.176 192.793 375.026 193.435 375.026 194.167C375.026 194.911 375.176 195.565 375.476 196.129C375.788 196.681 376.196 197.107 376.7 197.407C377.216 197.695 377.774 197.839 378.374 197.839C378.986 197.839 379.544 197.695 380.048 197.407C380.564 197.107 380.972 196.681 381.272 196.129C381.572 195.565 381.722 194.905 381.722 194.149ZM387.676 186.571L387.478 195.571H386.11L385.912 186.571H387.676ZM386.866 199.225C386.554 199.225 386.29 199.117 386.074 198.901C385.858 198.685 385.75 198.421 385.75 198.109C385.75 197.797 385.858 197.533 386.074 197.317C386.29 197.101 386.554 196.993 386.866 196.993C387.166 196.993 387.418 197.101 387.622 197.317C387.838 197.533 387.946 197.797 387.946 198.109C387.946 198.421 387.838 198.685 387.622 198.901C387.418 199.117 387.166 199.225 386.866 199.225Z" fill="black"/>
<defs>
<linearGradient id="paint0_linear_4629_93" x1="311" y1="0.537109" x2="311" y2="296.707" gradientUnits="userSpaceOnUse">
<stop stop-color="#E3F6FC"/>
<stop offset="1" stop-color="#24CDFF"/>
</linearGradient>
<linearGradient id="paint1_linear_4629_93" x1="422.062" y1="173.134" x2="467.775" y2="173.134" gradientUnits="userSpaceOnUse">
<stop stop-color="#58595B"/>
<stop offset="1" stop-color="#231F20"/>
</linearGradient>
<linearGradient id="paint2_linear_4629_93" x1="558.328" y1="172.315" x2="633.921" y2="172.315" gradientUnits="userSpaceOnUse">
<stop stop-color="#58595B"/>
<stop offset="1" stop-color="#231F20"/>
</linearGradient>
<linearGradient id="paint3_linear_4629_93" x1="440.983" y1="174" x2="555.133" y2="174" gradientUnits="userSpaceOnUse">
<stop stop-color="#58595B"/>
<stop offset="1" stop-color="#231F20"/>
</linearGradient>
<clipPath id="clip0_4629_93">
<rect width="151" height="114" fill="white" transform="translate(422 117)"/>
</clipPath>
</defs>
</svg>
