<svg width="30" height="31" viewBox="0 0 30 31" fill="none" xmlns="http://www.w3.org/2000/svg">
<rect y="0.609375" width="29.5273" height="29.5273" rx="14.7637" fill="#D9D9D9"/>
<path d="M7.76562 12.2159C7.76562 11.0458 7.76562 10.4607 8.01994 10.0138C8.24365 9.62069 8.6006 9.30107 9.03965 9.10077C9.53877 8.87305 10.1922 8.87305 11.499 8.87305H18.0323C19.3391 8.87305 19.9925 8.87305 20.4916 9.10077C20.9306 9.30107 21.2876 9.62069 21.5113 10.0138C21.7656 10.4607 21.7656 11.0458 21.7656 12.2159V16.1855C21.7656 17.159 21.7656 17.6458 21.588 18.0297C21.3512 18.5417 20.897 18.9484 20.3252 19.1604C19.8964 19.3195 19.3528 19.3195 18.2656 19.3195C17.8856 19.3195 17.6956 19.3195 17.5193 19.3567C17.2843 19.4064 17.0654 19.5044 16.88 19.643C16.741 19.7469 16.627 19.883 16.399 20.1552L15.2634 21.5109C15.0945 21.7125 15.0101 21.8133 14.9066 21.8494C14.8159 21.8809 14.7153 21.8809 14.6247 21.8494C14.5212 21.8133 14.4367 21.7125 14.2678 21.5109L13.1323 20.1552C12.9043 19.883 12.7903 19.7469 12.6512 19.643C12.4658 19.5044 12.2469 19.4064 12.0119 19.3567C11.8356 19.3195 11.6456 19.3195 11.2656 19.3195C10.1784 19.3195 9.63483 19.3195 9.20603 19.1604C8.6343 18.9484 8.18006 18.5417 7.94324 18.0297C7.76562 17.6458 7.76562 17.159 7.76562 16.1855V12.2159Z" stroke="black" stroke-linecap="round" stroke-linejoin="round"/>
</svg>
