<svg width="30" height="31" viewBox="0 0 30 31" fill="none" xmlns="http://www.w3.org/2000/svg">
<rect y="0.609375" width="29.5273" height="29.5273" rx="14.7637" fill="#D9D9D9"/>
<path d="M19.4661 10.6461C18.8549 10.0288 18.1268 9.5394 17.3245 9.20633C16.5221 8.87326 15.6615 8.70321 14.7928 8.70609C11.1528 8.70609 8.18615 11.6728 8.18615 15.3128C8.18615 16.4794 8.49281 17.6128 9.06615 18.6128L8.13281 22.0394L11.6328 21.1194C12.5995 21.6461 13.6861 21.9261 14.7928 21.9261C18.4328 21.9261 21.3995 18.9594 21.3995 15.3194C21.3995 13.5528 20.7128 11.8928 19.4661 10.6461ZM14.7928 20.8061C13.8061 20.8061 12.8395 20.5394 11.9928 20.0394L11.7928 19.9194L9.71281 20.4661L10.2661 18.4394L10.1328 18.2328C9.58451 17.3575 9.29343 16.3456 9.29281 15.3128C9.29281 12.2861 11.7595 9.81942 14.7861 9.81942C16.2528 9.81942 17.6328 10.3928 18.6661 11.4328C19.1779 11.942 19.5834 12.5478 19.8592 13.215C20.135 13.8822 20.2756 14.5975 20.2728 15.3194C20.2861 18.3461 17.8195 20.8061 14.7928 20.8061ZM17.8061 16.6994C17.6395 16.6194 16.8261 16.2194 16.6795 16.1594C16.5261 16.1061 16.4195 16.0794 16.3061 16.2394C16.1928 16.4061 15.8795 16.7794 15.7861 16.8861C15.6928 16.9994 15.5928 17.0128 15.4261 16.9261C15.2595 16.8461 14.7261 16.6661 14.0995 16.1061C13.6061 15.6661 13.2795 15.1261 13.1795 14.9594C13.0861 14.7928 13.1661 14.7061 13.2528 14.6194C13.3261 14.5461 13.4195 14.4261 13.4995 14.3328C13.5795 14.2394 13.6128 14.1661 13.6661 14.0594C13.7195 13.9461 13.6928 13.8528 13.6528 13.7728C13.6128 13.6928 13.2795 12.8794 13.1461 12.5461C13.0128 12.2261 12.8728 12.2661 12.7728 12.2594H12.4528C12.3395 12.2594 12.1661 12.2994 12.0128 12.4661C11.8661 12.6328 11.4395 13.0328 11.4395 13.8461C11.4395 14.6594 12.0328 15.4461 12.1128 15.5528C12.1928 15.6661 13.2795 17.3328 14.9328 18.0461C15.3261 18.2194 15.6328 18.3194 15.8728 18.3928C16.2661 18.5194 16.6261 18.4994 16.9128 18.4594C17.2328 18.4128 17.8928 18.0594 18.0261 17.6728C18.1661 17.2861 18.1661 16.9594 18.1195 16.8861C18.0728 16.8128 17.9728 16.7794 17.8061 16.6994Z" fill="black"/>
</svg>
