<svg width="14" height="14" viewBox="0 0 14 14" fill="none" xmlns="http://www.w3.org/2000/svg">
<path d="M11.7005 1.99472C11.0892 1.37746 10.3612 0.888034 9.55886 0.554965C8.75652 0.221896 7.89591 0.0518454 7.02719 0.0547234C3.38719 0.0547234 0.420521 3.02139 0.420521 6.66139C0.420521 7.82806 0.727188 8.96139 1.30052 9.96139L0.367188 13.3881L3.86719 12.4681C4.83385 12.9947 5.92052 13.2747 7.02719 13.2747C10.6672 13.2747 13.6339 10.3081 13.6339 6.66806C13.6339 4.90139 12.9472 3.24139 11.7005 1.99472ZM7.02719 12.1547C6.04052 12.1547 5.07385 11.8881 4.22719 11.3881L4.02719 11.2681L1.94719 11.8147L2.50052 9.78806L2.36719 9.58139C1.81889 8.7061 1.5278 7.69424 1.52719 6.66139C1.52719 3.63472 3.99385 1.16806 7.02052 1.16806C8.48719 1.16806 9.86719 1.74139 10.9005 2.78139C11.4123 3.29063 11.8178 3.89642 12.0936 4.56361C12.3694 5.2308 12.51 5.94611 12.5072 6.66806C12.5205 9.69472 10.0539 12.1547 7.02719 12.1547ZM10.0405 8.04806C9.87385 7.96806 9.06052 7.56806 8.91385 7.50806C8.76052 7.45472 8.65385 7.42806 8.54052 7.58806C8.42719 7.75472 8.11385 8.12806 8.02052 8.23472C7.92719 8.34806 7.82719 8.36139 7.66052 8.27472C7.49385 8.19472 6.96052 8.01472 6.33385 7.45472C5.84052 7.01472 5.51385 6.47472 5.41385 6.30806C5.32052 6.14139 5.40052 6.05472 5.48719 5.96806C5.56052 5.89472 5.65385 5.77472 5.73385 5.68139C5.81385 5.58806 5.84719 5.51472 5.90052 5.40806C5.95385 5.29472 5.92719 5.20139 5.88719 5.12139C5.84719 5.04139 5.51385 4.22806 5.38052 3.89472C5.24719 3.57472 5.10719 3.61472 5.00719 3.60806H4.68719C4.57385 3.60806 4.40052 3.64806 4.24719 3.81472C4.10052 3.98139 3.67385 4.38139 3.67385 5.19472C3.67385 6.00806 4.26719 6.79472 4.34719 6.90139C4.42719 7.01472 5.51385 8.68139 7.16719 9.39472C7.56052 9.56806 7.86719 9.66806 8.10719 9.74139C8.50052 9.86806 8.86052 9.84806 9.14719 9.80806C9.46719 9.76139 10.1272 9.40806 10.2605 9.02139C10.4005 8.63472 10.4005 8.30806 10.3539 8.23472C10.3072 8.16139 10.2072 8.12806 10.0405 8.04806Z" fill="white"/>
</svg>
