<svg width="8" height="13" viewBox="0 0 8 13" fill="none" xmlns="http://www.w3.org/2000/svg">
<path d="M7.31931 6.1592L2.31931 1.1592C2.22608 1.06597 2.11539 0.992005 1.99356 0.941545C1.87174 0.891084 1.74117 0.865112 1.60931 0.865112C1.34301 0.865112 1.08762 0.9709 0.899314 1.1592C0.806075 1.25244 0.732114 1.36313 0.681654 1.48495C0.631194 1.60678 0.605223 1.73734 0.605223 1.8692C0.605223 2.13551 0.71101 2.3909 0.899314 2.5792L5.19931 6.8692L0.899314 11.1592C0.805586 11.2522 0.731191 11.3628 0.680423 11.4846C0.629654 11.6065 0.603516 11.7372 0.603516 11.8692C0.603516 12.0012 0.629654 12.1319 0.680423 12.2538C0.731191 12.3756 0.805586 12.4862 0.899314 12.5792C0.992277 12.6729 1.10288 12.7473 1.22474 12.7981C1.3466 12.8489 1.4773 12.875 1.60931 12.875C1.74133 12.875 1.87203 12.8489 1.99389 12.7981C2.11575 12.7473 2.22635 12.6729 2.31931 12.5792L7.31931 7.5792C7.41304 7.48624 7.48744 7.37564 7.53821 7.25378C7.58897 7.13192 7.61511 7.00122 7.61511 6.8692C7.61511 6.73719 7.58897 6.60649 7.53821 6.48463C7.48744 6.36277 7.41304 6.25217 7.31931 6.1592Z" fill="#5E5E5E"/>
</svg>
