<svg width="17" height="15" viewBox="0 0 17 15" fill="none" xmlns="http://www.w3.org/2000/svg">
<path d="M2.30025 14.7567C1.89062 14.7567 1.54887 14.6198 1.27499 14.3459C1.00111 14.072 0.863874 13.73 0.863281 13.3198V4.63391C0.863281 4.22428 1.00052 3.88253 1.27499 3.60865C1.54946 3.33477 1.89092 3.19753 2.29936 3.19694H6.19857V1.96538C6.19857 1.55634 6.3358 1.21459 6.61027 0.940116C6.88475 0.665645 7.2265 0.528706 7.63554 0.529299H10.0978C10.5068 0.529299 10.8486 0.666238 11.123 0.940116C11.3975 1.21399 11.5344 1.55575 11.5339 1.96538V3.19694H15.4331C15.8421 3.19694 16.1836 3.33418 16.4574 3.60865C16.7313 3.88312 16.8685 4.22487 16.8691 4.63391V13.3206C16.8691 13.7297 16.7319 14.0714 16.4574 14.3459C16.183 14.6204 15.8415 14.7573 15.4331 14.7567H2.30025ZM7.08778 3.19694H10.6446V1.96538C10.6446 1.82903 10.5877 1.70365 10.4739 1.58924C10.3601 1.47483 10.2347 1.41792 10.0978 1.41851H7.63465C7.4983 1.41851 7.37292 1.47542 7.25851 1.58924C7.1441 1.70306 7.08719 1.82844 7.08778 1.96538V3.19694ZM15.9799 9.86605H10.6446V10.4814C10.6446 10.6877 10.5765 10.859 10.4401 10.9954C10.3038 11.1317 10.1325 11.1999 9.92616 11.1999H7.80627C7.59997 11.1999 7.42865 11.1317 7.2923 10.9954C7.15595 10.859 7.08778 10.6877 7.08778 10.4814V9.86605H1.7525V13.3206C1.7525 13.457 1.80941 13.5824 1.92322 13.6968C2.03704 13.8112 2.16242 13.8681 2.29936 13.8675H15.4331C15.5694 13.8675 15.6948 13.8106 15.8092 13.6968C15.9236 13.583 15.9805 13.4573 15.9799 13.3198V9.86605ZM7.977 10.3107H9.75543V8.53223H7.977V10.3107ZM1.7525 8.97684H7.08778V8.3615C7.08778 8.1552 7.15595 7.98388 7.2923 7.84753C7.42865 7.71119 7.59997 7.64301 7.80627 7.64301H9.92616C10.1325 7.64301 10.3038 7.71119 10.4401 7.84753C10.5765 7.98388 10.6446 8.1552 10.6446 8.3615V8.97684H15.9799V4.63391C15.9799 4.49697 15.923 4.3713 15.8092 4.25689C15.6954 4.14247 15.57 4.08556 15.4331 4.08616H2.29936C2.16302 4.08616 2.03764 4.14307 1.92322 4.25689C1.80881 4.37071 1.7519 4.49638 1.7525 4.63391V8.97684Z" fill="black"/>
</svg>
