<svg width="17" height="17" viewBox="0 0 17 17" fill="none" xmlns="http://www.w3.org/2000/svg">
<path d="M14.8682 1.64888H12.467V0.448291C12.467 0.342153 12.4248 0.240361 12.3498 0.16531C12.2747 0.0902591 12.1729 0.0480957 12.0668 0.0480957C11.9607 0.0480957 11.8589 0.0902591 11.7838 0.16531C11.7088 0.240361 11.6666 0.342153 11.6666 0.448291V1.64888H6.06387V0.448291C6.06387 0.342153 6.0217 0.240361 5.94665 0.16531C5.8716 0.0902591 5.76981 0.0480957 5.66367 0.0480957C5.55753 0.0480957 5.45574 0.0902591 5.38069 0.16531C5.30564 0.240361 5.26348 0.342153 5.26348 0.448291V1.64888H2.8623C2.33181 1.64951 1.82322 1.86053 1.4481 2.23565C1.07298 2.61077 0.861964 3.11936 0.861328 3.64985V14.0549C0.861964 14.5854 1.07298 15.094 1.4481 15.4691C1.82322 15.8443 2.33181 16.0553 2.8623 16.0559H14.8682C15.3989 16.0559 15.9078 15.8451 16.2831 15.4698C16.6583 15.0946 16.8691 14.5856 16.8691 14.0549V3.64985C16.8691 3.11916 16.6583 2.61021 16.2831 2.23495C15.9078 1.85969 15.3989 1.64888 14.8682 1.64888ZM16.0687 14.0549C16.0687 14.3733 15.9423 14.6787 15.7171 14.9039C15.492 15.129 15.1866 15.2555 14.8682 15.2555H2.8623C2.54389 15.2555 2.23852 15.129 2.01336 14.9039C1.78821 14.6787 1.66172 14.3733 1.66172 14.0549V7.25161H16.0687V14.0549ZM16.0687 6.45122H1.66172V3.64985C1.66172 2.98713 2.19798 2.44927 2.8623 2.44927H5.26348V3.64985C5.26348 3.75599 5.30564 3.85778 5.38069 3.93283C5.45574 4.00789 5.55753 4.05005 5.66367 4.05005C5.76981 4.05005 5.8716 4.00789 5.94665 3.93283C6.0217 3.85778 6.06387 3.75599 6.06387 3.64985V2.44927H11.6666V3.64985C11.6666 3.75599 11.7088 3.85778 11.7838 3.93283C11.8589 4.00789 11.9607 4.05005 12.0668 4.05005C12.1729 4.05005 12.2747 4.00789 12.3498 3.93283C12.4248 3.85778 12.467 3.75599 12.467 3.64985V2.44927H14.8682C15.1866 2.44927 15.492 2.57576 15.7171 2.80091C15.9423 3.02606 16.0687 3.33144 16.0687 3.64985V6.45122Z" fill="#00AFE3"/>
</svg>
