<svg width="20" height="20" viewBox="0 0 20 20" fill="none" xmlns="http://www.w3.org/2000/svg">
<path d="M7.01451 10.1823L7.36854 10.536L7.72191 10.1817L10.1827 7.71426L10.5347 7.36132L10.1828 7.00824L7.97093 4.78867L7.61752 4.43403L7.26336 4.78791L6.36821 5.68234L6.31158 5.6257L7.20183 4.73154L7.55382 4.378L7.20106 4.02522L5.09797 1.92201L4.74441 1.56843L4.39085 1.92201L1.92359 4.3894L1.56988 4.74313L1.92378 5.09668L7.01451 10.1823ZM15.4545 18.6292L15.808 18.9832L16.1618 18.6294L18.6291 16.162L18.9825 15.8086L18.6292 15.455L16.5272 13.3518L16.1745 12.999L15.8209 13.3508L14.927 14.2401L14.8699 14.1829L15.7589 13.2885L16.1108 12.9344L15.7573 12.5819L13.5594 10.3904L13.2059 10.0379L12.8528 10.3908L10.391 12.8517L10.0375 13.205L10.3907 13.5587L15.4545 18.6292ZM6.95218 10.9299L7.30509 10.577L6.95281 10.2234L1.49358 4.74465L4.74506 1.49298L10.2515 6.97947L10.6053 7.33199L10.9582 6.97858L16.2075 1.72191L18.8348 4.42428L13.6416 9.64401L13.2911 9.99631L13.6413 10.349L19.0812 15.8276L15.8271 19.0801L10.3486 13.6205L9.99505 13.2682L9.64211 13.6211L5.05445 18.209H2.36451V15.5178L6.95218 10.9299ZM2.44192 17.6316V18.1316H2.94192H4.80259H5.00962L5.15605 17.9852L15.7361 7.41099L16.0901 7.05724L15.736 6.70359L15.6449 6.61256L14.8189 5.76816L14.819 5.76808L14.8114 5.7606L13.8654 4.83399L13.8649 4.83451L13.5142 4.48414L13.1608 4.83774L2.58824 15.4174L2.44192 15.5638V15.7708V17.6316Z" fill="#00AFE3" stroke="#00AFE3"/>
</svg>
