<svg width="20" height="20" viewBox="0 0 20 20" fill="none" xmlns="http://www.w3.org/2000/svg">
<path d="M7.36789 9.82858L9.82868 7.36118L7.61677 5.14161L6.36806 6.38931L5.60526 5.62647L6.8475 4.37876L4.74441 2.27555L2.27716 4.74295L7.36789 9.82858ZM15.8083 18.2759L18.2755 15.8085L16.1735 13.7053L14.9259 14.9465L14.1641 14.1837L15.4042 12.936L13.2063 10.7444L10.7445 13.2053L15.8083 18.2759ZM5.26156 18.709H1.86451V15.3107L6.59862 10.5763L0.787109 4.74402L4.74441 0.786499L10.6044 6.62528L16.2123 1.00953L19.5361 4.42833L13.9961 9.99666L19.7871 15.829L15.8277 19.7865L9.99567 13.9747L5.26156 18.709ZM2.94192 17.6316H4.80259L15.3827 7.05734L13.5145 5.19117L2.94192 15.7708V17.6316ZM14.4615 6.11779L13.5155 5.19117L15.3816 7.05842L14.4615 6.11779Z" fill="black"/>
</svg>
