<svg xmlns="http://www.w3.org/2000/svg" fill="none" viewBox="0.09 0.87 15.94 16">
<path d="M8.23886 1.89855L8.06209 1.72165L7.88525 1.89849L0.74825 9.03549C0.701363 9.07311 0.642398 9.09264 0.582148 9.09031C0.519228 9.08788 0.459543 9.0618 0.415021 9.01727C0.370497 8.97275 0.344414 8.91307 0.341983 8.85015C0.339656 8.7899 0.359181 8.73093 0.396803 8.68405L7.88828 1.19257C7.88836 1.19249 7.88844 1.19241 7.88852 1.19233C7.93533 1.14592 7.99859 1.11987 8.06453 1.11987C8.13048 1.11987 8.19377 1.14594 8.24059 1.19239C8.24065 1.19245 8.24071 1.19251 8.24077 1.19257L15.6688 8.6206L15.7221 8.68288C15.7631 8.73071 15.7845 8.79223 15.7821 8.85515C15.7796 8.91807 15.7536 8.97775 15.709 9.02227C15.6645 9.0668 15.6048 9.09288 15.5419 9.09531C15.4817 9.09764 15.4227 9.07812 15.3758 9.04052L8.23886 1.89855Z" fill="black" stroke="#00AFE3" stroke-width="0.5"/>
<path d="M13.0625 16.1202H13.3125V15.8702V9.3538L13.8125 9.8538V15.8702C13.8125 16.0692 13.7335 16.2599 13.5928 16.4006C13.4522 16.5412 13.2614 16.6202 13.0625 16.6202H9.8125V11.8702V11.6202H9.5625H6.5625H6.3125V11.8702V16.6202H3.0625C2.86359 16.6202 2.67282 16.5412 2.53217 16.4006C2.39152 16.2599 2.3125 16.0692 2.3125 15.8702V9.9738L2.8125 9.4738V15.8702V16.1202H3.0625H5.5625H5.8125V15.8702V11.1202H10.3125V15.8702V16.1202H10.5625H13.0625Z" fill="black" stroke="#00AFE3" stroke-width="0.5"/>
</svg>