<svg width="21" height="18" viewBox="0 0 21 18" fill="none" xmlns="http://www.w3.org/2000/svg">
<path d="M17.1192 12.875C17.9982 12.8772 18.8665 12.6837 19.6595 12.3086L20.1011 12.0997L19.9025 11.6533L17.5767 6.42701L17.1199 5.40053L16.6631 6.42701L14.3372 11.6533L14.1398 12.0969L14.5774 12.3072C14.66 12.347 14.7505 12.3878 14.8484 12.4297L14.8484 12.4297L14.8536 12.4319C15.3857 12.6525 16.1584 12.8749 17.1192 12.875ZM17.1192 12.875C17.119 12.875 17.1188 12.875 17.1185 12.875L17.1199 12.375V12.875C17.1196 12.875 17.1194 12.875 17.1192 12.875ZM17.1199 6.6303L17.5767 6.83359L17.3935 7.24519L17.1199 6.6303ZM17.1199 6.6303L16.6631 6.83359L16.8462 7.24519L17.1199 6.6303ZM10.6843 2.25V2.75H11.1843H12.9878C13.2093 2.75 13.4256 2.81596 13.608 2.93804C13.6081 2.93809 13.6081 2.93813 13.6082 2.93818L15.1576 3.97664L15.1576 3.97666L15.1614 3.97917C15.2813 4.05793 15.4173 4.09817 15.5574 4.09996L15.5574 4.1H15.5638H19.3096C19.361 4.1 19.4088 4.12017 19.4429 4.15381C19.4768 4.18721 19.4945 4.23095 19.4945 4.275C19.4945 4.31905 19.4768 4.36279 19.4429 4.39619C19.4088 4.42983 19.361 4.45 19.3096 4.45H17.8686H17.1417H17.0991H16.372H15.5629C15.3414 4.45 15.125 4.38399 14.9425 4.26182L13.3931 3.22336L13.3923 3.22282C13.2721 3.14259 13.131 3.1001 12.9873 3.1H12.9869H11.1843H10.6843V3.6V16.65V17.15H11.1843H15.2817C15.333 17.15 15.3808 17.1702 15.415 17.2038C15.4489 17.2372 15.4665 17.2809 15.4665 17.325C15.4665 17.3691 15.4489 17.4128 15.415 17.4462C15.3808 17.4798 15.333 17.5 15.2817 17.5H5.71725C5.6659 17.5 5.61808 17.4798 5.58395 17.4462C5.55007 17.4128 5.53238 17.3691 5.53238 17.325C5.53238 17.2809 5.55007 17.2372 5.58395 17.2038C5.61808 17.1702 5.6659 17.15 5.71725 17.15H9.81459H10.3146V16.65V3.6V3.1H9.81459L8.0111 3.1L8.01075 3.1C7.86696 3.1001 7.7259 3.14259 7.60569 3.22282L7.60478 3.22343L6.05638 4.26182C6.0563 4.26187 6.05622 4.26192 6.05615 4.26198C6.05612 4.26199 6.05609 4.26201 6.05606 4.26203C5.87366 4.38407 5.65739 4.45 5.436 4.45H4.62694H3.89992H3.8572H3.13027H1.69022C1.63887 4.45 1.59106 4.42983 1.55693 4.39619L1.20595 4.7523L1.55693 4.39619C1.52304 4.36279 1.50535 4.31905 1.50535 4.275C1.50535 4.23095 1.52304 4.18721 1.55693 4.15381C1.59106 4.12017 1.63887 4.1 1.69022 4.1H5.436C5.58137 4.1 5.71885 4.05772 5.83784 3.98014L5.83786 3.98017L5.84335 3.97649L7.39116 2.93789L7.3917 2.93752C7.57266 2.81575 7.78931 2.75 8.01202 2.75H9.81459H10.3146V2.25V0.675C10.3146 0.630949 10.3323 0.587209 10.3662 0.553813L10.0168 0.19936L10.3662 0.553812C10.4003 0.520175 10.4481 0.5 10.4995 0.5C10.5508 0.5 10.5986 0.520174 10.6328 0.553813C10.6666 0.587209 10.6843 0.630949 10.6843 0.675V2.25ZM20.4946 12.1749L20.9785 12.3009L20.4946 12.1749C20.4854 12.2104 20.4643 12.2433 20.4331 12.2678C20.3567 12.3232 20.278 12.3747 20.1967 12.4222L20.1943 12.4237C19.9841 12.5483 19.7649 12.6574 19.5383 12.7502L19.5373 12.7506C18.7723 13.0659 17.9508 13.2273 17.1212 13.225L17.1177 13.225C16.2888 13.2285 15.4678 13.0675 14.7038 12.7517L14.7028 12.7513C14.4762 12.6582 14.2569 12.5488 14.0468 12.424L14.0469 12.4239L14.0374 12.4185C13.9608 12.3752 13.8869 12.3275 13.8161 12.2757L13.8161 12.2757L13.8083 12.2697C13.7756 12.245 13.7537 12.2113 13.7442 12.1749C13.7347 12.1385 13.7378 12.1001 13.7533 12.0653C13.7533 12.0653 13.7533 12.0653 13.7533 12.0653L16.8288 5.15326L17.1204 4.49791L17.4118 5.15316L20.4855 12.0652L20.4855 12.0653C20.501 12.1001 20.5041 12.1385 20.4946 12.1749ZM7.2551 12.1712C7.24665 12.2062 7.22671 12.2389 7.19676 12.2638C7.1379 12.3108 7.07939 12.355 6.9598 12.4313L6.95913 12.4317C6.74935 12.5658 6.52956 12.6843 6.30161 12.786L6.30064 12.7864C5.54102 13.1272 4.71545 13.3027 3.8803 13.3006L3.87782 13.3006C3.04267 13.3027 2.21711 13.1272 1.45749 12.7864L1.45652 12.786C1.22857 12.6843 1.00877 12.5658 0.798996 12.4317L0.798051 12.4311C0.716879 12.3794 0.638185 12.3241 0.562214 12.2654C0.533017 12.2397 0.513449 12.2068 0.504913 12.1715C0.496122 12.1352 0.499145 12.0971 0.513858 12.0622L3.58712 5.15321L3.87856 4.49801L4.17012 5.15326L7.24536 12.0646C7.2454 12.0647 7.24543 12.0648 7.24547 12.0649C7.26039 12.0987 7.26364 12.1358 7.2551 12.1712ZM1.08731 11.6749L0.896856 12.1029L1.31152 12.3208C2.10201 12.7362 2.98405 12.9521 3.87906 12.9497C4.77408 12.9521 5.65612 12.7362 6.44661 12.3208L6.86127 12.1029L6.67082 11.6749L4.33587 6.42792L3.87906 5.40139L3.42225 6.42792L1.08731 11.6749ZM18.9841 12.0492L18.9889 12.0599L19.2181 11.9579C19.1408 11.9902 19.0628 12.0206 18.9841 12.0492ZM15.0908 11.9887L15.2509 12.0599L15.2546 12.0514C15.1976 12.0307 15.143 12.0097 15.0908 11.9887Z" fill="black" stroke="#00AFE3"/>
</svg>
