<svg width="21" height="18" viewBox="0 0 21 18" fill="none" xmlns="http://www.w3.org/2000/svg">
<path d="M11.1843 0.675V2.25H12.9878C13.3083 2.25 13.6215 2.3454 13.8864 2.5227L15.436 3.5613C15.4743 3.5865 15.517 3.5994 15.5638 3.6H19.3096C19.4913 3.6 19.6654 3.67112 19.7939 3.7977C19.9223 3.92429 19.9945 4.09598 19.9945 4.275C19.9945 4.45402 19.9223 4.62571 19.7939 4.7523C19.6654 4.87888 19.4913 4.95 19.3096 4.95H17.8686L20.9423 11.862C21.0038 12.0002 21.0166 12.1547 20.9785 12.3009C20.9404 12.4471 20.8537 12.5765 20.7323 12.6684C20.641 12.735 20.5466 12.7968 20.4492 12.8538C20.2181 12.9908 19.9769 13.1109 19.7278 13.2129C18.9019 13.5533 18.0151 13.7274 17.1199 13.725C16.2248 13.7288 15.3382 13.555 14.5128 13.2138C14.2637 13.1115 14.0225 12.9911 13.7914 12.8538C13.6943 12.7989 13.6006 12.7382 13.5111 12.672L13.5065 12.6684C13.3851 12.5765 13.2984 12.4471 13.2603 12.3009C13.2222 12.1547 13.235 12.0002 13.2965 11.862L16.372 4.95H15.5629C15.2424 4.95 14.9292 4.8546 14.6644 4.6773L13.1147 3.6387C13.077 3.61351 13.0325 3.60003 12.9869 3.6H11.1843V16.65H15.2817C15.4633 16.65 15.6375 16.7211 15.7659 16.8477C15.8944 16.9743 15.9665 17.146 15.9665 17.325C15.9665 17.504 15.8944 17.6757 15.7659 17.8023C15.6375 17.9289 15.4633 18 15.2817 18H5.71725C5.53561 18 5.36141 17.9289 5.23298 17.8023C5.10454 17.6757 5.03238 17.504 5.03238 17.325C5.03238 17.146 5.10454 16.9743 5.23298 16.8477C5.36141 16.7211 5.53561 16.65 5.71725 16.65H9.81459V3.6H8.0111C7.96553 3.60003 7.921 3.61351 7.88326 3.6387L6.33455 4.6773C6.06973 4.8546 5.75652 4.95 5.436 4.95H4.62694L7.70246 11.862C7.76199 11.9963 7.77556 12.146 7.74113 12.2886C7.7067 12.4311 7.62613 12.5588 7.51161 12.6522C7.43855 12.7107 7.3655 12.7656 7.22853 12.8529C6.99773 13.0005 6.75597 13.1308 6.50531 13.2426C5.68077 13.6125 4.785 13.8028 3.87906 13.8006C2.97313 13.8028 2.07735 13.6125 1.25282 13.2426C1.00216 13.1308 0.760403 13.0005 0.529599 12.8529C0.4324 12.791 0.338239 12.7247 0.247433 12.654C0.133576 12.5597 0.0534808 12.4318 0.0189552 12.2892C-0.0155704 12.1466 -0.00269976 11.9968 0.0556696 11.862L3.13027 4.95H1.69022C1.50858 4.95 1.33439 4.87888 1.20595 4.7523C1.07751 4.62571 1.00535 4.45402 1.00535 4.275C1.00535 4.09598 1.07751 3.92429 1.20595 3.7977C1.33439 3.67112 1.50858 3.6 1.69022 3.6H5.436C5.48227 3.6 5.52518 3.5871 5.56475 3.5613L7.11256 2.5227C7.37737 2.3445 7.6915 2.25 8.01202 2.25H9.81459V0.675C9.81459 0.495979 9.88675 0.32429 10.0152 0.197703C10.1436 0.0711158 10.3178 0 10.4995 0C10.6811 0 10.8553 0.0711158 10.9837 0.197703C11.1122 0.32429 11.1843 0.495979 11.1843 0.675ZM1.54412 11.8782C2.26262 12.2558 3.06481 12.4521 3.87906 12.4497C4.69332 12.4521 5.49551 12.2558 6.21401 11.8782L3.87906 6.6312L1.54412 11.8782ZM14.794 11.8566C14.8689 11.8926 14.9526 11.9304 15.0452 11.97C15.5291 12.1707 16.2368 12.375 17.1199 12.375C17.9249 12.3771 18.7199 12.1999 19.4457 11.8566L17.1199 6.6303L14.794 11.8566Z" fill="black"/>
</svg>
