<svg width="22" height="12" viewBox="0 0 22 12" fill="none" xmlns="http://www.w3.org/2000/svg">
<path d="M20.2525 7.25251L21.505 6L20.2525 4.74749L20.005 4.5L20.2525 4.25251L21.505 3L20.2525 1.74749L20.005 1.5L20.2525 1.25251L21.155 0.35H7.175L4.28 4.21L4.175 4.35H4H2C1.0833 4.35 0.35 5.0833 0.35 6V8.65H2H2.35V9C2.35 9.70282 2.6292 10.3769 3.12617 10.8738C3.62314 11.3708 4.29718 11.65 5 11.65C5.70282 11.65 6.37686 11.3708 6.87383 10.8738C7.3708 10.3769 7.65 9.70282 7.65 9V8.65H8H21.155L20.2525 7.74749L20.005 7.5L20.2525 7.25251ZM18.38 1.15H18.525L18.6275 1.25251L20.1275 2.75251L20.375 3L20.1275 3.24749L19.1275 4.24749L19.025 4.35H18.88H12.5H12.15V4V1.5V1.15H12.5H18.38ZM11 1.15H11.35V1.5V4V4.35H11H5.54H4.82086L5.26456 3.78405L7.22456 1.28405L7.32966 1.15H7.5H11ZM3.69185 7.69185C4.0388 7.34491 4.50935 7.15 5 7.15C5.49065 7.15 5.9612 7.34491 6.30815 7.69185C6.65509 8.03879 6.85 8.50935 6.85 9C6.85 9.49065 6.65509 9.96121 6.30815 10.3081C5.9612 10.6551 5.49065 10.85 5 10.85C4.50935 10.85 4.0388 10.6551 3.69185 10.3081C3.34491 9.96121 3.15 9.49065 3.15 9C3.15 8.50935 3.34491 8.03879 3.69185 7.69185Z" stroke="black" stroke-width="0.7"/>
</svg>
