<svg width="17" height="20" viewBox="0 0 17 20" fill="none" xmlns="http://www.w3.org/2000/svg">
<path d="M15.1176 10.45V5.32C15.1176 3.80786 15.1176 3.05179 14.8291 2.47423C14.5754 1.96619 14.1704 1.55314 13.6723 1.29428C13.1061 1 12.3648 1 10.8824 1H5.23529C3.7528 1 3.01156 1 2.44532 1.29428C1.94724 1.55314 1.54229 1.96619 1.28851 2.47423C1 3.05179 1 3.80786 1 5.32V14.68C1 16.1921 1 16.9482 1.28851 17.5258C1.54229 18.0338 1.94724 18.4469 2.44532 18.7057C3.01156 19 3.7528 19 5.23529 19H8.05882M9.82353 9.1H4.52941M6.29412 12.7H4.52941M11.5882 5.5H4.52941M10.2647 16.3L12.0294 18.1L16 14.05" stroke="black" stroke-linecap="round" stroke-linejoin="round"/>
</svg>
